<svg id="Boots" xmlns="http://www.w3.org/2000/svg" viewBox="0 0 51.34 69.5"><defs><style>.cls-1{fill:#f8bcd1;}.cls-2{fill:#ffc60b;}.cls-3{fill:#614130;}</style></defs><title>ashlyn_boots</title><g id="Ashlyn"><g id="fill"><path class="cls-1" d="M34,56.28c-0.07,1.69-.61,2.5,1.27,2.65a14.85,14.85,0,0,0,3.48,0c2.9-.41,5.44-0.89,6.43-3.91-0.35-3.11-4.37-2.28-6.57-2.77-1.55-.35-2.31-0.92-3.43.56A6.82,6.82,0,0,0,34,56.28Z" transform="translate(-2.43 -2)"/><path class="cls-2" d="M46.45,53.84c0.34,2.36-1.43,4.71-3.69,5.65-2.5,1-4.62.78-7.18,0.78-1.34,0-2.63.26-3-.86a6.92,6.92,0,0,1,.23-3.09c0.42-2.34.74-3.77,2.47-5.49-1.13-.85-1.49-1.76-2.44-0.56a19.54,19.54,0,0,0-2.06,2.84c-0.66,1.23-2.38,4.72-1.67,6-1.45-.75-4.11.27-5.78,0-0.33,1-7.81,0-9.16-.23a22.6,22.6,0,0,1-8.78-3.22c-0.45,2.24-1.56,4.21-2,6.42-0.25,1.28-.64,2.22.56,2.93a8.11,8.11,0,0,0,3,.41c2,0.17,4,.46,6,0.52s4-.18,6,0C23,66.19,27,65,31,65s8.4,0.47,12.52.14a17.21,17.21,0,0,0,5.17.28c0.68-.13,2.65-0.3,3-0.8a13.53,13.53,0,0,0,.43-2.81C52.84,57.68,50.08,55.09,46.45,53.84Z" transform="translate(-2.43 -2)"/><path class="cls-2" d="M38.7,66.34a109.19,109.19,0,0,0-12.16.44c-4,.54-8.15-0.09-12.1.54-1.73.28-4-.27-5.76-0.28a22.59,22.59,0,0,1-5.49-.89C3.72,69.25,6.61,69,9.1,69.24a32.92,32.92,0,0,0,7,.29,63.2,63.2,0,0,0,9.64-.4c1.44-.09,2.87-0.34,4.3-0.47s2.73,0.3,4,.12a28.41,28.41,0,0,1,9.2.31c3.07,0.75,6.2,0,7.85-2.74C47.42,67.84,42.49,66.26,38.7,66.34Z" transform="translate(-2.43 -2)"/><path class="cls-1" d="M3.95,25.12c0.12,2,.5,3.91.42,5.91C4.23,34.84,5,38.55,5,42.33S5.1,50.09,5,53.94A16.93,16.93,0,0,0,8.41,56,17.85,17.85,0,0,0,12,57.23c2.56,0.3,5.08.84,7.67,0.93,0.84,0,7.46.32,7.54-.26a13.41,13.41,0,0,1,1.13-4.12,13.89,13.89,0,0,1,1.64-3c0.58-.57,1.13-1.13,1.66-1.74s0-.86-0.43-1.53a8.44,8.44,0,0,1-1.34-3.83,34.31,34.31,0,0,1,0-9.08c0.37-3,.37-6.35,1.22-9.28a51.37,51.37,0,0,0,1.6-8.95c0.12-1.25.8-3-.57-3.72a7.5,7.5,0,0,0-4-.42C28.16,0.06,6.91-.52,8.8,11.87c-0.49,1.9-4.25.57-5.28,1.81-0.78.94-.2,4.44,0,5.53A35.63,35.63,0,0,1,3.95,25.12Zm13-20c4.14-.53,6.67,2.82,7.56,6.45a7.48,7.48,0,0,1,.15,1.22c-4.63.07-9.28,0-13.91,0C11.36,9.41,13.14,5.65,17,5.16Z" transform="translate(-2.43 -2)"/></g><g id="outline"><path class="cls-3" d="M25.73,12.12c-0.89-3.63-3.42-7-7.56-6.45-3.84.49-5.61,4.24-6.19,7.68,4.63,0,9.28.06,13.91,0A7.35,7.35,0,0,0,25.73,12.12ZM18.88,6.95c3.1,0.48,4.47,2.13,5.45,5-3.56-.06-7.4.28-11,0.3C14.38,9.54,15.9,7.49,18.88,6.95Z" transform="translate(-2.43 -2)"/><path class="cls-3" d="M48.59,54c-0.94-.34-2.4-0.46-3.41-0.81-1.36-.48-3-0.93-4.38-1.3-4-1.05-3.17-.56-6.44-3.24C30.41,45.41,31.19,37,31.88,32.41c0.77-5.13,2.09-9,3.09-14.1,0.47-2.38,1.5-6-1.88-6.77A9.62,9.62,0,0,0,31,11.3c-0.93,0-.59-0.61-0.82-1.42A9.44,9.44,0,0,0,27.94,6c-1.87-1.89-3.76-3.3-6.4-3.7s-6-.49-8.52.78S9.34,6.85,8.8,9.47c-0.38,1.82.29,2.39-1.79,2.65-1.2.15-2.92,0.7-3.46,1.84-1,2.07.1,4.57,0.43,6.84a55.14,55.14,0,0,1,.49,7.48c0,2.49.14,5,.2,7.5,0.08,2.93.11,6.1,0.48,9,0.19,1.47-.17,2.91,0,4.37a25.48,25.48,0,0,1-.47,5.8c-0.27,1.38-.4,2.59-0.79,4S3,61.2,2.79,62.51c-0.29,1.56-1,6.55,1.08,7.31A14.58,14.58,0,0,0,8,71.07c1.52,0.1,3,.16,4.56.3a54,54,0,0,0,9.13-.17c2.76-.21,5.78-0.61,8.57-0.56,1.35,0,2.7-.07,4.06,0,0.6,0,1.19-.3,1.78-0.29,0.75,0,1.41.35,2.18,0.3a55.91,55.91,0,0,1,8.48.38c4.65,0.41,5.89-3.42,6.7-7.11,0.56-2.54.48-4.69-1-6.77A8,8,0,0,0,48.59,54ZM16.68,70a32.92,32.92,0,0,1-7-.29c-2.48-.21-5.38,0-5.9-3.07a22.6,22.6,0,0,0,5.49.89c1.8,0,4,.55,5.76.28,4-.63,8.09,0,12.1-0.54a109.17,109.17,0,0,1,12.16-.44c3.79-.09,8.73,1.49,12.36,0-1.65,2.72-4.78,3.49-7.85,2.74a28.41,28.41,0,0,0-9.2-.31c-1.29.18-2.7-.24-4-0.12s-2.87.38-4.3,0.47A63.22,63.22,0,0,1,16.68,70Zm27.49-4.4C40,66,35.79,65.45,31.65,65.5s-8,1.19-12.1.93c-2-.13-4,0.11-6,0s-4-.34-6-0.52a8.11,8.11,0,0,1-3-.41,1.87,1.87,0,0,1-1.09-2.48C3.92,60.86,5.56,58.45,6,56.21a22.6,22.6,0,0,0,8.78,3.22c1.35,0.26,8.83,1.25,9.16.23,1.67,0.26,4.33-.75,5.78,0-0.71-1.33,1-4.82,1.67-6a19.54,19.54,0,0,1,2.06-2.84c1-1.2,1.31-.29,2.44.56-1.73,1.71-2.06,3.14-2.47,5.49a6.92,6.92,0,0,0-.23,3.09c0.39,1.13,1.68.86,3,.86,2.56,0,4.68.26,7.18-.78,2.26-.94,4-3.29,3.69-5.65,3.63,1.25,6.38,3.84,5.72,8a13.56,13.56,0,0,1-.43,2.81c-0.39.5-2.36,0.67-3,.8A17.22,17.22,0,0,1,44.16,65.63ZM10,12.37C8.1,0,29.35.55,29.23,12.76a7.5,7.5,0,0,1,4,.42c1.36,0.71.69,2.47,0.57,3.72a51.38,51.38,0,0,1-1.6,8.95,59.57,59.57,0,0,0-1.5,9.22,34.86,34.86,0,0,0,.32,9.13A8.45,8.45,0,0,0,32.4,48c0.46,0.67,1,.88.43,1.53s-1.08,1.17-1.66,1.74a13.89,13.89,0,0,0-1.64,3,13.41,13.41,0,0,0-1.13,4.12c-0.08.58-6.7,0.29-7.54,0.26-2.59-.09-5.1-0.63-7.67-0.93A17.86,17.86,0,0,1,9.6,56.51a16.94,16.94,0,0,1-3.41-2.07c0.1-3.85.09-7.77,0-11.61s-0.81-7.49-.67-11.31c0.08-2-.3-3.93-0.42-5.91a35.53,35.53,0,0,0-.38-5.91c-0.25-1.09-.83-4.58,0-5.53C5.74,12.94,9.5,14.27,10,12.37Zm35.8,43.18c-1,3-3.54,3.5-6.43,3.91a14.85,14.85,0,0,1-3.48,0c-1.88-.15-1.33-1-1.27-2.65a6.82,6.82,0,0,1,1.18-3.44c1.12-1.48,1.88-.91,3.43-0.56C41.42,53.27,45.44,52.44,45.79,55.55Z" transform="translate(-2.43 -2)"/></g></g></svg>