<svg id="Boots" xmlns="http://www.w3.org/2000/svg" viewBox="0 0 51.01 70.12"><defs><style>.cls-1{fill:#fff;}.cls-2{fill:#69be5a;}.cls-3{fill:#a4dbe0;}.cls-4{fill:#d44e5b;}.cls-5{fill:#614130;}</style></defs><title>camille_boots</title><g id="Camille"><g id="fill"><path class="cls-1" d="M52.91,59.36c-2-5.25-4.92-6.18-9.35-6.17-6.55,0-9.45-.5-10.47-5.55-0.39-1.94.15-5.62,0.3-7.57,0.28-3.51.69-6.76,1-10.26a79.44,79.44,0,0,1,2.21-14.22,3.28,3.28,0,0,0-.68-2.8,2,2,0,0,0-1.55-.72L30.7,12a0.48,0.48,0,0,1-.15-0.17C30.08,9.42,28,1.69,20.7,1.69c-3.51,0-6.59,1.95-8.9,5.63a18.71,18.71,0,0,0-2.24,5.08l-2.27,0c-1.66,0-2,1.6-2.13,2.7A23.74,23.74,0,0,0,5,18.39C4.89,22,5.15,29.2,5.15,38.06c0,5-.41,9.08-0.69,14A94.69,94.69,0,0,1,2.81,63.9C2.44,65.81,2.36,69,4.22,70.22s5.28,0.66,7.42.77c5.13,0.26,10.19.82,15.34,0.82h0.08c9.28,0,16.33-.65,20.15-1h0.14c1.19-.11,2-0.19,2.41-0.19A3,3,0,0,0,52,69.67C54.06,67.55,53.88,62,52.91,59.36ZM15,12.52C15,12.52,16.75,8.37,17,8.08a3.81,3.81,0,0,1,3.16-1.71,4.22,4.22,0,0,1,1,.13C23.45,7.1,24.28,9,25,11.07a16.58,16.58,0,0,1,.71,1.81C21.48,12.91,18.47,12.48,15,12.52Z" transform="translate(-2.6 -1.69)"/><path class="cls-2" d="M35.08,68.83c0.09,0.69.2,1.22,0.28,1.55,4.61-.22,8.19-0.55,10.56-0.76H46c1.27-.12,2.11-0.19,2.54-0.19a1.83,1.83,0,0,0,1.37-.58A4.71,4.71,0,0,0,51,66.68a6.4,6.4,0,0,1-2.28,1.08A101.78,101.78,0,0,1,35.08,68.83Z" transform="translate(-2.6 -1.69)"/><path class="cls-3" d="M25.88,69H25.82c-5.2,0-13-.47-20.94-1.26a4.2,4.2,0,0,1-2.26-1,2.56,2.56,0,0,0,.53,1.66A3,3,0,0,0,5,69.35c7.87,0.79,15.65,1.26,20.82,1.26h0.07c2.73,0,5.51-.06,8.26-0.18-0.07-.35-0.18-0.89-0.26-1.57C31.3,68.94,28.61,69,25.88,69Z" transform="translate(-2.6 -1.69)"/><path class="cls-3" d="M18,51.29c-1.11.84-.31,2.46,0.33,3.33a7.78,7.78,0,0,0,.8.89l-0.33.07a3.2,3.2,0,0,0-2.49,1.61c-0.46,1.14.44,1.94,1.35,2.45,0.51,0.29,1.07.52,1.61,0.76a23.73,23.73,0,0,0-1.68,2.16,0.92,0.92,0,0,0,.15.78,1.62,1.62,0,0,0,1.33.45c1.85,0,5.82-1.6,7.66-7.65L21.3,51.75C20.41,51.22,19,50.54,18,51.29Z" transform="translate(-2.6 -1.69)"/><path class="cls-3" d="M5,66.52c7.88,0.79,15.66,1.26,20.83,1.26h0.06c2.69,0,5.34,0,7.88-.11C33.47,63.9,34,57.4,40,53.92c-0.88,0-1.73,0-2.59,0H37.2a6.29,6.29,0,0,1-4.66-1.72,6.84,6.84,0,0,1-1.78-4.48c0-.31,2.32-29.8,3.1-32.6,0.7-2.49-1.77-1.91-3.4-1.89-0.6,0-1.74.23-2.21-.26s-0.37-2.32-.63-3.14a12.39,12.39,0,0,0-1.67-3.46,8.39,8.39,0,0,0-6.41-3.44C12,2.89,9.38,13,9.36,13.13l-0.07.17c-0.43,1-1.85.53-2.7,0.66a1.36,1.36,0,0,0-1.3,1.43C5,22.66,4.85,29.9,4.85,37.19c0,18.27-1.21,24-1.86,27.11l-0.16.77A2.7,2.7,0,0,0,5,66.52ZM28,55.63a0.19,0.19,0,0,1,.06.2L28,56.09C26.3,62.21,22.19,65,19.1,65a2.68,2.68,0,0,1-2.34-1,2.09,2.09,0,0,1-.3-1.76,2.71,2.71,0,0,1,.67-1.11,3,3,0,0,1-2.47-2.9c-0.06-1.44,1-3.13,2.54-3.17a3.2,3.2,0,0,1-.51-0.75c-1.06-2.1-.55-4.56,2.15-4.56A6.66,6.66,0,0,1,22,50.77ZM12.6,12.55c0.05-.3,1.34-7.33,6.36-7.33s6.54,6.87,6.61,7.17l0.27,1.24-13.45.15Z" transform="translate(-2.6 -1.69)"/><path class="cls-2" d="M50.8,59.19c-1.22-3.11-4.22-4.66-8.37-5.11C35.25,56.9,34.64,63.7,35,67.63a103.3,103.3,0,0,0,13.48-1,5.34,5.34,0,0,0,2.89-1.89c0.05-.62.05-1.08,0.05-1.17A10.25,10.25,0,0,0,50.8,59.19Z" transform="translate(-2.6 -1.69)"/><path class="cls-4" d="M19.1,63.79a1.62,1.62,0,0,1-1.33-.45,0.92,0.92,0,0,1-.15-0.78,23.73,23.73,0,0,1,1.68-2.16c-0.54-.24-1.1-0.46-1.61-0.76-0.91-.52-1.81-1.31-1.35-2.45a3.2,3.2,0,0,1,2.49-1.61l0.33-.07a7.78,7.78,0,0,1-.8-0.89c-0.64-.87-1.44-2.49-0.33-3.33s2.39-.07,3.28.47l5.46,4.39C24.92,62.19,21,63.79,19.1,63.79Z" transform="translate(-2.6 -1.69)"/><circle class="cls-1" cx="40.76" cy="58.65" r="2.2"/><circle class="cls-1" cx="46.75" cy="56.45" r="2.2"/></g><g id="outline"><path class="cls-5" d="M7.28,12.42c-1.66,0-2,1.6-2.13,2.7A23.74,23.74,0,0,0,5,18.39C4.89,22,5.15,29.2,5.15,38.06c0,5-.41,9.08-0.69,14A94.69,94.69,0,0,1,2.81,63.9C2.44,65.81,2.36,69,4.22,70.22s5.28,0.66,7.42.77c5.13,0.26,10.19.82,15.34,0.82h0.08c9.28,0,16.33-.65,20.15-1h0.14c1.19-.11,2-0.19,2.41-0.19A3,3,0,0,0,52,69.67c2.09-2.13,1.91-7.7.94-10.31-2-5.25-4.92-6.18-9.35-6.17-6.55,0-9.45-.5-10.47-5.55-0.39-1.94.15-5.62,0.3-7.57,0.28-3.51.69-6.76,1-10.26a79.44,79.44,0,0,1,2.21-14.22,3.28,3.28,0,0,0-.68-2.8,2,2,0,0,0-1.55-.72L30.7,12a0.48,0.48,0,0,1-.15-0.17C30.08,9.42,28,1.69,20.7,1.69c-3.51,0-6.59,1.95-8.9,5.63a18.71,18.71,0,0,0-2.24,5.08ZM7.76,14c0.84-.13,2.27.32,2.7-0.66l0.07-.17c0-.1,2.66-10.24,10.17-10.24a8.39,8.39,0,0,1,6.41,3.44,12.37,12.37,0,0,1,1.67,3.46c0.26,0.82.06,2.54,0.63,3.14s1.61,0.27,2.21.26c1.63,0,4.1-.6,3.4,1.89-0.78,2.8-3.08,32.29-3.1,32.6a6.84,6.84,0,0,0,1.78,4.48,6.28,6.28,0,0,0,4.66,1.72h0.21c0.86,0,1.71,0,2.59,0-6,3.48-6.53,10-6.24,13.75-2.54.07-5.19,0.11-7.88,0.11H27c-5.17,0-13-.47-20.83-1.26A2.7,2.7,0,0,1,4,65.06c0-.24.1-0.49,0.16-0.77C4.81,61.21,6,55.46,6,37.19c0-7.29.18-14.53,0.44-21.8A1.36,1.36,0,0,1,7.76,14ZM27,69h0.06c2.73,0,5.42,0,8-.11,0.09,0.68.19,1.22,0.26,1.57-2.75.11-5.53,0.17-8.26,0.18H27c-5.17,0-12.95-.47-20.82-1.26a3,3,0,0,1-1.83-.94,2.56,2.56,0,0,1-.53-1.66,4.2,4.2,0,0,0,2.26,1C14,68.51,21.79,69,27,69Zm25.5-4.26A5.34,5.34,0,0,1,49.6,66.6a103.31,103.31,0,0,1-13.48,1c-0.31-3.93.29-10.73,7.47-13.55a14.71,14.71,0,0,1,4.87,1.25A3,3,0,1,0,52,59.17a10.86,10.86,0,0,1,.53,4.38C52.55,63.64,52.55,64.1,52.5,64.72ZM49.2,60A1.79,1.79,0,1,1,51,58.22,1.79,1.79,0,0,1,49.2,60Zm0.55,9.4c-0.42,0-1.26.08-2.54,0.19H47.09c-2.37.22-5.95,0.54-10.56,0.76-0.07-.33-0.18-0.86-0.28-1.55A101.79,101.79,0,0,0,49.9,67.76a6.4,6.4,0,0,0,2.28-1.08,4.71,4.71,0,0,1-1.06,2.15A1.83,1.83,0,0,1,49.75,69.41Z" transform="translate(-2.6 -1.69)"/><path class="cls-5" d="M18.3,61.12a2.71,2.71,0,0,0-.67,1.11,2.09,2.09,0,0,0,.3,1.76,2.68,2.68,0,0,0,2.34,1c3.09,0,7.21-2.79,8.93-8.9l0.07-.26a0.19,0.19,0,0,0-.06-0.2l-6-4.86A6.66,6.66,0,0,0,20,49.72c-2.7,0-3.21,2.47-2.15,4.56a3.19,3.19,0,0,0,.51.75c-1.54,0-2.6,1.74-2.54,3.17A3,3,0,0,0,18.3,61.12ZM20,55.58l0.33-.07a7.77,7.77,0,0,1-.8-0.89c-0.64-.87-1.44-2.49-0.33-3.33s2.39-.07,3.28.47l5.46,4.39c-1.84,6-5.81,7.65-7.66,7.65a1.62,1.62,0,0,1-1.33-.45,0.92,0.92,0,0,1-.15-0.78,23.62,23.62,0,0,1,1.67-2.16c-0.54-.24-1.1-0.46-1.61-0.76-0.91-.52-1.81-1.31-1.35-2.45A3.2,3.2,0,0,1,20,55.58Z" transform="translate(-2.6 -1.69)"/><path class="cls-5" d="M46.33,60.46a3,3,0,1,0-3,3A3,3,0,0,0,46.33,60.46Zm-3,1.79a1.79,1.79,0,1,1,1.79-1.79A1.79,1.79,0,0,1,43.34,62.25Z" transform="translate(-2.6 -1.69)"/><circle class="cls-5" cx="40.74" cy="58.76" r="0.83"/><path class="cls-5" d="M49.72,62.76a0.61,0.61,0,0,0-.68.5,2.44,2.44,0,0,1-1,1.58,2.91,2.91,0,0,1-2.52-.21,0.61,0.61,0,0,0-.79.3,0.6,0.6,0,0,0,.31.79,5.34,5.34,0,0,0,2.13.52,3,3,0,0,0,1.45-.35,3.61,3.61,0,0,0,1.65-2.44A0.6,0.6,0,0,0,49.72,62.76Z" transform="translate(-2.6 -1.69)"/><path class="cls-5" d="M26.74,12.39c-0.06-.29-1.61-7.17-6.61-7.17s-6.31,7-6.36,7.33l-0.21,1.23L27,13.62Zm-6.62-6a4.22,4.22,0,0,1,1,.13C23.45,7.1,24.28,9,25,11.07a16.58,16.58,0,0,1,.71,1.81c-4.24,0-7.24-.4-10.67-0.36C15,12.52,16.75,8.37,17,8.08A3.81,3.81,0,0,1,20.13,6.37Z" transform="translate(-2.6 -1.69)"/><path class="cls-5" d="M49.35,57.42a0.84,0.84,0,1,0,.84.84,0.84,0.84,0,0,0-.84-0.84" transform="translate(-2.6 -1.69)"/></g></g></svg>