<svg id="Boots" xmlns="http://www.w3.org/2000/svg" viewBox="0 0 56.21 73.5"><defs><style>.cls-1{fill:#614130;}.cls-2{fill:#fff;}.cls-3{fill:#ed328b;}.cls-4{fill:#f0689f;}</style></defs><title>emerson_boots</title><g id="Emerson"><g id="fill"><path class="cls-1" d="M30,34.29l0,0v0Z" transform="translate(0 0)"/><path class="cls-1" d="M19.08,38.8l0,0,0.06,0h0Z" transform="translate(0 0)"/><path class="cls-2" d="M54.36,58.58c-2.82-3.52-7.69-4.76-12-4.75-3.48,0-6.57.46-8.55-2.9-4.9-8.36-1.61-20.1-1.12-30.31,0.11-2.31,1.62-4.9,1.21-7.18a2.72,2.72,0,0,0-1.53-2.07,11.89,11.89,0,0,0-3-.46,17,17,0,0,0-.73-3.57C27.81,4.87,26,3.33,24,1.81c-3.31-2.46-9.58-2.36-12.92,0A11.77,11.77,0,0,0,8.71,4.05c-0.16.19-.31,0.39-0.46,0.6A12.48,12.48,0,0,0,6.56,7.77c-0.49,1.43-.44,2.5-1.71,3.47C3.79,12.06,2.27,12,1.25,12.8c-1.61,1.32-1.35,4.68-1,6.79C1.58,26.31,1.41,33,2.12,39.84A117.5,117.5,0,0,1,1.78,65a10.25,10.25,0,0,0,.54,5.12c1.24,3.05,4.43,3.42,7.43,3.36,2.84-.05,5.82-0.64,8.68-0.87,4.92-.4,9.92-0.28,14.87-0.22,4.38,0.05,8.73.38,13.11,0,2.24-.17,5-0.15,6.78-1.6C56.83,67.91,57.11,62,54.36,58.58ZM23,12.35c-3.81.11-7.62,0.4-11.43,0.5,0.62-3.52,1.71-7.23,5.6-8h0C21.12,5.39,22.94,8,23,12.35Z" transform="translate(0 0)"/><path class="cls-3" d="M2.28,36.79h0.1s0-.06,0-0.1Z" transform="translate(0 0)"/><path class="cls-3" d="M25.27,58.07a24.62,24.62,0,0,1-2.42,1.08l0,0.11C23.77,59.1,25.14,59.29,25.27,58.07Z" transform="translate(0 0)"/><path class="cls-3" d="M27.29,53.61c-4.93,2-9.75,3.7-14.45,6.41,2.27-.29,4.52-0.41,6.81-0.52,1.86-.09,4.2-1.83,6-2.47C25.66,57,26.67,54.74,27.29,53.61Z" transform="translate(0 0)"/><path class="cls-4" d="M29.76,58.53a39.41,39.41,0,0,0,5.69,0c1.94-.1,3.82.25,5.77,0.06,1.15-.11,5-1.07,4.65-2.89-0.31-1.6-3.51-1-4.51-1V54.53c-1.29.41-2.47-.49-3.71-0.1-1,.32-2,0.55-3,0.89C32.47,56.06,30.22,55.91,29.76,58.53Z" transform="translate(0 0)"/><path class="cls-3" d="M30,34.29l0,0v0Z" transform="translate(0 0)"/><path class="cls-4" d="M3,55.92c2.06-3.14,5.08-5.79,7.54-8.66a79.65,79.65,0,0,1,7.81-7.7c-5.28-1.27-10.62-2.08-16-2.82C2.09,43.12,3.67,49.56,3,55.92Z" transform="translate(0 0)"/><path class="cls-3" d="M4.64,59.16c3.84-4.69,8.47-8.33,12.55-12.73a62.35,62.35,0,0,1,5.73-5.37C25.48,39,27.64,36.6,30,34.32c0.13-1.71.42-3.36,0.45-5.08-5.55,4.3-9.77,10.2-15.23,14.59a50,50,0,0,0-7.33,7.69c-1,1.29-2.22,2.32-3.17,3.68A15.82,15.82,0,0,0,3,57.46C2.93,57.83,4.36,58.89,4.64,59.16Z" transform="translate(0 0)"/><path class="cls-3" d="M28.73,53.18c-0.72,1.74-1.54,3.53-2.38,5.21,0.45,0,2.73,0,2.87-.28,0.43-.87.88-1.74,1.34-2.6,0.78-1.47,1.39-3.1,2.15-4.57a8,8,0,0,1-1.46-2.64C30.55,50,29.44,51.46,28.73,53.18Z" transform="translate(0 0)"/><path class="cls-3" d="M36.48,54.07l0-.12a9,9,0,0,1-3.31-1.81c-0.65,1.09-1.27,2.18-1.87,3.29C32.75,55.21,35.46,53.87,36.48,54.07Z" transform="translate(0 0)"/><path class="cls-3" d="M32.26,51.39v0l0,0V51.39Z" transform="translate(0 0)"/><path class="cls-3" d="M4.83,36.2a39.35,39.35,0,0,1,5,.88c3.1,0.76,6.2,1.11,9.32,1.73a21.23,21.23,0,0,1,2.56-2.31C15.17,35.44,8.76,33.38,2.13,33a16.44,16.44,0,0,0,.17,2.84C2.58,36.14,4.37,36.15,4.83,36.2Z" transform="translate(0 0)"/><path class="cls-4" d="M4.82,31.57a77.55,77.55,0,0,0,10.77,2.14c2.61,0.44,5.23,1.6,7.33-.67a73.87,73.87,0,0,1,5.89-5c1.83-1.6,1.93-3.23,2-5.54s0.52-4.6.73-6.89c0.12-1.26.91-2.91-.3-3.87-0.43-.34-4.54-0.73-4.51-0.48,0-.47-0.05-0.92-0.12-1.38C26.19,7.21,25.24,4.53,23,2.93S16.94,0.79,14.12,1.2A8.36,8.36,0,0,0,6.81,7.91C6.45,9.43,7,11.19,5.55,11.67S2.5,12,1.21,13V12.9a8.91,8.91,0,0,0-.28,4.38c0.24,2.89.39,5.81,0.84,8.61,0.3,1.92-.34,4.29,1.84,5.23A12.59,12.59,0,0,0,4.82,31.57ZM13.67,4.14C16.6,2.09,20.71,3.85,22,7c0.51,1.28,1.42,3.18,1.21,4.6-0.17,1.15,0,.92-1.42,1-0.82,0-1.64.06-2.46,0.07-3.16,0-6.32.37-9.48,0.42C10.17,10.08,11,6,13.67,4.14Z" transform="translate(0 0)"/><path class="cls-3" d="M19.11,38.81h0l0,0Z" transform="translate(0 0)"/><path class="cls-3" d="M47.62,67.25c-2.22-.25-4.47.14-6.69-0.15-4.44-.58-9.09-0.08-13.58-0.63-8.32-1-17,1.71-25.24.22,0.26,2.13.36,4.11,2.63,5,1.61,0.66,4.09.43,5.79,0.34,4.27-.22,8.61-0.9,12.92-1.1,8.16-.4,16.63.79,24.72-0.53l0,0.13a7.74,7.74,0,0,0,5.89-3.94A14.89,14.89,0,0,1,47.62,67.25Z" transform="translate(0 0)"/><path class="cls-3" d="M54.46,62.85h0c-0.27-4.77-3.79-6.93-8.17-7.77,1.29,1.84-2.05,3.66-3.43,4a18,18,0,0,1-6,.43,48.23,48.23,0,0,0-6.46,0c-1.48,0-3.83.41-5.14,0.06-0.4.5-4.11,0.44-5.07,0.57-1.81.24-3.75,0.39-5.56,0.46s-3.38.46-5.09,0.43c-1.52,0-3.67-1.39-5-1-0.06-.51-1-0.79-1.5-1.08-0.15,1.22-.13,2.4-0.36,3.62-0.16.87-1.12,3.22,0,3.41,2.7,0.47,5.63-.08,8.37-0.17,5.17-.18,10.21-0.42,15.39-0.23,5.33,0.2,10.57.63,15.93,0.79,2.52,0.08,5.07.1,7.58,0.06A26.32,26.32,0,0,0,53.3,66C54.89,65.73,54.4,64.31,54.46,62.85Z" transform="translate(0 0)"/><path class="cls-4" d="M30,35.62a6.37,6.37,0,0,0-1.66,1.59L30,37.53l0.17,0.08Z" transform="translate(0 0)"/><path class="cls-4" d="M11.16,61c1.66-1,3.32-1.91,5-2.8A75.62,75.62,0,0,1,27.39,53.7l0.05,0.09a22.3,22.3,0,0,0,1.25-2.44A25,25,0,0,0,30.08,49a19.2,19.2,0,0,0-.38-2.8c-0.07-.86-0.23-1.67-0.25-2.54,0-.68-4-1.33-4.71-1.36-1.44-.07-3.17,2-4.11,3a39.77,39.77,0,0,1-7.79,6.83C10.09,54,7.37,58.37,5,60.65,7,61,9.32,62,11.16,61Z" transform="translate(0 0)"/><path class="cls-3" d="M30,38.43a18.78,18.78,0,0,0-2.5-.4l0-.06q-1.16,1.08-2.3,2.18c1.58,0.4,3.16.83,4.75,1.19A23.41,23.41,0,0,0,30,38.43Z" transform="translate(0 0)"/></g><g id="outline"><path class="cls-1" d="M22.43,13.32c1.39-.08,1.76.25,1.93-0.9,0.21-1.42-.61-3.6-1.12-4.87-1.27-3.17-6-4.74-8.9-2.69-2.69,1.89-4,5.94-4.35,9,3.16-.05,6.82-0.38,10-0.42C20.78,13.38,21.61,13.36,22.43,13.32ZM17.13,4.85h0c4,0.54,5.8,3.19,5.82,7.5-3.81.11-7.62,0.4-11.43,0.5C12.15,9.34,13.24,5.63,17.13,4.85Z" transform="translate(0 0)"/><path class="cls-1" d="M54.36,58.58c-2.82-3.52-7.69-4.76-12-4.75-3.48,0-6.57.46-8.55-2.9-4.9-8.36-1.61-20.1-1.12-30.31,0.11-2.31,1.62-4.9,1.21-7.18a2.72,2.72,0,0,0-1.53-2.07,11.89,11.89,0,0,0-3-.46,17,17,0,0,0-.73-3.57C27.81,4.87,26,3.33,24,1.81c-3.31-2.46-9.58-2.36-12.92,0a13.48,13.48,0,0,0-4.49,6c-0.49,1.43-.44,2.5-1.71,3.47C3.79,12.06,2.27,12,1.25,12.8c-1.61,1.32-1.35,4.68-1,6.79C1.58,26.31,1.41,33,2.12,39.84A117.5,117.5,0,0,1,1.78,65a10.25,10.25,0,0,0,.54,5.12c1.24,3.05,4.43,3.42,7.43,3.36,2.84-.05,5.82-0.64,8.68-0.87,4.92-.4,9.92-0.28,14.87-0.22,4.38,0.05,8.73.38,13.11,0,2.24-.17,5-0.15,6.78-1.6C56.83,67.91,57.11,62,54.36,58.58ZM43.24,55c1,0,2.94-.24,3.2,1.1,0.36,1.82-3.49,2.78-4.65,2.89-2,.19-3.83-0.16-5.77-0.06a39.41,39.41,0,0,1-5.69,0c0.47-2.62,2.71-2.47,4.89-3.21,1-.34,2-0.57,3-0.89C39.77,54.36,41.64,55,43.24,55Zm-6.41-.62,0,0.12c-1-.2-3.73,1.14-5.15,1.36,0.6-1.11,1.22-2.2,1.87-3.29A9,9,0,0,0,36.84,54.37Zm-4-2.54c-0.75,1.47-1.36,3.1-2.15,4.57-0.46.86-.9,1.73-1.34,2.6-0.15.3-2.43,0.23-2.87,0.28,0.83-1.68,1.66-3.47,2.38-5.21s1.82-3.15,2.52-4.87A8,8,0,0,0,32.83,51.83ZM20.21,59.91c-2.28.11-4.54,0.23-6.81,0.52,4.7-2.71,9.53-4.37,14.45-6.41a21.37,21.37,0,0,0-1.45,3.24C24.55,58.12,21.85,59.83,20.21,59.91Zm5.63-1.43c-0.13,1.22-1.5,1-2.44,1.19l0-.11A24.63,24.63,0,0,0,25.84,58.49ZM2.95,37.22C8.29,38,13.63,38.77,18.91,40a79.64,79.64,0,0,0-7.81,7.7c-2.46,2.87-5.47,5.52-7.54,8.66C4.19,50,2.62,43.6,2.95,37.22ZM5.32,55.63c1-1.36,2.14-2.39,3.17-3.68a50,50,0,0,1,7.33-7.69C21.27,39.85,25.49,34,31,29.66c0,1.71-.32,3.37-0.45,5.08C28.21,37,26,39.37,23.49,41.49a62.35,62.35,0,0,0-5.73,5.37c-4.08,4.39-8.72,8-12.55,12.72-0.27-.27-1.71-1.32-1.68-1.7A15.81,15.81,0,0,1,5.32,55.63ZM30.59,41.77C29,41.4,27.43,41,25.84,40.58q1.14-1.1,2.3-2.18l0,0.06a18.78,18.78,0,0,1,2.5.4A23.4,23.4,0,0,1,30.59,41.77Zm0-3.81-1.6-.33A6.37,6.37,0,0,1,30.6,36l0.11,2Zm-2.17,14.9a75.61,75.61,0,0,0-11.21,4.48c-1.7.89-3.36,1.84-5,2.8C10.31,61.2,8,60.1,6,59.8c2.41-2.27,4.56-5.75,7.31-7.57a48.24,48.24,0,0,0,8.35-7.77c0.94-1,2.67-3.11,4.11-3,0.7,0,4.69.68,4.71,1.36,0,0.87.18,1.68,0.25,2.54a19.18,19.18,0,0,1,.38,2.8,25,25,0,0,1-1.39,2.38ZM2.8,31.13c-0.52-1.25-.13-3.06-0.37-4.53C2,23.79,1.83,20.87,1.59,18a8.92,8.92,0,0,1,.28-4.38v0.06c1.29-1,2.88-.81,4.33-1.28s0.9-2.24,1.26-3.77a8.36,8.36,0,0,1,7.31-6.71A13.89,13.89,0,0,1,24,3.83c1.08,0.7,2.87,2.1,3.21,3.41a17.19,17.19,0,0,0,.88,2.59c0.27,0.63,0,1.44.18,2.12a5.24,5.24,0,0,1,3.65.72c1.18,0.71.38,2.46,0.27,3.61-0.23,2.47-.69,5-0.8,7.53,0,0.64-.14,1.27-0.2,1.9a16.56,16.56,0,0,1,0,1.68,4.6,4.6,0,0,1-1.54,1.95c-1.49,1.48-3.12,2.8-4.62,4.27-1.07,1.06-1.87,2.16-3.54,1.93-2.45-.34-4.87-0.74-7.32-1.14-2-.31-3.87-0.84-5.82-1.16C7.15,33,6,32.78,4.75,32.55A2.38,2.38,0,0,1,2.8,31.13Zm19.41,5.79a21.24,21.24,0,0,0-2.56,2.31c-3.12-.62-6.22-1-9.32-1.73a39.35,39.35,0,0,0-5-.87c-0.46-.05-2.25-0.06-2.53-0.38a16.44,16.44,0,0,1-.17-2.84C9.28,33.81,15.69,35.86,22.21,36.92ZM45.41,71.29c-3.88.05-7.76,0.1-11.64,0.09-3.24,0-6.51-.14-9.75,0-4.31.21-8.65,0.89-12.92,1.1-1.9.1-3.9,0.47-5.57-.69a6.76,6.76,0,0,1-2.65-4.65c1.41,0.68,3.88.41,5.44,0.41,2.18,0,4.36-.17,6.54-0.35,4.34-.36,8.73-0.86,13.08-0.32s9.14,0.05,13.58.63c2.22,0.29,4.47-.1,6.69.15,0.79,0.09,5.75.54,6-.48C53.36,71.22,48.73,71.24,45.41,71.29Zm8.46-4.91a26.34,26.34,0,0,1-3.37.51c-2.52,0-5.07,0-7.58-.06C37.57,66.66,32.33,66.23,27,66c-5.18-.19-10.22,0-15.39.23-2.74.09-5.67,0.64-8.37,0.17-1.11-.19-0.16-2.54,0-3.41s0.14-2,.29-3c3.62,2.35,7.68,1.26,11.65,1.11,1.81-.07,3.75-0.22,5.56-0.46a56.47,56.47,0,0,1,7.86-.51c2.62,0,5.21-.07,7.84-0.1a27.62,27.62,0,0,0,7-.5c1.38-.36,4.73-2.19,3.43-4,4.38,0.84,7.89,3,8.17,7.77h0C55,64.73,55.47,66.15,53.87,66.37Z" transform="translate(0 0)"/><path class="cls-1" d="M52.43,61.29c-1.12.68-2.39,0-3.15-.53a2.65,2.65,0,0,0,2-1.41,2,2,0,0,0-.2-1.83,2.24,2.24,0,0,0-2.5-.8,1.66,1.66,0,0,0-1.06.81,4.07,4.07,0,0,0-.14,2.67,7.46,7.46,0,0,0-1.08-.08,3.19,3.19,0,0,0-2.7,1.06,2.19,2.19,0,0,0-.15,2.36,2.45,2.45,0,0,0,2,1.42l0.28,0c1.06-.19,1.77-1.94,2.13-3.14,0.61,1,1.42,2.61,1,3.73a0.44,0.44,0,0,0,.27.56l0.14,0a0.44,0.44,0,0,0,.41-0.29c0.51-1.48-.42-3.35-1-4.35a4.7,4.7,0,0,0,2.63,1,2.84,2.84,0,0,0,1.5-.42A0.44,0.44,0,0,0,52.43,61.29Zm-6.78,2.79H45.52a1.62,1.62,0,0,1-1.27-.94,1.34,1.34,0,0,1,.07-1.44,2.48,2.48,0,0,1,2-.71,6.59,6.59,0,0,1,.91.07C46.88,62.39,46.21,64,45.65,64.08ZM48.25,60a3.32,3.32,0,0,1,.06-2,0.78,0.78,0,0,1,.51-0.39,2,2,0,0,1,.5-0.07,1.22,1.22,0,0,1,1.05.52,1.09,1.09,0,0,1,.12,1C50.23,59.69,49.16,60,48.25,60Z" transform="translate(0 0)"/></g></g></svg>