<svg id="Boots" xmlns="http://www.w3.org/2000/svg" viewBox="0 0 51.83 69.2"><defs><style>.cls-1{fill:#fff;}.cls-2{fill:#ed328b;}.cls-3{fill:#f89b68;}.cls-4{fill:#614130;}</style></defs><title>kendall_boots</title><g id="Kendrall"><g id="fill"><path class="cls-1" d="M53,56.92a16,16,0,0,0-3.45-3.82c-4.25-3.63-9.12-2.45-14.26-3.3-1.85-.31-3.62-1.15-4.27-3.07a15.46,15.46,0,0,1,.1-8c0.11-.4.24-0.88,0.37-1.4l0.15-.6c0.31-1.27.68-2.84,1.09-4.66l0.14-.63c1.59-7.16,3.36-15.95,3.38-16a3.22,3.22,0,0,0-.42-2.59,3.21,3.21,0,0,0-2.72-1.09c-1.17,0-1.93,0-2.4,0-0.29-2-2-9.65-11.23-9.65-3.42,0-6.11,1-8,2.87-0.13.13-.23,0.27-0.35,0.41s-0.35.29-.5,0.46a8.81,8.81,0,0,0-2.3,5.18c-1.2-.09-4.2-0.19-4.49.89a2.32,2.32,0,0,1-.15.38,1.18,1.18,0,0,0-.76.36,1.87,1.87,0,0,0-.22,1.5c0.17,1.06.59,6.74,1,13.78S5,42.15,4.53,49.09q-0.07.88-.11,1.79c-0.2,4-.16,8.31-1.15,12.16a2.47,2.47,0,0,0,.35.34,3.82,3.82,0,0,1-.15.37c-0.13.26-.24,0.51-0.34,0.76l-0.29-.22,0,0c-0.7,1.35-.81,2.43-0.35,3.21a2.51,2.51,0,0,0,.83.81c1.42,2,4.83,2,5,2,4.07,0.1,8.13.21,12.2,0.29,6.79,0.13,13.59.43,20.38,0.47,1.22,0,2.42.09,3.64,0.15,1.78,0.09,3.46.2,5-.82C53.68,67.72,55.25,61.2,53,56.92ZM22.26,6.5a11.08,11.08,0,0,1,2,5.28L14.1,12c0.37-1.17,2.27-6.5,5.35-6.5A4.29,4.29,0,0,1,22.26,6.5Z" transform="translate(-2.19 -2.15)"/><path class="cls-2" d="M3.65,28C4,34.94,5,42.16,4.52,49.1c0,0.59-.08,1.19-0.11,1.79-0.2,4-.16,8.31-1.15,12.16,1.17,1.43,4.26,1.5,4.3,1.5L36,65.18c3.33-4.34,1.8-11.35,1.19-13.6-3.22-.35-7-0.65-8.58-3.82l-0.15-.31c-1.33-3-.73-6.67,0-9.76,0.95-4,1.38-8.19,2.33-12.23,0.8-3.43,1.69-6.84,2.56-10.26a2.06,2.06,0,0,0-.21-1.6A2.12,2.12,0,0,0,31.36,13a26.68,26.68,0,0,0-2.84.09l-0.65.09,0-.65c0-.37-0.57-9.12-10.1-9.12-3.09,0-5.49.85-7.12,2.51a9,9,0,0,0-2.34,5.84v0.61H3.94a1.36,1.36,0,0,0-1,.38,1.87,1.87,0,0,0-.22,1.5C2.86,15.27,3.29,20.95,3.65,28Zm7.61-16.34c0.21-.75,2.16-7.34,6.48-7.34,6,0,6.51,7.57,6.52,7.65l0.06,1.1L10.9,12.95Z" transform="translate(-2.19 -2.15)"/><path class="cls-3" d="M48.77,66.66l-5.5-.12-4-.1-12.83-.28L11,65.83l-3.5-.08A8.73,8.73,0,0,1,2.83,64.3l0,0c-0.7,1.35-.81,2.43-0.35,3.21,0.95,1.58,4,1.67,4.12,1.67l38.69,0.91h0.17c0.71,0,3.07-.26,4.59-3.57A5.18,5.18,0,0,1,48.77,66.66Z" transform="translate(-2.19 -2.15)"/><path class="cls-3" d="M50.28,57.65C49,55.05,46.55,53.16,42.85,52c-0.81,0-2.5-.14-4.39-0.32,0.71,2.77,1.83,9-1,13.51l11.41,0.25a4.55,4.55,0,0,0,1.72-.28A10.34,10.34,0,0,0,50.28,57.65Z" transform="translate(-2.19 -2.15)"/></g><g id="outline"><path class="cls-4" d="M31.07,52.67a0.82,0.82,0,1,0-.82-0.82,0.82,0.82,0,0,0,.82.82" transform="translate(-2.19 -2.15)"/><path class="cls-4" d="M22.85,54.5a1.62,1.62,0,0,0-.26-1.58,1.7,1.7,0,0,0,.19-0.44A1.91,1.91,0,0,0,22,50.26a1.49,1.49,0,0,0-1.34,0,2.41,2.41,0,0,0-.67-1,1.52,1.52,0,0,0-1-.44,1.41,1.41,0,0,0-1.29.83,3.24,3.24,0,0,0-.23,1,1.61,1.61,0,0,0-1.53.86,1.24,1.24,0,0,0-.07,1.16,1.66,1.66,0,0,0,.38.54A1.62,1.62,0,0,0,16,55.36a1.8,1.8,0,0,0,.75.53l0.13,0.06a0.48,0.48,0,0,0,.19,0,2.77,2.77,0,0,0,.86-0.17,1.13,1.13,0,0,0,.68.94,1.33,1.33,0,0,0,.55.11,1.45,1.45,0,0,0,.76-0.21,1.29,1.29,0,0,0,.54-0.8,1.72,1.72,0,0,1,.07-0.21l0.15,0a1.85,1.85,0,0,0,2.18-1.18m-0.78-.27a1,1,0,0,1-1.2.66l-0.21-.07a0.78,0.78,0,0,0-.29-0.07,0.71,0.71,0,0,0-.6.55,2.35,2.35,0,0,0-.11.31,0.53,0.53,0,0,1-.19.35,0.66,0.66,0,0,1-.54,0c-0.16-.07-0.18-0.13-0.22-0.43A1.77,1.77,0,0,0,18.54,55a0.41,0.41,0,0,0-.34-0.21h0a0.41,0.41,0,0,0-.34.18,1.28,1.28,0,0,1-.71.24l-0.07,0a1,1,0,0,1-.43-0.29c-0.3-.39,0-0.81.55-1.42a0.41,0.41,0,0,0,.11-0.36,0.41,0.41,0,0,0-.23-0.3,0.82,0.82,0,0,1-.43-0.44,0.42,0.42,0,0,1,0-.45,0.79,0.79,0,0,1,1-.34,0.42,0.42,0,0,0,.2.05h0l0.12,0a0.41,0.41,0,0,0,.29-0.36,0.4,0.4,0,0,0,0-.15,3.09,3.09,0,0,1,.15-1,0.6,0.6,0,0,1,.56-0.4,0.75,0.75,0,0,1,.51.25A1.9,1.9,0,0,1,20,51a0.42,0.42,0,0,0,.23.29,0.41,0.41,0,0,0,.37,0l0.17-.09A0.87,0.87,0,0,1,21.68,51a1.18,1.18,0,0,1,.3,1.27,1.21,1.21,0,0,1-.21.39l-0.05.07a0.41,0.41,0,0,0,.08.55,0.8,0.8,0,0,1,.27.94" transform="translate(-2.19 -2.15)"/><path class="cls-4" d="M19.38,52a0.79,0.79,0,1,0,.8.79,0.8,0.8,0,0,0-.8-0.79" transform="translate(-2.19 -2.15)"/><path class="cls-4" d="M8.2,53.93a0.73,0.73,0,1,0-.73-0.73,0.73,0.73,0,0,0,.73.73" transform="translate(-2.19 -2.15)"/><path class="cls-4" d="M25.32,40.78a2.41,2.41,0,0,0-.67-1,1.51,1.51,0,0,0-1-.44,1.4,1.4,0,0,0-1.28.84,3.24,3.24,0,0,0-.23,1,1.62,1.62,0,0,0-1.53.86,1.23,1.23,0,0,0-.07,1.16,1.65,1.65,0,0,0,.38.54,1.62,1.62,0,0,0-.27,2.15,1.83,1.83,0,0,0,.75.53l0.13,0.06a0.48,0.48,0,0,0,.19,0,2.77,2.77,0,0,0,.86-0.17,1.13,1.13,0,0,0,.68.93,1.32,1.32,0,0,0,.55.11,1.46,1.46,0,0,0,.76-0.21,1.29,1.29,0,0,0,.54-0.8,1.57,1.57,0,0,1,.07-0.21l0.15,0A1.85,1.85,0,0,0,27.47,45a1.61,1.61,0,0,0-.26-1.58,1.66,1.66,0,0,0,.19-0.44,1.91,1.91,0,0,0-.75-2.22,1.49,1.49,0,0,0-1.34,0m1,0.7a1.23,1.23,0,0,1,.09,1.66l-0.05.07a0.41,0.41,0,0,0,.08.55,0.8,0.8,0,0,1,.27.94,1,1,0,0,1-1.2.66l-0.2-.07A0.78,0.78,0,0,0,25,45.21a0.71,0.71,0,0,0-.6.55,2.41,2.41,0,0,0-.11.31,0.53,0.53,0,0,1-.19.35,0.66,0.66,0,0,1-.54,0c-0.16-.07-0.18-0.13-0.22-0.43a1.77,1.77,0,0,0-.18-0.62,0.41,0.41,0,0,0-.34-0.21h0a0.41,0.41,0,0,0-.34.18,1.27,1.27,0,0,1-.71.24l-0.07,0a1,1,0,0,1-.43-0.29c-0.3-.39,0-0.81.55-1.42a0.41,0.41,0,0,0-.12-0.66,0.82,0.82,0,0,1-.43-0.43,0.43,0.43,0,0,1,.05-0.45,0.79,0.79,0,0,1,1-.34,0.42,0.42,0,0,0,.2.05l0.13,0a0.41,0.41,0,0,0,.28-0.36,0.43,0.43,0,0,0,0-.14,3,3,0,0,1,.16-1,0.6,0.6,0,0,1,.56-0.4,0.76,0.76,0,0,1,.51.25,1.92,1.92,0,0,1,.54,1.1,0.41,0.41,0,0,0,.6.27l0.17-.09a0.87,0.87,0,0,1,.87-0.18" transform="translate(-2.19 -2.15)"/><path class="cls-4" d="M24,42.22a1.06,1.06,0,1,0,1.06,1.06A1.06,1.06,0,0,0,24,42.22" transform="translate(-2.19 -2.15)"/><path class="cls-4" d="M12.86,46.54a1.68,1.68,0,0,1,.07-0.21l0.15,0a1.85,1.85,0,0,0,2.18-1.18A1.62,1.62,0,0,0,15,43.62a1.67,1.67,0,0,0,.19-0.44A1.91,1.91,0,0,0,14.45,41a1.5,1.5,0,0,0-1.34,0,2.42,2.42,0,0,0-.67-1,1.51,1.51,0,0,0-1-.44,1.41,1.41,0,0,0-1.29.83,3.2,3.2,0,0,0-.23,1,1.61,1.61,0,0,0-1.53.86,1.24,1.24,0,0,0-.07,1.16,1.63,1.63,0,0,0,.38.54,1.62,1.62,0,0,0-.27,2.16,1.81,1.81,0,0,0,.75.53l0.13,0.06a0.48,0.48,0,0,0,.19,0,2.77,2.77,0,0,0,.85-0.17,1.13,1.13,0,0,0,.68.94,1.36,1.36,0,0,0,.55.11,1.45,1.45,0,0,0,.76-0.21,1.28,1.28,0,0,0,.54-0.8m-0.79-.24a0.54,0.54,0,0,1-.19.35,0.66,0.66,0,0,1-.54,0c-0.16-.07-0.18-0.13-0.22-0.43A1.79,1.79,0,0,0,11,45.64a0.41,0.41,0,0,0-.34-0.21h0a0.41,0.41,0,0,0-.34.18,1.28,1.28,0,0,1-.71.24l-0.07,0A1,1,0,0,1,9,45.53c-0.3-.39,0-0.81.55-1.42a0.41,0.41,0,0,0-.12-0.66A0.82,0.82,0,0,1,9,43a0.42,0.42,0,0,1,.05-0.45,0.78,0.78,0,0,1,1-.34,0.43,0.43,0,0,0,.2,0h0l0.12,0a0.41,0.41,0,0,0,.29-0.36,0.43,0.43,0,0,0,0-.15,3.15,3.15,0,0,1,.16-1,0.61,0.61,0,0,1,.56-0.4,0.76,0.76,0,0,1,.51.25,1.92,1.92,0,0,1,.54,1.1,0.41,0.41,0,0,0,.6.27l0.17-.09a0.87,0.87,0,0,1,.87-0.18,1.23,1.23,0,0,1,.09,1.65l-0.05.08a0.41,0.41,0,0,0,.08.55,0.8,0.8,0,0,1,.27.94,1,1,0,0,1-1.2.66l-0.21-.07a0.76,0.76,0,0,0-.29-0.07,0.71,0.71,0,0,0-.6.54,2.43,2.43,0,0,0-.11.31" transform="translate(-2.19 -2.15)"/><path class="cls-4" d="M12.38,43.51a0.57,0.57,0,1,0-.57.57,0.57,0.57,0,0,0,.57-0.57" transform="translate(-2.19 -2.15)"/><path class="cls-4" d="M26.12,57.95a2.43,2.43,0,0,0-.67-1,1.51,1.51,0,0,0-1-.44,1.4,1.4,0,0,0-1.29.83,3.2,3.2,0,0,0-.23,1,1.6,1.6,0,0,0-1.53.86,1.23,1.23,0,0,0-.07,1.16,1.66,1.66,0,0,0,.38.54A1.62,1.62,0,0,0,21.42,63a1.8,1.8,0,0,0,.75.53l0.13,0.06a0.49,0.49,0,0,0,.19,0,2.77,2.77,0,0,0,.86-0.17,1.13,1.13,0,0,0,.68.94,1.34,1.34,0,0,0,.55.11,1.46,1.46,0,0,0,.76-0.21,1.29,1.29,0,0,0,.54-0.8,1.37,1.37,0,0,1,.07-0.21l0.15,0a1.85,1.85,0,0,0,2.18-1.18A1.62,1.62,0,0,0,28,60.56a1.76,1.76,0,0,0,.19-0.44,1.91,1.91,0,0,0-.75-2.22,1.49,1.49,0,0,0-1.33,0m1,0.7a1.18,1.18,0,0,1,.3,1.27,1.2,1.2,0,0,1-.22.39l-0.05.07a0.41,0.41,0,0,0,.08.55,0.8,0.8,0,0,1,.28.94,1,1,0,0,1-1.2.66l-0.21-.07a0.77,0.77,0,0,0-.29-0.07,0.71,0.71,0,0,0-.6.55,2.52,2.52,0,0,0-.11.31,0.53,0.53,0,0,1-.19.35,0.67,0.67,0,0,1-.54,0c-0.16-.07-0.18-0.13-0.22-0.43A1.77,1.77,0,0,0,24,62.58a0.41,0.41,0,0,0-.34-0.21h0a0.41,0.41,0,0,0-.34.18,1.29,1.29,0,0,1-.71.24l-0.07,0a1,1,0,0,1-.44-0.29c-0.3-.39,0-0.81.55-1.42a0.41,0.41,0,0,0-.12-0.66A0.82,0.82,0,0,1,22,60a0.43,0.43,0,0,1,0-.45,0.79,0.79,0,0,1,1-.34,0.42,0.42,0,0,0,.2.05h0l0.12,0a0.41,0.41,0,0,0,.27-0.5,3,3,0,0,1,.16-1,0.6,0.6,0,0,1,.56-0.4,0.75,0.75,0,0,1,.51.25,1.91,1.91,0,0,1,.54,1.1,0.41,0.41,0,0,0,.23.29,0.41,0.41,0,0,0,.37,0l0.17-.09a0.87,0.87,0,0,1,.87-0.18" transform="translate(-2.19 -2.15)"/><path class="cls-4" d="M24.81,59.68a0.76,0.76,0,1,0,.76.76,0.77,0.77,0,0,0-.76-0.76" transform="translate(-2.19 -2.15)"/><path class="cls-4" d="M31.5,63a1.81,1.81,0,0,0,.75.53l0.13,0.06a0.5,0.5,0,0,0,.19,0,2.73,2.73,0,0,0,.86-0.17,1.13,1.13,0,0,0,.68.94,1.34,1.34,0,0,0,.55.11,1.46,1.46,0,0,0,.76-0.21,1.3,1.3,0,0,0,.54-0.8A1.57,1.57,0,0,1,36,63.27l0.15,0a1.85,1.85,0,0,0,2.18-1.18,1.61,1.61,0,0,0-.26-1.58,1.66,1.66,0,0,0,.19-0.44,1.91,1.91,0,0,0-.75-2.22,1.49,1.49,0,0,0-1.34,0,2.44,2.44,0,0,0-.67-1,1.51,1.51,0,0,0-1-.44,1.4,1.4,0,0,0-1.29.83,3.21,3.21,0,0,0-.23,1,1.62,1.62,0,0,0-1.53.86,1.24,1.24,0,0,0-.07,1.16,1.63,1.63,0,0,0,.38.54A1.63,1.63,0,0,0,31.5,63m1.07-2.6A0.83,0.83,0,0,1,32.13,60a0.43,0.43,0,0,1,0-.46,0.79,0.79,0,0,1,1-.34,0.42,0.42,0,0,0,.2,0h0l0.12,0a0.41,0.41,0,0,0,.28-0.36,0.4,0.4,0,0,0,0-.14,3,3,0,0,1,.15-1,0.6,0.6,0,0,1,.56-0.4,0.76,0.76,0,0,1,.51.25,1.92,1.92,0,0,1,.54,1.1,0.41,0.41,0,0,0,.23.29,0.41,0.41,0,0,0,.37,0l0.17-.09a0.87,0.87,0,0,1,.87-0.18,1.18,1.18,0,0,1,.3,1.27,1.2,1.2,0,0,1-.21.39l-0.05.07a0.41,0.41,0,0,0,.08.55,0.8,0.8,0,0,1,.27.94,1,1,0,0,1-1.2.66l-0.21-.07a0.76,0.76,0,0,0-.29-0.07,0.71,0.71,0,0,0-.6.55,2.59,2.59,0,0,0-.11.31,0.53,0.53,0,0,1-.19.35,0.66,0.66,0,0,1-.54,0c-0.16-.07-0.18-0.14-0.22-0.43A1.78,1.78,0,0,0,34,62.58a0.41,0.41,0,0,0-.34-0.21h0a0.41,0.41,0,0,0-.34.18,1.28,1.28,0,0,1-.71.25l-0.07,0a1,1,0,0,1-.44-0.29c-0.3-.39,0-0.81.55-1.42a0.41,0.41,0,0,0-.12-0.66" transform="translate(-2.19 -2.15)"/><path class="cls-4" d="M34.89,61.41a1,1,0,1,0-1-1,1,1,0,0,0,1,1" transform="translate(-2.19 -2.15)"/><path class="cls-4" d="M16,60.34a1.91,1.91,0,0,0-.75-2.22,1.49,1.49,0,0,0-1.34,0,2.4,2.4,0,0,0-.67-1,1.51,1.51,0,0,0-1-.44,1.41,1.41,0,0,0-1.29.84,3.23,3.23,0,0,0-.23,1,1.62,1.62,0,0,0-1.53.86,1.24,1.24,0,0,0-.07,1.16,1.64,1.64,0,0,0,.38.54,1.62,1.62,0,0,0-.27,2.15,1.79,1.79,0,0,0,.75.53l0.13,0.06a0.5,0.5,0,0,0,.19,0,2.76,2.76,0,0,0,.86-0.17,1.13,1.13,0,0,0,.68.94,1.32,1.32,0,0,0,.55.11,1.46,1.46,0,0,0,.76-0.21,1.29,1.29,0,0,0,.54-0.8,1.82,1.82,0,0,1,.07-0.21l0.15,0a1.85,1.85,0,0,0,2.18-1.18,1.62,1.62,0,0,0-.26-1.58A1.66,1.66,0,0,0,16,60.34m-3.79-2.78a1.08,1.08,0,0,1,.93.87,3.73,3.73,0,0,1,.16.75A3.43,3.43,0,0,1,14,58.85c1.48-.62,1.57,1.17.75,2a0.68,0.68,0,0,1,.43.38c0.48,1-.87,2.42-1.72,1.51a1.43,1.43,0,0,1-.53,1.15c-0.78.36-1.41-.68-1.34-1.34a3.24,3.24,0,0,1-.69.33c-1.41.37-1.35-1.78-.22-2-0.37-.24-0.89-0.48-0.69-1a1,1,0,0,1,1.14-.44,2.28,2.28,0,0,1,.79-1.75A0.77,0.77,0,0,1,12.21,57.57Z" transform="translate(-2.19 -2.15)"/><path class="cls-4" d="M12.6,59.81a0.86,0.86,0,1,0,.86.86,0.86,0.86,0,0,0-.86-0.86" transform="translate(-2.19 -2.15)"/><path class="cls-4" d="M21.64,31.38a1.49,1.49,0,0,0-1.34,0,2.41,2.41,0,0,0-.67-1,1.52,1.52,0,0,0-1-.44,1.41,1.41,0,0,0-1.28.84,3.2,3.2,0,0,0-.23,1,1.62,1.62,0,0,0-1.53.86,1.23,1.23,0,0,0-.07,1.16,1.61,1.61,0,0,0,.38.54,1.62,1.62,0,0,0-.27,2.15,1.8,1.8,0,0,0,.75.53l0.13,0.06a0.47,0.47,0,0,0,.19,0,2.78,2.78,0,0,0,.86-0.17,1.13,1.13,0,0,0,.68.94,1.32,1.32,0,0,0,.55.11,1.46,1.46,0,0,0,.76-0.21,1.29,1.29,0,0,0,.54-0.8,1.63,1.63,0,0,1,.07-0.21l0.15,0a1.85,1.85,0,0,0,2.18-1.18A1.62,1.62,0,0,0,22.19,34a1.65,1.65,0,0,0,.19-0.44,1.91,1.91,0,0,0-.75-2.22m-3.57-.17A0.7,0.7,0,0,1,18.43,31,1.18,1.18,0,0,1,19.66,32c0,0.14,0,.29.06,0.43a3.07,3.07,0,0,1,1-.38,0.7,0.7,0,0,1,.74.49,1.61,1.61,0,0,1-.51,1.6,1.67,1.67,0,0,1,.44.59c0.37,1.07-.86,1.4-1.6,1a1.88,1.88,0,0,1-.22.8,0.81,0.81,0,0,1-1.13.44,2.27,2.27,0,0,1-.5-1.18,2.08,2.08,0,0,1-.83.3,0.9,0.9,0,0,1-1-.85A1.7,1.7,0,0,1,17,34a1.26,1.26,0,0,1-.61-0.28,0.71,0.71,0,0,1,.17-1,1.35,1.35,0,0,1,1.29-.13A1.42,1.42,0,0,1,18.07,31.21Z" transform="translate(-2.19 -2.15)"/><path class="cls-4" d="M19,33a0.91,0.91,0,1,0,.91.91A0.92,0.92,0,0,0,19,33" transform="translate(-2.19 -2.15)"/><path class="cls-4" d="M7.74,33.35a0.85,0.85,0,1,0-.85-0.85,0.85,0.85,0,0,0,.85.85" transform="translate(-2.19 -2.15)"/><path class="cls-4" d="M23.35,26.24a0.92,0.92,0,1,0,.92-0.92,0.93,0.93,0,0,0-.92.92" transform="translate(-2.19 -2.15)"/><path class="cls-4" d="M26,11.94c0-.08-0.54-7.65-6.52-7.65-4.32,0-6.27,6.59-6.48,7.34l-0.36,1.3L26,13ZM14.09,12c0.37-1.17,2.27-6.5,5.35-6.5,4.3,0,5.13,5.14,5.26,6.26Z" transform="translate(-2.19 -2.15)"/><path class="cls-4" d="M16.68,25.06a2.09,2.09,0,0,0-.85-2.43,1.63,1.63,0,0,0-1.31,0,2.51,2.51,0,0,0-.65-0.92,1.7,1.7,0,0,0-1.16-.49,1.58,1.58,0,0,0-1.45.93A3,3,0,0,0,11,23a1.79,1.79,0,0,0-1.53,1,1.42,1.42,0,0,0-.07,1.33,1.86,1.86,0,0,0,.3.48A1.71,1.71,0,0,0,9.56,28a2,2,0,0,0,.81.58l0.13,0.06a0.68,0.68,0,0,0,.27.06,3,3,0,0,0,.72-0.11,1.25,1.25,0,0,0,.74.86,1.53,1.53,0,0,0,.63.13,1.64,1.64,0,0,0,.86-0.24,1.46,1.46,0,0,0,.62-0.91v0a2,2,0,0,0,.47.06,2,2,0,0,0,1.92-1.36,1.8,1.8,0,0,0-.21-1.66A1.77,1.77,0,0,0,16.68,25.06Zm-5.14-.91c-0.12-.58.34-1.78,1-1.77a1.18,1.18,0,0,1,1,1.36,4,4,0,0,1,.62-0.42,1.27,1.27,0,0,1,1.6.57c0.28,0.63-.32,1.19-0.7,1.61a1.07,1.07,0,0,1,.47.24,1,1,0,0,1-1.47,1.45,1.29,1.29,0,0,1-.2.86,1.26,1.26,0,0,1-1.4.47c-0.57-.28-0.35-0.73-0.37-1.21a1.13,1.13,0,0,1-.61.34,1.12,1.12,0,0,1-1.36-.61A1.77,1.77,0,0,1,11,25.77a1,1,0,0,1-.63-0.1,0.9,0.9,0,0,1-.17-1.27A1,1,0,0,1,11.54,24.15Z" transform="translate(-2.19 -2.15)"/><circle class="cls-4" cx="10.91" cy="23.19" r="0.98"/><path class="cls-4" d="M27.86,26A2.1,2.1,0,0,0,27,23.52a1.62,1.62,0,0,0-1.31,0A2.49,2.49,0,0,0,25,22.57a1.69,1.69,0,0,0-1.16-.49,1.58,1.58,0,0,0-1.45.93,3,3,0,0,0-.23.86,1.82,1.82,0,0,0-1.53,1,1.41,1.41,0,0,0-.07,1.32,1.83,1.83,0,0,0,.3.48,1.71,1.71,0,0,0-.16,2.27,2,2,0,0,0,.82.58l0.13,0.06a0.68,0.68,0,0,0,.27.06,3,3,0,0,0,.72-0.11,1.28,1.28,0,0,0,.74.86,1.55,1.55,0,0,0,.62.13,1.65,1.65,0,0,0,.86-0.24,1.47,1.47,0,0,0,.62-0.91v0a2,2,0,0,0,.47.06A2,2,0,0,0,27.92,28a1.79,1.79,0,0,0-.21-1.65A1.86,1.86,0,0,0,27.86,26Zm-1,1.69a1,1,0,0,1-.81.81,1.54,1.54,0,0,1-.68-0.06c-0.15.64-1,1.39-1.68,0.93a1.3,1.3,0,0,1-.34-1.15,1.52,1.52,0,0,1-.68.37A1,1,0,0,1,21.65,28a1.15,1.15,0,0,1,.6-1.35,0.86,0.86,0,0,1-.7-0.31,0.91,0.91,0,0,1,0-.76A1.1,1.1,0,0,1,23,24.8c0.12-1.47,2.54-1.51,2.3-.12a0.92,0.92,0,0,1,1.28,1.24,1.53,1.53,0,0,1-.42.58A1,1,0,0,1,26.88,27.65Z" transform="translate(-2.19 -2.15)"/><path class="cls-4" d="M26.56,21a2,2,0,0,0,.81.58l0.13,0.06a0.66,0.66,0,0,0,.27.06,3,3,0,0,0,.72-0.11,1.25,1.25,0,0,0,.74.86,1.53,1.53,0,0,0,.63.13,1.66,1.66,0,0,0,.86-0.24,1.49,1.49,0,0,0,.62-0.94h0a2,2,0,0,0,.47.06,2,2,0,0,0,1.92-1.36,1.79,1.79,0,0,0-.21-1.66,1.75,1.75,0,0,0,.15-0.38,2.09,2.09,0,0,0-.85-2.44,1.64,1.64,0,0,0-1.31,0,2.51,2.51,0,0,0-.65-0.92,1.7,1.7,0,0,0-1.16-.48,1.58,1.58,0,0,0-1.45.93A3,3,0,0,0,28,16a1.79,1.79,0,0,0-1.53,1,1.42,1.42,0,0,0-.07,1.33,1.86,1.86,0,0,0,.3.48A1.71,1.71,0,0,0,26.56,21Zm1-1.93a0.89,0.89,0,0,1-.39-0.38,1.33,1.33,0,0,1,1.7-1.88,1.73,1.73,0,0,1,.13-1,0.91,0.91,0,0,1,.77-0.46A1.34,1.34,0,0,1,31,16.8c1.07-.82,2.75-0.36,1.88,1.18a3,3,0,0,1-.65.75,2,2,0,0,1,.4,1.08,1.1,1.1,0,0,1-1,.78,2.33,2.33,0,0,1-.74,0s-0.41,1.25-1.07,1.14a1.44,1.44,0,0,1-1-1.1,1.3,1.3,0,0,1-.62.29c-1.25.17-1.05-1.07-.6-1.75Z" transform="translate(-2.19 -2.15)"/><circle class="cls-4" cx="27.91" cy="16.2" r="1.06"/><path class="cls-4" d="M21.34,20.66v0a2,2,0,0,0,.47.06,2,2,0,0,0,1.92-1.36,1.79,1.79,0,0,0-.21-1.65,1.77,1.77,0,0,0,.15-0.38,2.09,2.09,0,0,0-.85-2.43,1.63,1.63,0,0,0-1.31,0,2.49,2.49,0,0,0-.65-0.92,1.68,1.68,0,0,0-1.16-.49,1.6,1.6,0,0,0-1.45.93,3.07,3.07,0,0,0-.23.86,1.79,1.79,0,0,0-1.53,1,1.42,1.42,0,0,0-.07,1.33,1.84,1.84,0,0,0,.3.48,1.71,1.71,0,0,0-.16,2.27,2,2,0,0,0,.82.58l0.13,0.06a0.67,0.67,0,0,0,.27.06,3,3,0,0,0,.72-0.11,1.27,1.27,0,0,0,.74.86,1.53,1.53,0,0,0,.63.13,1.65,1.65,0,0,0,.86-0.24A1.49,1.49,0,0,0,21.34,20.66Zm-3.92-4.53a1.26,1.26,0,0,1,1.6,0c-0.37-1.36,1.47-2.09,1.88-.68a3.17,3.17,0,0,1,.06.72c0.39-.32,1-0.84,1.53-0.45a1.23,1.23,0,0,1,.08,1.49,1.8,1.8,0,0,1-.5.54c1.05,0.52,1,2.23-.43,2a2.8,2.8,0,0,1-.69-0.24c-0.15.81-1,2.08-1.62,0.82a2.21,2.21,0,0,1-.18-0.76,1.35,1.35,0,0,1-1.32.38c-1.14-.51.09-1.94,0-2C17.25,17.56,16.73,16.72,17.42,16.12Z" transform="translate(-2.19 -2.15)"/><circle class="cls-4" cx="17.91" cy="15.43" r="0.89"/><path class="cls-4" d="M6.27,19.63a2,2,0,0,0,.82.58l0.13,0.05a0.65,0.65,0,0,0,.27.06A3,3,0,0,0,8.2,20.2a1.26,1.26,0,0,0,.74.86,1.53,1.53,0,0,0,.62.13A1.65,1.65,0,0,0,10.43,21a1.47,1.47,0,0,0,.61-0.9v0a1.94,1.94,0,0,0,.47.06,2,2,0,0,0,1.92-1.36,1.8,1.8,0,0,0-.21-1.65,1.75,1.75,0,0,0,.15-0.38,2.09,2.09,0,0,0-.85-2.44,1.64,1.64,0,0,0-1.31,0,2.52,2.52,0,0,0-.65-0.92,1.69,1.69,0,0,0-1.16-.48A1.58,1.58,0,0,0,8,13.73a3.05,3.05,0,0,0-.23.86,1.8,1.8,0,0,0-1.53,1,1.42,1.42,0,0,0-.07,1.33,1.88,1.88,0,0,0,.3.48A1.71,1.71,0,0,0,6.27,19.63Zm1.2-2.12a2.4,2.4,0,0,1,.19-0.28c-1.39-.71-0.82-2.26.71-2,0.27-.48.7-1.24,1.36-1.11a1.66,1.66,0,0,1,.9,1.25,1.11,1.11,0,0,1,1.82,0,1.42,1.42,0,0,1-.24,1.8,1.33,1.33,0,0,1,.65.55,0.9,0.9,0,0,1-.18.81,1.47,1.47,0,0,1-1.8.51c-0.33.58-.63,1.41-1.51,1.11a1.6,1.6,0,0,1-.87-1c-0.39.25-1.16,0.5-1.39-.12A2.1,2.1,0,0,1,7.47,17.51Z" transform="translate(-2.19 -2.15)"/><circle class="cls-4" cx="7.62" cy="14.81" r="1.12"/><path class="cls-4" d="M53,56.93a15.94,15.94,0,0,0-3.45-3.82c-4.25-3.63-9.12-2.45-14.26-3.3-1.85-.31-3.62-1.15-4.27-3.07a15.46,15.46,0,0,1,.1-8c0.11-.4.24-0.88,0.37-1.4l0.15-.6c0.31-1.27.68-2.84,1.09-4.66l0.14-.63c1.59-7.16,3.36-15.95,3.38-16a3.22,3.22,0,0,0-.42-2.59,3.21,3.21,0,0,0-2.72-1.09c-1.17,0-1.93,0-2.4,0-0.29-2-2-9.65-11.23-9.65-3.42,0-6.11,1-8,2.87a10,10,0,0,0-2.66,6.09s-4.62-.5-5,0.85c-0.2.74-1,1.44-.79,2.5s0.88,8.1,1.26,16.43l0.06,1.34,0,1q0,0.9.07,1.82v0.27c0.23,6.31.32,11.75,0.26,16.18v0.24q0,0.73,0,1.43v0.25l0,0.5q0,0.81-.06,1.58v0.27C4.42,60,4,62.65,3.46,63.75c-0.9,1.75-1,3.22-.31,4.38,1.31,2.18,5,2.25,5.13,2.25,4.07,0.1,8.13.21,12.2,0.29,6.79,0.13,13.59.43,20.38,0.47,1.22,0,2.42.09,3.64,0.15,1.78,0.09,3.46.2,5-.82C53.67,67.73,55.24,61.22,53,56.93Zm-22.29-8a0.59,0.59,0,0,1,.39.2,1.75,1.75,0,0,1,.48,1l0.17,0.78,0.9-.49a7.37,7.37,0,0,0,.91.3,1.62,1.62,0,0,1,0,.59,1.05,1.05,0,0,1-.19.33l-0.36.53,0.43,0.35a0.61,0.61,0,0,1,.22.73c-0.25.7-1.19,0.64-1.78,0.58-0.19,1.82-2.16,1.46-1.76-.3-1,1.13-2.26.37-1-.9l0.57-.6-0.75-.36c-1.25-.59.76-1.33,1.4-1.19C30.27,50.06,30,48.89,30.67,48.89ZM30.83,34a1,1,0,0,0-1.11-.67,1,1,0,0,0-.39.14,0.89,0.89,0,0,0,.3,1.65,5,5,0,0,0,1.17-.24,13.32,13.32,0,0,0-.71,2c-0.16.38-.25,0.67-0.73,0.41a1.43,1.43,0,0,1-.55-1.15,1.34,1.34,0,0,1-.64.31c-1.41.19-.89-1.49-0.1-1.94a0.77,0.77,0,0,1-.9-1,1.13,1.13,0,0,1,1.32-.69,1.17,1.17,0,0,1,.88-1.56c0.84,0,1.15,1,1.18,1.68a2.28,2.28,0,0,1,.76-0.14C31.15,33.21,30.94,33.63,30.83,34ZM4.4,14.19a1.87,1.87,0,0,1,.22-1.5,1.36,1.36,0,0,1,1-.38H10V11.71a9,9,0,0,1,2.34-5.84c1.63-1.67,4-2.51,7.12-2.51,9.53,0,10.08,8.75,10.1,9.12l0,0.65L30.23,13A26.75,26.75,0,0,1,33.07,13a2.12,2.12,0,0,1,1.77.61,2.06,2.06,0,0,1,.21,1.6c0,0.07-1.83,9.11-3.42,16.22a1.91,1.91,0,0,0-.33.09,2.49,2.49,0,0,0-.65-0.93,1.69,1.69,0,0,0-1.16-.48A1.59,1.59,0,0,0,28,31a3,3,0,0,0-.23.86,1.82,1.82,0,0,0-1.53,1,1.42,1.42,0,0,0-.07,1.33,1.84,1.84,0,0,0,.3.48,1.71,1.71,0,0,0-.16,2.27,2,2,0,0,0,.82.58l0.23,0.1h0.16a3,3,0,0,0,.72-0.11,1.27,1.27,0,0,0,.74.86,1.49,1.49,0,0,0,.92.1h0a13.3,13.3,0,0,0,.38,9.28,1.62,1.62,0,0,0-1.09.89,3.06,3.06,0,0,0-.23.86,1.79,1.79,0,0,0-1.53,1,1.43,1.43,0,0,0-.07,1.33,1.85,1.85,0,0,0,.3.48,1.71,1.71,0,0,0-.16,2.27,2,2,0,0,0,.82.58l0.23,0.1,0.17,0a3,3,0,0,0,.72-0.11,1.25,1.25,0,0,0,.74.86,1.68,1.68,0,0,0,1.49-.11,1.46,1.46,0,0,0,.62-0.92v0a2,2,0,0,0,.47.06A2,2,0,0,0,34.7,53.6a1.8,1.8,0,0,0-.21-1.65,1.82,1.82,0,0,0,.15-0.38,2.68,2.68,0,0,0,.08-0.62c1.11,0.22,2.51.43,4.18,0.61,0.61,2.25,2.14,9.26-1.19,13.6L9.27,64.53S6.14,64.45,5,63a36.44,36.44,0,0,0,.78-6.47H5.87a3,3,0,0,0,.72-0.11,1.26,1.26,0,0,0,.74.86,1.68,1.68,0,0,0,1.49-.11,1.47,1.47,0,0,0,.62-0.91v0a2,2,0,0,0,.47.06A2,2,0,0,0,11.84,55a1.8,1.8,0,0,0-.21-1.66,1.84,1.84,0,0,0,.15-0.38,2.09,2.09,0,0,0-.85-2.43,1.64,1.64,0,0,0-1.31,0A2.49,2.49,0,0,0,9,49.53,1.69,1.69,0,0,0,7.8,49,1.58,1.58,0,0,0,6.35,50a3,3,0,0,0-.23.86l-0.18,0c0-3.76,0-8.2-.18-13.21h0V37.53c0-.56,0-1.12-0.06-1.69a2.94,2.94,0,0,0,.43-0.09,1.26,1.26,0,0,0,.74.86,1.68,1.68,0,0,0,1.49-.11A1.5,1.5,0,0,0,9,35.56H9a1.93,1.93,0,0,0,.47.06,2,2,0,0,0,1.92-1.36,1.8,1.8,0,0,0-.21-1.66,1.75,1.75,0,0,0,.15-0.38,2.09,2.09,0,0,0-.85-2.44,1.64,1.64,0,0,0-1.31,0,2.51,2.51,0,0,0-.65-0.92,1.71,1.71,0,0,0-1.16-.49,1.58,1.58,0,0,0-1.45.93,3,3,0,0,0-.23.86l-0.2,0Q5.41,29.05,5.36,28h0C5,20.93,4.57,15.25,4.4,14.19ZM6.89,29.55a1.17,1.17,0,0,1,1.64.89,1.31,1.31,0,0,1,0,.62,1,1,0,0,1,1.48.07,1.07,1.07,0,0,1,0,1.31c-0.29.39-.44,0.34,0,0.68a0.62,0.62,0,0,1,.22.73,1.33,1.33,0,0,1-1.65.53c-0.24.48-.68,1.33-1.35,1.18s-0.71-1-.8-1.47a6.5,6.5,0,0,1-.83.43L5.49,31.1A1.14,1.14,0,0,1,6.36,31,1,1,0,0,1,6.89,29.55ZM5.95,53l0,0a3.49,3.49,0,0,1,0-.88,3.77,3.77,0,0,1,1.12,0,1.38,1.38,0,0,1,.29-1.62,1,1,0,0,1,1.4.54,0.84,0.84,0,0,1,.07.55,1.37,1.37,0,0,1,2.07.29,1.57,1.57,0,0,1-.74,1.66,0.8,0.8,0,0,1,.52.36,1,1,0,0,1-1.67,1,1.44,1.44,0,0,1-.06.71,1.11,1.11,0,0,1-1.24.74c-0.6-.2-0.56-1-0.54-1.52a1.77,1.77,0,0,1-1.2.47l-0.14-.06c0-.14,0-0.3,0-0.47l0-.6,0.26-.28,0.58-.6ZM47.16,70.11H47L8.3,69.19c-0.13,0-3.17-.09-4.12-1.67-0.47-.78-0.35-1.86.35-3.21l0,0a8.73,8.73,0,0,0,4.71,1.45c8.34,0.18,16.68.28,25,.33,5.11,0,10.28.56,15.38,0.42a17.55,17.55,0,0,0,2.27-.25A5.47,5.47,0,0,1,47.16,70.11Zm5.12-5a4.55,4.55,0,0,1-1.72.28l-11.41-.25c2.86-4.5,1.74-10.74,1-13.51,1.89,0.18,3.57.28,4.39,0.32,3.7,1.14,6.2,3,7.43,5.63A10.34,10.34,0,0,1,52.27,65.16Z" transform="translate(-2.19 -2.15)"/></g></g></svg>