<svg id="Boots" xmlns="http://www.w3.org/2000/svg" viewBox="0 0 53.76 70.86"><defs><style>.cls-1{fill:#fff;}.cls-2{fill:#d44e5b;}.cls-3{fill:#bdb3b0;}.cls-4{fill:#614130;}</style></defs><title>willa_boots</title><g id="Willia"><g id="fill"><path class="cls-1" d="M54.36,58.27c-1.06-1.78-2.5-3.67-4.54-4.37a38.62,38.62,0,0,0-6.39-1.69c-1.06-.17-1.94.28-2.71-0.82a7.27,7.27,0,0,1-1.31-3.53c0.81,0,2.54.59,3-.63,0.51-1.46-1.91-2.27-2.81-2.44s-2.3,1.15-2.54,1.93a7.54,7.54,0,0,0,0,3.84c-1.7-1.19-2.92-1.94-3.87-3.8A11.12,11.12,0,0,1,31.87,42c-0.17-3.64.2-7.24,0.24-10.85,0.07-6.35,2-13.6,2.16-19.22-0.62-.82-0.56-1.63-1.86-2.08a8.94,8.94,0,0,0-1.93-.19c-1.71-.12-1.54-0.6-2.41-2.11C25.3,2.85,20,.72,14.57,1.47c-2.44.34-6.45,1.64-7.4,4.26a14,14,0,0,0-1,3.41C6.08,9.54,6,9.93,6,10.29a5,5,0,0,0,0,.84,0.78,0.78,0,0,1-.17.42c-0.38.33-2,.17-2.54,0.37a3,3,0,0,0-1.65,1.22C0.94,14.38,1.33,16,1.3,17.4c-0.18,9.13,1,18.24,1.29,27.35,0.11,3.21.28,6.47,0.25,9.69A49.6,49.6,0,0,1,2.12,60c-0.12,1-1,4.28-.55,4.79-1,1.5.53,5,2,5.93s3,0.72,4.83.94a73.12,73.12,0,0,0,12.47.39c3.4-.19,6.84-0.51,10.22-0.84,4.32-.42,8.52.47,12.86,0.42,1.68,0,3.45,0,5.12-.17a5.34,5.34,0,0,0,2.86-1.05,6.83,6.83,0,0,0,2-2.78A12.16,12.16,0,0,0,55,62.79C55,61.35,55.12,59.55,54.36,58.27ZM11.83,11.56c0.94-3.15,2.11-5.3,5.5-6v0C20.61,6,22.41,8,23,11.16,19.28,11.34,15.56,11.5,11.83,11.56Z" transform="translate(-1.22 -1.32)"/><path class="cls-2" d="M37.85,60.11c-0.55-1.11-1.72-2.49-2.62-2.06-0.49.23-.43,1.08-0.75,1.48a3.1,3.1,0,0,1-2.53.53c-1.66-.3-2-1.59-2.25-2.94-0.28-1.67-.29-3.36,1.54-3.93a4.53,4.53,0,0,1,4,.6c0.38,0.25,3.08,3,3.85,3.2,0.21-.42.43-0.83,0.67-1.23,0.06-.79-0.62-1.15-1.49-2-1.4-1.3-3.1-2.13-4.6-3.44A12.48,12.48,0,0,1,31,47v0.08c-0.31,1.7-1.74,3.39-3.44,2.33s-1-4.6,1-5a2.52,2.52,0,0,1,1.36.07c-1.34-4.39-.56-9.46-0.07-14.3a3.24,3.24,0,0,1-2.53,1,2,2,0,0,1-1.91-1.66c-0.4-1.73,1.22-4,3.16-3.86a2,2,0,0,1,1.56,1,64.79,64.79,0,0,1,1.16-10.92c0.85-3.51-.91-3.57-3.94-3.69a10.46,10.46,0,0,0-7.9-9.9A13.44,13.44,0,0,0,12,2.42,8.57,8.57,0,0,0,7.15,6.14,9.77,9.77,0,0,0,6,10.29c-0.1,1.62.73,2-1.47,1.94-3.64-.13-3.14,2.53-3,5.06s0.17,5.15.39,7.74c0.46,5.4.59,10.71,0.74,16.13,0.07,2.7.36,5.43,0.23,8.13-0.11,2.23.29,4.45,0.16,6.69C3,57.3,2.92,58.61,2.83,59.92a8.1,8.1,0,0,1-.28,1.24,3.2,3.2,0,0,1,2.08-.88,2.42,2.42,0,0,1,2.74,2.41c0.06,2.46-4.65,3.44-5.41.92-0.22,1.26-.2,2.38.64,2.63a33,33,0,0,0,10.16,1.22c3.62-.11,7.25.31,10.87,0.05,2.27-.16,4.47-0.41,6.74-0.45,0.85,0,1.68-.34,2.53-0.3a22.61,22.61,0,0,0,2.37.19c0.8,0,1.64-.41,2.41-0.38a3.36,3.36,0,0,1-.07-0.42,0.68,0.68,0,0,1-.22-0.42A16.09,16.09,0,0,1,37.85,60.11ZM24.45,21.2c-1.74,1.37-3.37.29-3.4-1.77a2.51,2.51,0,0,1,2-2.73C25.83,16.3,26.14,19.88,24.45,21.2ZM14.1,5a6.29,6.29,0,0,1,8,2.37,8.5,8.5,0,0,1,1.22,4.07c0,0.48-3.53.36-4.16,0.38-3,.11-6,0.18-9,0.28C10.22,9.73,11.69,6,14.1,5ZM8.53,18.25a2.27,2.27,0,0,1,3,3.36,2.53,2.53,0,0,1-1.87,1A2.31,2.31,0,0,1,8.53,18.25ZM3.22,29.35a2.63,2.63,0,0,1,4.87,1.53c0,1.06-1.52,2.29-2.8,2.61a1.79,1.79,0,0,1-1.07,0C2.81,32.93,2.45,30.55,3.22,29.35ZM4.67,49c-2-1.17-1.08-4.56,1-5,1.94-.38,2.57,1.13,2.34,2.64C7.77,48.36,6.42,50,4.67,49Zm3.95,8.33a2.49,2.49,0,0,1,1.52-4.64,2.39,2.39,0,0,1,2.74,2.42C12.92,56.55,9.75,58,8.62,57.33Zm4.95-16.87c-2.42,2.26-6.23-1.6-3.23-3.74a3.53,3.53,0,0,1,1.45-.62C14.27,35.68,15.16,39,13.57,40.46Zm4.66-14.19c1.67,0.15,2.23,2.18,1.92,3.37A3.09,3.09,0,0,1,17,31.79a1.93,1.93,0,0,1-1.8-1.53C14.71,28.47,16.16,26.09,18.22,26.28Zm-1,17.11a2.21,2.21,0,0,1,2.64,2.72c-0.25,2-2.07,4-4,2C14.59,46.77,15,43.61,17.22,43.39ZM15.3,61.07a2.72,2.72,0,0,1,2.78-2.4A2.37,2.37,0,0,1,20.81,61C20.89,63.86,15.2,64.63,15.3,61.07Zm5.33-22.72a2.69,2.69,0,0,1,2.76-2.56,2.49,2.49,0,0,1,2.75,2.48C26.23,41.24,20.52,41.83,20.63,38.35ZM21,54a2.72,2.72,0,0,1,2.77-2.52A2.44,2.44,0,0,1,26.49,54C26.56,56.9,20.87,57.51,21,54Zm6.36,9.51a2.73,2.73,0,0,1,2.77-2.42,2.37,2.37,0,0,1,2.74,2.35C32.92,66.37,27.23,67.13,27.33,63.55Z" transform="translate(-1.22 -1.32)"/><path class="cls-2" d="M39.87,67.11a116.28,116.28,0,0,0-13.38.47c-4.19.38-8.67,1-12.87,0.7A95,95,0,0,1,2,66.87c0.31,1.24.61,2.87,1.91,3.48,1.09,0.51,2.67.21,3.85,0.52,2.07,0.54,5,.3,7.14.14,2.7-.19,5.38,0,8.1-0.27,2-.18,4-0.23,5.89-0.51,4.23-.62,8.83.3,13.17,0.24S50.45,71.83,52.69,67C48.44,68.14,44.17,67.22,39.87,67.11Z" transform="translate(-1.22 -1.32)"/><path class="cls-3" d="M32.85,53.75c-4.18.8-1.3,5.78,0.69,4.55-0.73-1.09-2.44-3.89.35-3.52l5,3.21c1-1.5-.79-2-2-2.83S34.28,53.48,32.85,53.75Z" transform="translate(-1.22 -1.32)"/><path class="cls-3" d="M54.69,61.08h0c-0.11-3.88-2.66-5.51-5.81-6.86a2.69,2.69,0,0,1-1.71,4.42c-3.07-.41-3.29-5,0-5l0.24,0c-1.65-.12-2.72-1.23-4.39-0.17-1.51.95-2.28,2.87-3,4.43a13.77,13.77,0,0,0-1.22,5.41c0,1.3-.08,2.67,1.42,3a16,16,0,0,0,3.6.11c1.83,0,3.58-.08,5.41,0a8.84,8.84,0,0,0,2.85,0,12.39,12.39,0,0,1,2.14-.83A17.47,17.47,0,0,0,54.69,61.08ZM44,64.06a2.82,2.82,0,0,1-2.71-2.7c0-1.68,1.33-2.34,2.7-2.71h0c1.38,0.37,2.7,1,2.7,2.72A2.8,2.8,0,0,1,44,64.06Z" transform="translate(-1.22 -1.32)"/><path class="cls-3" d="M38.32,52.57a9.34,9.34,0,0,0,1.9,1.69c0.38-.64.66-0.92,0.32-1.57-0.43-.82-1.19-1.47-1.6-2.37-0.49-1.05-.82-2.94.73-3.07,0.48,0,1.53.39,1.7-.33,0.29-1.21-2-1.19-2.61-.93-1.64.73-1.66,2.79-1.34,4.23A7,7,0,0,0,38.32,52.57Z" transform="translate(-1.22 -1.32)"/></g><g id="outline"><path class="cls-4" d="M10.81,12.47c0.11-2.41,1.58-6.13,4-7.1a6.29,6.29,0,0,1,8,2.37A8.5,8.5,0,0,1,24,11.81c0,0.48-3.53.36-4.16,0.38C16.82,12.3,13.81,12.37,10.81,12.47Zm6.53-6.89c-3.39.67-4.56,2.83-5.5,6,3.72-.06,7.45-0.23,11.17-0.41C22.41,8,20.61,6,17.34,5.61" transform="translate(-1.22 -1.32)"/><path class="cls-4" d="M51.9,70.43a6.83,6.83,0,0,0,2-2.78A12.16,12.16,0,0,0,55,62.79c0-1.44.14-3.24-.63-4.52-1.06-1.78-2.5-3.67-4.54-4.37a38.62,38.62,0,0,0-6.39-1.69c-1.06-.17-1.94.28-2.71-0.82a7.27,7.27,0,0,1-1.31-3.53c0.81,0,2.54.59,3-.63,0.51-1.46-1.91-2.27-2.81-2.44s-2.3,1.15-2.54,1.93a7.54,7.54,0,0,0,0,3.84c-1.7-1.19-2.92-1.94-3.87-3.8A11.12,11.12,0,0,1,31.87,42c-0.17-3.64.2-7.24,0.24-10.85,0.07-6.35,2-13.6,2.16-19.22-0.62-.82-0.56-1.63-1.86-2.08a8.94,8.94,0,0,0-1.93-.19c-1.71-.12-1.54-0.6-2.41-2.11C25.3,2.85,20,.72,14.57,1.47c-2.44.34-6.45,1.64-7.4,4.26A11.81,11.81,0,0,0,6.1,9.55a4.69,4.69,0,0,1-.23,2c-0.38.33-2,.17-2.54,0.37a3,3,0,0,0-1.65,1.22C0.94,14.38,1.33,16,1.3,17.4c-0.18,9.13,1,18.24,1.29,27.35,0.11,3.21.28,6.47,0.25,9.69A49.6,49.6,0,0,1,2.12,60c-0.12,1-1,4.28-.55,4.79-1,1.5.53,5,2,5.93s3,0.72,4.83.94a73.12,73.12,0,0,0,12.47.39c3.4-.19,6.84-0.51,10.22-0.84,4.32-.42,8.52.47,12.86,0.42,1.68,0,3.45,0,5.12-.17A5.34,5.34,0,0,0,51.9,70.43Zm2.18-9.11a17.47,17.47,0,0,1-.46,4.54,12.39,12.39,0,0,0-2.14.83,8.84,8.84,0,0,1-2.85,0c-1.83-.11-3.58,0-5.41,0-1.26,0-4.68.23-4.83-1a15.49,15.49,0,0,1,.74-6.5,17.3,17.3,0,0,1,2.94-5.23c1.31-1.42,3.55-.53,5.2.13,3.58,1.44,6.65,3,6.77,7.26M33.77,55c-2.79-.37-1.08,2.43-0.35,3.52-2,1.23-4.87-3.75-.69-4.55,1.43-.27,2.92.67,4,1.42s3,1.32,2,2.83m1.72-4.18a9.34,9.34,0,0,1-1.9-1.69,7,7,0,0,1-.9-2.34c-0.33-1.44-.3-3.5,1.34-4.23,0.6-.27,2.9-0.28,2.61.93-0.17.72-1.22,0.29-1.7,0.33-1.56.13-1.22,2-.73,3.07,0.42,0.9,1.17,1.55,1.6,2.37C41.12,53.16,40.83,53.44,40.45,54.08ZM32.15,66.4a76,76,0,0,1-9.77.71c-2.24.08-4.51,0-6.75,0-1.3,0-2.56-.13-3.85-0.12a24.19,24.19,0,0,1-5.4-.36c-0.26-.06-3.44-0.88-3.43-0.94,0-.49,0-1,0.07-1.46,0.21-2.66.62-5.29,0.77-8,0.13-2.24-.27-4.46-0.16-6.69,0.13-2.7-.16-5.43-0.23-8.13C3.24,36.08,3.1,30.78,2.64,25.37c-0.22-2.59-.23-5.16-0.39-7.74s-0.65-5.19,3-5.06c2.2,0.08,1.37-.32,1.47-1.94A9.77,9.77,0,0,1,7.85,6.48a8.57,8.57,0,0,1,4.82-3.73,13.44,13.44,0,0,1,7.45-.22c3.69,0.83,7.84,4.8,8.6,8.61,1.46,0.09,3.41-.29,4.27,1.2s0,4.16-.2,5.7c-0.3,2-.55,4.06-0.93,6.06a57.87,57.87,0,0,0-.72,11.54c0,3.05-.91,8.7,1,11.31,1.39,1.86,2.63,3.65,4.78,4.61,0.57,0.25,1.42,1.76,2,2.25,1.24,1,1.09,1.26.47,2.54-2.13-1.64-5-3.82-7.77-2.95-2.33.73-2.53,2.74-1.34,4.59,0.51,0.79,1.23,1.86,2.3,1.82A1.49,1.49,0,0,0,34,58c-0.19-.62-1.32-1.07-1.29-1.74,0.07-1.2,3,1.12,3.28,1.31l2,1.3c0.76,0.51.1,1.08,0,1.89a42.65,42.65,0,0,0-.39,5.55C35.75,66.29,33.95,66.36,32.15,66.4Zm-29.81.53a95,95,0,0,0,11.78,1.43c4.2,0.26,8.68-.32,12.87-0.7a116.23,116.23,0,0,1,13.38-.47c4.3,0.11,8.56,1,12.82-.1-2.24,4.83-6.28,3.41-10.66,3.48s-8.94-.86-13.17-0.24c-1.89.28-3.88,0.33-5.89,0.51-2.72.24-5.4,0.07-8.1,0.27-2.17.16-5.07,0.4-7.14-.14-1.18-.31-2.76,0-3.85-0.52C3,69.81,2.75,68.14,2.44,66.89" transform="translate(-1.22 -1.32)"/><path class="cls-4" d="M43.4,58.9c-1.37.37-2.71,1-2.7,2.71a2.7,2.7,0,0,0,5.41,0c0-1.69-1.32-2.35-2.7-2.72m0,4.57c-0.87-.36-1.85-0.67-1.85-1.85a2,2,0,0,1,1.85-1.86,2.09,2.09,0,0,1,1.87,1.86c0,1.16-1,1.5-1.87,1.86" transform="translate(-1.22 -1.32)"/><path class="cls-4" d="M43.4,60.87a4.25,4.25,0,0,0-.75.74c0.46,0.83,1,.83,1.49,0a4.23,4.23,0,0,0-.74-0.74" transform="translate(-1.22 -1.32)"/><path class="cls-4" d="M46.54,55.63c-0.82.46-.82,1,0,1.49,0.82-.46.83-1,0-1.49" transform="translate(-1.22 -1.32)"/><path class="cls-4" d="M46.54,58.9c3-.45,3.3-5,0-5s-3.07,4.64,0,5m0-4.19c1.86,0.42,2.21,3.35,0,3.34s-1.84-2.9,0-3.34" transform="translate(-1.22 -1.32)"/></g></g></svg>