<svg id="Layer_1" data-name="Layer 1" xmlns="http://www.w3.org/2000/svg" viewBox="0 0 641.02 13.04"><defs><style>.cls-1{fill:#bdb3b0;}</style></defs><title>Borders_hearts_2</title><path class="cls-1" d="M213.36,11.46a2.37,2.37,0,0,0,1.41,1c1.95.57,4-.31,5.65-1.53,1.32-1,2.46-2.21,3.75-3.23h12.08a5.52,5.52,0,0,0-.78.87,2.79,2.79,0,0,0-.54,2.26,2.27,2.27,0,0,0,.82,1.19c-.08-.26,0-.38.2,0l.1.23a2.73,2.73,0,0,0,.68.3,3.92,3.92,0,0,0,2.54-.25,9.31,9.31,0,0,0,2.18-1.4,31.54,31.54,0,0,0,3.37-3.18h1.25a.49.49,0,0,1,0-.38.47.47,0,0,1,.59.31v.07h5.1a1.31,1.31,0,0,0-.84-.31c0-.58,1.75-.47,1.44.31h5.09c0-.7.91-.29,1.47-.31a1,1,0,0,1-.31.31h7.23V7.66h3.58l-.27.13a2.83,2.83,0,0,0-1,1l.08.07a1.77,1.77,0,0,1-.22.2,1.9,1.9,0,0,0-.16.63,2.3,2.3,0,0,0,1.27,2,4.4,4.4,0,0,0,2.49.4c3.27-.27,6-2.39,8.59-4.46h3a4.49,4.49,0,0,0,.26-1.61H279A18,18,0,0,0,270.85,2a2.92,2.92,0,0,0-2.12.13,2.2,2.2,0,0,0-.3,3.1h0a3.78,3.78,0,0,0,.9.82H256c-.21,1.19-.93-.11-1.09.6-.34-.18-.37-.41-.25-.6H244.13C243,5,242,4,240.77,3.1c-1.62-1.22-3.71-2.11-5.65-1.53a2.37,2.37,0,0,0-1.42,1,2.36,2.36,0,0,0,.74,2.81,5.3,5.3,0,0,0,1,.67H224.18a31.8,31.8,0,0,0-3.08-2.88,9.34,9.34,0,0,0-2.18-1.4,3.92,3.92,0,0,0-2.54-.25,2.51,2.51,0,0,0-1.79,1.71,2.81,2.81,0,0,0,.54,2.26,5,5,0,0,0,.48.57H205a7,7,0,0,0,.61.69c-1,.8-2.65-.54-2.64-1.62h.41l-.54-.46c-.57,0-1.37-.39-1.95.27-.55-.6.4-.85,1.3-.8L202,4a13.4,13.4,0,0,0-5.15-2.77,3.9,3.9,0,0,0-2,0,8.8,8.8,0,0,0,.79.8c-.47.33-.9,0-1.37-.49a1.77,1.77,0,0,0-.4.39,2.61,2.61,0,0,0,0,2.5A5,5,0,0,0,195.05,6H192.9a4.66,4.66,0,0,1-1.49,1.61h1c.66-.59,1.12-.27,1.11,0h1.63c.08-.46.62-.36,1.09-.35a1.16,1.16,0,0,1-.25.35h-.07a.84.84,0,0,1-.29.16,4.6,4.6,0,0,0-1.53,1.33,2.37,2.37,0,0,0,.28,3.19,3.21,3.21,0,0,0,2.46.24,18.77,18.77,0,0,0,8.63-4.19.74.74,0,0,0,.27-.36.58.58,0,0,0-.08-.41h10.06a6.66,6.66,0,0,0-1.63,1A2.36,2.36,0,0,0,213.36,11.46Zm59.29-1.52c.85-1,2.17.59,0,0Zm-1.5,1.26c-.09.4-.65.24-1.06.26.08-.4.64-.24,1-.26ZM240.33,5.75c.12-.54.4,0,.31.38-.13.53-.41,0-.32-.38Zm-4,1.74c.91-1,1.29,1.33,0,0ZM226.7,6.31c0,1.06-1.19.62-1.82.89,0-1.07,1.2-.63,1.83-.89Zm-33.57.41c.13-.85,1.18,0,1.38.12-.15.87-.53-.53-1.37-.13Zm9.09-.6c-.2.49-.3-.06-.69-.06a.35.35,0,0,1,.7.05ZM197.46,5c-.44.13-2.43.3-.35,0C197.56,4.9,198,4.82,197.46,5Zm1.35.46c.48-.19.75.3.31.38h-.34c-.55.16-.24-.26,0-.37Zm-.24,2.76c.77.46.93,0,1.67.84-.14.61-2,0-1.67-.82Zm2.1-.17c.35-.45,3.08.1,2.07.18,0,.34.4.3.66.41-.51.74-1.83-.56-2.73-.57Z" transform="translate(-0.05 0.04)"/><path class="cls-1" d="M312,7.67h.43C312.25,7.4,312.12,7.5,312,7.67Z" transform="translate(-0.05 0.04)"/><path class="cls-1" d="M332.85,6.06a18.41,18.41,0,0,0-2.41-2.33c-.44.29-1.74,0-1.22-.71a1.53,1.53,0,0,0,.8.39,18.17,18.17,0,0,0-3.92-2.28,3.48,3.48,0,0,0-2.71-.27,2.15,2.15,0,0,0-1.08,1.2,6.84,6.84,0,0,1,.72.08,1.63,1.63,0,0,0-.43,1,1.32,1.32,0,0,0-.46-.29,3.73,3.73,0,0,0,.57,2.09,3.89,3.89,0,0,0,1,1.12H311.55a1.29,1.29,0,0,1,.93,1.57v0h3.23a3,3,0,0,0,.28-.58.34.34,0,0,1,.15.58h7.47a4.26,4.26,0,0,0-1.76,2.87,1.73,1.73,0,0,0,.52,1.58,2.12,2.12,0,0,0,1.74.16c3.33-.74,6.25-2.68,9.07-4.61h14.9c.08-.52.14-1,.21-1.61Zm-14.71.52c.09-.4.65-.24,1.06-.26C319.12,6.72,318.55,6.56,318.14,6.58Zm6.56.57a.35.35,0,0,1,.69.06C325.19,7.7,325.09,7.15,324.7,7.15Zm1.3-3c.38-.25.6.36.66.4,1.27.87-.91-.25-.68-.42Zm1.8,3.29c-.45.21-.79.3-.34,0s.84-.25.34,0Z" transform="translate(-0.05 0.04)"/><path class="cls-1" d="M475.62,3.19a.61.61,0,0,0-.16.1.27.27,0,0,0,0,.13.6.6,0,0,1,.29.12.66.66,0,0,0,.21,0C476.37,3.49,476.1,3,475.62,3.19Z" transform="translate(-0.05 0.04)"/><path class="cls-1" d="M287.12,7.37c.69-.45.58.16,1.41-.22,0-.34-.4-.31-.66-.41.56-1.34.71.16,1.73.15a13.3,13.3,0,0,1-1.67.79h4.3a.3.3,0,0,0,.1-.2.22.22,0,0,1,.18.2h7.81a3,3,0,0,0-1.25,1c.6-.07.24.41-.27.63a1.24,1.24,0,0,0,.14,1,1.9,1.9,0,0,0,1.53.62,15.4,15.4,0,0,0,8.07-1.76,1.26,1.26,0,0,1-.34-.28,1.51,1.51,0,0,1,2-.8h0a4.47,4.47,0,0,0,.37-.34c-.6-.39-1.22-.87-1.92-.22-1.36-.85.51-.38,1.09-.6.09,0,0-.66.06-.69a4.84,4.84,0,0,1,.88-.19,35.21,35.21,0,0,0-3.23-3C306,1.83,304.18.67,302.24.8a2.11,2.11,0,0,0-1.93,1.14,2.39,2.39,0,0,0,.74,2.28A8.62,8.62,0,0,0,303.4,6.1h-4.88a.47.47,0,0,1,.11.57,1.11,1.11,0,0,1-1.27-.57H283.45c.25.51,1,.59.88,1.41l-.69-.06a2,2,0,0,1,.15.26h3.39C287.29,7.46,287.29,7.26,287.12,7.37Zm22.07-1.91.69.06c.08.6-.33.63-.75.63Zm-8.08-3.13c.2-.49.3.06.69.06a.35.35,0,0,1-.68-.07Zm3.27,2.37c-.4-.13-.16-.71-.62-.71.22-1,1.09,0,.63.7Zm.27-3.11a2.22,2.22,0,0,1-.46,1.35c-1-.13-.53-1.53.47-1.35Zm-2.35,7.1c-1.16,1.19-1.07-1.15,0,0Z" transform="translate(-0.05 0.04)"/><path class="cls-1" d="M190.91,6.06h-1c-.11.12-.19.09-.24,0h-2c-.09.12-.31.24-.37.14.49.86.18-.48,1.35.46.46.37.23.79,1.66.84a1,1,0,0,0,.75-.63C190.28,6.19,190.61,6.42,190.91,6.06Z" transform="translate(-0.05 0.04)"/><path class="cls-1" d="M18.89,5.39a5.25,5.25,0,0,0,1,.67H11A31.67,31.67,0,0,0,8,3.18,9.3,9.3,0,0,0,5.8,1.78a3.92,3.92,0,0,0-2.54-.25A2.51,2.51,0,0,0,1.47,3.24,2.8,2.8,0,0,0,2,5.49,8.28,8.28,0,0,0,3.71,7.14,12.6,12.6,0,0,0,1,8.65a2.37,2.37,0,0,0-.74,2.82,2.39,2.39,0,0,0,1.42,1c1.94.57,4-.31,5.65-1.53,1.32-1,2.46-2.21,3.75-3.23h5.39a.85.85,0,0,1,0-.28l1,.09v.19H18.7c-.13-.24.14-.47,1.14,0h.88L20.46,8c.55,0,1.7.3,1.39,1-1.07.19-1-.54-1.58-.79a4.56,4.56,0,0,0-.35.43,2.81,2.81,0,0,0-.54,2.26,2,2,0,0,0,.16.36h.37a.31.31,0,0,1-.26.23,2.65,2.65,0,0,0,1.53,1.1,3.93,3.93,0,0,0,2.54-.25,9.35,9.35,0,0,0,2.18-1.4,31.43,31.43,0,0,0,3.37-3.18H46.21a2.26,2.26,0,0,0-.81,1.53,2.3,2.3,0,0,0,1.27,2,4.4,4.4,0,0,0,2.49.4c3-.25,5.6-2.07,8-4h8.38a2.66,2.66,0,0,0-1.46,1.39,1.33,1.33,0,0,0,.08,1.18,1.9,1.9,0,0,0,1.53.62,15.32,15.32,0,0,0,5.56-.71c.18-1,.2-1.91.49-3.2a3.8,3.8,0,0,0-.2-1.76,2.66,2.66,0,0,0-.66-.41,12,12,0,0,0-.57-1.44c-.2-.31-1.36-.74-.57-1.44,2,.8,2,3.24,3.81,4.16-.1.39-.36.16-.34,0-1.23.62-.93,2.55-1.14,3.83a15.14,15.14,0,0,0,2.63-1.3,5.61,5.61,0,0,0,1.15-.91H83.7a4.28,4.28,0,0,0-1.86,2.94A2.09,2.09,0,0,0,82,11.77h.08c.48-.19.75.3.31.37a.55.55,0,0,1-.19,0l.14.15a2.12,2.12,0,0,0,1.74.16,17.72,17.72,0,0,0,4.4-1.69.59.59,0,0,0-.39-.19.35.35,0,0,1,.69,0,52.77,52.77,0,0,0,4.48-2.84h7.34c-.27-.33-.54-.62-.79,0-.39-.1-.16-.36,0-.35a.53.53,0,0,0-.25-.7l0,0c.16-.8,1.54-.07,1.73.15,0,.33-.45.23-.72.29.13.26.45.37.57.63h1.65a1.22,1.22,0,0,1,1-1.4c.85.21-.1,1.34-.78,1-.09.29.11.34.32.38h1.24a.8.8,0,0,1-.15-.65,10.56,10.56,0,0,1,1,.65h1.3l-.29-.13c.79-.74,1.31-.13,1.07.13h5a7.79,7.79,0,0,0,.89.34,12.2,12.2,0,0,0-2,1l-.15.12a2.36,2.36,0,0,1-.07.56,1.11,1.11,0,0,1-.38-.16,2.18,2.18,0,0,0-.58,2.24A2.14,2.14,0,0,0,112,13a5.18,5.18,0,0,0,2.2-.36,27.37,27.37,0,0,0,7.17-3.89,1.39,1.39,0,0,0,.73-1h16.59A6.32,6.32,0,0,0,137.15,9a2.13,2.13,0,0,0-.57,1.33,1.67,1.67,0,0,0,1.19,1.43,3.93,3.93,0,0,0,2,0,13.62,13.62,0,0,0,7.41-3.9,2.47,2.47,0,0,0,.22-.25H159a.49.49,0,0,0-.31-.13.35.35,0,0,1,.69.06V7.6h2.5a1.26,1.26,0,0,1,.35-.27.32.32,0,0,0-.3-.3,12.12,12.12,0,0,1,2.78-.43,2,2,0,0,1-1.29,1h1.48l.26.1a9.51,9.51,0,0,0-2,2.09,2.13,2.13,0,0,0-.43,2.19,2.21,2.21,0,0,0,2.17.9c2.12-.28,5.55-3.18,7.87-5.29h9.09a1.23,1.23,0,0,1,.9,0h4.85c0-1.22-1.15-.23-1.69-.55-.26-.15.75-.34.72-.29.17-.34-1.15-.62-1-.09a1.24,1.24,0,0,1-.21-.68H173.79c.44.14.35.74.9.79-.12.37-.7.17-.75.63A1.51,1.51,0,0,1,173.37,6h-.23A20.24,20.24,0,0,0,169,3.56a7.87,7.87,0,0,0-5.92-.6,2.14,2.14,0,0,0-1.47,1.54,1.61,1.61,0,0,0,.29,1.09c.49,0,1,.31.63.83A5.91,5.91,0,0,1,161.4,6H146.7A27.47,27.47,0,0,0,141,2.63c-.19.52-1.22,0-1.77.11a.68.68,0,0,1,.65-.6,2.7,2.7,0,0,0-2.58,0,2.25,2.25,0,0,0-.64,2.16,3.38,3.38,0,0,0,.14.55c.16-.18.55,0,.75,1.21l-.1-.06v.06H120.82a28,28,0,0,0-2.61-2.38,7,7,0,0,0-4.75-1.79c-1.73.17-3.38,1.78-3,3.48v.14a.32.32,0,0,1,.33.31h0a.34.34,0,0,1-.13.19H92.79a18.33,18.33,0,0,0-3.61-3.16H88.8l.1-.16-.46-.29c-.07.26-.19.61-.33.4a.58.58,0,0,1,.12-.54,18,18,0,0,0-2.12-1.08A3.49,3.49,0,0,0,83.4.91a2.3,2.3,0,0,0-1.25,1.85A3.63,3.63,0,0,0,82.72,5a3.92,3.92,0,0,0,.85,1,4.88,4.88,0,0,1,.79,0c-.09.4-.66.24-1.07.25a.28.28,0,0,1,.12-.17H76c-.8-.84-1.65-1.64-2.53-2.4l-.09,1-.69-.06.12-1.38H73L72.69,3C71.19,1.76,69.42.6,67.48.73a2.12,2.12,0,0,0-1.93,1.14,2.4,2.4,0,0,0,.74,2.28A8.65,8.65,0,0,0,68.64,6H57a18,18,0,0,0-8.62-4.54,2.92,2.92,0,0,0-2.12.13,2.1,2.1,0,0,0-.54,2.7l.48.06a3,3,0,0,0-.24.35h0A4.57,4.57,0,0,0,47.72,6h-5.8a.56.56,0,0,0,0,.06L41.8,6H28.59c-.38-.32-.76-.66-1.13-1a1.07,1.07,0,0,0-.07.15.55.55,0,0,1-.52-.69A16.32,16.32,0,0,0,25.23,3.1C23.61,1.88,21.52,1,19.58,1.57a2.37,2.37,0,0,0-1.42,1A2.36,2.36,0,0,0,18.89,5.39ZM7.52,9.75l-.69-.06c.44.65.25.81-.75.63a2.94,2.94,0,0,0,.52-2C6.82,8.85,7.66,8.89,7.52,9.75ZM8.57,5.67c-.69-.41-.81-1.61.46-1.35A1.94,1.94,0,0,0,8.57,5.67Zm1.64,1.19c-.37.25-1.6-1-.66-.4.05,0,1,.19.66.39Zm61-1.32c-.43,1-1.15-.25-1.35-.46.12-.82.85.46,1.32.45Zm41.52,6.38c-1.23.73.94-1.08,0,0ZM165,3.23c.49-.37.55-.09,1,.09-.12.37-.71.17-.75.63-.37-.12-.17-.71-.63-.75.11-.39.41-.21.36,0Zm-1.88,1.58c1,.37.94-.41,1.76-.19.08.6-.33.63-.75.63.37.49.09.55-.09,1a1.41,1.41,0,0,1-.94-1.45Zm-45,5.84a.35.35,0,0,1-.69-.06c.16-.5.26,0,.65,0Zm-1.38-.12c-1.23.73.93-1.09,0,0Zm-2.18-3c-.46.1-.19.83-.06.69-1,1.13-1.24-1.08,0-.68Zm-7.19-1.32c.38-.25.6.36.66.41,1.23.9-1-.22-.69-.39Zm-2.1.17c.64-.75,2.31.32.34,0-.06.9-.5.61-.38,0Zm-13,1c-1.23.74.93-1.08,0,0ZM87.4,2.79c-1.23.73.94-1.09,0,0Zm-.4.66c-.09.4-.66.24-1.07.25.11-.42.67-.26,1.05-.27ZM83,9.36c-.91-.39.86-.71.81-1.32,1.11.59-.65,1-.83,1.3Zm-6.35-3A.35.35,0,0,1,76,6.3c.33-.19.65-.37.69.06Zm-2.1.16c.44.16.49.66,1,.78-.12.37-.71.17-.75.63-1.09,0,1-.92-.26-1.07-.46.45-.14,0,0-.34ZM66.28,1.63c.34-.49,1.15-.4,1.78-.54-.29.68-1.13,1.32-1.76.54Zm1.65,5a.35.35,0,0,1-.69-.06c.22-.48.32.07.74.07Zm-2.39-.55c-.09.4-.66.24-1.06.25.11-.34.68-.22,1.09-.24ZM63.69,7.31A.35.35,0,0,1,63,7.25c.23-.48.33.07.72.07ZM56.53,6c-.46.46-1.19,0-2-.52C55.28,4.9,55.73,6.08,56.53,6Zm-4.11-.7a1.93,1.93,0,0,0,1.35.46c.06.63-2,.46-1.35-.45ZM50.65,9.66c.43-.32.84-.2.34,0S50.21,10,50.65,9.66ZM49.19,6.4c.38-.25.6.36.66.4,1.27.9-.87-.22-.66-.39Zm-.61,3.08c-.2.49-.3-.06-.69-.06a.35.35,0,0,1,.69.06ZM27.58,7c-.37-.12-.17-.71-.63-.75C27.19,5.28,28,6.29,27.58,7ZM25.5,11c-1.16,1.19-1.07-1.15,0,0ZM25,4.66a.35.35,0,0,1-.69-.06C24.51,4.11,24.61,4.66,25,4.66Zm-3.73,7c-.91.48.45-.55.75-.63,1.33-.36,0,1-.73.61ZM21.67,3c.2-.49.3.06.69.06A.35.35,0,0,1,21.67,3Zm.46-1.35c-.09.4-.65.24-1.06.25.09-.41.65-.24,1.07-.26ZM20,5.64c.43-.32.84-.2.34,0s-.78.35-.34,0Z" transform="translate(-0.05 0.04)"/><path class="cls-1" d="M639.64,6.47c-.16-.91,1.41.23,1.43-.46H632.9a28.16,28.16,0,0,0-2.62-2.38,7,7,0,0,0-4.75-1.79c-1.73.17-3.38,1.78-3,3.48a2.55,2.55,0,0,0,.26.69h-8.48c0,.49-1.24.48-1.44,0h-9.21c-.42.48-1.09.29-1.1,0h-.63c-.07.14-.12.27.19.34-.16.7-1.54,0-1.47.92-.69-.47.33-.82.88-1.25h-7.47a18.33,18.33,0,0,0-6.68-4.85,3.49,3.49,0,0,0-2.71-.28,2.3,2.3,0,0,0-1.25,1.85A3.63,3.63,0,0,0,584,5a3.94,3.94,0,0,0,.92,1h-7.67l-.13-.13a1.35,1.35,0,0,1-.33,0,1.32,1.32,0,0,1,.13-.21A35,35,0,0,0,574,3c-1.5-1.23-3.27-2.39-5.21-2.26a2.12,2.12,0,0,0-1.93,1.14,2.4,2.4,0,0,0,.74,2.28A8.66,8.66,0,0,0,569.93,6H558.29a18,18,0,0,0-8.62-4.54,2.92,2.92,0,0,0-2.12.13,2.2,2.2,0,0,0-.3,3.1h0A4.58,4.58,0,0,0,549,6H523c-1.14-1-2.18-2-3.36-2.94C518,1.9,515.89,1,514,1.59a2.37,2.37,0,0,0-1.42,1,2.36,2.36,0,0,0,.74,2.81,5.26,5.26,0,0,0,1,.67H503a31.74,31.74,0,0,0-3.08-2.88,9.31,9.31,0,0,0-2.18-1.4,3.92,3.92,0,0,0-2.54-.25,2.51,2.51,0,0,0-1.79,1.71A2.8,2.8,0,0,0,494,5.49a5.11,5.11,0,0,0,.48.57h-7a.81.81,0,0,1,.42.62c-.74.83-.75-.61-.43-.62h-3.28a14.76,14.76,0,0,0-2.64-2.67c.36.33.61.75,1,1.09-1,.8-2.64-.54-2.64-1.62a2.1,2.1,0,0,1,1.61.48l-.57-.46-.77-.58c-.53.35-1.61-.46-2.34.37-.66-.72.84-.93,1.82-.74A11.09,11.09,0,0,0,475.78.11a2.88,2.88,0,0,0-3,.75,2.61,2.61,0,0,0,0,2.5A5,5,0,0,0,475.38,6h0c.77.46.93,0,1.67.84-.13.57-1.77,0-1.67-.73H464.19c-.38-.4-.77-.78-1.16-1.16a.68.68,0,0,1-.42-.06c-.11-.06,0-.13.17-.19l-.43-.38a.2.2,0,0,0-.06.2.87.87,0,0,1-.17-.4c-.34-.3-.67-.61-1-.89a9.34,9.34,0,0,0-2.18-1.4,3.92,3.92,0,0,0-2.54-.25,2.52,2.52,0,0,0-1.79,1.71,2.82,2.82,0,0,0,.54,2.26,4.91,4.91,0,0,0,.48.57H445.31A16.41,16.41,0,0,0,442,2.93l-.44-.34c0,.37-.38.41-.73.41.37.49.09.55-.09,1a1.41,1.41,0,0,1-.92-1.47c.79.31.92-.17,1.41-.22A12,12,0,0,0,436.89.12a2.88,2.88,0,0,0-3,.75,1.68,1.68,0,0,0-.15.26v.52h-.11a3.14,3.14,0,0,0,.26,1.73,5,5,0,0,0,2.94,2.7H413.16A20.22,20.22,0,0,0,409,3.66a7.87,7.87,0,0,0-5.92-.6,2.15,2.15,0,0,0-1.47,1.54,1.87,1.87,0,0,0,.58,1.48H391.12c-.35.33-.59.23-.68,0h-4a27.44,27.44,0,0,0-6.4-3.7A4.49,4.49,0,0,0,378.3,2a.5.5,0,0,1,0,.1c-.19.4-.51.31-.63,0a1.51,1.51,0,0,0-.4.21A2,2,0,0,0,376.6,4a1.86,1.86,0,0,1,1.5.45c0,.34-.45.23-.72.29.19.37.76.43.6,1.09-.4,0-.79-1.1-1.17-.75a3.73,3.73,0,0,0,.53,1h-.91a1.39,1.39,0,0,0,1.49.49c-.49,1.33-1-.18-2.07-.18a1,1,0,0,0,.63.75,10.8,10.8,0,0,0-2.13.51c-.13-.91.25-1.23,1.13-1a.49.49,0,0,1-.12-.62h-13.7l-.09-.1a35,35,0,0,0-3.4-3.17A7,7,0,0,0,353.46,1c-1.73.17-3.38,1.78-3,3.48a3,3,0,0,0,1,1.58H349a8.85,8.85,0,0,1-.14,1.61h3.29a6,6,0,0,0-.8.45,3.09,3.09,0,0,0-1.2,1.57c.46-.11,1.06.38.31.74a1.4,1.4,0,0,1-.4-.3,1.64,1.64,0,0,0,.12.76A2.15,2.15,0,0,0,352,12.07a5.2,5.2,0,0,0,2.2-.36c.56-.19,1.11-.42,1.65-.66a2.52,2.52,0,0,1-1.52-.65c-1.17-.84,1.85.91,2.1-.17a1.09,1.09,0,0,1,.25.42c.72-.35,1.42-.74,2.11-1.15l.15-.09h0a26.47,26.47,0,0,0,2.41-1.6l.19-.15h15.89a1.21,1.21,0,0,1,.55,0h.73a3.69,3.69,0,0,0-.46-.4c.09-.33,1-.39,1.09-.6.11-.44-1.11-.74-.25-1.07.38.14,1.18,1.75-.12,1.38,0,.41.6.34,1,.43,1.07.2-.79-1.07.44-1,1-.23.21.68.29.72.62.3.71-.56,2.1-.17,0,1.42-.74.12-1.41.23a1.63,1.63,0,0,1,.25,1.06c1.29.08,1-.3,2.07.18-.37.83-2.39-.31-2.82.45-.19.91,2-.16,1.29,1.15-2.64,0-2.77-1.09-5.07-.8a2,2,0,0,0-.52,1.26,1.67,1.67,0,0,0,1.18,1.43,3.93,3.93,0,0,0,2,0A13.62,13.62,0,0,0,387.16,8a1.63,1.63,0,0,0,.29-.4h17.4l.26.1a9.48,9.48,0,0,0-2,2.09,2.12,2.12,0,0,0-.43,2.19,2.21,2.21,0,0,0,2.17.9c2.12-.28,5.55-3.18,7.87-5.29h19.92a1,1,0,0,1,.82-1.16h.18a1.22,1.22,0,0,1-.39,1.17h1.28a3.55,3.55,0,0,0-.38.43,2.37,2.37,0,0,0,.28,3.19,3.22,3.22,0,0,0,2.46.24,18.8,18.8,0,0,0,8.23-3.86h10.65a6.62,6.62,0,0,0-1.63,1,2.36,2.36,0,0,0-.74,2.82,2.37,2.37,0,0,0,1.42,1,6,6,0,0,0,4.77-.94,1.19,1.19,0,0,1-.43-.45,1.47,1.47,0,0,1,1.2-.06l.11-.08c1.32-1,2.46-2.21,3.75-3.23h9.13a3.54,3.54,0,0,0-.38.43,2.64,2.64,0,0,0-.27,2.53.58.58,0,0,1,.07-.15l.69.06c-.09.29.11.34.31.38,0,.29-.25.39-.54.36h0a3.22,3.22,0,0,0,2.46.24l.71-.16.28-.09a.18.18,0,0,1,.13,0,18.81,18.81,0,0,0,7.11-3.61h10.65a6.63,6.63,0,0,0-1.63,1,2.37,2.37,0,0,0-.74,2.82,2.39,2.39,0,0,0,1.42,1c1.94.57,4-.31,5.66-1.53,1.32-1,2.46-2.21,3.75-3.23h12a5.49,5.49,0,0,0-.78.87,2.81,2.81,0,0,0-.54,2.26,2.21,2.21,0,0,0,.57,1,1,1,0,0,1,.34.26h0a2.74,2.74,0,0,0,.89.45,3.93,3.93,0,0,0,2.54-.25,9.37,9.37,0,0,0,2.18-1.4,31.52,31.52,0,0,0,3.37-3.18H535a.85.85,0,0,1,.93-.06v.06H547.5a2.25,2.25,0,0,0-.81,1.53,2.31,2.31,0,0,0,1.29,2,4.4,4.4,0,0,0,2.49.4c3-.25,5.6-2.07,8-4h8.39a2.65,2.65,0,0,0-1.46,1.42,1.34,1.34,0,0,0,.08,1.18,1.9,1.9,0,0,0,1.53.62,15.39,15.39,0,0,0,9-2.3,5.62,5.62,0,0,0,1.15-.91H585a4.28,4.28,0,0,0-1.86,2.94,1.73,1.73,0,0,0,.52,1.58,2.12,2.12,0,0,0,1.74.16c3.37-.75,6.32-2.73,9.18-4.68h1.69a.34.34,0,0,0-.17-.06c.15-.63.58-.38.71.06H609a5.33,5.33,0,0,1,2.82-.78,3.65,3.65,0,0,1-1.52.78h14.35a7.84,7.84,0,0,0,.89.34c-.47.21-1,.4-1.42.63a1.84,1.84,0,0,0,.76.07,1.16,1.16,0,0,1-1.52.4,2.4,2.4,0,0,0-1,2.65A2.14,2.14,0,0,0,624.08,13a5.18,5.18,0,0,0,2.2-.36,27.38,27.38,0,0,0,7.17-3.89,1.39,1.39,0,0,0,.73-1m-159.91-5c-.44.13-2.43.3-.35,0C474.36,2.62,474.85,2.55,474.27,2.72Zm2.17,1.13a.85.85,0,0,1-.71-.31.26.26,0,0,0-.13,0c-.44.17-.33-.08-.13-.24.14-.5,1.51-.19,1,.55Zm-41,1.42a.35.35,0,0,1,.69.06c-.15.49-.29-.06-.68-.06Zm-83.84.38c-1.09,0,1-.92-.26-1.06-.46.45-.14,0,0-.34.44.16.49.65,1,.78-.1.36-.69.17-.73.62ZM352.79,4c.33-.19.65-.36.69.06a.35.35,0,0,1-.69-.06Zm.56,5.61c-.76-1.32,1.65.15,0,0Zm-.22-1.41c.91-1,1.29,1.33,0,0ZM354.36,2c.33-.18.65-.36.69.06a.35.35,0,1,1-.7,0h0Zm5.48,5c-.91-.39.86-.7.81-1.32,1.08.64-.67.95-.82,1.34ZM373,7.51a1,1,0,0,1,1.09-.6A1,1,0,0,1,373,7.51ZM379.83,5c-.09.29.11.34.32.38-1,.69-.51-1.35.47-1.35C381.46,4.21,380.52,5.34,379.83,5Zm2.33,1.24c-.21-.56-1-.61-.92-1.47.58.39,1.8.74.92,1.46Zm.18-2.07c0,.86-.47.55-.34,0,.63-.79,2.3.27.34,0Zm1,1.13c1.21-1.12,1.78.87,0,0ZM386.87,8c-.18.15-1.5-2.17-.29-.72C386.62,7.33,387.12,7.81,386.87,8Zm1.1-.6c-1.56-.37.46-2.07,0,0Zm51.4-3.2c-.62,0-.69-.48-1.35-.46,0-.59,2-.42,1.34.49Zm-1.3,3c-.7.06-1.08-.16-1-.78l1,.09Zm.31.38c.15-.46.89-.21,1.41-.23-.17.84-1,.76-1.42.27Zm.15-1.73c-1.13.66.28-.75.43-.76a.32.32,0,0,0-.29-.3,12.09,12.09,0,0,1,2.78-.43c-.47,1.11-1.88,1.13-2.93,1.54Zm17,4.6c-.37.25-1.6-1-.66-.41,0,.08.95.25.64.46Zm4.23-.68-.69-.06.06-.69.69.06Zm-1.37-4.29c.65-.54.9.13,2.1-.17-.31,1.18-1.36.44-2.11.22Zm20.66-1.69c-.2.49-.3-.06-.69-.06a.35.35,0,0,1,.68.11Zm-1.56,2c.35-.45,3.08.1,2.07.18,0,.34.4.3.66.41-.52.72-1.84-.57-2.74-.59Zm5.87.51c1.16-1.19,1.07,1.15,0,0Zm2.76.24c.32.75.31.76-.37.32-.14-.73,1.39-.62.36-.32Zm.5.29c1.4.36.9.64,0,0Zm7,4.08c-.18-1-1.21.66-1-.09,0-.11,1.15-1.44,1,.09ZM495,11c-.7.06-1.07-.16-1-.78l1,.09Zm54.28-4.34c.85-1,2.17.59,0,0Zm3.08.62c-1.23.73.93-1.09,0,0Zm0,3.48c-.62.06-.45-2,.46-1.35a2.24,2.24,0,0,1-.46,1.38Zm.91-6.53c-.13.54-.4,0-.31-.37s.4,0,.32.4ZM553.7,7c-.09-.37.23-.21.38-.31a3.77,3.77,0,0,0,.41-.64,1.78,1.78,0,0,0,1,.42c-.2.6-.89.29-1.78.56Zm1.19-1.63c.09-.4.65-.24,1.07-.26-.09.43-.66.27-1.07.29ZM556,8.29c1-.77,1.91,1.17,0,0Zm14.56.57c-1.23.73.93-1.09,0,0Zm17.68-3.34c.77-.86,2.26-.86,3.57-1.08-1.14.44-2.06,1.13-3.57,1.11Zm30.78,2c-.62,0-.69-.49-1.35-.46-.06-.63,2-.46,1.35.46Zm7.1,2.35c0,.57-.38.57-.44,1-.73.12-.37-1.61.44-1Zm-1.59,2.29h-.34v.35c-1.24-.28.75-1,.43-1,.44,0,.18.61-.1.66Zm.72-.28c-.25-1.19,1.12-.44,1.79-.54a1.7,1.7,0,0,1-1.8.54Zm.7-4.11c.12-.49,1,0,1.1-.6C627.93,7.39,626.66,8.13,626,7.77Zm.62-3.08c.93-1.06,1.57,1.1,0,0Z" transform="translate(-0.05 0.04)"/><path class="cls-1" d="M439,5.13a.2.2,0,0,1,0,.1Z" transform="translate(-0.05 0.04)"/><path class="cls-1" d="M377.13,9.2c1.12-.63,2.83-.57,4.15-1-.88-.73-2.17.08-3.49.29a5.74,5.74,0,0,0-.64.65Z" transform="translate(-0.05 0.04)"/><path class="cls-1" d="M378.53,8c.27,0,.31-.09.26-.2l-.27.19Z" transform="translate(-0.05 0.04)"/><path class="cls-1" d="M188.56,7.36a1.15,1.15,0,0,0-.33.31h.62A2.32,2.32,0,0,1,188.56,7.36Z" transform="translate(-0.05 0.04)"/><path class="cls-1" d="M162.14,7.4a.19.19,0,0,1,0,.1C162.16,7.43,162.17,7.4,162.14,7.4Z" transform="translate(-0.05 0.04)"/><path class="cls-1" d="M186.81,6.06h-.57A.52.52,0,0,0,186.81,6.06Z" transform="translate(-0.05 0.04)"/></svg>