<svg id="Layer_1" data-name="Layer 1" xmlns="http://www.w3.org/2000/svg" viewBox="0 0 632.79 40.19"><defs><style>.cls-1{fill:#69be5a;}.cls-2{fill:#fff;}</style></defs><title>Border_ribbon</title><path class="cls-1" d="M647.36,10.38c-1,.23-1.83.68-2.72-0.16a1.58,1.58,0,0,0-.83.08l-4.18.54-0.35-1.08c-1.1-.16-0.43.73-0.8,1-0.36-.08-0.74-0.19-1.14-0.24-1.71-.23-1.86-0.14-2.67,1.45a0.89,0.89,0,0,1-.37.13l-0.24-1.07c-0.49,0-1.24-.33-1.46-0.1-0.79.81-1.62,0.14-2.4,0.24a8.16,8.16,0,0,1-1.68,0c-1.79-.15-3.74.61-5.32-0.87a1.44,1.44,0,0,0-.45.14,27.35,27.35,0,0,1-3.53.63c-2.43.14-4.87,0.11-7.3,0.19s-4.86.23-7.29,0.31c-4,.12-7.91-1-11.87-0.88-0.67,0-1.34.2-2,.2-2,0-4-.1-6-0.05s-3.81.27-5.72,0.35c-1.45.06-2.9,0-4.35,0s-3-.05-4.55-0.1-2.72.23-4.12,0.17a95.36,95.36,0,0,0-9.68.13c-2,.12-4-0.68-6,0.28a0.18,0.18,0,0,1-.17,0c-1.09-1.12-2.29-.05-3.41-0.06a16.81,16.81,0,0,1-5.17-.4,2.25,2.25,0,0,0-1,.13c-1,.25-2,0.53-3,0.8l0.17-1.1a5.52,5.52,0,0,1-2,.61c-1.66-.22-3.28-0.67-4.93-1a1.78,1.78,0,0,0-1.12.16,2.72,2.72,0,0,1-2.72.17c-0.77.27-1.57,0.81-1.84,0.61-1.27-.91-2.55-0.58-3.86-0.37a0.65,0.65,0,0,1-.29-0.15l0.2-.59c-1.24-.45-1.15,1.1-2,1.32-0.47-1.61-.49-1.62-2.28-1.1-1-.28-1.91-0.85-2.33-0.6-0.72.44-1.49-.62-2.13,0.33-0.25.36-1.15,0.27-1.8,0.39V10h-3.73a5.56,5.56,0,0,1-1.71.62c-1.37.08-2.8-.38-4,0.61a0.5,0.5,0,0,1-.34,0L496.29,10l-1.55.75a2.56,2.56,0,0,0-1-.5c-0.95.69-2,.12-3,0.36-0.64.16-1.5-.2-2,0.1-1.21.71-2.54,0.41-3.75,0.74a4,4,0,0,1-3.3-.48,2.76,2.76,0,0,1-2.61.37,10.73,10.73,0,0,0-3.26.08c-1.1.08-2.19,0.32-3.29,0.33s-2-.29-3-0.29a26.26,26.26,0,0,0-3.26.27c-1,.12-2,0.16-2.52-1-0.84,1.08-.84,1-2,1s-2.32,0-3.49,0-2.66.67-3.8-.51a0.37,0.37,0,0,0-.34,0c-1.58.8-3.24,0.37-4.87,0.38a5.24,5.24,0,0,0-2.17.14,5.79,5.79,0,0,1-4.54,0,1.36,1.36,0,0,0-.67-0.11c-1.5.42-3,.87-4.41,1.29a8,8,0,0,0-4.84-.47,3.53,3.53,0,0,1-3-.24,1.81,1.81,0,0,0-.81-0.28c-1.2-.13-2.41-0.14-3.59-0.35s-2-.3-2.29.79c-0.74.46-1.49-.47-2,0.33a10.14,10.14,0,0,1-3.28-.16,1.28,1.28,0,0,0-1.77.46c-1.09-.15-1.92-0.3-2.76-0.38a16.2,16.2,0,0,1-2.92-.21c-2.26-.65-4.47.11-6.7,0.11a1.52,1.52,0,0,1-1.23-.09,1.92,1.92,0,0,0-1.74-.21,1.94,1.94,0,0,1-2.12.19,5.1,5.1,0,0,0-2.38-.06c-1.19.23-2.46,0.36-3.37-.83a1,1,0,0,0-1.41-.16,3.08,3.08,0,0,1-3.6-.32,2,2,0,0,0-.83-0.25l-1.42,1.62-0.68-1.49-3.53.6-0.42-.6h-2.17c-1.28,0-2.67-.25-3.82.15a7.41,7.41,0,0,1-3.82,0c-1.24-.18-2.5-0.19-3.88-0.28a1.29,1.29,0,0,0-1.87-.69,1.9,1.9,0,0,1-.92.3c-1.44-.59-2.92-0.3-4.4-0.31-1.26,0-2.56.14-3.67-.72a1.1,1.1,0,0,0-.67,0c-1.18.17-2.36,0.46-3.54,0.52-2.26.12-4.52,0.07-6.78,0.16-2.55.09-5.09,0.29-7.63,0.37-4,.13-8,0.2-12.05.31-0.62,0-1.23.23-1.85,0.23-2,0-4-.14-6-0.09s-3.81.29-5.72,0.38c-1.45.07-2.9,0-4.35,0s-3-.06-4.55-0.11-2.71.31-4.12,0.15a20,20,0,0,0-4.84.2,28.43,28.43,0,0,1-6.54-.16c-1.92-.19-3.83.63-5.73-0.1a1.06,1.06,0,0,0-.49.15,7.7,7.7,0,0,1-4,.33c-1-.27-2.2.52-3.11-0.48a1.94,1.94,0,0,0-.8.2l-2.8.69L270.64,11a5.18,5.18,0,0,1-1.92.65c-1.66-.2-3.3-0.63-5-0.93a1.71,1.71,0,0,0-1.11.06,3,3,0,0,1-3.15.08c-0.56.75-1.1,1.28-2,.44a2.16,2.16,0,0,0-1.35-.26c-0.74,0-1.49.11-2.27,0.18l0.13-.74c-1.18-.33-1.14,1-1.83,1.37-0.47-1.52-.52-1.6-1.9-1.2a2.2,2.2,0,0,1-1.44-.2c-0.94-.3-2.2-0.68-2.92-0.29s-1.52.35-2.34,0.71V9.79l-2.33.61-1.12-.66a5.75,5.75,0,0,1-1.12.67c-1.64.51-3.49-.2-5.05,0.84L229.1,10l-1.56.76a2.31,2.31,0,0,0-1-.51c-0.91.56-1.88,0.21-2.81,0.31-0.73.07-1.64-.2-2.18,0.13a7.2,7.2,0,0,1-3.25.71c-1.26.15-2.62,0.66-3.76-.48a2.82,2.82,0,0,1-2.66.41,10.75,10.75,0,0,0-3.26.07c-1.16.08-2.31,0.23-3.46,0.32-1.34.11-2.67-.13-4,0-1.56.12-3.4,0.75-4.77-1l-0.61,1.09c-1.55,0-3.07,0-4.58,0-1.33,0-2.74.67-4-.48a1.49,1.49,0,0,0-1.47.1c-0.73.91-1.5,0.23-2.24,0.24-1.24,0-2.59-.26-3.68.15a6.91,6.91,0,0,1-4.39,0,1.86,1.86,0,0,0-.83-0.16c-1.5.4-3,.85-4.5,1.29a3,3,0,0,0-1-.57,7.52,7.52,0,0,0-2.74-.12c-1.64.41-3.18,0.68-4.68-.33-1.41.3-2.75-.18-4.12-0.39a1.41,1.41,0,0,0-1.8.64,2.25,2.25,0,0,1-1.1.29l-1,.29v0a14.22,14.22,0,0,0-1.74-.17,1.23,1.23,0,0,0-.91.34c-0.28,1.2-1.22.8-2.31,1.08,1.39-.76,1.39-0.76,1-1.78l-1.39,1c-0.79-.74-1.77-0.62-2.76-0.54a5.16,5.16,0,0,1-1.89-.1,8.09,8.09,0,0,0-4.64-.14c-0.57.15-1.3-.27-1.86-0.11a4.74,4.74,0,0,1-3.39-.23,0.52,0.52,0,0,0-.48.08c-0.62.8-1.42,0.45-2.1,0.25a4.72,4.72,0,0,0-2.92.09,2.21,2.21,0,0,1-2.7-.79,1.09,1.09,0,0,0-1.63-.32,3.07,3.07,0,0,1-3.46-.29,2.48,2.48,0,0,0-.78-0.31,4.74,4.74,0,0,1-1,1.28,5.85,5.85,0,0,1-1.49-.93l-2.35.1-1.06,1.21-0.24-1.4c-1.75-.59-0.64,1-1.41,1.39a7.49,7.49,0,0,0-.46-0.84,6.42,6.42,0,0,0-.59-0.65,3.53,3.53,0,0,1-1.37.84,2.75,2.75,0,0,1-1.06-1c-0.67.59-1.21,1.57-2.35,1a3,3,0,0,0-2.71,0c-2.1.9-4.3-.39-6.39,0.36a0.34,0.34,0,0,1-.17,0c-0.82-.2-1.83-0.8-2.42-0.51-0.92.45-1.73-.09-2.62,0.23-1.38.5-2.87,1.07-4.4,0.32a1.39,1.39,0,0,0-.69.07,7.75,7.75,0,0,1-2.39.31,3.39,3.39,0,0,0-1.58,0c-2,.48-4-0.18-6,0.61-1.06-.73-2.18,0-3.25-0.13a2,2,0,0,0-2.14.74c-0.45.59-1,.57-1.59-0.13a2.17,2.17,0,0,0-1.48-.69c-1.41,0-2.93-.46-4.16.7a0.57,0.57,0,0,1-.49.14c-1.2-.54-2.39-0.08-3.59,0-2,.11-3.93,0-5.89.12a6.43,6.43,0,0,1-3.21-.33,4.09,4.09,0,0,0-1.53,0c-1,0-1.93,0-2.9-.07-0.46,0-.92-0.12-1.39-0.13-1.25,0-2.47.5-3.73-.28s-2.43.56-3.71,0.44l-0.17,0-2.81-.69-0.36.79a3,3,0,0,0-3.6.06,1.44,1.44,0,0,1-1.17-.13c-0.16-.82-0.55-0.79-1.24-0.66a6.18,6.18,0,0,1-1.88-.14c-1.14-.16-2.28-0.34-3.42-0.52l0.26,1.75c-2.14-2.21-4.47-1.8-6.71-1.82V44.83c2,0.3,3.93.1,5.91,0.32a63,63,0,0,0,6.43.09c0.88,0,1.77,0,2.65.06,2.46,0.11,4.91.29,7.37,0.34s5.2-.12,7.8,0c3.12,0.11,6.24.39,9.37,0.58,0.87,0.05,1.75.06,2.62,0.1,1.71,0.07,3.41.18,5.12,0.21a5.52,5.52,0,0,1,1.78.22,14.53,14.53,0,0,0,3.78.45,4,4,0,0,0,2.06-.25c0.86-.48,1.32.4,2,0.33,0.53-.06,1.18.33,1.53-0.43a0.56,0.56,0,0,1,.44,0,8.33,8.33,0,0,0,4.48.57l0.62-1.12,3.45,1.35,0.27-.87c0.56,0.26.84-.24,1.26-0.39a1.78,1.78,0,0,1,1.47,0c0.85,1,2,.74,3,1a2.4,2.4,0,0,0,2.9-1.08c1.22,0.2,2.38.71,3.37,0.47,2-.5,4,0.13,6-0.12a32.89,32.89,0,0,1,3.31-.27c2.85-.08,5.69-0.09,8.54-0.16s5.47-.24,8.21-0.21a113.42,113.42,0,0,1,11.5.33c1,0.11,2,0,3,.05s2.09,0.21,3.14.24,1.91-.18,2.86-0.1,1.77-.52,2.71.08c0.38,0.24,1.1-.1,1.67-0.08,0.93,0,1.85.17,2.78,0.2,1.54,0,3.11.44,4.62-.25a0.61,0.61,0,0,1,.49.12c0.83,0.61,1.76.19,2.63,0.24,1.89,0.1,3.81-.07,5.69.12,2.81,0.28,5.64,0,8.45.48a37.74,37.74,0,0,0,5.35.26c1.48,0.06,3,.13,4.45.15a1.76,1.76,0,0,0,1.14-.32,1.7,1.7,0,0,1,1.78-.27,16.1,16.1,0,0,0,4.13.41c2.09-.1,4.18-0.24,6.27-0.27,3.25-.05,6.51-0.06,9.76,0,1.6,0,3.19.14,4.79,0.17,0.93,0,1.85-.1,2.78-0.08,1.78,0,3.57.16,5.36,0.24l0.37-.81c1.42,0.29,2.75.66,4.11,0.82a10.72,10.72,0,0,0,2.62-.18c1.23-.16,2.44-0.66,3.67.07a2.29,2.29,0,0,0,1.19,0c0.69-.06,1.38-0.21,2.08-0.23,1.16,0,2.33,0,3.49,0s2.44,0.17,3.24-.37c1.24-.83,2.2.45,3.26,0a2.78,2.78,0,0,1,.86-0.07c2.23-.18,4.45-0.41,6.68-0.51,0.87,0,1.59-.13,1.87-1.18a2.81,2.81,0,0,0,3.31.66,1.44,1.44,0,0,1,.49-0.16c1.54,0,3.08.08,4.62,0.11s2.88-.27,4.29.22c0.66-.62,1.17,0,1.73.29L268,44.61a4,4,0,0,1,1.75.85c0.35,0.3,1.27,0,1.94-.1l-0.17-.88c1.07,0.16,2.23.05,3,.54a2.33,2.33,0,0,0,2.59.08c0.51-.27,1.37.3,1.59-0.66a0.48,0.48,0,0,1,.31,0c0.49,1,1.31.34,2,.43,0.17,0,.33.07,0.48,0.11v1.3c1.1,0,.66-1,1.05-1.61,0.54,0.79,1.46,0,2,.72s1.64,0,2.22,1.26l-0.29-3.26a5.36,5.36,0,0,1,3.37,1.11,1.85,1.85,0,0,0,1.45.21,2.67,2.67,0,0,0,.52-1.29l1.36-.36c-1.09,1.51.26,1.46,0.82,1.9l-0.85.73A1.72,1.72,0,0,1,295,46c1,0.58,1.27.47,2-.4l-1.09-.94a2.71,2.71,0,0,1,2.81,1.51l2.09,0.09,0.12-1.22L303.59,44l0.66-1.32c1.06,0.59.29,1.33,0.39,2a1.09,1.09,0,0,0,1.48.42,3.23,3.23,0,0,1,3.28,0,1.39,1.39,0,0,0,.81.15c0.91-.09,1.8-0.23,2.75-0.36,0.15,0.76.39,1.23,1.2,0.92a14.48,14.48,0,0,1,2-.59c1.29-.3,2.53-1.2,4-0.26a2.36,2.36,0,0,0,1.29-.23,4.66,4.66,0,0,0,1.57.7,9.12,9.12,0,0,0,2.15-.47,1.12,1.12,0,0,0,.52.42c0.91-.08,1.82-0.24,2.73-0.39a2.09,2.09,0,0,1,.58-0.2c1.1,0.85,2.45.45,3.61,0.77s1.82-.07,2.26-1.31c0.6,0.75,2.16.29,1.56,1.88a0.74,0.74,0,0,0,.12.08,0.89,0.89,0,0,0,.34,0c0.65-.26,1.28-0.54,1.93-0.81,1.49-.61,1.79-0.5,2.63.85h1.36V45a2.1,2.1,0,0,1,2.12.35c1.3,0.78,2.12.7,3.44-.32,0.21,0.24,1.33.54,1.92,0.92,1.48,0.94,3,.4,4.54.56l0.31-.86a4.54,4.54,0,0,0,1.53.74c1.8,0.06,3.6,0,5.4-.07a1.36,1.36,0,0,0,.61-0.43c0.38-.33.34-0.26,0.95,0.07a4.38,4.38,0,0,0,1.63.46,16.06,16.06,0,0,0,2.43,0c0.86,0,1.71-.18,2.57-0.27a9.6,9.6,0,0,1,1-.07c3.25,0,6.51.09,9.76,0.05s6.4-.21,9.61-0.28c1.16,0,2.33.06,3.49,0.08,2,0,4.06,0,6.09.09,3.56,0.12,7.11.31,10.67,0.43,0.33,0,.82-0.52,1-0.42,1.29,0.89,2.77.14,4.14,0.53a12.11,12.11,0,0,0,3.78.15,27.44,27.44,0,0,1,3.84-.06c2.32,0.22,4.7-.13,7,0.13,2.87,0.31,5.75,0,8.62.52a36.06,36.06,0,0,0,5.35.26c1.48,0.06,3,.15,4.45.15a2.18,2.18,0,0,0,1.29-.41,1.36,1.36,0,0,1,1.46-.2,13.44,13.44,0,0,0,3.78.45c0.86,0,1.73-.31,2.59-0.31q7-.06,14,0c1.65,0,3.31.16,5,.2,0.92,0,1.85-.08,2.78-0.06,1.5,0,3,0,4.49.18,0.8,0.08,1-.38,1.17-1.07,2.28,1.45,4.68,1.2,7.14.82,1-.16,2.13-0.6,3.18.17a2.07,2.07,0,0,0,1.19,0c0.81-.08,1.62-0.25,2.43-0.28,1.8-.07,3.61,0,5.4-0.12a5.3,5.3,0,0,0,1.51-.44c1.44,0.05,2.52.18,3.59,0.12,2.23-.12,4.46-0.38,6.69-0.51,0.85,0,1.64,0,1.84-1.09a3.22,3.22,0,0,0,3.34.59,3.37,3.37,0,0,1,.83-0.13c2.06,0,4.12-.13,6.17-0.08,1.43,0,2.86.28,4.44,0.44l1.81-1.39a3.65,3.65,0,0,1,1.75.83c0.32,0.31,1.28,0,2-.09l-0.11-1c1.22,0.63,2.49.25,3.56,1a3,3,0,0,0,1.69,0,3,3,0,0,1,1.1-.26c0.8,0.39.38-.81,0.85-0.66a3.4,3.4,0,0,0,1.21.66,17.5,17.5,0,0,1,2.73-.16c0.77,0.15,1.76,0,2.3.89,0.76-.53,1.12.31,1.73,0.67,0.17-1.12-.6-2.08,0-3,1.9-.5,2.93,1.67,4.81,1.41l0.2-1.43,1.12-.28a2.64,2.64,0,0,0,.09,1.17,3.25,3.25,0,0,0,1.06.66l-0.84.66a1.29,1.29,0,0,1,1.75.24,1.67,1.67,0,0,0,1.95.21,1.07,1.07,0,0,0,.22-0.55l-1.13-.86c1.37,0,2.43.39,2.78,1.56H568l0.17-1.2,2.67-1.1,0.59-1.29a1,1,0,0,1,.52,1.38c-0.16.93,0.37,1.32,1.3,1a3.67,3.67,0,0,1,3.45.07,1.06,1.06,0,0,0,.65.12c0.91-.11,1.81-0.25,2.67-0.37L580.76,46a17.28,17.28,0,0,1,2.81-1c1.24-.21,2.5-1.12,3.83-0.08a2.72,2.72,0,0,0,1.31-.33c0.81,1.11,1.94.86,3.08,0.47a1.49,1.49,0,0,1,.51-0.2c1.13,1,2.23.27,3.35,0a1.55,1.55,0,0,1,.73,0c0.65,0.18,1.28.47,1.94,0.59s1.5,0,2.22.19c1.08,0.22.92-1,1.58-1.27,0.9,0.31,1.92.44,1.6,1.91,0.78-.32,1.4-0.62,2.06-0.83a3.51,3.51,0,0,1,1.8-.34,3.82,3.82,0,0,1,1.21,1.29l1.2-.19v-1.4a5.12,5.12,0,0,1,1.7.24,2.46,2.46,0,0,1,.53,1.15c1.43,0.65,2.38-.39,3.49-1.33L616.41,47v0l1.06-1c1.18-.1-0.27,1.73.91,1.76l0.78-.56c1,1.56,1.39,1.09,2.77.22,0.85-.53,1.69,0,2.48-0.32a1,1,0,0,1,.49.58c0.2,1.23.17,1.23,1.58,1.24-0.29-.78-0.25-0.91.48-1.24,0.43,1.13,1,2.19,2.58,1.68,0.13-1.39.28-2.19,0.46-4l2.14,1.51c-0.22.65-.41,0.51-0.72,1.4a7.66,7.66,0,0,1,1.75-.28,4.45,4.45,0,0,1,1.22.49L635.26,47a3.32,3.32,0,0,0,3.34-.32c-0.62-.21-1.08.33-1.73,0.1l1.19-1.42c1.92,2.26,3.68,2.15,4.46,0l-0.67-.81a1.78,1.78,0,0,1,1.39.21,7.39,7.39,0,0,1,1,1.34c1.29-2.24,3.52-.81,5.32-1.29V12C648.8,11.93,648,10.22,647.36,10.38Zm-582,3.27,0-.27,1-.09,0,0.17Zm43.71,0.2-0.18-.33c0.23-.08.45-0.16,0.68-0.22a1,1,0,0,1,.14.25Zm44.6-.13-0.06-.94,2.2,0.94h-2.14Zm74.13,1.2c-1.22,0-1.51-.37-1.81-2.41h2l-0.31,1.22,1.55,0.82A7.15,7.15,0,0,1,227.85,14.92ZM299,45.14l-0.6-.79,0.32-.23L299.27,45ZM416.27,13.87l0-.3,1.56-.28,0.05,0.33Zm4.64-.15-0.06-.94L423,13.72H420.9ZM494,14.91L493,12.56l2.2-.14-0.34,1.3,1.26,0.67C495.51,15.23,494.79,14.81,494,14.91Zm72.23,30.23-0.59-.79,0.32-.23L566.44,45Z" transform="translate(-16.82 -9.28)"/><path class="cls-2" d="M18,16.77c-0.13,7.89-.26,15.79-0.16,23.67a0.36,0.36,0,0,0,.71,0c0.2-7.88.15-15.79,0.13-23.67a0.34,0.34,0,0,0-.68,0" transform="translate(-16.82 -9.28)"/><path class="cls-2" d="M20.78,16.89c0,8.47-.08,17,0.16,25.43a0.43,0.43,0,0,0,.86,0c0-8.48-.24-17-0.31-25.43a0.36,0.36,0,0,0-.72,0" transform="translate(-16.82 -9.28)"/><path class="cls-2" d="M23.38,16.42c0.13,8.15.11,16.34,0.55,24.48a0.41,0.41,0,0,0,.81,0c0-8.15-.34-16.33-0.63-24.48a0.37,0.37,0,0,0-.74,0" transform="translate(-16.82 -9.28)"/><path class="cls-2" d="M26.47,17.21a173.28,173.28,0,0,0,.93,24.14c0.06,0.51.86,0.54,0.83,0-0.51-8.06-1-16.06-1-24.14a0.39,0.39,0,0,0-.78,0" transform="translate(-16.82 -9.28)"/><path class="cls-2" d="M29.15,17c0.36,8.57.59,17.19,1.26,25.75a0.41,0.41,0,0,0,.82,0C31.06,34.17,30.38,25.57,29.9,17a0.38,0.38,0,0,0-.75,0" transform="translate(-16.82 -9.28)"/><path class="cls-2" d="M33.32,17.36a167.29,167.29,0,0,0-.23,25.49,0.38,0.38,0,0,0,.76,0c0-8.52-.4-17,0.23-25.49,0-.49-0.72-0.48-0.76,0" transform="translate(-16.82 -9.28)"/><path class="cls-2" d="M35.63,16.53C36,24.75,35.9,32.94,36,41.15a0.38,0.38,0,0,0,.76,0,210.2,210.2,0,0,0-.46-24.62c0-.43-0.7-0.44-0.68,0" transform="translate(-16.82 -9.28)"/><path class="cls-2" d="M39.63,15.5c-0.27,9-1,17.87-1.45,26.82,0,0.49.7,0.47,0.75,0A242.52,242.52,0,0,0,40.31,15.5a0.34,0.34,0,0,0-.68,0" transform="translate(-16.82 -9.28)"/><path class="cls-2" d="M43.19,15.87a171.39,171.39,0,0,0-2,26.32,0.37,0.37,0,0,0,.74,0A234.59,234.59,0,0,1,43.79,16a0.31,0.31,0,0,0-.6-0.08" transform="translate(-16.82 -9.28)"/><path class="cls-2" d="M45.07,16.3c-0.69,8.6-1.28,17.23-1.34,25.87a0.42,0.42,0,0,0,.84,0c0.25-8.64.64-17.24,1.21-25.87,0-.46-0.67-0.45-0.71,0" transform="translate(-16.82 -9.28)"/><path class="cls-2" d="M47.62,16.19c-0.65,8.95-1.17,18-1.1,26.93a0.39,0.39,0,0,0,.77,0c0.33-9,.52-18,1-26.93,0-.45-0.66-0.44-0.7,0" transform="translate(-16.82 -9.28)"/><path class="cls-2" d="M51.6,15.19a172.84,172.84,0,0,0-1.15,27.35,0.38,0.38,0,0,0,.77,0c0-9.17.2-18.22,1-27.35,0-.41-0.59-0.4-0.63,0" transform="translate(-16.82 -9.28)"/><path class="cls-2" d="M54.5,15.38c-0.33,9-.76,18.11-0.89,27.16a0.39,0.39,0,0,0,.79,0c0.43-9,.58-18.11.82-27.16a0.35,0.35,0,0,0-.71,0" transform="translate(-16.82 -9.28)"/><path class="cls-2" d="M57.69,16c0.29,8.59-.15,17-0.48,25.61,0,0.53.74,0.5,0.8,0A137.45,137.45,0,0,0,58.43,16a0.37,0.37,0,0,0-.74,0" transform="translate(-16.82 -9.28)"/><path class="cls-2" d="M61.23,15c0.17,9.5,0,19,.18,28.52a0.39,0.39,0,0,0,.79,0c0.45-9.47.14-19-.24-28.52a0.36,0.36,0,0,0-.72,0" transform="translate(-16.82 -9.28)"/><path class="cls-2" d="M64.45,16.25c0,8.5-.17,17,0.08,25.53a0.43,0.43,0,0,0,.86,0c0.19-8.5,0-17-.11-25.53a0.42,0.42,0,0,0-.84,0" transform="translate(-16.82 -9.28)"/><path class="cls-2" d="M68,16.19c-0.07,8.77-.26,17.59,0,26.36a0.41,0.41,0,0,0,.82,0c0.25-8.77,0-17.59-.08-26.36a0.38,0.38,0,0,0-.76,0" transform="translate(-16.82 -9.28)"/><path class="cls-2" d="M71,15.73a207.23,207.23,0,0,0,.63,27c0.06,0.54.89,0.57,0.86,0-0.36-9-.81-18-0.66-27a0.42,0.42,0,0,0-.83,0" transform="translate(-16.82 -9.28)"/><path class="cls-2" d="M74.35,15.19c0,8.84.17,17.72,0.76,26.54a0.44,0.44,0,0,0,.88,0c-0.26-8.85-.64-17.69-0.91-26.54a0.36,0.36,0,0,0-.72,0" transform="translate(-16.82 -9.28)"/><path class="cls-2" d="M77.08,16c0.35,8.54.34,17.06,0.13,25.6a0.44,0.44,0,0,0,.88,0A255.26,255.26,0,0,0,77.83,16a0.37,0.37,0,0,0-.75,0" transform="translate(-16.82 -9.28)"/><path class="cls-2" d="M80.45,15.38C80.26,24.19,79.92,33,80,41.84a0.41,0.41,0,0,0,.81,0c0.37-8.81.33-17.65,0.44-26.46a0.39,0.39,0,0,0-.79,0" transform="translate(-16.82 -9.28)"/><path class="cls-2" d="M82.68,16.77c0.35,8,.27,15.95.57,23.91a0.38,0.38,0,0,0,.75,0,238.32,238.32,0,0,0-.59-23.91c0-.47-0.75-0.47-0.73,0" transform="translate(-16.82 -9.28)"/><path class="cls-2" d="M109.72,16.76c0.35,8,.27,15.95.57,23.91a0.38,0.38,0,0,0,.75,0,238.64,238.64,0,0,0-.59-23.91,0.36,0.36,0,0,0-.73,0" transform="translate(-16.82 -9.28)"/><path class="cls-2" d="M85.71,16.87c0.46,8.72.53,17.4,0.54,26.13a0.45,0.45,0,0,0,.89,0,248.48,248.48,0,0,0-.61-26.13c0-.53-0.85-0.53-0.82,0" transform="translate(-16.82 -9.28)"/><path class="cls-2" d="M89.81,17c-0.17,8.17-.55,16.39-0.35,24.56a0.36,0.36,0,0,0,.72,0c0.46-8.16.29-16.39,0.37-24.56a0.37,0.37,0,0,0-.74,0" transform="translate(-16.82 -9.28)"/><path class="cls-2" d="M93.06,16.44C93.22,24.8,93,33.14,93,41.49a0.43,0.43,0,0,0,.86,0c0.22-8.34.37-16.72,0-25.05a0.37,0.37,0,0,0-.75,0" transform="translate(-16.82 -9.28)"/><path class="cls-2" d="M96.87,15.86c0,8.63-1.09,17.22-1.32,25.85a0.4,0.4,0,0,0,.81,0c0.78-8.48,1.55-17.33,1.23-25.85a0.35,0.35,0,0,0-.71,0" transform="translate(-16.82 -9.28)"/><path class="cls-2" d="M100.73,16.29c-0.15,8.65-.65,17.26-1.2,25.89,0,0.58.85,0.57,0.9,0a250.6,250.6,0,0,0,1.1-25.89,0.4,0.4,0,0,0-.81,0" transform="translate(-16.82 -9.28)"/><path class="cls-2" d="M103.45,15.83c-0.09,8.48-.19,17-0.36,25.43a0.45,0.45,0,0,0,.89,0c0.22-8.47.32-17,.2-25.43a0.36,0.36,0,0,0-.73,0" transform="translate(-16.82 -9.28)"/><path class="cls-2" d="M105.8,16.2c0.52,8,.79,16.07.93,24.13a0.48,0.48,0,0,0,1,0c-0.05-8-.43-16.11-1.11-24.13,0-.5-0.81-0.51-0.78,0" transform="translate(-16.82 -9.28)"/><path class="cls-2" d="M113.06,16.77c-0.13,7.89-.26,15.79-0.16,23.67a0.36,0.36,0,0,0,.71,0c0.2-7.88.15-15.79,0.12-23.67a0.34,0.34,0,0,0-.68,0" transform="translate(-16.82 -9.28)"/><path class="cls-2" d="M115.89,16.88c0,8.47-.08,17,0.16,25.43a0.43,0.43,0,0,0,.86,0c0-8.48-.24-17-0.31-25.43a0.36,0.36,0,0,0-.72,0" transform="translate(-16.82 -9.28)"/><path class="cls-2" d="M118.49,16.42c0.13,8.15.11,16.34,0.55,24.48a0.41,0.41,0,0,0,.81,0c0-8.15-.34-16.33-0.63-24.48a0.37,0.37,0,0,0-.74,0" transform="translate(-16.82 -9.28)"/><path class="cls-2" d="M121.58,17.2a173.28,173.28,0,0,0,.93,24.14c0.06,0.51.86,0.54,0.83,0-0.51-8.06-1-16.06-1-24.14a0.39,0.39,0,0,0-.78,0" transform="translate(-16.82 -9.28)"/><path class="cls-2" d="M124.25,17c0.36,8.57.59,17.19,1.26,25.75a0.41,0.41,0,0,0,.82,0c-0.17-8.58-.85-17.18-1.33-25.75a0.38,0.38,0,0,0-.75,0" transform="translate(-16.82 -9.28)"/><path class="cls-2" d="M128.43,17.35a167.05,167.05,0,0,0-.23,25.49,0.38,0.38,0,0,0,.76,0c0-8.52-.4-17,0.23-25.49,0-.49-0.72-0.48-0.76,0" transform="translate(-16.82 -9.28)"/><path class="cls-2" d="M130.74,16.53c0.34,8.21.27,16.4,0.39,24.62a0.38,0.38,0,0,0,.76,0,210.53,210.53,0,0,0-.46-24.62,0.34,0.34,0,0,0-.69,0" transform="translate(-16.82 -9.28)"/><path class="cls-2" d="M135.32,15.49c-0.27,9-1,17.87-1.44,26.82,0,0.49.7,0.47,0.75,0A243.24,243.24,0,0,0,136,15.49a0.34,0.34,0,0,0-.69,0" transform="translate(-16.82 -9.28)"/><path class="cls-2" d="M138.88,15.86a171.19,171.19,0,0,0-2,26.32,0.37,0.37,0,0,0,.74,0,234.7,234.7,0,0,1,1.83-26.24,0.31,0.31,0,0,0-.6-0.08" transform="translate(-16.82 -9.28)"/><path class="cls-2" d="M140.76,16.29c-0.69,8.61-1.28,17.23-1.34,25.87a0.42,0.42,0,0,0,.84,0c0.25-8.64.64-17.24,1.21-25.87,0-.46-0.67-0.45-0.71,0" transform="translate(-16.82 -9.28)"/><path class="cls-2" d="M143.31,16.18c-0.65,8.95-1.17,18-1.1,26.93a0.39,0.39,0,0,0,.77,0c0.33-9,.52-18,1-26.93,0-.45-0.66-0.44-0.7,0" transform="translate(-16.82 -9.28)"/><path class="cls-2" d="M147.29,15.18a173,173,0,0,0-1.15,27.35,0.38,0.38,0,0,0,.77,0c0-9.17.2-18.22,1-27.35,0-.41-0.59-0.4-0.63,0" transform="translate(-16.82 -9.28)"/><path class="cls-2" d="M150.19,15.37c-0.33,9-.76,18.11-0.89,27.16a0.39,0.39,0,0,0,.79,0c0.43-9,.58-18.11.82-27.16a0.36,0.36,0,0,0-.71,0" transform="translate(-16.82 -9.28)"/><path class="cls-2" d="M153.38,16c0.29,8.59-.15,17-0.48,25.61,0,0.53.74,0.5,0.81,0A137.5,137.5,0,0,0,154.12,16a0.37,0.37,0,0,0-.74,0" transform="translate(-16.82 -9.28)"/><path class="cls-2" d="M156.92,14.94c0.17,9.5,0,19,.18,28.52a0.39,0.39,0,0,0,.79,0c0.45-9.47.14-19-.24-28.52a0.36,0.36,0,0,0-.72,0" transform="translate(-16.82 -9.28)"/><path class="cls-2" d="M160.13,16.25c0,8.5-.17,17,0.08,25.53a0.43,0.43,0,0,0,.86,0c0.19-8.5,0-17-.11-25.53a0.42,0.42,0,0,0-.84,0" transform="translate(-16.82 -9.28)"/><path class="cls-2" d="M163.64,16.18c-0.07,8.77-.26,17.59,0,26.36a0.41,0.41,0,0,0,.82,0c0.25-8.77,0-17.58-.08-26.36a0.38,0.38,0,0,0-.76,0" transform="translate(-16.82 -9.28)"/><path class="cls-2" d="M166.7,15.72a207.55,207.55,0,0,0,.63,27c0.06,0.54.89,0.57,0.86,0-0.36-9-.81-18-0.66-27a0.42,0.42,0,0,0-.83,0" transform="translate(-16.82 -9.28)"/><path class="cls-2" d="M170,15.19c0,8.84.17,17.72,0.76,26.54a0.44,0.44,0,0,0,.88,0c-0.26-8.85-.63-17.69-0.91-26.54a0.36,0.36,0,0,0-.72,0" transform="translate(-16.82 -9.28)"/><path class="cls-2" d="M172.77,16c0.34,8.54.34,17.06,0.13,25.6a0.44,0.44,0,0,0,.88,0,254.82,254.82,0,0,0-.27-25.6,0.37,0.37,0,0,0-.75,0" transform="translate(-16.82 -9.28)"/><path class="cls-2" d="M176.14,15.37c-0.19,8.82-.53,17.65-0.46,26.46a0.41,0.41,0,0,0,.81,0c0.37-8.81.33-17.65,0.44-26.46a0.39,0.39,0,0,0-.79,0" transform="translate(-16.82 -9.28)"/><path class="cls-2" d="M178.36,16.76c0.35,8,.27,15.95.57,23.91a0.38,0.38,0,0,0,.75,0,238.21,238.21,0,0,0-.59-23.91,0.36,0.36,0,0,0-.73,0" transform="translate(-16.82 -9.28)"/><path class="cls-2" d="M209.67,16.76c0.35,8,.27,15.95.57,23.91a0.38,0.38,0,0,0,.75,0,238.2,238.2,0,0,0-.59-23.91,0.36,0.36,0,0,0-.73,0" transform="translate(-16.82 -9.28)"/><path class="cls-2" d="M181.4,16.87c0.46,8.72.53,17.4,0.54,26.13a0.45,0.45,0,0,0,.89,0,248.34,248.34,0,0,0-.61-26.13c0-.53-0.85-0.53-0.82,0" transform="translate(-16.82 -9.28)"/><path class="cls-2" d="M185.5,17c-0.17,8.17-.55,16.39-0.35,24.56a0.36,0.36,0,0,0,.72,0c0.46-8.16.29-16.39,0.37-24.56a0.37,0.37,0,0,0-.74,0" transform="translate(-16.82 -9.28)"/><path class="cls-2" d="M188.75,16.44c0.16,8.36-.07,16.7-0.09,25.05a0.43,0.43,0,0,0,.86,0c0.22-8.34.38-16.72,0-25.05a0.37,0.37,0,0,0-.75,0" transform="translate(-16.82 -9.28)"/><path class="cls-2" d="M192.56,15.86c0,8.63-1.09,17.22-1.33,25.85a0.4,0.4,0,0,0,.81,0c0.78-8.48,1.55-17.33,1.23-25.85a0.36,0.36,0,0,0-.71,0" transform="translate(-16.82 -9.28)"/><path class="cls-2" d="M196.42,16.28c-0.15,8.65-.65,17.26-1.2,25.89,0,0.58.84,0.57,0.9,0a251.17,251.17,0,0,0,1.1-25.89,0.4,0.4,0,0,0-.81,0" transform="translate(-16.82 -9.28)"/><path class="cls-2" d="M199.14,15.82c-0.09,8.48-.19,17-0.36,25.43a0.45,0.45,0,0,0,.89,0c0.22-8.47.32-17,.2-25.43a0.37,0.37,0,0,0-.73,0" transform="translate(-16.82 -9.28)"/><path class="cls-2" d="M202.9,16.2c-0.2,8.56-.73,17.08-1.26,25.63,0,0.57.82,0.56,0.88,0,0.79-8.51,1-17.08,1.18-25.63a0.4,0.4,0,0,0-.8,0" transform="translate(-16.82 -9.28)"/><path class="cls-2" d="M205.75,16.2c0.52,8,.79,16.07.93,24.13a0.48,0.48,0,0,0,1,0c-0.05-8-.43-16.11-1.11-24.13,0-.5-0.81-0.51-0.78,0" transform="translate(-16.82 -9.28)"/><path class="cls-2" d="M213,16.76c-0.13,7.89-.26,15.79-0.16,23.67a0.35,0.35,0,0,0,.71,0c0.2-7.88.15-15.79,0.13-23.67a0.34,0.34,0,0,0-.68,0" transform="translate(-16.82 -9.28)"/><path class="cls-2" d="M215.83,16.88c0,8.47-.09,17,0.16,25.43a0.43,0.43,0,0,0,.86,0c0-8.48-.24-17-0.31-25.43a0.36,0.36,0,0,0-.71,0" transform="translate(-16.82 -9.28)"/><path class="cls-2" d="M218.44,16.41c0.13,8.15.11,16.34,0.55,24.48a0.41,0.41,0,0,0,.81,0c0-8.15-.34-16.33-0.63-24.48a0.37,0.37,0,0,0-.73,0" transform="translate(-16.82 -9.28)"/><path class="cls-2" d="M221.53,17.19a173.28,173.28,0,0,0,.93,24.14c0.06,0.51.86,0.54,0.83,0-0.51-8.06-1-16.06-1-24.14a0.39,0.39,0,0,0-.78,0" transform="translate(-16.82 -9.28)"/><path class="cls-2" d="M224.2,17c0.37,8.57.59,17.19,1.26,25.75a0.41,0.41,0,0,0,.82,0c-0.17-8.58-.85-17.18-1.33-25.75a0.38,0.38,0,0,0-.75,0" transform="translate(-16.82 -9.28)"/><path class="cls-2" d="M228.37,17.35a167.05,167.05,0,0,0-.23,25.49,0.38,0.38,0,0,0,.76,0c0-8.52-.4-17,0.23-25.49,0-.49-0.72-0.48-0.76,0" transform="translate(-16.82 -9.28)"/><path class="cls-2" d="M230.68,16.52c0.34,8.21.27,16.4,0.39,24.62a0.38,0.38,0,0,0,.76,0,210.55,210.55,0,0,0-.46-24.62c0-.44-0.7-0.44-0.69,0" transform="translate(-16.82 -9.28)"/><path class="cls-2" d="M234.68,15.48c-0.27,9-1,17.87-1.45,26.82,0,0.49.7,0.47,0.75,0a243,243,0,0,0,1.38-26.82,0.34,0.34,0,0,0-.68,0" transform="translate(-16.82 -9.28)"/><path class="cls-2" d="M238.24,15.86a171.36,171.36,0,0,0-2,26.32,0.37,0.37,0,0,0,.74,0,234.8,234.8,0,0,1,1.83-26.24,0.31,0.31,0,0,0-.6-0.08" transform="translate(-16.82 -9.28)"/><path class="cls-2" d="M240.12,16.29c-0.69,8.6-1.28,17.23-1.34,25.87a0.42,0.42,0,0,0,.84,0c0.25-8.64.64-17.24,1.21-25.87,0-.46-0.67-0.45-0.71,0" transform="translate(-16.82 -9.28)"/><path class="cls-2" d="M242.67,16.18c-0.65,8.95-1.17,18-1.1,26.93a0.39,0.39,0,0,0,.77,0c0.33-9,.52-18,1-26.93,0-.45-0.66-0.44-0.7,0" transform="translate(-16.82 -9.28)"/><path class="cls-2" d="M246.65,15.18a172.92,172.92,0,0,0-1.15,27.35,0.38,0.38,0,0,0,.77,0c0-9.17.2-18.22,1-27.35,0-.41-0.59-0.4-0.63,0" transform="translate(-16.82 -9.28)"/><path class="cls-2" d="M249.55,15.36c-0.33,9-.76,18.11-0.89,27.16a0.39,0.39,0,0,0,.79,0c0.43-9,.58-18.11.82-27.16a0.36,0.36,0,0,0-.71,0" transform="translate(-16.82 -9.28)"/><path class="cls-2" d="M252.74,16c0.29,8.59-.15,17-0.48,25.61,0,0.53.74,0.5,0.81,0A137.63,137.63,0,0,0,253.48,16a0.37,0.37,0,0,0-.74,0" transform="translate(-16.82 -9.28)"/><path class="cls-2" d="M256.28,14.94c0.17,9.5,0,19,.18,28.52a0.39,0.39,0,0,0,.79,0c0.45-9.47.14-19-.24-28.52a0.36,0.36,0,0,0-.72,0" transform="translate(-16.82 -9.28)"/><path class="cls-2" d="M259.5,16.24c0,8.5-.17,17,0.08,25.53a0.43,0.43,0,0,0,.86,0c0.19-8.5,0-17-.11-25.53a0.42,0.42,0,0,0-.84,0" transform="translate(-16.82 -9.28)"/><path class="cls-2" d="M263,16.17c-0.07,8.77-.26,17.59,0,26.36a0.41,0.41,0,0,0,.82,0c0.25-8.77,0-17.58-.08-26.35a0.38,0.38,0,0,0-.76,0" transform="translate(-16.82 -9.28)"/><path class="cls-2" d="M266.06,15.71a207.22,207.22,0,0,0,.63,27c0.06,0.54.89,0.57,0.86,0-0.36-9-.81-18-0.66-27a0.42,0.42,0,0,0-.83,0" transform="translate(-16.82 -9.28)"/><path class="cls-2" d="M269.4,15.18c0,8.84.17,17.72,0.76,26.54a0.44,0.44,0,0,0,.88,0c-0.26-8.85-.64-17.69-0.91-26.54a0.36,0.36,0,0,0-.72,0" transform="translate(-16.82 -9.28)"/><path class="cls-2" d="M272.14,16c0.35,8.54.34,17.06,0.14,25.6a0.44,0.44,0,0,0,.88,0,254.84,254.84,0,0,0-.27-25.6,0.37,0.37,0,0,0-.75,0" transform="translate(-16.82 -9.28)"/><path class="cls-2" d="M275.51,15.36C275.31,24.18,275,33,275,41.83a0.41,0.41,0,0,0,.81,0c0.37-8.81.33-17.65,0.44-26.46a0.39,0.39,0,0,0-.79,0" transform="translate(-16.82 -9.28)"/><path class="cls-2" d="M277.73,16.75c0.35,8,.27,15.95.57,23.91a0.38,0.38,0,0,0,.76,0,237.91,237.91,0,0,0-.59-23.91,0.36,0.36,0,0,0-.73,0" transform="translate(-16.82 -9.28)"/><path class="cls-2" d="M309,16.75c0.35,8,.27,15.95.57,23.91a0.38,0.38,0,0,0,.75,0,238.21,238.21,0,0,0-.59-23.91,0.36,0.36,0,0,0-.73,0" transform="translate(-16.82 -9.28)"/><path class="cls-2" d="M280.77,16.86c0.46,8.72.53,17.4,0.54,26.13a0.45,0.45,0,0,0,.89,0,248.23,248.23,0,0,0-.61-26.13c0-.53-0.85-0.53-0.83,0" transform="translate(-16.82 -9.28)"/><path class="cls-2" d="M284.86,17c-0.17,8.17-.55,16.39-0.35,24.56a0.36,0.36,0,0,0,.72,0c0.45-8.16.29-16.39,0.37-24.56a0.37,0.37,0,0,0-.74,0" transform="translate(-16.82 -9.28)"/><path class="cls-2" d="M288.12,16.43c0.16,8.36-.07,16.7-0.09,25.05a0.43,0.43,0,0,0,.86,0c0.22-8.34.38-16.72,0-25.05a0.37,0.37,0,0,0-.75,0" transform="translate(-16.82 -9.28)"/><path class="cls-2" d="M291.92,15.85c0,8.63-1.09,17.22-1.32,25.85a0.4,0.4,0,0,0,.81,0c0.78-8.48,1.55-17.33,1.23-25.85a0.36,0.36,0,0,0-.71,0" transform="translate(-16.82 -9.28)"/><path class="cls-2" d="M295.79,16.28c-0.15,8.65-.65,17.26-1.2,25.89,0,0.58.85,0.57,0.9,0a250.74,250.74,0,0,0,1.1-25.89,0.4,0.4,0,0,0-.81,0" transform="translate(-16.82 -9.28)"/><path class="cls-2" d="M298.51,15.81c-0.09,8.48-.19,17-0.36,25.43a0.45,0.45,0,0,0,.89,0c0.22-8.47.32-17,.2-25.43a0.36,0.36,0,0,0-.73,0" transform="translate(-16.82 -9.28)"/><path class="cls-2" d="M302.27,16.19c-0.2,8.56-.73,17.08-1.26,25.63,0,0.57.82,0.56,0.88,0,0.79-8.51,1-17.08,1.18-25.63a0.4,0.4,0,0,0-.8,0" transform="translate(-16.82 -9.28)"/><path class="cls-2" d="M305.11,16.19c0.52,8,.79,16.07.93,24.13a0.48,0.48,0,0,0,1,0c-0.05-8-.43-16.11-1.11-24.13,0-.5-0.81-0.51-0.78,0" transform="translate(-16.82 -9.28)"/><path class="cls-2" d="M312.37,16.75c-0.13,7.89-.26,15.79-0.16,23.67a0.36,0.36,0,0,0,.71,0c0.2-7.88.15-15.79,0.13-23.67a0.34,0.34,0,0,0-.68,0" transform="translate(-16.82 -9.28)"/><path class="cls-2" d="M315.2,16.87c0,8.47-.09,17,0.16,25.43a0.43,0.43,0,0,0,.86,0c0-8.48-.24-17-0.31-25.43a0.36,0.36,0,0,0-.72,0" transform="translate(-16.82 -9.28)"/><path class="cls-2" d="M317.8,16.4c0.13,8.15.11,16.34,0.55,24.48a0.41,0.41,0,0,0,.81,0c0-8.15-.34-16.33-0.63-24.47a0.37,0.37,0,0,0-.74,0" transform="translate(-16.82 -9.28)"/><path class="cls-2" d="M320.89,17.19a173.3,173.3,0,0,0,.93,24.14c0.06,0.51.86,0.54,0.83,0-0.51-8.06-1-16.06-1-24.14a0.39,0.39,0,0,0-.78,0" transform="translate(-16.82 -9.28)"/><path class="cls-2" d="M323.56,17c0.36,8.57.59,17.19,1.26,25.75a0.41,0.41,0,0,0,.82,0c-0.17-8.58-.85-17.18-1.33-25.75a0.38,0.38,0,0,0-.76,0" transform="translate(-16.82 -9.28)"/><path class="cls-2" d="M327.74,17.34a167.16,167.16,0,0,0-.23,25.49,0.38,0.38,0,0,0,.76,0c0-8.52-.4-17,0.23-25.49,0-.49-0.72-0.48-0.76,0" transform="translate(-16.82 -9.28)"/><path class="cls-2" d="M330,16.51c0.34,8.21.27,16.4,0.39,24.62a0.38,0.38,0,0,0,.76,0,211.08,211.08,0,0,0-.46-24.62c0-.44-0.7-0.44-0.69,0" transform="translate(-16.82 -9.28)"/><path class="cls-2" d="M334.48,15.47c-0.27,9-1,17.87-1.44,26.82,0,0.49.7,0.47,0.75,0a242.5,242.5,0,0,0,1.37-26.82,0.34,0.34,0,0,0-.68,0" transform="translate(-16.82 -9.28)"/><path class="cls-2" d="M338,15.85a171.38,171.38,0,0,0-2,26.32,0.37,0.37,0,0,0,.74,0,234.59,234.59,0,0,1,1.83-26.24,0.31,0.31,0,0,0-.6-0.08" transform="translate(-16.82 -9.28)"/><path class="cls-2" d="M339.93,16.28c-0.69,8.6-1.28,17.23-1.34,25.87a0.42,0.42,0,0,0,.84,0c0.25-8.64.64-17.24,1.21-25.87,0-.46-0.67-0.45-0.71,0" transform="translate(-16.82 -9.28)"/><path class="cls-2" d="M342.48,16.17c-0.65,8.95-1.17,18-1.1,26.93a0.39,0.39,0,0,0,.77,0c0.33-9,.52-18,1-26.93,0-.45-0.66-0.44-0.7,0" transform="translate(-16.82 -9.28)"/><path class="cls-2" d="M346.45,15.17a173.22,173.22,0,0,0-1.15,27.35,0.38,0.38,0,0,0,.77,0c0-9.17.2-18.22,1-27.35,0-.41-0.59-0.4-0.63,0" transform="translate(-16.82 -9.28)"/><path class="cls-2" d="M349.35,15.36c-0.33,9-.76,18.11-0.89,27.16a0.39,0.39,0,0,0,.79,0c0.43-9,.58-18.11.82-27.16a0.36,0.36,0,0,0-.71,0" transform="translate(-16.82 -9.28)"/><path class="cls-2" d="M352.54,16c0.29,8.59-.15,17-0.48,25.61,0,0.53.74,0.5,0.81,0A137.5,137.5,0,0,0,353.28,16a0.37,0.37,0,0,0-.74,0" transform="translate(-16.82 -9.28)"/><path class="cls-2" d="M356.09,14.93c0.17,9.5,0,19,.18,28.52a0.39,0.39,0,0,0,.79,0c0.45-9.47.14-19-.24-28.52a0.36,0.36,0,0,0-.72,0" transform="translate(-16.82 -9.28)"/><path class="cls-2" d="M359.3,16.23c0,8.5-.17,17,0.08,25.53a0.43,0.43,0,0,0,.86,0c0.19-8.5,0-17-.11-25.53a0.42,0.42,0,0,0-.84,0" transform="translate(-16.82 -9.28)"/><path class="cls-2" d="M362.81,16.17c-0.07,8.77-.26,17.59,0,26.36a0.41,0.41,0,0,0,.82,0c0.25-8.77,0-17.59-.08-26.36a0.38,0.38,0,0,0-.76,0" transform="translate(-16.82 -9.28)"/><path class="cls-2" d="M365.86,15.7a207.8,207.8,0,0,0,.63,27c0.06,0.54.89,0.57,0.87,0-0.36-9-.81-18-0.66-27a0.42,0.42,0,0,0-.83,0" transform="translate(-16.82 -9.28)"/><path class="cls-2" d="M369.2,15.17c0,8.84.17,17.72,0.76,26.54a0.44,0.44,0,0,0,.88,0c-0.26-8.85-.63-17.69-0.91-26.54a0.36,0.36,0,0,0-.72,0" transform="translate(-16.82 -9.28)"/><path class="cls-2" d="M371.94,16c0.34,8.54.34,17.06,0.13,25.6a0.44,0.44,0,0,0,.88,0,255.23,255.23,0,0,0-.27-25.6,0.37,0.37,0,0,0-.75,0" transform="translate(-16.82 -9.28)"/><path class="cls-2" d="M375.31,15.35c-0.19,8.81-.53,17.65-0.46,26.46a0.41,0.41,0,0,0,.81,0C376,33,376,24.17,376.1,15.35a0.39,0.39,0,0,0-.79,0" transform="translate(-16.82 -9.28)"/><path class="cls-2" d="M377.53,16.74c0.35,8,.27,15.95.57,23.91a0.38,0.38,0,0,0,.75,0,238.65,238.65,0,0,0-.59-23.91,0.37,0.37,0,0,0-.73,0" transform="translate(-16.82 -9.28)"/><path class="cls-2" d="M408.83,16.74c0.35,8,.27,15.95.57,23.91a0.38,0.38,0,0,0,.75,0,237.73,237.73,0,0,0-.59-23.91,0.36,0.36,0,0,0-.73,0" transform="translate(-16.82 -9.28)"/><path class="cls-2" d="M380.57,16.85c0.46,8.72.53,17.4,0.54,26.13a0.45,0.45,0,0,0,.89,0,247.91,247.91,0,0,0-.61-26.13c0-.53-0.85-0.53-0.82,0" transform="translate(-16.82 -9.28)"/><path class="cls-2" d="M384.67,17c-0.17,8.17-.56,16.39-0.35,24.56a0.36,0.36,0,0,0,.72,0c0.46-8.16.29-16.39,0.37-24.56a0.37,0.37,0,0,0-.74,0" transform="translate(-16.82 -9.28)"/><path class="cls-2" d="M387.92,16.42c0.16,8.36-.07,16.7-0.09,25.05a0.43,0.43,0,0,0,.86,0c0.22-8.34.38-16.72,0-25.05a0.37,0.37,0,0,0-.75,0" transform="translate(-16.82 -9.28)"/><path class="cls-2" d="M391.72,15.84c0,8.63-1.09,17.22-1.33,25.85a0.4,0.4,0,0,0,.81,0c0.77-8.48,1.55-17.33,1.23-25.85a0.35,0.35,0,0,0-.71,0" transform="translate(-16.82 -9.28)"/><path class="cls-2" d="M395.59,16.27c-0.15,8.65-.65,17.26-1.2,25.89,0,0.58.84,0.57,0.9,0a250.47,250.47,0,0,0,1.1-25.89,0.4,0.4,0,0,0-.81,0" transform="translate(-16.82 -9.28)"/><path class="cls-2" d="M398.31,15.8c-0.09,8.48-.19,17-0.36,25.43a0.45,0.45,0,0,0,.89,0c0.22-8.47.32-17,.2-25.43a0.36,0.36,0,0,0-.73,0" transform="translate(-16.82 -9.28)"/><path class="cls-2" d="M402.07,16.19c-0.2,8.56-.73,17.08-1.26,25.63,0,0.57.83,0.56,0.88,0,0.79-8.51,1-17.08,1.18-25.63a0.4,0.4,0,0,0-.8,0" transform="translate(-16.82 -9.28)"/><path class="cls-2" d="M404.92,16.18c0.52,8,.79,16.07.93,24.13a0.48,0.48,0,0,0,1,0c-0.05-8-.43-16.11-1.11-24.13,0-.5-0.81-0.51-0.78,0" transform="translate(-16.82 -9.28)"/><path class="cls-2" d="M412.17,16.74c-0.13,7.89-.26,15.79-0.16,23.67a0.36,0.36,0,0,0,.71,0c0.2-7.88.15-15.79,0.12-23.67a0.34,0.34,0,0,0-.68,0" transform="translate(-16.82 -9.28)"/><path class="cls-2" d="M415,16.86c0,8.47-.08,17,0.16,25.43a0.43,0.43,0,0,0,.86,0c0-8.48-.24-17-0.31-25.43a0.36,0.36,0,0,0-.72,0" transform="translate(-16.82 -9.28)"/><path class="cls-2" d="M417.6,16.39c0.13,8.15.11,16.34,0.55,24.48a0.41,0.41,0,0,0,.81,0c0-8.15-.34-16.33-0.63-24.48a0.37,0.37,0,0,0-.74,0" transform="translate(-16.82 -9.28)"/><path class="cls-2" d="M420.69,17.18a172.75,172.75,0,0,0,.93,24.14c0.06,0.51.86,0.54,0.83,0-0.51-8.06-1-16.06-1-24.14a0.39,0.39,0,0,0-.78,0" transform="translate(-16.82 -9.28)"/><path class="cls-2" d="M423.37,17c0.36,8.57.59,17.19,1.26,25.75a0.41,0.41,0,0,0,.82,0c-0.17-8.58-.85-17.18-1.33-25.75a0.38,0.38,0,0,0-.75,0" transform="translate(-16.82 -9.28)"/><path class="cls-2" d="M427.54,17.33a167,167,0,0,0-.23,25.49,0.38,0.38,0,0,0,.76,0c0-8.52-.4-17,0.23-25.49,0-.49-0.72-0.48-0.76,0" transform="translate(-16.82 -9.28)"/><path class="cls-2" d="M429.85,16.5c0.34,8.21.27,16.4,0.38,24.62a0.38,0.38,0,0,0,.76,0,210.23,210.23,0,0,0-.46-24.62,0.34,0.34,0,0,0-.68,0" transform="translate(-16.82 -9.28)"/><path class="cls-2" d="M433.85,15.46c-0.27,9-1,17.87-1.45,26.82,0,0.49.7,0.47,0.75,0a243.57,243.57,0,0,0,1.38-26.82,0.34,0.34,0,0,0-.68,0" transform="translate(-16.82 -9.28)"/><path class="cls-2" d="M437.41,15.84a171.26,171.26,0,0,0-2,26.32,0.37,0.37,0,0,0,.74,0A234.56,234.56,0,0,1,438,15.92a0.31,0.31,0,0,0-.6-0.08" transform="translate(-16.82 -9.28)"/><path class="cls-2" d="M439.29,16.27c-0.69,8.6-1.28,17.23-1.34,25.87a0.42,0.42,0,0,0,.84,0c0.25-8.64.64-17.24,1.21-25.87,0-.46-0.67-0.45-0.71,0" transform="translate(-16.82 -9.28)"/><path class="cls-2" d="M441.84,16.16c-0.65,8.95-1.17,18-1.1,26.93a0.39,0.39,0,0,0,.78,0c0.33-9,.52-18,1-26.93,0-.45-0.67-0.44-0.7,0" transform="translate(-16.82 -9.28)"/><path class="cls-2" d="M445.81,15.16a173.1,173.1,0,0,0-1.15,27.35,0.38,0.38,0,0,0,.77,0c0-9.17.2-18.22,1-27.35,0-.41-0.59-0.4-0.63,0" transform="translate(-16.82 -9.28)"/><path class="cls-2" d="M448.72,15.35c-0.33,9-.76,18.11-0.89,27.16a0.39,0.39,0,0,0,.79,0c0.43-9,.58-18.11.82-27.16a0.36,0.36,0,0,0-.71,0" transform="translate(-16.82 -9.28)"/><path class="cls-2" d="M451.91,16c0.29,8.59-.15,17-0.48,25.61,0,0.53.74,0.5,0.81,0A137.34,137.34,0,0,0,452.65,16a0.37,0.37,0,0,0-.74,0" transform="translate(-16.82 -9.28)"/><path class="cls-2" d="M455.45,14.92c0.17,9.5,0,19,.18,28.52a0.39,0.39,0,0,0,.79,0c0.45-9.47.14-19-.24-28.52a0.36,0.36,0,0,0-.72,0" transform="translate(-16.82 -9.28)"/><path class="cls-2" d="M458.66,16.22c0,8.5-.17,17,0.08,25.53a0.43,0.43,0,0,0,.86,0c0.19-8.5,0-17-.11-25.53a0.42,0.42,0,0,0-.84,0" transform="translate(-16.82 -9.28)"/><path class="cls-2" d="M462.17,16.16c-0.07,8.77-.26,17.59,0,26.36a0.41,0.41,0,0,0,.82,0c0.25-8.77,0-17.59-.08-26.36a0.38,0.38,0,0,0-.76,0" transform="translate(-16.82 -9.28)"/><path class="cls-2" d="M465.23,15.69a207.15,207.15,0,0,0,.63,27c0.05,0.54.89,0.57,0.86,0-0.36-9-.81-18-0.66-27a0.42,0.42,0,0,0-.83,0" transform="translate(-16.82 -9.28)"/><path class="cls-2" d="M468.57,15.16c0,8.84.17,17.72,0.76,26.54a0.44,0.44,0,0,0,.88,0c-0.26-8.85-.63-17.69-0.91-26.54a0.36,0.36,0,0,0-.72,0" transform="translate(-16.82 -9.28)"/><path class="cls-2" d="M471.3,16c0.34,8.54.34,17.06,0.13,25.6a0.44,0.44,0,0,0,.88,0,255.28,255.28,0,0,0-.27-25.6,0.37,0.37,0,0,0-.75,0" transform="translate(-16.82 -9.28)"/><path class="cls-2" d="M474.67,15.35c-0.19,8.81-.53,17.65-0.46,26.46a0.41,0.41,0,0,0,.81,0c0.37-8.81.33-17.65,0.44-26.46a0.39,0.39,0,0,0-.79,0" transform="translate(-16.82 -9.28)"/><path class="cls-2" d="M476.89,16.74c0.35,8,.27,15.95.57,23.91a0.38,0.38,0,0,0,.75,0,238,238,0,0,0-.59-23.91,0.36,0.36,0,0,0-.73,0" transform="translate(-16.82 -9.28)"/><path class="cls-2" d="M508.2,16.73c0.35,8,.27,15.95.57,23.91a0.38,0.38,0,0,0,.75,0,238.06,238.06,0,0,0-.59-23.91,0.36,0.36,0,0,0-.73,0" transform="translate(-16.82 -9.28)"/><path class="cls-2" d="M479.93,16.84c0.47,8.72.53,17.4,0.54,26.13a0.45,0.45,0,0,0,.89,0,248,248,0,0,0-.61-26.13c0-.53-0.85-0.53-0.82,0" transform="translate(-16.82 -9.28)"/><path class="cls-2" d="M484,17c-0.17,8.17-.55,16.39-0.35,24.56a0.36,0.36,0,0,0,.72,0c0.46-8.16.29-16.39,0.37-24.56a0.37,0.37,0,0,0-.74,0" transform="translate(-16.82 -9.28)"/><path class="cls-2" d="M487.28,16.41c0.16,8.36-.07,16.7-0.09,25.05a0.43,0.43,0,0,0,.86,0c0.22-8.34.38-16.72,0-25.05a0.37,0.37,0,0,0-.75,0" transform="translate(-16.82 -9.28)"/><path class="cls-2" d="M491.09,15.83c0,8.63-1.09,17.22-1.33,25.85a0.4,0.4,0,0,0,.81,0c0.78-8.48,1.55-17.33,1.23-25.85a0.36,0.36,0,0,0-.71,0" transform="translate(-16.82 -9.28)"/><path class="cls-2" d="M495,16.26c-0.15,8.65-.65,17.26-1.2,25.89,0,0.58.84,0.57,0.9,0a250.49,250.49,0,0,0,1.1-25.89,0.4,0.4,0,0,0-.81,0" transform="translate(-16.82 -9.28)"/><path class="cls-2" d="M497.67,15.8c-0.09,8.48-.19,17-0.36,25.43a0.45,0.45,0,0,0,.89,0c0.22-8.47.32-17,.2-25.43a0.36,0.36,0,0,0-.73,0" transform="translate(-16.82 -9.28)"/><path class="cls-2" d="M501.44,16.18c-0.2,8.56-.73,17.08-1.26,25.63,0,0.57.82,0.56,0.87,0,0.8-8.51,1-17.08,1.18-25.63a0.4,0.4,0,0,0-.8,0" transform="translate(-16.82 -9.28)"/><path class="cls-2" d="M504.28,16.17c0.52,8,.79,16.07.93,24.13a0.48,0.48,0,0,0,1,0c-0.05-8-.43-16.11-1.11-24.13,0-.5-0.81-0.51-0.78,0" transform="translate(-16.82 -9.28)"/><path class="cls-2" d="M511.54,16.74c-0.13,7.89-.26,15.79-0.16,23.67a0.35,0.35,0,0,0,.71,0c0.2-7.89.15-15.79,0.13-23.67a0.34,0.34,0,0,0-.68,0" transform="translate(-16.82 -9.28)"/><path class="cls-2" d="M514.36,16.85c0,8.47-.09,17,0.16,25.43a0.43,0.43,0,0,0,.86,0c0-8.48-.24-17-0.31-25.43a0.36,0.36,0,0,0-.72,0" transform="translate(-16.82 -9.28)"/><path class="cls-2" d="M517,16.39c0.14,8.15.11,16.34,0.55,24.48a0.41,0.41,0,0,0,.81,0c0-8.15-.34-16.33-0.63-24.48a0.37,0.37,0,0,0-.74,0" transform="translate(-16.82 -9.28)"/><path class="cls-2" d="M520.06,17.17A173.2,173.2,0,0,0,521,41.31c0.06,0.51.86,0.54,0.83,0-0.51-8.06-1-16.06-1-24.14a0.39,0.39,0,0,0-.78,0" transform="translate(-16.82 -9.28)"/><path class="cls-2" d="M522.73,17c0.36,8.57.59,17.19,1.26,25.75a0.41,0.41,0,0,0,.82,0c-0.17-8.58-.85-17.18-1.33-25.75a0.38,0.38,0,0,0-.75,0" transform="translate(-16.82 -9.28)"/><path class="cls-2" d="M526.9,17.32a167.18,167.18,0,0,0-.23,25.49,0.38,0.38,0,0,0,.76,0c0-8.52-.4-17,0.23-25.49,0-.49-0.72-0.48-0.76,0" transform="translate(-16.82 -9.28)"/><path class="cls-2" d="M529.21,16.49c0.34,8.21.27,16.4,0.39,24.62a0.38,0.38,0,0,0,.76,0,210.66,210.66,0,0,0-.46-24.62,0.34,0.34,0,0,0-.68,0" transform="translate(-16.82 -9.28)"/><path class="cls-2" d="M533.79,15.46c-0.28,9-1,17.87-1.45,26.82,0,0.49.7,0.47,0.76,0a243.55,243.55,0,0,0,1.38-26.82,0.34,0.34,0,0,0-.69,0" transform="translate(-16.82 -9.28)"/><path class="cls-2" d="M537.35,15.83a171.26,171.26,0,0,0-2,26.32,0.37,0.37,0,0,0,.74,0A234.6,234.6,0,0,1,538,15.91a0.31,0.31,0,0,0-.6-0.08" transform="translate(-16.82 -9.28)"/><path class="cls-2" d="M539.24,16.26c-0.69,8.6-1.28,17.23-1.34,25.87a0.42,0.42,0,0,0,.84,0c0.25-8.64.64-17.24,1.21-25.87,0-.46-0.67-0.45-0.71,0" transform="translate(-16.82 -9.28)"/><path class="cls-2" d="M541.79,16.15c-0.65,8.95-1.17,18-1.1,26.93a0.39,0.39,0,0,0,.77,0c0.33-9,.52-18,1-26.93,0-.45-0.66-0.44-0.7,0" transform="translate(-16.82 -9.28)"/><path class="cls-2" d="M545.76,15.15a173,173,0,0,0-1.15,27.35,0.38,0.38,0,0,0,.77,0c0-9.17.2-18.22,1-27.35,0-.41-0.59-0.4-0.63,0" transform="translate(-16.82 -9.28)"/><path class="cls-2" d="M548.66,15.34c-0.33,9-.76,18.11-0.89,27.16a0.39,0.39,0,0,0,.79,0c0.43-9,.58-18.11.82-27.16a0.36,0.36,0,0,0-.71,0" transform="translate(-16.82 -9.28)"/><path class="cls-2" d="M551.85,16c0.29,8.59-.15,17-0.48,25.61,0,0.53.74,0.5,0.81,0A137.49,137.49,0,0,0,552.6,16a0.37,0.37,0,0,0-.74,0" transform="translate(-16.82 -9.28)"/><path class="cls-2" d="M555.4,14.91c0.17,9.5,0,19,.18,28.52a0.39,0.39,0,0,0,.79,0c0.45-9.47.14-19-.24-28.52a0.36,0.36,0,0,0-.72,0" transform="translate(-16.82 -9.28)"/><path class="cls-2" d="M558.61,16.22c0,8.5-.17,17,0.08,25.53a0.43,0.43,0,0,0,.86,0c0.19-8.5,0-17-.11-25.53a0.42,0.42,0,0,0-.84,0" transform="translate(-16.82 -9.28)"/><path class="cls-2" d="M562.12,16.15c-0.07,8.77-.26,17.59,0,26.36a0.41,0.41,0,0,0,.82,0c0.25-8.77,0-17.59-.08-26.36a0.38,0.38,0,0,0-.76,0" transform="translate(-16.82 -9.28)"/><path class="cls-2" d="M565.18,15.69a207.31,207.31,0,0,0,.63,27c0.05,0.54.89,0.57,0.86,0-0.36-9-.81-18-0.66-27a0.42,0.42,0,0,0-.83,0" transform="translate(-16.82 -9.28)"/><path class="cls-2" d="M568.51,15.15c0,8.84.17,17.72,0.76,26.54a0.44,0.44,0,0,0,.88,0c-0.26-8.85-.63-17.69-0.91-26.54a0.36,0.36,0,0,0-.72,0" transform="translate(-16.82 -9.28)"/><path class="cls-2" d="M571.25,16c0.34,8.54.34,17.06,0.13,25.6a0.44,0.44,0,0,0,.88,0A255,255,0,0,0,572,16a0.37,0.37,0,0,0-.75,0" transform="translate(-16.82 -9.28)"/><path class="cls-2" d="M574.62,15.34c-0.19,8.81-.53,17.65-0.46,26.46a0.41,0.41,0,0,0,.81,0c0.37-8.81.33-17.65,0.44-26.46a0.39,0.39,0,0,0-.79,0" transform="translate(-16.82 -9.28)"/><path class="cls-2" d="M576.84,16.73c0.35,8,.27,15.95.57,23.91a0.38,0.38,0,0,0,.75,0,238.05,238.05,0,0,0-.59-23.91,0.36,0.36,0,0,0-.73,0" transform="translate(-16.82 -9.28)"/><path class="cls-2" d="M608.14,16.73c0.35,8,.27,15.95.57,23.91a0.38,0.38,0,0,0,.75,0,238.35,238.35,0,0,0-.59-23.91,0.36,0.36,0,0,0-.73,0" transform="translate(-16.82 -9.28)"/><path class="cls-2" d="M579.88,16.84c0.47,8.72.53,17.4,0.54,26.13a0.45,0.45,0,0,0,.89,0,247.69,247.69,0,0,0-.61-26.13c0-.53-0.85-0.53-0.82,0" transform="translate(-16.82 -9.28)"/><path class="cls-2" d="M584,17c-0.17,8.17-.55,16.39-0.35,24.56a0.36,0.36,0,0,0,.72,0c0.45-8.16.29-16.39,0.37-24.56a0.37,0.37,0,0,0-.74,0" transform="translate(-16.82 -9.28)"/><path class="cls-2" d="M587.23,16.4c0.16,8.36-.07,16.7-0.09,25.05a0.43,0.43,0,0,0,.86,0c0.22-8.34.38-16.72,0-25.05a0.38,0.38,0,0,0-.75,0" transform="translate(-16.82 -9.28)"/><path class="cls-2" d="M591,15.82c0,8.63-1.09,17.22-1.33,25.85a0.4,0.4,0,0,0,.81,0c0.78-8.48,1.55-17.33,1.23-25.85a0.35,0.35,0,0,0-.71,0" transform="translate(-16.82 -9.28)"/><path class="cls-2" d="M594.9,16.25c-0.15,8.65-.65,17.26-1.2,25.89,0,0.58.84,0.57,0.9,0a251,251,0,0,0,1.1-25.89,0.4,0.4,0,0,0-.81,0" transform="translate(-16.82 -9.28)"/><path class="cls-2" d="M597.62,15.79c-0.09,8.48-.19,17-0.36,25.43a0.44,0.44,0,0,0,.89,0c0.23-8.47.32-17,.2-25.43a0.36,0.36,0,0,0-.73,0" transform="translate(-16.82 -9.28)"/><path class="cls-2" d="M601.38,16.17c-0.2,8.56-.74,17.08-1.26,25.63,0,0.57.82,0.56,0.88,0,0.79-8.51,1-17.08,1.18-25.63a0.4,0.4,0,0,0-.8,0" transform="translate(-16.82 -9.28)"/><path class="cls-2" d="M604.23,16.17c0.52,8,.79,16.07.93,24.13a0.48,0.48,0,0,0,1,0c-0.05-8-.43-16.11-1.11-24.13,0-.5-0.81-0.51-0.78,0" transform="translate(-16.82 -9.28)"/><path class="cls-2" d="M611.48,16.73c-0.13,7.89-.26,15.79-0.16,23.67a0.36,0.36,0,0,0,.71,0c0.2-7.89.15-15.79,0.13-23.67a0.34,0.34,0,0,0-.68,0" transform="translate(-16.82 -9.28)"/><path class="cls-2" d="M614.31,16.84c0,8.47-.08,17,0.16,25.43a0.43,0.43,0,0,0,.86,0c0-8.48-.24-17-0.31-25.43a0.36,0.36,0,0,0-.72,0" transform="translate(-16.82 -9.28)"/><path class="cls-2" d="M616.91,16.38c0.13,8.15.11,16.34,0.55,24.48a0.41,0.41,0,0,0,.81,0c0-8.15-.34-16.33-0.63-24.48a0.37,0.37,0,0,0-.73,0" transform="translate(-16.82 -9.28)"/><path class="cls-2" d="M620,17.16a173.08,173.08,0,0,0,.92,24.14c0.06,0.51.86,0.54,0.83,0-0.51-8.06-1-16.06-1-24.14a0.39,0.39,0,0,0-.78,0" transform="translate(-16.82 -9.28)"/><path class="cls-2" d="M622.68,17c0.36,8.57.59,17.19,1.26,25.75a0.41,0.41,0,0,0,.82,0c-0.17-8.58-.85-17.18-1.33-25.75a0.38,0.38,0,0,0-.75,0" transform="translate(-16.82 -9.28)"/><path class="cls-2" d="M626.85,17.32a167,167,0,0,0-.23,25.49,0.38,0.38,0,0,0,.76,0c0-8.52-.4-17,0.23-25.49,0-.49-0.72-0.48-0.76,0" transform="translate(-16.82 -9.28)"/><path class="cls-2" d="M629.16,16.49c0.34,8.21.27,16.4,0.38,24.62a0.38,0.38,0,0,0,.76,0,210.86,210.86,0,0,0-.46-24.62c0-.43-0.7-0.44-0.68,0" transform="translate(-16.82 -9.28)"/><path class="cls-2" d="M633.16,15.45c-0.27,9-1,17.87-1.45,26.82,0,0.49.7,0.47,0.75,0a242.83,242.83,0,0,0,1.37-26.82,0.34,0.34,0,0,0-.68,0" transform="translate(-16.82 -9.28)"/><path class="cls-2" d="M636.72,15.82a171,171,0,0,0-2,26.32,0.37,0.37,0,0,0,.74,0,234.8,234.8,0,0,1,1.83-26.24,0.31,0.31,0,0,0-.6-0.08" transform="translate(-16.82 -9.28)"/><path class="cls-2" d="M638.6,16.26c-0.69,8.6-1.28,17.23-1.34,25.87a0.42,0.42,0,0,0,.84,0c0.25-8.64.64-17.24,1.21-25.87,0-.46-0.68-0.45-0.71,0" transform="translate(-16.82 -9.28)"/><path class="cls-2" d="M641.15,16.15c-0.65,8.95-1.17,18-1.1,26.93a0.39,0.39,0,0,0,.77,0c0.33-9,.52-18,1-26.93,0-.45-0.66-0.44-0.7,0" transform="translate(-16.82 -9.28)"/><path class="cls-2" d="M645.13,15.14A172.86,172.86,0,0,0,644,42.5a0.38,0.38,0,0,0,.77,0c0-9.17.2-18.22,1-27.35,0-.41-0.59-0.4-0.63,0" transform="translate(-16.82 -9.28)"/><path class="cls-2" d="M648,15.33c-0.33,9-.75,18.11-0.89,27.16a0.39,0.39,0,0,0,.79,0c0.43-9,.58-18.11.82-27.16a0.36,0.36,0,0,0-.71,0" transform="translate(-16.82 -9.28)"/></svg>