<svg id="Layer_1" data-name="Layer 1" xmlns="http://www.w3.org/2000/svg" viewBox="0 0 624.1 29.53"><defs><style>.cls-1{fill:#bdb3b0;}</style></defs><title>Borders_hearts</title><path class="cls-1" d="M12.27,33.82c-0.37.06-.17,0.29,0.82,0.28l0.35-.17,0.34-.18L13,33.81Z" transform="translate(-12.09 -6.14)"/><path class="cls-1" d="M18.92,33.39c1.06-.6,2.05-1.54,1.25-1.44A17.18,17.18,0,0,1,18,33.54c-0.95.35-1.72,0.34-1.58,0.18-0.33.17-1.52,0.2-2,.43a7.52,7.52,0,0,0,4.54-1C19.28,33.08,19,33.3,18.92,33.39Z" transform="translate(-12.09 -6.14)"/><path class="cls-1" d="M54.45,31.28l-0.66,0A6.54,6.54,0,0,0,54.45,31.28Z" transform="translate(-12.09 -6.14)"/><path class="cls-1" d="M53.76,19.37a2.85,2.85,0,0,0-.3-0.69A1.6,1.6,0,0,0,53.76,19.37Z" transform="translate(-12.09 -6.14)"/><path class="cls-1" d="M60.9,27.61c-0.2-.13-0.37-0.23-0.54-0.36A2.14,2.14,0,0,0,60.9,27.61Z" transform="translate(-12.09 -6.14)"/><path class="cls-1" d="M54.45,31.28h0.27a4.74,4.74,0,0,0,.59,0l0.85-.11A9.39,9.39,0,0,0,54.45,31.28Z" transform="translate(-12.09 -6.14)"/><path class="cls-1" d="M26.76,23.3l-0.11.81c0.06-.26.11-0.5,0.15-0.75Z" transform="translate(-12.09 -6.14)"/><path class="cls-1" d="M44.78,15.34s0.58,0.08.58,0.09h0.51A6.37,6.37,0,0,0,44.78,15.34Z" transform="translate(-12.09 -6.14)"/><path class="cls-1" d="M40.84,31.41a1.09,1.09,0,0,0,.62-0.7,2.63,2.63,0,0,1-.9.59A0.29,0.29,0,0,0,40.84,31.41Z" transform="translate(-12.09 -6.14)"/><path class="cls-1" d="M26.73,18.9a4.91,4.91,0,0,1,.45.45A3.76,3.76,0,0,0,26.73,18.9Z" transform="translate(-12.09 -6.14)"/><path class="cls-1" d="M42.44,27.94a0.41,0.41,0,0,0,.09.21A0.26,0.26,0,0,0,42.44,27.94Z" transform="translate(-12.09 -6.14)"/><path class="cls-1" d="M252.26,16.83a0.12,0.12,0,0,0,0,0C252.19,16.78,252.16,16.79,252.26,16.83Z" transform="translate(-12.09 -6.14)"/><path class="cls-1" d="M254.81,30.48l-0.32-.11a0.33,0.33,0,0,0-.13.12h0.45Z" transform="translate(-12.09 -6.14)"/><path class="cls-1" d="M80.4,30.69l-0.09,0C79.8,30.89,80.1,30.8,80.4,30.69Z" transform="translate(-12.09 -6.14)"/><path class="cls-1" d="M120.21,15.39c0-1.14.14-.22,0.41,0.48a1.93,1.93,0,0,0,.34.68,2.23,2.23,0,0,0-.1-1,2.48,2.48,0,0,1-.45-1C120.29,14.11,120.07,14,120.21,15.39Z" transform="translate(-12.09 -6.14)"/><path class="cls-1" d="M26.88,22.83a6.47,6.47,0,0,0,0-.74C26.9,22.43,26.88,22.66,26.88,22.83Z" transform="translate(-12.09 -6.14)"/><path class="cls-1" d="M120.87,15.52h0s0-.33,0-0.33A3.16,3.16,0,0,0,120.87,15.52Z" transform="translate(-12.09 -6.14)"/><path class="cls-1" d="M94.52,30.79a2.13,2.13,0,0,0-.47-0.17A1.11,1.11,0,0,0,94.52,30.79Z" transform="translate(-12.09 -6.14)"/><path class="cls-1" d="M89,22.5A3.43,3.43,0,0,0,89.06,22c0-.23.05-0.46,0.05-0.46C89.07,21.95,89,22.24,89,22.5Z" transform="translate(-12.09 -6.14)"/><path class="cls-1" d="M110.31,23.3a4.3,4.3,0,0,0,.62-1.17l-0.11.17A3,3,0,0,1,110.31,23.3Z" transform="translate(-12.09 -6.14)"/><path class="cls-1" d="M100.39,15.08l0.26-.27c0.11-.16.27-0.34,0.4-0.5l-0.35.37C100.54,14.88,100.39,15.08,100.39,15.08Z" transform="translate(-12.09 -6.14)"/><path class="cls-1" d="M233.8,18.25a4.54,4.54,0,0,1-.23-0.74c0,0.16-.39-0.2-0.55-0.31S233,17.13,233.8,18.25Z" transform="translate(-12.09 -6.14)"/><path class="cls-1" d="M26.92,23.32a1,1,0,0,1,0-.49c0,0.18,0,.35-0.07.53S26.88,23.43,26.92,23.32Z" transform="translate(-12.09 -6.14)"/><path class="cls-1" d="M108.65,21.6a7.33,7.33,0,0,0,.44-1.07,5.76,5.76,0,0,0,.17-0.76,2,2,0,0,0,0-.33A6.52,6.52,0,0,1,108.65,21.6Z" transform="translate(-12.09 -6.14)"/><path class="cls-1" d="M182.44,20.64s0.39,0.45.4,0.44A4.45,4.45,0,0,0,182.44,20.64Z" transform="translate(-12.09 -6.14)"/><path class="cls-1" d="M105.86,14.67a2.35,2.35,0,0,0-.54-0.18,3.48,3.48,0,0,0-.6,0,1.12,1.12,0,0,0-.22.12,2.81,2.81,0,0,1,.69,0A3.32,3.32,0,0,1,105.86,14.67Z" transform="translate(-12.09 -6.14)"/><path class="cls-1" d="M233.57,17.5h0Z" transform="translate(-12.09 -6.14)"/><path class="cls-1" d="M232.87,23.22c-2.08-1.4-1.19-.36-1.76-0.5-1.25-.89-1.4-1.22-1.4-1.36a0.43,0.43,0,0,0-.06-0.56c-1.27-1.18-2-2.26-1.66-3,0.09,0,.17-0.16.16,0a1.66,1.66,0,0,1,.28-0.6,2.9,2.9,0,0,1,.51-0.68,2.21,2.21,0,0,1,1.38-.78c1-.14,2.3.74,3.13,1.48a0.88,0.88,0,0,1,.12.28c-0.09-.39,0-0.57.17-0.6,0.76,0.85,1.43,1.66,1.4,2.16a2,2,0,0,0-.67-0.88,5.7,5.7,0,0,1,.34.49l0.31,0.51c0,0.56-.12.19-0.38-0.27A1.86,1.86,0,0,0,234,18a6.57,6.57,0,0,1,1.44,3.1,5.07,5.07,0,0,1-.54,3c-0.23.09,0.19-.83,0.29-1.58a2.71,2.71,0,0,0,0-.76c0-.08-0.05.07-0.22,0.59a5.08,5.08,0,0,0,.14-1.23A4.85,4.85,0,0,0,235,19.9a0.8,0.8,0,0,1-.08.62,2.17,2.17,0,0,1-.12-0.38,0.83,0.83,0,0,0-.17-0.4c-0.06,0,0,.12-0.1.53a5.81,5.81,0,0,1-.2,3.14,6.23,6.23,0,0,1-2,2.8c-0.45.63,0.39,0.05-.09,0.7a6.27,6.27,0,0,1-2.44,1.35,5.25,5.25,0,0,1-1.55.19,14.62,14.62,0,0,0-3.37.23,6.08,6.08,0,0,1-4.16.12l0.5-.12,0.49-.13a14.86,14.86,0,0,0-2.86-.25,7.67,7.67,0,0,1-2.92-.71c0.69,0.09,2.79.63,2.27,0.44-2.29-.92-1.74-0.22-3.55-0.83l-0.25-.46a31.57,31.57,0,0,1-10.68-6.15c0.25,0.09.85,0.51,0.2-.25-2-1.73-3.91-4-4.19-6.54a5,5,0,0,1,.83-3.36,3.77,3.77,0,0,1,1.14-1.08,3.27,3.27,0,0,1,.66-0.3A2.52,2.52,0,0,1,203,8.94a3.16,3.16,0,0,1,.7-0.13,4.14,4.14,0,0,1,.77.05c0.34,0.15.54,0.41,0.17,0.29,0.64,0.4.62,0.43,0.63,0.31s-0.11-.31.24-0.12A1.17,1.17,0,0,1,206,10c0,0.12-.07.09-0.26-0.07a1.66,1.66,0,0,1,.54,1.3l2.24,0.12a2.35,2.35,0,0,1,.68-1.91,4.59,4.59,0,0,1,2.3-1.23,4.23,4.23,0,0,1,2.5.21,3.68,3.68,0,0,1,1.59,1.42,5.53,5.53,0,0,0-.47-0.4,10.47,10.47,0,0,1,1.48,2.19,3.76,3.76,0,0,1,.26,2.67V13.83c-0.19,3-2.52,5.59-5.11,7.3a26.7,26.7,0,0,1-7.83,3.52,9.68,9.68,0,0,1-3.36,1.12c-1.48.3-2.9,0.46-3.08,0.77a17.17,17.17,0,0,1-3.28-.26,25.57,25.57,0,0,1-4.16-1c-1.23-.42-2-0.25-3.5-1l0.12-.3s-0.53-.18-1-0.42a7.48,7.48,0,0,1-.69-0.34l-0.31-.16s-0.18-.25-0.34-0.52-0.32-.52-0.32-0.52l-0.57-.49-0.53-.52a2.45,2.45,0,0,1,.65,1,8.13,8.13,0,0,1-2.19-3,3.29,3.29,0,0,1-.24-1.87,5.49,5.49,0,0,1-.11-0.78,5.67,5.67,0,0,1,.11-1.67,3,3,0,0,1,.67-1.33,2.19,2.19,0,0,1,.48-0.41,5,5,0,0,0-.73,1.06,1.51,1.51,0,0,1,.57-0.77,0.22,0.22,0,0,1,.24,0,0.24,0.24,0,0,0,.22,0,1.55,1.55,0,0,1,.26-0.1,2.93,2.93,0,0,1,.51-0.16c-0.25,0,.13-0.2.18-0.25a3.67,3.67,0,0,1,2,1.18,5.31,5.31,0,0,1,1.31,2.85l-0.26-.33a6.82,6.82,0,0,1-.26,2.73,8,8,0,0,1-1.46,2.66,11.17,11.17,0,0,1-5.47,3.6c1.56-.42,1.38,0,0.07.51l-0.61-.18c-0.81.41,1.42-.22-0.29,0.45-0.87.15-1.18,0-1.14-.05a2.16,2.16,0,0,1,.88-0.4,8,8,0,0,1-1,.2,6.84,6.84,0,0,1-.72.09l-0.33,0a1,1,0,0,1,.49-0.3,6.29,6.29,0,0,1-2.28-.09,18.35,18.35,0,0,0-2.57-.37l-0.09-.12a26.28,26.28,0,0,1-5.33-2c-0.73-.36-1.43-0.76-2.15-1.18a11.22,11.22,0,0,1-2-1.47c-0.25.18-1.23-.87-1.55-1.6a1.41,1.41,0,0,1,.09-0.66,1.17,1.17,0,0,1,.37-0.48,1.72,1.72,0,0,1,1.42-.07,3.07,3.07,0,0,1,1.5,1,1.88,1.88,0,0,1,.38,1.56,3.82,3.82,0,0,0-.13,1.13c0.05,0,.18-0.07,0,0.41A12.53,12.53,0,0,0,163.2,23c-0.46.42-.77,0.66-0.25,0A12.14,12.14,0,0,1,161,24.63c-0.63.42-1.24,0.78-1.86,1.17A28.76,28.76,0,0,1,154,28.17c0.58-.07,1.21-0.25.92,0s-0.47.17-.72,0.24-0.49.09-.7,0.11c-0.42,0-.7,0-0.65,0l0.24-.08a21.92,21.92,0,0,1-9.67.53c-0.81-.15-1.62-0.27-2.39-0.44s-1.52-.39-2.24-0.55c-1.42-.45-2.74-0.8-3.87-1.16l0.26,0.07-0.73-.25a12.65,12.65,0,0,1-1.57-.63c-0.56-.26-1.14-0.48-1.54-0.71l-0.67-.38c-1.88-1.26,1.25.56-.07-0.47a18,18,0,0,1-3-2c-0.42-.35-0.78-0.74-1.15-1.09a9.67,9.67,0,0,1-1-1.09,24.71,24.71,0,0,1-1.7-2.27,12.81,12.81,0,0,1-1.18-2.61,9.17,9.17,0,0,1,.26-2.82,2.46,2.46,0,0,1,.75-1.14,2.43,2.43,0,0,1,1.38-.56,4.14,4.14,0,0,1,3.2,1.45,5.85,5.85,0,0,1,1,1.58,13.51,13.51,0,0,1,.51,1.51c0.17,0.62.3,1.29,0.43,2v-0.8a15.63,15.63,0,0,1,.62,2.59c0.12,0.77.22,1.57,0.43,2.55,0-.71-0.53-3-0.15-1.85l0.31,1.3,1.47-3.29a30.32,30.32,0,0,1,1.55-3.13c0.17-.29.22-0.35,0.31-0.49l0.25-.36c0.17-.23.35-0.46,0.54-0.67a6.44,6.44,0,0,1,1.24-1.09,5.25,5.25,0,0,1,3-.88,3.12,3.12,0,0,1,1.37.37,5.42,5.42,0,0,1,.57.39,3.07,3.07,0,0,1,.42.51,3.78,3.78,0,0,1,.37,2.82A9.53,9.53,0,0,1,141,18.42a10.2,10.2,0,0,1-1,1.37c-0.38.43-.87,0.86-1.3,1.29s-0.94.8-1.4,1.2a15.86,15.86,0,0,1-1.47,1.1c-0.74.55-1.22,0.88-1.56,1.18a9.33,9.33,0,0,0-.76.79,5,5,0,0,1-1,.76,8.1,8.1,0,0,1-.93.47c-0.39.15-.86,0.31-1.42,0.49l1.1-.83a26.28,26.28,0,0,1-11,2.81A31.33,31.33,0,0,1,109,27.48a3.82,3.82,0,0,1,1.16.22c-0.69-.38-2-0.82-3.14-1.35a14.33,14.33,0,0,0-2.07-.91c-0.88-.67-0.11-0.29-0.58-0.78s-1.23-1.07-1.78-1.66a3.28,3.28,0,0,1-1-1.59,1.9,1.9,0,0,1,.37.52,4.77,4.77,0,0,1-.75-2c-0.09-.74,0-1.33-0.2-0.94a6.52,6.52,0,0,1,1.27-3.1,3.39,3.39,0,0,1,2.38-1.4,2.1,2.1,0,0,1,1.05-.13,3.5,3.5,0,0,1,1.21.42,15.23,15.23,0,0,0,1.57,1.07c-0.23.07,0.4,0.93,0.71,2.12a5.46,5.46,0,0,1,.17,1.81,8.54,8.54,0,0,1-.29,1.55c0-.27-0.12,0-0.3.31s-0.38.52-.32,0.21c-0.82,1.55-2.16,2.72-1.74,2.68a35.57,35.57,0,0,1-4.43,2.61,6.84,6.84,0,0,1-3.92.86,18.1,18.1,0,0,1-15.45-4,1.65,1.65,0,0,1,.87.5c0.46,0.31,1,.75,1.6,1.11l0.87,0.52,0.79,0.36c0.45,0.2.76,0.26,0.76,0.13a17.42,17.42,0,0,1-5.35-3.32A6.47,6.47,0,0,1,81,21a2.49,2.49,0,0,1,.3-2.53c0.35-.33.29-0.18,0.13,0a2.14,2.14,0,0,0-.26.79A2.24,2.24,0,0,1,83,17.7a3.62,3.62,0,0,1,2.75.55,3.7,3.7,0,0,1,1.33,2.38,5.78,5.78,0,0,1-.33,2.92A6.16,6.16,0,0,1,87,22.72c-0.18.77-.8,1.58-0.59,1.62L86.56,24l0.15-.35c0.38-.52.3,0.29-0.21,1.21A14.86,14.86,0,0,1,85,26.8c0.41-.71-0.47,0-1.36.42s-1.73.71-.84-0.13c-0.48.29-1.11,0.66-.93,0.74-0.82.28-1.1,0.28-.35-0.17-1.43.61-1.94,0.75-2.37,1a4.54,4.54,0,0,1-.78.26,9.4,9.4,0,0,1-1.52.29,6.92,6.92,0,0,1,.84-0.39,12.56,12.56,0,0,1-5.34.58c0.15-.05-0.13-0.15.6-0.1a29.45,29.45,0,0,1-5.72-.7,16.82,16.82,0,0,1-5.61-2.39c0.71,0.16.38-.07-0.11-0.4a3.09,3.09,0,0,1-1.1-1l-1-.72a8.08,8.08,0,0,1-.66-0.53l-0.29-.25,0.6,0.81c-1.63-1.41-3.12-2.74-3.81-4.45a12.93,12.93,0,0,0,.92,1.28,10.71,10.71,0,0,1-1-1.7,8.4,8.4,0,0,1-.43-1.25c-0.08-.35-0.11-0.58-0.11-0.58a7.19,7.19,0,0,0,.49,2.14c-0.51-.94-0.56-0.88-0.66-0.88s-0.25-.09-0.38-1.55a6.38,6.38,0,0,0,.05-1A4.29,4.29,0,0,1,55,14h0a4,4,0,0,1,2.62-2.45c0.4,0-.16.5,0.1,0.5a2.49,2.49,0,0,1,2.57,0,4.67,4.67,0,0,1,1.93,2.26c-0.17-.39-0.38-0.32-0.38-0.2a2.68,2.68,0,0,1,.36.71,1.29,1.29,0,0,1-.27.74c-0.08.09-.12,0.06-0.17,0-0.08.18-.19,0.3-0.22,0.37l1.15,0.79c1-1.62-1.08.81,0.89-1.93-0.14.25,0,.16-0.33,0.68a13.31,13.31,0,0,1,3.46-3.86,5,5,0,0,1,4.58-.56c0.34,0.35-.26.09-0.89,0s-1.26,0-.76.12a3.91,3.91,0,0,1,2.81,1A2.83,2.83,0,0,1,73,15.06a11,11,0,0,1-1.68,3.17,31.65,31.65,0,0,1-2.23,2.88l0.3-.32,0.29-.33c0,0.87-2.46,2.56-4.06,4.31C66,24.36,66,24,65.88,24.18a40.31,40.31,0,0,1-4,3.16,19.83,19.83,0,0,1-5.67,2.71l0.54-.3a18,18,0,0,1-3.36.45,14.8,14.8,0,0,1-3.48-.31c-0.6,0-1.73-.29-1.1.07-2.91-1.2-5.5-2.7-7.17-5-0.18-.3-0.39-0.58-0.56-0.89l-0.44-.95-0.3-1a2.86,2.86,0,0,1-.08-1A5.28,5.28,0,0,1,42,17.66c-0.42.44-.73,1.26-0.48,0.84a4.91,4.91,0,0,1,.37-0.56,3.25,3.25,0,0,1,1-.91,3.12,3.12,0,0,1,1.32-.32,3.57,3.57,0,0,1,.65,0,1.94,1.94,0,0,0-1.48-.29,2.73,2.73,0,0,1,1.29-.24,4.1,4.1,0,0,1,1.72.46c-2.06-.64,0,0.24.48,0.92-0.06-.15.21,0,0.2-0.12,0.72,0.95.73,1,1,1.11a1,1,0,0,1,.41.42,3.36,3.36,0,0,1,.39,1.63l-0.14-.16a5.74,5.74,0,0,1-.47,3.73c-0.25.19-.12-0.12,0-0.51a1.53,1.53,0,0,0,.14-0.94,7.44,7.44,0,0,1-2.81,4.62,11.78,11.78,0,0,0,1.77-2.19c-0.67.67-1.08,1-1.42,1.31s-0.63.58-1.19,1l0.11-.08s-0.65.48-1.34,0.89-1.41.77-1.41,0.77l0.38-.16,0.37-.17a7.57,7.57,0,0,1-3.22,1.95,40.73,40.73,0,0,1-4.3,1.13c3.11-.84.49-0.31,0.7-0.64-0.82,0-2.05-.05-1.7-0.15-1.51.25-2.45-.24-4.55-0.44-0.07-.09-1.51-0.53-1.1-0.65-1.8-.67.34,0.35,0.17,0.38a10.07,10.07,0,0,1-4.43-2.64,11.29,11.29,0,0,1-3.14-5,3.81,3.81,0,0,1,1-3.47,3.18,3.18,0,0,1,1.39-.89,2.77,2.77,0,0,1,2.18.24c0.46,0.42.19,0.33-.16,0.19a4.38,4.38,0,0,0-.86-0.21A3.46,3.46,0,0,1,26.74,20a4.49,4.49,0,0,1,.68,2.27c-0.09-.36-0.14,0-0.31.52A10.23,10.23,0,0,0,27,24.06a3.48,3.48,0,0,1-.5,1.53c0-.35,0-0.8.11-1.47a13.08,13.08,0,0,1-2.06,4.63c-0.42.26,0.45-1,.66-1.58a14.76,14.76,0,0,1-2,2.67c-0.74.81-1.45,1.44-1.63,1.72,0,0,.28-0.16.55-0.34s0.53-.36.53-0.36c-0.56.47-.43,0.06-0.06-0.32a5.65,5.65,0,0,1,1.92-1.68l-0.39.5-0.41.48A5.49,5.49,0,0,0,26,27.26a15,15,0,0,0,1.32-4.07,9.34,9.34,0,0,1,.18,1.14A8.52,8.52,0,0,0,27.6,23a5.83,5.83,0,0,0-.15-1.3,0.9,0.9,0,0,1,.14-0.54c0.07,0,.22.18,0.29,0.84a2.89,2.89,0,0,0-.36-1.74,12.59,12.59,0,0,0-.89-1.33c-0.12-.15,0-0.12.1,0a3.77,3.77,0,0,0-.82-0.54A3.39,3.39,0,0,0,25,18.08c0.19,0,.14-0.09.17-0.14s0.19-.09.75,0.22a3.1,3.1,0,0,0-2.47-.33,3.92,3.92,0,0,0-1.69,1,7.46,7.46,0,0,0-1.37,2.33l0-.3a4.24,4.24,0,0,0,0,2.2c0.1,0.31.15,0.32,0.2,0.29s0.09-.09.2,0.05,0.26,0.5.69,1.21a8.6,8.6,0,0,0,.22,1.18A10,10,0,0,0,22.15,27l0.53,0.15a2.88,2.88,0,0,1,.76,1c1.48,1-.14-0.29.77,0.24a10.34,10.34,0,0,0,3.36,2.24,11.54,11.54,0,0,1,2.52,1.16c0.85,0-2.06-.76.33-0.28a2.75,2.75,0,0,0,1.87.52c0.89,0,1.93,0,3,0-0.62.34-2.65,0.17-.52,0.41A13.48,13.48,0,0,1,37.49,32a11.66,11.66,0,0,0,3.07-.74c0-.19.87-0.55,2-1.19a15.88,15.88,0,0,0,3.65-2.63,7.78,7.78,0,0,0,2.13-2.29,7.9,7.9,0,0,0,1.14-2.69,7.15,7.15,0,0,0,.07-2.68l0.08,0.08c-0.24-.25-0.5-1.14-1.17-2a5.33,5.33,0,0,0-2.85-1.93c0.13-.17.6-0.23,1.73,0.37a6.35,6.35,0,0,0-1-.53,5.49,5.49,0,0,0-1.05-.34,7,7,0,0,0-2.6.36L43,15.57a2.15,2.15,0,0,1,.25-0.2,3.84,3.84,0,0,0-1.11.43,4.3,4.3,0,0,0-.91.74A6.83,6.83,0,0,0,40,18.41a8.42,8.42,0,0,0-.66,2.24,5.22,5.22,0,0,0,0,1.3c0,0.47.17,0.84,0.26,1.29a2.39,2.39,0,0,0,.25-0.94c0.05-.14.13-0.17,0.26,0a3.18,3.18,0,0,1,.23.5,6.27,6.27,0,0,0,.41.92c-0.08.17-.25,0.4-0.66-0.45,0.06,0.14.2,0.38,0.33,0.66s0.28,0.59.42,0.86l-0.14-.17a2.5,2.5,0,0,1-.29-0.4L40,23.64c0.51,1.49.49,0.67,1.07,1.74-0.21.11,0.42,0.82,0.18,0.78-0.24-.23-0.55-0.95-0.86-1.33a20.19,20.19,0,0,0,2.08,3.11c0-.17.18-0.2,1,0.43a4.79,4.79,0,0,1,1.3,1c0,0.11-.05.16,0.62,0.58,0.63,0.2,2.19.94,2.33,0.64a4.2,4.2,0,0,1,1.11.55,22.81,22.81,0,0,0,3.53.39,13.4,13.4,0,0,0,1.43-.09c0.27-.07.29-0.12-0.09-0.17l-0.35,0,0.22,0h0a23.06,23.06,0,0,0,6.54-1.74,20.71,20.71,0,0,0,5.66-3.64L65.81,26a31.34,31.34,0,0,0,5-5.76c0.47-.6,1.23-1.33,1.13-1,0.55-.82.84-1.3,1.18-1.89a10,10,0,0,0,1.2-2.76c-0.14,1.09-.12.91-0.05,0.83a4,4,0,0,1-.55,1.29,6,6,0,0,0,.92-3.08,3.59,3.59,0,0,0-.4-1.53,3.54,3.54,0,0,0-1.43-1.48c0.51,0.24.15-.24-0.66-0.66a5.43,5.43,0,0,0-2.69-.52,8.11,8.11,0,0,1,1,.15,7.36,7.36,0,0,1,1,.31,7,7,0,0,0-4.15.14l0.3-.28a3.61,3.61,0,0,1,.32-0.27,7.29,7.29,0,0,0-4.3,2.82,24.15,24.15,0,0,0-2.23,3.67l1.39,1a3.7,3.7,0,0,0,.56-3,6.35,6.35,0,0,0-1.26-2.51c-0.74-.44,0,0.09.45,0.81s0.72,1.6.32,1A5.48,5.48,0,0,0,60,10.41a4.22,4.22,0,0,0-1.68-.34,4.15,4.15,0,0,0-1.07.13,4.69,4.69,0,0,0-2.07,1.14,4.79,4.79,0,0,0-.91,1.22,10.34,10.34,0,0,0-1.14,3.57c0.08-.25.23-0.46,0.31-0.27s0.07,0.79.36,2.07,0.49,1.94.47,2.24-0.26.14-.62-0.61a1.58,1.58,0,0,1-.22-0.88c-0.28-.8-0.42-2-0.43-0.87l0.18,0.32a8.69,8.69,0,0,0,.89,2.72c0.43,0.85.81,1.42,0.48,1.14,0.61,0.78.8,0.89,0.69,0.7s-0.46-.72-0.81-1.36a12.71,12.71,0,0,0,2.61,3.27,29.16,29.16,0,0,0,3.28,2.64c-0.4-.36-0.71-0.75-0.29-0.45a8.36,8.36,0,0,0,2.86,1.58,9.34,9.34,0,0,1,2,.65c0.83,0.4.64,0.44,0.63,0.51s0.15,0.21,1.75.56c1.91,0.62.34,0.44-.47,0.31a45.06,45.06,0,0,0,7.32,1.19l-0.81,0c-0.4,0-.81,0-0.81,0,1,0,1.76,0,2.57-.05l-0.46-.09c-0.23,0-.46-0.12-0.46-0.12a7.21,7.21,0,0,1,1.73.07c0.95-.25-0.76-0.3,1.1-0.75a13,13,0,0,0,2.36-.4A5,5,0,0,1,81.16,30c-1.9.49-1.78,0.52-1.57,0.58s0.5,0.15-1.15.49c0.31-.08.66-0.16,1.05-0.24l1.27-.31c0.15,0-.11.1-0.36,0.19a5.26,5.26,0,0,0,2.64-1A25.65,25.65,0,0,1,85.5,28c-0.33.46,1-.26,1.46-0.81-0.63.59-.85,0.63-0.75,0.44s0.49-.66.95-1.28a5.6,5.6,0,0,0,1.43-2.21A12,12,0,0,0,89,22.5s-0.08.39-.21,0.77-0.3.74-.3,0.74a10,10,0,0,0,.26-3.63,0.94,0.94,0,0,1,.17.68c0,0.36,0,.65.05,0.32A9.28,9.28,0,0,0,88,18a4.49,4.49,0,0,0-1.4-1.55,4.29,4.29,0,0,0-2.09-.71c-0.68-.15-0.72-0.19-0.73-0.28s0-.18-0.65-0.17A6.32,6.32,0,0,0,79.67,17a4.09,4.09,0,0,0-1,1.57,4.28,4.28,0,0,0,0,2.47c0-.58,0-0.91.1-0.76a7,7,0,0,0,.73,1.89,5.4,5.4,0,0,1-.34-0.84,4.92,4.92,0,0,1-.22-2.09,4,4,0,0,1,1.61-2.76,3.36,3.36,0,0,0-.46.46,3.8,3.8,0,0,0-.73,1.24,3.92,3.92,0,0,0-.23,1.35,2.79,2.79,0,0,0,0,.44l0,0.16a4.16,4.16,0,0,1,.72-2.62,3.75,3.75,0,0,1,1.73-1.34,3.53,3.53,0,0,0-1.1.85,1.51,1.51,0,0,0,.59-0.21A2.91,2.91,0,0,0,79.78,18a3.33,3.33,0,0,0-.44,1.76,7.67,7.67,0,0,0,1.18,3.41L80,23.41a8.16,8.16,0,0,0,1.83,2.16A15.39,15.39,0,0,0,84,27.17a28.26,28.26,0,0,0,5.66,2.5l-0.73-.29-0.72-.3a9.67,9.67,0,0,1,1.87.47l1.29,0.33c0.44,0.09.87,0.14,1.26,0.18-0.09.09,0.11,0.19,0.41,0.3l1,0.26a1,1,0,0,1,.53,0l1.28,0A4.62,4.62,0,0,0,98,30.16l1.09,0a6.65,6.65,0,0,0,.75,0l0.34,0a11.5,11.5,0,0,0,2.32-.7,16.41,16.41,0,0,0,1.56-.86c0.91-.64,1.81-1.21,3.27-2.36-0.37.43-.21,0.42-0.18,0.5s-0.07.29-1.1,1.06a5.8,5.8,0,0,0,1.9-1.55,6.94,6.94,0,0,0,1.49-1.64c0.56-.78,1-1.68,1.34-2.2,0.11-.56.07-0.77,0.36-2.19,0.07-.15.1,0,0.1,0s0-.59-0.06-1-0.14-.64-0.23,0a5.43,5.43,0,0,0-.67-3.34,6.14,6.14,0,0,0-3-2.72,5.7,5.7,0,0,0-2-.41,5.57,5.57,0,0,0-1.94.35,7.81,7.81,0,0,0-2.72,1.83,7.74,7.74,0,0,0-1.47,4.31,6.82,6.82,0,0,0,.34,2.27,9.52,9.52,0,0,0,.87,1.86,0.52,0.52,0,0,1-.31-0.39A4.48,4.48,0,0,0,102,25.06c0.52,0.31,1,.69,2.55,1.84,0.74,0.65.29,0.44-.23,0.12s-1.07-.75-0.61-0.33c0,0.43,1,1.12,2.34,1.7s2.92,1.06,4.1,1.66c0,0-.61-0.16-0.61-0.16,1.84,0.83,4.76,1,8,1.22,0,0-.16.05,0,0.1,1.11-.11,2.7-0.23,4.38-0.47a35,35,0,0,0,4.91-1c-0.86.5-1.32,0.47-.69,0.6,1.33-.39-0.48-0.3,2.14-1.09,0.44-.07,1.14-0.24,1.77-0.37a3.87,3.87,0,0,1,1.36-.2s-0.6.27-1.21,0.5l-1.24.43a6.12,6.12,0,0,0,2.28-.69c0.78-.36,1.53-0.77,2.15-1.08l-0.09.22a14.17,14.17,0,0,0,2.07-1.24c0.52-.38,1-0.67,1.35-1s0.8-.71,1.33-1.13l1.92-1.69s-0.41.21-.41,0.21a7,7,0,0,1,1.47-1.56,4.21,4.21,0,0,0,1.37-1.68l0.73-.4a11.68,11.68,0,0,0,1.14-3.6,5.79,5.79,0,0,0-1-4.56,4.51,4.51,0,0,1,1.33,3.2,10.05,10.05,0,0,1-.64,3.75,9.83,9.83,0,0,0,.86-3.42,4.7,4.7,0,0,0-.73-3,4.16,4.16,0,0,1,.62,2.18,7.75,7.75,0,0,0-.51-1.62,5,5,0,0,0-3-2.57,5.79,5.79,0,0,0-2.26-.19c0.13-.2-0.35-0.3-1.16-0.14a6.75,6.75,0,0,0-2.9,1.45,10,10,0,0,0-1.33,1.37c-0.38.46-.81,1.12-0.88,1.21-0.29.42-.48,0.68-0.55,0.5a3.33,3.33,0,0,1-.13.35c-0.11-.29-0.23-0.77-0.41-1.22A8.63,8.63,0,0,0,129,9.75a6.32,6.32,0,0,0-4.5-1.5,4.84,4.84,0,0,0-2.5,1,4.69,4.69,0,0,0-1.64,2.28c0.4-.61.57-0.73,0.58-0.64a8.26,8.26,0,0,1-.29.78c-0.26.78-.29,1.82,0,1.62a19.22,19.22,0,0,0,.2,2.25,10.86,10.86,0,0,0,.56,2.25,11.89,11.89,0,0,0,1,2.13c0.27,0.46,0,.24-0.3-0.16a4.17,4.17,0,0,0-.67-0.84,14.13,14.13,0,0,0,.91,1.47,2,2,0,0,1,.27.5,3.16,3.16,0,0,0,.68,1.24c-0.05-.26.17-0.06,0.61,0.33a24,24,0,0,1,1.73,1.68L124,22.06a24.92,24.92,0,0,1,1.93,1.8c0.48,0.45.84,0.8,1.19,1.16a10.8,10.8,0,0,0,3.54,2.49s-1.36-.6-1.36-0.6l0.92,0.55,1.21,0.61,1.38,0.68,1.52,0.59a16.42,16.42,0,0,0,5.38,1.19c0.39,0.16.9,0.44-.13,0.27a27,27,0,0,0,8.92.41,20.89,20.89,0,0,0,2.18-.31,17.85,17.85,0,0,0,2.05-.4l1.9-.44c0.59-.19,1.16-0.35,1.69-0.49l-0.36.28c0.5-.19.91-0.4,1.35-0.62a7.75,7.75,0,0,1,1.54-.7c0,0.09-.32.32,0.13,0.12s2.35-1.56,3.58-2.27c0,0-.22.22-0.46,0.41l-0.47.38a11.42,11.42,0,0,0,3.06-2.38,7.66,7.66,0,0,0,1.76-3.06,4.74,4.74,0,0,0-.33-3.57,5,5,0,0,0-3-2.14,0.9,0.9,0,0,0-.76-0.44,3.3,3.3,0,0,0-2.33.27A3,3,0,0,0,158.87,17a3.35,3.35,0,0,0-.52,1.54,4.35,4.35,0,0,0,.63,2.57l-0.1,0a8,8,0,0,0,1.78,2,14.08,14.08,0,0,0,1.9,1.31,29,29,0,0,0,3.67,1.86,24.57,24.57,0,0,0,8.06,1.94,11.92,11.92,0,0,0,3.69.18,13.09,13.09,0,0,0,4.78-1.47c3.19-1.6,6-4.85,6.55-8.25-0.26,1-.25-0.23-0.3-1.36a5.45,5.45,0,0,0-.57-2.62c-0.35-.76-0.71-1.26-0.47-1.28l0.28,0.49a4.54,4.54,0,0,0-1.77-2.52,5.33,5.33,0,0,0-2.05-.95,4.75,4.75,0,0,0-2.33.06,5.23,5.23,0,0,0-.28.64,4,4,0,0,0-2.32,1.64,5.93,5.93,0,0,0-1,2.8,8.3,8.3,0,0,0,1.5,5.59,15.59,15.59,0,0,0,3.5,3.57c1.17,0.88,2.21,1.52,2.88,2A19.81,19.81,0,0,0,190.87,28l-0.14.27a20.91,20.91,0,0,0,5.09.54,24.33,24.33,0,0,0,5.7-.8l-0.46.22-0.47.2a8,8,0,0,0,2.87-1.17A15,15,0,0,1,206,25.85L206.87,26a40.06,40.06,0,0,0,6.35-3.24,12,12,0,0,0,4.81-5.6,1.45,1.45,0,0,1-.31,1.05,10.1,10.1,0,0,0,1-2.33,9,9,0,0,0,.35-3.1C219,10.71,218,9.27,218,9.83c0.15-.07-0.39-1.49-1.88-2.56a5.41,5.41,0,0,0-2.67-1,6.79,6.79,0,0,0-2.5.25l0.19-.19,0.2-.17A7.64,7.64,0,0,0,209,7.36a8.83,8.83,0,0,0-1,.85,4.65,4.65,0,0,0-1,1.71c-0.16.38-.22,0.56-0.26,0.49A1.46,1.46,0,0,1,207,9.52a3.18,3.18,0,0,0-.38,2l1.5,0.08a3.66,3.66,0,0,0-.16-1.32,4.47,4.47,0,0,0-1.11-1.92L207,8.44l0.32,0.28a4.12,4.12,0,0,1,.43.48,3.94,3.94,0,0,0-1.85-1.73,4.68,4.68,0,0,0-1.49-.35A6.78,6.78,0,0,0,202.95,7a5.43,5.43,0,0,0-1.66.39,17.67,17.67,0,0,0-2,1.16,18.48,18.48,0,0,0-1.19,3.13c-0.14.18-.08-0.38,0-0.66a6.23,6.23,0,0,0-.3,2.91,7.77,7.77,0,0,0,.68,2.23,26.2,26.2,0,0,0,2.14,3.43,0.67,0.67,0,0,0,.18.47,13.84,13.84,0,0,1-2.33-3.53A6.39,6.39,0,0,1,198,15c-0.33.07,0.68,2.81-.48,0.76a12.78,12.78,0,0,0,2.39,3.56c1,1.15,2.2,2.15,3.1,3.06a1.82,1.82,0,0,1,.2.29l-0.22-.15a8.66,8.66,0,0,0,1.26,1,18.17,18.17,0,0,0,1.64,1.34c0.11,0.37,2.45,1.78,3.62,2.37,0-.3,1.53.51,0.22-0.42a3.17,3.17,0,0,1-1-.5l-0.49-.25,0.09,0a32.1,32.1,0,0,1-2.71-1.76,21.54,21.54,0,0,1,3,1.84l1.8,0.45a17.81,17.81,0,0,0,2.8,1.8,21.69,21.69,0,0,1,2.1,1.14,35.11,35.11,0,0,0,6.4,1.19,13.71,13.71,0,0,0,5.4-.46,5,5,0,0,1,1.76-.09c-0.64.21-1.42,0.34-1.77,0.45a15.56,15.56,0,0,0,4.18-1.3,5.39,5.39,0,0,0,2.39-1.93c1.1-1,.84-0.65.72-0.39s-0.14.21,0,.09a8.15,8.15,0,0,0,1-1.33l-0.11.27-0.12.26a7.25,7.25,0,0,0,1.85-5.41,6.64,6.64,0,0,0-.83-2.59,9.37,9.37,0,0,0-1.52-2,7.68,7.68,0,0,0-2.06-1.57,4.21,4.21,0,0,0-2.75-.46,4.77,4.77,0,0,0-2.5,1.56l-0.46.6-0.24.31-0.21.39a3.24,3.24,0,0,0-.33,1.8,2,2,0,0,1,.15-1.18,3.63,3.63,0,0,0,.17,2.06,6.65,6.65,0,0,0,1,1.7,13.46,13.46,0,0,0,2.72,2.61,26.35,26.35,0,0,0,6.58,3.45A26.88,26.88,0,0,0,244,29.15a14,14,0,0,0,7.28-1.22,7.64,7.64,0,0,0,2.3-1.63,10.54,10.54,0,0,0,1.19-1.63l0.3-.15,0.31-.17a7.87,7.87,0,0,0,.56-1.41,6.22,6.22,0,0,0,.24-1.49,8.33,8.33,0,0,0-.24-2.94,5.88,5.88,0,0,0-1.41-2.58,4.6,4.6,0,0,0-3-1.42,5.16,5.16,0,0,0-3.6,1.14l0.35-.1c0.18,0,.36-0.07.36-0.07a6.22,6.22,0,0,0-1.44,1A7.28,7.28,0,0,0,245.93,18C245.27,19,245.15,20,245,19.83a4.6,4.6,0,0,0,0,.51c0,0.12,0,.25,0,0.4a4.1,4.1,0,0,1,0,.53l-0.15.08a4.06,4.06,0,0,0,.22.75,7.2,7.2,0,0,0,.76,1.44,13.53,13.53,0,0,0,1.44,1.75c1.11,1.33,1,1.31.88,1.47a0.54,0.54,0,0,0,.23.5,10.85,10.85,0,0,0,1.77,1.62,14.36,14.36,0,0,0,3,1.6c1,0.38,1.73.47,1.4,0.3a3.76,3.76,0,0,1-1.69-1.11,8,8,0,0,0,.77.37,8.28,8.28,0,0,0,.79.32c0.23-.16.68-0.25,0.61-0.51s-0.6-.59-2.16-1.78l-0.38-.19-0.83-.46c-0.6-.35-1.17-0.74-1.17-0.74l-0.27-.37L250,25.92s0.42,0.39.88,0.75,0.91,0.71.91,0.71a14.21,14.21,0,0,0-2.41-1.91,3.8,3.8,0,0,0-.6-1l-0.33-.26-0.68-.6c-0.22-.23-0.46-0.46-0.62-0.65l-0.25-.31c0-.34.82,0.76,0.19-0.68-0.31-.44-0.31-0.18-0.33,0s0,0.18-.09.13a1.46,1.46,0,0,1-.35-0.67,2,2,0,0,1,.19-0.93c0.07-.21.07-0.43,0.21-1.08,0.19-.12.12,0.16,0.07,0.64a3.79,3.79,0,0,1,.79-1.83c0.42-.58.92-1,1.12-1.28a7,7,0,0,1,2.3-.66c0.8,0,1.36.29,1.22,0.47a2.26,2.26,0,0,1,1.11.43,3.34,3.34,0,0,1,1.14,1.4c-0.7-.76-0.11.09,0,1.25a3.77,3.77,0,0,1-.12,1.62c-0.15.4-.33,0.63-0.42,0.46a4.69,4.69,0,0,1-1.87,3,11.74,11.74,0,0,1-2.05,1.39,13.2,13.2,0,0,1-2.13.92,3.21,3.21,0,0,1,.67-0.28,5.45,5.45,0,0,1-1,.21,4.42,4.42,0,0,1-.75.06c-0.45,0-.83,0-1.35,0a2.65,2.65,0,0,1-1.66.39c-0.87.05-1.9,0-2.64,0-2-.81,1.34-0.2.76-0.72,0,0.18-.87.1-1.7,0s-1.57-.3-1.27-0.06a5.09,5.09,0,0,1-1.94-1.14c-0.45.37-1.42-.47-2.74-0.8a3.49,3.49,0,0,1-1.15-1,6,6,0,0,0-1.37-.89C230.95,22.13,232.86,23.24,232.87,23.22Zm-29.19-2.57h0c0.39,0.37.74,0.65,1,.84C204.44,21.31,204.14,21.08,203.68,20.65Zm-3.27-3.88a11.52,11.52,0,0,0,1.24,1.79c0,0.2-.17.12-0.48-0.29A13.77,13.77,0,0,0,200.41,16.77Zm6.77,9.1a3,3,0,0,1-1-.77c0.35,0.22.74,0.5,1.29,0.81l0.11,0A1,1,0,0,1,207.18,25.87Z" transform="translate(-12.09 -6.14)"/><path class="cls-1" d="M208.71,26.35L209,26.5l-0.42-.31-0.31-.07Z" transform="translate(-12.09 -6.14)"/><path class="cls-1" d="M53.67,31.3h0.12a1,1,0,0,1-.24,0Z" transform="translate(-12.09 -6.14)"/><polygon class="cls-1" points="174.58 17.83 174.55 17.9 174.96 18.04 174.58 17.83"/><path class="cls-1" d="M46.92,17.59a1.82,1.82,0,0,0,.2.28A0.91,0.91,0,0,0,46.92,17.59Z" transform="translate(-12.09 -6.14)"/><path class="cls-1" d="M44.82,27.48s-0.35.25-.72,0.48-0.74.44-.74,0.44A12.08,12.08,0,0,0,44.82,27.48Z" transform="translate(-12.09 -6.14)"/><path class="cls-1" d="M36.28,31a0.48,0.48,0,0,0-.16.15h0Z" transform="translate(-12.09 -6.14)"/><path class="cls-1" d="M87,22.72L87,22.41A2.84,2.84,0,1,0,87,22.72Z" transform="translate(-12.09 -6.14)"/><path class="cls-1" d="M55,14a8,8,0,0,0-.38,1.31A3.18,3.18,0,0,0,55,14Z" transform="translate(-12.09 -6.14)"/><path class="cls-1" d="M108.53,21.83h0l0.12-.24Z" transform="translate(-12.09 -6.14)"/><path class="cls-1" d="M54.49,17.23a8.31,8.31,0,0,1,.13-1.92A4.15,4.15,0,0,0,54.49,17.23Z" transform="translate(-12.09 -6.14)"/><path class="cls-1" d="M22.63,30.1l-0.34.28s0,0,0,.07Z" transform="translate(-12.09 -6.14)"/><path class="cls-1" d="M22.28,30.45l-0.36.33A1.51,1.51,0,0,0,22.28,30.45Z" transform="translate(-12.09 -6.14)"/><path class="cls-1" d="M21.11,31.45l0.41-.32c0.2-.16.39-0.34,0.39-0.34A5.31,5.31,0,0,0,21.11,31.45Z" transform="translate(-12.09 -6.14)"/><path class="cls-1" d="M26.25,19.94l-0.15,0A0.17,0.17,0,0,0,26.25,19.94Z" transform="translate(-12.09 -6.14)"/><path class="cls-1" d="M23.61,19.1a2.44,2.44,0,0,1,2.36.81h0.12a6,6,0,0,0-1.06-.8A1.56,1.56,0,0,0,23.61,19.1Z" transform="translate(-12.09 -6.14)"/><path class="cls-1" d="M27.35,31a14.57,14.57,0,0,1-1.48-.83,13.92,13.92,0,0,1-1.37-1c0.4,0.44,1,1-.31.12,1.66,1.42,1.57,1.16,1.43,1s-0.11-.19.09-0.12S26.35,30.48,27.35,31Z" transform="translate(-12.09 -6.14)"/><path class="cls-1" d="M37.63,32.22c-1.79.38,0.05,0.17,0,.24C38.72,32.11,39,32,37.63,32.22Z" transform="translate(-12.09 -6.14)"/><path class="cls-1" d="M72.46,18.67L72.57,19C73.34,17.81,72.49,18.9,72.46,18.67Z" transform="translate(-12.09 -6.14)"/><path class="cls-1" d="M67.14,11.61a4.94,4.94,0,0,1,.55-0.18c0.28-.07.56-0.1,0.56-0.1l0.23-.18A2.54,2.54,0,0,1,68.73,11a4.72,4.72,0,0,0-.83.25A4.54,4.54,0,0,0,67.14,11.61Z" transform="translate(-12.09 -6.14)"/><path class="cls-1" d="M63.69,15.7a2.06,2.06,0,0,1-.11.42c-0.07.21-.15,0.41-0.15,0.41a3.93,3.93,0,0,0,.36-1.61,4,4,0,0,0-.15-1.07l-0.15-.45a4.6,4.6,0,0,1,.27,1.1,4.54,4.54,0,0,1,0,.82Z" transform="translate(-12.09 -6.14)"/><path class="cls-1" d="M103.06,12.54l0.29,0.06,0.28,0.07a1.23,1.23,0,0,0,.77-0.41A1.76,1.76,0,0,0,103.06,12.54Z" transform="translate(-12.09 -6.14)"/><path class="cls-1" d="M139.6,23.39a4.88,4.88,0,0,0,1.14-.86,6,6,0,0,0,1.12-1.29,14.38,14.38,0,0,1-1.29,1.25Z" transform="translate(-12.09 -6.14)"/><path class="cls-1" d="M179.07,13.12l0.09-.2a2.52,2.52,0,0,1,.22-0.43l0.26-.42a1.42,1.42,0,0,1,.14-0.18,2.08,2.08,0,0,0-.26.34,4.52,4.52,0,0,0-.47.8,6,6,0,0,0-.43,1.21A6.92,6.92,0,0,1,179.07,13.12Z" transform="translate(-12.09 -6.14)"/><path class="cls-1" d="M636,34.38c0.52-.19.2-0.31-1.35-0.06,0,0-1.1.41-1.1,0.41l0.39,0a7.44,7.44,0,0,0,.85-0.1Z" transform="translate(-12.09 -6.14)"/><path class="cls-1" d="M625.84,32.26c-1.69-.63-3.59-1.59-2.77-0.68,0.86,0.35,1.37.58,1.92,0.8a9.5,9.5,0,0,0,2.08.62c1.44,0.55,2.55.92,2.26,1a10.6,10.6,0,0,0,3.26.31,32.74,32.74,0,0,1-3.31-.67,33.55,33.55,0,0,1-3.65-1.21C625.16,32.1,625.69,32.26,625.84,32.26Z" transform="translate(-12.09 -6.14)"/><path class="cls-1" d="M576.53,22.67s0.41,0.83.43,0.82Z" transform="translate(-12.09 -6.14)"/><path class="cls-1" d="M562.36,14.44a1.17,1.17,0,0,0-.8.13C562,14.43,562.48,14.49,562.36,14.44Z" transform="translate(-12.09 -6.14)"/><path class="cls-1" d="M560.34,25.85l0.62-.64A4.79,4.79,0,0,0,560.34,25.85Z" transform="translate(-12.09 -6.14)"/><path class="cls-1" d="M576.53,22.67s-0.25-.54-0.46-1.09a9.73,9.73,0,0,1-.33-1.12A5.47,5.47,0,0,0,576.53,22.67Z" transform="translate(-12.09 -6.14)"/><path class="cls-1" d="M612.66,17.15a4.72,4.72,0,0,0-.2,1.55,5.84,5.84,0,0,1,.22-1.44A0.43,0.43,0,0,1,612.66,17.15Z" transform="translate(-12.09 -6.14)"/><path class="cls-1" d="M597.87,19.3l-0.3.13-0.28.16a2.15,2.15,0,0,0-.37.4A5.46,5.46,0,0,1,597.87,19.3Z" transform="translate(-12.09 -6.14)"/><path class="cls-1" d="M614.58,34.06a2.2,2.2,0,0,0-1.16.48,9.64,9.64,0,0,1,1.49-.3A0.37,0.37,0,0,0,614.58,34.06Z" transform="translate(-12.09 -6.14)"/><path class="cls-1" d="M619,14.31a5.34,5.34,0,0,0-.83,0A5,5,0,0,1,619,14.31Z" transform="translate(-12.09 -6.14)"/><path class="cls-1" d="M591.43,29.79a0.68,0.68,0,0,0-.28-0.07A0.39,0.39,0,0,0,591.43,29.79Z" transform="translate(-12.09 -6.14)"/><path class="cls-1" d="M283.89,13.95s0,0,0,0C283.92,14.16,283.95,14.22,283.89,13.95Z" transform="translate(-12.09 -6.14)"/><path class="cls-1" d="M255.14,30.35l0.49,0.09a0.29,0.29,0,0,0,.14-0.13Z" transform="translate(-12.09 -6.14)"/><path class="cls-1" d="M535.08,30.78l0.11,0.05C535.87,31.06,535.49,30.93,535.08,30.78Z" transform="translate(-12.09 -6.14)"/><path class="cls-1" d="M429.88,25.29c0.36-.5.44-0.54,0.38-0.33a4,4,0,0,1-.52,1c-0.22.4-.54,0.71-0.53,0.79s0.07,0,.23-0.12a4.23,4.23,0,0,0,.76-0.76c-0.15.13,0.3-.71,0.38-1.24,0-.27,0-0.44,0-0.38S430.32,24.66,429.88,25.29Z" transform="translate(-12.09 -6.14)"/><path class="cls-1" d="M613.07,16.29a5.23,5.23,0,0,1,.89-1.22A4.64,4.64,0,0,0,613.07,16.29Z" transform="translate(-12.09 -6.14)"/><path class="cls-1" d="M430.2,25.9h0a2.13,2.13,0,0,0,.26-0.34A1.81,1.81,0,0,1,430.2,25.9Z" transform="translate(-12.09 -6.14)"/><path class="cls-1" d="M503.34,29.56a3.42,3.42,0,0,0,.61.22A1.83,1.83,0,0,0,503.34,29.56Z" transform="translate(-12.09 -6.14)"/><path class="cls-1" d="M523.33,20.27s-0.1-.27-0.18-0.54S523,19.19,523,19.19A7.4,7.4,0,0,0,523.33,20.27Z" transform="translate(-12.09 -6.14)"/><path class="cls-1" d="M496.76,26.52l-1.4,1,0.24-.12C495.85,27.19,496.17,26.93,496.76,26.52Z" transform="translate(-12.09 -6.14)"/><path class="cls-1" d="M472.41,26.89l0.4,0.28,0.75,0.36L473,27.22Z" transform="translate(-12.09 -6.14)"/><path class="cls-1" d="M293.68,19.15a3.41,3.41,0,0,1,.88,1.32c-0.05-.29.62,0.62,0.76,1.07,0.08,0.2.12,0.24,0-.14A4.84,4.84,0,0,0,293.68,19.15Z" transform="translate(-12.09 -6.14)"/><path class="cls-1" d="M612.82,17.19a1.85,1.85,0,0,1,.25-0.9,5.62,5.62,0,0,0-.39,1C612.69,17.36,612.72,17.39,612.82,17.19Z" transform="translate(-12.09 -6.14)"/><path class="cls-1" d="M497.26,29a19.8,19.8,0,0,1-2,1.19c-0.51.26-1,.5-1.43,0.67l-0.67.26A16.72,16.72,0,0,0,497.26,29Z" transform="translate(-12.09 -6.14)"/><path class="cls-1" d="M373.63,24.6a8.68,8.68,0,0,1-.57,1A4.4,4.4,0,0,0,373.63,24.6Z" transform="translate(-12.09 -6.14)"/><path class="cls-1" d="M480,32.11l-2.4-.81a4.63,4.63,0,0,0-.52-0.08s0.71,0.27,1.44.48c0.36,0.12.73,0.22,1,.29Z" transform="translate(-12.09 -6.14)"/><path class="cls-1" d="M294.56,20.48h0Z" transform="translate(-12.09 -6.14)"/><path class="cls-1" d="M272.71,30.5c1.88,1.08,2.43,1.13,2.54,1.07s-0.13-.35.33-0.27a29.49,29.49,0,0,1,3.11,1.19c0.15,0.14-.15.24,0.72,0.52a17.8,17.8,0,0,0,8.12-.81c0.19,0,.65-0.12.14,0.12a20.19,20.19,0,0,0,2.83-1.38,11.71,11.71,0,0,0,2.94-2.53,8.57,8.57,0,0,0,1.83-3.63,5.19,5.19,0,0,0-.5-3.73c-0.12-.32-0.19-0.48-0.22-0.57,0.24,0.74,0,.92-0.12.84a4.1,4.1,0,0,0-1.88-1.87,8.76,8.76,0,0,0-1.69-.56,6.11,6.11,0,0,1,1.23.18,4.34,4.34,0,0,1,.72.21,3.82,3.82,0,0,0-2.15-.45c-0.51-.05-0.59,0-0.4-0.13a2.77,2.77,0,0,1,1.2,0,8.92,8.92,0,0,1,2.18.89,4.16,4.16,0,0,0-3.34-1,4,4,0,0,0-2.74,2.06A4.78,4.78,0,0,0,287,23.7a6.73,6.73,0,0,0,1,2.42c0.05,0.38-1.12-1.12-1.24-2.69a6.21,6.21,0,0,1,.09-1.56c0-.16-0.2.1-0.3,1.29a4.38,4.38,0,0,1,.08-0.86,5.16,5.16,0,0,1,.65-1.74,4.49,4.49,0,0,1,1.28-1.38,3.8,3.8,0,0,1,.78-0.42c-1,.35-1.29.64-1.28,0.55a2.78,2.78,0,0,1,.79-0.61,10.79,10.79,0,0,1,1-.43c0.05,0,0-.06-0.2,0a3.33,3.33,0,0,0-1.08.29,4.91,4.91,0,0,0-1.85,2,5.38,5.38,0,0,0-.6,2,5.18,5.18,0,0,0,.17,1.82,6.71,6.71,0,0,0,.59,1.44,9.6,9.6,0,0,0,1.88,2.36,19.23,19.23,0,0,0,3.06,2.31c1.29,0.54-.25-0.46,1,0a36.06,36.06,0,0,0,4.41,1.77c1.07,0.36,1.81.6,2.5,0.82a10.75,10.75,0,0,0,2.17.48,12.68,12.68,0,0,0,3.55-.14c0.81-.21,1.36-0.45,2.24-0.74s2.1-.57,4.22-1.46c0,0-.3.26-0.62,0.51s-0.67.48-.67,0.48a12,12,0,0,0,2.83-1.47,10.45,10.45,0,0,0,1.21-1c0.62-.62,1.36-1.14,3.59-3.21a14.38,14.38,0,0,1-1.79,1.87c-0.67.6-1.2,1-.83,0.75A8.66,8.66,0,0,0,318.13,27,22.83,22.83,0,0,1,319.68,25l0.67-.28a13.23,13.23,0,0,0,2.36-4.45,3.92,3.92,0,0,0,.06-1.71,2.13,2.13,0,0,0-.4-0.89,1.66,1.66,0,0,0-.33-0.38,4.1,4.1,0,0,0-.31-0.29,3.81,3.81,0,0,0-3.15-.71,5.36,5.36,0,0,0-4,4.09,8.16,8.16,0,0,0,.8,5.4c-0.26-.31-0.87-1.45-0.26.19a12.41,12.41,0,0,0,2.07,2.84,11,11,0,0,0,1.31,1.17l0.69,0.55L319.94,31a18.65,18.65,0,0,0,6.53,2.56,30.37,30.37,0,0,0,13.28-.68l1.48-.62c0.73-.32,1.45-0.68,1.45-0.68,0.69-.25,1.32-0.38.6,0,3-1.17.08-.23,1.47-1,1.66-.81,2.28-1,1.27-0.33A16.35,16.35,0,0,0,350.16,27a9.59,9.59,0,0,0,2.5-5.87,6.56,6.56,0,0,0-.75-3.34,6.83,6.83,0,0,0-2.2-2.46,6,6,0,0,0-3-1.06,5.21,5.21,0,0,0-2.85.62s0.3-.19.61-0.36l0.46-.2a1.1,1.1,0,0,1,.21-0.08,5,5,0,0,0-2.32,1.32,4.74,4.74,0,0,0-1.1,1.68,4.26,4.26,0,0,0,.14,3.49l1.45-.37c-0.08-.75-0.11-1.63-0.21-2.83L343.22,18l0.08,0.42a10.75,10.75,0,0,0-1-3.91,6.43,6.43,0,0,0-3.1-3,4.69,4.69,0,0,0-4.45.24,5.6,5.6,0,0,0-2.42,3.57,7.43,7.43,0,0,0,.39,4,15.27,15.27,0,0,0,1.69,3.24,28.5,28.5,0,0,0,4.15,5c0.7,0.33,2.66,2,4.83,3.08s4.44,1.82,4.83,1.59c0.69,0.25,1.29.38,1.8,0.51a13.66,13.66,0,0,0,1.35.28,16.64,16.64,0,0,0,2.07.28,7.64,7.64,0,0,0,1.12,0A13.72,13.72,0,0,0,356,33.3a34.68,34.68,0,0,0,4.52-.76c2.11-.54,3-1.2,5.5-2.28l0.18,0.26,0.51-.28c0.31-.16.71-0.41,1.1-0.66a11.87,11.87,0,0,0,1.07-.72l0.47-.35a7.15,7.15,0,0,0,.94-0.41l0.94-.47,1-1c0.45-.52.86-1.09,0.86-1.09A4,4,0,0,1,371.45,27l0.57-.56c0.19-.2.35-0.43,0.54-0.65a8.36,8.36,0,0,0,1-1.46,11.06,11.06,0,0,0,.7-1.65,14.72,14.72,0,0,0,.28-1.67c0-.53,0-1,0-1.49l-0.17-1.17c-0.09-.66-0.24-1.1-0.21-1.14a8.22,8.22,0,0,0-.82-1.45,8.43,8.43,0,0,0-2.66-2.51,5.84,5.84,0,0,0-2-.7,4.65,4.65,0,0,0-1.94.15c-0.27.1-.51,0.2-0.72,0.29l-0.51.31a2.49,2.49,0,0,0-.41.33,2.72,2.72,0,0,1,1.18-.87,4.54,4.54,0,0,1,2.49-.36,5,5,0,0,0-2,.16,5.51,5.51,0,0,0-1,.43,7.63,7.63,0,0,1-.71.35,1.31,1.31,0,0,0-.59.41,4.26,4.26,0,0,0-1.11,2.58c0.19-.75.12,0.44,0.19,0.56a7.84,7.84,0,0,0,1.61,5.43,12.28,12.28,0,0,0,5.37,3.94l-0.81-.13a16.2,16.2,0,0,0,11.3.78,17.93,17.93,0,0,0,5.43-2.52c0.41-.31.83-0.6,1.22-0.93l1.13-1a9.12,9.12,0,0,0,1.89-2.72,5.18,5.18,0,0,1-1,1.44c-0.24.24-.36,0.29-0.37,0.22s0.43-.8.91-2a5.33,5.33,0,0,0,.33-0.45,4.45,4.45,0,0,0,.29-0.51c0-.94-0.08-0.18-0.23.28-0.08.23-.15,0.39-0.15,0.29a8.32,8.32,0,0,0,.08-1.38,4.42,4.42,0,0,0-.37-1.82c-0.14-.33-0.18-0.47-0.11-0.45a2.69,2.69,0,0,1,1,1.9l0-.22a3.41,3.41,0,0,0-.12-0.56,4.41,4.41,0,0,0-2-2.51,3.52,3.52,0,0,0-.7-0.31c-0.13-.09.11-0.08,0.39,0s0.63,0.25.79,0.3a4.71,4.71,0,0,0-2.26-.76,3.79,3.79,0,0,0-1.67.33A3.84,3.84,0,0,0,384,14.62a5.62,5.62,0,0,0-1.09,2.88,5.81,5.81,0,0,0,.16,2.19l-0.08.21a15.42,15.42,0,0,0,3.7,9.13,16,16,0,0,0,7.52,4.41c0.2-.2,2.64.48,4.54,0.45a21.46,21.46,0,0,0,15.08-3.19c1.62-1.21,1.79-1.46,1.76-1.53s-0.26.05,0.36-.59a2.75,2.75,0,0,0,.86-0.55c0.4-.35.89-0.78,1.28-1.16,0.75-.8,1.23-1.31.33-0.11a19,19,0,0,0,4-7.05,8.12,8.12,0,0,0,.44-2,3.75,3.75,0,0,0-.72-2.67,3.63,3.63,0,0,0-2.94-1.27,4.9,4.9,0,0,0-3.25,1.28c0.95-.73,2.15-0.93,1.58-0.67a5,5,0,0,0-1.21.67,5.43,5.43,0,0,0-.89.87c-0.23.25-.33,0.35-0.34,0.23l0.06-.17a3.67,3.67,0,0,0-.14.37,8,8,0,0,0-.27,1.64c0,0.06,0,0,0,0v-0.1l0-.2-0.07-.4c0-.27-0.1-0.53-0.17-0.79a5,5,0,0,0-.19-0.59,2.27,2.27,0,0,0-.19-0.39,6.93,6.93,0,0,0-3-2.86,5.46,5.46,0,0,0-3.47-.52,4.87,4.87,0,0,0-3,2,6.53,6.53,0,0,0-1.05,3.11,9.48,9.48,0,0,0,.21,2.89,9.92,9.92,0,0,0,.91,2.5,13.65,13.65,0,0,0,1.22,2l-0.26-.36a19.9,19.9,0,0,0,2.59,3.15,18.61,18.61,0,0,0,2.15,1.79c0.63,0.43,1.07.69,1.07,0.69l0.83,0.53a0.9,0.9,0,0,1,.24.16,2.32,2.32,0,0,1-.61-0.25c-0.62-.3-1.36-0.68-0.2.14a16.08,16.08,0,0,0,5.81,1.87,17,17,0,0,0,5.19-.27,17.75,17.75,0,0,0,4.61-1.58,11.14,11.14,0,0,0,4.05-3.36c0.13-.14.28-0.28,0.42-0.44l0.39-.55a6.83,6.83,0,0,0,.7-1.4,4.22,4.22,0,0,0,.06-1.79,8,8,0,0,0-.38-1.52,7.2,7.2,0,0,0-.75-1.54,4.66,4.66,0,0,0-1.46-1.48A3.23,3.23,0,0,0,427.8,18a3.61,3.61,0,0,0-1.26.58A2.83,2.83,0,0,0,426,19a3.1,3.1,0,0,0-.36.62,4.45,4.45,0,0,0-.26,1.29,8.17,8.17,0,0,0,0,1,12.07,12.07,0,0,0,.25,1.8,12.73,12.73,0,0,0,1.19,3.4,8.45,8.45,0,0,0,.5.82,6.48,6.48,0,0,0,.64.76,7,7,0,0,0,1.48,1.16,9.83,9.83,0,0,0,6.2,1.15l-0.51-.1c1-.24,1.66-0.44,2.21-0.59a7.33,7.33,0,0,0,1.72-.68c-0.24,0-2.11.88-1,.24a13.21,13.21,0,0,0,4.77-4.29,11.28,11.28,0,0,0,1.54-2.94,5.78,5.78,0,0,0,.29-1.83,4.33,4.33,0,0,0-.47-2,4.28,4.28,0,0,0-1.33-1.56,3.57,3.57,0,0,0-2.1-.68,3.44,3.44,0,0,0-2.13.72A4.36,4.36,0,0,0,437.41,19a6.86,6.86,0,0,0-.54,3.62,10,10,0,0,0,.41,1.7,12.33,12.33,0,0,0,.6,1.57A14.69,14.69,0,0,0,442,31a19.09,19.09,0,0,0,5.71,3.18,19.79,19.79,0,0,0,6.43,1.14,22,22,0,0,0,6.4-1,13,13,0,0,0,3-1.31A11.84,11.84,0,0,0,465,32c0.82-.71,1.91-1.33,5-3.58l-0.74.81c-0.36.42-.77,0.8-0.77,0.8a37,37,0,0,0,5.1-4.88,35.09,35.09,0,0,0,2.21-2.79,12.18,12.18,0,0,0,1.75-3.4,7.35,7.35,0,0,0,.32-2.06,6.06,6.06,0,0,0-.4-2.14,5.45,5.45,0,0,0-3-3.17,4.7,4.7,0,0,0-1.16-.28,3.9,3.9,0,0,0-1.29.09,4.42,4.42,0,0,0-2.07,1.2,4.14,4.14,0,0,0-1.16,2.14,3.19,3.19,0,0,0,.7,2.67l2.09-1.5A20.81,20.81,0,0,0,469,12.29a9.24,9.24,0,0,0-1.85-1.53,7.07,7.07,0,0,0-2.29-.91,4.62,4.62,0,0,1,2.11.65,6.51,6.51,0,0,0-2.78-1.05,5.64,5.64,0,0,0-3.8.76,4.82,4.82,0,0,0-2,2.74,2.81,2.81,0,0,0-.14,1.38,3.83,3.83,0,0,1-.1,1.26s-0.15-.05-0.07.65a8,8,0,0,0,2.4,4.2c1.08,1.08,2.07,1.84,2.49,2.38a4.54,4.54,0,0,1-.93-0.7c0.64,0.51,2.06,1.77,3.26,2.68s2.12,1.53,1.57,1a36.87,36.87,0,0,0,10.73,5.57c1.16,0.19,3,.68,4.77.88a8.51,8.51,0,0,0,3.64-.07c-0.16.23,1.85,0.31,4.23-.21a18.33,18.33,0,0,0,3.53-1.18,14.67,14.67,0,0,0,2.6-1.51c-0.37.33,0.18,0,.72-0.3s1-.67.63-0.23a8.68,8.68,0,0,0,1.88-1.82,7.11,7.11,0,0,0,1.07-2c0.43-1.27.19-2.19,0.1-1.78a3.38,3.38,0,0,0-1.2-2.87,3.46,3.46,0,0,0-3.11-.67A4.9,4.9,0,0,0,494.07,21a4.62,4.62,0,0,0-1.19,2.37,4,4,0,0,0,0,1.35,5.21,5.21,0,0,0,.33,1.12,6.87,6.87,0,0,0,1.09,1.78,21.44,21.44,0,0,0,2.37,2.26,14.94,14.94,0,0,0,1.72.82l1.73,0.6a15.11,15.11,0,0,0,1.75.45l0.87,0.2,0.88,0.12a23.76,23.76,0,0,0,6.91,0A25.45,25.45,0,0,0,517,30.33a24.81,24.81,0,0,0,5.69-3.19,3.14,3.14,0,0,1-1.23,1.08c-0.38.25-.81,0.56-1.3,0.82l-1.53.79c-2.1,1-4.27,1.58-4,1.77a25.43,25.43,0,0,0,9.3-5.15c0.6-.55,1.18-1.12,1.76-1.71s1.12-1.24,1.62-1.95a20.22,20.22,0,0,0,1.48-2.25c0.23-.41.47-0.81,0.7-1.26a10.93,10.93,0,0,0,.59-1.45c0.32-1.08.29-.77,0.16-0.07a11,11,0,0,1-.69,2,10,10,0,0,0,1-3.13,5.17,5.17,0,0,0-.63-3.56,4.1,4.1,0,0,0-3.25-1.87,5.71,5.71,0,0,0-3.32.9,5.3,5.3,0,0,0-2.19,2.62,6.82,6.82,0,0,0-.38,3.18,12.28,12.28,0,0,0,2.1,5.36A7.23,7.23,0,0,1,522,22c0.33,0.67.77,1.39,1.1,1.95a1.31,1.31,0,0,0,.69.75s-0.85-1.13-.83-1.15c-0.45-1.09.37,0.12,1.51,1.43a16.59,16.59,0,0,0,2.84,2.64c-1.06-.62.14,0.68,1.38,1.72s2.41,1.88.6,1.08c0.78,0.55,1.88,1,1.76.83,1.18,0.75,1.57,1,.22.47l1.47,0.74,1.06,0.43a11.84,11.84,0,0,0,1.35.44c0.37,0.11.72,0.22,1.27,0.35l1,0.28,1.43,0.34a10.14,10.14,0,0,1-1.47-.09,35.35,35.35,0,0,0,3.74.46,33.74,33.74,0,0,0,4.91,0c-0.23.07,0.24,0.15-.94,0.21a20.68,20.68,0,0,0,4.7-.82c0.73-.18,1.42-0.48,2.12-0.71s1.36-.55,2-0.91a29.07,29.07,0,0,0,7.74-5.62c-0.58,1-.13.52,0.54-0.17a13.13,13.13,0,0,1,1.72-1.75l0.34-.53a11.92,11.92,0,0,0,.71-1.2,17.24,17.24,0,0,0,.9-1.83s-0.21.36-.44,0.7-0.47.66-.47,0.66a9.28,9.28,0,0,0,1.44-4.91,5.07,5.07,0,0,0-2.5-4.23,4.34,4.34,0,0,1,1.23.84,4.93,4.93,0,0,1,.89,1.18,4.59,4.59,0,0,0-.64-1,4.26,4.26,0,0,0-2.18-1.43,4,4,0,0,0-2.62.23,3.8,3.8,0,0,0-1,.62,3.5,3.5,0,0,1,.55-0.36,4,4,0,0,1,1.4-.46,4.09,4.09,0,0,1,1.46.09,3.51,3.51,0,0,1,.63.23,2.91,2.91,0,0,0-1.12-.19,1.94,1.94,0,0,0-.55.07c-0.22.08-.2,0.13-0.21,0.17a0.75,0.75,0,0,1-.41.17,4.05,4.05,0,0,0-1.84,1.09,5.46,5.46,0,0,0-1.28,1.7,18,18,0,0,0-.76,1.67h0c0,0.06,0,.14,0,0.07a6.59,6.59,0,0,0-.38-2,9.58,9.58,0,0,0-.42-1,8.5,8.5,0,0,0-.78-1.28c-0.34-.62.68,0.18,0.46-0.23a10.66,10.66,0,0,0-1.7-1.38,7,7,0,0,0-3-1,5.51,5.51,0,0,0-3.17.58,4,4,0,0,0-1.69,1.72A2.57,2.57,0,0,0,547,13c0-.1-0.08-0.1-0.18,0a5.49,5.49,0,0,0-.36.71c-0.14.37-.24,0.74-0.24,0.74a9.72,9.72,0,0,0-.5,1.5c-0.06.23-.11,0.23-0.18,0.08a5.14,5.14,0,0,0,.1,2c0.06,0.17.09,0,.13-0.15s0.07-.26.12,0a14.89,14.89,0,0,0,.58,2.35,7.47,7.47,0,0,1-.46-1.1A10.88,10.88,0,0,0,547.92,23a19,19,0,0,0,2.88,3,23.88,23.88,0,0,0,6.9,4c0.68,0.42-.44.11-1.48-0.34s-2-1-1.3-.4a22.59,22.59,0,0,0,11.43,2.23,20.67,20.67,0,0,0,5.72-1.15,15,15,0,0,0,5-2.75s-0.27.22-.55,0.43a6.19,6.19,0,0,1-.57.39c0.27-.51,1.41-1.26,2.59-2.52a15.24,15.24,0,0,0,3-4.71c-0.35.83-.26,1.2-0.2,1l0.43-.84a10.13,10.13,0,0,0,.39-0.94,8.12,8.12,0,0,0,.43-2,5.59,5.59,0,0,0-.27-2.24,3.56,3.56,0,0,0-4.14-2.37,4.71,4.71,0,0,0-2.33,1.25,4.58,4.58,0,0,0-1.3,2.46,6.79,6.79,0,0,0,.12,2.87s-0.09-.23-0.16-0.47-0.13-.48-0.13-0.48a10.93,10.93,0,0,0,2,5.2,16.19,16.19,0,0,0,4,4.09c0.86,0.47,2.49,1.34,1.6.63a13.38,13.38,0,0,0,6.93,2.22,15.59,15.59,0,0,0,6.9-1.4,16.1,16.1,0,0,0,5.45-4,8.88,8.88,0,0,0,1.71-3,4.62,4.62,0,0,0-.12-3.57c0.71,1.07.61,2.82,0.65,1.83l0-.37a4,4,0,0,0-.26-1,3.78,3.78,0,0,0-2.14-2.11,4.62,4.62,0,0,0-2.88-.06,5.4,5.4,0,0,0-.87.32,2.21,2.21,0,0,0-.31.15,7.32,7.32,0,0,0,1-.2,4.47,4.47,0,0,1,1.72-.11,6.36,6.36,0,0,0-2.07.58,6,6,0,0,0-2.15,1.7c0.5-.67.83-0.94,0.9-1.06s-0.08-.08-0.34.1a4.52,4.52,0,0,0-1.71,2.11c0.15-.24.06,0.31,0.17,0.2a4.07,4.07,0,0,0-.26,1.9,1.45,1.45,0,0,0,.24.62,4.43,4.43,0,0,1,.39.83,15.27,15.27,0,0,0,1.14,2.34l-0.26-.17a17.49,17.49,0,0,0,4.32,4c0.28,0.37-.16.09-0.71-0.27a5.69,5.69,0,0,0-1.27-.83c2.32,2,5.14,2.91,7.58,4a22.17,22.17,0,0,1-4-1.62,14.21,14.21,0,0,0,2.64,1.54,21.83,21.83,0,0,0,2.35.83l-0.21-.07a21.72,21.72,0,0,0,2.49.64c0.63,0.14,1.27.21,1.75,0.29l0.8,0.08-0.65-.09c-0.33,0-.65-0.11-0.65-0.11,1.92-.14,3.82-0.16,5.87-0.47a16.45,16.45,0,0,0,6.38-2.24c-2.1,1.24-2.33,1.28-2,1.22s1.23-.42,1.12-0.21c1.24-.43,3-1.37,2.57-1,1-.75,1.85-1.27,2.76-2a12.45,12.45,0,0,0,2.87-3,8.52,8.52,0,0,0,.86-1c0.34-.45.65-0.82,0.6-0.52,1.67-2.74-.54.55-0.52,0.23a31.22,31.22,0,0,0,1.92-3.47,7.17,7.17,0,0,0,.61-4.68,3.83,3.83,0,0,0-1.68-2.24,4.49,4.49,0,0,0-2.79-.6,5.73,5.73,0,0,0-2.66.94,7.19,7.19,0,0,0-1.93,2,17.85,17.85,0,0,0-1.66,3L623.23,22a5.06,5.06,0,0,0,.37-4.35,5.56,5.56,0,0,0-1.12-1.89,4.8,4.8,0,0,0-2.28-1.43c-0.42-.19-0.56-0.21-0.49-0.25a1.42,1.42,0,0,1,.63,0,3.71,3.71,0,0,1,.94.33,2.94,2.94,0,0,1,.46.26,5.15,5.15,0,0,0-4.1-1,5.69,5.69,0,0,0-3.54,2.05c0.35-.49-0.18-0.16-0.77.63a3.71,3.71,0,0,0-.47,2.1c0,0.25,0,.52.05,0.93a9.21,9.21,0,0,0,.3,1.68,4.73,4.73,0,0,1-.74-2.35,7.45,7.45,0,0,0,1.28,4.09,15.33,15.33,0,0,0,2.73,3.13c0.41,0.65-1.42-1-2.08-1.77a16.28,16.28,0,0,0,1.82,2c0.71,0.64,1.44,1.2,2.12,1.73a17.24,17.24,0,0,0,3.07,2s-0.39-.31-0.76-0.63l-0.75-.65c0.89,0.68.3,0.55-.37,0.07-2.19-1.49-2.87-2.52-2.91-2.71,0,0,.38.33,0.76,0.63l0.76,0.6c-0.57-.87-2.14-2.06-3.46-3.84a9.08,9.08,0,0,1-1.56-3.05,5.14,5.14,0,0,1,.18-3.33l0,0.28a2.86,2.86,0,0,0,0,.6,3,3,0,0,0,0,.58l0,0.26a4.94,4.94,0,0,1,.35-2,4.71,4.71,0,0,1,.73-1.22c0.26-.3.45-0.48,0.45-0.48a1.24,1.24,0,0,1,.8-0.28,3.53,3.53,0,0,1-.91.92,6.67,6.67,0,0,1,1.3-.84,9,9,0,0,1,.87-0.39,3.65,3.65,0,0,1,2.2-.19c0.25,0.06.13,0.07-.1,0.06a4.53,4.53,0,0,1,1.28.2,4.63,4.63,0,0,1,1.18.57c-0.23-.12-0.19,0-0.24,0a2.49,2.49,0,0,1-.87-0.39,5,5,0,0,1,2.77,3.63,4,4,0,0,1-.57,3.14l0.54,0.33a6.62,6.62,0,0,1,.58-0.85l-0.17.37A20,20,0,0,1,625,18.78c0.26-.36.25-0.41,0.19-0.43s-0.15,0,0-.23a2.83,2.83,0,0,1,.41-0.54,4.65,4.65,0,0,1,1.16-.92,5.59,5.59,0,0,1,1.76-.13,4,4,0,0,1,1.11.27,2.42,2.42,0,0,1,.44.21,3.65,3.65,0,0,1,.67-0.07,2.7,2.7,0,0,1,.88.77c0.22,0.3.28,0.56,0.18,0.48a4.55,4.55,0,0,1,.43.86c0,0.09,0,0,0-.11s-0.1-.62.18,0.09a9.44,9.44,0,0,1-1.66,5.61,8.26,8.26,0,0,1-2.61,3.05c-0.62,1.07,2.26-2.29,0,.51A10.08,10.08,0,0,0,626,30a13.37,13.37,0,0,1-3.63,2.41c0.72-.67,3.2-2.06.5-0.7a8.94,8.94,0,0,1-3.54,1.73,30.74,30.74,0,0,1-4.4.82c0,0.18-1.42.43-3.34,0.33a24.51,24.51,0,0,1-6.38-1.22,38.52,38.52,0,0,1-3.93-2.05,19,19,0,0,1-3.12-2.47A11,11,0,0,1,596,26l0.11,0.07a4.27,4.27,0,0,1-1.2-2.67,4.37,4.37,0,0,1,.28-2.2,4.46,4.46,0,0,1,1.41-1.71,0.88,0.88,0,0,1-.26.53,5,5,0,0,0-.77,1.26,3.36,3.36,0,0,1,.69-1,5.16,5.16,0,0,1,1-.74,3,3,0,0,1,1-.57,3.32,3.32,0,0,1,1.85-.18,3.91,3.91,0,0,0-.62.2,2.42,2.42,0,0,1,1.91.89,2.83,2.83,0,0,1,.5,2.3,7.88,7.88,0,0,1-3.62,4.92,2.72,2.72,0,0,0,1.21-.36c0.19-.06.27,0,0.06,0.27a7.86,7.86,0,0,1-1.82,1.55c-0.25,0-.5-0.1.57-0.91A9.32,9.32,0,0,1,596.22,29s0.44-.28.85-0.59l0.56-.43,0.24-.21a8.73,8.73,0,0,0-1.36.87,2.93,2.93,0,0,1-1.12.66c0-.18-1.27.33-1.08,0.09a10.1,10.1,0,0,0,2-.86,13,13,0,0,1-2.81,1,8.8,8.8,0,0,1-2.08.24c0.18,0.07,0,.31-1.38.43a8.88,8.88,0,0,1-1.79-.06,0.94,0.94,0,0,1-.48-0.14c-0.11-.1,0-0.14-1.07-0.38a7.76,7.76,0,0,1-1.88-.41,2.74,2.74,0,0,0-1.32-.29,4.09,4.09,0,0,1-1.4-1,13.58,13.58,0,0,1-3.76-3c-1.12-1.28-1.72-2.35-1.31-1.34l0.25,0.43-0.18-.26h0a9.84,9.84,0,0,1-1.88-4.37,4.16,4.16,0,0,1,1.58-4.16,3.41,3.41,0,0,1,2.13-.65,2.47,2.47,0,0,1,1.83,1c0.84,1.17.66,2.9,0.23,4.32l-0.09,0a17.86,17.86,0,0,1-1.2,2.65,18.51,18.51,0,0,1-1.6,2.52,14.35,14.35,0,0,1-3.74,3.42c-1,.55-2.48.88-2.07,0.61l-1.67.59-1.37.35a15.86,15.86,0,0,1-4.13.26c1.44-.06,1.18-0.16,1.07-0.15s-0.09.06,1.86-.14a19.78,19.78,0,0,1-2.33.1c-0.66,0-1.23-.05-1.81-0.11a39.87,39.87,0,0,1-4.31-.59c0.7,0,0-.17-1-0.57a33.23,33.23,0,0,1-3.14-1.32l0.34,0.21c0.21,0.12.48,0.31,0.77,0.44l1.16,0.58a18.74,18.74,0,0,1-4.8-2.56s1,0.27,1,.25A26.42,26.42,0,0,1,550,22.94L549.17,22a11.31,11.31,0,0,1-.67-1,10.6,10.6,0,0,1-1-2.06,5.81,5.81,0,0,1-.11-4.1A3.14,3.14,0,0,1,550.28,13c0.83-.18-0.06-0.25-0.92,0s-1.54,1-1,.34a4.14,4.14,0,0,1,4.25-.31,5.4,5.4,0,0,1,2.1,1.75,6.42,6.42,0,0,1,.4.59c0.05,0.1.12,0.19,0.16,0.28l0.08,0.14a2.85,2.85,0,0,1,.14.28,7.09,7.09,0,0,1,.56,2.48,2.37,2.37,0,0,1,1,.48,0.81,0.81,0,0,1,.23.56c0,0.09,0,0,.05-0.06l0.07-.15c0.06-.1.12-0.22,0.21-0.34a2.29,2.29,0,0,1,.95-0.8l0.3-.77,0.39-.77c-0.27.43-.53,0.67-0.43,0.22a4,4,0,0,1,.46-1.1,4.18,4.18,0,0,1,1.4-1.48,2.73,2.73,0,0,1,2-.26,1.67,1.67,0,0,1,.85.49c0.2,0.31-.12.13-0.94,0-0.66-.07-1,0-0.95,0a2.4,2.4,0,0,0-1.07.64c-0.2.21-.18,0.24,0.3,0,0,0,.23-0.3.24-0.29a2.57,2.57,0,0,1,1.28-.18,2.23,2.23,0,0,1,1.34.62c0.72,0.7.85,1.49,0.6,1.1,0.44,0.9.38,1.17,0.43,0.92a2.89,2.89,0,0,0-.54-1.61c1,1.55.6,3.2,0,4.72A17.43,17.43,0,0,1,561,25.21c0.52-.5,1-1,0.59-0.38-2.23,2.51-2.93,2.85-3.2,3.26a3.9,3.9,0,0,1-.55.59A11.83,11.83,0,0,1,556,30c-1.17.6-1,.35-1.08,0.31s-0.26.12-2.33,1.12c-2.66.89-.65-0.07,0.31-0.59a16.3,16.3,0,0,1-5.41,1.65,22.26,22.26,0,0,1-4.31.11h0.33a6.21,6.21,0,0,0,.73,0l1.06-.09a17,17,0,0,1-3.37,0,5.64,5.64,0,0,0,.6.17l0.61,0.14a7.54,7.54,0,0,1-2.29-.33c-1.32-.07.95,0.58-1.69,0.33-0.41-.14-0.94-0.26-1.51-0.41S536.53,32,536,31.82a6.59,6.59,0,0,1-2.23-1.14,12.08,12.08,0,0,0,2.07.89c0.26,0.07.18,0,.08-0.1s-0.22-.2-0.05-0.18,0.62,0.17,1.7.48a14.52,14.52,0,0,1-3-1.13c-0.16-.11.19,0,0.51,0.14a31.85,31.85,0,0,0-3.32-1.68,5.31,5.31,0,0,1-1.08-.5A12.12,12.12,0,0,1,528.49,27c0.62,0.31-.69-1.06-1.26-1.69,1.45,1.52.46,1-.95-0.41L525.6,24l-0.51-.75c-0.32-.43-0.52-0.79-0.73-1.09a8.6,8.6,0,0,1-1-1.85s0.17,0.47.38,0.93,0.47,0.91.47,0.91a5.44,5.44,0,0,1-.95-1.49,9.49,9.49,0,0,1-.85-2.85,2.18,2.18,0,0,1,.24.84c0.11,0.43.22,0.79,0.14,0.38a4.51,4.51,0,0,1,.27-4,4.31,4.31,0,0,1,3.84-1.79c0.63,0.22.56,0.37,0.54,0.43s0,0.11.26,0.43a1.92,1.92,0,0,1,.64,1.52,4.59,4.59,0,0,1-.3,1.5,9.61,9.61,0,0,1-.73,1.54c-0.18.29-.36,0.62-0.56,1a9.64,9.64,0,0,1-.74,1.21c0.9-.86,1-1.06-0.62,1.5a7.07,7.07,0,0,0,.66-0.89l0.65-.94c0.23-.35.41-0.75,0.63-1.14a9,9,0,0,0,.92-2.15,6,6,0,0,0,.19-1,5.36,5.36,0,0,1-.06.64,8.28,8.28,0,0,1-.37,1.44c-0.17.52-.47,1-0.63,1.43l-0.31.66a13.3,13.3,0,0,0,1.37-2.9,6,6,0,0,0,.25-2.32,6.09,6.09,0,0,1,.1,1.5A1.28,1.28,0,0,0,529,16a14.47,14.47,0,0,1-1.61,4.08,15.17,15.17,0,0,1-1.26,2,14.47,14.47,0,0,1-1.72,1.85l-0.35-.5a30.68,30.68,0,0,1-5.9,4.21,20.69,20.69,0,0,1-8.07,2.48l1.08-.08a5.5,5.5,0,0,0,.74-0.09l0.33-.05a9,9,0,0,1-2.64.52,36.4,36.4,0,0,1-3.65,0c0.11-.09-0.18-0.18-0.6-0.26L504,29.78a1.86,1.86,0,0,1-.72,0l-1.69-.4a18.84,18.84,0,0,0-2.91-.79,12.09,12.09,0,0,1-1.2-.83,8,8,0,0,1-1-1A4.64,4.64,0,0,1,495,24.41a2.32,2.32,0,0,1,.33-1.77,3,3,0,0,1,1.56-1.31,1.78,1.78,0,0,1,1.16,0,1.75,1.75,0,0,1,1,1c-0.39-.51-0.4-0.28-0.47-0.27a0.38,0.38,0,0,1-.27-0.12,1.53,1.53,0,0,0-1-.22,1.27,1.27,0,0,1,.68.17,1.52,1.52,0,0,1,.44.43,4.26,4.26,0,0,0,.29.56,4.49,4.49,0,0,1-.73,2.33,5.45,5.45,0,0,1-1.13,1.32,6.77,6.77,0,0,1-1.25.86c-0.28.23-.43,0.44-0.75,0.68a6.86,6.86,0,0,1-1.67,1c-0.22,0,0-.09,0-0.09a7.68,7.68,0,0,1-1.19.6c-0.51.22-.82,0.39,0,0.22a28.71,28.71,0,0,1-10.14.65,22,22,0,0,1-9.07-3.25,44.42,44.42,0,0,1-9.8-7,1,1,0,0,1,.55.4l-2.76-2.76a4.38,4.38,0,0,1-.83-1.22,4.19,4.19,0,0,1-.2-2.78c0.25-.62.4-0.71,0.38-0.61s-0.14.44-.19,0.82c-0.13.77,0,1.68,0,.88a4.63,4.63,0,0,0,.43-1.16,3.07,3.07,0,0,1,1.17-1.63,3.56,3.56,0,0,1,2.55-.45,4.33,4.33,0,0,1,2.38,1.21l-0.33-.22-0.33-.19A15.74,15.74,0,0,1,469.72,17l1.41-1a1.18,1.18,0,0,1-.08-1.42,2.33,2.33,0,0,1,1.56-1.19s-0.14.1,0,.1a2.26,2.26,0,0,1,2.06.48,4,4,0,0,1,1.42,2.68,6.27,6.27,0,0,1-.81,3.4,18.16,18.16,0,0,1-2,2.94c0.69-1.24,1.13-1.68.42-1.17-0.59.79-.44,0.74-0.41,0.89s-0.08.52-1.42,2c-1,.89-3.21,2.72-3.71,2.7,0,0,.73-0.59,1.41-1.22s1.34-1.3,1.34-1.3c-1.56,1.13-3.56,3.26-5.27,4.26l0.12-.27c-1.17.79-2.1,1.32-2.88,1.75s-1.44.75-2.12,1.07a17.6,17.6,0,0,1-2.32.84,15.63,15.63,0,0,1-3.58.58l0.64,0.09a7.4,7.4,0,0,1-3.08.06c-0.7-.15-1.38-0.27-3-0.55,0,0-.87-0.65-0.85-0.67A17.56,17.56,0,0,1,443.84,30a13.34,13.34,0,0,1-4.42-4.67,16.5,16.5,0,0,0,3.08,3.4,15.69,15.69,0,0,0,4.31,2.5A17.14,17.14,0,0,1,443,28.87a21.2,21.2,0,0,1-2.62-2.71c0.26,0.34.57,0.71,0.88,1.08s0.65,0.71.93,1a10.39,10.39,0,0,1-2.87-3.53l-0.29-.6-0.22-.65a5.24,5.24,0,0,1-.33-1.36,4.88,4.88,0,0,1,.58-2.89c0.09,0.28.41-.29,1.13-0.59a1.74,1.74,0,0,1,1.32,0A2.32,2.32,0,0,1,442.61,20a3.18,3.18,0,0,1-.09,2.06,8.26,8.26,0,0,1-1.1,2,8.1,8.1,0,0,1-2.53,2.45,7.56,7.56,0,0,1-4.73,2.05,5.71,5.71,0,0,1-4.61-1.8,7,7,0,0,1-1.13-2.39,10.83,10.83,0,0,1-.45-2.82,4,4,0,0,1,0-.64,0.58,0.58,0,0,1,.07-0.25,0.68,0.68,0,0,1,.49-0.21,0.74,0.74,0,0,1,.62.27,3.72,3.72,0,0,1,.72,1,1.27,1.27,0,0,1-.17-0.81,2.24,2.24,0,0,1,.47.71c0.41,0.8.6,2,.86,1.68a2.33,2.33,0,0,1,0,.84l-0.28.75c-0.11.2-.21,0.36-0.28,0.49a1.41,1.41,0,0,1-.32.44l-0.17.2a4.25,4.25,0,0,1-.47.5,9.56,9.56,0,0,1-1.67,1.26,8.41,8.41,0,0,1-1,.54,7.78,7.78,0,0,1-.9.41,9.27,9.27,0,0,1-.9.34c-0.71.18-.27,0,0.31-0.29a3.46,3.46,0,0,0,1.13-.7,10.26,10.26,0,0,1-2,.84,2.42,2.42,0,0,1-.73.14,8.24,8.24,0,0,0-1.79.21c0.64,0.07-1.45.78-3.85,0.5,0,0,.2,0,0.52.07a8.91,8.91,0,0,0,1.18.09,15.08,15.08,0,0,0,1.76-.06,8.45,8.45,0,0,1-5.56-.31,22.22,22.22,0,0,1-4.88-2.76L412,27.38l0.84,0.46a15.5,15.5,0,0,1-5.06-5.16,17.11,17.11,0,0,1-1-1.86,9.45,9.45,0,0,1-.55-1.8,8.26,8.26,0,0,1-.09-2.85,1.13,1.13,0,0,1,.37-0.45c0.08,0,0,.09-0.12.62a2.56,2.56,0,0,1,1.2-1.52,2.68,2.68,0,0,1,2-.15,4.51,4.51,0,0,1,2,1.32,4.91,4.91,0,0,1,.39.5l0.19,0.3,0.29,0.57a13.32,13.32,0,0,1,.83,3,1.89,1.89,0,0,1,1,.47,1.52,1.52,0,0,1,.22.27l0.08,0.14,0,0.07s0,0.06,0,0a2.17,2.17,0,0,1,.27-0.7,1.84,1.84,0,0,1,1-.71,6.74,6.74,0,0,1,.76-2.77l0.15-.22,0.08-.1,0.17-.19a2.22,2.22,0,0,1,.33-0.28,2.76,2.76,0,0,1,1.65-.48l-0.21.09-0.2.11a2.45,2.45,0,0,1,1.35,0,0.92,0.92,0,0,1,.59,1c-0.07-.07-0.18-0.35-0.16.06,0.22,0.38-.59,3.55-1.66,5.09l0.33-.74,0.26-.76A20,20,0,0,1,416.67,25c-0.45.61-1,1.09-1.47,1.63s-1,1-1.56,1.39A17.88,17.88,0,0,1,412,29.22a16.44,16.44,0,0,1-1.77,1.08c-0.6.36-1.28,0.61-1.95,0.92a19.18,19.18,0,0,1-2.2.69,1.43,1.43,0,0,0-1-.07l-1.06,0a11.35,11.35,0,0,1-1.29,0,23.73,23.73,0,0,1-2.87-.17c-1-.14-1.9-0.29-2.62-0.46l0.11,0a19.9,19.9,0,0,1-5.67-1.89,11.19,11.19,0,0,1-3.89-3.45,13.22,13.22,0,0,1-2-4.87,11.12,11.12,0,0,1-.23-1.38,10.41,10.41,0,0,1-.14-1.37,3.74,3.74,0,0,1,.63-2.33,1.31,1.31,0,0,1,1.21-.3,2,2,0,0,1,1.24,1.19,2.62,2.62,0,0,1-.31,2.15,8.44,8.44,0,0,1-2,2.33,14.75,14.75,0,0,1-12.48,3.1c0.57,0.17.51,0.25,0.13,0.25A5.76,5.76,0,0,1,372,24.4a15.83,15.83,0,0,1-2.9-1.35c-0.82-.58-1.38-1.07-1.12-1.13a4.87,4.87,0,0,0,.48.42c-0.1-.15-0.24-0.3-0.38-0.49s-0.29-.41-0.47-0.63a6.34,6.34,0,0,1-1-1.55,4.61,4.61,0,0,1-.35-3.64,2.92,2.92,0,0,1-.28-0.57,2.46,2.46,0,0,1,2.15-.7,4.38,4.38,0,0,1,2.4,1.51,6.29,6.29,0,0,1,1.5,2.86l0.19,0.82,0,0.81a2.56,2.56,0,0,1,0,.8,3.57,3.57,0,0,1-.14.78A6.88,6.88,0,0,1,370.59,25a11.88,11.88,0,0,1-2.38,1.9,13.67,13.67,0,0,1-4.33,1.79,44,44,0,0,1-6.08,2l0-.3a18.79,18.79,0,0,1-6.7.25,21.44,21.44,0,0,1-7.26-2.42l1.28,0.43c-1.63-.83-2.71-1.28-3.77-1.79a10.62,10.62,0,0,1-3.31-2.31l-0.39-1.06a19.12,19.12,0,0,1-2.68-4,5.65,5.65,0,0,1-.54-4.09A3,3,0,0,1,337,13.21,4.08,4.08,0,0,1,340.27,15a3,3,0,0,1-.87-0.72,4.87,4.87,0,0,1,1.34,2.4,19.46,19.46,0,0,1,.47,3.84l2.65-.67a2.11,2.11,0,0,1,0-1.63c0.16-.43.26-0.67,0-0.59a2.19,2.19,0,0,0,.75-0.54,3.23,3.23,0,0,1,1.86-.7,4,4,0,0,1,2.54.87,4.86,4.86,0,0,1,1.59,2.13,3.88,3.88,0,0,0-.43-0.34,4.25,4.25,0,0,1,.57,1.42,4.35,4.35,0,0,1,.09,1.25,6.59,6.59,0,0,1-1.46,3.57c-0.66.71-.69,0.51,0.14-0.44a22.86,22.86,0,0,1-2,2.13,9.72,9.72,0,0,1-3,1.89l0.63-.42,0.61-.44c-1.48.82-2.23,1.11-2.76,1.4s-0.89.49-1.76,0.92a19.83,19.83,0,0,1-4,1.13,14.66,14.66,0,0,1-1.9.23,3.09,3.09,0,0,1-1,0,11,11,0,0,1-4.36.51c-0.27-.1.47-0.15,0.84-0.18A25.14,25.14,0,0,1,324,31a10.93,10.93,0,0,1-4.7-2.75,1.41,1.41,0,0,0-.36-0.56,14.24,14.24,0,0,0,4.71,3c1.32,0.51,2.13.69,2,.67a4.76,4.76,0,0,0-1.29-.7c-0.24-.13-0.38-0.25-0.3-0.28a5.77,5.77,0,0,1,1.08.12,13.76,13.76,0,0,1-4.84-2,8.53,8.53,0,0,1-3.5-4.31,2,2,0,0,1,0-.43L316.81,24a9.5,9.5,0,0,1-.39-1.94,5.36,5.36,0,0,1,.2-1.25,4.18,4.18,0,0,1,.48-1,6.45,6.45,0,0,1,1.46-1.09,1.86,1.86,0,0,1,1.12-.13,1.14,1.14,0,0,1,.43.18,1.19,1.19,0,0,1,.25.21c0.1-.11.27,0,0.32,0.13s0.05,0.07.09,0a0.45,0.45,0,0,0,0-.45c0,0.07,0,0-.1-0.06a1.8,1.8,0,0,0-.81-0.46,1.36,1.36,0,0,0-.55,0l0.09,0a3.29,3.29,0,0,0-2.8,2.08,3.33,3.33,0,0,1,1.05-1.61A2.41,2.41,0,0,1,319.7,18a2,2,0,0,1,1.09.26,1,1,0,0,1,.6.68,9,9,0,0,1-2.2,3.89,12.08,12.08,0,0,1-2.39,2.28,19.35,19.35,0,0,1-7.2,5.16,27.36,27.36,0,0,1-7.36,1.46,5.18,5.18,0,0,1-2.39-.5,13.82,13.82,0,0,0,2.49.15,19.42,19.42,0,0,1-5.86-1c-1.95-.64-3.49-1.48-3.91-1.53-1.64-1.19-1.09-1-.76-0.78,0.17,0.08.3,0.15,0.1,0a15,15,0,0,1-1.73-1.39l0.3,0.2,0.31,0.19a7.59,7.59,0,0,1-2-2.87,3.31,3.31,0,0,1-.2-1.43,3.45,3.45,0,0,1,.42-1.33,2.26,2.26,0,0,1,2.07-1.24,3,3,0,0,1,2.27,1.42,4,4,0,0,1,.36,3,7.21,7.21,0,0,1-1.64,3.07A10.52,10.52,0,0,1,284.87,31c0.82-.08,1.23-0.15,1.41-0.14a16.15,16.15,0,0,1-10.12-1.14,31.21,31.21,0,0,1-8.71-6.1c-1.29-1.24-2.6-2.53-3.76-3.86a7.91,7.91,0,0,1-2.15-4.5,4.6,4.6,0,0,1,.46-2.33,3.26,3.26,0,0,1,1.63-1.52,5.13,5.13,0,0,1,4.48.53,8.85,8.85,0,0,1,.95.64l0.39,0.31,0.4,0.34c0.64,0.58,1.15,1.13,1.57,1.56a1.55,1.55,0,0,1,1,.21l0.2,0.13,0.1,0.08c0.06,0.06,0-.05,0-0.07l-0.13-.27a2.6,2.6,0,0,1-.07-0.35V14.45a0.6,0.6,0,0,1,.25-0.33,4.67,4.67,0,0,1,.47-0.78,1.93,1.93,0,0,1,0-.75c0.08-.22.14-0.32,0.18-0.43a4.87,4.87,0,0,1,.39-0.64,5.16,5.16,0,0,1,1.08-1.1,4,4,0,0,1,3.68-.51,5,5,0,0,1,2.64,2.47,7.47,7.47,0,0,1,.78,3.8,9.8,9.8,0,0,1-1.43,4.37s0.18-.16.33-0.33l0.32-.34A16.18,16.18,0,0,1,278,23.76c-1.27,1.13-2.37,1.87-2.26,1.64a4.89,4.89,0,0,1-1.5,1.14l-0.15-.09a25.39,25.39,0,0,1-2.75,1.67c-0.72.37-1.45,0.72-2,.95s-0.94.38-.94,0.38c-2.42.68-2.28,0.39-2.4,0.3a1,1,0,0,0-.74-0.06c-0.55.06-1.53,0.21-3.3,0.33a32.09,32.09,0,0,1-4.65.06c-1.44-.09-2.44-0.24-2-0.06a18.46,18.46,0,0,1,2.8.75,3.1,3.1,0,0,1-.39,0l-0.86-.1c-0.31,0-.62-0.09-0.85-0.13l-0.39-.07c-0.27.19-.92,0.29-0.75,0.56s1.18,0.85,4.43,1.25l0.71,0c0.43,0,1-.05,1.55-0.11,1.12-.11,2.23-0.33,2.23-0.33h0.73c0.37,0,.73,0,0.73,0s-0.94.17-1.88,0.29l-1.3.12-0.6,0a12.48,12.48,0,0,0,5-.77,6.29,6.29,0,0,0,1.89-.25s1-.43,2-0.94l1.33-.74,0.58-.36c0.56-.08-1.62,1.22,1.09,0,1.7-1.19-1.91.6,1-1.19,1-.47,1.33-0.59,1.71-0.8a8.18,8.18,0,0,0,1.7-1.31c0.35-.13,0,0.28-0.77.91a38.83,38.83,0,0,0,3-2.66,9.72,9.72,0,0,0,1.91-2.59,9,9,0,0,0,1.9-4.46c0.23-1.74-.17-3.11.1-3a10,10,0,0,0-1.24-2.5,7.46,7.46,0,0,0-3-2.52c0.51,0.17.76,0.28,0.82,0.28s0-.13-0.31-0.29a5.59,5.59,0,0,0-1.2-.56c-0.27-.09-0.59-0.15-0.92-0.22a7.15,7.15,0,0,0-1,0,7.06,7.06,0,0,0-3.57,1.29c-0.84.6-1.28,1.11-1.2,0.77-0.17.23-.32,0.53-0.5,0.84,0,0.08-.08.17-0.12,0.26l-0.06.13v0.12a1.81,1.81,0,0,0,0,.4,1.2,1.2,0,0,0,.06.21l0,0.11a0.18,0.18,0,0,1,0,0l-0.28-.28-0.19-.18-0.49-.42a9.88,9.88,0,0,0-2-1.26,7,7,0,0,0-4.54-.52,4,4,0,0,1,1.44-.21,6.11,6.11,0,0,0-3.55.88,5.11,5.11,0,0,0-1.95,2.2,14.13,14.13,0,0,0,0,3.27,8.27,8.27,0,0,0,2,4c0.9,1.47.51,1.14-.11,0.56s-1.32-1.57-1.18-1a24.65,24.65,0,0,1,2,2.11c1,1,1.85,1.74,1.56,1.25a21.17,21.17,0,0,1,2.18,2.79c0.66-.06,1.8,1.58,3.71,2.64a15.18,15.18,0,0,1,1.8,1.63A8.56,8.56,0,0,0,274.41,31c0.87,0.51.44,0.4-.21,0.15S272.71,30.5,272.71,30.5Zm42.78-4.79h0a8.94,8.94,0,0,1-.73-2A8.78,8.78,0,0,0,315.49,25.71Zm6,5.74-0.71-.38L320,30.6a12.93,12.93,0,0,1-1.55-1.16c-0.16-.26.15-0.14,0.79,0.39A8.3,8.3,0,0,0,321.49,31.45ZM318.4,18.69c-0.75.44-.94,0.74-1.08,0.77a3.22,3.22,0,0,1,1.26-1l0.09-.07A1.88,1.88,0,0,1,318.4,18.69Z" transform="translate(-12.09 -6.14)"/><path class="cls-1" d="M319.83,18.14a1,1,0,0,1,.33.1A1.78,1.78,0,0,0,319.7,18l-0.32.06A2.22,2.22,0,0,1,319.83,18.14Z" transform="translate(-12.09 -6.14)"/><path class="cls-1" d="M577,23.64L577,23.5a3.12,3.12,0,0,1,.15.31C577.06,23.71,577.07,23.7,577,23.64Z" transform="translate(-12.09 -6.14)"/><polygon class="cls-1" points="354.15 24.44 354.11 24.38 353.47 24.73 354.15 24.44"/><path class="cls-1" d="M594.19,21.37A1.78,1.78,0,0,0,594,22S594,21.69,594.19,21.37Z" transform="translate(-12.09 -6.14)"/><path class="cls-1" d="M606.46,34.73a4.25,4.25,0,0,0,.41.13l0.91,0.25c0.67,0.16,1.35.3,1.35,0.3C608,35.16,607.13,34.93,606.46,34.73Z" transform="translate(-12.09 -6.14)"/><path class="cls-1" d="M621.19,34a0.77,0.77,0,0,0,.22-0.23h0Z" transform="translate(-12.09 -6.14)"/><path class="cls-1" d="M522,22l-0.27-.54C521.13,20.14,521.49,21.05,522,22Z" transform="translate(-12.09 -6.14)"/><path class="cls-1" d="M557.42,18.15a13.23,13.23,0,0,1,.52-1.78A5.59,5.59,0,0,0,557.42,18.15Z" transform="translate(-12.09 -6.14)"/><path class="cls-1" d="M497.67,28.7h0c-0.14.11-.27,0.21-0.41,0.31Z" transform="translate(-12.09 -6.14)"/><path class="cls-1" d="M559.43,14.3a5.72,5.72,0,0,0-.58.56l-0.24.28-0.13.17a4.23,4.23,0,0,0-.4.71l-0.15.35,0.15-.31a6.77,6.77,0,0,1,.47-0.75c0.06-.1.23-0.3,0.38-0.49S559.27,14.47,559.43,14.3Z" transform="translate(-12.09 -6.14)"/><path class="cls-1" d="M619,28.71l0.55,0.45s0,0,.1,0Z" transform="translate(-12.09 -6.14)"/><path class="cls-1" d="M619.64,29.18l0.65,0.46A5.7,5.7,0,0,0,619.64,29.18Z" transform="translate(-12.09 -6.14)"/><path class="cls-1" d="M621.67,30.57l-0.7-.46-0.69-.47A8.15,8.15,0,0,0,621.67,30.57Z" transform="translate(-12.09 -6.14)"/><path class="cls-1" d="M618.28,13.24l0.25-.11A0.33,0.33,0,0,0,618.28,13.24Z" transform="translate(-12.09 -6.14)"/><path class="cls-1" d="M623.79,16.45A6.09,6.09,0,0,0,622,14.13,5.24,5.24,0,0,0,618.74,13l-0.21.08a4.78,4.78,0,0,1,3,.78A7.21,7.21,0,0,1,623.79,16.45Z" transform="translate(-12.09 -6.14)"/><path class="cls-1" d="M630.55,24.36s0.17-.25.38-0.65a10.7,10.7,0,0,0,.72-1.46,8,8,0,0,0,.44-1.53,5,5,0,0,0,.08-0.71,3,3,0,0,1-.28.93c-0.1.09,0-.18,0-1.15a7.79,7.79,0,0,1-.5,2.18c-0.08.23,0,.12,0.1,0s0.18-.22.13,0.07A7.84,7.84,0,0,1,630.55,24.36Z" transform="translate(-12.09 -6.14)"/><path class="cls-1" d="M619.1,33.27c2.39-.91-0.08-0.13,0-0.25C617.63,33.59,617.25,33.71,619.1,33.27Z" transform="translate(-12.09 -6.14)"/><path class="cls-1" d="M571.24,29.31L571.4,29C569.56,29.61,571.41,29.09,571.24,29.31Z" transform="translate(-12.09 -6.14)"/><path class="cls-1" d="M551.14,26.57l0.23,0.22,0.54,0.46,0.54,0.46,0.25,0.2,1,0.3L553.25,28a8.81,8.81,0,0,1-.88-0.55l-0.86-.59A2.94,2.94,0,0,1,551.14,26.57Z" transform="translate(-12.09 -6.14)"/><path class="cls-1" d="M547.52,15.68l0,0.35a3.55,3.55,0,0,0,0,.36,4.39,4.39,0,0,1,.24-1.3,3.1,3.1,0,0,1,.66-1.06l-0.2.21a4.3,4.3,0,0,0-.33.54,2.7,2.7,0,0,0-.23.61A1.41,1.41,0,0,0,547.52,15.68Z" transform="translate(-12.09 -6.14)"/><path class="cls-1" d="M476.72,28.58l0.45,0.5C478.47,29.42,478.82,29.19,476.72,28.58Z" transform="translate(-12.09 -6.14)"/><path class="cls-1" d="M455.54,33c-0.42-.06-1.16,0-2-0.12s-1.65-.13-2.31-0.14A16.09,16.09,0,0,0,455.54,33Z" transform="translate(-12.09 -6.14)"/><path class="cls-1" d="M368.56,15a2.41,2.41,0,0,0-.52,0,1.59,1.59,0,0,0-.46.09,0.8,0.8,0,0,1,.27,0,0.9,0.9,0,0,1,.29,0,1.22,1.22,0,0,1,.35,0,3.71,3.71,0,0,1,1,.41l-0.14-.1L369,15.21A3.09,3.09,0,0,0,368.56,15Z" transform="translate(-12.09 -6.14)"/></svg>