<svg id="Layer_2" data-name="Layer 2" xmlns="http://www.w3.org/2000/svg" xmlns:xlink="http://www.w3.org/1999/xlink" viewBox="0 0 571.6 77.79"><defs><style>.cls-1{fill:none;}.cls-2{clip-path:url(#clip-path);}.cls-3{fill:#eaa4c1;}.cls-4{fill:#fff;}.cls-5{fill:#69b94c;}.cls-6{fill:#644130;}.cls-7{fill:#ed6098;}.cls-8{fill:#e8247f;}.cls-9{fill:#c5b5d8;}.cls-10{fill:#faefcf;}.cls-11{fill:#addbe1;}</style><clipPath id="clip-path" transform="translate(10.9 0.04)"><path id="bgMask" class="cls-1" d="M542.66,41.66c-4.1-.27-10.08-0.91-17.65-2s-16.72-2.4-27.22-3.76-22.38-2.53-35.28-3.25a264.47,264.47,0,0,0-41.74.7c-1.84.17-3.68,0.4-5.53,0.65s-3.74.53-5.63,0.84c-3.73.59-7.55,1.35-11.38,2.13-7.68,1.55-15.53,3.34-23.61,4.73A130,130,0,0,1,349.69,44a109.41,109.41,0,0,1-12.74-1c-4.22-.63-8.42-1.34-12.66-1.93q-12.71-1.87-25.63-3.22l-3.22-.29c-1.09-.09-2.17-0.18-3.19-0.23a49.67,49.67,0,0,0-6.34.18,124.24,124.24,0,0,0-12.76,1.9c-8.5,1.64-16.93,3.77-25.44,5.64-4.26.92-8.51,1.8-12.92,2.34a128.16,128.16,0,0,1-13,.76,120.59,120.59,0,0,1-13-.61,124.29,124.29,0,0,1-12.68-2A236.06,236.06,0,0,1,172,38.56c-7.76-2.53-15.34-5-22.89-6.65a120.59,120.59,0,0,0-22.38-3c-14.77-.54-28.67,1.92-41.45,4.41S60.74,38.42,50.21,40a239.21,239.21,0,0,1-27.46,2.51c-7.65.18-13.66,0-17.76-.18-2,0-3.6-.2-4.66-0.2L0,42V77.75H547.77V41.87h-0.4C546.3,41.87,544.72,41.79,542.66,41.66Z"/></clipPath></defs><title>Border</title><g class="cls-2"><path class="cls-3" d="M558.67,26.55c-0.87.21-1.65,0.62-2.46-.14a1.43,1.43,0,0,0-.75.07l-3.78.49-0.32-1c-1-.15-0.39.66-0.72,0.95-0.33-.07-0.67-0.17-1-0.22-1.54-.21-1.68-0.12-2.41,1.31a0.81,0.81,0,0,1-.34.12l-0.21-1a2.51,2.51,0,0,0-1.32-.09c-0.72.73-1.46,0.13-2.17,0.22a7.37,7.37,0,0,1-1.52,0c-1.62-.13-3.38.56-4.81-0.79a1.3,1.3,0,0,0-.41.12,24.71,24.71,0,0,1-3.19.57c-2.19.13-4.4,0.1-6.59,0.17s-4.39.21-6.58,0.28c-3.57.11-7.15-.9-10.72-0.8-0.61,0-1.21.18-1.82,0.18-1.82,0-3.63-.09-5.45,0s-3.44.24-5.16,0.31c-1.31.05-2.62,0-3.93,0s-2.74,0-4.11-.09-2.46.21-3.72,0.16a86.13,86.13,0,0,0-8.74.11c-1.8.11-3.63-.61-5.39,0.25a0.17,0.17,0,0,1-.15,0c-1-1-2.07,0-3.08-.05a15.18,15.18,0,0,1-4.67-.36,2,2,0,0,0-.91.12c-0.88.23-1.76,0.48-2.67,0.73l0.15-1a5,5,0,0,1-1.79.55c-1.5-.2-3-0.61-4.45-0.89a1.6,1.6,0,0,0-1,.15,2.46,2.46,0,0,1-2.46.16c-0.7.25-1.42,0.73-1.67,0.55-1.15-.82-2.3-0.53-3.49-0.34a0.59,0.59,0,0,1-.26-0.14l0.18-.54c-1.12-.41-1,1-1.76,1.19-0.43-1.46-.44-1.46-2.06-1-0.89-.25-1.72-0.77-2.1-0.54-0.65.4-1.34-.56-1.92,0.29-0.22.32-1,.24-1.62,0.36V26.2h-3.37a5,5,0,0,1-1.54.56c-1.24.07-2.53-.35-3.64,0.55a0.45,0.45,0,0,1-.31,0l-4.23-1.1-1.4.68a2.31,2.31,0,0,0-.91-0.45c-0.86.62-1.81,0.1-2.7,0.32-0.58.14-1.36-.18-1.82,0.09-1.09.64-2.29,0.37-3.39,0.67a3.66,3.66,0,0,1-3-.44,2.5,2.5,0,0,1-2.36.33,9.69,9.69,0,0,0-2.94.07c-1,.08-2,0.29-3,0.3s-1.83-.26-2.74-0.26a23.72,23.72,0,0,0-2.94.25c-0.92.11-1.79,0.15-2.28-.89-0.76,1-.76.95-1.82,0.92s-2.1,0-3.15,0-2.41.6-3.43-.46a0.33,0.33,0,0,0-.3,0c-1.42.72-2.93,0.33-4.4,0.34a4.74,4.74,0,0,0-2,.12,5.23,5.23,0,0,1-4.1,0,1.23,1.23,0,0,0-.6-0.1c-1.35.37-2.69,0.78-4,1.16a7.24,7.24,0,0,0-4.37-.42,3.19,3.19,0,0,1-2.72-.22,1.63,1.63,0,0,0-.73-0.25c-1.08-.11-2.18-0.12-3.25-0.31s-1.78-.27-2.07.71c-0.67.42-1.35-.43-1.82,0.3a9.16,9.16,0,0,1-3-.15,1.16,1.16,0,0,0-1.6.41c-1-.14-1.74-0.27-2.49-0.34a14.63,14.63,0,0,1-2.64-.19c-2-.59-4,0.1-6.05.1a1.37,1.37,0,0,1-1.11-.09,1.73,1.73,0,0,0-1.57-.19,1.75,1.75,0,0,1-1.92.17,4.6,4.6,0,0,0-2.15-.06c-1.07.21-2.22,0.33-3-.75a0.92,0.92,0,0,0-1.27-.14,2.79,2.79,0,0,1-3.25-.29,1.82,1.82,0,0,0-.75-0.23L322,28.38,321.36,27l-3.19.54L317.79,27h-2a11.33,11.33,0,0,0-3.45.13,6.69,6.69,0,0,1-3.45,0c-1.12-.16-2.26-0.17-3.51-0.25a1.17,1.17,0,0,0-1.69-.62,1.72,1.72,0,0,1-.83.27c-1.3-.53-2.64-0.27-4-0.28-1.14,0-2.31.12-3.32-.65a1,1,0,0,0-.6,0c-1.07.16-2.13,0.41-3.2,0.47-2,.1-4.09.07-6.13,0.14-2.3.08-4.6,0.26-6.9,0.34-3.63.12-7.26,0.18-10.89,0.28-0.56,0-1.11.21-1.67,0.21-1.82,0-3.63-.13-5.45-0.08s-3.44.26-5.16,0.34c-1.31.06-2.62,0-3.93,0s-2.74-.06-4.11-0.1-2.45.28-3.72,0.14a18.1,18.1,0,0,0-4.37.18,25.68,25.68,0,0,1-5.91-.15c-1.73-.17-3.46.57-5.18-0.09a1,1,0,0,0-.44.13,7,7,0,0,1-3.64.3c-0.93-.24-2,0.47-2.81-0.44a1.75,1.75,0,0,0-.72.18l-2.53.63,0.11-1a4.68,4.68,0,0,1-1.73.59c-1.5-.18-3-0.57-4.47-0.84a1.54,1.54,0,0,0-1,.06,2.72,2.72,0,0,1-2.84.07c-0.51.67-1,1.16-1.82,0.4a2,2,0,0,0-1.22-.24c-0.67,0-1.34.1-2,.16l0.12-.67c-1.07-.3-1,0.9-1.65,1.23-0.42-1.38-.47-1.44-1.72-1.09a2,2,0,0,1-1.3-.18c-0.85-.27-2-0.62-2.63-0.26s-1.38.32-2.11,0.64V26l-2.1.55-1-.6a5.19,5.19,0,0,1-1,.61c-1.48.46-3.15-.18-4.56,0.75l-4.41-1.14-1.41.69a2.09,2.09,0,0,0-.88-0.46c-0.82.51-1.7,0.19-2.54,0.28a5.26,5.26,0,0,0-2,.12,6.51,6.51,0,0,1-2.94.64c-1.14.13-2.37,0.59-3.39-.44a2.54,2.54,0,0,1-2.41.37,9.71,9.71,0,0,0-2.94.06c-1,.07-2.08.21-3.13,0.29-1.21.1-2.41-.12-3.65,0-1.41.11-3.07,0.67-4.31-.9l-0.55,1c-1.4,0-2.77,0-4.13,0-1.21,0-2.47.6-3.61-.43a1.35,1.35,0,0,0-1.33.09c-0.66.82-1.35,0.21-2,.22a10.64,10.64,0,0,0-3.32.13,6.24,6.24,0,0,1-4,0,1.68,1.68,0,0,0-.75-0.14c-1.35.36-2.69,0.76-4.07,1.16a2.69,2.69,0,0,0-.88-0.51,6.79,6.79,0,0,0-2.48-.11c-1.48.37-2.87,0.61-4.23-.3a10.19,10.19,0,0,1-3.72-.35,1.27,1.27,0,0,0-1.62.58,2,2,0,0,1-1,.26l-0.91.26v0a12.85,12.85,0,0,0-1.57-.15,1.11,1.11,0,0,0-.82.3c-0.26,1.09-1.1.72-2.09,1,1.25-.68,1.25-0.68.88-1.61l-1.26.95a3,3,0,0,0-2.5-.49,4.66,4.66,0,0,1-1.71-.09,7.31,7.31,0,0,0-4.19-.13c-0.52.13-1.18-.25-1.68-0.09a4.28,4.28,0,0,1-3.06-.21,0.47,0.47,0,0,0-.43.07c-0.56.72-1.28,0.4-1.89,0.22a4.26,4.26,0,0,0-2.64.09,2,2,0,0,1-2.44-.72,1,1,0,0,0-1.47-.28,2.77,2.77,0,0,1-3.12-.27A2.24,2.24,0,0,0,82,27a4.28,4.28,0,0,1-.89,1.16,5.28,5.28,0,0,1-1.35-.84l-2.12.09-1,1.09-0.22-1.27c-1.58-.53-0.58.91-1.27,1.25a6.76,6.76,0,0,0-.41-0.76,5.8,5.8,0,0,0-.53-0.59,3.19,3.19,0,0,1-1.24.76,2.48,2.48,0,0,1-1-.86c-0.6.53-1.1,1.42-2.12,0.86a2.73,2.73,0,0,0-2.45,0c-1.9.81-3.88-.35-5.77,0.33a0.31,0.31,0,0,1-.16,0c-0.74-.18-1.66-0.72-2.18-0.46-0.83.41-1.56-.08-2.37,0.21-1.25.45-2.59,1-4,.29a1.26,1.26,0,0,0-.62.06,7,7,0,0,1-2.15.28,3.06,3.06,0,0,0-1.43,0c-1.76.43-3.65-.16-5.4,0.55-1-.65-2,0-2.94-0.12a1.82,1.82,0,0,0-1.93.67c-0.41.53-.93,0.51-1.44-0.12a2,2,0,0,0-1.33-.62c-1.28,0-2.65-.41-3.76.63a0.52,0.52,0,0,1-.44.12c-1.09-.49-2.16-0.07-3.24,0-1.77.1-3.55,0-5.32,0.11a5.81,5.81,0,0,1-2.9-.3,3.69,3.69,0,0,0-1.38,0c-0.87,0-1.75,0-2.62-.07-0.42,0-.83-0.11-1.25-0.12-1.13,0-2.23.45-3.37-.25s-2.2.51-3.35,0.4L8,29.28l-2.54-.63-0.32.72a2.69,2.69,0,0,0-3.25.05,1.3,1.3,0,0,1-1.05-.12c-0.15-.74-0.5-0.71-1.12-0.6A5.58,5.58,0,0,1-2,28.59c-1-.14-2.06-0.31-3.09-0.47l0.24,1.58c-1.93-2-4-1.62-6.06-1.64V57.67c1.77,0.27,3.55.09,5.34,0.29A56.93,56.93,0,0,0,.24,58c0.8,0,1.6,0,2.4.05,2.22,0.1,4.44.26,6.65,0.31s4.7-.11,7,0c2.82,0.1,5.64.35,8.46,0.52,0.79,0,1.58.06,2.37,0.09,1.54,0.07,3.08.16,4.63,0.19a5,5,0,0,1,1.61.2,13.12,13.12,0,0,0,3.41.41,3.63,3.63,0,0,0,1.86-.22c0.78-.44,1.19.37,1.81,0.3s1.07,0.3,1.38-.39a0.51,0.51,0,0,1,.4,0,7.52,7.52,0,0,0,4,.51l0.56-1L50,60.17l0.25-.78c0.5,0.24.76-.21,1.14-0.36a1.61,1.61,0,0,1,1.33,0c0.77,0.9,1.81.67,2.74,0.87a2.17,2.17,0,0,0,2.62-1c1.1,0.18,2.15.64,3,.42,1.84-.45,3.63.12,5.44-0.11a29.71,29.71,0,0,1,3-.24c2.57-.07,5.14-0.09,7.71-0.14s4.94-.21,7.41-0.19A102.45,102.45,0,0,1,95,58.94c0.89,0.1,1.79,0,2.69,0s1.89,0.19,2.84.22,1.73-.16,2.58-0.09,1.59-.47,2.45.08a3.88,3.88,0,0,0,1.51-.07c0.84,0,1.67.16,2.51,0.18,1.4,0,2.81.4,4.18-.23a0.55,0.55,0,0,1,.44.11c0.75,0.55,1.59.18,2.38,0.22,1.71,0.09,3.44-.06,5.14.11,2.54,0.25,5.09,0,7.63.44a34.09,34.09,0,0,0,4.83.23c1.34,0.05,2.68.12,4,.13a1.59,1.59,0,0,0,1-.29,1.54,1.54,0,0,1,1.61-.25,14.54,14.54,0,0,0,3.73.37c1.89-.09,3.78-0.22,5.67-0.25,2.94,0,5.88-.05,8.82,0,1.44,0,2.88.13,4.33,0.16,0.84,0,1.67-.09,2.51-0.07,1.61,0,3.22.14,4.84,0.22l0.34-.73c1.28,0.27,2.49.6,3.72,0.74a9.68,9.68,0,0,0,2.36-.17c1.11-.15,2.2-0.59,3.32.06a2.07,2.07,0,0,0,1.08,0c0.63-.06,1.25-0.19,1.88-0.21,1.05,0,2.11,0,3.16,0s2.2,0.15,2.92-.34c1.12-.75,2,0.41,2.94,0a2.51,2.51,0,0,1,.78-0.07c2-.16,4-0.37,6-0.46,0.79,0,1.43-.11,1.69-1.07a2.54,2.54,0,0,0,3,.59,1.3,1.3,0,0,1,.44-0.15c1.39,0,2.78.08,4.18,0.1a12.06,12.06,0,0,1,3.88.2c0.59-.56,1.05,0,1.56.26l1.91-1.44a3.63,3.63,0,0,1,1.58.76c0.31,0.27,1.14,0,1.75-.09l-0.15-.8a7.76,7.76,0,0,1,2.73.49,2.1,2.1,0,0,0,2.34.07c0.46-.25,1.24.27,1.43-0.59a0.43,0.43,0,0,1,.28,0c0.44,0.86,1.18.31,1.78,0.39,0.15,0,.3.07,0.43,0.1V59c1,0,.6-0.88,1-1.45,0.49,0.72,1.31,0,1.83.65s1.48,0,2,1.13l-0.26-2.94a4.84,4.84,0,0,1,3,1,1.67,1.67,0,0,0,1.31.19,2.41,2.41,0,0,0,.47-1.16l1.23-.32c-1,1.37.23,1.32,0.74,1.72l-0.77.66a1.55,1.55,0,0,1,1.75.28c0.86,0.52,1.15.42,1.77-.36l-1-.85a2.45,2.45,0,0,1,2.54,1.36L245.63,59l0.11-1.1,2.4-1,0.59-1.19c1,0.54.27,1.21,0.35,1.77a1,1,0,0,0,1.34.38,2.92,2.92,0,0,1,3,0,1.25,1.25,0,0,0,.73.13c0.82-.08,1.63-0.21,2.49-0.32,0.13,0.69.35,1.12,1.09,0.83a13.08,13.08,0,0,1,1.81-.53c1.17-.27,2.28-1.08,3.57-0.24a2.13,2.13,0,0,0,1.17-.2,4.21,4.21,0,0,0,1.42.63,8.24,8.24,0,0,0,1.94-.42,1,1,0,0,0,.47.38c0.82-.07,1.64-0.22,2.46-0.36a1.89,1.89,0,0,1,.53-0.18c1,0.77,2.21.4,3.26,0.69s1.64-.06,2-1.19c0.54,0.68,2,.26,1.41,1.7a0.67,0.67,0,0,0,.11.07,0.8,0.8,0,0,0,.31,0c0.58-.23,1.16-0.49,1.74-0.73,1.35-.55,1.62-0.46,2.38.77h1.23V57.86a1.9,1.9,0,0,1,1.92.32c1.18,0.7,1.91.63,3.1-.29,0.19,0.22,1.21.49,1.74,0.83,1.34,0.85,2.75.36,4.1,0.51l0.28-.78a4.1,4.1,0,0,0,1.38.67c1.62,0.05,3.25,0,4.87-.07a1.23,1.23,0,0,0,.55-0.39c0.34-.3.3-0.24,0.86,0.07a4,4,0,0,0,1.48.42,14.5,14.5,0,0,0,2.2,0c0.78,0,1.55-.16,2.32-0.24a8.67,8.67,0,0,1,.93-0.07c2.94,0,5.88.08,8.82,0s5.78-.19,8.68-0.25c1.05,0,2.1.05,3.16,0.07,1.83,0,3.67,0,5.5.08,3.21,0.11,6.42.28,9.64,0.38,0.29,0,.74-0.47.88-0.38,1.17,0.8,2.5.13,3.74,0.48a10.94,10.94,0,0,0,3.42.13,24.79,24.79,0,0,1,3.47-.05c2.1,0.19,4.25-.12,6.34.11,2.59,0.28,5.2,0,7.79.47a32.57,32.57,0,0,0,4.83.23c1.34,0.05,2.68.13,4,.13a2,2,0,0,0,1.16-.37,1.23,1.23,0,0,1,1.32-.18,12.14,12.14,0,0,0,3.42.41c0.77,0,1.56-.28,2.34-0.28q6.31-.05,12.62,0c1.49,0,3,.14,4.48.18,0.83,0,1.67-.07,2.51-0.06,1.35,0,2.71,0,4.06.16,0.72,0.07.88-.34,1.05-1,2.06,1.31,4.23,1.09,6.45.74,0.93-.15,1.92-0.54,2.87.15a1.87,1.87,0,0,0,1.08,0c0.73-.07,1.46-0.23,2.19-0.25,1.63-.06,3.26,0,4.88-0.11a4.79,4.79,0,0,0,1.36-.4c1.3,0,2.28.16,3.24,0.11,2-.11,4-0.34,6-0.46,0.76,0,1.48,0,1.66-1a2.91,2.91,0,0,0,3,.53,3,3,0,0,1,.75-0.12c1.86,0,3.72-.12,5.58-0.07,1.3,0,2.59.25,4,.4l1.64-1.25a3.3,3.3,0,0,1,1.58.75c0.29,0.28,1.15,0,1.76-.08l-0.1-.92c1.1,0.57,2.25.22,3.22,0.89a2.7,2.7,0,0,0,1.53,0,2.74,2.74,0,0,1,1-.24c0.72,0.35.34-.73,0.77-0.59a3.08,3.08,0,0,0,1.1.6,15.81,15.81,0,0,1,2.47-.14c0.7,0.14,1.59,0,2.08.81,0.69-.48,1,0.28,1.57.61,0.15-1-.54-1.88,0-2.7,1.72-.45,2.64,1.51,4.34,1.27l0.18-1.29,1-.25a2.38,2.38,0,0,0,.08,1.06,2.93,2.93,0,0,0,1,.6l-0.76.6a1.16,1.16,0,0,1,1.58.22,1.51,1.51,0,0,0,1.76.19,1,1,0,0,0,.2-0.5l-1-.78c1.24,0,2.19.35,2.51,1.4H487l0.16-1.09,2.41-1,0.53-1.17a0.93,0.93,0,0,1,.47,1.25c-0.15.84,0.33,1.19,1.17,0.9a3.32,3.32,0,0,1,3.12.06,1,1,0,0,0,.59.11c0.82-.1,1.64-0.23,2.41-0.34l0.7,1a15.61,15.61,0,0,1,2.54-.89c1.12-.19,2.26-1,3.46-0.07a2.46,2.46,0,0,0,1.18-.3c0.73,1,1.75.78,2.78,0.43a1.34,1.34,0,0,1,.46-0.18c1,0.88,2,.25,3,0a1.4,1.4,0,0,1,.66,0c0.59,0.16,1.16.43,1.75,0.53s1.35,0,2,.17c1,0.2.83-.94,1.42-1.15,0.81,0.28,1.73.4,1.44,1.73,0.7-.29,1.27-0.56,1.86-0.75a3.17,3.17,0,0,1,1.63-.31,3.45,3.45,0,0,1,1.09,1.17l1.08-.17V57.69a4.63,4.63,0,0,1,1.54.22,2.22,2.22,0,0,1,.48,1c1.29,0.59,2.15-.35,3.15-1.2l0.63,1.92v0l1-.94c1.07-.09-0.24,1.56.82,1.59l0.7-.51c0.86,1.41,1.26,1,2.51.2,0.77-.48,1.52,0,2.24-0.29a0.89,0.89,0,0,1,.44.52c0.18,1.11.16,1.11,1.42,1.12-0.26-.71-0.23-0.82.43-1.12,0.38,1,.86,2,2.33,1.52,0.12-1.25.25-2,.41-3.58l1.94,1.36c-0.2.59-.37,0.46-0.65,1.27a6.92,6.92,0,0,1,1.58-.25A4,4,0,0,1,547,61l0.78-1.39a3,3,0,0,0,3-.29c-0.56-.19-1,0.3-1.57.09l1.07-1.28c1.73,2,3.32,1.94,4,0l-0.6-.73a1.61,1.61,0,0,1,1.25.19,6.67,6.67,0,0,1,.95,1.21c1.17-2,3.18-.73,4.81-1.16V28.05C560,28,559.27,26.41,558.67,26.55ZM33,29.51l0-.24,0.94-.08,0,0.15Zm39.48,0.18-0.16-.3c0.2-.07.41-0.15,0.61-0.2a0.93,0.93,0,0,1,.13.23Zm40.29-.12-0.06-.85,2,0.85h-1.93Zm67,1.08c-1.1,0-1.36-.34-1.63-2.18h1.78l-0.28,1.1,1.4,0.74A6.46,6.46,0,0,1,179.72,30.65ZM244,58l-0.54-.71,0.29-.21,0.48,0.75ZM349.92,29.71l0-.27,1.41-.25,0,0.29Zm4.19-.14-0.06-.85,2,0.85h-1.93Zm66,1.07-0.85-2.12,2-.13-0.31,1.18,1.14,0.61C421.5,30.94,420.85,30.55,420.1,30.64Zm65.25,27.31-0.53-.71,0.29-.2,0.47,0.75Z" transform="translate(10.9 0.04)"/><path class="cls-4" d="M-9.88,32.33C-10,39.45-10.11,46.59-10,53.72a0.32,0.32,0,0,0,.64,0c0.18-7.12.14-14.26,0.11-21.38a0.31,0.31,0,0,0-.61,0" transform="translate(10.9 0.04)"/><path class="cls-4" d="M-7.33,32.44c0,7.65-.08,15.32.14,23a0.39,0.39,0,0,0,.78,0c0-7.66-.22-15.31-0.28-23a0.32,0.32,0,0,0-.65,0" transform="translate(10.9 0.04)"/><path class="cls-4" d="M-5,32c0.12,7.36.1,14.76,0.5,22.11a0.37,0.37,0,0,0,.73,0c0-7.36-.31-14.75-0.57-22.11A0.33,0.33,0,0,0-5,32" transform="translate(10.9 0.04)"/><path class="cls-4" d="M-2.18,32.72a156.53,156.53,0,0,0,.84,21.8c0.06,0.46.78,0.49,0.75,0-0.46-7.28-.9-14.51-0.88-21.8a0.35,0.35,0,0,0-.71,0" transform="translate(10.9 0.04)"/><path class="cls-4" d="M0.23,32.53C0.56,40.28.76,48.07,1.37,55.8a0.37,0.37,0,0,0,.74,0C2,48,1.34,40.28.91,32.53a0.34,0.34,0,0,0-.68,0" transform="translate(10.9 0.04)"/><path class="cls-4" d="M4,32.86a151.12,151.12,0,0,0-.21,23,0.34,0.34,0,0,0,.69,0c0-7.7-.36-15.33.21-23,0-.44-0.65-0.44-0.69,0" transform="translate(10.9 0.04)"/><path class="cls-4" d="M6.09,32.11c0.31,7.42.24,14.82,0.35,22.24a0.34,0.34,0,0,0,.69,0,189.88,189.88,0,0,0-.42-22.24c0-.39-0.64-0.4-0.62,0" transform="translate(10.9 0.04)"/><path class="cls-4" d="M9.7,31.18c-0.25,8.1-.92,16.14-1.31,24.23,0,0.45.63,0.42,0.68,0a219.07,219.07,0,0,0,1.24-24.23,0.31,0.31,0,0,0-.62,0" transform="translate(10.9 0.04)"/><path class="cls-4" d="M12.91,31.51a154.82,154.82,0,0,0-1.77,23.78,0.33,0.33,0,0,0,.67,0,211.9,211.9,0,0,1,1.65-23.7,0.28,0.28,0,0,0-.55-0.07" transform="translate(10.9 0.04)"/><path class="cls-4" d="M14.62,31.9C14,39.68,13.46,47.47,13.41,55.27a0.38,0.38,0,0,0,.76,0c0.23-7.8.58-15.58,1.09-23.37,0-.41-0.61-0.41-0.64,0" transform="translate(10.9 0.04)"/><path class="cls-4" d="M16.92,31.8c-0.59,8.08-1.05,16.22-1,24.32a0.35,0.35,0,0,0,.7,0c0.29-8.11.47-16.22,0.93-24.32,0-.41-0.6-0.4-0.63,0" transform="translate(10.9 0.04)"/><path class="cls-4" d="M20.51,30.9a156.13,156.13,0,0,0-1,24.71,0.35,0.35,0,0,0,.69,0c0-8.28.18-16.46,0.92-24.71,0-.37-0.53-0.36-0.57,0" transform="translate(10.9 0.04)"/><path class="cls-4" d="M23.13,31.07c-0.3,8.17-.68,16.36-0.81,24.54a0.36,0.36,0,0,0,.71,0c0.39-8.17.52-16.36,0.74-24.54a0.32,0.32,0,0,0-.64,0" transform="translate(10.9 0.04)"/><path class="cls-4" d="M26,31.65c0.26,7.76-.14,15.39-0.43,23.14,0,0.48.67,0.45,0.73,0a124.16,124.16,0,0,0,.38-23.14,0.34,0.34,0,0,0-.67,0" transform="translate(10.9 0.04)"/><path class="cls-4" d="M29.21,30.68c0.16,8.59,0,17.18.16,25.76a0.36,0.36,0,0,0,.71,0c0.41-8.55.12-17.2-.22-25.76a0.33,0.33,0,0,0-.65,0" transform="translate(10.9 0.04)"/><path class="cls-4" d="M32.12,31.86c0,7.68-.16,15.39.07,23.06a0.39,0.39,0,0,0,.78,0c0.17-7.68,0-15.38-.1-23.06a0.38,0.38,0,0,0-.76,0" transform="translate(10.9 0.04)"/><path class="cls-4" d="M35.29,31.8c-0.06,7.92-.24,15.89,0,23.81a0.37,0.37,0,0,0,.74,0c0.23-7.92,0-15.89-.08-23.81a0.34,0.34,0,0,0-.69,0" transform="translate(10.9 0.04)"/><path class="cls-4" d="M38,31.38a187.19,187.19,0,0,0,.57,24.43c0,0.49.8,0.51,0.78,0-0.33-8.16-.73-16.26-0.6-24.43a0.38,0.38,0,0,0-.75,0" transform="translate(10.9 0.04)"/><path class="cls-4" d="M41.06,30.9c0,8,.16,16,0.68,24a0.4,0.4,0,0,0,.79,0c-0.24-8-.57-16-0.82-24a0.33,0.33,0,0,0-.65,0" transform="translate(10.9 0.04)"/><path class="cls-4" d="M43.53,31.64c0.31,7.72.3,15.41,0.12,23.13a0.4,0.4,0,0,0,.8,0,230.58,230.58,0,0,0-.24-23.13,0.34,0.34,0,0,0-.68,0" transform="translate(10.9 0.04)"/><path class="cls-4" d="M46.58,31.07C46.4,39,46.1,47,46.16,55a0.37,0.37,0,0,0,.73,0c0.33-8,.3-15.94.4-23.91a0.36,0.36,0,0,0-.71,0" transform="translate(10.9 0.04)"/><path class="cls-4" d="M48.59,32.32c0.32,7.2.24,14.41,0.51,21.6a0.34,0.34,0,0,0,.68,0,215.28,215.28,0,0,0-.54-21.6c0-.42-0.68-0.43-0.66,0" transform="translate(10.9 0.04)"/><path class="cls-4" d="M73,32.32c0.32,7.2.24,14.41,0.51,21.6a0.34,0.34,0,0,0,.68,0,215.56,215.56,0,0,0-.54-21.6,0.33,0.33,0,0,0-.66,0" transform="translate(10.9 0.04)"/><path class="cls-4" d="M51.33,32.42c0.42,7.87.48,15.72,0.49,23.61a0.4,0.4,0,0,0,.81,0,224.45,224.45,0,0,0-.56-23.61c0-.47-0.77-0.48-0.74,0" transform="translate(10.9 0.04)"/><path class="cls-4" d="M55,32.58c-0.16,7.38-.5,14.81-0.32,22.19a0.33,0.33,0,0,0,.65,0c0.41-7.37.26-14.81,0.33-22.19a0.34,0.34,0,0,0-.67,0" transform="translate(10.9 0.04)"/><path class="cls-4" d="M58,32c0.14,7.55-.06,15.08-0.08,22.63a0.39,0.39,0,0,0,.78,0c0.2-7.53.34-15.1,0-22.63A0.34,0.34,0,0,0,58,32" transform="translate(10.9 0.04)"/><path class="cls-4" d="M61.4,31.51c0,7.8-1,15.56-1.2,23.35a0.36,0.36,0,0,0,.73,0A183.64,183.64,0,0,0,62,31.51a0.32,0.32,0,0,0-.64,0" transform="translate(10.9 0.04)"/><path class="cls-4" d="M64.9,31.89c-0.13,7.82-.58,15.59-1.08,23.39,0,0.53.76,0.51,0.81,0a226.37,226.37,0,0,0,1-23.39,0.36,0.36,0,0,0-.73,0" transform="translate(10.9 0.04)"/><path class="cls-4" d="M67.35,31.47c-0.08,7.66-.17,15.31-0.32,23a0.4,0.4,0,0,0,.8,0c0.2-7.65.29-15.32,0.18-23a0.33,0.33,0,0,0-.66,0" transform="translate(10.9 0.04)"/><path class="cls-4" d="M69.48,31.82c0.47,7.26.72,14.52,0.84,21.79a0.44,0.44,0,0,0,.87,0c0-7.27-.39-14.55-1-21.79,0-.45-0.73-0.46-0.71,0" transform="translate(10.9 0.04)"/><path class="cls-4" d="M76,32.32c-0.12,7.12-.23,14.26-0.14,21.38a0.32,0.32,0,0,0,.64,0c0.18-7.12.14-14.26,0.11-21.38a0.31,0.31,0,0,0-.61,0" transform="translate(10.9 0.04)"/><path class="cls-4" d="M78.58,32.43c0,7.65-.08,15.32.15,23a0.39,0.39,0,0,0,.78,0c0-7.66-.22-15.31-0.28-23a0.32,0.32,0,0,0-.65,0" transform="translate(10.9 0.04)"/><path class="cls-4" d="M80.93,32c0.12,7.36.1,14.76,0.5,22.11a0.37,0.37,0,0,0,.73,0c0-7.36-.31-14.75-0.57-22.11a0.33,0.33,0,0,0-.66,0" transform="translate(10.9 0.04)"/><path class="cls-4" d="M83.73,32.72a156.53,156.53,0,0,0,.84,21.8c0.06,0.46.78,0.49,0.75,0-0.46-7.28-.9-14.51-0.88-21.8a0.35,0.35,0,0,0-.7,0" transform="translate(10.9 0.04)"/><path class="cls-4" d="M86.14,32.53c0.33,7.75.53,15.53,1.14,23.26a0.37,0.37,0,0,0,.74,0c-0.15-7.75-.77-15.52-1.2-23.26a0.34,0.34,0,0,0-.68,0" transform="translate(10.9 0.04)"/><path class="cls-4" d="M89.91,32.85a150.9,150.9,0,0,0-.21,23,0.34,0.34,0,0,0,.69,0c0-7.7-.36-15.34.21-23,0-.44-0.65-0.44-0.69,0" transform="translate(10.9 0.04)"/><path class="cls-4" d="M92,32.11c0.31,7.42.24,14.82,0.35,22.24a0.34,0.34,0,0,0,.69,0,190.17,190.17,0,0,0-.42-22.24,0.31,0.31,0,0,0-.62,0" transform="translate(10.9 0.04)"/><path class="cls-4" d="M96.14,31.17c-0.25,8.1-.92,16.14-1.3,24.23,0,0.45.63,0.42,0.68,0a219.72,219.72,0,0,0,1.24-24.23,0.31,0.31,0,0,0-.62,0" transform="translate(10.9 0.04)"/><path class="cls-4" d="M99.35,31.51a154.64,154.64,0,0,0-1.77,23.78,0.33,0.33,0,0,0,.66,0,212,212,0,0,1,1.65-23.7,0.28,0.28,0,0,0-.54-0.07" transform="translate(10.9 0.04)"/><path class="cls-4" d="M101.05,31.9c-0.63,7.77-1.16,15.57-1.21,23.37a0.38,0.38,0,0,0,.76,0c0.22-7.8.58-15.58,1.09-23.37,0-.41-0.61-0.41-0.64,0" transform="translate(10.9 0.04)"/><path class="cls-4" d="M103.36,31.8c-0.59,8.08-1.05,16.22-1,24.33a0.35,0.35,0,0,0,.7,0c0.3-8.11.47-16.22,0.93-24.33,0-.41-0.6-0.4-0.63,0" transform="translate(10.9 0.04)"/><path class="cls-4" d="M106.95,30.89a156.26,156.26,0,0,0-1,24.71,0.35,0.35,0,0,0,.69,0c0-8.28.18-16.46,0.92-24.71,0-.37-0.53-0.36-0.57,0" transform="translate(10.9 0.04)"/><path class="cls-4" d="M109.57,31.06c-0.3,8.17-.68,16.36-0.81,24.53a0.36,0.36,0,0,0,.71,0c0.39-8.17.52-16.36,0.74-24.53a0.32,0.32,0,0,0-.64,0" transform="translate(10.9 0.04)"/><path class="cls-4" d="M112.45,31.64c0.26,7.76-.14,15.39-0.43,23.14,0,0.48.67,0.45,0.73,0a124.2,124.2,0,0,0,.38-23.14,0.33,0.33,0,0,0-.67,0" transform="translate(10.9 0.04)"/><path class="cls-4" d="M115.65,30.68c0.16,8.59,0,17.18.16,25.76a0.36,0.36,0,0,0,.71,0c0.41-8.55.12-17.2-.22-25.76a0.33,0.33,0,0,0-.65,0" transform="translate(10.9 0.04)"/><path class="cls-4" d="M118.55,31.85c0,7.68-.16,15.39.07,23.06a0.39,0.39,0,0,0,.78,0c0.17-7.68,0-15.38-.1-23.06a0.38,0.38,0,0,0-.76,0" transform="translate(10.9 0.04)"/><path class="cls-4" d="M121.72,31.8c-0.06,7.92-.23,15.89,0,23.81a0.37,0.37,0,0,0,.74,0c0.23-7.92,0-15.88-.07-23.81a0.34,0.34,0,0,0-.69,0" transform="translate(10.9 0.04)"/><path class="cls-4" d="M124.48,31.38A187.49,187.49,0,0,0,125,55.81c0.05,0.49.8,0.51,0.78,0-0.33-8.16-.73-16.26-0.6-24.43a0.38,0.38,0,0,0-.75,0" transform="translate(10.9 0.04)"/><path class="cls-4" d="M127.5,30.9c0,8,.16,16,0.68,24a0.4,0.4,0,0,0,.79,0c-0.24-8-.57-16-0.82-24a0.33,0.33,0,0,0-.65,0" transform="translate(10.9 0.04)"/><path class="cls-4" d="M130,31.63c0.31,7.72.3,15.41,0.12,23.13a0.4,0.4,0,0,0,.8,0,230.18,230.18,0,0,0-.24-23.13,0.34,0.34,0,0,0-.67,0" transform="translate(10.9 0.04)"/><path class="cls-4" d="M133,31.06C132.84,39,132.54,47,132.6,55a0.37,0.37,0,0,0,.73,0c0.33-8,.3-15.94.4-23.91a0.36,0.36,0,0,0-.71,0" transform="translate(10.9 0.04)"/><path class="cls-4" d="M135,32.32c0.32,7.2.25,14.41,0.51,21.6a0.34,0.34,0,0,0,.68,0,215.17,215.17,0,0,0-.54-21.6,0.33,0.33,0,0,0-.66,0" transform="translate(10.9 0.04)"/><path class="cls-4" d="M163.3,32.31c0.32,7.2.24,14.41,0.51,21.6a0.34,0.34,0,0,0,.68,0,215.16,215.16,0,0,0-.54-21.6,0.33,0.33,0,0,0-.66,0" transform="translate(10.9 0.04)"/><path class="cls-4" d="M137.77,32.41c0.42,7.87.48,15.72,0.49,23.6a0.4,0.4,0,0,0,.81,0,224.33,224.33,0,0,0-.55-23.6c0-.47-0.77-0.48-0.74,0" transform="translate(10.9 0.04)"/><path class="cls-4" d="M141.47,32.57c-0.16,7.38-.5,14.81-0.32,22.19a0.33,0.33,0,0,0,.65,0c0.41-7.37.26-14.81,0.33-22.19a0.34,0.34,0,0,0-.67,0" transform="translate(10.9 0.04)"/><path class="cls-4" d="M144.41,32c0.14,7.55-.06,15.08-0.08,22.63a0.39,0.39,0,0,0,.78,0c0.2-7.53.34-15.1,0-22.63a0.34,0.34,0,0,0-.68,0" transform="translate(10.9 0.04)"/><path class="cls-4" d="M147.84,31.5c0,7.8-1,15.56-1.2,23.35a0.36,0.36,0,0,0,.73,0,183.71,183.71,0,0,0,1.11-23.35,0.32,0.32,0,0,0-.64,0" transform="translate(10.9 0.04)"/><path class="cls-4" d="M151.33,31.89c-0.13,7.82-.58,15.59-1.08,23.39,0,0.53.76,0.51,0.82,0a226.88,226.88,0,0,0,1-23.39,0.36,0.36,0,0,0-.73,0" transform="translate(10.9 0.04)"/><path class="cls-4" d="M153.79,31.47c-0.08,7.66-.17,15.31-0.32,23a0.4,0.4,0,0,0,.81,0c0.2-7.65.28-15.32,0.18-23a0.33,0.33,0,0,0-.66,0" transform="translate(10.9 0.04)"/><path class="cls-4" d="M157.19,31.81c-0.18,7.73-.66,15.43-1.14,23.15,0,0.51.74,0.5,0.79,0,0.72-7.69.94-15.43,1.07-23.15a0.36,0.36,0,0,0-.72,0" transform="translate(10.9 0.04)"/><path class="cls-4" d="M159.76,31.81c0.47,7.26.72,14.52,0.84,21.79a0.44,0.44,0,0,0,.87,0c0-7.27-.38-14.55-1-21.79,0-.45-0.73-0.46-0.7,0" transform="translate(10.9 0.04)"/><path class="cls-4" d="M166.31,32.32c-0.12,7.12-.23,14.26-0.14,21.38a0.32,0.32,0,0,0,.64,0c0.18-7.12.14-14.26,0.11-21.38a0.31,0.31,0,0,0-.61,0" transform="translate(10.9 0.04)"/><path class="cls-4" d="M168.87,32.42c0,7.65-.08,15.32.14,23a0.39,0.39,0,0,0,.78,0c0-7.66-.21-15.31-0.28-23a0.32,0.32,0,0,0-.65,0" transform="translate(10.9 0.04)"/><path class="cls-4" d="M171.22,32c0.12,7.36.1,14.76,0.5,22.11a0.37,0.37,0,0,0,.73,0c0-7.36-.31-14.75-0.57-22.11a0.33,0.33,0,0,0-.66,0" transform="translate(10.9 0.04)"/><path class="cls-4" d="M174,32.71a156.53,156.53,0,0,0,.84,21.8c0.06,0.46.78,0.49,0.75,0-0.46-7.28-.9-14.51-0.88-21.8a0.35,0.35,0,0,0-.7,0" transform="translate(10.9 0.04)"/><path class="cls-4" d="M176.42,32.52c0.33,7.75.53,15.53,1.14,23.26a0.37,0.37,0,0,0,.74,0c-0.15-7.75-.77-15.52-1.2-23.26a0.34,0.34,0,0,0-.68,0" transform="translate(10.9 0.04)"/><path class="cls-4" d="M180.2,32.85a150.9,150.9,0,0,0-.21,23,0.34,0.34,0,0,0,.69,0c0-7.7-.36-15.34.21-23,0-.44-0.65-0.44-0.69,0" transform="translate(10.9 0.04)"/><path class="cls-4" d="M182.28,32.1c0.31,7.42.24,14.82,0.35,22.24a0.34,0.34,0,0,0,.69,0,190.19,190.19,0,0,0-.42-22.24c0-.39-0.64-0.4-0.62,0" transform="translate(10.9 0.04)"/><path class="cls-4" d="M185.89,31.16c-0.25,8.1-.92,16.14-1.31,24.23,0,0.45.63,0.42,0.68,0a219.49,219.49,0,0,0,1.24-24.23,0.31,0.31,0,0,0-.62,0" transform="translate(10.9 0.04)"/><path class="cls-4" d="M189.11,31.5a154.79,154.79,0,0,0-1.77,23.78,0.33,0.33,0,0,0,.66,0,212.1,212.1,0,0,1,1.65-23.7,0.28,0.28,0,0,0-.55-0.07" transform="translate(10.9 0.04)"/><path class="cls-4" d="M190.81,31.89c-0.62,7.77-1.16,15.57-1.21,23.37a0.38,0.38,0,0,0,.76,0c0.22-7.8.58-15.58,1.09-23.37,0-.41-0.61-0.41-0.64,0" transform="translate(10.9 0.04)"/><path class="cls-4" d="M193.11,31.79c-0.58,8.08-1.05,16.22-1,24.32a0.35,0.35,0,0,0,.7,0c0.3-8.11.47-16.22,0.93-24.33,0-.41-0.6-0.4-0.63,0" transform="translate(10.9 0.04)"/><path class="cls-4" d="M196.7,30.89a156.2,156.2,0,0,0-1,24.71,0.35,0.35,0,0,0,.69,0c0-8.28.18-16.46,0.92-24.71,0-.37-0.53-0.36-0.57,0" transform="translate(10.9 0.04)"/><path class="cls-4" d="M199.32,31.06c-0.3,8.17-.68,16.36-0.81,24.53a0.36,0.36,0,0,0,.71,0c0.39-8.17.52-16.36,0.74-24.53a0.32,0.32,0,0,0-.64,0" transform="translate(10.9 0.04)"/><path class="cls-4" d="M202.2,31.64c0.26,7.76-.14,15.39-0.43,23.14,0,0.48.67,0.45,0.73,0a124.32,124.32,0,0,0,.38-23.14,0.34,0.34,0,0,0-.67,0" transform="translate(10.9 0.04)"/><path class="cls-4" d="M205.41,30.67c0.16,8.59,0,17.18.16,25.76a0.36,0.36,0,0,0,.71,0c0.41-8.55.12-17.2-.22-25.76a0.33,0.33,0,0,0-.65,0" transform="translate(10.9 0.04)"/><path class="cls-4" d="M208.31,31.85c0,7.68-.16,15.39.07,23.06a0.39,0.39,0,0,0,.78,0c0.17-7.68,0-15.38-.1-23.06a0.38,0.38,0,0,0-.76,0" transform="translate(10.9 0.04)"/><path class="cls-4" d="M211.48,31.79c-0.06,7.92-.24,15.89,0,23.81a0.37,0.37,0,0,0,.74,0c0.23-7.92,0-15.88-.08-23.81a0.34,0.34,0,0,0-.69,0" transform="translate(10.9 0.04)"/><path class="cls-4" d="M214.24,31.37a187.18,187.18,0,0,0,.57,24.43c0,0.49.8,0.51,0.78,0-0.33-8.16-.73-16.26-0.6-24.43a0.38,0.38,0,0,0-.75,0" transform="translate(10.9 0.04)"/><path class="cls-4" d="M217.25,30.89c0,8,.16,16,0.68,24a0.4,0.4,0,0,0,.79,0c-0.24-8-.57-16-0.82-24a0.33,0.33,0,0,0-.65,0" transform="translate(10.9 0.04)"/><path class="cls-4" d="M219.73,31.62c0.31,7.72.3,15.41,0.12,23.13a0.4,0.4,0,0,0,.8,0,230.2,230.2,0,0,0-.24-23.13,0.34,0.34,0,0,0-.68,0" transform="translate(10.9 0.04)"/><path class="cls-4" d="M222.77,31.05C222.6,39,222.29,47,222.35,55a0.37,0.37,0,0,0,.73,0c0.33-8,.3-15.94.4-23.91a0.36,0.36,0,0,0-.71,0" transform="translate(10.9 0.04)"/><path class="cls-4" d="M224.78,32.31c0.32,7.2.25,14.41,0.51,21.6a0.34,0.34,0,0,0,.68,0,214.91,214.91,0,0,0-.54-21.6,0.33,0.33,0,0,0-.66,0" transform="translate(10.9 0.04)"/><path class="cls-4" d="M253.05,32.31c0.32,7.2.24,14.41,0.51,21.6a0.34,0.34,0,0,0,.68,0,215.18,215.18,0,0,0-.54-21.6,0.33,0.33,0,0,0-.66,0" transform="translate(10.9 0.04)"/><path class="cls-4" d="M227.52,32.41c0.42,7.87.48,15.72,0.49,23.6a0.4,0.4,0,0,0,.81,0,224.23,224.23,0,0,0-.55-23.6c0-.47-0.77-0.48-0.75,0" transform="translate(10.9 0.04)"/><path class="cls-4" d="M231.22,32.56c-0.16,7.38-.5,14.81-0.31,22.19a0.33,0.33,0,0,0,.65,0c0.41-7.37.26-14.81,0.33-22.19a0.34,0.34,0,0,0-.67,0" transform="translate(10.9 0.04)"/><path class="cls-4" d="M234.16,32c0.14,7.55-.06,15.08-0.08,22.63a0.39,0.39,0,0,0,.78,0c0.2-7.53.34-15.1,0-22.63a0.34,0.34,0,0,0-.68,0" transform="translate(10.9 0.04)"/><path class="cls-4" d="M237.6,31.49c0,7.8-1,15.56-1.2,23.35a0.36,0.36,0,0,0,.73,0,183.64,183.64,0,0,0,1.11-23.35,0.32,0.32,0,0,0-.64,0" transform="translate(10.9 0.04)"/><path class="cls-4" d="M241.09,31.88C241,39.7,240.51,47.47,240,55.27c0,0.53.76,0.51,0.82,0a226.5,226.5,0,0,0,1-23.39,0.36,0.36,0,0,0-.73,0" transform="translate(10.9 0.04)"/><path class="cls-4" d="M243.55,31.46c-0.08,7.66-.17,15.31-0.32,23a0.4,0.4,0,0,0,.8,0c0.2-7.65.29-15.32,0.18-23a0.33,0.33,0,0,0-.66,0" transform="translate(10.9 0.04)"/><path class="cls-4" d="M246.95,31.81c-0.18,7.73-.66,15.43-1.14,23.15,0,0.51.74,0.5,0.79,0,0.72-7.69.94-15.43,1.07-23.15a0.36,0.36,0,0,0-.72,0" transform="translate(10.9 0.04)"/><path class="cls-4" d="M249.51,31.8c0.47,7.26.72,14.52,0.84,21.79a0.44,0.44,0,0,0,.87,0c0-7.27-.38-14.55-1-21.79,0-.45-0.73-0.46-0.7,0" transform="translate(10.9 0.04)"/><path class="cls-4" d="M256.07,32.31c-0.11,7.12-.23,14.26-0.14,21.39a0.32,0.32,0,0,0,.64,0c0.18-7.12.14-14.26,0.11-21.38a0.31,0.31,0,0,0-.61,0" transform="translate(10.9 0.04)"/><path class="cls-4" d="M258.62,32.41c0,7.65-.08,15.32.14,23a0.39,0.39,0,0,0,.78,0c0-7.66-.22-15.31-0.28-23a0.32,0.32,0,0,0-.65,0" transform="translate(10.9 0.04)"/><path class="cls-4" d="M261,32c0.12,7.36.1,14.76,0.5,22.11a0.37,0.37,0,0,0,.73,0c0-7.36-.31-14.75-0.57-22.11a0.33,0.33,0,0,0-.66,0" transform="translate(10.9 0.04)"/><path class="cls-4" d="M263.77,32.7a156.54,156.54,0,0,0,.84,21.8c0.06,0.46.78,0.49,0.75,0-0.46-7.28-.9-14.51-0.88-21.8a0.35,0.35,0,0,0-.7,0" transform="translate(10.9 0.04)"/><path class="cls-4" d="M266.18,32.51c0.33,7.75.53,15.53,1.14,23.26a0.37,0.37,0,0,0,.74,0c-0.15-7.75-.77-15.52-1.2-23.26a0.34,0.34,0,0,0-.68,0" transform="translate(10.9 0.04)"/><path class="cls-4" d="M270,32.84a151,151,0,0,0-.21,23,0.34,0.34,0,0,0,.69,0c0-7.7-.36-15.34.21-23,0-.44-0.65-0.44-0.69,0" transform="translate(10.9 0.04)"/><path class="cls-4" d="M272,32.09c0.31,7.42.24,14.82,0.35,22.24a0.34,0.34,0,0,0,.69,0,190.67,190.67,0,0,0-.42-22.24c0-.39-0.64-0.4-0.62,0" transform="translate(10.9 0.04)"/><path class="cls-4" d="M276,31.15c-0.25,8.1-.92,16.14-1.31,24.23,0,0.45.63,0.42,0.68,0a219,219,0,0,0,1.24-24.23,0.31,0.31,0,0,0-.62,0" transform="translate(10.9 0.04)"/><path class="cls-4" d="M279.26,31.49a154.81,154.81,0,0,0-1.77,23.78,0.33,0.33,0,0,0,.67,0,211.9,211.9,0,0,1,1.65-23.7,0.28,0.28,0,0,0-.55-0.07" transform="translate(10.9 0.04)"/><path class="cls-4" d="M281,31.88c-0.63,7.77-1.16,15.57-1.21,23.37a0.38,0.38,0,0,0,.76,0c0.23-7.8.58-15.58,1.09-23.37,0-.41-0.61-0.41-0.64,0" transform="translate(10.9 0.04)"/><path class="cls-4" d="M283.27,31.78c-0.59,8.08-1.05,16.22-1,24.32a0.35,0.35,0,0,0,.7,0c0.3-8.11.47-16.22,0.93-24.33,0-.41-0.6-0.4-0.63,0" transform="translate(10.9 0.04)"/><path class="cls-4" d="M286.86,30.88a156.47,156.47,0,0,0-1,24.71,0.35,0.35,0,0,0,.69,0c0-8.28.18-16.46,0.92-24.71,0-.37-0.53-0.36-0.57,0" transform="translate(10.9 0.04)"/><path class="cls-4" d="M289.48,31.05c-0.3,8.17-.68,16.36-0.81,24.53a0.36,0.36,0,0,0,.71,0c0.39-8.17.52-16.36,0.74-24.53a0.32,0.32,0,0,0-.64,0" transform="translate(10.9 0.04)"/><path class="cls-4" d="M292.36,31.63c0.26,7.76-.14,15.39-0.43,23.14,0,0.48.67,0.45,0.73,0A124.2,124.2,0,0,0,293,31.63a0.34,0.34,0,0,0-.67,0" transform="translate(10.9 0.04)"/><path class="cls-4" d="M295.56,30.66c0.16,8.59,0,17.18.16,25.76a0.36,0.36,0,0,0,.71,0c0.4-8.55.12-17.2-.22-25.76a0.33,0.33,0,0,0-.65,0" transform="translate(10.9 0.04)"/><path class="cls-4" d="M298.46,31.84c0,7.68-.16,15.39.07,23.06a0.39,0.39,0,0,0,.78,0c0.17-7.68,0-15.38-.1-23.06a0.38,0.38,0,0,0-.76,0" transform="translate(10.9 0.04)"/><path class="cls-4" d="M301.63,31.78c-0.06,7.92-.23,15.89,0,23.81a0.37,0.37,0,0,0,.74,0c0.23-7.92,0-15.88-.07-23.81a0.34,0.34,0,0,0-.69,0" transform="translate(10.9 0.04)"/><path class="cls-4" d="M304.39,31.36A187.71,187.71,0,0,0,305,55.79c0.05,0.49.8,0.51,0.78,0-0.33-8.16-.73-16.26-0.6-24.43a0.38,0.38,0,0,0-.75,0" transform="translate(10.9 0.04)"/><path class="cls-4" d="M307.41,30.88c0,8,.15,16,0.68,24a0.4,0.4,0,0,0,.79,0c-0.24-8-.57-16-0.82-24a0.33,0.33,0,0,0-.65,0" transform="translate(10.9 0.04)"/><path class="cls-4" d="M309.88,31.62c0.31,7.72.3,15.41,0.12,23.13a0.4,0.4,0,0,0,.8,0,230.55,230.55,0,0,0-.24-23.13,0.34,0.34,0,0,0-.67,0" transform="translate(10.9 0.04)"/><path class="cls-4" d="M312.92,31c-0.17,8-.48,15.94-0.42,23.91a0.37,0.37,0,0,0,.73,0c0.33-8,.3-15.94.4-23.91a0.36,0.36,0,0,0-.71,0" transform="translate(10.9 0.04)"/><path class="cls-4" d="M314.93,32.3c0.32,7.2.25,14.41,0.52,21.6a0.34,0.34,0,0,0,.68,0,215.58,215.58,0,0,0-.54-21.6,0.33,0.33,0,0,0-.66,0" transform="translate(10.9 0.04)"/><path class="cls-4" d="M343.21,32.3c0.32,7.2.24,14.41,0.51,21.6a0.34,0.34,0,0,0,.68,0,214.75,214.75,0,0,0-.54-21.6,0.33,0.33,0,0,0-.66,0" transform="translate(10.9 0.04)"/><path class="cls-4" d="M317.68,32.4c0.42,7.87.48,15.72,0.49,23.6a0.4,0.4,0,0,0,.81,0,223.94,223.94,0,0,0-.55-23.6c0-.47-0.77-0.48-0.74,0" transform="translate(10.9 0.04)"/><path class="cls-4" d="M321.38,32.56c-0.16,7.38-.5,14.81-0.32,22.19a0.33,0.33,0,0,0,.65,0c0.41-7.37.26-14.81,0.33-22.19a0.33,0.33,0,0,0-.67,0" transform="translate(10.9 0.04)"/><path class="cls-4" d="M324.32,32c0.14,7.55-.06,15.08-0.08,22.63a0.39,0.39,0,0,0,.78,0c0.2-7.53.34-15.1,0-22.63a0.34,0.34,0,0,0-.68,0" transform="translate(10.9 0.04)"/><path class="cls-4" d="M327.75,31.49c0,7.8-1,15.56-1.2,23.35a0.37,0.37,0,0,0,.73,0,184,184,0,0,0,1.11-23.35,0.32,0.32,0,0,0-.64,0" transform="translate(10.9 0.04)"/><path class="cls-4" d="M331.24,31.87c-0.14,7.82-.58,15.59-1.08,23.39,0,0.53.76,0.51,0.81,0a226.25,226.25,0,0,0,1-23.39,0.36,0.36,0,0,0-.73,0" transform="translate(10.9 0.04)"/><path class="cls-4" d="M333.7,31.45c-0.08,7.66-.17,15.31-0.32,23a0.4,0.4,0,0,0,.8,0c0.2-7.65.29-15.32,0.18-23a0.33,0.33,0,0,0-.66,0" transform="translate(10.9 0.04)"/><path class="cls-4" d="M337.1,31.8c-0.18,7.73-.66,15.43-1.14,23.15,0,0.51.75,0.5,0.79,0,0.72-7.69.94-15.43,1.07-23.15a0.36,0.36,0,0,0-.72,0" transform="translate(10.9 0.04)"/><path class="cls-4" d="M339.67,31.79c0.47,7.26.72,14.52,0.84,21.79a0.44,0.44,0,0,0,.87,0c0-7.27-.39-14.55-1-21.79,0-.45-0.73-0.46-0.7,0" transform="translate(10.9 0.04)"/><path class="cls-4" d="M346.22,32.3c-0.12,7.12-.23,14.26-0.14,21.39a0.32,0.32,0,0,0,.64,0c0.18-7.12.14-14.26,0.11-21.38a0.31,0.31,0,0,0-.61,0" transform="translate(10.9 0.04)"/><path class="cls-4" d="M348.78,32.41c0,7.65-.08,15.32.14,23a0.39,0.39,0,0,0,.78,0c0-7.66-.22-15.31-0.28-23a0.32,0.32,0,0,0-.65,0" transform="translate(10.9 0.04)"/><path class="cls-4" d="M351.13,32c0.12,7.36.1,14.76,0.5,22.11a0.37,0.37,0,0,0,.73,0c0-7.36-.31-14.75-0.57-22.11a0.33,0.33,0,0,0-.67,0" transform="translate(10.9 0.04)"/><path class="cls-4" d="M353.92,32.69a156,156,0,0,0,.84,21.8c0.06,0.46.78,0.49,0.75,0-0.46-7.28-.91-14.51-0.88-21.8a0.35,0.35,0,0,0-.7,0" transform="translate(10.9 0.04)"/><path class="cls-4" d="M356.33,32.51c0.33,7.75.53,15.53,1.14,23.26a0.37,0.37,0,0,0,.74,0c-0.15-7.75-.77-15.52-1.2-23.26a0.34,0.34,0,0,0-.68,0" transform="translate(10.9 0.04)"/><path class="cls-4" d="M360.1,32.83a150.9,150.9,0,0,0-.21,23,0.34,0.34,0,0,0,.69,0c0-7.7-.36-15.34.21-23,0-.44-0.65-0.44-0.69,0" transform="translate(10.9 0.04)"/><path class="cls-4" d="M362.19,32.08c0.31,7.42.24,14.82,0.35,22.24a0.34,0.34,0,0,0,.69,0,189.9,189.9,0,0,0-.42-22.24,0.31,0.31,0,0,0-.62,0" transform="translate(10.9 0.04)"/><path class="cls-4" d="M365.8,31.15c-0.25,8.1-.92,16.14-1.31,24.23,0,0.45.63,0.42,0.68,0a220,220,0,0,0,1.24-24.23,0.31,0.31,0,0,0-.62,0" transform="translate(10.9 0.04)"/><path class="cls-4" d="M369,31.49a154.7,154.7,0,0,0-1.77,23.78,0.33,0.33,0,0,0,.67,0,211.88,211.88,0,0,1,1.65-23.7,0.28,0.28,0,0,0-.54-0.07" transform="translate(10.9 0.04)"/><path class="cls-4" d="M370.72,31.88c-0.62,7.77-1.16,15.57-1.21,23.37a0.38,0.38,0,0,0,.76,0c0.23-7.8.58-15.58,1.09-23.37,0-.41-0.61-0.41-0.64,0" transform="translate(10.9 0.04)"/><path class="cls-4" d="M373,31.78C372.44,39.86,372,48,372,56.1a0.35,0.35,0,0,0,.7,0c0.29-8.11.47-16.22,0.93-24.32,0-.41-0.6-0.4-0.63,0" transform="translate(10.9 0.04)"/><path class="cls-4" d="M376.61,30.87a156.36,156.36,0,0,0-1,24.71,0.35,0.35,0,0,0,.69,0c0-8.28.18-16.46,0.92-24.71,0-.37-0.53-0.36-0.57,0" transform="translate(10.9 0.04)"/><path class="cls-4" d="M379.23,31c-0.3,8.17-.68,16.36-0.81,24.54a0.36,0.36,0,0,0,.71,0c0.39-8.17.52-16.36,0.74-24.53a0.32,0.32,0,0,0-.64,0" transform="translate(10.9 0.04)"/><path class="cls-4" d="M382.11,31.62c0.26,7.76-.14,15.39-0.44,23.14,0,0.48.67,0.45,0.73,0a124.06,124.06,0,0,0,.38-23.14,0.33,0.33,0,0,0-.67,0" transform="translate(10.9 0.04)"/><path class="cls-4" d="M385.32,30.66c0.16,8.59,0,17.18.16,25.76a0.36,0.36,0,0,0,.71,0c0.41-8.55.12-17.2-.22-25.76a0.33,0.33,0,0,0-.65,0" transform="translate(10.9 0.04)"/><path class="cls-4" d="M388.22,31.83c0,7.68-.16,15.39.07,23.06a0.39,0.39,0,0,0,.78,0c0.17-7.68,0-15.38-.1-23.06a0.38,0.38,0,0,0-.76,0" transform="translate(10.9 0.04)"/><path class="cls-4" d="M391.39,31.77c-0.06,7.92-.24,15.89,0,23.81a0.37,0.37,0,0,0,.74,0c0.23-7.92,0-15.89-.07-23.81a0.34,0.34,0,0,0-.69,0" transform="translate(10.9 0.04)"/><path class="cls-4" d="M394.15,31.36a187.12,187.12,0,0,0,.57,24.43c0,0.49.8,0.51,0.78,0-0.33-8.16-.73-16.26-0.6-24.43a0.38,0.38,0,0,0-.75,0" transform="translate(10.9 0.04)"/><path class="cls-4" d="M397.16,30.87c0,8,.16,16,0.68,24a0.4,0.4,0,0,0,.79,0c-0.24-8-.57-16-0.82-24a0.33,0.33,0,0,0-.65,0" transform="translate(10.9 0.04)"/><path class="cls-4" d="M399.63,31.61c0.31,7.72.3,15.41,0.12,23.13a0.4,0.4,0,0,0,.8,0,230.6,230.6,0,0,0-.24-23.13,0.34,0.34,0,0,0-.68,0" transform="translate(10.9 0.04)"/><path class="cls-4" d="M402.68,31c-0.17,8-.48,15.94-0.42,23.91a0.37,0.37,0,0,0,.73,0c0.33-8,.3-15.94.4-23.91a0.36,0.36,0,0,0-.71,0" transform="translate(10.9 0.04)"/><path class="cls-4" d="M404.69,32.3c0.32,7.2.25,14.41,0.51,21.6a0.34,0.34,0,0,0,.68,0,215,215,0,0,0-.53-21.6,0.33,0.33,0,0,0-.66,0" transform="translate(10.9 0.04)"/><path class="cls-4" d="M433,32.29c0.32,7.2.25,14.41,0.51,21.6a0.34,0.34,0,0,0,.68,0,215,215,0,0,0-.54-21.6,0.33,0.33,0,0,0-.66,0" transform="translate(10.9 0.04)"/><path class="cls-4" d="M407.43,32.39c0.42,7.87.48,15.72,0.49,23.61a0.4,0.4,0,0,0,.81,0,224,224,0,0,0-.55-23.6c0-.47-0.77-0.48-0.74,0" transform="translate(10.9 0.04)"/><path class="cls-4" d="M411.13,32.55c-0.16,7.38-.5,14.81-0.32,22.19a0.33,0.33,0,0,0,.65,0c0.41-7.37.26-14.81,0.33-22.19a0.34,0.34,0,0,0-.67,0" transform="translate(10.9 0.04)"/><path class="cls-4" d="M414.07,32c0.14,7.55-.06,15.08-0.08,22.63a0.39,0.39,0,0,0,.78,0c0.2-7.53.34-15.1,0-22.63a0.34,0.34,0,0,0-.68,0" transform="translate(10.9 0.04)"/><path class="cls-4" d="M417.51,31.48c0,7.8-1,15.56-1.2,23.35a0.36,0.36,0,0,0,.73,0,183.48,183.48,0,0,0,1.11-23.35,0.32,0.32,0,0,0-.64,0" transform="translate(10.9 0.04)"/><path class="cls-4" d="M421,31.87c-0.13,7.82-.58,15.59-1.08,23.39,0,0.53.76,0.51,0.81,0a226.27,226.27,0,0,0,1-23.39,0.36,0.36,0,0,0-.73,0" transform="translate(10.9 0.04)"/><path class="cls-4" d="M423.46,31.45c-0.08,7.66-.17,15.31-0.32,23a0.4,0.4,0,0,0,.8,0c0.2-7.65.28-15.32,0.18-23a0.33,0.33,0,0,0-.66,0" transform="translate(10.9 0.04)"/><path class="cls-4" d="M426.85,31.79c-0.18,7.73-.66,15.43-1.14,23.15,0,0.51.74,0.5,0.79,0,0.72-7.69.94-15.43,1.07-23.15a0.36,0.36,0,0,0-.72,0" transform="translate(10.9 0.04)"/><path class="cls-4" d="M429.42,31.79c0.47,7.26.72,14.52,0.84,21.79a0.44,0.44,0,0,0,.87,0c0-7.27-.39-14.55-1-21.79,0-.45-0.73-0.46-0.7,0" transform="translate(10.9 0.04)"/><path class="cls-4" d="M436,32.3c-0.12,7.12-.23,14.26-0.14,21.39a0.32,0.32,0,0,0,.64,0c0.18-7.12.14-14.26,0.11-21.39a0.31,0.31,0,0,0-.61,0" transform="translate(10.9 0.04)"/><path class="cls-4" d="M438.53,32.4c0,7.65-.08,15.32.14,23a0.39,0.39,0,0,0,.78,0c0-7.66-.22-15.31-0.28-23a0.32,0.32,0,0,0-.65,0" transform="translate(10.9 0.04)"/><path class="cls-4" d="M440.88,32c0.12,7.36.1,14.76,0.5,22.11a0.37,0.37,0,0,0,.74,0c0-7.36-.31-14.75-0.57-22.11a0.33,0.33,0,0,0-.67,0" transform="translate(10.9 0.04)"/><path class="cls-4" d="M443.67,32.69a156.46,156.46,0,0,0,.84,21.8c0.06,0.46.78,0.49,0.75,0-0.46-7.28-.9-14.51-0.88-21.8a0.35,0.35,0,0,0-.7,0" transform="translate(10.9 0.04)"/><path class="cls-4" d="M446.09,32.5c0.33,7.75.53,15.53,1.14,23.26a0.37,0.37,0,0,0,.74,0c-0.15-7.75-.77-15.52-1.2-23.26a0.34,0.34,0,0,0-.68,0" transform="translate(10.9 0.04)"/><path class="cls-4" d="M449.86,32.83a151,151,0,0,0-.21,23,0.34,0.34,0,0,0,.69,0c0-7.7-.36-15.33.21-23,0-.44-0.65-0.44-0.69,0" transform="translate(10.9 0.04)"/><path class="cls-4" d="M451.95,32.08c0.31,7.42.24,14.82,0.35,22.24a0.34,0.34,0,0,0,.69,0,190.29,190.29,0,0,0-.42-22.24,0.31,0.31,0,0,0-.62,0" transform="translate(10.9 0.04)"/><path class="cls-4" d="M456.08,31.14c-0.25,8.1-.92,16.14-1.31,24.23,0,0.45.63,0.42,0.68,0a220,220,0,0,0,1.24-24.23,0.31,0.31,0,0,0-.62,0" transform="translate(10.9 0.04)"/><path class="cls-4" d="M459.3,31.48a154.7,154.7,0,0,0-1.77,23.78,0.33,0.33,0,0,0,.67,0,211.91,211.91,0,0,1,1.65-23.7,0.28,0.28,0,0,0-.54-0.07" transform="translate(10.9 0.04)"/><path class="cls-4" d="M461,31.87c-0.62,7.77-1.16,15.57-1.21,23.37a0.38,0.38,0,0,0,.76,0c0.22-7.8.58-15.58,1.09-23.37,0-.41-0.61-0.41-0.64,0" transform="translate(10.9 0.04)"/><path class="cls-4" d="M463.31,31.77c-0.59,8.08-1.05,16.22-1,24.32a0.35,0.35,0,0,0,.7,0c0.3-8.11.47-16.22,0.93-24.32,0-.41-0.6-0.4-0.63,0" transform="translate(10.9 0.04)"/><path class="cls-4" d="M466.9,30.87a156.26,156.26,0,0,0-1,24.71,0.35,0.35,0,0,0,.69,0c0-8.28.18-16.46,0.92-24.71,0-.37-0.53-0.36-0.57,0" transform="translate(10.9 0.04)"/><path class="cls-4" d="M469.52,31c-0.3,8.17-.68,16.36-0.81,24.53a0.36,0.36,0,0,0,.71,0c0.39-8.17.52-16.36,0.74-24.53a0.32,0.32,0,0,0-.64,0" transform="translate(10.9 0.04)"/><path class="cls-4" d="M472.4,31.62c0.26,7.76-.14,15.39-0.43,23.14,0,0.48.67,0.45,0.73,0a124.2,124.2,0,0,0,.38-23.14,0.34,0.34,0,0,0-.67,0" transform="translate(10.9 0.04)"/><path class="cls-4" d="M475.6,30.65c0.16,8.59,0,17.18.16,25.76a0.36,0.36,0,0,0,.71,0c0.41-8.55.12-17.2-.22-25.76a0.33,0.33,0,0,0-.65,0" transform="translate(10.9 0.04)"/><path class="cls-4" d="M478.5,31.83c0,7.68-.16,15.39.07,23.06a0.39,0.39,0,0,0,.78,0c0.17-7.68,0-15.38-.1-23.06a0.38,0.38,0,0,0-.76,0" transform="translate(10.9 0.04)"/><path class="cls-4" d="M481.67,31.77c-0.06,7.92-.24,15.89,0,23.81a0.37,0.37,0,0,0,.74,0c0.23-7.92,0-15.89-.07-23.81a0.34,0.34,0,0,0-.69,0" transform="translate(10.9 0.04)"/><path class="cls-4" d="M484.43,31.35A187.26,187.26,0,0,0,485,55.78c0,0.49.8,0.51,0.78,0-0.33-8.16-.73-16.26-0.6-24.43a0.38,0.38,0,0,0-.75,0" transform="translate(10.9 0.04)"/><path class="cls-4" d="M487.45,30.87c0,8,.16,16,0.68,24a0.4,0.4,0,0,0,.79,0c-0.24-8-.57-16-0.82-24a0.33,0.33,0,0,0-.65,0" transform="translate(10.9 0.04)"/><path class="cls-4" d="M489.92,31.6c0.31,7.72.3,15.41,0.12,23.13a0.4,0.4,0,0,0,.8,0,230.31,230.31,0,0,0-.24-23.13,0.34,0.34,0,0,0-.68,0" transform="translate(10.9 0.04)"/><path class="cls-4" d="M493,31c-0.17,8-.48,15.94-0.42,23.9a0.37,0.37,0,0,0,.73,0c0.33-8,.3-15.94.4-23.91a0.36,0.36,0,0,0-.71,0" transform="translate(10.9 0.04)"/><path class="cls-4" d="M495,32.29c0.32,7.2.25,14.41,0.51,21.6a0.34,0.34,0,0,0,.68,0,215,215,0,0,0-.54-21.6,0.33,0.33,0,0,0-.66,0" transform="translate(10.9 0.04)"/><path class="cls-4" d="M523.25,32.29c0.32,7.2.25,14.41,0.51,21.6a0.34,0.34,0,0,0,.68,0,215.31,215.31,0,0,0-.54-21.6,0.33,0.33,0,0,0-.66,0" transform="translate(10.9 0.04)"/><path class="cls-4" d="M497.71,32.39c0.42,7.87.48,15.72,0.49,23.61a0.4,0.4,0,0,0,.81,0,223.74,223.74,0,0,0-.55-23.6c0-.47-0.77-0.48-0.74,0" transform="translate(10.9 0.04)"/><path class="cls-4" d="M501.41,32.54c-0.16,7.38-.5,14.81-0.32,22.19a0.33,0.33,0,0,0,.65,0c0.41-7.37.26-14.81,0.33-22.19a0.33,0.33,0,0,0-.67,0" transform="translate(10.9 0.04)"/><path class="cls-4" d="M504.35,32c0.15,7.55-.06,15.08-0.08,22.63a0.39,0.39,0,0,0,.78,0c0.2-7.53.34-15.1,0-22.63a0.34,0.34,0,0,0-.68,0" transform="translate(10.9 0.04)"/><path class="cls-4" d="M507.79,31.47c0,7.8-1,15.56-1.2,23.35a0.36,0.36,0,0,0,.73,0,183.47,183.47,0,0,0,1.11-23.35,0.32,0.32,0,0,0-.64,0" transform="translate(10.9 0.04)"/><path class="cls-4" d="M511.28,31.86c-0.13,7.82-.58,15.59-1.08,23.39,0,0.53.76,0.51,0.81,0a226.73,226.73,0,0,0,1-23.39,0.37,0.37,0,0,0-.73,0" transform="translate(10.9 0.04)"/><path class="cls-4" d="M513.74,31.44c-0.08,7.66-.17,15.31-0.32,23a0.4,0.4,0,0,0,.8,0c0.2-7.65.29-15.32,0.18-23a0.33,0.33,0,0,0-.66,0" transform="translate(10.9 0.04)"/><path class="cls-4" d="M517.14,31.79c-0.18,7.73-.66,15.43-1.14,23.15,0,0.51.74,0.5,0.79,0,0.72-7.69.94-15.43,1.07-23.15a0.36,0.36,0,0,0-.72,0" transform="translate(10.9 0.04)"/><path class="cls-4" d="M519.71,31.78c0.47,7.26.72,14.52,0.84,21.79a0.44,0.44,0,0,0,.87,0c0-7.27-.38-14.55-1-21.79,0-.45-0.73-0.46-0.7,0" transform="translate(10.9 0.04)"/><path class="cls-4" d="M526.26,32.29c-0.12,7.12-.23,14.26-0.14,21.39a0.32,0.32,0,0,0,.64,0c0.18-7.12.14-14.26,0.11-21.39a0.31,0.31,0,0,0-.61,0" transform="translate(10.9 0.04)"/><path class="cls-4" d="M528.82,32.39c0,7.65-.08,15.32.15,23a0.39,0.39,0,0,0,.78,0c0-7.66-.22-15.31-0.28-23a0.32,0.32,0,0,0-.65,0" transform="translate(10.9 0.04)"/><path class="cls-4" d="M531.16,32c0.12,7.36.1,14.76,0.5,22.11a0.37,0.37,0,0,0,.73,0c0-7.36-.31-14.75-0.57-22.11a0.33,0.33,0,0,0-.66,0" transform="translate(10.9 0.04)"/><path class="cls-4" d="M534,32.68a156.35,156.35,0,0,0,.84,21.8c0.06,0.46.78,0.49,0.75,0-0.46-7.28-.9-14.51-0.88-21.8a0.35,0.35,0,0,0-.7,0" transform="translate(10.9 0.04)"/><path class="cls-4" d="M536.37,32.49c0.33,7.75.53,15.53,1.14,23.26a0.37,0.37,0,0,0,.74,0c-0.15-7.75-.77-15.52-1.2-23.26a0.34,0.34,0,0,0-.68,0" transform="translate(10.9 0.04)"/><path class="cls-4" d="M540.14,32.82a150.9,150.9,0,0,0-.21,23,0.34,0.34,0,0,0,.69,0c0-7.7-.36-15.33.21-23,0-.44-0.65-0.44-0.69,0" transform="translate(10.9 0.04)"/><path class="cls-4" d="M542.23,32.07c0.31,7.42.24,14.82,0.35,22.24a0.34,0.34,0,0,0,.69,0,190.47,190.47,0,0,0-.42-22.24c0-.39-0.64-0.4-0.62,0" transform="translate(10.9 0.04)"/><path class="cls-4" d="M545.84,31.13c-0.25,8.1-.92,16.14-1.31,24.23,0,0.45.63,0.42,0.68,0a219.35,219.35,0,0,0,1.24-24.23,0.31,0.31,0,0,0-.62,0" transform="translate(10.9 0.04)"/><path class="cls-4" d="M549.06,31.47a154.49,154.49,0,0,0-1.77,23.78,0.33,0.33,0,0,0,.66,0,212.09,212.09,0,0,1,1.65-23.7,0.28,0.28,0,0,0-.54-0.07" transform="translate(10.9 0.04)"/><path class="cls-4" d="M550.76,31.86c-0.62,7.77-1.16,15.57-1.21,23.37a0.38,0.38,0,0,0,.76,0c0.22-7.8.58-15.58,1.1-23.37,0-.41-0.61-0.41-0.64,0" transform="translate(10.9 0.04)"/><path class="cls-4" d="M553.06,31.76c-0.58,8.08-1.05,16.22-1,24.32a0.35,0.35,0,0,0,.7,0c0.3-8.11.47-16.22,0.93-24.32,0-.41-0.6-0.4-0.63,0" transform="translate(10.9 0.04)"/><path class="cls-4" d="M556.65,30.86a156.15,156.15,0,0,0-1,24.71,0.35,0.35,0,0,0,.69,0c0-8.28.18-16.46,0.92-24.71,0-.37-0.53-0.36-0.57,0" transform="translate(10.9 0.04)"/><path class="cls-4" d="M559.27,31c-0.3,8.17-.68,16.36-0.81,24.54a0.36,0.36,0,0,0,.71,0c0.39-8.17.52-16.36,0.74-24.54a0.32,0.32,0,0,0-.64,0" transform="translate(10.9 0.04)"/></g><path class="cls-5" d="M388.17,48.57c-1.39-1.53-2.42-4.19-4-5.45a5.54,5.54,0,0,0-2.85-1.2c4.18-1.38,7.83-4.25,11.4-7.07,7.08-5.58,13.76-10.85,23.9-4.32a0.63,0.63,0,0,0,.68-1.06c-4.7-3-8.75-3.66-12.4-3a5.34,5.34,0,0,0,1.64-2.38c0.45-1.36.7-5.09-.19-6.3-1.19,1.68-3.57,3.27-4.46,5.08a6.48,6.48,0,0,0-.31,4.62c-3.43,1.45-6.56,3.9-9.63,6.33-5.24,4.13-10.65,8.4-17.52,7.54a89.08,89.08,0,0,1-15.77-3.7c4-1.1,6.29-5.26,8.71-9.6,0.82-1.48,1.67-3,2.61-4.46l0.48-.74a10.14,10.14,0,0,1,4.66,2.39c1.29,1.17,3.08,4.39,5.17,4,2.37-.48,1.79-3.67.58-5-1.51-1.61-3.91-2-6-2.2a14.83,14.83,0,0,0-4,.16,27.58,27.58,0,0,1,13.8-11,0.63,0.63,0,0,0-.38-1.2h-0.08a36.92,36.92,0,0,0-3.79,1.75,7.12,7.12,0,0,0,1.66-4.11c0.1-1.82-.88-6.5-2.38-7.69-0.89,2.48-3.27,5.24-3.76,7.77s0.3,4.11,1.28,6a28.56,28.56,0,0,0-7.35,7.67c-0.3-2.33-.55-4.93-3.06-6-1.47-.6-2,0.65-1.57,1.9a6.1,6.1,0,0,0,2.29,2.55,11.91,11.91,0,0,1,2,2l-0.67,1c-1,1.5-1.82,3-2.65,4.53-3,5.41-5.54,9.9-10.89,9.14-2.32-.78-4.62-1.59-6.9-2.4L345.22,33a6.41,6.41,0,0,0,4.59-1.73c1-1,2.83-4.28,2.56-5.77-1.8,1-4.63,1.41-6.22,2.65a6.81,6.81,0,0,0-2.36,4.35,116.32,116.32,0,0,0-19-5.21c2-1.16,4.1-2.42,4.06-5,0-1.59-1.39-1.59-2.37-.69A6.1,6.1,0,0,0,325,24.75a12.36,12.36,0,0,1-.92,2.52,51.87,51.87,0,0,0-13.88-.39c-11.59,1.33-22,6.71-31.49,12.32a0.63,0.63,0,0,0,.64,1.08c9.39-5.54,19.64-10.85,31-12.16a45.36,45.36,0,0,1,5.15-.29,10.2,10.2,0,0,1,3.85,4c0.82,1.54,1.39,5.18,3.5,5.49,2.39,0.36,2.94-2.84,2.24-4.46-0.87-2-3-3.2-4.88-4.11a14.34,14.34,0,0,0-2.31-.86c10.26,0.49,20.3,4,30.08,7.49l2.42,0.85a15.63,15.63,0,0,0,4.66,1.6A99.25,99.25,0,0,0,374.2,42.6a15.51,15.51,0,0,0,4.76-.14c0.45,2,1.19,3.84,2.94,4.89C383.2,48.09,386.78,49.21,388.17,48.57Z" transform="translate(10.9 0.04)"/><path class="cls-5" d="M282.29,38.43l-0.78.33c-0.5.22-1.26,0.53-2.23,0.91a69,69,0,0,1-8.19,2.57,67.8,67.8,0,0,1-12,1.85,49.13,49.13,0,0,1-6.87,0,23.12,23.12,0,0,1-7-1.55,15.34,15.34,0,0,1-5.85-4.15,10.74,10.74,0,0,1-2.68-6.45,6.62,6.62,0,0,1,.75-3.36,8,8,0,0,1,2.18-2.49,7.1,7.1,0,0,1,5.69-1.61A4.55,4.55,0,0,1,249,28a3.75,3.75,0,0,1-1.57,3.69,2.62,2.62,0,0,1-2.73.14A1.78,1.78,0,0,1,244,31l0.8-.36a0.9,0.9,0,0,0,.39.41,1.75,1.75,0,0,0,1.81-.13,2.88,2.88,0,0,0,1.19-2.71,3.65,3.65,0,0,0-3-2.74,6.2,6.2,0,0,0-4.93,1.44,7.15,7.15,0,0,0-2,2.18,5.67,5.67,0,0,0-.64,2.91,9.81,9.81,0,0,0,2.47,5.86,14.38,14.38,0,0,0,5.51,3.88,22.18,22.18,0,0,0,6.68,1.46,48.18,48.18,0,0,0,6.72,0,66.78,66.78,0,0,0,11.84-2,67.89,67.89,0,0,0,8.06-2.56c0.94-.38,1.68-0.68,2.19-0.9l0.78-.33Z" transform="translate(10.9 0.04)"/><circle class="cls-5" cx="255.95" cy="30.57" r="1.21"/><path class="cls-5" d="M33.15,40.09a96.78,96.78,0,0,0,10.77-6.7L44,33.33a7.09,7.09,0,0,1-5.57,0c-1.37-.69-4.36-3.32-4.61-4.91C36,28.79,39,28.21,41,28.9a5.8,5.8,0,0,1,2.15,1.31,4.27,4.27,0,0,1-.32-1.51c0-1.2.68-4.25,1.69-5,0.55,1.64,2.07,3.49,2.34,5.17a4.72,4.72,0,0,1-.4,2.84l1.61-1.06a48.24,48.24,0,0,1,11.85-5.56A16.87,16.87,0,0,1,58,25c-2.54-.33-5.42-0.86-7.19-2.86-1.41-1.59-2-5.45.86-6,2.54-.45,4.58,3.5,6.11,5a12.21,12.21,0,0,0,5.54,3,130.66,130.66,0,0,1,16.93-2.64l0.87-.1A161.19,161.19,0,0,1,98.69,20.2,7.06,7.06,0,0,1,94,17.38c-0.83-1.28-2.08-5.07-1.49-6.57,1.69,1.42,4.56,2.43,6,4.06S100,18.25,100,20.21a73.11,73.11,0,0,1,21.37,3A118.06,118.06,0,0,1,137,29.9l2.9,1.4c-1.74-2.15-3.64-4.5-2.47-7.46,0.7-1.78,2.25-1.2,3,.23a7.36,7.36,0,0,1,.3,4.12,14.09,14.09,0,0,0,0,3.49,104.45,104.45,0,0,0,9.83,4.19c10.18,3.61,19.52,2.6,29.45,2.6,1.86,0,2.34,1.52.08,1.52-10.08,0-19.57,1-30-2.68-0.77-.28-1.54-0.58-2.3-0.88A5.35,5.35,0,0,1,149.46,40c0,1.23-.74,4.37-1.79,5.14-0.54-1.65-2-3.52-2.33-5.21A5.47,5.47,0,0,1,144,41.48c-1.24.89-5,2.33-6.49,1.8,1.34-1.75,2.2-4.68,3.77-6.16a6.47,6.47,0,0,1,4.08-1.73c-3-1.3-6-2.72-8.88-4.13-3.45-1.68-7-3.38-10.6-4.84a12.08,12.08,0,0,0-5.35,1.67c-1.8,1.07-4.68,4.47-7.05,3.47-2.69-1.13-1.25-4.77.48-6a9.14,9.14,0,0,1,5.72-1.31,77,77,0,0,0-22.32-2.56A5.52,5.52,0,0,1,95.08,25c-1.43.9-3.82,1-5.42,1.68-0.11-1.26,1.7-3.82,2.62-4.6l0.27-.19c-3.92.2-7.69,0.56-11.16,1l-0.87.1c-2.67.3-5.21,0.59-7.67,0.92a14,14,0,0,0-.79,3.42,7.36,7.36,0,0,1-1.21,4c-1,1.24-2.66,1.45-2.94-.44-0.49-3.22,2-5.1,4.22-6.84a79.06,79.06,0,0,0-9.48,1.86,18.2,18.2,0,0,0-.84,3.87c-0.22,1.69-.34,3.43-1.47,4.82S57.1,36.32,56.75,34c-0.54-3.55,1.9-5.76,4.37-7.73a46.79,46.79,0,0,0-12.2,5.57c-1.3.83-2.69,1.78-4.16,2.78-3.07,2.09-6.14,4.2-9.22,5.91C33.28,41.8,31.54,40.9,33.15,40.09Z" transform="translate(10.9 0.04)"/><path class="cls-6" d="M547.42,39.86c-1,0-2.58-.1-4.6-0.25-4-.32-10-1.16-17.45-2.28s-16.61-2.84-27.11-4.57-22.41-3.52-35.52-4.43a216.18,216.18,0,0,0-42.47,1c-1.88.21-3.74,0.57-5.67,0.84s-3.78.65-5.67,1c-3.83.74-7.61,1.61-11.45,2.52-7.66,1.81-15.41,3.87-23.36,5.52a122.59,122.59,0,0,1-24.47,2.88,84.32,84.32,0,0,1-12.51-.87c-4.17-.6-8.4-1.29-12.62-2-8.5-1.4-17-2.88-25.64-3.89L295.62,35c-1.07-.11-2.17-0.23-3.31-0.29a52.29,52.29,0,0,0-6.68.13,126.82,126.82,0,0,0-13.11,1.82c-8.62,1.59-17.1,3.66-25.55,5.43-4.21.88-8.46,1.71-12.62,2.19a123.21,123.21,0,0,1-12.71.59,117.29,117.29,0,0,1-12.57-.75A120.77,120.77,0,0,1,196.77,42a232.6,232.6,0,0,1-23.63-7.06c-3.87-1.31-7.72-2.62-11.58-3.8s-7.74-2.24-11.63-3.13a111,111,0,0,0-23.2-2.88,125.43,125.43,0,0,0-22,1.64c-7,1.14-13.7,2.59-20.06,4.09S72.27,33.74,66.46,35s-11.34,2.23-16.56,3.1S39.78,39.53,35.22,40s-8.75.6-12.54,0.75c-7.58.21-13.56,0-17.59-.31-2-.11-3.63-0.27-4.64-0.34L0,40v2H0.33C1.39,42.09,3,42.25,5,42.33c4.1,0.18,10.11.36,17.76,0.18A239.21,239.21,0,0,0,50.22,40c10.54-1.54,22.29-4.15,35.07-6.64s26.69-5,41.45-4.41a120.59,120.59,0,0,1,22.38,3c7.55,1.7,15.13,4.12,22.89,6.65a236.06,236.06,0,0,0,24.07,6.87,124.29,124.29,0,0,0,12.68,2,120.59,120.59,0,0,0,13,.61,128.16,128.16,0,0,0,13-.76c4.42-.53,8.66-1.42,12.92-2.34,8.51-1.87,16.94-4,25.44-5.64a124.24,124.24,0,0,1,12.76-1.9,49.67,49.67,0,0,1,6.34-.18c1,0,2.1.14,3.19,0.23l3.22,0.29c8.59,0.89,17.16,2,25.63,3.22,4.24,0.58,8.44,1.3,12.66,1.93a109.41,109.41,0,0,0,12.74,1,130,130,0,0,0,24.93-2.25c8.09-1.39,15.93-3.18,23.61-4.73,3.83-.78,7.65-1.53,11.38-2.13,1.89-.3,3.77-0.59,5.63-0.84s3.69-.47,5.53-0.65a264.47,264.47,0,0,1,41.74-.7c12.9,0.72,24.78,1.89,35.28,3.25s19.65,2.65,27.22,3.76,13.55,1.74,17.65,2c2.06,0.13,3.64.21,4.71,0.21h0.4v-2h-0.32Z" transform="translate(10.9 0.04)"/><path class="cls-5" d="M270.19,44.09c1.48,0.38,1.48,1.82,2.46,2.84,2.42,2.46,5.12,0,7.87.64-1.17-2.08-2.77-5-5.52-4.61a10.94,10.94,0,0,0-2.56.93,3.57,3.57,0,0,1-2.39,0" transform="translate(10.9 0.04)"/><path class="cls-5" d="M270.24,45.64c0.35,1.66-1.08,2.36-1.61,3.84-1.26,3.6,2.46,5.1,3.22,8.12,1.49-2.18,3.57-5.19,1.87-7.74a12.1,12.1,0,0,0-2.18-2.08,4,4,0,0,1-1.17-2.37" transform="translate(10.9 0.04)"/><path class="cls-5" d="M297.54,23.09a6.5,6.5,0,0,0-1,3.69c0,0.32.72,4.08,1.2,3.76,2-1.31,3.8-2.31,4.92-4.51s1.28-4.8,1.64-7.25c-0.47.14-.94,0.27-1.39,0.44A10.59,10.59,0,0,0,297.54,23.09Z" transform="translate(10.9 0.04)"/><path class="cls-5" d="M496.66,39.65l0.6,0c-0.21-1.79-.24-4-1-5.63a8.73,8.73,0,0,0-2.54-3.52c-2.67-2.08-7.08-2.29-9.89-1.34a8.38,8.38,0,0,0,.21,1.48,17.06,17.06,0,0,0,5.12,6.07A15.18,15.18,0,0,0,496.66,39.65Z" transform="translate(10.9 0.04)"/><path class="cls-6" d="M493.26,31.09A13.39,13.39,0,0,0,490,29.91c-0.29-.08-4-1.12-4.86-0.91a0.13,0.13,0,0,0-.1,0c-0.33.11-.13,1.26-0.1,1.49a15.5,15.5,0,0,0,.44,2.66,12.81,12.81,0,0,0,3,5.12,25.74,25.74,0,0,0,4.49,3.26c1.3,0.79,2.7,1.43,4,2.17-0.1-2,0-4-.08-5.92v-0.3A9.13,9.13,0,0,0,493.26,31.09Zm0.32,1.79a9.67,9.67,0,0,1,1.91,3.44,20.52,20.52,0,0,1,.16,5.57c-1-.68-2.21-1.07-3.24-1.74a16.29,16.29,0,0,1-3.29-2.72A9.39,9.39,0,0,1,487,34.3a15.27,15.27,0,0,0-.7-2,9.39,9.39,0,0,1-.58-2.29c1.56,0.44,3.17.69,4.74,1A5.81,5.81,0,0,1,493,32.28a3.77,3.77,0,0,1,.51.61h0.05Z" transform="translate(10.9 0.04)"/><path class="cls-5" d="M374.42,49.09a7.27,7.27,0,0,0-2.8-3.23c-0.3-.19-4.22-1.92-4.23-1.28,0,2.65-.28,5,1,7.39S372,56.23,374,58.09c0.17-.52.34-1,0.47-1.56A11.52,11.52,0,0,0,374.42,49.09Z" transform="translate(10.9 0.04)"/><path class="cls-5" d="M364.66,51.87a6.26,6.26,0,0,0,1-3.54c0-.31-0.6-3.94-1.07-3.65-1.93,1.21-3.71,2.14-4.83,4.24s-1.34,4.6-1.74,6.94c0.45-.12.91-0.24,1.35-0.4A10.19,10.19,0,0,0,364.66,51.87Z" transform="translate(10.9 0.04)"/><path class="cls-5" d="M415.57,28.54c2.09,1.2,4.27,2.25,6.47,3.24s4.44,1.91,6.7,2.77a83.13,83.13,0,0,0,13.86,4.08,32.84,32.84,0,0,0,7.1.64,56,56,0,0,0,20.85-5.18c4.41-2,8.61-4.41,12.84-6.82,2.12-1.2,4.27-2.35,6.5-3.37a28.53,28.53,0,0,1,7-2.26,19.14,19.14,0,0,1,7.4.11,23.87,23.87,0,0,1,6.92,2.68c0.54,0.31,1.07.64,1.58,1a10.3,10.3,0,0,1,1.49,1.22,15.06,15.06,0,0,1,2.39,3,5.68,5.68,0,0,1,.77,1.91,4.28,4.28,0,0,1-.24,2.12,3.72,3.72,0,0,1-1.28,1.73,1.84,1.84,0,0,1-1.38.33,2.14,2.14,0,0,1-1.15-.67h0V35a2.27,2.27,0,0,1-.34-1.59,3.32,3.32,0,0,1,.56-1.34,6.25,6.25,0,0,1,1.9-1.73,9.36,9.36,0,0,1,9.41-.14,12,12,0,0,1,3.6,3.26c0.25,0.33.45,0.63,0.7,1a9.78,9.78,0,0,1,.58,1,10.93,10.93,0,0,1,.85,2.32,12.7,12.7,0,0,1,.16,4.85,15.25,15.25,0,0,1-4.33,8.45,11.06,11.06,0,0,1-4.12,2.59,8.52,8.52,0,0,1-2.44.53,8.67,8.67,0,0,1-2.45-.35,8.22,8.22,0,0,1-4.16-2.59,6.6,6.6,0,0,1-1.54-4.68,6.07,6.07,0,0,1,.69-2.42,6.5,6.5,0,0,1,1.61-1.91,5,5,0,0,1,2.3-1.1,4.2,4.2,0,0,1,2.55.4,3.66,3.66,0,0,1,1.77,1.88,3.52,3.52,0,0,1,0,2.57,2.94,2.94,0,0,1-.69,1.08,3,3,0,0,1-1.15.66,2.85,2.85,0,0,1-2.52-.38l0.41-.57a2.11,2.11,0,0,0,1.86.2,2.23,2.23,0,0,0,.8-0.49,2.09,2.09,0,0,0,.51-0.81,2.62,2.62,0,0,0-.08-1.9,2.67,2.67,0,0,0-1.35-1.33,3.18,3.18,0,0,0-1.91-.26,3.86,3.86,0,0,0-1.77.9A4.89,4.89,0,0,0,513,46.66a5.36,5.36,0,0,0,1.32,3.79,6.92,6.92,0,0,0,3.54,2.11,6.41,6.41,0,0,0,4.09-.14,9.85,9.85,0,0,0,3.48-2.33,13.7,13.7,0,0,0,3.86-7.59,11.13,11.13,0,0,0-.15-4.25,10.35,10.35,0,0,0-1.23-3c-0.16-.26-0.39-0.59-0.6-0.87a10.44,10.44,0,0,0-3.12-2.88,7.89,7.89,0,0,0-8,0,4.86,4.86,0,0,0-1.48,1.31,1.21,1.21,0,0,0-.22,1.36l-0.08-.1a0.79,0.79,0,0,0,.38.26,0.45,0.45,0,0,0,.35-0.1,2.51,2.51,0,0,0,.79-1.13,3,3,0,0,0,.21-1.46,4.5,4.5,0,0,0-.57-1.46,13.88,13.88,0,0,0-2.12-2.75,9,9,0,0,0-1.3-1.12c-0.49-.34-1-0.67-1.49-1a22.94,22.94,0,0,0-6.56-2.72,18.19,18.19,0,0,0-7.08-.25c-4.74.78-9.1,3.1-13.28,5.51S475.38,32.9,471,35a64.24,64.24,0,0,1-6.78,2.84,52.48,52.48,0,0,1-7.12,1.91,50,50,0,0,1-7.33.86,34.12,34.12,0,0,1-7.39-.69,84.36,84.36,0,0,1-14.07-4.19q-3.42-1.31-6.74-2.88a65,65,0,0,1-6.5-3.42Z" transform="translate(10.9 0.04)"/><circle class="cls-5" cx="516.92" cy="46.49" r="1.11" transform="translate(254.72 487.87) rotate(-63.39)"/><path class="cls-5" d="M182,23.72a5.69,5.69,0,0,0,3,1.44c0.27,0,3.63.06,3.43-.41-0.8-1.92-1.36-3.65-3.07-5s-3.92-1.9-6-2.62a7.86,7.86,0,0,0,.15,1.27A9.28,9.28,0,0,0,182,23.72Z" transform="translate(10.9 0.04)"/><path class="cls-5" d="M281.32,37.86c-15,10.37-40.37,13-55.49,2.69-11-7.52-22.35-23.76-37.56-15.62-10.57,5.66-13.15,21.28-3.58,29.28,2.69,2.25,8.22,2.91,8.42-2,0.17-4.18-5.39-5.46-8.57-5.21-15.18,1.2-16.72,20.6-2.88,25.34,1.09,0.37,1.57-.11.5-0.52-10.9-4.15-11.13-20.28,1.2-22.7a13.49,13.49,0,0,1,2.93-.2c9,1.25,4.25,8-.22,3.71a13.62,13.62,0,0,1-3.53-4.54,16.64,16.64,0,0,1-1.32-11.22c2.36-9.27,12.29-13.88,21.11-11.06,6.3,2,11.29,7.25,16.18,11.44,17,14.57,46.06,14.58,64.29.78Z" transform="translate(10.9 0.04)"/><path class="cls-5" d="M389.41,21a3.89,3.89,0,0,1-1.46-.25,2.88,2.88,0,0,1-1.57-1.62,2.28,2.28,0,0,1,0-1.83l1.12,0.55a1.08,1.08,0,0,0,0,.84,1.65,1.65,0,0,0,.88.91,3.74,3.74,0,0,0,3-.37,4.09,4.09,0,0,0,1.52-3.94,4.82,4.82,0,0,0-2.45-3.67,7.2,7.2,0,0,0-5.74-.22l-0.4-1.18a8.44,8.44,0,0,1,6.73.31,6.07,6.07,0,0,1,3.09,4.61,5.27,5.27,0,0,1-2.07,5.13A5,5,0,0,1,389.41,21Z" transform="translate(10.9 0.04)"/><ellipse class="cls-5" cx="387.66" cy="17.88" rx="1.31" ry="1.36" transform="translate(353.88 403.41) rotate(-86.03)"/><path class="cls-5" d="M178.73,70l0.39,0.2c0.25,0.12.64,0.35,1.11,0.54a15.45,15.45,0,0,0,1.73.67,16.08,16.08,0,0,0,2.33.56c0.43,0.09.89,0.1,1.35,0.16a13.93,13.93,0,0,0,1.45,0,10.35,10.35,0,0,0,3-.6,8.69,8.69,0,0,0,2.81-1.54,6.69,6.69,0,0,0,1.1-1.15l0.26-.37a3.48,3.48,0,0,0,.17-0.33,4.46,4.46,0,0,0,.31-0.71,8.84,8.84,0,0,0,.51-3.22,6,6,0,0,0-.83-2.91,3,3,0,0,0-.92-0.94,5.73,5.73,0,0,0-.58-0.24c-0.22,0-.4-0.1-0.64-0.12a3.55,3.55,0,0,0-2.35.64,2.44,2.44,0,0,0-1,1.76,1.77,1.77,0,0,0,.56,1.39,1.42,1.42,0,0,0,.89.42,1.26,1.26,0,0,0,.33,0L190.83,65a2.34,2.34,0,0,1-.55,0,2.77,2.77,0,0,1-1.34-.61,2.67,2.67,0,0,1-1-2,3.53,3.53,0,0,1,1.17-2.61,4.79,4.79,0,0,1,3.16-1.2,6.88,6.88,0,0,1,.94.09,6.18,6.18,0,0,1,1,.32,4.57,4.57,0,0,1,1.55,1.34A7.08,7.08,0,0,1,197,64.09a9.17,9.17,0,0,1-.61,4,6.15,6.15,0,0,1-.45,1c-0.09.16-.18,0.34-0.27,0.47l-0.27.37a8.34,8.34,0,0,1-1.4,1.5,10.41,10.41,0,0,1-3.39,1.8,11.73,11.73,0,0,1-3.49.52,15.41,15.41,0,0,1-1.62-.07c-0.51-.09-1-0.13-1.49-0.25a14.21,14.21,0,0,1-2.49-.79,16.45,16.45,0,0,1-1.81-.88c-0.5-.26-0.82-0.52-1.07-0.67l-0.37-.24Z" transform="translate(10.9 0.04)"/><path class="cls-5" d="M33,42.09c-0.33.24-.71,0.52-1.16,0.82a49.52,49.52,0,0,1-7,4.09,41.85,41.85,0,0,1-5.1,2.09,17,17,0,0,1-6.29.86,10.89,10.89,0,0,1-6.53-2.71,8.18,8.18,0,0,1-2.13-3.15,9.68,9.68,0,0,1-.61-3.69,12.58,12.58,0,0,1,.66-3.57,10.91,10.91,0,0,1,1.68-3.22,8.87,8.87,0,0,1,.6-0.7l0.11-.12,0.07-.07,0.15-.14,0.3-.28A10,10,0,0,1,12.47,30a9.52,9.52,0,0,1,6.43,1,7.84,7.84,0,0,1,3.36,4.77,6.64,6.64,0,0,1,.1,2.62,5.07,5.07,0,0,1-.13.61v0.12a0.16,0.16,0,0,1,0,.16l-0.09.26a6.23,6.23,0,0,1-.51,1,6.47,6.47,0,0,1-2.87,2.53,5.44,5.44,0,0,1-2.36.48,3.84,3.84,0,0,1-.63-0.06H15.55l0.11-.65h0.19a3.18,3.18,0,0,0,.55,0,4.8,4.8,0,0,0,2-.57,5.44,5.44,0,0,0,2.22-2.22A4.93,4.93,0,0,0,21,39.19V38.93a0.7,0.7,0,0,0,0-.1V38.71a3.84,3.84,0,0,0,.07-0.49,5.72,5.72,0,0,0-.17-2.13,6.3,6.3,0,0,0-2.8-3.67,7.76,7.76,0,0,0-5.18-.5A8.28,8.28,0,0,0,10.34,33a7.45,7.45,0,0,0-1.11.85l-0.29.28-0.22,0-0.07.07h0a6.86,6.86,0,0,0-.45.54,10,10,0,0,0-1.76,5.54,6.65,6.65,0,0,0,2.08,5,8.75,8.75,0,0,0,5.06,2.08,15.36,15.36,0,0,0,5.49-.67A39.77,39.77,0,0,0,24,45c2.27-1,4.21-2,5.73-2.84Z" transform="translate(10.9 0.04)"/><path class="cls-5" d="M526.81,31.56l0.3,0.37a10.07,10.07,0,0,0,.84.92,11.38,11.38,0,0,0,1.52,1.24A11.77,11.77,0,0,0,538,35.83a12.39,12.39,0,0,0,3.4-1.14,8.31,8.31,0,0,0,2.81-2.29,6.3,6.3,0,0,0,1.26-3.31,6.43,6.43,0,0,0-.66-3.39,5.46,5.46,0,0,0-2.17-2.33,4,4,0,0,0-2.75-.29,5.2,5.2,0,0,0-2.19,1.06,3.33,3.33,0,0,0-1,1.45,2.26,2.26,0,0,0-.09,1.1,2.07,2.07,0,0,0,.09.39,0.44,0.44,0,0,1-.81.33h0a2.8,2.8,0,0,1-.13-0.52,3.15,3.15,0,0,1,.11-1.53,5.24,5.24,0,0,1,3.89-3.16,5,5,0,0,1,3.43.34,6.46,6.46,0,0,1,2.63,2.73,7.43,7.43,0,0,1-.62,7.85,9.46,9.46,0,0,1-3.2,2.66,13.06,13.06,0,0,1-13.21-.58,12.72,12.72,0,0,1-1.72-1.35,11.75,11.75,0,0,1-1-1l-0.3-.36a0.69,0.69,0,1,1,1-.88h0v0h0Z" transform="translate(10.9 0.04)"/><circle class="cls-5" cx="537.14" cy="27.05" r="1.31" transform="translate(513.02 563.76) rotate(-89.15)"/><path class="cls-5" d="M474.31,29.51c-2.08,0-4.56-1-5.5-3.14a3.37,3.37,0,0,1-.16-0.45,9.74,9.74,0,0,1-3.76,0,9.16,9.16,0,0,1-2.68-17,0.42,0.42,0,0,1,.39.74A8.2,8.2,0,0,0,465,25.16a9,9,0,0,0,3.49,0,4.22,4.22,0,0,1,.68-2.47,3.11,3.11,0,0,1,2.62-1.55h0.15a1.69,1.69,0,0,1,1.2,1.08c0.13,0.58-.21,1.26-1.06,2.12a8.49,8.49,0,0,1-2.63,1.35,2.52,2.52,0,0,0,.12.33,5,5,0,0,0,4.83,2.63A16.18,16.18,0,0,0,480.25,27a15.64,15.64,0,0,1,6.28-1.65,0.42,0.42,0,0,1,0,.83h-0.12a15.47,15.47,0,0,0-5.78,1.57,16.92,16.92,0,0,1-6.2,1.73h-0.11v0.08ZM471.73,22a2.32,2.32,0,0,0-1.81,1.13,3.39,3.39,0,0,0-.55,1.79,7.43,7.43,0,0,0,2.18-1.14c0.8-.81.83-1.19,0.8-1.32a0.92,0.92,0,0,0-.62-0.46h0Z" transform="translate(10.9 0.04)"/><path class="cls-5" d="M102.83,47.73a30,30,0,0,1-3.06-.2,35.71,35.71,0,0,1-4.31-1.08c-2.35-.67-5.28-1.51-6.27-1.43A0.42,0.42,0,1,1,89,44.2h0.11c1.16-.08,3.9.7,6.56,1.46a36.8,36.8,0,0,0,4.17,1c2.91,0.3,4.88.4,7.73-.75a9.11,9.11,0,0,0,3.33-2.23A6,6,0,0,1,106.13,42a4.73,4.73,0,0,1-1.2-3.57,3.71,3.71,0,0,1,4.34-3.53,4.61,4.61,0,0,1,3,1.7,5.76,5.76,0,0,1,.45,5.85,11,11,0,0,0,4.49-3.58c0.79-1,1.5-2.08,2.19-3.13,0.48-.74,1-1.48,1.48-2.2a13.55,13.55,0,0,1,4.88-4.47,9.19,9.19,0,0,1,9.41.86,0.42,0.42,0,0,1-.5.67,8.34,8.34,0,0,0-8.54-.79,12.78,12.78,0,0,0-4.55,4.25c-0.51.71-1,1.44-1.46,2.17-0.7,1.07-1.42,2.17-2.23,3.2a11.43,11.43,0,0,1-5.3,4l-0.46.13a9.48,9.48,0,0,1-4.24,3.19A12.9,12.9,0,0,1,102.83,47.73Zm5.88-12a2.94,2.94,0,0,0-1.81.58,3,3,0,0,0-1.12,2.22,3.88,3.88,0,0,0,1,2.93,5.32,5.32,0,0,0,4.88,1.35,4,4,0,0,0,.25-0.43,5,5,0,0,0-.23-5.24,3.77,3.77,0,0,0-2.46-1.38,3.69,3.69,0,0,0-.51,0h0v0Z" transform="translate(10.9 0.04)"/><path class="cls-5" d="M428.71,17.87c-0.94,4.82-5.69,10.58-12.14,11.06-0.69-8.72,7.15-8.37,12.14-11.06" transform="translate(10.9 0.04)"/><path class="cls-6" d="M421.63,26.59A17,17,0,0,0,426,20.75c0.58-1.4,1.39-3.29,1.06-4.85a15.84,15.84,0,0,1-5.55,3,10.21,10.21,0,0,0-4.43,2.91c-1.34,1.73-1.22,4-1.19,6,0,0.61-.23,1.19-0.21,1.8a3.94,3.94,0,0,0,.76,0C418.4,29.41,420.3,27.83,421.63,26.59Zm-4.71,1.75c0.2-2.08-.38-4.22,1.16-6,1.13-1.27,2.86-1.76,4.33-2.5a18.93,18.93,0,0,1,3.65-1.75c-0.83,1.93-1.59,4.16-3.23,5.58-1.3,1.13-2.61,2.25-3.89,3.4C418.86,27.21,416.92,28.75,416.92,28.34Z" transform="translate(10.9 0.04)"/><path class="cls-5" d="M145.84,16c1.87,1.48,3.34.94,4.21-1.08,1-2.25-.2-4.51-2.11-5.87-2.25-1.62-4.57-1-7.09-1.4a41.23,41.23,0,0,0-4.3-.69,4.7,4.7,0,0,0,.76,1.64,7.8,7.8,0,0,1,.27,3c0,1.92.28,4.58,1.32,6.23s3.3,3.41,5.27,2.78C146.39,19.93,146.09,16.84,145.84,16Z" transform="translate(10.9 0.04)"/><path class="cls-5" d="M173.92,34h0c-2.55-.47-4-4-4.86-6.67a0.41,0.41,0,1,1,.78-0.26h0c0.46,1.41,1.87,5.68,4.23,6.12a0.41,0.41,0,0,1-.15.81h0Z" transform="translate(10.9 0.04)"/><path class="cls-5" d="M145.23,26.38a0.41,0.41,0,0,1-.28-0.72c1-.89,2.47-5.12,1.76-7.55a1.88,1.88,0,0,0-1.53-1.5,0.41,0.41,0,1,1,.14-0.81h0a2.7,2.7,0,0,1,2.18,2.08c0.76,2.63-.71,7.22-2,8.39A0.41,0.41,0,0,1,145.23,26.38Z" transform="translate(10.9 0.04)"/><path class="cls-5" d="M180.32,38.63a0.41,0.41,0,0,1-.32-0.15c-3.51-4.34-12.35-7-17.32-6.25a91.22,91.22,0,0,1-12.85,1h0a0.41,0.41,0,0,1,0-.82,90.6,90.6,0,0,0,12.73-1c5.18-.75,14.4,2,18.08,6.54A0.41,0.41,0,0,1,180.32,38.63Z" transform="translate(10.9 0.04)"/><path class="cls-5" d="M155.38,42c-0.17-4.16,3.69-4.88,6.54-2.26s2.3,6.6,4.84,9.69a35,35,0,0,0-5.66-1.18c-2-.26-4.2-0.28-6.07-1-1.54-.6-3.48-1.93-3.08-3.93C152.23,42,154.64,41.46,155.38,42Z" transform="translate(10.9 0.04)"/><path class="cls-5" d="M156,42a0.41,0.41,0,0,1-.34-0.18c-1.74-2.6-2.38-5.33-1.7-7.3a3.62,3.62,0,0,1,2.35-2.33,0.41,0.41,0,0,1,.26.78h0a2.79,2.79,0,0,0-1.83,1.83c-0.59,1.71,0,4.23,1.6,6.58A0.41,0.41,0,0,1,156,42Z" transform="translate(10.9 0.04)"/><path class="cls-5" d="M167.64,52.3a0.43,0.43,0,0,1-.44-0.41,0.41,0.41,0,0,1,.41-0.41h0A3.76,3.76,0,0,0,171,49.79a3.92,3.92,0,0,0-.23-4,9.32,9.32,0,0,0-1.89-2.15c-1.13-1-2.28-2.1-1.84-3.79a14.47,14.47,0,0,1-1.31-2.2c-0.81-1.65-1-2.93-.56-3.92a4.13,4.13,0,0,1,2.87-2,0.41,0.41,0,0,1,.23.79h0a3.4,3.4,0,0,0-2.34,1.57c-0.33.75-.15,1.81,0.55,3.22a14.88,14.88,0,0,0,.94,1.65,7.5,7.5,0,0,1,.79-1.16,0.42,0.42,0,0,1,.39-0.15,3.43,3.43,0,0,1,2.4,2.44,1.32,1.32,0,0,1-1,1.38,2.08,2.08,0,0,1-2.18-.69c0.07,0.87.78,1.53,1.66,2.34a10.11,10.11,0,0,1,2.05,2.35,4.72,4.72,0,0,1,.23,4.79A4.56,4.56,0,0,1,167.64,52.3ZM168,39.71c0.64,0.76,1.24,1.11,1.7.93a0.6,0.6,0,0,0,.5-0.53,2.71,2.71,0,0,0-1.5-1.57,5.36,5.36,0,0,0-.71,1.17h0Z" transform="translate(10.9 0.04)"/><path class="cls-5" d="M449.67,48.09c-2.18-1-2.4-2.5-1-4.22,1.53-1.91,4.07-1.94,6.17-.91,2.49,1.23,3.06,3.55,4.57,5.59A41.23,41.23,0,0,1,462.05,52a4.7,4.7,0,0,1-1.8.1,7.81,7.81,0,0,0-2.78,1.18c-1.7.9-4.18,1.91-6.12,1.77s-4.56-1.3-4.94-3.34C445.92,49.44,448.83,48.21,449.67,48.09Z" transform="translate(10.9 0.04)"/><path class="cls-5" d="M420.59,31.74V31.8c1.62,2,5.44,1.63,8.17,1.15a0.41,0.41,0,0,0-.14-0.81c-1.46.25-5.89,1-7.39-.85A0.41,0.41,0,0,0,420.59,31.74Z" transform="translate(10.9 0.04)"/><path class="cls-5" d="M440.83,53.5a0.41,0.41,0,0,0,.76-0.09c0.32-1.28,3.35-4.59,5.83-5.11a1.88,1.88,0,0,1,2,.64,0.41,0.41,0,0,0,.65-0.51h0a2.7,2.7,0,0,0-2.86-.94c-2.68.57-6,4-6.45,5.72A0.41,0.41,0,0,0,440.83,53.5Z" transform="translate(10.9 0.04)"/><path class="cls-5" d="M413.49,28.32a0.41,0.41,0,0,0,.29.21c5.49,1,12,7.61,13.67,12.34a91.22,91.22,0,0,0,5.19,11.79h0a0.41,0.41,0,0,0,.73-0.39,90.61,90.61,0,0,1-5.14-11.69c-1.78-4.93-8.55-11.76-14.29-12.86A0.41,0.41,0,0,0,413.49,28.32Z" transform="translate(10.9 0.04)"/><path class="cls-5" d="M422.23,51.92c3.77-1.83,2.57-5.55-1.09-6.83s-6.91,1.09-10.83.3a35,35,0,0,1,3.7,4.43,26.37,26.37,0,0,0,3.75,4.88c1.26,1.08,3.34,2.16,4.92.86C423.75,54.68,423.09,52.3,422.23,51.92Z" transform="translate(10.9 0.04)"/><path class="cls-5" d="M421.92,51.36a0.41,0.41,0,0,0,.32.22c3.11,0.31,5.82-.41,7.24-1.94a3.62,3.62,0,0,0,1-3.18,0.41,0.41,0,1,0-.81.14,2.79,2.79,0,0,1-.75,2.48c-1.23,1.32-3.75,2-6.56,1.69A0.41,0.41,0,0,0,421.92,51.36Z" transform="translate(10.9 0.04)"/><path class="cls-5" d="M407.32,41.33a4.72,4.72,0,0,1,4.33-2.06,10.11,10.11,0,0,1,3,.7c1.14,0.4,2,.72,2.85.36a2.08,2.08,0,0,1-1.64-1.6,1.32,1.32,0,0,1,.73-1.56,3.43,3.43,0,0,1,3.23,1,0.42,0.42,0,0,1,.06.42,7.51,7.51,0,0,1-.66,1.24,14.89,14.89,0,0,0,1.9,0c1.58,0,2.59-.39,3.1-1a3.4,3.4,0,0,0,.29-2.82,0.41,0.41,0,0,1,.81-0.16h0a4.13,4.13,0,0,1-.45,3.5c-0.67.85-1.89,1.29-3.72,1.35a14.46,14.46,0,0,1-2.56-.12c-1.28,1.18-2.77.67-4.21,0.16a9.32,9.32,0,0,0-2.79-.66A3.92,3.92,0,0,0,408,41.74a3.76,3.76,0,0,0,.12,3.8h0a0.41,0.41,0,0,1-.16.56h0a0.43,0.43,0,0,1-.57-0.19A4.56,4.56,0,0,1,407.32,41.33Zm11.73-2.8A2.71,2.71,0,0,0,417,38c-0.08,0-.31.13-0.23,0.7s0.65,0.85,1.63,1.06a5.36,5.36,0,0,0,.68-1.18h0Z" transform="translate(10.9 0.04)"/><path class="cls-7" d="M501.47,15.38a3.65,3.65,0,0,0,.14-0.36,2.06,2.06,0,0,0-1.27.17c-0.27.08-.53,0.17-0.79,0.27l-0.34.12a6.54,6.54,0,0,0,0-1,2,2,0,0,0-.13-1,0.13,0.13,0,0,0-.11-0.13,1,1,0,0,0-.51.21L497.7,14a2.56,2.56,0,0,0-.53.23,3.28,3.28,0,0,0-.31-0.89,9.58,9.58,0,0,0-.37-1,0.11,0.11,0,0,0-.14-0.15,5.46,5.46,0,0,0-2,3.18,2.85,2.85,0,0,0,.93,3.07,3.76,3.76,0,0,0,1.4.46,3.12,3.12,0,0,0,1.44-.06,4.76,4.76,0,0,0,2.51-2.07A10.38,10.38,0,0,0,501.47,15.38Z" transform="translate(10.9 0.04)"/><path class="cls-7" d="M343.66,23.09a5,5,0,0,0,.14-0.51,2.83,2.83,0,0,0-1.71.42,8.45,8.45,0,0,0-1,.49l-0.44.21a9,9,0,0,0-.12-1.41A2.68,2.68,0,0,0,340.2,21a0.18,0.18,0,0,0-.17-0.16,1.39,1.39,0,0,0-.66.37c-0.32.22-.65,0.42-1,0.62a2.9,2.9,0,0,0-.69.4,4.51,4.51,0,0,0-.55-1.17,11.47,11.47,0,0,0-.67-1.36,0.15,0.15,0,0,0-.22-0.18c-1.35.89-2,3.17-2.26,4.64a3.93,3.93,0,0,0,1.73,4.06,5.17,5.17,0,0,0,2,.42,4.3,4.3,0,0,0,2-.29,6.55,6.55,0,0,0,3.12-3.2A14.29,14.29,0,0,0,343.66,23.09Z" transform="translate(10.9 0.04)"/><path class="cls-8" d="M490.54,9.9a5.23,5.23,0,0,0-.33-0.46,3,3,0,0,0-.8,1.7c-0.11.39-.21,0.79-0.3,1.19a3.72,3.72,0,0,1-.12.51,9.53,9.53,0,0,0-1.25-.85,2.86,2.86,0,0,0-1.3-.61,0.19,0.19,0,0,0-.25,0,1.49,1.49,0,0,0-.14.79,8.6,8.6,0,0,1-.15,1.23,8.38,8.38,0,0,0-.14.84,4.82,4.82,0,0,0-1.34-.34c-0.51-.09-1.07-0.33-1.58-0.37a0.16,0.16,0,0,0-.3.06c-0.18,1.72,1.24,3.84,2.31,5a4.19,4.19,0,0,0,4.53,1.32,5.52,5.52,0,0,0,1.69-1.35,4.59,4.59,0,0,0,1.08-1.82,7,7,0,0,0-.54-4.75A15.3,15.3,0,0,0,490.54,9.9Z" transform="translate(10.9 0.04)"/><path class="cls-6" d="M489.51,19l-0.59.24a2.93,2.93,0,0,1-1.56.14,5.6,5.6,0,0,1-2.77-1.65c-1.4-1.52-2.74-3.67-2.36-5.86a9.06,9.06,0,0,1,2.38.46,9.09,9.09,0,0,0,.89.29,11.85,11.85,0,0,1,.5-2.57l0.11-.38,0.36,0.18,0.45,0.2a16.18,16.18,0,0,1,1.86,1,17.4,17.4,0,0,1,.91-3l0.2-.5L490.25,8a6.45,6.45,0,0,1,.51.65,12.33,12.33,0,0,1,1.16,2.18,7.2,7.2,0,0,1,.55,5,4.92,4.92,0,0,1-1.16,2A5.87,5.87,0,0,1,489.51,19Zm-6.6-6.4a6.82,6.82,0,0,0,2.18,4.68,3.84,3.84,0,0,0,4.37,1.13,5.62,5.62,0,0,0,1.42-1.07c1.76-1.64,1.28-4.28.41-6.29A11.69,11.69,0,0,0,490.21,9l-0.1-.14a17,17,0,0,0-.76,2.82l-0.1.56-0.45-.36a11.34,11.34,0,0,0-2.17-1.21h-0.1a9.06,9.06,0,0,0-.35,2.41v0.39h-0.39a6.22,6.22,0,0,1-1.42-.39,4.86,4.86,0,0,0-1.45-.48h0Z" transform="translate(10.9 0.04)"/><path class="cls-8" d="M182,65l0.48,0.21a2.79,2.79,0,0,0-.17-1.73c-0.09-.37-0.2-0.73-0.32-1.09a1.72,1.72,0,0,0-.14-0.46,8.87,8.87,0,0,0,1.39.08,2.64,2.64,0,0,0,1.32-.13,0.18,0.18,0,0,0,.18-0.15,1.37,1.37,0,0,0-.26-0.7c-0.17-.35-0.32-0.69-0.46-1a3.7,3.7,0,0,0-.29-0.73,4.45,4.45,0,0,0,1.22-.37c0.45-.17,1-0.24,1.43-0.45a0.15,0.15,0,0,0,.21-0.18c-0.67-1.45-2.8-2.46-4.2-2.87a3.87,3.87,0,0,0-4.21,1.1,5.1,5.1,0,0,0-.7,1.87,4.24,4.24,0,0,0,0,2,6.46,6.46,0,0,0,2.67,3.51A14.07,14.07,0,0,0,182,65Z" transform="translate(10.9 0.04)"/><path class="cls-7" d="M231.6,26a5.08,5.08,0,0,0,.22-0.49,2.86,2.86,0,0,0-1.77.17c-0.37.1-.75,0.21-1.12,0.33l-0.47.15a9.08,9.08,0,0,0,.08-1.43,2.71,2.71,0,0,0-.13-1.35,0.18,0.18,0,0,0-.15-0.18,1.41,1.41,0,0,0-.71.27c-0.35.17-.71,0.32-1.07,0.47a3.73,3.73,0,0,0-.75.29,4.55,4.55,0,0,0-.38-1.25c-0.17-.46-0.25-1-0.46-1.46a0.15,0.15,0,0,0-.19-0.21c-1.48.69-2.52,2.87-3,4.3a4,4,0,0,0,1.12,4.32,5.22,5.22,0,0,0,1.91.72,4.34,4.34,0,0,0,2,0,6.61,6.61,0,0,0,3.59-2.73A14.43,14.43,0,0,0,231.6,26Z" transform="translate(10.9 0.04)"/><path class="cls-7" d="M193.92,30.74a4,4,0,0,0-.16.39,2.23,2.23,0,0,0,1.38-.17c0.29-.08.58-0.18,0.86-0.28l0.37-.12a7.08,7.08,0,0,0,0,1.11,2.11,2.11,0,0,0,.13,1,0.14,0.14,0,0,0,.12.14,1.1,1.1,0,0,0,.55-0.22c0.27-.14.55-0.27,0.83-0.39a3.09,3.09,0,0,0,.58-0.24,3.56,3.56,0,0,0,.32,1,10,10,0,0,0,.39,1.13,0.12,0.12,0,0,0,.15.16c1.14-.56,1.91-2.29,2.22-3.41a3.09,3.09,0,0,0-1-3.35,4.08,4.08,0,0,0-1.5-.52,3.39,3.39,0,0,0-1.56,0,5.16,5.16,0,0,0-2.75,2.2A11.24,11.24,0,0,0,193.92,30.74Z" transform="translate(10.9 0.04)"/><path class="cls-8" d="M218.83,13.09a6.62,6.62,0,0,0-.29-0.65,3.83,3.83,0,0,0-1.42,1.9c-0.24.46-.46,0.93-0.68,1.4-0.08.19-.19,0.39-0.28,0.6A12,12,0,0,0,214.82,15a3.61,3.61,0,0,0-1.46-1.09,0.24,0.24,0,0,0-.32,0,1.88,1.88,0,0,0-.38.95c-0.15.5-.32,1-0.5,1.49a10.57,10.57,0,0,0-.38,1,6.09,6.09,0,0,0-1.58-.75c-0.61-.24-1.24-0.68-1.86-0.86a0.2,0.2,0,0,0-.38,0c-0.65,2.08.57,5.07,1.6,6.79a5.3,5.3,0,0,0,5.28,2.77,7,7,0,0,0,2.43-1.18,5.81,5.81,0,0,0,1.8-2,8.84,8.84,0,0,0,.53-6A19.33,19.33,0,0,0,218.83,13.09Z" transform="translate(10.9 0.04)"/><path class="cls-6" d="M216.14,24.21c-0.26.06-.52,0.11-0.79,0.15a3.71,3.71,0,0,1-2-.21,7.08,7.08,0,0,1-3-2.74c-1.35-2.24-2.47-5.24-1.45-7.85,0.09-.22,2.64,1,2.83,1.16a11.5,11.5,0,0,0,1,.58A15,15,0,0,1,214,12.2l0.24-.45,0.4,0.31,0.52,0.39a20.44,20.44,0,0,1,2.06,1.64,22,22,0,0,1,1.87-3.45l0.38-.57,0.35,0.59a8.14,8.14,0,0,1,.47.93,15.58,15.58,0,0,1,.87,3,9.1,9.1,0,0,1-.57,6.31,6.21,6.21,0,0,1-1.93,2.19A7.42,7.42,0,0,1,216.14,24.21Zm-6.57-9.59c-0.43,1.82.08,4,1.53,6.34a4.85,4.85,0,0,0,5.13,2.5,7.1,7.1,0,0,0,2-1c2.6-1.59,2.66-5,2.09-7.69A14.78,14.78,0,0,0,219.5,12l-0.09-.2a21.47,21.47,0,0,0-1.65,3.3l-0.27.67L217,15.17a14.33,14.33,0,0,0-2.38-2l-0.08-.08a11.45,11.45,0,0,0-1,2.9l-0.08.49L213,16.32a7.86,7.86,0,0,1-1.66-.84,6.14,6.14,0,0,0-1.76-.88h0v0Z" transform="translate(10.9 0.04)"/><path class="cls-9" d="M126.56,25.7c-1.52,1.54-1.94,5.5-1.36,7.53,0.44,1.56,1.4,2.91,1.92,4.44a11.76,11.76,0,0,0,.61,2.22c0.3,0.51,1,.78,1.31,1.32,0.75,1.22.21,2.22,1.63,3.11s3.7,1,5.36,1.46a12.2,12.2,0,0,0,2.11.71c0.8,0,1.23-.56,2-0.61,1.52-.11,1.38.8,3,0.11,2.89-1.19,6.46-.83,6.69-4.64,0.11-1.84.19-.94,1.46-2.14,0.95-.89,1.38-2.79,1.84-4a10.33,10.33,0,0,0-.89-9.26c-0.16-.26-0.59-0.58-0.82-0.93-0.55-.85-0.36-1.56-1.28-2.42-1.48-1.38-2.94-2.94-4.83-3.67-3.41-1.31-8.06-1.63-11.09.63-1.41,1-3,1.16-4.4,2.19A9.92,9.92,0,0,0,126.56,25.7Z" transform="translate(10.9 0.04)"/><path class="cls-10" d="M137.13,31.74a5.37,5.37,0,0,0-1.44,1.35,18.6,18.6,0,0,1-1.81,1.37,15.07,15.07,0,0,0-2.74,2.27c1.29,0.33,2.87-1.16,4.07-1.59a5.29,5.29,0,0,1,3.13-.4c1.13,0.3,1.35,1.07,1.93,2,0.46,0.74,1.19,3.49,2,3.76,1-2.18-2.09-5-1-7.18,0.87,0.3,2.25-.4,3.15-0.19a17.85,17.85,0,0,0,2.89.3c-0.14-.93-2.68-1.35-3.49-1.66-0.65-.25-2.58-0.91-3-1.58-0.69-1.15.31-3.61,0.17-5-0.29,2-1,3.9-3.08,4.56-1.84.59-4.09-1.08-5.93-1.32C132.75,29.56,137,31.09,137.13,31.74Z" transform="translate(10.9 0.04)"/><path class="cls-6" d="M138.24,28.44c-1.7-.83-2-3-3-4.44a6.68,6.68,0,0,0-4.12-2.63c-3-.77-5,1.66-6.54,4-1.76,2.73.68,5.39,3.12,6.66a9.75,9.75,0,0,0,8.4-.21,0.29,0.29,0,0,0-.25-0.51,9.66,9.66,0,0,1-7.06.59A7.24,7.24,0,0,1,126,30.09a6.31,6.31,0,0,1-1-4.42,15.62,15.62,0,0,1,2.52-2.87c3.24-2.73,6.71.47,8.15,3.35A5.32,5.32,0,0,0,138,28.93c0.33,0.16.51-.38,0.18-0.54h0Z" transform="translate(10.9 0.04)"/><path class="cls-6" d="M124.37,27.68c-1.86-.15-1.89,2.73-1.92,4a16,16,0,0,0,2.48,8.07c1.33,2.36,3.88,2,6.09,1.11,2.38-1,6.31-3,6.35-6a0.29,0.29,0,0,0-.57,0c0,2.38-3.43,4.26-5.31,5.15a7.72,7.72,0,0,1-3.61,1c-2.48-.24-2.42-1.7-3.08-3.23-0.74-1.72-1.66-3-1.77-4.91-0.06-1-.27-4.73,1.3-4.6a0.29,0.29,0,0,0,0-.57h0Z" transform="translate(10.9 0.04)"/><path class="cls-6" d="M127.63,41.44c-1.31,1.75,0,3.21,1.7,4,1.35,0.63,2.88.7,4.26,1.28,1,0.43,2.21,1.35,3.38,1,2-.66,2.45-4.13,2.43-5.88,0-2.16-.5-5.54-2.1-7.14-0.26-.26-0.69.12-0.43,0.37,2.2,2.2,2.47,7.61,1.29,10.36-1.28,3-3.68.84-5.88,0.26-1.51-.4-6.18-1.23-4.18-3.91a0.29,0.29,0,0,0-.47-0.32h0v0Z" transform="translate(10.9 0.04)"/><path class="cls-6" d="M137.81,46.55c0.52,2.6,2.45,1.15,4,.37,2.25-1.11,5.66-.39,6.67-3.39,1.33-4-4.69-7.54-7-9.75-0.26-.25-0.7.12-0.43,0.37,2.1,2,4.7,3.65,6.24,6.17s0.4,4.75-2.54,5.32a13.7,13.7,0,0,0-2.51.42c-0.74.29-3.44,2.62-3.89,0.37a0.29,0.29,0,0,0-.56.12h0Z" transform="translate(10.9 0.04)"/><path class="cls-6" d="M147.41,40.09c3.1,2.52,4.42-.47,5-3.36,0.37-1.83,1.06-4,.8-5.87-0.23-1.67-1.5-4.3-3.49-3.86a0.29,0.29,0,0,0,.12.56c1.65-.37,2.62,2.36,2.77,3.39a7.77,7.77,0,0,1-.21,2.76l-0.4,2.1c-0.42,2.35-1.17,6.33-4.28,3.8-0.28-.23-0.6.24-0.32,0.47h0Z" transform="translate(10.9 0.04)"/><path class="cls-6" d="M142,30.87a9.86,9.86,0,0,0,3.88-1.4c1.15-.58,3.31-1.13,4.15-2,1.7-1.83,0-4.18-1.63-5.39-2.61-1.91-8.1-4.72-11.49-3.93-2,.46-5.79,1.33-6.13,3.7-0.05.36,0.52,0.39,0.57,0,0.16-1.15,3.47-2.41,4.69-2.72,3.68-.93,7,0.74,10.17,2.4,2.49,1.31,5.43,4,1.65,6.36-1.49.92-4.15,2.34-5.83,2.43-0.36,0-.4.59,0,0.57h0Z" transform="translate(10.9 0.04)"/><path class="cls-6" d="M136.6,31.37c-0.54-.4-4.5-2.55-4.53-3a20.58,20.58,0,0,0,3.34,1.19c0.81,0.28,1.95,1,2.83.59,1.09-.46,1.65-2.16,2.11-3.14,0.21-.45.75-2.42,1.07-2.51-0.66.19-.82,2-0.91,2.45-0.82,4.33,1.46,4.42,5.07,5.78q1.16,0.47,2.34.88l0.66-.26c-0.69-.45-2.6-0.42-3.42-0.53s-3.28-.6-4.15.08c-1.5,1.16.15,4.23,0.58,5.56,0.14,0.41.54,2.23,0.76,1.93s-1.49-3.12-1.63-3.37c-0.57-1-1.31-2.58-2.54-2.87a4.27,4.27,0,0,0-2.57.77c-1,.51-2,1.16-3,1.63s-2.11,1.06-1.57.1c1-1.72,5.67-2.72,5.69-5a0.29,0.29,0,0,0-.57,0c0,1.87-5.4,4.18-6.55,5.72a0.29,0.29,0,0,0,.22.44c1.85,0.09,3.35-.83,4.93-1.69,1.81-1,3.31-1.42,4.84.33,1.26,1.45,1.92,3.68,2.8,5.37,0.12,0.23.56,0.19,0.54-.11-0.14-2.19-1.58-4.13-1.74-6.28-0.28-3.67,5.63-1.58,8-1.37a0.29,0.29,0,0,0,.11-0.55c-2.39-.7-6.17-1.52-7.61-3.52s-0.15-3.91.07-6.17a0.29,0.29,0,0,0-.55-0.11c-0.77,1.82-1.44,5-3.36,5.63-1.76.6-4.61-1.12-6.36-1.65-0.25-.07-0.53.26-0.31,0.46a61.11,61.11,0,0,0,5.14,3.76,0.3,0.3,0,0,0,.27-0.54h0Z" transform="translate(10.9 0.04)"/><path class="cls-11" d="M170.75,20.58a3,3,0,0,0-.25,1.36,10.13,10.13,0,0,0-.06,2.14,8.74,8.74,0,0,0,.9,2.8c0.38,0.91.83,2.68,0.06,3.53s-1.72-.2-2.15-0.73c-0.78-1-1.36-2-2.16-2.94s-2.56-1.37-2.85-2.64" transform="translate(10.9 0.04)"/><path class="cls-11" d="M153.12,14.52a9.27,9.27,0,0,0-.73,1.19,7.65,7.65,0,0,0-.54,1.39c-0.46,1.39.15,2.76,0.73,4.05,0.28,0.63.81,1.06,1.05,1.71,0.18,0.48.06,1,.24,1.46,0.49,1.31,1.85,1.07,2.85,1.36a4.62,4.62,0,0,1,1.1.87,8,8,0,0,0,1.91.64c1.5,0.38,2.33-.5,3.41-1.45,0.78-.69,1.09-1.67,2.17-2s2-.33,3-0.72c2-.77,2.72-2.78,3.87-4.34,0.41-.56.4-1.64,0.79-2.11s1.23-.23,1.63-1a6.17,6.17,0,0,0,.19-3.55c-0.54-1.83-1.28-4.23-2.6-5.65-0.89-1-2.31-1.22-3.38-1.91-1.3-.83-3.46-0.32-4.93-0.34a2.31,2.31,0,0,0-1.88,1c-0.63.79-.48,0.67-1.51,0.75a5.15,5.15,0,0,0-3.72,2.31c-1,1.27-2.36,1.49-3.21,2.81A4.18,4.18,0,0,0,153.12,14.52Z" transform="translate(10.9 0.04)"/><path class="cls-10" d="M158.2,11.77c1.5,0.39,2.77,2.75,3.78,4.17,0.45,0.63-.32,1.27-0.67,1.9a6.37,6.37,0,0,1-1.39,2.25c0.63-.63,2.45-3.57,3.61-3.32,0.93,0.2,1.15,2.23,2,2.63,0.06-.54-0.87-2.58-0.25-3.7,0.31-.56,1.57-0.84,2.24-1.07-0.64,0-2.17.65-2.67-.05a2.7,2.7,0,0,1-.27-1.46c0.06-.67,0-1.32.06-2-0.21.8-.54,3-1.43,3.34-1.1.42-2.22-1-3.55-2.14A3.58,3.58,0,0,0,158.2,11.77Z" transform="translate(10.9 0.04)"/><path class="cls-6" d="M160.92,16.69c-1.58,0-2.89-1.38-4.58-1.4-1.37,0-3.58-.83-4.89,0-1.14.7-1.53,2.62-1.57,3.85a4.72,4.72,0,0,0,.37,2c0.48,1.18.87,2.28,1.25,3.48a2.62,2.62,0,0,0,4.57,1,10.71,10.71,0,0,0,1.43-3.85,4.87,4.87,0,0,1,1.93-3.07,8,8,0,0,0,1.71-1.5c0.23-.29-0.25-0.61-0.47-0.32-0.76,1-1.88,1.27-2.66,2.16a6.12,6.12,0,0,0-1,2.54,15.28,15.28,0,0,1-.89,2.9c-1.2,2.44-3.42,1.67-4.18-.92-0.42-1.45-1.48-2.8-1.44-4.36a5.54,5.54,0,0,1,.53-2.29c1-1.82,2.13-1.3,3.55-1.09s2.74,0,4.19.71a4.82,4.82,0,0,0,2.18.79C161.22,17.21,161.26,16.68,160.92,16.69Z" transform="translate(10.9 0.04)"/><path class="cls-6" d="M154.86,26.42c2.35,1.86,4.23,2.69,6.77.71a3.49,3.49,0,0,0,1.66-2.7,10.18,10.18,0,0,0-.46-2.36,11.55,11.55,0,0,1-.14-3.44,0.29,0.29,0,0,0-.57,0,12.37,12.37,0,0,0,0,2.75c0.2,1.38,1.08,3,.22,4.32a5.35,5.35,0,0,1-3.63,2.19c-1.31,0-2.55-1.14-3.52-1.91-0.29-.23-0.6.25-0.32,0.47h0v0Z" transform="translate(10.9 0.04)"/><path class="cls-6" d="M163.05,24.94c0.89-.48,1.63-0.19,2.53-0.33a9.43,9.43,0,0,0,1.94-.68,4.62,4.62,0,0,0,2.27-2.39c0.87-1.65,3.8-3.87.75-5.18-0.34-.14-0.52.4-0.18,0.54,2.42,1-.16,2.77-0.71,3.66-0.89,1.42-1,2.25-2.76,2.94-1.37.55-2.78,0.22-4.08,0.93a0.29,0.29,0,0,0,.25.51h0Z" transform="translate(10.9 0.04)"/><path class="cls-6" d="M164.45,17.53v0.19a0.29,0.29,0,0,0,.28.3h0.13c1.39-.56,2.56-1.44,4.11-1.35,1.14,0.07,2.12,1,3.3.85a2.39,2.39,0,0,0,1.91-2.2,4,4,0,0,0-.34-1.86c-0.54-1.42-.93-2.95-1.51-4.34-0.71-1.71-2.21-2.37-3.78-3.12-0.33-.16-0.51.38-0.18,0.54,1.36,0.65,2.45,1.12,3.17,2.5a15.36,15.36,0,0,1,.9,2.59c0.61,1.88,2.84,5.94-1.82,4.85-1-.23-1.55-0.65-2.62-0.43-0.66.14-3,.91-3,1.54a0.29,0.29,0,0,0-.57,0h0Z" transform="translate(10.9 0.04)"/><path class="cls-6" d="M164.66,15.21a13,13,0,0,1,1.92-3.78,11.13,11.13,0,0,0,1.84-2.71,2.85,2.85,0,0,0-1-3.68,4.65,4.65,0,0,0-2.2-.32,16.67,16.67,0,0,0-3.3-.27,2.55,2.55,0,0,0-2.39,2.11,0.29,0.29,0,0,0,.54.18c0.61-1.73,2-1.87,3.66-1.65,2,0.26,4.83,0,4.29,3-0.28,1.51-1.64,2.58-2.45,3.81a13.85,13.85,0,0,0-1.43,3.19,0.29,0.29,0,0,0,.54.18h0Z" transform="translate(10.9 0.04)"/><path class="cls-6" d="M163,14.6c-0.39-2.59-.07-4.91-1.81-7.13a3.33,3.33,0,0,0-4.62-.75c-1.19.77-1.53,2.19-2.71,3-0.8.56-1.76,0.73-2.41,1.53a3.53,3.53,0,0,0-.08,4.32c0.22,0.29.65-.08,0.43-0.37-1.91-2.51.66-3.89,2.31-5,1-.68,1.44-1.76,2.35-2.58,2.71-2.43,5.13.63,5.66,3.28,0.25,1.23.12,2.52,0.31,3.77,0.05,0.36.61,0.25,0.56-.12h0V14.6Z" transform="translate(10.9 0.04)"/><path class="cls-6" d="M161.13,16.36a11.51,11.51,0,0,0-3.75-4.66,0.29,0.29,0,0,0-.38.39c1.16,1.11,3.26,3.3,5,3.32,2.21,0,2.47-4.29,2.86-5.77a0.29,0.29,0,0,0-.54-0.18c-0.51,1.47-1.47,4.7-.08,6,1.23,1.16,3.33-.28,4.67-0.41l-0.18-.53c-1.39.57-3.74,1.26-4.36,2.83-0.53,1.37.41,3,1,4.15l0.51-.25c-0.67-1.15-1.38-3.13-3-3.13s-3.27,1.77-4.24,2.9l0.51,0.25c0.42-1.07,2.88-3.72,1.95-5-0.22-.3-0.64.08-0.43,0.37,0.5,0.69-1.72,3.59-2.06,4.44-0.13.32,0.31,0.48,0.51,0.25,0.67-.77,1.93-2.27,3-2.42,2-.28,2.54,1.37,3.24,2.58a0.29,0.29,0,0,0,.51-0.25c-0.85-1.71-1.65-3.34.24-4.84A11.79,11.79,0,0,1,169,15.09c0.32-.13.11-0.56-0.18-0.53-1.43.14-2.16,0.9-3.55,0.2s-1.12-1.17-1-2.5a11,11,0,0,1,.61-2.56l-0.54-.18c-0.48,1.83-.81,5.95-3.42,4.89a12.59,12.59,0,0,1-3.45-2.63l-0.37.42a10.9,10.9,0,0,1,3.56,4.44C160.75,17,161.26,16.7,161.13,16.36Z" transform="translate(10.9 0.04)"/><path class="cls-6" d="M162.79,25.88c2.81,0.26,2.9,2.89,4.44,4.63,0.72,0.81,2,1.86,3.13,1.11s0.83-2.23.61-3.24a17.22,17.22,0,0,0-.8-2.33,20.24,20.24,0,0,1-.7-3.92,0.29,0.29,0,0,0-.56.12,22.57,22.57,0,0,0,1,4.63,9.64,9.64,0,0,1,.6,2,2.93,2.93,0,0,1,0,1.59c-0.47.93-.61,1.34-1.88,0.49a4.06,4.06,0,0,1-.78-0.67c-1.84-1.92-1.85-4.69-5-5a0.29,0.29,0,0,0,0,.57h0Z" transform="translate(10.9 0.04)"/><path class="cls-9" d="M450.22,69.65c-0.64,2.07-3.94,4.3-6,4.75-1.58.34-3.23,0.13-4.82,0.4a11.76,11.76,0,0,1-2.24.51c-0.59,0-1.15-.49-1.78-0.53-1.43-.09-2,0.86-3.51,0s-2.66-2.77-3.82-4a12.19,12.19,0,0,1-1.62-1.52c-0.4-.69-0.09-1.35-0.38-2-0.62-1.39-1.36-.84-1.54-2.63-0.31-3.11-2.31-6.09.94-8.08,1.57-1,.74-0.62,1.2-2.29,0.34-1.26,1.81-2.53,2.64-3.5a10.33,10.33,0,0,1,8.59-3.58c0.3,0,.79.25,1.2,0.28,1,0.08,1.55-.41,2.74,0,1.92,0.65,4,1.21,5.51,2.53,2.76,2.39,5.23,6.34,4.67,10.08-0.26,1.74.4,3.21,0.14,4.91A9.92,9.92,0,0,1,450.22,69.65Z" transform="translate(10.9 0.04)"/><path class="cls-10" d="M439.92,63.21a5.37,5.37,0,0,1-.52,1.88,18.61,18.61,0,0,0-.36,2.24,15.07,15.07,0,0,1-.71,3.49c-0.9-1-.33-3.08-0.51-4.34a5.29,5.29,0,0,0-1.12-3c-0.8-.85-1.58-0.69-2.68-0.75-0.87,0-3.64.59-4.27,0,1.45-1.91,5.39-.51,6.78-2.53-0.68-.63-0.71-2.17-1.32-2.87A17.84,17.84,0,0,1,433.58,55c0.89-.31,2.45,1.73,3.11,2.3s2,1.85,2.8,1.89c1.34,0.07,3-2,4.3-2.49-1.61,1.19-3,2.74-2.57,4.87,0.35,1.9,2.88,3.1,4,4.6C443.92,66,440.55,63,439.92,63.21Z" transform="translate(10.9 0.04)"/><path class="cls-6" d="M442.31,60.64c1.54,1.11,3.58.33,5.31,0.52a6.68,6.68,0,0,1,4.26,2.4c2.09,2.27.89,5.2-.49,7.67-1.57,2.84-5.08,1.94-7.35.39a9.75,9.75,0,0,1-3.77-7.53,0.29,0.29,0,0,1,.57,0,9.66,9.66,0,0,0,2.8,6.51,7.24,7.24,0,0,0,2.89,1.58A6.31,6.31,0,0,0,450.89,71a15.63,15.63,0,0,0,1.35-3.58c0.88-4.14-3.57-5.7-6.8-5.61a5.32,5.32,0,0,1-3.52-.72c-0.3-.21.1-0.63,0.39-0.42h0Z" transform="translate(10.9 0.04)"/><path class="cls-6" d="M449.5,72.52c1,1.57-1.52,3-2.61,3.57a16,16,0,0,1-8.28,1.62c-2.71-.06-3.62-2.47-3.85-4.85-0.25-2.56-.3-7,2.27-8.41a0.29,0.29,0,0,1,.3.49c-2.09,1.15-2.14,5-2,7.11a7.72,7.72,0,0,0,.82,3.65c1.38,2.07,2.64,1.34,4.3,1.19,1.87-.16,3.44,0,5.17-0.75,0.87-.4,4.3-2,3.45-3.31a0.29,0.29,0,0,1,.49-0.3H449.5Z" transform="translate(10.9 0.04)"/><path class="cls-6" d="M435.83,76.09c-0.93,2-2.83,1.52-4.34.39-1.2-.9-2-2.21-3.14-3.15-0.87-.7-2.24-1.32-2.44-2.53-0.35-2.06,2.49-4.1,4-4.92,1.91-1,5.12-2.17,7.29-1.51,0.35,0.11.22,0.66-.13,0.56-3-.91-7.88,1.4-9.75,3.74-2,2.55,1,3.65,2.54,5.31,1.07,1.14,4,4.88,5.42,1.85a0.29,0.29,0,0,1,.5.27h0Z" transform="translate(10.9 0.04)"/><path class="cls-6" d="M426.53,69.55c-2.54.77-2.17-1.62-2.23-3.39-0.08-2.51-2.33-5.17-.15-7.48,2.86-3,8.86.59,11.91,1.59,0.35,0.11.22,0.67-.13,0.56-2.75-.9-5.44-2.43-8.38-2.59S423.17,60.09,424,63a13.71,13.71,0,0,1,.81,2.41c0.09,0.79-.69,4.27,1.51,3.6a0.29,0.29,0,0,1,.16.55h0Z" transform="translate(10.9 0.04)"/><path class="cls-6" d="M427.72,58c-3.69-1.54-1.67-4.12.61-6,1.44-1.19,3-2.82,4.8-3.47,1.58-.58,4.5-0.7,5,1.26a0.29,0.29,0,0,1-.55.16c-0.45-1.63-3.32-1.2-4.29-.85A7.77,7.77,0,0,0,431,50.62L429.32,52c-1.87,1.48-5,4-1.34,5.56,0.34,0.14.07,0.64-.27,0.5h0Z" transform="translate(10.9 0.04)"/><path class="cls-6" d="M438.39,58.48a9.86,9.86,0,0,1-.59-4.08c0-1.29-.56-3.45-0.16-4.62,0.81-2.36,3.67-2,5.52-1.1,2.92,1.4,8,4.93,8.88,8.28,0.52,2,1.55,5.74-.38,7.15-0.3.22-.59-0.27-0.3-0.49,0.93-.68.49-4.2,0.19-5.42-0.91-3.68-4-5.83-6.9-7.84-2.33-1.58-6.1-2.9-6.38,1.54-0.11,1.75-.11,4.77.61,6.29,0.15,0.33-.33.63-0.49,0.3h0Z" transform="translate(10.9 0.04)"/><path class="cls-6" d="M440.49,63.46c0.6,0.29,4.37,2.77,4.75,2.6a20.58,20.58,0,0,1-2.63-2.39c-0.62-.58-1.76-1.27-1.85-2.22-0.11-1.18,1.13-2.47,1.78-3.34,0.3-.39,1.78-1.8,1.71-2.13,0.14,0.67-1.34,1.64-1.73,2-3.43,2.76-4.59.79-7.49-1.75q-1-.8-1.88-1.65l-0.08-.71c0.72,0.4,1.6,2.1,2.08,2.77s2.07,2.61,1.89,3.7c-0.31,1.87-3.81,1.86-5.17,2.1-0.43.07-2.23,0.57-2.06,0.24s3.46-.16,3.74-0.15c1.14,0,2.89-.06,3.73.89a4.27,4.27,0,0,1,.53,2.63c0,1.14-.1,2.28,0,3.41s0.06,2.36.65,1.43c1.06-1.66-.27-6.29,1.77-7.4a0.29,0.29,0,0,1,.3.49c-1.64.9-1.15,6.73-2,8.47a0.29,0.29,0,0,1-.5,0c-1-1.59-.85-3.34-0.84-5.15,0-2.05-.31-3.59-2.57-4.11-1.87-.43-4.15,0-6.06.06-0.26,0-.43-0.4-0.16-0.53,2-.91,4.39-0.55,6.36-1.42,3.37-1.48-1.26-5.71-2.54-7.68a0.29,0.29,0,0,1,.44-0.36c1.75,1.78,4.24,4.73,6.69,5s3.52-1.71,5.41-3a0.29,0.29,0,0,1,.36.44c-1.25,1.54-3.71,3.61-3.38,5.61,0.3,1.84,3.16,3.54,4.45,4.84,0.18,0.18,0,.59-0.26.49a61.08,61.08,0,0,1-5.74-2.76A0.29,0.29,0,0,1,440.49,63.46Z" transform="translate(10.9 0.04)"/><path class="cls-11" d="M433.92,28.26a3,3,0,0,1-1.08.86A10.14,10.14,0,0,1,431,30.18a8.74,8.74,0,0,1-2.89.53c-1,.1-2.75.53-3.14,1.61s1,1.42,1.66,1.55c1.21,0.24,2.41.25,3.61,0.51s2.42,1.61,3.68,1.27" transform="translate(10.9 0.04)"/><path class="cls-11" d="M447.57,41a9.27,9.27,0,0,1-.71,1.21,7.65,7.65,0,0,1-1,1.14c-1,1.06-2.51,1.17-3.92,1.26a13.5,13.5,0,0,0-2-.12c-0.51.07-.9,0.42-1.4,0.48-1.39.18-1.81-1.13-2.54-1.87a4.63,4.63,0,0,0-1.28-.57,8,8,0,0,1-1.47-1.4c-1-1.15-.65-2.29-0.33-3.69,0.24-1,1-1.75.73-2.85a29.33,29.33,0,0,1-.8-3c-0.25-2.1,1.17-3.71,2-5.46,0.3-.63,1.26-1.12,1.49-1.69s-0.37-1.19.09-1.89a6.17,6.17,0,0,1,3-1.84c1.87-.38,4.34-0.86,6.21-0.37,1.26,0.33,2.17,1.46,3.28,2.08,1.35,0.76,1.91,2.9,2.62,4.19a2.31,2.31,0,0,1,0,2.2c-0.4.93-.36,0.73,0.06,1.69a5.15,5.15,0,0,1-.28,4.37c-0.65,1.47-.2,2.79-1,4.16A4.18,4.18,0,0,1,447.57,41Z" transform="translate(10.9 0.04)"/><path class="cls-10" d="M447.6,35.21c-1-1.14-3.73-1.15-5.45-1.37-0.77-.1-1,0.88-1.36,1.48a6.37,6.37,0,0,0-1.36,2.28c0.26-.85,2-3.84,1.23-4.75-0.61-.73-2.51,0-3.27-0.54,0.45-.31,2.69-0.45,3.39-1.52,0.35-.54,0-1.79-0.11-2.48,0.34,0.54.45,2.22,1.3,2.33a2.7,2.7,0,0,0,1.42-.45c0.56-.36,1.19-0.59,1.72-1-0.61.56-2.4,1.89-2.28,2.83,0.15,1.17,1.89,1.5,3.56,2.13A3.58,3.58,0,0,1,447.6,35.21Z" transform="translate(10.9 0.04)"/><path class="cls-6" d="M442,35.09c0.71,1.41,2.58,1.9,3.39,3.38,0.66,1.2,2.42,2.77,2.33,4.3-0.08,1.34-1.59,2.58-2.65,3.2a4.72,4.72,0,0,1-2,.62c-1.27.13-2.42,0.3-3.66,0.53a2.62,2.62,0,0,1-3-3.59,10.71,10.71,0,0,1,2.72-3.07,4.87,4.87,0,0,0,1.8-3.14,8,8,0,0,1,.51-2.22c0.15-.34.65-0.07,0.5,0.27-0.5,1.13-.24,2.26-0.65,3.36a6.12,6.12,0,0,1-1.75,2.12A15.28,15.28,0,0,0,437.4,43c-1.59,2.21.14,3.8,2.78,3.25,1.47-.31,3.17,0,4.53-0.78a5.54,5.54,0,0,0,1.77-1.54c1.11-1.77.14-2.49-.71-3.64s-1.29-2.42-2.6-3.36a4.82,4.82,0,0,1-1.72-1.56C441.35,35.09,441.83,34.79,442,35.09Z" transform="translate(10.9 0.04)"/><path class="cls-6" d="M436.26,45c-2.74-1.19-4.37-2.46-3.82-5.64a3.49,3.49,0,0,1,1.6-2.73,10.19,10.19,0,0,1,2.29-.71,11.55,11.55,0,0,0,3.1-1.49,0.29,0.29,0,0,1,.3.49,12.36,12.36,0,0,1-2.42,1.3c-1.31.47-3.11,0.44-3.92,1.84a5.35,5.35,0,0,0-.22,4.23c0.63,1.15,2.21,1.71,3.35,2.21,0.34,0.15.07,0.65-.27,0.5h0Z" transform="translate(10.9 0.04)"/><path class="cls-6" d="M433.7,37.09c0-1-.6-1.53-0.9-2.39a9.43,9.43,0,0,1-.32-2,4.62,4.62,0,0,1,1-3.13c1-1.54,1.63-5.18,4.22-3.1,0.29,0.23-.11.64-0.39,0.42-2-1.65-2.37,1.45-2.89,2.35-0.83,1.45-1.49,2-1.29,3.82,0.16,1.47,1.11,2.55,1.1,4a0.29,0.29,0,0,1-.57,0h0Z" transform="translate(10.9 0.04)"/><path class="cls-6" d="M439.58,32.38l-0.17.09a0.29,0.29,0,0,1-.43-0.24c-0.16-1.49.07-2.93-.75-4.26-0.6-1-1.91-1.39-2.31-2.51a2.39,2.39,0,0,1,1-2.72,4,4,0,0,1,1.8-.57c1.51-.2,3-0.57,4.54-0.72,1.84-.18,3.13.83,4.54,1.86,0.3,0.22-.1.63-0.39,0.42-1.22-.89-2.15-1.63-3.7-1.62a15.37,15.37,0,0,0-2.71.42c-2,.35-6.58.29-3.42,3.89,0.67,0.76,1.31,1.06,1.61,2.11,0.19,0.64.6,3.07,0,3.36,0.32-.17.62,0.32,0.3,0.49h0.09Z" transform="translate(10.9 0.04)"/><path class="cls-6" d="M441.56,31.09A13,13,0,0,0,444,27.61a11.13,11.13,0,0,1,1.52-2.9,2.85,2.85,0,0,1,3.72-.85,4.65,4.65,0,0,1,1.32,1.79,16.66,16.66,0,0,1,1.79,2.79,2.55,2.55,0,0,1-.73,3.1,0.29,0.29,0,0,1-.41-0.39c1.24-1.35.73-2.61-.27-4-1.16-1.63-2.31-4.24-4.65-2.38-1.2,1-1.5,2.66-2.2,4A13.86,13.86,0,0,1,442,31.52a0.29,0.29,0,0,1-.42-0.39h0Z" transform="translate(10.9 0.04)"/><path class="cls-6" d="M442.82,32.21c2.46-.88,4.37-2.25,7.14-1.76a3.33,3.33,0,0,1,2.84,3.72c-0.12,1.41-1.22,2.38-1.39,3.81-0.12,1,.19,1.9-0.21,2.85a3.53,3.53,0,0,1-3.77,2.1c-0.36-.06-0.23-0.61.13-0.56,3.12,0.5,3.12-2.42,3.29-4.38,0.1-1.24.87-2.1,1.16-3.29,0.87-3.54-3-4.23-5.55-3.45-1.2.36-2.28,1.08-3.47,1.51a0.29,0.29,0,0,1-.16-0.55h0Z" transform="translate(10.9 0.04)"/><path class="cls-6" d="M442.17,34.76a11.51,11.51,0,0,1,5.88,1.11,0.29,0.29,0,0,1-.2.53c-1.52-.5-4.45-1.33-5.28-2.83-1.07-1.94,2.63-4.2,3.74-5.24a0.29,0.29,0,0,1,.42.39c-1.06,1.14-3.45,3.51-5.25,2.9-1.6-.54-1.32-3.07-1.84-4.31l0.56-.09c0.15,1.49.65,3.9-.44,5.17-1,1.12-2.82,1-4.13,1.08V32.9c1.33,0,3.41-.25,4.16,1.15s0,3.72-.56,5.11l-0.46-.33c0.75-.88,1.93-4.29,3.49-4.07,0.36,0,.23.61-0.13,0.56-0.84-.12-2.36,3.21-3,3.91-0.23.27-.57,0-0.46-0.33,0.37-1,1.09-2.78.72-3.79-0.7-1.9-2.41-1.59-3.8-1.64a0.29,0.29,0,0,1,0-.57c1.91-.06,3.72-0.11,4.15-2.49a11.79,11.79,0,0,0-.13-3.18,0.29,0.29,0,0,1,.56-0.09c0.56,1.33.22,2.33,1.49,3.22s1.56,0.44,2.68-.29a11,11,0,0,0,2-1.75l0.42,0.39c-1.38,1.29-4.86,3.52-2.7,5.32a12.6,12.6,0,0,0,4,1.8l-0.2.53a10.9,10.9,0,0,0-5.59-1A0.3,0.3,0,0,1,442.17,34.76Z" transform="translate(10.9 0.04)"/><path class="cls-6" d="M433,37.78c-1.56-2.35-3.91-1.19-6.18-1.74-1-.25-2.59-0.9-2.45-2.23s1.58-1.78,2.57-2.07a17.22,17.22,0,0,1,2.43-.39,20.24,20.24,0,0,0,3.78-1.26,0.29,0.29,0,0,1,.16.55A22.58,22.58,0,0,1,428.76,32a9.64,9.64,0,0,0-2,.41,2.93,2.93,0,0,0-1.4.75c-0.6.85-.9,1.16,0.45,1.89a4.06,4.06,0,0,0,1,.37c2.56,0.72,5-.58,6.75,2a0.29,0.29,0,0,1-.49.3h0Z" transform="translate(10.9 0.04)"/></svg>