<svg id="WW_Frames_CMYK" data-name="WW Frames CMYK" xmlns="http://www.w3.org/2000/svg" viewBox="0 0 96 124.69"><defs><style>.cls-1{fill:#69b94c;}.cls-2{fill:#fdc400;}.cls-3{fill:#e8247f;}.cls-4{fill:#644130;}.cls-5{fill:#addbe1;}.cls-6{fill:#f4f2e7;}</style></defs><title>Corner_Vines_7</title><path class="cls-1" d="M176.59,90.91V90.18a3.82,3.82,0,0,0,3.3-2.92,7.34,7.34,0,0,0-.61-4.81,8.64,8.64,0,0,0-1.2-2,6.25,6.25,0,0,1-3.52,3.08,2.42,2.42,0,0,1-2-.39,2.46,2.46,0,0,1-1-2,3,3,0,0,1,1-2.4,4,4,0,0,1,4.51-.13,5.58,5.58,0,0,1,.78.57A24.49,24.49,0,0,0,180,64.09L180.7,64a25.22,25.22,0,0,1-2.31,15.75,9.16,9.16,0,0,1,1.5,2.42,8.06,8.06,0,0,1,.64,5.29A4.56,4.56,0,0,1,176.59,90.91Zm-1.77-12.17a2.7,2.7,0,0,0-1.77.59,2.28,2.28,0,0,0-.77,1.81,1.72,1.72,0,0,0,.67,1.39,1.7,1.7,0,0,0,1.43.27,5.54,5.54,0,0,0,3.05-2.74l0.1-.19a4.77,4.77,0,0,0-.81-0.61A3.74,3.74,0,0,0,174.82,78.74Z" transform="translate(-115.1 0)"/><path class="cls-2" d="M140.2,2.74c0.21,0.2.37,0.06,0.4-.15a7.27,7.27,0,0,0,0-.81A0.62,0.62,0,0,1,141,1.17a0.46,0.46,0,0,1,.61.22l0,0.07c0.12,0.38-.16,1.11.14,1.38a0.56,0.56,0,0,0,.69,0,1.52,1.52,0,0,1,1.25-.12,0.79,0.79,0,0,1,.11.77c-0.32.61-1.4,0-1.54,0.59a0.76,0.76,0,0,0,.41.67,1.08,1.08,0,0,1,.31.8,0.45,0.45,0,0,1-.45.45l-0.12,0a1.05,1.05,0,0,1-.7-0.63c-0.17-.31-0.52-1.5-1-0.71-0.26.43-.37,1.63-1.16,1.42A0.68,0.68,0,0,1,139,5.35a1.53,1.53,0,0,1,.59-1.07c0.23-.27.12-0.39-0.14-0.56l-0.87-.56a0.64,0.64,0,0,1-.35-0.62,0.71,0.71,0,0,1,.68-0.43A2.41,2.41,0,0,1,140.2,2.74Z" transform="translate(-115.1 0)"/><path class="cls-2" d="M145.66,4.94c-0.07.22-.23,0.19-0.34,0.05s-0.21-.38-0.34-0.54a0.48,0.48,0,0,0-.53-0.25,0.38,0.38,0,0,0-.34.4,0.09,0.09,0,0,0,0,.05,2.66,2.66,0,0,1,.45,1,0.45,0.45,0,0,1-.47.27,1.21,1.21,0,0,0-.9.41,0.63,0.63,0,0,0,.23.57c0.46,0.29,1-.54,1.29-0.2a0.58,0.58,0,0,1,0,.62,0.83,0.83,0,0,0,.11.67,0.36,0.36,0,0,0,.49.13l0.08-.06a0.85,0.85,0,0,0,.23-0.71c0-.28-0.23-1.23.4-0.88,0.35,0.2.9,1,1.36,0.52a0.54,0.54,0,0,0,.1-0.71,1.16,1.16,0,0,0-.82-0.5c-0.26-.09-0.24-0.22-0.13-0.44l0.37-.73a0.5,0.5,0,0,0,0-.57,0.54,0.54,0,0,0-.64,0A1.86,1.86,0,0,0,145.66,4.94Z" transform="translate(-115.1 0)"/><path class="cls-2" d="M142.42,20c-0.07.22-.23,0.19-0.34,0s-0.21-.38-0.34-0.54a0.48,0.48,0,0,0-.53-0.25,0.37,0.37,0,0,0-.34.4s0,0,0,.06a2.66,2.66,0,0,1,.45,1,0.45,0.45,0,0,1-.47.27,1.21,1.21,0,0,0-.9.41,0.63,0.63,0,0,0,.23.57c0.46,0.29,1-.54,1.29-0.2a0.58,0.58,0,0,1,0,.62,0.83,0.83,0,0,0,.11.67,0.36,0.36,0,0,0,.49.13l0.08-.06a0.85,0.85,0,0,0,.23-0.71c0-.28-0.23-1.23.4-0.88,0.35,0.2.9,1,1.36,0.52a0.54,0.54,0,0,0,.1-0.71,1.19,1.19,0,0,0-.82-0.5c-0.26-.09-0.24-0.22-0.13-0.44l0.37-.73a0.5,0.5,0,0,0,0-.57,0.54,0.54,0,0,0-.64,0A1.9,1.9,0,0,0,142.42,20Z" transform="translate(-115.1 0)"/><path class="cls-2" d="M124.67,26.81c-0.07.22-.23,0.19-0.34,0s-0.21-.38-0.34-0.54a0.48,0.48,0,0,0-.53-0.25,0.38,0.38,0,0,0-.34.4,0.09,0.09,0,0,0,0,0,2.66,2.66,0,0,1,.45,1,0.45,0.45,0,0,1-.47.27,1.21,1.21,0,0,0-.9.41,0.63,0.63,0,0,0,.23.57c0.46,0.29,1-.54,1.29-0.2a0.58,0.58,0,0,1,0,.62,0.83,0.83,0,0,0,.11.67,0.36,0.36,0,0,0,.49.13l0.08-.06a0.85,0.85,0,0,0,.23-0.71c0-.28-0.23-1.23.4-0.88,0.35,0.2.9,1,1.36,0.52a0.54,0.54,0,0,0,.1-0.71,1.19,1.19,0,0,0-.82-0.5c-0.26-.09-0.24-0.22-0.13-0.44l0.37-.73a0.5,0.5,0,0,0,0-.57,0.54,0.54,0,0,0-.64,0A1.91,1.91,0,0,0,124.67,26.81Z" transform="translate(-115.1 0)"/><path class="cls-2" d="M124,12.37c0,0.23-.13.27-0.29,0.19s-0.34-.26-0.53-0.36a0.48,0.48,0,0,0-.58,0,0.37,0.37,0,0,0-.14.5l0,0.05a2.6,2.6,0,0,1,.82.73,0.46,0.46,0,0,1-.32.44,1.18,1.18,0,0,0-.66.74,0.63,0.63,0,0,0,.44.43c0.54,0.07.67-.89,1.1-0.71a0.6,0.6,0,0,1,.24.57,0.85,0.85,0,0,0,.37.57,0.35,0.35,0,0,0,.5-0.08,0.41,0.41,0,0,0,.05-0.09,0.84,0.84,0,0,0-.08-0.74c-0.12-.25-0.72-1,0-1,0.4,0,1.22.52,1.45-.08a0.54,0.54,0,0,0-.2-0.69,1.18,1.18,0,0,0-1-.12c-0.28,0-.31-0.11-0.3-0.35s0-.54,0-0.82a0.51,0.51,0,0,0-.24-0.51,0.55,0.55,0,0,0-.59.23A2,2,0,0,0,124,12.37Z" transform="translate(-115.1 0)"/><path class="cls-2" d="M139.4,13c0.26,0,.3.15,0.21,0.33s-0.3.39-.41,0.61a0.56,0.56,0,0,0,0,.67,0.42,0.42,0,0,0,.57.17l0.06,0c0.29-.22.47-0.89,0.84-0.94a0.52,0.52,0,0,1,.5.36,1.38,1.38,0,0,0,.85.75,0.72,0.72,0,0,0,.49-0.5c0.08-.62-1-0.76-0.81-1.25a0.66,0.66,0,0,1,.65-0.27,1,1,0,0,0,.65-0.42,0.41,0.41,0,0,0-.1-0.57l-0.09-.05a1,1,0,0,0-.85.09c-0.29.13-1.18,0.82-1.1,0,0-.46.6-1.39-0.09-1.66a0.62,0.62,0,0,0-.79.23,1.38,1.38,0,0,0-.13,1.09c0,0.32-.12.35-0.4,0.34l-0.93-.05a0.58,0.58,0,0,0-.59.27,0.63,0.63,0,0,0,.27.68A2.24,2.24,0,0,0,139.4,13Z" transform="translate(-115.1 0)"/><path class="cls-2" d="M138.74,30.78c0.24-.1.33,0.07,0.29,0.26s-0.19.45-.24,0.69a0.54,0.54,0,0,0,.15.64,0.42,0.42,0,0,0,.59,0,0.15,0.15,0,0,0,0,0c0.22-.28.23-1,0.57-1.1a0.51,0.51,0,0,1,.57.22,1.36,1.36,0,0,0,1,.51,0.73,0.73,0,0,0,.35-0.6c-0.07-.61-1.16-0.48-1.09-1a0.67,0.67,0,0,1,.56-0.42,1,1,0,0,0,.52-0.57,0.4,0.4,0,0,0-.22-0.52,0.27,0.27,0,0,0-.12,0,1,1,0,0,0-.79.29c-0.24.2-.93,1.07-1.06,0.26-0.07-.45.23-1.48-0.5-1.57a0.62,0.62,0,0,0-.7.41,1.32,1.32,0,0,0,.14,1.08c0.1,0.3,0,.37-0.3.42l-0.91.18a0.58,0.58,0,0,0-.5.4,0.63,0.63,0,0,0,.42.59A2.26,2.26,0,0,0,138.74,30.78Z" transform="translate(-115.1 0)"/><path class="cls-2" d="M127.11,15.61c0.24-.1.33,0.07,0.29,0.26s-0.19.45-.24,0.69a0.54,0.54,0,0,0,.15.64,0.42,0.42,0,0,0,.59,0l0,0c0.22-.28.23-1,0.57-1.1a0.51,0.51,0,0,1,.57.22,1.4,1.4,0,0,0,1,.51,0.73,0.73,0,0,0,.35-0.6c-0.07-.61-1.16-0.48-1.09-1a0.67,0.67,0,0,1,.56-0.42,1,1,0,0,0,.52-0.57,0.4,0.4,0,0,0-.22-0.52,0.27,0.27,0,0,0-.12,0,1,1,0,0,0-.79.29c-0.24.2-.93,1.07-1.06,0.26-0.07-.45.23-1.48-0.5-1.57a0.62,0.62,0,0,0-.7.41,1.32,1.32,0,0,0,.14,1.08c0.1,0.3,0,.37-0.3.42l-0.91.18a0.58,0.58,0,0,0-.5.4,0.63,0.63,0,0,0,.42.59A2.26,2.26,0,0,0,127.11,15.61Z" transform="translate(-115.1 0)"/><path class="cls-2" d="M125.88,34.2c-0.07.22-.23,0.19-0.34,0s-0.2-.38-0.34-0.54a0.48,0.48,0,0,0-.53-0.25,0.37,0.37,0,0,0-.34.4s0,0,0,.06a2.66,2.66,0,0,1,.45,1,0.45,0.45,0,0,1-.47.27,1.21,1.21,0,0,0-.9.41,0.63,0.63,0,0,0,.23.57c0.46,0.29,1-.54,1.29-0.2a0.58,0.58,0,0,1,0,.62,0.83,0.83,0,0,0,.11.67,0.36,0.36,0,0,0,.49.13l0.08-.06a0.85,0.85,0,0,0,.23-0.71c0-.28-0.23-1.23.4-0.88,0.35,0.2.9,1,1.36,0.52a0.54,0.54,0,0,0,.1-0.71,1.19,1.19,0,0,0-.82-0.5c-0.26-.09-0.24-0.22-0.13-0.44l0.37-.73a0.5,0.5,0,0,0,0-.57,0.54,0.54,0,0,0-.64,0A1.9,1.9,0,0,0,125.88,34.2Z" transform="translate(-115.1 0)"/><path class="cls-2" d="M118.16,18.09c-0.18.14-.3,0-0.31-0.16a2.73,2.73,0,0,0,0-.64,0.48,0.48,0,0,0-.27-0.52,0.37,0.37,0,0,0-.51.13,0.08,0.08,0,0,0,0,0,2.64,2.64,0,0,1-.23,1.07,0.45,0.45,0,0,1-.54-0.06,1.23,1.23,0,0,0-1-.2,0.64,0.64,0,0,0-.16.59c0.2,0.51,1.1.14,1.16,0.6a0.59,0.59,0,0,1-.38.49,0.88,0.88,0,0,0-.31.6,0.36,0.36,0,0,0,.32.39H116a0.85,0.85,0,0,0,.61-0.43c0.16-.22.54-1.13,0.84-0.47,0.17,0.37.15,1.32,0.79,1.22a0.54,0.54,0,0,0,.5-0.51,1.19,1.19,0,0,0-.37-0.89c-0.15-.23-0.06-0.32.16-0.43l0.73-.37a0.51,0.51,0,0,0,.33-0.46,0.53,0.53,0,0,0-.5-0.4A1.91,1.91,0,0,0,118.16,18.09Z" transform="translate(-115.1 0)"/><path class="cls-2" d="M143.83,9.23c-0.23,0-.22-0.2-0.1-0.33s0.34-.26.49-0.42a0.47,0.47,0,0,0,.17-0.56,0.37,0.37,0,0,0-.45-0.27l-0.05,0a2.64,2.64,0,0,1-.92.59,0.46,0.46,0,0,1-.34-0.42A1.21,1.21,0,0,0,142.09,7a0.64,0.64,0,0,0-.53.31c-0.22.5,0.68,0.88,0.39,1.25a0.61,0.61,0,0,1-.62.08,0.86,0.86,0,0,0-.65.21,0.35,0.35,0,0,0-.07.5,0.46,0.46,0,0,0,.07.07,0.85,0.85,0,0,0,.74.12c0.27,0,1.18-.42.93,0.26-0.14.38-.83,1-0.31,1.42a0.55,0.55,0,0,0,.72,0,1.19,1.19,0,0,0,.37-0.89c0.05-.27.18-0.27,0.42-0.19l0.78,0.26a0.5,0.5,0,0,0,.56-0.09,0.56,0.56,0,0,0-.07-0.63A1.85,1.85,0,0,0,143.83,9.23Z" transform="translate(-115.1 0)"/><path class="cls-2" d="M118.4,22.89c-0.23,0-.22-0.2-0.1-0.33s0.34-.26.49-0.42a0.47,0.47,0,0,0,.17-0.56,0.37,0.37,0,0,0-.45-0.27l-0.05,0a2.64,2.64,0,0,1-.92.59,0.46,0.46,0,0,1-.34-0.42,1.21,1.21,0,0,0-.54-0.83,0.64,0.64,0,0,0-.53.31c-0.22.5,0.68,0.88,0.39,1.25a0.59,0.59,0,0,1-.61.08,0.86,0.86,0,0,0-.65.21,0.35,0.35,0,0,0-.07.5l0.07,0.07a0.85,0.85,0,0,0,.74.12c0.27,0,1.18-.41.93,0.27-0.14.37-.83,1-0.31,1.42a0.55,0.55,0,0,0,.72,0,1.19,1.19,0,0,0,.37-0.89c0.05-.27.18-0.27,0.42-0.19l0.78,0.26a0.5,0.5,0,0,0,.56-0.09,0.56,0.56,0,0,0-.07-0.63A2,2,0,0,0,118.4,22.89Z" transform="translate(-115.1 0)"/><path class="cls-2" d="M147,33.09c-0.07.22-.23,0.19-0.34,0s-0.2-.38-0.34-0.54a0.48,0.48,0,0,0-.53-0.25,0.38,0.38,0,0,0-.34.4,0.09,0.09,0,0,0,0,0,2.66,2.66,0,0,1,.45,1,0.45,0.45,0,0,1-.47.27,1.21,1.21,0,0,0-.9.41,0.63,0.63,0,0,0,.23.57c0.46,0.29,1-.54,1.29-0.2a0.58,0.58,0,0,1,0,.62,0.83,0.83,0,0,0,.11.67,0.36,0.36,0,0,0,.49.13l0.08-.06a0.85,0.85,0,0,0,.23-0.71c0-.28-0.23-1.23.4-0.88,0.35,0.2.9,1,1.36,0.52a0.54,0.54,0,0,0,.1-0.71,1.19,1.19,0,0,0-.82-0.5c-0.26-.09-0.24-0.22-0.13-0.44l0.37-.73a0.5,0.5,0,0,0,0-.57,0.54,0.54,0,0,0-.64,0A1.86,1.86,0,0,0,147,33.09Z" transform="translate(-115.1 0)"/><path class="cls-2" d="M152.25,14.48c-0.16-.17-0.29-0.07-0.33.1a5.42,5.42,0,0,1-.07.64,0.47,0.47,0,0,1-.36.46,0.37,0.37,0,0,1-.48-0.22,0.06,0.06,0,0,1,0,0,2.55,2.55,0,0,0,0-1.1,0.45,0.45,0,0,0-.54,0,1.24,1.24,0,0,1-1,0,0.66,0.66,0,0,1,0-.61c0.29-.46,1.11.05,1.25-0.39a0.59,0.59,0,0,0-.29-0.55,0.86,0.86,0,0,1-.2-0.65,0.36,0.36,0,0,1,.39-0.33l0.09,0a0.83,0.83,0,0,1,.52.53c0.12,0.25.34,1.21,0.75,0.61,0.23-.33.38-1.27,1-1.07a0.54,0.54,0,0,1,.41.59,1.18,1.18,0,0,1-.52.81c-0.19.2-.11,0.31,0.08,0.45l0.66,0.49a0.51,0.51,0,0,1,.24.51,0.55,0.55,0,0,1-.56.31A1.91,1.91,0,0,1,152.25,14.48Z" transform="translate(-115.1 0)"/><path class="cls-2" d="M122.66,23.82c-0.16-.17-0.29-0.07-0.33.1a5.42,5.42,0,0,1-.07.64,0.47,0.47,0,0,1-.36.46,0.37,0.37,0,0,1-.48-0.22,0.06,0.06,0,0,1,0,0,2.55,2.55,0,0,0,0-1.1,0.45,0.45,0,0,0-.54,0,1.24,1.24,0,0,1-1,0,0.66,0.66,0,0,1,0-.61c0.29-.46,1.11,0,1.25-0.39a0.59,0.59,0,0,0-.29-0.55,0.86,0.86,0,0,1-.2-0.65,0.36,0.36,0,0,1,.39-0.33l0.09,0a0.83,0.83,0,0,1,.52.53c0.12,0.25.34,1.21,0.75,0.61,0.23-.33.38-1.27,1-1.07a0.54,0.54,0,0,1,.41.59,1.18,1.18,0,0,1-.52.81c-0.19.2-.11,0.31,0.08,0.45L124,23.56a0.5,0.5,0,0,1,.24.51,0.55,0.55,0,0,1-.56.31A1.91,1.91,0,0,1,122.66,23.82Z" transform="translate(-115.1 0)"/><path class="cls-2" d="M147,19.19c0,0.23.18,0.23,0.32,0.13s0.29-.32.46-0.45a0.49,0.49,0,0,1,.57-0.12,0.37,0.37,0,0,1,.23.47l0,0a2.71,2.71,0,0,0-.67.87,0.45,0.45,0,0,0,.39.38,1.23,1.23,0,0,1,.78.61,0.64,0.64,0,0,1-.35.5c-0.52.17-.82-0.75-1.21-0.5a0.57,0.57,0,0,0-.13.61,0.88,0.88,0,0,1-.26.63,0.37,0.37,0,0,1-.51,0l-0.06-.08a0.84,0.84,0,0,1-.06-0.74c0.07-.27.51-1.15-0.19-1-0.39.11-1.1,0.74-1.44,0.19a0.54,0.54,0,0,1,.06-0.72,1.19,1.19,0,0,1,.92-0.29c0.28,0,.28-0.16.23-0.4s-0.13-.53-0.2-0.79a0.52,0.52,0,0,1,.14-0.55,0.55,0.55,0,0,1,.63.12A1.94,1.94,0,0,1,147,19.19Z" transform="translate(-115.1 0)"/><path class="cls-2" d="M133.15,16.68c0.07,0.22.24,0.18,0.34,0a3.48,3.48,0,0,1,.33-0.55,0.48,0.48,0,0,1,.52-0.27,0.38,0.38,0,0,1,.35.39,0.13,0.13,0,0,1,0,.06,2.6,2.6,0,0,0-.42,1,0.46,0.46,0,0,0,.48.26,1.22,1.22,0,0,1,.91.38,0.65,0.65,0,0,1-.21.58c-0.45.3-1-.51-1.3-0.16a0.58,0.58,0,0,0,0,.62,0.85,0.85,0,0,1-.09.68,0.36,0.36,0,0,1-.49.14,0.18,0.18,0,0,1-.07,0,0.84,0.84,0,0,1-.26-0.7c0-.28.19-1.24-0.43-0.87-0.34.21-.87,1-1.34,0.56a0.54,0.54,0,0,1-.12-0.71,1.18,1.18,0,0,1,.81-0.52c0.26-.1.23-0.23,0.11-0.45l-0.4-.72a0.5,0.5,0,0,1,0-.57,0.54,0.54,0,0,1,.64,0A1.89,1.89,0,0,1,133.15,16.68Z" transform="translate(-115.1 0)"/><path class="cls-2" d="M139.34,25.09c0.21,0.09.29-.06,0.25-0.23s-0.16-.4-0.21-0.61a0.48,0.48,0,0,1,.13-0.57,0.38,0.38,0,0,1,.52,0,0.15,0.15,0,0,1,0,0,2.48,2.48,0,0,0,.5,1,0.45,0.45,0,0,0,.51-0.19A1.18,1.18,0,0,1,142,24a0.63,0.63,0,0,1,.3.53c-0.07.54-1,.42-1,0.88a0.59,0.59,0,0,0,.49.38,0.87,0.87,0,0,1,.46.5,0.37,0.37,0,0,1-.2.47l-0.1,0a0.84,0.84,0,0,1-.7-0.26c-0.21-.18-0.81-1-0.94-0.24-0.07.4,0.19,1.31-.45,1.38a0.55,0.55,0,0,1-.62-0.37,1.18,1.18,0,0,1,.13-1c0.09-.26,0-0.32-0.26-0.38l-0.8-.17a0.5,0.5,0,0,1-.43-0.36,0.55,0.55,0,0,1,.4-0.42A1.93,1.93,0,0,1,139.34,25.09Z" transform="translate(-115.1 0)"/><path class="cls-2" d="M131.55,7.41c0.23,0,.24-0.17.14-0.31s-0.31-.3-0.44-0.47a0.47,0.47,0,0,1-.11-0.57,0.37,0.37,0,0,1,.47-0.22l0.05,0a2.59,2.59,0,0,0,.85.69,0.45,0.45,0,0,0,.39-0.38,1.24,1.24,0,0,1,.63-0.77,0.63,0.63,0,0,1,.49.37c0.16,0.52-.77.8-0.53,1.19a0.58,0.58,0,0,0,.6.14,0.86,0.86,0,0,1,.62.27,0.36,0.36,0,0,1,0,.51l-0.08.06a0.83,0.83,0,0,1-.75,0c-0.27-.08-1.13-0.54-1,0.16,0.1,0.39.71,1.12,0.15,1.45a0.54,0.54,0,0,1-.71-0.09,1.17,1.17,0,0,1-.27-0.93c0-.28-0.15-0.29-0.4-0.24l-0.8.17a0.52,0.52,0,0,1-.54-0.15,0.55,0.55,0,0,1,.14-0.62A1.93,1.93,0,0,1,131.55,7.41Z" transform="translate(-115.1 0)"/><path class="cls-2" d="M136.14,15.23c0.23,0,.24-0.17.14-0.31s-0.31-.3-0.44-0.47a0.47,0.47,0,0,1-.11-0.57,0.37,0.37,0,0,1,.47-0.22l0.05,0a2.59,2.59,0,0,0,.85.69,0.45,0.45,0,0,0,.39-0.38,1.2,1.2,0,0,1,.63-0.76,0.63,0.63,0,0,1,.49.37c0.16,0.52-.77.8-0.53,1.19a0.58,0.58,0,0,0,.6.14,0.86,0.86,0,0,1,.62.28,0.36,0.36,0,0,1,0,.51l-0.08.06a0.83,0.83,0,0,1-.75,0c-0.27-.08-1.13-0.54-1,0.16,0.1,0.39.71,1.12,0.15,1.45a0.54,0.54,0,0,1-.71-0.08,1.17,1.17,0,0,1-.27-0.93c0-.28-0.15-0.29-0.4-0.24l-0.8.17a0.52,0.52,0,0,1-.54-0.15,0.55,0.55,0,0,1,.14-0.62A2,2,0,0,1,136.14,15.23Z" transform="translate(-115.1 0)"/><path class="cls-2" d="M126.12,6c-0.16-.17-0.29-0.07-0.33.1a5.42,5.42,0,0,1-.07.64,0.47,0.47,0,0,1-.36.46A0.37,0.37,0,0,1,124.88,7a0.06,0.06,0,0,1,0,0,2.55,2.55,0,0,0,0-1.1,0.45,0.45,0,0,0-.54,0,1.24,1.24,0,0,1-1,0,0.61,0.61,0,0,1,0-.61c0.29-.46,1.11.05,1.25-0.39a0.59,0.59,0,0,0-.29-0.55,0.86,0.86,0,0,1-.2-0.65,0.36,0.36,0,0,1,.39-0.33l0.09,0a0.83,0.83,0,0,1,.52.53c0.12,0.25.34,1.21,0.75,0.61,0.23-.33.38-1.27,1-1.07a0.54,0.54,0,0,1,.41.59,1.18,1.18,0,0,1-.52.81c-0.19.2-.11,0.31,0.08,0.45l0.66,0.49a0.51,0.51,0,0,1,.24.51,0.55,0.55,0,0,1-.56.31A2,2,0,0,1,126.12,6Z" transform="translate(-115.1 0)"/><path class="cls-2" d="M142.25,18c-0.16-.17-0.29-0.07-0.33.1a5.42,5.42,0,0,1-.07.64,0.47,0.47,0,0,1-.36.46A0.37,0.37,0,0,1,141,19a0.06,0.06,0,0,1,0,0,2.55,2.55,0,0,0,0-1.1,0.45,0.45,0,0,0-.54,0,1.24,1.24,0,0,1-1,0,0.66,0.66,0,0,1,0-.61c0.29-.46,1.11,0,1.25-0.39a0.59,0.59,0,0,0-.29-0.55,0.85,0.85,0,0,1-.2-0.65,0.36,0.36,0,0,1,.39-0.33l0.09,0a0.83,0.83,0,0,1,.52.53c0.12,0.25.34,1.21,0.75,0.61,0.23-.33.38-1.27,1-1.07a0.54,0.54,0,0,1,.28.6,1.18,1.18,0,0,1-.52.81c-0.19.2-.11,0.31,0.08,0.45l0.66,0.49a0.51,0.51,0,0,1,.24.51,0.55,0.55,0,0,1-.56.31A1.91,1.91,0,0,1,142.25,18Z" transform="translate(-115.1 0)"/><path class="cls-2" d="M124.93,21.94c0.2-.11.14-0.26,0-0.34s-0.41-.13-0.6-0.24a0.48,0.48,0,0,1-.35-0.47,0.37,0.37,0,0,1,.33-0.41h0.06a2.62,2.62,0,0,0,1.07.25,0.45,0.45,0,0,0,.18-0.51,1.24,1.24,0,0,1,.24-1,0.65,0.65,0,0,1,.6.12c0.37,0.4-.35,1.06,0,1.31a0.6,0.6,0,0,0,.6-0.13,0.89,0.89,0,0,1,.68,0A0.36,0.36,0,0,1,128,21a0.2,0.2,0,0,1,0,.08,0.85,0.85,0,0,1-.65.36c-0.27,0-1.26,0-.79.56,0.26,0.31,1.13.7,0.76,1.24a0.54,0.54,0,0,1-.68.23,1.17,1.17,0,0,1-.64-0.72c-0.14-.24-0.26-0.19-0.46,0l-0.65.5a0.49,0.49,0,0,1-.56.1,0.54,0.54,0,0,1-.15-0.62A1.93,1.93,0,0,1,124.93,21.94Z" transform="translate(-115.1 0)"/><path class="cls-2" d="M145.07,31.17c-0.16-.17-0.29-0.07-0.33.1a5.42,5.42,0,0,1-.07.64,0.47,0.47,0,0,1-.36.46,0.37,0.37,0,0,1-.48-0.22,0.06,0.06,0,0,1,0,0,2.55,2.55,0,0,0,0-1.1,0.45,0.45,0,0,0-.54,0,1.24,1.24,0,0,1-1,0,0.66,0.66,0,0,1,0-.61c0.29-.46,1.11,0,1.25-0.39a0.59,0.59,0,0,0-.29-0.55,0.86,0.86,0,0,1-.2-0.65,0.36,0.36,0,0,1,.39-0.33l0.09,0A0.83,0.83,0,0,1,144,29c0.12,0.25.34,1.21,0.75,0.61,0.23-.33.38-1.27,1-1.07a0.54,0.54,0,0,1,.41.59,1.18,1.18,0,0,1-.52.81c-0.19.2-.11,0.3,0.08,0.45l0.66,0.49a0.51,0.51,0,0,1,.24.51,0.55,0.55,0,0,1-.56.31A2,2,0,0,1,145.07,31.17Z" transform="translate(-115.1 0)"/><path class="cls-2" d="M151.32,23.25c0,0.31-.22.34-0.42,0.21a7.35,7.35,0,0,0-.65-0.57,0.65,0.65,0,0,0-.78-0.12,0.49,0.49,0,0,0-.27.65l0,0.07c0.21,0.37,1,.68,1,1.12a0.62,0.62,0,0,1-.5.54,1.62,1.62,0,0,0-1,.9,0.87,0.87,0,0,0,.52.65c0.71,0.19,1-1.09,1.59-.78a0.81,0.81,0,0,1,.23.81,1.17,1.17,0,0,0,.41.83,0.48,0.48,0,0,0,.68,0,0.44,0.44,0,0,0,.08-0.11,1.17,1.17,0,0,0,0-1c-0.12-.36-0.8-1.51.17-1.3,0.53,0.11,1.56.9,2,.13a0.74,0.74,0,0,0-.15-1A1.61,1.61,0,0,0,153,24c-0.38,0-.4-0.19-0.34-0.52s0.13-.73.19-1.09a0.68,0.68,0,0,0-.24-0.73,0.76,0.76,0,0,0-.84.22A2.63,2.63,0,0,0,151.32,23.25Z" transform="translate(-115.1 0)"/><path class="cls-2" d="M120.38,26c-0.22.22-.4,0.08-0.44-0.15s0-.58-0.07-0.87a0.65,0.65,0,0,0-.47-0.64,0.5,0.5,0,0,0-.66.27,0.19,0.19,0,0,0,0,.07c-0.11.41,0.22,1.18-.1,1.49a0.63,0.63,0,0,1-.74,0,1.65,1.65,0,0,0-1.34-.08,0.88,0.88,0,0,0-.09.83c0.37,0.64,1.51,0,1.68.58a0.81,0.81,0,0,1-.41.73,1.2,1.2,0,0,0-.3.87,0.49,0.49,0,0,0,.52.46l0.11,0a1.15,1.15,0,0,0,.73-0.7c0.17-.33.5-1.63,1-0.8,0.3,0.46.46,1.74,1.3,1.48a0.74,0.74,0,0,0,.57-0.79,1.63,1.63,0,0,0-.67-1.12c-0.25-.28-0.14-0.42.13-0.61l0.91-.64a0.7,0.7,0,0,0,.35-0.68,0.75,0.75,0,0,0-.75-0.44A2.54,2.54,0,0,0,120.38,26Z" transform="translate(-115.1 0)"/><path class="cls-2" d="M149.88,9.47c-0.28.15-.19,0.36,0,0.47s0.57,0.18.83,0.32a0.65,0.65,0,0,1,.48.65,0.52,0.52,0,0,1-.45.57h-0.08c-0.43,0-1.09-.56-1.48-0.34a0.64,0.64,0,0,0-.25.71,1.69,1.69,0,0,1-.32,1.34,0.88,0.88,0,0,1-.84-0.16c-0.51-.55.48-1.47-0.07-1.81a0.82,0.82,0,0,0-.84.19,1.18,1.18,0,0,1-.94,0,0.51,0.51,0,0,1-.31-0.64,0.24,0.24,0,0,1,.06-0.11,1.17,1.17,0,0,1,.9-0.51c0.38-.07,1.74,0,1.09-0.78-0.36-.42-1.57-1-1.07-1.71a0.76,0.76,0,0,1,.94-0.33,1.62,1.62,0,0,1,.9,1c0.2,0.33.37,0.26,0.64,0.06l0.89-.7a0.71,0.71,0,0,1,.77-0.14,0.77,0.77,0,0,1,.21.86A2.58,2.58,0,0,1,149.88,9.47Z" transform="translate(-115.1 0)"/><path class="cls-2" d="M130.89,19.23c-0.16.28,0,.41,0.27,0.39s0.58-.15.87-0.17a0.66,0.66,0,0,1,.76.29,0.51,0.51,0,0,1-.08.72l-0.06,0c-0.4.22-1.23,0.11-1.4,0.51a0.63,0.63,0,0,0,.17.73,1.68,1.68,0,0,1,.45,1.3,0.86,0.86,0,0,1-.79.32c-0.73-.19-0.39-1.49-1-1.49a0.82,0.82,0,0,0-.61.61,1.18,1.18,0,0,1-.78.54,0.49,0.49,0,0,1-.6-0.35,0.38,0.38,0,0,1,0-.15,1.15,1.15,0,0,1,.49-0.91c0.28-.26,1.46-1,0.5-1.24-0.53-.16-1.84,0-1.82-0.87a0.76,0.76,0,0,1,.62-0.78,1.66,1.66,0,0,1,1.29.35c0.34,0.17.45,0,.57-0.3s0.25-.71.37-1.07a0.71,0.71,0,0,1,.58-0.53,0.77,0.77,0,0,1,.64.61A2.67,2.67,0,0,1,130.89,19.23Z" transform="translate(-115.1 0)"/><path class="cls-2" d="M128.18,11.5c-0.05-.32-0.28-0.3-0.46-0.14s-0.35.48-.57,0.68a0.66,0.66,0,0,1-.77.25,0.52,0.52,0,0,1-.39-0.61,0.26,0.26,0,0,1,0-.08c0.15-.41.88-0.85,0.8-1.29a0.62,0.62,0,0,0-.59-0.46,1.7,1.7,0,0,1-1.16-.73,0.87,0.87,0,0,1,.42-0.74c0.69-.31,1.24.92,1.74,0.52a0.82,0.82,0,0,0,.09-0.85,1.18,1.18,0,0,1,.27-0.9,0.5,0.5,0,0,1,.7-0.09l0.09,0.09a1.19,1.19,0,0,1,.19,1c-0.06.38-.55,1.65,0.39,1.28,0.52-.2,1.42-1.17,2-0.46a0.76,0.76,0,0,1,0,1,1.64,1.64,0,0,1-1.23.53c-0.38.08-.37,0.26-0.26,0.58s0.25,0.71.38,1.07a0.7,0.7,0,0,1-.12.78,0.77,0.77,0,0,1-.88-0.08A2.66,2.66,0,0,1,128.18,11.5Z" transform="translate(-115.1 0)"/><path class="cls-2" d="M145.11,14.32c0.25,0.2.41,0,.43-0.21a5.26,5.26,0,0,1,0-.89,0.67,0.67,0,0,1,.4-0.71,0.51,0.51,0,0,1,.7.19l0,0.07c0.16,0.4-.07,1.22.29,1.5a0.63,0.63,0,0,0,.75-0.06,1.69,1.69,0,0,1,1.35-.25,0.87,0.87,0,0,1,.2.83c-0.3.69-1.53,0.16-1.63,0.8a0.82,0.82,0,0,0,.51.69,1.16,1.16,0,0,1,.41.85,0.5,0.5,0,0,1-.46.54H148a1.2,1.2,0,0,1-.83-0.62c-0.21-.32-0.72-1.59-1.15-0.68-0.24.5-.25,1.82-1.13,1.67a0.75,0.75,0,0,1-.68-0.73,1.67,1.67,0,0,1,.54-1.22c0.22-.32.09-0.44-0.21-0.6l-1-.53a0.69,0.69,0,0,1-.44-0.65,0.76,0.76,0,0,1,.7-0.54A2.7,2.7,0,0,1,145.11,14.32Z" transform="translate(-115.1 0)"/><path class="cls-2" d="M136.08,20.2c0.25,0.2.41,0,.43-0.21a5.26,5.26,0,0,1,0-.89,0.66,0.66,0,0,1,.4-0.7,0.51,0.51,0,0,1,.7.19l0,0.07c0.16,0.4-.07,1.22.29,1.5a0.63,0.63,0,0,0,.75-0.06,1.69,1.69,0,0,1,1.35-.25,0.87,0.87,0,0,1,.2.83c-0.3.69-1.53,0.16-1.63,0.8a0.82,0.82,0,0,0,.51.69,1.16,1.16,0,0,1,.41.85,0.5,0.5,0,0,1-.46.54h-0.13a1.2,1.2,0,0,1-.83-0.62c-0.21-.32-0.72-1.59-1.15-0.68-0.24.5-.25,1.82-1.13,1.67a0.75,0.75,0,0,1-.68-0.73,1.67,1.67,0,0,1,.54-1.22c0.22-.32.09-0.44-0.21-0.6l-1-.53a0.69,0.69,0,0,1-.44-0.65,0.77,0.77,0,0,1,.7-0.54A2.6,2.6,0,0,1,136.08,20.2Z" transform="translate(-115.1 0)"/><path class="cls-2" d="M143.38,34.94c-0.28.15-.19,0.36,0,0.48s0.57,0.18.83,0.32a0.67,0.67,0,0,1,.48.65,0.52,0.52,0,0,1-.45.57h-0.08c-0.43,0-1.09-.56-1.48-0.34a0.64,0.64,0,0,0-.25.71,1.69,1.69,0,0,1-.32,1.34,0.88,0.88,0,0,1-.84-0.16c-0.51-.55.48-1.47-0.07-1.81a0.82,0.82,0,0,0-.84.19,1.18,1.18,0,0,1-.94,0,0.51,0.51,0,0,1-.31-0.64,0.24,0.24,0,0,1,.06-0.11,1.17,1.17,0,0,1,.9-0.51c0.38-.07,1.74,0,1.09-0.78-0.36-.42-1.56-1-1.07-1.71a0.76,0.76,0,0,1,.94-0.33,1.62,1.62,0,0,1,.9,1c0.2,0.33.37,0.26,0.64,0.06l0.89-.7a0.71,0.71,0,0,1,.79-0.16,0.76,0.76,0,0,1,.21.86A2.65,2.65,0,0,1,143.38,34.94Z" transform="translate(-115.1 0)"/><path class="cls-2" d="M123.51,8.39c-0.28.15-.19,0.36,0,0.48s0.57,0.18.83,0.32a0.67,0.67,0,0,1,.48.65,0.52,0.52,0,0,1-.45.57h-0.08c-0.43,0-1.09-.56-1.48-0.34a0.64,0.64,0,0,0-.25.71,1.67,1.67,0,0,1-.31,1.33,0.88,0.88,0,0,1-.84-0.16c-0.51-.55.48-1.47-0.07-1.81a0.82,0.82,0,0,0-.84.19,1.18,1.18,0,0,1-.94,0,0.49,0.49,0,0,1-.32-0.62,0.54,0.54,0,0,1,.07-0.13,1.17,1.17,0,0,1,.9-0.51c0.38-.07,1.74,0,1.09-0.78-0.36-.42-1.56-1-1.07-1.71a0.76,0.76,0,0,1,.94-0.33,1.62,1.62,0,0,1,.9,1c0.2,0.33.37,0.26,0.64,0.06l0.89-.7a0.71,0.71,0,0,1,.77-0.14,0.77,0.77,0,0,1,.21.86A2.66,2.66,0,0,1,123.51,8.39Z" transform="translate(-115.1 0)"/><path class="cls-2" d="M147,24.57c-0.28.15-.19,0.36,0,0.48s0.57,0.18.83,0.32a0.67,0.67,0,0,1,.48.65,0.52,0.52,0,0,1-.45.57h-0.08c-0.43,0-1.09-.56-1.48-0.34a0.64,0.64,0,0,0-.25.71,1.69,1.69,0,0,1-.32,1.34,0.88,0.88,0,0,1-.84-0.16c-0.51-.55.48-1.47-0.07-1.81a0.82,0.82,0,0,0-.84.19,1.18,1.18,0,0,1-.94,0,0.49,0.49,0,0,1-.32-0.62,0.54,0.54,0,0,1,.07-0.13,1.17,1.17,0,0,1,.9-0.51c0.38-.07,1.74,0,1.09-0.78-0.36-.42-1.56-1-1.07-1.71a0.76,0.76,0,0,1,.94-0.33,1.62,1.62,0,0,1,.9,1c0.2,0.33.37,0.26,0.64,0.06l0.89-.7a0.71,0.71,0,0,1,.77-0.14,0.77,0.77,0,0,1,.21.86A2.68,2.68,0,0,1,147,24.57Z" transform="translate(-115.1 0)"/><path class="cls-2" d="M130.25,25.61c-0.28.15-.19,0.36,0,0.48s0.57,0.18.83,0.32a0.67,0.67,0,0,1,.48.65,0.52,0.52,0,0,1-.45.57H131c-0.43,0-1.09-.56-1.48-0.34a0.64,0.64,0,0,0-.25.71,1.69,1.69,0,0,1-.32,1.34,0.88,0.88,0,0,1-.84-0.16c-0.51-.55.48-1.47-0.07-1.81a0.82,0.82,0,0,0-.84.19,1.18,1.18,0,0,1-.94,0,0.49,0.49,0,0,1-.32-0.62,0.54,0.54,0,0,1,.07-0.13,1.17,1.17,0,0,1,.9-0.51c0.38-.07,1.74,0,1.09-0.78-0.36-.42-1.57-1-1.07-1.71a0.76,0.76,0,0,1,.94-0.33,1.62,1.62,0,0,1,.9,1c0.2,0.33.37,0.26,0.64,0.06l0.89-.7a0.71,0.71,0,0,1,.77-0.14,0.77,0.77,0,0,1,.21.86A2.68,2.68,0,0,1,130.25,25.61Z" transform="translate(-115.1 0)"/><path class="cls-2" d="M129.57,33c-0.23-.23-0.4-0.08-0.45.15s0,0.6-.07.89a0.67,0.67,0,0,1-.48.65,0.51,0.51,0,0,1-.67-0.26l0-.08c-0.11-.42.22-1.21-0.1-1.52a0.62,0.62,0,0,0-.75,0,1.68,1.68,0,0,1-1.37.08,0.89,0.89,0,0,1-.09-0.85c0.38-.65,1.54,0,1.71-0.59a0.82,0.82,0,0,0-.42-0.75,1.2,1.2,0,0,1-.31-0.89,0.5,0.5,0,0,1,.52-0.48l0.13,0a1.17,1.17,0,0,1,.75.72c0.17,0.34.52,1.66,1.06,0.81,0.3-.47.47-1.78,1.33-1.52a0.75,0.75,0,0,1,.59.81,1.68,1.68,0,0,1-.69,1.15c-0.26.29-.15,0.43,0.13,0.63l0.89,0.58a0.71,0.71,0,0,1,.36.7,0.75,0.75,0,0,1-.76.45A2.65,2.65,0,0,1,129.57,33Z" transform="translate(-115.1 0)"/><path class="cls-2" d="M137.05,6.88c0.09,0.31.32,0.26,0.47,0.08s0.29-.52.48-0.75a0.68,0.68,0,0,1,.73-0.34,0.51,0.51,0,0,1,.47.55,0.29,0.29,0,0,1,0,.09c-0.1.42-.77,1-0.64,1.38a0.63,0.63,0,0,0,.65.39,1.68,1.68,0,0,1,1.24.58,0.86,0.86,0,0,1-.32.79c-0.64.39-1.34-.76-1.79-0.3a0.83,0.83,0,0,0,0,.86,1.17,1.17,0,0,1-.16.93,0.5,0.5,0,0,1-.69.17,0.39,0.39,0,0,1-.1-0.08,1.16,1.16,0,0,1-.31-1c0-.38.34-1.71-0.54-1.22-0.49.27-1.26,1.34-1.89,0.7a0.76,0.76,0,0,1-.13-1A1.63,1.63,0,0,1,135.65,8c0.36-.13.33-0.31,0.18-0.61l-0.51-1a0.69,0.69,0,0,1,0-.78,0.75,0.75,0,0,1,.88,0A2.62,2.62,0,0,1,137.05,6.88Z" transform="translate(-115.1 0)"/><path class="cls-2" d="M118.67,12.77c0.09,0.31.32,0.26,0.47,0.08s0.29-.52.48-0.75a0.68,0.68,0,0,1,.73-0.34,0.51,0.51,0,0,1,.47.55,0.29,0.29,0,0,1,0,.09c-0.1.42-.77,1-0.64,1.38a0.63,0.63,0,0,0,.65.39,1.68,1.68,0,0,1,1.24.58,0.86,0.86,0,0,1-.32.79c-0.64.39-1.34-.76-1.79-0.3a0.83,0.83,0,0,0,0,.86,1.17,1.17,0,0,1-.16.93,0.5,0.5,0,0,1-.69.17,0.39,0.39,0,0,1-.1-0.08,1.16,1.16,0,0,1-.31-1c0-.38.34-1.71-0.54-1.22-0.49.27-1.26,1.34-1.89,0.7a0.75,0.75,0,0,1-.13-1,1.63,1.63,0,0,1,1.15-.68c0.36-.13.33-0.31,0.18-0.61l-0.51-1a0.69,0.69,0,0,1,0-.78,0.78,0.78,0,0,1,.88,0A2.62,2.62,0,0,1,118.67,12.77Z" transform="translate(-115.1 0)"/><path class="cls-2" d="M136.67,1.63c-0.17.24-.34,0.11-0.4-0.12s-0.05-.59-0.13-0.88A0.65,0.65,0,0,0,135.68,0a0.43,0.43,0,0,0-.55.27,0.59,0.59,0,0,0,0,.13c-0.06.43,0.29,1.19,0,1.52a0.48,0.48,0,0,1-.64.09,1.24,1.24,0,0,0-1.18,0,1,1,0,0,0,0,.85c0.38,0.62,1.32-.15,1.51.46a0.86,0.86,0,0,1-.3.78,1.32,1.32,0,0,0-.19.91,0.43,0.43,0,0,0,.43.43,0.41,0.41,0,0,0,.16,0,1.09,1.09,0,0,0,.58-0.77c0.12-.35.31-1.7,0.84-0.89,0.3,0.44.55,1.74,1.26,1.41A0.75,0.75,0,0,0,138,4.33a1.68,1.68,0,0,0-.68-1.09c-0.25-.27-0.16-0.41.06-0.63l0.74-.72a0.76,0.76,0,0,0,.25-0.72A0.65,0.65,0,0,0,137.7.78,2.25,2.25,0,0,0,136.67,1.63Z" transform="translate(-115.1 0)"/><path class="cls-2" d="M134.71,30.36c0,0.3-.24.26-0.41,0.09S134,30,133.76,29.74a0.65,0.65,0,0,0-.7-0.31,0.43,0.43,0,0,0-.34.5,0.56,0.56,0,0,0,0,.12c0.15,0.4.82,0.9,0.77,1.31a0.47,0.47,0,0,1-.52.39,1.25,1.25,0,0,0-1,.59,1,1,0,0,0,.4.75c0.63,0.36,1.08-.77,1.55-0.33a0.85,0.85,0,0,1,.11.83,1.3,1.3,0,0,0,.28.89,0.42,0.42,0,0,0,.58.17l0.13-.1a1.11,1.11,0,0,0,.13-1c-0.07-.37-0.55-1.63.3-1.19,0.47,0.24,1.32,1.25,1.79.62a0.76,0.76,0,0,0,0-1,1.67,1.67,0,0,0-1.12-.62c-0.34-.11-0.34-0.28-0.25-0.58l0.3-1a0.73,0.73,0,0,0-.13-0.75,0.65,0.65,0,0,0-.79,0A2.21,2.21,0,0,0,134.71,30.36Z" transform="translate(-115.1 0)"/><path class="cls-2" d="M153.18,19.3c-0.27-.13-0.35.06-0.3,0.29s0.23,0.55.3,0.84a0.65,0.65,0,0,1-.12.76,0.43,0.43,0,0,1-.61,0l-0.08-.1c-0.25-.35-0.31-1.18-0.68-1.36a0.48,0.48,0,0,0-.61.22,1.25,1.25,0,0,1-1.05.53,1,1,0,0,1-.41-0.75c0-.73,1.23-0.49,1.12-1.11a0.86,0.86,0,0,0-.63-0.55,1.33,1.33,0,0,1-.6-0.72,0.44,0.44,0,0,1,.16-0.59,0.34,0.34,0,0,1,.17,0,1.08,1.08,0,0,1,.88.41c0.27,0.25,1.07,1.35,1.16.39,0.05-.53-0.34-1.79.45-1.84a0.75,0.75,0,0,1,.78.54,1.68,1.68,0,0,1-.09,1.28c-0.09.35,0.05,0.44,0.35,0.53l1,0.28a0.76,0.76,0,0,1,.56.52,0.64,0.64,0,0,1-.42.67A2.19,2.19,0,0,1,153.18,19.3Z" transform="translate(-115.1 0)"/><path class="cls-2" d="M134.25,27.44c0-.3-0.23-0.27-0.4-0.1s-0.35.48-.56,0.69a0.65,0.65,0,0,1-.71.29,0.42,0.42,0,0,1-.32-0.51,0.56,0.56,0,0,1,0-.12c0.17-.4.86-0.87,0.82-1.29a0.48,0.48,0,0,0-.5-0.41,1.26,1.26,0,0,1-1-.63,1,1,0,0,1,.43-0.73c0.64-.34,1.05.81,1.53,0.39a0.86,0.86,0,0,0,.14-0.82,1.3,1.3,0,0,1,.31-0.88,0.43,0.43,0,0,1,.6-0.12,0.46,0.46,0,0,1,.12.12,1.11,1.11,0,0,1,.1,1c-0.08.37-.61,1.61,0.26,1.2,0.48-.23,1.36-1.21,1.81-0.56a0.75,0.75,0,0,1-.06,1,1.67,1.67,0,0,1-1.15.58c-0.35.1-.35,0.27-0.27,0.57l0.27,1a0.74,0.74,0,0,1-.16.75,0.65,0.65,0,0,1-.79,0A2.23,2.23,0,0,1,134.25,27.44Z" transform="translate(-115.1 0)"/><path class="cls-2" d="M134.31,13.33c-0.27-.13-0.35.06-0.29,0.29s0.23,0.55.3,0.84a0.65,0.65,0,0,1-.12.76,0.43,0.43,0,0,1-.61,0l-0.08-.1c-0.25-.35-0.31-1.18-0.68-1.36a0.48,0.48,0,0,0-.58.23,1.25,1.25,0,0,1-1.05.53,1,1,0,0,1-.41-0.75c0-.73,1.23-0.49,1.12-1.12a0.84,0.84,0,0,0-.63-0.54,1.37,1.37,0,0,1-.6-0.72,0.43,0.43,0,0,1,.18-0.58,0.44,0.44,0,0,1,.15-0.05,1.08,1.08,0,0,1,.88.41c0.27,0.26,1.07,1.35,1.16.39,0.05-.53-0.34-1.79.45-1.84a0.75,0.75,0,0,1,.79.54,1.68,1.68,0,0,1-.09,1.28c-0.09.35,0.05,0.44,0.35,0.53l1,0.28a0.76,0.76,0,0,1,.56.52,0.64,0.64,0,0,1-.42.67A2.27,2.27,0,0,1,134.31,13.33Z" transform="translate(-115.1 0)"/><path class="cls-2" d="M137.25,37.82c-0.27-.13-0.35.06-0.29,0.29s0.23,0.55.3,0.84a0.65,0.65,0,0,1-.12.76,0.43,0.43,0,0,1-.61,0l-0.08-.1c-0.26-.35-0.31-1.18-0.68-1.36a0.48,0.48,0,0,0-.61.22,1.25,1.25,0,0,1-1.05.53,1,1,0,0,1-.41-0.75c0-.73,1.23-0.49,1.12-1.11a0.84,0.84,0,0,0-.63-0.54,1.37,1.37,0,0,1-.6-0.72,0.43,0.43,0,0,1,.18-0.58,0.44,0.44,0,0,1,.15,0,1.08,1.08,0,0,1,.88.41c0.27,0.26,1.07,1.35,1.16.39,0.05-.53-0.34-1.79.45-1.84a0.75,0.75,0,0,1,.79.54,1.68,1.68,0,0,1-.09,1.28c-0.09.35,0.05,0.44,0.35,0.53l1,0.28a0.76,0.76,0,0,1,.56.52,0.64,0.64,0,0,1-.42.67A2.18,2.18,0,0,1,137.25,37.82Z" transform="translate(-115.1 0)"/><path class="cls-2" d="M129.05,2.92c0.28,0.11.35-.09,0.27-0.31S129.05,2.08,129,1.8A0.66,0.66,0,0,1,129,1a0.43,0.43,0,0,1,.6-0.09,0.38,0.38,0,0,1,.09.09c0.28,0.33.4,1.15,0.79,1.3a0.48,0.48,0,0,0,.59-0.27,1.26,1.26,0,0,1,1-.61,1,1,0,0,1,.47.71c0,0.73-1.19.58-1,1.2a0.86,0.86,0,0,0,.67.49,1.37,1.37,0,0,1,.65.67,0.44,0.44,0,0,1-.12.6,0.44,0.44,0,0,1-.16.06,1.08,1.08,0,0,1-.9-0.34c-0.29-.23-1.17-1.27-1.19-0.3,0,0.53.47,1.76-.3,1.87a0.74,0.74,0,0,1-.83-0.48,1.67,1.67,0,0,1,0-1.28c0.06-.35-0.09-0.43-0.39-0.5l-1-.21a0.76,0.76,0,0,1-.6-0.48,0.64,0.64,0,0,1,.37-0.7A2.19,2.19,0,0,1,129.05,2.92Z" transform="translate(-115.1 0)"/><path class="cls-2" d="M121.61,17.67c0.28,0.11.34-.09,0.27-0.31s-0.27-.53-0.36-0.81a0.66,0.66,0,0,1,.06-0.77,0.43,0.43,0,0,1,.6-0.09l0.09,0.09c0.28,0.33.4,1.15,0.79,1.3a0.48,0.48,0,0,0,.59-0.27,1.26,1.26,0,0,1,1-.61,1,1,0,0,1,.47.71c0,0.73-1.19.58-1,1.2a0.86,0.86,0,0,0,.67.49,1.37,1.37,0,0,1,.65.67,0.44,0.44,0,0,1-.12.6,0.44,0.44,0,0,1-.16.06,1.08,1.08,0,0,1-.9-0.34c-0.29-.23-1.17-1.27-1.19-0.3,0,0.53.47,1.76-.3,1.87a0.74,0.74,0,0,1-.83-0.48,1.67,1.67,0,0,1,0-1.28c0.06-.36-0.09-0.44-0.39-0.5l-1-.21a0.75,0.75,0,0,1-.6-0.48,0.64,0.64,0,0,1,.37-0.7A2.19,2.19,0,0,1,121.61,17.67Z" transform="translate(-115.1 0)"/><path class="cls-2" d="M129.71,35.91c0.28,0.11.35-.09,0.27-0.31s-0.27-.53-0.36-0.81a0.66,0.66,0,0,1,.06-0.77,0.43,0.43,0,0,1,.6-0.09,0.38,0.38,0,0,1,.09.09c0.28,0.33.4,1.15,0.79,1.3a0.48,0.48,0,0,0,.59-0.27,1.26,1.26,0,0,1,1-.61,1,1,0,0,1,.47.71c0,0.73-1.19.58-1,1.2a0.86,0.86,0,0,0,.67.49,1.33,1.33,0,0,1,.65.67,0.44,0.44,0,0,1-.12.6,0.44,0.44,0,0,1-.16.06,1.08,1.08,0,0,1-.9-0.34c-0.29-.23-1.17-1.27-1.19-0.3,0,0.53.47,1.76-.3,1.87a0.74,0.74,0,0,1-.83-0.48,1.67,1.67,0,0,1,0-1.28c0.06-.36-0.09-0.44-0.39-0.5l-1-.21a0.76,0.76,0,0,1-.6-0.48,0.64,0.64,0,0,1,.37-0.7A2.19,2.19,0,0,1,129.71,35.91Z" transform="translate(-115.1 0)"/><path class="cls-2" d="M150.05,30.51c-0.18-.2-0.34-0.08-0.38.12a5.2,5.2,0,0,1-.08.74,0.57,0.57,0,0,1-.42.53,0.43,0.43,0,0,1-.55-0.25s0,0,0-.06a4.22,4.22,0,0,0,0-1.28,0.53,0.53,0,0,0-.63,0,1.44,1.44,0,0,1-1.15,0,0.75,0.75,0,0,1-.06-0.71c0.33-.54,1.29.06,1.45-0.45a0.67,0.67,0,0,0-.34-0.64,1,1,0,0,1-.24-0.76,0.42,0.42,0,0,1,.45-0.39l0.1,0a1,1,0,0,1,.61.62c0.14,0.29.39,1.41,0.87,0.71,0.26-.38.44-1.48,1.15-1.24a0.63,0.63,0,0,1,.47.69,1.39,1.39,0,0,1-.6.94c-0.22.23-.13,0.35,0.09,0.53l0.76,0.57a0.6,0.6,0,0,1,.28.59,0.64,0.64,0,0,1-.65.36A2.23,2.23,0,0,1,150.05,30.51Z" transform="translate(-115.1 0)"/><path class="cls-2" d="M122.69,32.86c-0.18-.2-0.34-0.08-0.38.12a5.2,5.2,0,0,1-.08.74,0.57,0.57,0,0,1-.42.53,0.43,0.43,0,0,1-.56-0.24,0.19,0.19,0,0,1,0-.07,4.22,4.22,0,0,0,0-1.28,0.52,0.52,0,0,0-.63,0,1.44,1.44,0,0,1-1.15,0,0.75,0.75,0,0,1-.06-0.71c0.33-.54,1.29.06,1.45-0.45a0.67,0.67,0,0,0-.34-0.64,1,1,0,0,1-.23-0.75,0.4,0.4,0,0,1,.42-0.39l0.12,0a1,1,0,0,1,.61.62c0.14,0.29.39,1.41,0.87,0.71,0.26-.38.44-1.48,1.15-1.24a0.63,0.63,0,0,1,.47.69,1.39,1.39,0,0,1-.6.94c-0.23.23-.13,0.35,0.09,0.53l0.76,0.57a0.6,0.6,0,0,1,.28.59,0.64,0.64,0,0,1-.65.36A2.22,2.22,0,0,1,122.69,32.86Z" transform="translate(-115.1 0)"/><path class="cls-1" d="M155.41,45.59c-2.57.38-3.51-1.86-5.72-2.81-5.4-2.25-8,3.31-12.7,4.19,3.2,2.47,7.62,5.93,11.67,3.55A18.35,18.35,0,0,0,152,47.37c1.34-1.19,2-1.24,3.73-1.58" transform="translate(-115.1 0)"/><path class="cls-1" d="M153.25,44.5c-1.48-2.13.11-4,0-6.38-0.38-5.83-6.52-5.72-9.38-9.53-0.8,4-1.94,9.45,2,12a18.64,18.64,0,0,0,4.32,1.63c1.66,0.68,2,1.23,3.07,2.64" transform="translate(-115.1 0)"/><path class="cls-1" d="M175.62,64.31c10.11,1.24,18.57,13.84,20.56,22.66a55.07,55.07,0,0,1,.18,21.1c-0.69,2.72-.5,1.52-2,3.54-1,1.14-1.83,1.71-2.33,3.23-1.06,3.23,1.16,6.69,1.8,9.85,1.58-1.58,4.67-4.23,5.42-6.5,1.07-3.23-1.16-8.12-1.16-8.29a131.91,131.91,0,0,0-.1-14.34c-0.43,5.12,8.07,4.57,10.85,8.53-0.65-9.93-5.56-11.83-10.74-11.43a19.9,19.9,0,0,0-2.56-11.37c0.45,3.09,4.44,5,7.22,5.54,2.34,0.56,7-1.47,8.34.23-2.79-2.39-3.74-5.86-7.6-7.56-2.78-1.13-6.07-2-8.53-.29-1.84-2.71-2.8-6.18-5.84-8.45,5.57,2.89,9-1.67,14.78-1.43-5.72-5.49-12.85-8.87-15.35,0-2.91-2.65-6.52-3.84-10.31-5.09,5.5-.08,5.28-10.25,9.26-10.2-4.49-.43-15.72,4.28-10.27,10.07a5.85,5.85,0,0,0-1.92-.49Z" transform="translate(-115.1 0)"/><path class="cls-1" d="M195.83,83.23c-9.54-1.59-9.45,8.31-9,14.41,4.83-3.3,8.74-8.21,8.19-14.46" transform="translate(-115.1 0)"/><path class="cls-1" d="M188,70.41c-5.86,1.27-3.38,8.46-2,12.35,5.42-3.84,1.82-8.4.88-12.4" transform="translate(-115.1 0)"/><path class="cls-1" d="M197.56,100c-4.28-5-10.08,3.76-11.37,7.09,5.93,0.29,8.93-3.25,11.28-8.08" transform="translate(-115.1 0)"/><path class="cls-3" d="M179.39,27.31l-0.83.22a5.25,5.25,0,0,1-.67.22c-0.42.08-.85,0.12-1.27,0.19a5.63,5.63,0,0,0-.59.14l-1.25.35c0.13,0.1.28,0.2,0.43,0.33a0.89,0.89,0,0,1,.44,1,0.37,0.37,0,0,1-.41.33h-0.05c-0.77-.07-1.54-0.16-2.32-0.25h-0.16a11.63,11.63,0,0,1,.76.94,6.72,6.72,0,0,1,.52,1,0.52,0.52,0,0,1-.18.7,0.51,0.51,0,0,1-.36.06H173c0.07,0.34.13,0.68,0.22,1s0.15,0.37.18,0.55a0.8,0.8,0,0,1,0,.53,0.85,0.85,0,0,1-.62.1c-0.49-.15-1-0.37-1.44-0.55a4.15,4.15,0,0,1-1.65-1.28c-0.85-1-1.7-2-2.53-3a8.72,8.72,0,0,1-1.28-2.26,1.76,1.76,0,0,1-.17-0.37,1.1,1.1,0,0,1,0-.57,0.68,0.68,0,0,1,.44-0.12,5.23,5.23,0,0,0,.56,0,0.62,0.62,0,0,1-.35-0.77,0.53,0.53,0,0,1,.26-0.27c0.3-.14.61-0.24,0.92-0.36v-0.2a1.23,1.23,0,0,0-.37-0.12,0.39,0.39,0,0,1-.43-0.28,0.53,0.53,0,0,1,.13-0.59l0.23-.2V23.64a1.93,1.93,0,0,1-.48,0,0.5,0.5,0,0,1-.32-0.23,0.44,0.44,0,0,1,.19-0.33c0.59-.33,1.19-0.62,1.78-0.94a1.31,1.31,0,0,0,.42-0.39c-0.67.25-1.33,0.52-2,.76a2.35,2.35,0,0,1-.74.13,1.15,1.15,0,0,1-.42-0.23,2.53,2.53,0,0,0-.18.37,0.47,0.47,0,0,1-.48.46h0a0.55,0.55,0,0,1-.4-0.68,0.23,0.23,0,0,0,0,0,2.69,2.69,0,0,0,.07-1.46c0-.51-0.13-1-0.15-1.51a4.08,4.08,0,0,0-.59-1.79,0.79,0.79,0,0,0-.31-0.17,11.69,11.69,0,0,0-.16,2.13,0.58,0.58,0,0,1-.21.44,0.4,0.4,0,0,1-.56-0.1,0.37,0.37,0,0,1-.07-0.25,5.48,5.48,0,0,0-.12-1.07,7.58,7.58,0,0,0-.71-2.42,9,9,0,0,1-.45-1,0.86,0.86,0,0,0-.74-0.43,1.39,1.39,0,0,1-.52-0.08,8,8,0,0,0-.25,1.18,6.07,6.07,0,0,0,.86,3.53,2.22,2.22,0,0,0,1,.76,4.83,4.83,0,0,1,1.53,1.42,0.41,0.41,0,0,1,.08.24,8.31,8.31,0,0,1-.15,1,0.45,0.45,0,0,1-.3.27,0.4,0.4,0,0,1-.29-0.21,1.71,1.71,0,0,0-.79-0.69,5.45,5.45,0,0,0-1-.49,2.2,2.2,0,0,0-.37-0.07l0.93,1.5a0.26,0.26,0,0,0,.12.08,0.47,0.47,0,0,1,.23.62,0.5,0.5,0,0,1-.58.33,7.7,7.7,0,0,1-3.93-1.92,3.4,3.4,0,0,1-1.35-1.83,3.58,3.58,0,0,0-.36-0.59,4.87,4.87,0,0,1-.31-0.83,0.28,0.28,0,0,1,.35-0.37c0.38,0,.75.11,1.12,0.18s0.87,0.17,1.31.28,0.65,0.19,1,.3l0.92,0.34,0.34,0.09a3.46,3.46,0,0,0-.32-0.6,3.27,3.27,0,0,1-.59-1.5,5.83,5.83,0,0,1,.13-3.18,1.33,1.33,0,0,1,.17-0.44,0.51,0.51,0,0,1,.66-0.31h0a0.3,0.3,0,0,0,.26,0,1.19,1.19,0,0,1,1.55-.08,6,6,0,0,1,1.51,1.38,11.44,11.44,0,0,1,2.22,4.63,5.11,5.11,0,0,1,.15,1.1,10.73,10.73,0,0,1-.08,1.13,9.71,9.71,0,0,0,3.84-4.86l-0.4.15-0.88.41a0.53,0.53,0,0,1-.73-0.15l-0.05-.09a0.43,0.43,0,0,0-.18-0.22,0.88,0.88,0,0,0-.52.13,1.3,1.3,0,0,0-.45.79,0.35,0.35,0,0,1-.47.41,0.49,0.49,0,0,1-.38-0.55,4.56,4.56,0,0,1,.7-2.08,8.85,8.85,0,0,1,2-1.91,4.33,4.33,0,0,1,1.69-.73l1.14-.24a0.31,0.31,0,0,0,.09-0.07h1.3a0.75,0.75,0,0,1,0,.79c-0.32.67-.58,1.37-0.87,2.05a0.67,0.67,0,0,0,0,.2,4.44,4.44,0,0,1,1.83-.63l1.4-.14a0.33,0.33,0,0,1,.39.26,0.29,0.29,0,0,1,0,.13,1.41,1.41,0,0,1,0,.41,12.08,12.08,0,0,1-.45,1.13,10.1,10.1,0,0,1-1.64,2.63,10.89,10.89,0,0,1-2.63,2l-1.22.7a0.74,0.74,0,0,0,.21,0,11.59,11.59,0,0,1,4.82-.55,10.23,10.23,0,0,1,1.9.42c0.71,0.22,1.4.53,2.09,0.81a0.33,0.33,0,0,1,.18.23,0.63,0.63,0,0,1-.19.31,1.19,1.19,0,0,1-.26.11L175.89,25c-0.27.14-.56,0.25-0.79,0.35,0.51,0,1,.07,1.56.17a6.77,6.77,0,0,1,1.07.37,2.91,2.91,0,0,1,.51.22c0.39,0.25.77,0.53,1.15,0.8v0.39h0ZM174,16.44a4.73,4.73,0,0,0-2.61,1.17,1.3,1.3,0,0,0-.45.84,1.68,1.68,0,0,1-.39,1.09,8.23,8.23,0,0,1-.58.7c0.95-.33,2-0.35,2.63-1.21a5.19,5.19,0,0,0,1.4-2.59h0Zm1.21,6.68c-1.14-.67-5.68-0.11-6.39.76C171,24.36,173.07,23.49,175.25,23.12Zm-15.4-.26,0.08-.09a9.68,9.68,0,0,0-1.7-2.07,2,2,0,0,0-1.12-.52,0.43,0.43,0,0,0-.29.08,0.3,0.3,0,0,0,0,.26,2.36,2.36,0,0,0,.47.62c0.81,0.59,1.67,1.15,2.52,1.72h0Z" transform="translate(-115.1 0)"/><path class="cls-3" d="M149.43,24.84l1.67-1a4.75,4.75,0,0,1,3.38-.54,8.68,8.68,0,0,1,1,.1c0.8,0.19,1.61.39,2.38,0.65a9.68,9.68,0,0,0,2.42.62,0.33,0.33,0,0,0,.14,0,0.34,0.34,0,0,1,.42.21,0.28,0.28,0,0,1,0,.13,3.54,3.54,0,0,1-.07.73,0.18,0.18,0,0,0,.07.25,0.15,0.15,0,0,0,.09,0,0.52,0.52,0,0,1,.38.63,0.53,0.53,0,0,1-.18.28,0.89,0.89,0,0,0-.14.82l0.75-.52A2.5,2.5,0,0,0,162,27a0.5,0.5,0,0,1,.69-0.16h0a1.06,1.06,0,0,1,.5,0,1.28,1.28,0,0,1,.32.45,0.44,0.44,0,0,0,.08-0.11c0.12-.42.46-0.51,0.77-0.08,0.69,0.92,1.39,1.83,2.06,2.77a7.34,7.34,0,0,1,.53,1c0.26,0.54.53,1.08,0.76,1.62s0.44,1.1.65,1.66,0.4,1,.55,1.53a6,6,0,0,1,.21,1.18c0.06,0.59.11,1.19,0.12,1.78,0,0.88-.29,1-1.19.8a2.47,2.47,0,0,1-.54-0.13,2.85,2.85,0,0,1-.09.44c-0.09.7-.17,1.41-0.26,2.11a0.85,0.85,0,0,1-.13.25h-0.53a4.83,4.83,0,0,1-.63-0.35c-0.23-.17-0.42-0.39-0.64-0.58a11.87,11.87,0,0,1-1-.88,11,11,0,0,1-2-3,12.37,12.37,0,0,1-.94-2.57,11.72,11.72,0,0,1-.13-1.56v-1l-0.08.06L161,32.4a6.36,6.36,0,0,1-1.87,2.67,8.59,8.59,0,0,1-4.05,1.85,0.48,0.48,0,0,1-.64-0.56c0-.59.09-1.18,0.13-1.78h-0.18c-0.45.07-.53,0-0.55-0.47a5.16,5.16,0,0,1,.39-1.9,9.63,9.63,0,0,1,1-1.94,7.18,7.18,0,0,1,1.66-1.86,9.49,9.49,0,0,0,.77-0.71h-0.23c-1,.32-2,0.67-3,0.94a4.4,4.4,0,0,1-2.16.21c-0.28-.06-0.57-0.14-0.85-0.18a2.42,2.42,0,0,1-1.29-.5,0.52,0.52,0,0,1-.14-0.72,0.62,0.62,0,0,1,.14-0.14c0.34-.29.66-0.6,1-0.91l-0.08-.08a2.75,2.75,0,0,1-1.24-1,0.75,0.75,0,0,0-.2-0.15V24.84h-0.18ZM161,29.68a0.3,0.3,0,0,0-.25-0.31h-0.09a1.29,1.29,0,0,0-.6.37c-0.32.46-.57,1-0.84,1.47-0.11.19-.2,0.38-0.32,0.56-0.28.4-.54,0.81-0.86,1.19s-0.86.92-1.28,1.39a11.94,11.94,0,0,0-.78,1,0.82,0.82,0,0,0-.06.38,1.15,1.15,0,0,0,.37,0,6.86,6.86,0,0,0,2.62-2,9.34,9.34,0,0,0,1.53-2.53c0.21-.54.37-1,0.56-1.49h0Zm2.7-.22a2.17,2.17,0,0,0,.07.24c0.29,0.57.61,1.14,0.88,1.72s0.65,1.48,1,2.23a6.63,6.63,0,0,1,.64,2.59,2.21,2.21,0,0,0,.25.91,0.22,0.22,0,0,0,.26.14,0.23,0.23,0,0,0,.15-0.2,3.71,3.71,0,0,0,.09-1.15,9.17,9.17,0,0,0-.93-2.48c-0.35-.84-0.74-1.66-1.09-2.49a3.53,3.53,0,0,0-1.32-1.52h0Z" transform="translate(-115.1 0)"/><path class="cls-4" d="M175.48,25.14a9.65,9.65,0,0,0-1.42-.07,24,24,0,0,0,3.2-1.28,0.73,0.73,0,0,0,.24-0.38,0.33,0.33,0,0,0,0-.14,0.49,0.49,0,0,0-.29-0.36l-0.43-.19c-0.52-.23-1.06-0.48-1.61-0.67a10.12,10.12,0,0,0-1.88-.46,8.44,8.44,0,0,0-1-.09,11.72,11.72,0,0,0-2.95.28l0.23-.12a8.58,8.58,0,0,0,5-6,0.51,0.51,0,0,0-.19-0.51,0.46,0.46,0,0,0-.29-0.13,7.28,7.28,0,0,0-3.12.61l0.26-.59c0.22-.5.41-0.77,0.65-1.26s0.18-1-.14-1.05a6.87,6.87,0,0,0-2.63.18,7.39,7.39,0,0,0-3.79,2.63,13.11,13.11,0,0,0-1,1.89,9.64,9.64,0,0,0-1.55-2.74V14.63a6.09,6.09,0,0,0-1.47-1.44,1.3,1.3,0,0,0-1.78,0h0a0.84,0.84,0,0,0-1,.38c-0.07.14-.13,0.29-0.19,0.43a5.87,5.87,0,0,0-.22,3.19v0.06a3.28,3.28,0,0,0,.57,1.33,3.45,3.45,0,0,0,.27.49l-0.45-.22c-0.18-.08-0.35-0.18-0.53-0.25s-0.62-.23-1-0.33-0.72-.13-1.28-0.26c-0.34-.08-0.91-0.27-1.32-0.34a0.5,0.5,0,0,0-.46.07,0.45,0.45,0,0,0-.14.53,4,4,0,0,0,.3.81,8.42,8.42,0,0,0,1.87,2.63,7.5,7.5,0,0,0,3.27,2h0a7.93,7.93,0,0,1-2.15-.51H157c-0.74-.28-1.51-0.5-2.26-0.71H154.6a6.5,6.5,0,0,0-4.43.28,8.56,8.56,0,0,0-1.15.63,2.56,2.56,0,0,0-.71.68,0.63,0.63,0,0,0,.1.4,2.94,2.94,0,0,0,1.53,1.13,2.61,2.61,0,0,0-1.06.66,0.88,0.88,0,0,0-.28.64,0.81,0.81,0,0,0,.27.54,3,3,0,0,0,1.38.56,8.74,8.74,0,0,0,3.06-.06,20.66,20.66,0,0,0,2.16-.66l0.78-.22c-0.07.06-.7,0.47-0.77,0.52a6.32,6.32,0,0,0-1.65,1.69,9.24,9.24,0,0,0-1.06,1.89,6,6,0,0,0-.45,1.66,1.06,1.06,0,0,0,.09.78,0.48,0.48,0,0,0,.5.16l0.3-.09a5.19,5.19,0,0,0-.35,1.51,1.16,1.16,0,0,0,.19.7,0.84,0.84,0,0,0,.82.17,7.65,7.65,0,0,0,4.06-1.77,10,10,0,0,0,1.82-2.56,13.48,13.48,0,0,0,.06,2.2,11.7,11.7,0,0,0,.66,2.47v0.1a10.85,10.85,0,0,0,1.91,3c0.2,0.23,1.5,1.39,1.64,1.5a3.12,3.12,0,0,0,.43.27,1.47,1.47,0,0,0,.85.14h0.14a0.47,0.47,0,0,0,.29-0.35c0.06-.43.13-0.86,0.2-1.3a2.52,2.52,0,0,1,.09-0.82c0-.07,0-0.23.29-0.09a1.87,1.87,0,0,0,.62.1,1.28,1.28,0,0,0,.71-0.21,1,1,0,0,0,.23-0.8,13.51,13.51,0,0,0-.07-1.76,5.91,5.91,0,0,0-.18-1.18c-0.11-.41-0.25-0.81-0.39-1.2L167,33.19c-0.16-.45-0.34-0.92-0.52-1.37s-0.41-1.08-.59-1.57c0,0-.33-0.94-0.41-1.3l0.09,0.12,0.19,0.25c0.7,0.93,1.37,1.83,2.09,2.72l0.24,0.3a4.38,4.38,0,0,0,1.64,1.35l0.5,0.19c0.32,0.14.65,0.29,1,.41A1,1,0,0,0,172,34.2H172l0.06,0a0.5,0.5,0,0,0,.19-0.55,5.42,5.42,0,0,0-.62-1.59l0.49,0.16a0.53,0.53,0,0,0,.57,0,0.72,0.72,0,0,0,.17-0.22,0.83,0.83,0,0,0-.07-0.72,7.13,7.13,0,0,0-.49-1,3.32,3.32,0,0,0-.69-0.71l1,0.23c0.56,0.08.64,0.11,1.2,0.18a0.71,0.71,0,0,0,.73-0.27,0.51,0.51,0,0,0,.1-0.21c0.17-.57-0.82-1.19-0.86-1.22,0.29-.07.59-0.13,0.88-0.18l0.72-.11c0.17,0,2.69-.51,2.83-0.58C179,27,177.48,25.5,175.48,25.14ZM165.36,29a13.24,13.24,0,0,0,.84,3c0.17,0.45.33,0.92,0.49,1.37l0.21,0.61c0.13,0.39.2,0.66,0.3,1.06a6.83,6.83,0,0,1,.17,1.19v1.57a0.89,0.89,0,0,1-.15.61,0.55,0.55,0,0,1-.37.14,3,3,0,0,1-.6,0c-0.43-.07-0.44.26-0.44,0.26s-0.12.78-.17,1c-0.2,1-.46,1.49-1.09,1-0.12-.1-1.12-0.87-1.59-1.34a9.52,9.52,0,0,1-2.84-5.44,13.79,13.79,0,0,1-.07-2.13,0.6,0.6,0,0,0-.07-0.47c-0.21-.11-0.4.22-0.45,0.31A6.76,6.76,0,0,1,157.61,34a8.89,8.89,0,0,1-4,1.65,0.41,0.41,0,0,1-.28-0.43,6.71,6.71,0,0,1,.28-1.66c0.11-.37-0.19-0.24-0.25-0.24l-0.35,0c-0.13,0-.11-0.12-0.11-0.24a5,5,0,0,1,.43-1.81,9.45,9.45,0,0,1,1-1.85,6.84,6.84,0,0,1,1.59-1.8,6.58,6.58,0,0,0,.57-0.48,1.12,1.12,0,0,0,.2-0.18c0.1-.12.18-0.36-0.19-0.28s-0.85.24-1.16,0.33a17.33,17.33,0,0,1-2.13.5,6.19,6.19,0,0,1-3.61-.33l-0.13-.1a0.45,0.45,0,0,1-.17-0.34,0.4,0.4,0,0,1,.17-0.3c0.24-.19.54-0.4,0.77-0.61s0.72-.62-0.07-0.73a1.5,1.5,0,0,1-.54-0.22,1.67,1.67,0,0,1-.55-0.6,0.68,0.68,0,0,1,.37-0.75l1.06-.58a4.23,4.23,0,0,1,2.2-.54,7.88,7.88,0,0,1,1.81.24h0.09c0.74,0.2,2.22.67,2.22,0.67,0.71,0.18,1.24.3,1.65,0.36a5.57,5.57,0,0,0,1,0s0.29,0,.09-0.21l-0.21-.1s-0.88-.39-1.14-0.52a6.44,6.44,0,0,1-1.65-1.08A7.74,7.74,0,0,1,155,19.75c-0.06-.14-0.47-1.14-0.52-1.37a0.23,0.23,0,0,1,0-.25,0.06,0.06,0,0,1,.06,0l1,0.19c0.52,0.11.91,0.21,1.28,0.31s0.52,0.11.82,0.22,0.4,0.11.58,0.18l0.38,0.15L159,19.3s0.27,0.16.14-.22a12.36,12.36,0,0,1-.69-2.24,4.51,4.51,0,0,1,.47-2.7c0.05-.14.11-0.28,0.17-0.41a0.37,0.37,0,0,1,.28-0.23h0.26a0.43,0.43,0,0,0,.22-0.09,1,1,0,0,1,1.38,0,6.55,6.55,0,0,1,1.42,1.36,9,9,0,0,1,1.63,2.9s0.14,0.19.25,0,0.5-1,.61-1.17a6.89,6.89,0,0,1,4.15-3.11c0.33-.09.66-0.15,1-0.21a5.56,5.56,0,0,1,1.41-.06c0.18,0.12.05,0.32,0,.51a15.21,15.21,0,0,0-.64,1.43l-0.19.63c0,0.1-.16.41,0.28,0.22a11.66,11.66,0,0,1,2.92-.54c0.33,0,.25.4,0.25,0.4a2.52,2.52,0,0,1-.13.47,9.3,9.3,0,0,1-5.33,5.48c-0.31.14-.26,0.59,0.08,0.51a13.56,13.56,0,0,1,4.44-.38c3,0.61,3.6,1.25,3.79,1.36s0.1,0.27-.11.39a30.19,30.19,0,0,1-2.93,1.23l-0.23.09s-0.33.27,0,.36c0.55,0.13,1.18.14,1.53,0.22a5.05,5.05,0,0,1,2.46,1.21L178,26.83s0.12,0.14,0,.19-0.45.1-.64,0.15l-0.43.09-0.6.14-2,.45a4.85,4.85,0,0,0-.63.16c-0.38.12-.15,0.35-0.15,0.35l0.28,0.23a0.8,0.8,0,0,1,.39.71h0a0.23,0.23,0,0,1-.21.21h-0.07l-1.66-.2-0.59-.08h-0.22s-0.22,0-.14.19a1.52,1.52,0,0,0,.24.41,7.36,7.36,0,0,1,.47.63,6.76,6.76,0,0,1,.47.93,0.47,0.47,0,0,1,0,.33,0.34,0.34,0,0,1-.23.13h-0.59s-0.22-.07-0.19.21a1.82,1.82,0,0,0,.05.33,2.94,2.94,0,0,0,.16.65,1.78,1.78,0,0,0,.09.32,1.31,1.31,0,0,1,0,.28,0.32,0.32,0,0,1-.3.34h0a8.49,8.49,0,0,1-1-.36,5.4,5.4,0,0,1-1.21-.8,44.77,44.77,0,0,1-3.54-4,0.36,0.36,0,0,0-.32-0.14A0.74,0.74,0,0,0,165.36,29Z" transform="translate(-115.1 0)"/><path class="cls-4" d="M165.14,24.17h0a0.42,0.42,0,0,0-.5.06,0.32,0.32,0,0,0-.08.39,0.25,0.25,0,0,0,.35.1h0c0.09,0,0-.16,0-0.17a0.11,0.11,0,0,1,.08,0,0.37,0.37,0,0,1,.2.15,0.66,0.66,0,0,1,.06.44,1,1,0,0,1-.59.61,1.48,1.48,0,0,1-1.31-.14,1.23,1.23,0,0,1-.46-1.39,0.44,0.44,0,0,1,.08-0.11,0.51,0.51,0,0,1,.3-0.17,0.24,0.24,0,0,1,.12,0c0.05,0-.1.16,0,0.24a0.36,0.36,0,0,0,.51,0s0,0,0,0a0.45,0.45,0,0,0,0-.56,0.61,0.61,0,0,0-.68-0.19h0a1.05,1.05,0,0,0-.46.35h0a1.21,1.21,0,0,0-.15,1.39,1.81,1.81,0,0,0,.67.73,1.53,1.53,0,0,0,.95.27,1.62,1.62,0,0,0,1-.3,1,1,0,0,0,.15-1.41A1.09,1.09,0,0,0,165.14,24.17Z" transform="translate(-115.1 0)"/><path class="cls-5" d="M167.7,62.77c-2.08,1.06-5.26,1-7.58,1.38-2.59.46-5.14,1.72-7.8,1.72-2.19,0-2.84-.76-3.38-2.92a17.68,17.68,0,0,1,.09-9.81c0.76-2,2.51-1.43,4.46-1.11,3.25,0.55,6.48,1.11,9.68,1.93a47.78,47.78,0,0,1,4.68,1.31c1.92,0.71,1.82,1,1.59,3a18.52,18.52,0,0,0-.23,2.23Z" transform="translate(-115.1 0)"/><path class="cls-5" d="M170.73,56.58c-2.61-.91-5.37-2.83-7.69-4.33-2.73-1.76-5.49-3.32-8.08-5.28-3.95-3-1-6.22,2.14-8.62,1.44-1.11,4.63-3.89,6.65-3.44a4.64,4.64,0,0,1,2.08,1.89,61.82,61.82,0,0,1,3.54,5.25,121.77,121.77,0,0,1,6.1,12Z" transform="translate(-115.1 0)"/><path class="cls-5" d="M174.08,53.32c-1.5-3.44-1.92-7.43-3.06-11-0.84-2.64-1.34-5.42-1.91-8.11-0.45-2.13.27-2,2.24-2.43,2.22-.51,5.41-1.2,7.6-0.07,1.4,0.73,1.18,2.67,1.39,4.12a36.42,36.42,0,0,1,0,9.33c-0.29,2.59-.72,5.21-0.9,7.77Z" transform="translate(-115.1 0)"/><path class="cls-5" d="M186.94,40.33c0.32-.51,1.3-2.58,1.91-2.79s2.33,1.08,3,1.45c2,1.07,9,4.42,8.09,7.2a11.26,11.26,0,0,1-3.59,4.28,63.91,63.91,0,0,1-5.68,4.28,4.41,4.41,0,0,1-2.76,1c-2.88-.28-7.41-1-6.26-4.66A49.11,49.11,0,0,1,186.94,40.33Z" transform="translate(-115.1 0)"/><path class="cls-4" d="M152.78,63.71a8.92,8.92,0,0,1-1.16-.07c-2.43-.29-3-1.38-3.26-3.56a17.64,17.64,0,0,1,1.29-9.91,2.24,2.24,0,0,1,2.09-1.38,7.73,7.73,0,0,1,2.17.47l0.64,0.2c3.21,1,6.34,1.89,9.4,3.08l0.81,0.31,0.55,0.21-0.65-.45-0.84-.6-2.41-1.63c-1.84-1.22-3.74-2.49-5.52-3.92a4.26,4.26,0,0,1-1.9-3.39c0.06-2.28,2.5-4.31,4.33-5.63l0.53-.39c1.49-1.11,4-3,5.85-3a2.57,2.57,0,0,1,.62.08A4.37,4.37,0,0,1,167.37,36l0.13,0.19a62.12,62.12,0,0,1,3.39,5.39c0.87,1.53,1.71,3.2,2.41,4.69-0.29-1.48-.59-3-1-4.45a63.46,63.46,0,0,1-1.37-6.55c-0.09-.55-0.19-1.1-0.29-1.65a2.43,2.43,0,0,1,.13-1.87,2.46,2.46,0,0,1,1.78-.72l0.65-.12a23.11,23.11,0,0,1,4.38-.54,6.88,6.88,0,0,1,3.42.75c1.23,0.69,1.29,2.14,1.35,3.43a5.65,5.65,0,0,0,.06,1,36.53,36.53,0,0,1-.26,9.4c-0.14.94-.29,1.89-0.45,2.83-0.26,1.61-.54,3.28-0.7,4.9V53l-4.67.19,0.44,1-5.19,2.5h-0.12c-0.41-.16-0.83-0.35-1.29-0.57a5.74,5.74,0,0,1-.26,1.7V58c-0.05.22-.11,0.45-0.17,0.67a10.85,10.85,0,0,0-.32,1.48v0.09l-1.87,2.17h-0.07a11.71,11.71,0,0,1-3.86.5H159.7a27.36,27.36,0,0,0-3,.4A22.4,22.4,0,0,1,152.78,63.71Zm29.07-29c-0.05-1.18-.06-2.47-1-3a6.73,6.73,0,0,0-3.21-.71,20.11,20.11,0,0,0-4,.65l-0.66.12a2.33,2.33,0,0,0-1.39.47,2.16,2.16,0,0,0,0,1.42c0.1,0.55.2,1.1,0.29,1.65a60,60,0,0,0,1,6.4c0.42,1.48.7,3,1,4.46,0.16,0.84.39,1.82,0.57,2.65l-0.4.19a75.71,75.71,0,0,0-3.45-7c-0.87-1.51-2.08-3.51-3.41-5.36l-0.27-.41a3.62,3.62,0,0,0-1.74-1.47,4.21,4.21,0,0,0-.71-0.12c-1.68,0-3.45,1.84-4.88,2.9l-0.53.39c-2.71,2-4,3.65-4.08,5.16A3.72,3.72,0,0,0,156.64,46c1.76,1.42,3.27,2.69,5.09,3.9,0.81,0.54,1.28,1,2.09,1.5l1.41,1c1.07,0.75,1.95,1.19,3.09,1.9l-0.29.52c-1.13-.56-2.27-1-3.48-1.46L163.73,53c-3-1.18-6.15-2-9.34-2.93l-0.65-.2a4.61,4.61,0,0,0-2-.45c-0.71,0-.93.66-1.31,1.39-1.24,2.42-1.5,5.54-1,9.19,0.26,2.07.6,2.86,2.65,3.1a4.45,4.45,0,0,0,.73,0,22.32,22.32,0,0,0,3.73-.43,29.18,29.18,0,0,1,3.08-.41c0.76,0,1.6.08,2.47,0.1,0.49,0,1,.11,1.53.11a11.23,11.23,0,0,0,3.54-.63l1.65-1.92a10.4,10.4,0,0,1,.32-1.47c0.06-.22.12-0.44,0.17-0.66V57.61c0.32-1.37.38-1.67-.07-2l0.34-.49a16.55,16.55,0,0,0,2,.94L176,53.92l-0.55-1.29,5-.2c0.17-1.55.59-2.83,0.85-4.36,0.15-.94.34-2.39,0.47-3.32a28.8,28.8,0,0,0,.22-8.29" transform="translate(-115.1 0)"/><path class="cls-4" d="M193.5,54.49a0.29,0.29,0,0,1-.25-0.14c-0.09-.14.25-0.35,0.39-0.44a22.81,22.81,0,0,0,2.49-1.76c0.43-.33,1-0.76,1.57-1.16a11.21,11.21,0,0,0,3.46-4c0.85-2.24-4.66-5.36-7-6.69l-0.71-.41c-0.18-.11-0.42-0.28-0.68-0.47a3.27,3.27,0,0,0-2-.79,4.9,4.9,0,0,0-1.52,1.65l-0.31.52c-1.78,2.68-4.18,6-5.58,9.78-0.06.15,0,.43-0.19,0.37a0.3,0.3,0,0,1-.17-0.38,51.53,51.53,0,0,1,5.45-10.1c0.07-.1.17-0.28,0.29-0.49,0.7-1.19,1.32-2.18,1.86-2.36s1.51,0.37,2.57,1.13c0.25,0.18.47,0.34,0.64,0.44l0.7,0.4c2.7,1.53,8.31,4.7,7.28,7.42-0.71,1.86-2.91,3.63-3.83,4.3l-1.43,1.08a32.16,32.16,0,0,1-2.89,2A0.24,0.24,0,0,1,193.5,54.49Z" transform="translate(-115.1 0)"/><path class="cls-2" d="M169.93,62.11c-0.62-.17-2.83-1.18-3.15-1.81-0.59-1.15.81-1.81,1.28-2.68,0.77-1.42-.85-1.83-0.48-3.08,0.22-.74.9-0.46,1.24-0.87a7.16,7.16,0,0,0,.7-1.31,1.92,1.92,0,0,0,.65-0.52c0.1-.34-0.38-0.59-0.34-0.86a1.76,1.76,0,0,1,.84-1.42c1.34-.52,1.73,1,2.8-0.58,1-1.39.72-1.7,2.42-.7,1.53,0.9,1.82,0,3.18-.81,0.77-.44.19-0.54,1.09-0.36a7.1,7.1,0,0,1,1.28.74c0.69,0.41,1.44,1.52,2,1.53s1.11-1.19,1.91-.78c0.35,0.18.31,1.22,0.54,1.55,0.76,1.08,1.66,1,1.58,2.54-0.07,1.29-.89,2-1.66,3-0.93,1.15-1.57,2.44-2.52,3.58-2.7,3.28-7.56,2.72-11.35,3.91Z" transform="translate(-115.1 0)"/><path class="cls-5" d="M180.91,71.26c-1.22.51-2.71,0-4,.08a24.86,24.86,0,0,1-6.5-.43c-1.59-.29-4.2-0.63-5.58-1.48s-0.46-1.8.25-3a33.26,33.26,0,0,1,5.47-6.87c0.76-.73,1.84-1.76,2.92-1.54,1.29,0.26,2.53,2,3.34,3,1.18,1.34,2.49,2.6,3.63,4,0.43-2,.26-4.15.8-6.21,0.22-.83.51-3,1.33-3.53s3.67-.33,4.74-0.21,4.54,0.37,5.3,1.32c0.56,0.71-.23,2.75-0.49,3.62a21.4,21.4,0,0,1-2.87,5.43c-0.92,1.39-3.73,5.17-5.57,5Z" transform="translate(-115.1 0)"/><path class="cls-4" d="M179.6,70.74a6.11,6.11,0,0,1-1.21-.08,7.83,7.83,0,0,0-1.45-.07,25,25,0,0,1-6.57-.43L169.56,70a15,15,0,0,1-4.87-1.38,1.62,1.62,0,0,1-.81-1,2.76,2.76,0,0,1,.68-2l0.28-.45a33.32,33.32,0,0,1,5.52-6.94c0.81-.77,2-1.86,3.19-1.62s2.2,1.5,3,2.51L177,59.69c0.54,0.61,1.11,1.21,1.67,1.8s1.25,1.54,1.75,2.11c0.11-.71.08-2,0.14-2.74a16.8,16.8,0,0,1,.37-3.32,4.28,4.28,0,0,1,.14-0.62c0.23-1.1.56-2.61,1.32-3.08s2.36-.55,4.94-0.25l0.48,0c2.07,0.21,4.33.51,5,1.38,0.53,0.67.17,2-.29,3.42l-0.15.47a21.83,21.83,0,0,1-2.91,5.53,14.57,14.57,0,0,1-5.4,5l-3.14,1A3.44,3.44,0,0,1,179.6,70.74Zm-1.06-.55c0.38,0,.87.05,1.25,0.05a7.63,7.63,0,0,0,1.9-.38l2-.78s2.66-.43,5.61-4.94a20.78,20.78,0,0,0,2.63-5.32,5.4,5.4,0,0,1,.3-0.76c0.27-.84.58-2.09,0.11-2.47-1.19-1-2.87-.93-4.07-1.06l-1.09,0a18.57,18.57,0,0,0-2.36-.14,3.7,3.7,0,0,0-2.06.44,4,4,0,0,0-1,2.34c-0.05.26-.1,0.48-0.15,0.65a17.8,17.8,0,0,0-.46,3.33,20.36,20.36,0,0,1-.4,2.91l-0.13.59-0.37-.5c-0.61-.72-1.29-1.44-1.95-2.12s-1.14-1.2-1.68-1.82l-0.48-.57c-0.73-.89-1.4-1.93-2.35-2.12s-1.94.78-2.66,1.46a33,33,0,0,0-5.42,6.81l-0.29.47a2.45,2.45,0,0,0-.61,1.5,1.05,1.05,0,0,0,.54.61,12,12,0,0,0,4.17,1.19,12.84,12.84,0,0,1,1.44.19,66.39,66.39,0,0,0,7.59.49h0Z" transform="translate(-115.1 0)"/><path class="cls-6" d="M174.79,55.8a0.15,0.15,0,0,0,.09-0.18v0a4.48,4.48,0,0,1-.41-1.73,0.67,0.67,0,0,1,.53-0.48,0.87,0.87,0,0,1,.8.6,7.6,7.6,0,0,1,.25,1.26c0,0.1,0,.17.13,0.16s0.09-.07.08-0.17a8.66,8.66,0,0,0-.25-1.33V53.75a1.05,1.05,0,0,0-1-.75,1,1,0,0,0-.84,1,3.6,3.6,0,0,0,.45,1.6l0.06,0.14A0.22,0.22,0,0,0,174.79,55.8Z" transform="translate(-115.1 0)"/><path class="cls-6" d="M179.16,56.56a0.12,0.12,0,0,1-.14-0.1v0a3.91,3.91,0,0,0-.35-1.47,0.57,0.57,0,0,0-.59-0.16,0.76,0.76,0,0,0-.38.76,6.28,6.28,0,0,0,.29,1v0.17s-0.1,0-.13-0.1a7.21,7.21,0,0,1-.31-1.1V55.45a0.9,0.9,0,0,1,.46-1,0.8,0.8,0,0,1,1,.4,3,3,0,0,1,.27,1.39v0.13A0.16,0.16,0,0,1,179.16,56.56Z" transform="translate(-115.1 0)"/><path class="cls-6" d="M181.17,54.37a0.1,0.1,0,0,1-.1-0.12v0a3.87,3.87,0,0,0,0-1.44,0.53,0.53,0,0,0-.51-0.27,0.71,0.71,0,0,0-.51.63,5.57,5.57,0,0,0,0,1c0,0.08,0,.14-0.07.16s-0.09,0-.1-0.12a6.7,6.7,0,0,1-.06-1.1V53a0.85,0.85,0,0,1,.63-0.78,0.76,0.76,0,0,1,.84.58,2.8,2.8,0,0,1,0,1.35v0.12A0.16,0.16,0,0,1,181.17,54.37Z" transform="translate(-115.1 0)"/><path class="cls-6" d="M178.47,52.5a0.11,0.11,0,0,1-.08-0.13,3.66,3.66,0,0,0,0-1.32A0.42,0.42,0,0,0,178,50.8a0.63,0.63,0,0,0-.4.57,7.53,7.53,0,0,0,0,1c0,0.07,0,.13-0.05.14s-0.07,0-.08-0.11a8.39,8.39,0,0,1-.06-1V51.23a0.73,0.73,0,0,1,.49-0.71,0.63,0.63,0,0,1,.67.54,3.18,3.18,0,0,1,0,1.23V52.4A0.14,0.14,0,0,1,178.47,52.5Z" transform="translate(-115.1 0)"/><path class="cls-6" d="M176.75,50.39a0.12,0.12,0,0,1-.12-0.12v0a4.56,4.56,0,0,0-.27-1.55,0.48,0.48,0,0,0-.53-0.22,0.76,0.76,0,0,0-.37.74,8.41,8.41,0,0,0,.23,1.11v0.18s-0.09,0-.11-0.11a9,9,0,0,1-.25-1.17V49.09a0.9,0.9,0,0,1,.45-0.93,0.75,0.75,0,0,1,.89.52,3.62,3.62,0,0,1,.2,1.46v0.13A0.15,0.15,0,0,1,176.75,50.39Z" transform="translate(-115.1 0)"/><path class="cls-6" d="M173.13,50a0.16,0.16,0,0,1-.19-0.1v0a5.48,5.48,0,0,0-.84-1.65,0.59,0.59,0,0,0-.67-0.07,0.9,0.9,0,0,0-.16,1,10.19,10.19,0,0,0,.64,1.17c0.05,0.08.09,0.16,0,.21s-0.11,0-.17-0.09a10.44,10.44,0,0,1-.68-1.23L171,49.07a1,1,0,0,1,.19-1.2,0.9,0.9,0,0,1,1.18.27,4.32,4.32,0,0,1,.72,1.57v0.15A0.2,0.2,0,0,1,173.13,50Z" transform="translate(-115.1 0)"/><path class="cls-6" d="M170.41,53.28a0.13,0.13,0,0,1-.17-0.07h0a4.57,4.57,0,0,0-.86-1.31,0.5,0.5,0,0,0-.57,0,0.78,0.78,0,0,0,0,.83,7.39,7.39,0,0,0,.65.93c0.05,0.07.09,0.13,0,.18s-0.1,0-.15-0.06a8.55,8.55,0,0,1-.7-1l-0.08-.12a0.91,0.91,0,0,1,0-1,0.75,0.75,0,0,1,1,.12,3.45,3.45,0,0,1,.82,1.24l0.06,0.12A0.14,0.14,0,0,1,170.41,53.28Z" transform="translate(-115.1 0)"/><path class="cls-6" d="M169,55.27a0.12,0.12,0,0,1-.17,0h0a4.49,4.49,0,0,0-1.21-1,0.51,0.51,0,0,0-.54.17,0.77,0.77,0,0,0,.21.8,7.65,7.65,0,0,0,.9.69,0.11,0.11,0,0,1,.09.16c0,0.07-.09,0-0.16,0a10.13,10.13,0,0,1-1-.72L167,55.28a0.89,0.89,0,0,1-.26-1,0.75,0.75,0,0,1,1-.19,3.51,3.51,0,0,1,1.1,1l0.09,0.1A0.18,0.18,0,0,1,169,55.27Z" transform="translate(-115.1 0)"/><path class="cls-6" d="M171.64,57.37a0.13,0.13,0,0,1-.18,0,4.49,4.49,0,0,0-1.21-1,0.51,0.51,0,0,0-.54.18,0.77,0.77,0,0,0,.21.8,7.65,7.65,0,0,0,.9.69,0.11,0.11,0,0,1,.09.16c0,0.07-.09,0-0.16,0a10.13,10.13,0,0,1-1-.72l-0.11-.09a0.89,0.89,0,0,1-.26-1,0.75,0.75,0,0,1,1-.19,3.51,3.51,0,0,1,1.1,1l0.09,0.1Z" transform="translate(-115.1 0)"/><path class="cls-6" d="M173.6,56.27a0.12,0.12,0,0,1-.15-0.07v0a4.89,4.89,0,0,0-.74-1.39,0.5,0.5,0,0,0-.57,0,0.75,0.75,0,0,0-.12.82,7.53,7.53,0,0,0,.56,1c0,0.07.08,0.13,0,.18s-0.1,0-.14-0.07a9.13,9.13,0,0,1-.6-1l-0.07-.13a0.88,0.88,0,0,1,.14-1,0.75,0.75,0,0,1,1,.21,3.6,3.6,0,0,1,.64,1.32v0.13Z" transform="translate(-115.1 0)"/><path class="cls-6" d="M181.14,50.33a0.12,0.12,0,0,1-.08-0.15v0a4.56,4.56,0,0,0,.21-1.56,0.5,0.5,0,0,0-.44-0.37,0.76,0.76,0,0,0-.58.6,7.1,7.1,0,0,0-.12,1.13c0,0.09,0,.16-0.09.16S180,50,180,50a7.87,7.87,0,0,1,.12-1.19V48.68a0.88,0.88,0,0,1,.71-0.75,0.75,0.75,0,0,1,.69.76,3.58,3.58,0,0,1-.25,1.45v0.13A0.14,0.14,0,0,1,181.14,50.33Z" transform="translate(-115.1 0)"/><path class="cls-6" d="M183.77,52.68a0.14,0.14,0,0,1-.08-0.18h0a5.24,5.24,0,0,0,.24-1.76,0.58,0.58,0,0,0-.49-0.42,0.86,0.86,0,0,0-.65.68,9.1,9.1,0,0,0-.13,1.28c0,0.1,0,.18-0.1.18s-0.09-.06-0.08-0.16a10.27,10.27,0,0,1,.13-1.35V50.78a1,1,0,0,1,.81-0.85,0.84,0.84,0,0,1,.78.86,4,4,0,0,1-.29,1.64v0.15A0.21,0.21,0,0,1,183.77,52.68Z" transform="translate(-115.1 0)"/><path class="cls-4" d="M175,56.16a0.16,0.16,0,0,0,.09-0.18l0,0a4.61,4.61,0,0,1-.52-1.7,0.67,0.67,0,0,1,.5-0.51,0.88,0.88,0,0,1,.84.55,8.71,8.71,0,0,1,.33,1.24c0,0.1,0,.17.14,0.16s0.09-.08.07-0.17a8.66,8.66,0,0,0-.33-1.31L176,54a1,1,0,0,0-1-.69,1,1,0,0,0-.77,1,3.65,3.65,0,0,0,.55,1.57L174.87,56A0.19,0.19,0,0,0,175,56.16Z" transform="translate(-115.1 0)"/><path class="cls-4" d="M179.38,56.65a0.12,0.12,0,0,1-.15-0.09v0a3.88,3.88,0,0,0-.44-1.45,0.55,0.55,0,0,0-.54-0.08,0.76,0.76,0,0,0-.33.78,7,7,0,0,0,.35,1,0.22,0.22,0,0,1,0,.18c-0.05,0-.1,0-0.13-0.09a8.13,8.13,0,0,1-.38-1.08V55.66a0.89,0.89,0,0,1,.4-1,0.81,0.81,0,0,1,1,.34,3.09,3.09,0,0,1,.35,1.37v0.14A0.16,0.16,0,0,1,179.38,56.65Z" transform="translate(-115.1 0)"/><path class="cls-4" d="M181.25,54.33a0.11,0.11,0,0,1-.11-0.11v0a3.69,3.69,0,0,0-.11-1.44,0.53,0.53,0,0,0-.53-0.24,0.71,0.71,0,0,0-.47.66,6.65,6.65,0,0,0,.11,1c0,0.08,0,.14-0.06.16s-0.09,0-.11-0.11a6.62,6.62,0,0,1-.13-1.09V53a0.85,0.85,0,0,1,.58-0.82,0.77,0.77,0,0,1,.88.53,2.8,2.8,0,0,1,0,1.35v0.12A0.15,0.15,0,0,1,181.25,54.33Z" transform="translate(-115.1 0)"/><path class="cls-4" d="M178.44,52.64a0.1,0.1,0,0,1-.09-0.12,3.86,3.86,0,0,0-.1-1.31,0.43,0.43,0,0,0-.42-0.22,0.63,0.63,0,0,0-.36.59,5.88,5.88,0,0,0,.11.94v0.14s-0.07,0-.09-0.1a8.27,8.27,0,0,1-.12-1V51.44a0.73,0.73,0,0,1,.44-0.74,0.64,0.64,0,0,1,.7.5,3,3,0,0,1,.06,1.23v0.11A0.13,0.13,0,0,1,178.44,52.64Z" transform="translate(-115.1 0)"/><path class="cls-4" d="M176.59,50.64a0.12,0.12,0,0,1-.13-0.11v0A4.5,4.5,0,0,0,176.1,49a0.49,0.49,0,0,0-.54-0.19,0.75,0.75,0,0,0-.32.77,7.17,7.17,0,0,0,.3,1.1v0.18s-0.09,0-.12-0.11a9.35,9.35,0,0,1-.32-1.15V49.44a0.89,0.89,0,0,1,.39-1,0.76,0.76,0,0,1,.92.46,3.74,3.74,0,0,1,.29,1.44v0.17A0.16,0.16,0,0,1,176.59,50.64Z" transform="translate(-115.1 0)"/><path class="cls-4" d="M173,50.51a0.15,0.15,0,0,1-.19-0.1h0a5.61,5.61,0,0,0-.94-1.6,0.59,0.59,0,0,0-.67,0,0.88,0.88,0,0,0-.1,1,10.19,10.19,0,0,0,.71,1.13c0.06,0.08.1,0.15,0,.21s-0.11,0-.17-0.08a11.41,11.41,0,0,1-.76-1.19l-0.09-.15a1,1,0,0,1,.11-1.21,0.89,0.89,0,0,1,1.19.2,4.28,4.28,0,0,1,.82,1.53l0.06,0.15A0.2,0.2,0,0,1,173,50.51Z" transform="translate(-115.1 0)"/><path class="cls-4" d="M170.44,53.92a0.12,0.12,0,0,1-.17-0.07,4.66,4.66,0,0,0-.94-1.26,0.5,0.5,0,0,0-.57,0,0.78,0.78,0,0,0,0,.83,8.65,8.65,0,0,0,.71.89c0.06,0.06.1,0.12,0,.17s-0.09,0-.15,0a8.55,8.55,0,0,1-.76-0.93l-0.09-.12a0.91,0.91,0,0,1,0-1,0.75,0.75,0,0,1,1,0,3.51,3.51,0,0,1,.84,1.21l0.06,0.12A0.16,0.16,0,0,1,170.44,53.92Z" transform="translate(-115.1 0)"/><path class="cls-4" d="M169.19,56a0.12,0.12,0,0,1-.17,0,0,0,0,0,1,0,0,4.58,4.58,0,0,0-1.27-.92,0.51,0.51,0,0,0-.53.21,0.75,0.75,0,0,0,.26.79,7.42,7.42,0,0,0,.94.64,0.11,0.11,0,0,1,.1.15c0,0.07-.09,0-0.16,0a9.6,9.6,0,0,1-1-.66l-0.09-.13a0.9,0.9,0,0,1-.32-1,0.74,0.74,0,0,1,1-.25,3.55,3.55,0,0,1,1.16.91l0.1,0.1A0.15,0.15,0,0,1,169.19,56Z" transform="translate(-115.1 0)"/><path class="cls-4" d="M171.93,57.92a0.12,0.12,0,0,1-.17,0,0,0,0,0,1,0,0,4.58,4.58,0,0,0-1.27-.92,0.51,0.51,0,0,0-.53.21,0.75,0.75,0,0,0,.26.79,7.42,7.42,0,0,0,.94.64,0.11,0.11,0,0,1,.1.15c0,0.07-.09,0-0.16,0a9.6,9.6,0,0,1-1-.66L170,58a0.9,0.9,0,0,1-.32-1,0.74,0.74,0,0,1,1-.25,3.55,3.55,0,0,1,1.16.91l0.1,0.1A0.14,0.14,0,0,1,171.93,57.92Z" transform="translate(-115.1 0)"/><path class="cls-4" d="M173.81,56.7a0.12,0.12,0,0,1-.16,0v0a4.74,4.74,0,0,0-.82-1.34,0.5,0.5,0,0,0-.57,0,0.76,0.76,0,0,0-.07.83,7.37,7.37,0,0,0,.62,1c0.05,0.07.09,0.13,0,.18s-0.1,0-.15-0.07a8.3,8.3,0,0,1-.67-1l0-.16a0.89,0.89,0,0,1,.07-1,0.75,0.75,0,0,1,1,.15,3.68,3.68,0,0,1,.72,1.28l0.05,0.13A0.15,0.15,0,0,1,173.81,56.7Z" transform="translate(-115.1 0)"/><path class="cls-4" d="M181,50.31a0.13,0.13,0,0,1-.09-0.14v0a4.6,4.6,0,0,0,.12-1.57,0.51,0.51,0,0,0-.46-0.34,0.75,0.75,0,0,0-.54.63A7.11,7.11,0,0,0,180,50c0,0.09,0,.16-0.08.16s-0.08,0-.08-0.14a8,8,0,0,1,0-1.2V48.68a0.88,0.88,0,0,1,.66-0.79,0.75,0.75,0,0,1,.74.71,3.62,3.62,0,0,1-.16,1.46v0.13A0.15,0.15,0,0,1,181,50.31Z" transform="translate(-115.1 0)"/><path class="cls-4" d="M183.74,52.49a0.15,0.15,0,0,1-.11-0.17s0,0,0,0a5.32,5.32,0,0,0,.13-1.78,0.56,0.56,0,0,0-.52-0.39,0.86,0.86,0,0,0-.61.72,9.08,9.08,0,0,0-.05,1.28c0,0.1,0,.18-0.09.18s-0.09-.06-0.09-0.16a10.14,10.14,0,0,1,0-1.35V50.64a1,1,0,0,1,.75-0.9,0.84,0.84,0,0,1,.83.81,4.18,4.18,0,0,1-.18,1.65v0.15A0.18,0.18,0,0,1,183.74,52.49Z" transform="translate(-115.1 0)"/><path class="cls-6" d="M174.79,55.8a0.15,0.15,0,0,0,.09-0.18v0a4.48,4.48,0,0,1-.41-1.73,0.67,0.67,0,0,1,.53-0.48,0.87,0.87,0,0,1,.8.6,7.6,7.6,0,0,1,.25,1.26c0,0.1,0,.17.13,0.16s0.09-.07.08-0.17a8.66,8.66,0,0,0-.25-1.33V53.75a1.05,1.05,0,0,0-1-.75,1,1,0,0,0-.84,1,3.6,3.6,0,0,0,.45,1.6l0.06,0.14A0.22,0.22,0,0,0,174.79,55.8Z" transform="translate(-115.1 0)"/><path class="cls-6" d="M179.16,56.56a0.12,0.12,0,0,1-.14-0.1v0a3.91,3.91,0,0,0-.35-1.47,0.57,0.57,0,0,0-.59-0.16,0.76,0.76,0,0,0-.38.76,6.28,6.28,0,0,0,.29,1v0.17s-0.1,0-.13-0.1a7.21,7.21,0,0,1-.31-1.1V55.45a0.9,0.9,0,0,1,.46-1,0.8,0.8,0,0,1,1,.4,3,3,0,0,1,.27,1.39v0.13A0.16,0.16,0,0,1,179.16,56.56Z" transform="translate(-115.1 0)"/><path class="cls-6" d="M181.17,54.37a0.1,0.1,0,0,1-.1-0.12v0a3.87,3.87,0,0,0,0-1.44,0.53,0.53,0,0,0-.51-0.27,0.71,0.71,0,0,0-.51.63,5.57,5.57,0,0,0,0,1c0,0.08,0,.14-0.07.16s-0.09,0-.1-0.12a6.7,6.7,0,0,1-.06-1.1V53a0.85,0.85,0,0,1,.63-0.78,0.76,0.76,0,0,1,.84.58,2.8,2.8,0,0,1,0,1.35v0.12A0.16,0.16,0,0,1,181.17,54.37Z" transform="translate(-115.1 0)"/><path class="cls-6" d="M178.47,52.5a0.11,0.11,0,0,1-.08-0.13,3.66,3.66,0,0,0,0-1.32A0.42,0.42,0,0,0,178,50.8a0.63,0.63,0,0,0-.4.57,7.53,7.53,0,0,0,0,1c0,0.07,0,.13-0.05.14s-0.07,0-.08-0.11a8.39,8.39,0,0,1-.06-1V51.23a0.73,0.73,0,0,1,.49-0.71,0.63,0.63,0,0,1,.67.54,3.18,3.18,0,0,1,0,1.23V52.4A0.14,0.14,0,0,1,178.47,52.5Z" transform="translate(-115.1 0)"/><path class="cls-6" d="M176.75,50.39a0.12,0.12,0,0,1-.12-0.12v0a4.56,4.56,0,0,0-.27-1.55,0.48,0.48,0,0,0-.53-0.22,0.76,0.76,0,0,0-.37.74,8.41,8.41,0,0,0,.23,1.11v0.18s-0.09,0-.11-0.11a9,9,0,0,1-.25-1.17V49.09a0.9,0.9,0,0,1,.45-0.93,0.75,0.75,0,0,1,.89.52,3.62,3.62,0,0,1,.2,1.46v0.13A0.15,0.15,0,0,1,176.75,50.39Z" transform="translate(-115.1 0)"/><path class="cls-6" d="M173.13,50a0.16,0.16,0,0,1-.19-0.1v0a5.48,5.48,0,0,0-.84-1.65,0.59,0.59,0,0,0-.67-0.07,0.9,0.9,0,0,0-.16,1,10.19,10.19,0,0,0,.64,1.17c0.05,0.08.09,0.16,0,.21s-0.11,0-.17-0.09a10.44,10.44,0,0,1-.68-1.23L171,49.07a1,1,0,0,1,.19-1.2,0.9,0.9,0,0,1,1.18.27,4.32,4.32,0,0,1,.72,1.57v0.15A0.2,0.2,0,0,1,173.13,50Z" transform="translate(-115.1 0)"/><path class="cls-6" d="M170.41,53.28a0.13,0.13,0,0,1-.17-0.07h0a4.57,4.57,0,0,0-.86-1.31,0.5,0.5,0,0,0-.57,0,0.78,0.78,0,0,0,0,.83,7.39,7.39,0,0,0,.65.93c0.05,0.07.09,0.13,0,.18s-0.1,0-.15-0.06a8.55,8.55,0,0,1-.7-1l-0.08-.12a0.91,0.91,0,0,1,0-1,0.75,0.75,0,0,1,1,.12,3.45,3.45,0,0,1,.82,1.24l0.06,0.12A0.14,0.14,0,0,1,170.41,53.28Z" transform="translate(-115.1 0)"/><path class="cls-6" d="M169,55.27a0.12,0.12,0,0,1-.17,0h0a4.49,4.49,0,0,0-1.21-1,0.51,0.51,0,0,0-.54.17,0.77,0.77,0,0,0,.21.8,7.65,7.65,0,0,0,.9.69,0.11,0.11,0,0,1,.09.16c0,0.07-.09,0-0.16,0a10.13,10.13,0,0,1-1-.72L167,55.28a0.89,0.89,0,0,1-.26-1,0.75,0.75,0,0,1,1-.19,3.51,3.51,0,0,1,1.1,1l0.09,0.1A0.18,0.18,0,0,1,169,55.27Z" transform="translate(-115.1 0)"/><path class="cls-6" d="M171.64,57.37a0.13,0.13,0,0,1-.18,0,4.49,4.49,0,0,0-1.21-1,0.51,0.51,0,0,0-.54.18,0.77,0.77,0,0,0,.21.8,7.65,7.65,0,0,0,.9.69,0.11,0.11,0,0,1,.09.16c0,0.07-.09,0-0.16,0a10.13,10.13,0,0,1-1-.72l-0.11-.09a0.89,0.89,0,0,1-.26-1,0.75,0.75,0,0,1,1-.19,3.51,3.51,0,0,1,1.1,1l0.09,0.1Z" transform="translate(-115.1 0)"/><path class="cls-6" d="M173.6,56.27a0.12,0.12,0,0,1-.15-0.07v0a4.89,4.89,0,0,0-.74-1.39,0.5,0.5,0,0,0-.57,0,0.75,0.75,0,0,0-.12.82,7.53,7.53,0,0,0,.56,1c0,0.07.08,0.13,0,.18s-0.1,0-.14-0.07a9.13,9.13,0,0,1-.6-1l-0.07-.13a0.88,0.88,0,0,1,.14-1,0.75,0.75,0,0,1,1,.21,3.6,3.6,0,0,1,.64,1.32v0.13Z" transform="translate(-115.1 0)"/><path class="cls-6" d="M181.14,50.33a0.12,0.12,0,0,1-.08-0.15v0a4.56,4.56,0,0,0,.21-1.56,0.5,0.5,0,0,0-.44-0.37,0.76,0.76,0,0,0-.58.6,7.1,7.1,0,0,0-.12,1.13c0,0.09,0,.16-0.09.16S180,50,180,50a7.87,7.87,0,0,1,.12-1.19V48.68a0.88,0.88,0,0,1,.71-0.75,0.75,0.75,0,0,1,.69.76,3.58,3.58,0,0,1-.25,1.45v0.13A0.14,0.14,0,0,1,181.14,50.33Z" transform="translate(-115.1 0)"/><path class="cls-6" d="M183.77,52.68a0.14,0.14,0,0,1-.08-0.18h0a5.24,5.24,0,0,0,.24-1.76,0.58,0.58,0,0,0-.49-0.42,0.86,0.86,0,0,0-.65.68,9.1,9.1,0,0,0-.13,1.28c0,0.1,0,.18-0.1.18s-0.09-.06-0.08-0.16a10.27,10.27,0,0,1,.13-1.35V50.78a1,1,0,0,1,.81-0.85,0.84,0.84,0,0,1,.78.86,4,4,0,0,1-.29,1.64v0.15A0.21,0.21,0,0,1,183.77,52.68Z" transform="translate(-115.1 0)"/><path class="cls-4" d="M175,56.16a0.16,0.16,0,0,0,.09-0.18l0,0a4.61,4.61,0,0,1-.52-1.7,0.67,0.67,0,0,1,.5-0.51,0.88,0.88,0,0,1,.84.55,8.71,8.71,0,0,1,.33,1.24c0,0.1,0,.17.14,0.16s0.09-.08.07-0.17a8.66,8.66,0,0,0-.33-1.31L176,54a1,1,0,0,0-1-.69,1,1,0,0,0-.77,1,3.65,3.65,0,0,0,.55,1.57L174.87,56A0.19,0.19,0,0,0,175,56.16Z" transform="translate(-115.1 0)"/><path class="cls-4" d="M179.38,56.65a0.12,0.12,0,0,1-.15-0.09v0a3.88,3.88,0,0,0-.44-1.45,0.55,0.55,0,0,0-.54-0.08,0.76,0.76,0,0,0-.33.78,7,7,0,0,0,.35,1,0.22,0.22,0,0,1,0,.18c-0.05,0-.1,0-0.13-0.09a8.13,8.13,0,0,1-.38-1.08V55.66a0.89,0.89,0,0,1,.4-1,0.81,0.81,0,0,1,1,.34,3.09,3.09,0,0,1,.35,1.37v0.14A0.16,0.16,0,0,1,179.38,56.65Z" transform="translate(-115.1 0)"/><path class="cls-4" d="M181.25,54.33a0.11,0.11,0,0,1-.11-0.11v0a3.69,3.69,0,0,0-.11-1.44,0.53,0.53,0,0,0-.53-0.24,0.71,0.71,0,0,0-.47.66,6.65,6.65,0,0,0,.11,1c0,0.08,0,.14-0.06.16s-0.09,0-.11-0.11a6.62,6.62,0,0,1-.13-1.09V53a0.85,0.85,0,0,1,.58-0.82,0.77,0.77,0,0,1,.88.53,2.8,2.8,0,0,1,0,1.35v0.12A0.15,0.15,0,0,1,181.25,54.33Z" transform="translate(-115.1 0)"/><path class="cls-4" d="M178.44,52.64a0.1,0.1,0,0,1-.09-0.12,3.86,3.86,0,0,0-.1-1.31,0.43,0.43,0,0,0-.42-0.22,0.63,0.63,0,0,0-.36.59,5.88,5.88,0,0,0,.11.94v0.14s-0.07,0-.09-0.1a8.27,8.27,0,0,1-.12-1V51.44a0.73,0.73,0,0,1,.44-0.74,0.64,0.64,0,0,1,.7.5,3,3,0,0,1,.06,1.23v0.11A0.13,0.13,0,0,1,178.44,52.64Z" transform="translate(-115.1 0)"/><path class="cls-4" d="M176.59,50.64a0.12,0.12,0,0,1-.13-0.11v0A4.5,4.5,0,0,0,176.1,49a0.49,0.49,0,0,0-.54-0.19,0.75,0.75,0,0,0-.32.77,7.17,7.17,0,0,0,.3,1.1v0.18s-0.09,0-.12-0.11a9.35,9.35,0,0,1-.32-1.15V49.44a0.89,0.89,0,0,1,.39-1,0.76,0.76,0,0,1,.92.46,3.74,3.74,0,0,1,.29,1.44v0.17A0.16,0.16,0,0,1,176.59,50.64Z" transform="translate(-115.1 0)"/><path class="cls-4" d="M173,50.51a0.15,0.15,0,0,1-.19-0.1h0a5.61,5.61,0,0,0-.94-1.6,0.59,0.59,0,0,0-.67,0,0.88,0.88,0,0,0-.1,1,10.19,10.19,0,0,0,.71,1.13c0.06,0.08.1,0.15,0,.21s-0.11,0-.17-0.08a11.41,11.41,0,0,1-.76-1.19l-0.09-.15a1,1,0,0,1,.11-1.21,0.89,0.89,0,0,1,1.19.2,4.28,4.28,0,0,1,.82,1.53l0.06,0.15A0.2,0.2,0,0,1,173,50.51Z" transform="translate(-115.1 0)"/><path class="cls-4" d="M170.44,53.92a0.12,0.12,0,0,1-.17-0.07,4.66,4.66,0,0,0-.94-1.26,0.5,0.5,0,0,0-.57,0,0.78,0.78,0,0,0,0,.83,8.65,8.65,0,0,0,.71.89c0.06,0.06.1,0.12,0,.17s-0.09,0-.15,0a8.55,8.55,0,0,1-.76-0.93l-0.09-.12a0.91,0.91,0,0,1,0-1,0.75,0.75,0,0,1,1,0,3.51,3.51,0,0,1,.84,1.21l0.06,0.12A0.16,0.16,0,0,1,170.44,53.92Z" transform="translate(-115.1 0)"/><path class="cls-4" d="M169.19,56a0.12,0.12,0,0,1-.17,0,0,0,0,0,1,0,0,4.58,4.58,0,0,0-1.27-.92,0.51,0.51,0,0,0-.53.21,0.75,0.75,0,0,0,.26.79,7.42,7.42,0,0,0,.94.64,0.11,0.11,0,0,1,.1.15c0,0.07-.09,0-0.16,0a9.6,9.6,0,0,1-1-.66l-0.09-.13a0.9,0.9,0,0,1-.32-1,0.74,0.74,0,0,1,1-.25,3.55,3.55,0,0,1,1.16.91l0.1,0.1A0.15,0.15,0,0,1,169.19,56Z" transform="translate(-115.1 0)"/><path class="cls-4" d="M171.93,57.92a0.12,0.12,0,0,1-.17,0,0,0,0,0,1,0,0,4.58,4.58,0,0,0-1.27-.92,0.51,0.51,0,0,0-.53.21,0.75,0.75,0,0,0,.26.79,7.42,7.42,0,0,0,.94.64,0.11,0.11,0,0,1,.1.15c0,0.07-.09,0-0.16,0a9.6,9.6,0,0,1-1-.66L170,58a0.9,0.9,0,0,1-.32-1,0.74,0.74,0,0,1,1-.25,3.55,3.55,0,0,1,1.16.91l0.1,0.1A0.14,0.14,0,0,1,171.93,57.92Z" transform="translate(-115.1 0)"/><path class="cls-4" d="M173.81,56.7a0.12,0.12,0,0,1-.16,0v0a4.74,4.74,0,0,0-.82-1.34,0.5,0.5,0,0,0-.57,0,0.76,0.76,0,0,0-.07.83,7.37,7.37,0,0,0,.62,1c0.05,0.07.09,0.13,0,.18s-0.1,0-.15-0.07a8.3,8.3,0,0,1-.67-1l0-.16a0.89,0.89,0,0,1,.07-1,0.75,0.75,0,0,1,1,.15,3.68,3.68,0,0,1,.72,1.28l0.05,0.13A0.15,0.15,0,0,1,173.81,56.7Z" transform="translate(-115.1 0)"/><path class="cls-4" d="M181,50.31a0.13,0.13,0,0,1-.09-0.14v0a4.6,4.6,0,0,0,.12-1.57,0.51,0.51,0,0,0-.46-0.34,0.75,0.75,0,0,0-.54.63A7.11,7.11,0,0,0,180,50c0,0.09,0,.16-0.08.16s-0.08,0-.08-0.14a8,8,0,0,1,0-1.2V48.68a0.88,0.88,0,0,1,.66-0.79,0.75,0.75,0,0,1,.74.71,3.62,3.62,0,0,1-.16,1.46v0.13A0.15,0.15,0,0,1,181,50.31Z" transform="translate(-115.1 0)"/><path class="cls-4" d="M183.74,52.49a0.15,0.15,0,0,1-.11-0.17s0,0,0,0a5.32,5.32,0,0,0,.13-1.78,0.56,0.56,0,0,0-.52-0.39,0.86,0.86,0,0,0-.61.72,9.08,9.08,0,0,0-.05,1.28c0,0.1,0,.18-0.09.18s-0.09-.06-0.09-0.16a10.14,10.14,0,0,1,0-1.35V50.64a1,1,0,0,1,.75-0.9,0.84,0.84,0,0,1,.83.81,4.18,4.18,0,0,1-.18,1.65v0.15A0.18,0.18,0,0,1,183.74,52.49Z" transform="translate(-115.1 0)"/></svg>