<svg id="WW_CornerVines_1C_CMYK" xmlns="http://www.w3.org/2000/svg" viewBox="0 0 67.91 162.24"><defs><style>.cls-1{fill:#e8247f;}</style></defs><title>Corner_Vines_2</title><path class="cls-1" d="M315,120.57l-0.82.2c1.09,2.28,2.12,5.17,3.84,7.06a12.22,12.22,0,0,0,5,3.53c4.5,1.55,10.47-.18,13.77-2.71-0.32-.41-0.58-1.48-0.95-1.88a24,24,0,0,0-9.56-5.74A21.26,21.26,0,0,0,315,120.57Z" transform="translate(-291.15 -17.59)"/><path class="cls-1" d="M314,97.7a10.28,10.28,0,0,0,2.48-5.47c0.07-.5,0-6.52-0.84-6.15-3.41,1.49-6.51,2.55-8.84,5.67s-3.28,7.1-4.5,10.79c0.76-.09,1.53-0.17,2.28-0.32C308.28,101.49,311.73,100.21,314,97.7Z" transform="translate(-291.15 -17.59)"/><path class="cls-1" d="M358.7,119.18c0.13-.23.25-0.46,0.36-0.69a4.14,4.14,0,0,0-2.57.09c-0.55.1-1.1,0.24-1.64,0.38-0.21.06-.45,0.1-0.69,0.17a13.94,13.94,0,0,0,.25-2,3.91,3.91,0,0,0-.07-2,0.27,0.27,0,0,0-.2-0.28,2,2,0,0,0-1.06.32c-0.52.22-1.05,0.4-1.59,0.59-0.12,0-.66.17-1.1,0.36a6.43,6.43,0,0,0-.44-1.84,21,21,0,0,0-.54-2.15,0.22,0.22,0,0,0-.25-0.33c-2.2.86-3.9,3.92-4.64,5.95a5.72,5.72,0,0,0,1.23,6.33,7.46,7.46,0,0,0,2.7,1.21,6.2,6.2,0,0,0,2.89.17,9.58,9.58,0,0,0,5.44-3.62A20.55,20.55,0,0,0,358.7,119.18Z" transform="translate(-291.15 -17.59)"/><path class="cls-1" d="M353.15,141a5.18,5.18,0,0,0,.53-0.12,2.91,2.91,0,0,0-1.22-1.32c-0.31-.24-0.63-0.47-0.95-0.7-0.13-.09-0.27-0.2-0.41-0.29a8.52,8.52,0,0,0,1.2-.81,2.74,2.74,0,0,0,1-.94,0.18,0.18,0,0,0,.06-0.23,1.39,1.39,0,0,0-.65-0.41c-0.35-.18-0.7-0.38-1-0.58-0.08,0-.4-0.27-0.7-0.42a4.83,4.83,0,0,0,.78-1.07,15.14,15.14,0,0,0,.89-1.27,0.15,0.15,0,0,0,.06-0.28c-1.46-.77-3.85-0.27-5.28.26a4,4,0,0,0-2.79,3.55,5.2,5.2,0,0,0,.59,2,4.48,4.48,0,0,0,1.23,1.61,6.72,6.72,0,0,0,4.41,1.22A14.91,14.91,0,0,0,353.15,141Z" transform="translate(-291.15 -17.59)"/><path class="cls-1" d="M318.49,45.94a6.19,6.19,0,0,0-.35-0.65,4,4,0,0,0-1.33,2.08c-0.21.5-.41,1-0.59,1.51-0.07.2-.17,0.42-0.24,0.64a13.38,13.38,0,0,0-1.51-1.31,3.77,3.77,0,0,0-1.59-1,0.26,0.26,0,0,0-.33,0,2,2,0,0,0-.32,1c-0.11.54-.25,1.07-0.39,1.59a8.86,8.86,0,0,0-.32,1.07,6.24,6.24,0,0,0-1.69-.65c-0.66-.21-1.34-0.61-2-0.75a0.21,0.21,0,0,0-.4,0c-0.51,2.22,1,5.22,2.2,6.91a5.54,5.54,0,0,0,5.71,2.46,7.5,7.5,0,0,0,2.42-1.49,6.08,6.08,0,0,0,1.7-2.2,9.21,9.21,0,0,0,.07-6.29A20.94,20.94,0,0,0,318.49,45.94Z" transform="translate(-291.15 -17.59)"/><path class="cls-1" d="M346,17.59a34,34,0,0,0-8.54,6.88,35.7,35.7,0,0,0-5.85,9,44.56,44.56,0,0,0-3.25,10.23,57.76,57.76,0,0,0-1.17,10.69,76.79,76.79,0,0,0,.56,10.75c0.44,3.62,1,7.25,1.66,10.88,1.21,7.26,2.67,14.5,4.12,21.77s2.84,14.56,4.05,21.93c0.58,3.69,1.12,7.37,1.53,11.15a67.9,67.9,0,0,1,.19,11.45,65.77,65.77,0,0,1-1.74,11.31,53,53,0,0,1-4,10.72,39.63,39.63,0,0,1-6.56,9.31,26.45,26.45,0,0,1-8.28,6.15c6.16-4.21,9.82-9.84,12.45-16.55a50,50,0,0,0,2.94-10.37,63.43,63.43,0,0,0,1-10.73,78.17,78.17,0,0,0-.63-10.75c-0.5-3.58-1.14-7.23-1.82-10.84s-1.37-7.25-2.1-10.88l-2.16-10.89c-1.4-7.29-2.78-14.6-3.94-22-0.55-3.7-1-7.42-1.38-11.16A67.07,67.07,0,0,1,323,54.22a61.55,61.55,0,0,1,1.91-11.31,47.48,47.48,0,0,1,4.34-10.62,35.93,35.93,0,0,1,7.14-8.9A30.78,30.78,0,0,1,346,17.59Z" transform="translate(-291.15 -17.59)"/><path class="cls-1" d="M338.61,21.62a42.62,42.62,0,0,1-3,9.83,102.43,102.43,0,0,1-4.53,9.22c-3.23,6-6.84,11.84-9.65,18-0.69,1.54-1.33,3.1-1.88,4.69-0.13.39-.27,0.8-0.39,1.19s-0.25.82-.35,1.21c-0.22.8-.43,1.61-0.6,2.43a39.19,39.19,0,0,0-.8,10,39.86,39.86,0,0,0,5.64,19.19,58.4,58.4,0,0,0,6.25,8c2.26,2.55,4.65,5,6.71,7.76a38.42,38.42,0,0,1,2.85,4.31,33.49,33.49,0,0,1,4.1,14.9,31.32,31.32,0,0,1-6.41,19.52c-0.54.71-1,1.37-1.66,2.06A23.91,23.91,0,0,1,333,155.8a25,25,0,0,1-4.34,3,8.14,8.14,0,0,1-2.72.94,3.26,3.26,0,0,1-.43,0h-0.16l-0.23,0a3.83,3.83,0,0,1-.8-0.18,4.87,4.87,0,0,1-1.39-.71,5.09,5.09,0,0,1-1.83-2.47,3.52,3.52,0,0,1-.14-1.69,3.13,3.13,0,0,1,.78-1.6l0.28-.31,0.42,0a5.66,5.66,0,0,1,4.17,2.24,7.56,7.56,0,0,1,1.59,4.32,5.83,5.83,0,0,1-.06,1.17l0,0.15,0,0.15-0.05.26c-0.05.21-.1,0.4-0.16,0.58a11,11,0,0,1-.89,2,17.48,17.48,0,0,1-2.57,3.46,15.52,15.52,0,0,1-3.35,2.76,16.49,16.49,0,0,1-4,1.63,18,18,0,0,1-8.5,0,24.8,24.8,0,0,1-7.72-3.32,20.71,20.71,0,0,1-9.31-21.68l0.17,0a20.63,20.63,0,0,0,3.86,15.3,19.44,19.44,0,0,0,5.94,5.28,23.71,23.71,0,0,0,7.37,3,16.47,16.47,0,0,0,7.77-.17,14.5,14.5,0,0,0,3.55-1.53,14.19,14.19,0,0,0,3-2.47,16.11,16.11,0,0,0,2.3-3.13,6.58,6.58,0,0,0,1-3.44,5.75,5.75,0,0,0-1.22-3.27,3.84,3.84,0,0,0-2.83-1.54l0.71-.3a1.49,1.49,0,0,0-.25,1.51,3.23,3.23,0,0,0,1.16,1.58,2.67,2.67,0,0,0,1.77.59,6.44,6.44,0,0,0,2.09-.73,23.2,23.2,0,0,0,4.06-2.77,21.79,21.79,0,0,0,1.8-1.68c0.52-.57,1.07-1.26,1.57-1.91a33.09,33.09,0,0,0,4.79-8.74,29.64,29.64,0,0,0,1.74-9.82,30.76,30.76,0,0,0-1.6-9.91,31.69,31.69,0,0,0-1.95-4.67,33.41,33.41,0,0,0-2.72-4.27c-2-2.72-4.34-5.24-6.64-7.76a59.38,59.38,0,0,1-6.42-8,40.82,40.82,0,0,1-6.47-19.48,39.8,39.8,0,0,1,.7-10.38,42.66,42.66,0,0,1,3.39-9.82c2.94-6.25,6.6-12,10-17.91,1.71-2.94,3.34-5.93,4.81-9a46.37,46.37,0,0,0,3.45-9.58Z" transform="translate(-291.15 -17.59)"/><path class="cls-1" d="M350.19,50.37C346.31,56.08,337,60.91,328.39,58c3.92-11.65,13.86-6.88,21.8-7.62" transform="translate(-291.15 -17.59)"/></svg>