<svg id="WW_CornerVines_1C_CMYK" xmlns="http://www.w3.org/2000/svg" viewBox="0 0 56.14 119.99"><defs><style>.cls-1{fill:#e8247f;}</style></defs><title>Corner_Vines_1</title><path class="cls-1" d="M75.48,38.93a38.43,38.43,0,0,0-2.1-3.77A38.66,38.66,0,0,1,77,47.86a44.2,44.2,0,0,1,0,8.9,63.25,63.25,0,0,1-1.38,8.81,114.61,114.61,0,0,1-5.24,17.11,132.77,132.77,0,0,1-7.87,16.1c-2.62,4.68-5.57,9.29-8.42,13.75l-1,1.62-5,7.61c-1.88,3-3.4,5.43-4.79,7.75a158.14,158.14,0,0,0-8.44,16.16l-0.09.21A22.24,22.24,0,0,0,33.28,150a13,13,0,0,0-.34,4.54c0,0.22.05,0.44,0.09,0.66,0-.22,0-0.44,0-0.66a12.78,12.78,0,0,1,.63-4.45A18.93,18.93,0,0,1,35.53,146c2.94-5.09,6.18-10.25,9.63-15.32,1.68-2.44,3.38-4.88,5.09-7.32,5.16-7.36,10.49-15,15.08-23a117.93,117.93,0,0,0,8-16.56A82.63,82.63,0,0,0,76.11,75c0.7-2.65,1.49-5.78,2-9a65.53,65.53,0,0,0,.94-9.19,45.21,45.21,0,0,0-.73-9.21A36.26,36.26,0,0,0,75.48,38.93Z" transform="translate(-32.87 -35.16)"/><path class="cls-1" d="M37.92,115.57a11,11,0,0,0,5.53,3.36c0.52,0.14,7,.83,6.69-0.11-1.15-3.85-1.89-7.29-4.92-10.18s-7.17-4.42-11-6.21c0,0.82,0,1.65,0,2.47C34.6,109,35.52,112.84,37.92,115.57Z" transform="translate(-32.87 -35.16)"/><path class="cls-1" d="M64.4,143.76a9.62,9.62,0,0,0,.85-0.63c-0.79-1-2.06-1.12-3.2-1.44-0.74-.2-1.48-0.37-2.24-0.52-0.3-.06-0.62-0.15-1-0.21a17.93,17.93,0,0,0,1.54-2.36,5.32,5.32,0,0,0,1.09-2.44,0.36,0.36,0,0,0-.08-0.46,2.77,2.77,0,0,0-1.49-.24c-0.77-.05-1.54-0.14-2.3-0.24-0.18,0-.92-0.19-1.57-0.22a9,9,0,0,0,.58-2.51c0.15-1,.58-2,0.63-3a0.29,0.29,0,0,0-.12-0.55c-3.21-.27-7.12,2.45-9.25,4.49A7.82,7.82,0,0,0,45.61,142,10.29,10.29,0,0,0,48.18,145,8.57,8.57,0,0,0,51.62,147c3,0.84,6.11.06,8.83-1.18A28.53,28.53,0,0,0,64.4,143.76Z" transform="translate(-32.87 -35.16)"/><path class="cls-1" d="M77.14,81.82a9.66,9.66,0,0,0-3.59,4.41c-0.19.43-1.55,6-.7,5.83,3.48-.54,6.57-0.77,9.45-3.07S87,83.28,89,80.2c-0.72-.1-1.44-0.21-2.16-0.26C83.29,79.72,79.81,80.06,77.14,81.82Z" transform="translate(-32.87 -35.16)"/><path class="cls-1" d="M68.11,51.17a7.13,7.13,0,0,0-.65-0.4,4.08,4.08,0,0,0-.09,2.53c0.07,0.55.16,1.09,0.26,1.64,0,0.22.07,0.46,0.12,0.7a13.08,13.08,0,0,0-2-.39,3.85,3.85,0,0,0-1.93-.07,0.26,0.26,0,0,0-.29.18,2,2,0,0,0,.24,1.06c0.17,0.53.33,1.06,0.47,1.6a11.34,11.34,0,0,0,.28,1.11,6.55,6.55,0,0,0-1.84.3c-0.68.16-1.5,0.16-2.15,0.38a0.21,0.21,0,0,0-.33.23c0.69,2.22,3.58,4.1,5.52,5A5.65,5.65,0,0,0,72,64.23a7.45,7.45,0,0,0,1.37-2.56,6.18,6.18,0,0,0,.37-2.83,9.41,9.41,0,0,0-3.19-5.59A20.45,20.45,0,0,0,68.11,51.17Z" transform="translate(-32.87 -35.16)"/></svg>