<svg id="WW_CornerVines_PMS" xmlns="http://www.w3.org/2000/svg" viewBox="0 0 60.24 119.99"><defs><style>.cls-1{fill:#644130;}.cls-2{fill:#69b94c;}.cls-3{fill:#e8247f;}</style></defs><title>Corner_Vines_5</title><path class="cls-1" d="M76.48,41.93a38.38,38.38,0,0,0-2.1-3.77A38.67,38.67,0,0,1,78,50.86a44.22,44.22,0,0,1,0,8.9,63.26,63.26,0,0,1-1.38,8.81,114.61,114.61,0,0,1-5.24,17.11,132.75,132.75,0,0,1-7.87,16.1c-2.62,4.68-5.57,9.29-8.42,13.75l-1,1.62-5,7.61c-1.88,3-3.4,5.43-4.79,7.75a158.14,158.14,0,0,0-8.44,16.16l-0.09.21A22.23,22.23,0,0,0,34.28,153a13,13,0,0,0-.34,4.54c0,0.22.05,0.44,0.09,0.66,0-.22,0-0.44,0-0.66a12.78,12.78,0,0,1,.63-4.45A18.93,18.93,0,0,1,36.53,149c2.94-5.09,6.18-10.25,9.63-15.32,1.68-2.44,3.38-4.88,5.09-7.32,5.16-7.36,10.49-15,15.08-23a117.91,117.91,0,0,0,8-16.56A82.62,82.62,0,0,0,77.11,78c0.7-2.65,1.49-5.78,2-9a65.53,65.53,0,0,0,.94-9.19,45.21,45.21,0,0,0-.73-9.21A36.26,36.26,0,0,0,76.48,41.93Z" transform="translate(-33.87 -38.16)"/><path class="cls-2" d="M38.92,118.57a11,11,0,0,0,5.53,3.36c0.52,0.14,7,.83,6.69-0.11-1.15-3.85-1.89-7.29-4.92-10.18s-7.17-4.42-11-6.21c0,0.82,0,1.65,0,2.47C35.6,112,36.52,115.84,38.92,118.57Z" transform="translate(-33.87 -38.16)"/><path class="cls-3" d="M65.4,146.76a9.62,9.62,0,0,0,.85-0.63c-0.79-1-2.06-1.12-3.2-1.44-0.74-.2-1.48-0.37-2.24-0.52-0.3-.06-0.62-0.15-1-0.21a18,18,0,0,0,1.54-2.36,5.32,5.32,0,0,0,1.09-2.44,0.36,0.36,0,0,0-.08-0.46,2.77,2.77,0,0,0-1.49-.24c-0.77-.05-1.54-0.14-2.3-0.24-0.18,0-.92-0.19-1.57-0.22a9,9,0,0,0,.58-2.51c0.15-1,.58-2,0.63-3a0.29,0.29,0,0,0-.12-0.55c-3.21-.27-7.12,2.45-9.25,4.49A7.82,7.82,0,0,0,46.61,145,10.29,10.29,0,0,0,49.18,148,8.57,8.57,0,0,0,52.62,150c3,0.84,6.11.06,8.83-1.18A28.5,28.5,0,0,0,65.4,146.76Z" transform="translate(-33.87 -38.16)"/><path class="cls-1" d="M48.32,145.18q-0.26-.52-0.48-1.09a5.49,5.49,0,0,1-.32-2.9,10.44,10.44,0,0,1,3-5.22c2.79-2.67,6.74-5.25,10.83-4.61,0.35,0.05-.66,4.13-0.77,4.45a17,17,0,0,0-.51,1.66,22,22,0,0,1,4.86.81l0.72,0.2-0.31.68-0.39.87a30.27,30.27,0,0,1-1.76,3.51,32.65,32.65,0,0,1,5.56,1.58l0.94,0.36-0.74.69a11.81,11.81,0,0,1-1.19,1,22.89,22.89,0,0,1-4,2.21c-3.45,1.57-6.56,2-9.27,1.21a9.17,9.17,0,0,1-3.69-2.09A11,11,0,0,1,48.32,145.18ZM60,132.64c-2.75,0-5.66,1.39-8.64,4.24a7.15,7.15,0,0,0-1.94,8.19,10.47,10.47,0,0,0,2.05,2.6c3.13,3.23,8,2.23,11.75.54A21.71,21.71,0,0,0,67,146.13l0.26-.2A31.67,31.67,0,0,0,62,144.62l-1.05-.17,0.65-.84a21.1,21.1,0,0,0,2.18-4.09l0.09-.19a16.85,16.85,0,0,0-4.51-.57l-0.73,0,0.06-.73a11.64,11.64,0,0,1,.68-2.66A9,9,0,0,0,60,132.64Z" transform="translate(-33.87 -38.16)"/><path class="cls-2" d="M78.14,84.82a9.66,9.66,0,0,0-3.59,4.41c-0.19.43-1.55,6-.7,5.83,3.48-.54,6.57-0.77,9.45-3.07S88,86.28,90,83.2c-0.72-.1-1.44-0.21-2.16-0.26C84.29,82.72,80.81,83.06,78.14,84.82Z" transform="translate(-33.87 -38.16)"/><path class="cls-1" d="M88.47,86.14a39.36,39.36,0,0,0-6.9-1.89c-5.48-.8-9,6.75-9,11.21,3.93,1.3,8.47.36,12.13-1.24a30,30,0,0,0,5.47-3.06c0.26-.19,4.34-3.22,3.92-3.43C92.43,86.9,90.25,86.74,88.47,86.14Zm2.76,2.55c-0.68.3-1.37,0.56-2.06,0.85-2.52,1.08-4.36,3.24-6.86,4.3s-6.07.69-8.82,0.81c0.61-2.59,1.14-5.26,3.35-7a9,9,0,0,1,6.91-1.41C86.32,86.87,88.73,87.88,91.23,88.69Z" transform="translate(-33.87 -38.16)"/><path class="cls-3" d="M69.11,54.17a7.17,7.17,0,0,0-.65-0.4,4.08,4.08,0,0,0-.09,2.53c0.07,0.55.16,1.09,0.26,1.64,0,0.22.07,0.46,0.12,0.7a13.08,13.08,0,0,0-2-.39,3.85,3.85,0,0,0-1.93-.07,0.26,0.26,0,0,0-.29.18,2,2,0,0,0,.24,1.06c0.17,0.53.33,1.06,0.47,1.6a11.27,11.27,0,0,0,.28,1.11,6.56,6.56,0,0,0-1.84.3c-0.68.16-1.5,0.16-2.15,0.38a0.21,0.21,0,0,0-.33.23c0.69,2.22,3.58,4.1,5.52,5A5.65,5.65,0,0,0,73,67.23a7.44,7.44,0,0,0,1.37-2.56,6.18,6.18,0,0,0,.37-2.83,9.41,9.41,0,0,0-3.19-5.59A20.46,20.46,0,0,0,69.11,54.17Z" transform="translate(-33.87 -38.16)"/></svg>