<svg id="WW_CornerVines_1C_CMYK" xmlns="http://www.w3.org/2000/svg" viewBox="0 0 87.05 111.37"><defs><style>.cls-1{fill:#e8247f;}</style></defs><title>Corner_Vines_3</title><path class="cls-1" d="M197.24,115a10.25,10.25,0,0,0,3.71,4.75c0.4,0.29,5.8,3,5.86,2.1,0.26-3.73.75-7-.94-10.48s-4.79-6.21-7.5-9c-0.27.72-.56,1.43-0.77,2.17C196.52,108.13,196.05,111.8,197.24,115Z" transform="translate(-148.51 -36.72)"/><path class="cls-1" d="M177.55,64.9a12.07,12.07,0,0,0-.91,7c0.09,0.58,2.27,7.35,3.09,6.66,3.34-2.87,6.47-5.14,8-9.47S189,60,189.09,55.38c-0.83.36-1.67,0.72-2.46,1.15C182.69,58.63,179.23,61.28,177.55,64.9Z" transform="translate(-148.51 -36.72)"/><path class="cls-1" d="M149.56,45.88a9.07,9.07,0,0,0-.93.14,5,5,0,0,0,1.91,2.47c0.49,0.46,1,.91,1.54,1.35,0.21,0.17.42,0.38,0.66,0.56a15.92,15.92,0,0,0-2.2,1.22,4.76,4.76,0,0,0-1.88,1.47,0.32,0.32,0,0,0-.13.4,2.47,2.47,0,0,0,1.07.81c0.58,0.37,1.15.75,1.71,1.15,0.14,0.09.65,0.53,1.14,0.83a8.07,8.07,0,0,0-1.5,1.74c-0.52.69-1.29,1.33-1.73,2.06a0.26,0.26,0,0,0-.14.48c2.41,1.55,6.62,1,9.15.33a7,7,0,0,0,5.35-5.72,9.17,9.17,0,0,0-.73-3.51,7.62,7.62,0,0,0-1.89-3,11.61,11.61,0,0,0-7.43-2.76A25.22,25.22,0,0,0,149.56,45.88Z" transform="translate(-148.51 -36.72)"/><path class="cls-1" d="M231.72,124.87a27.32,27.32,0,0,0-2.58-4.3,34.76,34.76,0,0,0-2.74-3.1l-0.57-.6c-2.17-2.23-4.5-4.39-7.11-6.6a96.17,96.17,0,0,0-7.78-5.83,64.66,64.66,0,0,0-8.5-4.92,81.08,81.08,0,0,1-8.12-4.43,71.6,71.6,0,0,1-7.42-5.38,53,53,0,0,1-6.47-6.43,52.08,52.08,0,0,1-5.28-7.42c-0.79-1.36-1.46-2.64-2.11-4s-1.17-2.77-1.65-4.2a37.09,37.09,0,0,1-1.77-8.93,32.68,32.68,0,0,1,.46-9.14,25.69,25.69,0,0,1,3.25-8.64,22,22,0,0,1,3.27-4.19l-0.49.36a21.75,21.75,0,0,0-3.47,3.34A25.57,25.57,0,0,0,168.06,49a34.89,34.89,0,0,0-1.48,9.76,40.49,40.49,0,0,0,1.22,9.85,34.23,34.23,0,0,0,1.55,4.76c0.61,1.51,1.34,3.06,2.1,4.5a47.7,47.7,0,0,0,5.45,8.3,59,59,0,0,0,14.91,12.93,72.51,72.51,0,0,0,8.68,4.55,70.37,70.37,0,0,1,8.15,4.34c2.39,1.46,4.83,3.14,7.7,5.28,2.62,1.94,5.06,3.93,7.26,5.91l0.11,0.1c1.12,1,2.27,2.08,3.18,3.08a24.71,24.71,0,0,1,2.64,3.67,41.16,41.16,0,0,1,3.73,8.47,32.33,32.33,0,0,1,1.56,9.21,17,17,0,0,1-.51,4.35,16.32,16.32,0,0,0,1.08-4.31,30.25,30.25,0,0,0-.53-9.66A38.2,38.2,0,0,0,231.72,124.87Z" transform="translate(-148.51 -36.72)"/><path class="cls-1" d="M198.39,77.7a23.52,23.52,0,0,0-17.84.42,8.78,8.78,0,0,0-2.38,1.45c2.5,1.95,7.17,3.88,10.36,3.69,4-.24,8.49-2.07,10.77-4.77C199,78.37,198.66,77.81,198.39,77.7Z" transform="translate(-148.51 -36.72)"/></svg>