<svg id="WW_CornerVines_PMS" xmlns="http://www.w3.org/2000/svg" viewBox="0 0 67.91 162.24"><defs><style>.cls-1{fill:#69b94c;}.cls-2{fill:#644130;}.cls-3{fill:#e8247f;}</style></defs><title>Corner_Vines_4</title><path class="cls-1" d="M316,123.57l-0.82.2c1.09,2.28,2.12,5.17,3.84,7.06a12.21,12.21,0,0,0,5,3.53c4.5,1.55,10.47-.18,13.77-2.71-0.32-.41-0.58-1.48-0.95-1.87a24,24,0,0,0-9.56-5.74A21.26,21.26,0,0,0,316,123.57Z" transform="translate(-292.15 -20.59)"/><path class="cls-2" d="M324.38,133.4a19,19,0,0,0,4.82.13c0.43,0,5.89-.35,6.88-1a0.19,0.19,0,0,0,.13,0c0.39-.3-0.4-1.74-0.55-2a22.25,22.25,0,0,0-1.79-3.34,18.05,18.05,0,0,0-6.39-5.42,36,36,0,0,0-7.46-2.3c-2.09-.45-4.25-0.67-6.37-1,1,2.57,1.74,5.27,2.8,7.83,0.05,0.13.11,0.27,0.16,0.39A12.86,12.86,0,0,0,324.38,133.4Zm-1.24-2.24c-1.35-.9-3.3-2.28-4.1-3.71a29.32,29.32,0,0,1-2.75-7.34c1.64,0.45,3.43.41,5.11,0.83a23,23,0,0,1,5.6,2.11,13.4,13.4,0,0,1,4.19,3.24,21.23,21.23,0,0,0,1.83,2.31,13.31,13.31,0,0,1,1.82,2.78c-2.27.13-4.53,0.53-6.78,0.78a8.16,8.16,0,0,1-4-.52A5.73,5.73,0,0,1,323.14,131.16Z" transform="translate(-292.15 -20.59)"/><path class="cls-1" d="M315,100.7a10.28,10.28,0,0,0,2.48-5.47c0.07-.5,0-6.52-0.84-6.15-3.41,1.49-6.51,2.55-8.84,5.67s-3.28,7.1-4.5,10.79c0.76-.09,1.53-0.17,2.28-0.32C309.28,104.49,312.73,103.21,315,100.7Z" transform="translate(-292.15 -20.59)"/><path class="cls-3" d="M359.7,122.18c0.13-.23.25-0.46,0.36-0.69a4.14,4.14,0,0,0-2.57.09c-0.55.1-1.1,0.24-1.64,0.38-0.21.06-.45,0.1-0.69,0.17a14,14,0,0,0,.25-2,3.91,3.91,0,0,0-.07-2,0.27,0.27,0,0,0-.2-0.28,2,2,0,0,0-1.06.32c-0.52.22-1.05,0.4-1.59,0.59-0.12,0-.66.17-1.1,0.36a6.43,6.43,0,0,0-.44-1.84,21,21,0,0,0-.54-2.15,0.22,0.22,0,0,0-.25-0.33c-2.2.86-3.9,3.92-4.64,5.95a5.72,5.72,0,0,0,1.23,6.33,7.46,7.46,0,0,0,2.7,1.21,6.2,6.2,0,0,0,2.89.17,9.58,9.58,0,0,0,5.44-3.62A20.56,20.56,0,0,0,359.7,122.18Z" transform="translate(-292.15 -20.59)"/><path class="cls-3" d="M354.15,144a5.17,5.17,0,0,0,.53-0.12,2.91,2.91,0,0,0-1.22-1.32c-0.31-.24-0.63-0.47-0.95-0.7-0.13-.09-0.27-0.2-0.41-0.29a8.52,8.52,0,0,0,1.2-.81,2.74,2.74,0,0,0,1-.94,0.18,0.18,0,0,0,.06-0.23,1.39,1.39,0,0,0-.65-0.41c-0.35-.18-0.7-0.38-1-0.58-0.08,0-.4-0.27-0.7-0.42a4.83,4.83,0,0,0,.78-1.07,15.12,15.12,0,0,0,.89-1.27,0.15,0.15,0,0,0,.06-0.28c-1.46-.77-3.85-0.27-5.28.26a4,4,0,0,0-2.79,3.55,5.2,5.2,0,0,0,.59,2,4.48,4.48,0,0,0,1.23,1.61,6.72,6.72,0,0,0,4.41,1.22A14.9,14.9,0,0,0,354.15,144Z" transform="translate(-292.15 -20.59)"/><path class="cls-3" d="M319.49,48.94a6.2,6.2,0,0,0-.35-0.65,4,4,0,0,0-1.33,2.08c-0.21.5-.41,1-0.59,1.51-0.07.2-.17,0.42-0.24,0.64a13.39,13.39,0,0,0-1.51-1.31,3.77,3.77,0,0,0-1.59-1,0.26,0.26,0,0,0-.33,0,2,2,0,0,0-.32,1c-0.11.54-.25,1.07-0.39,1.59a8.87,8.87,0,0,0-.32,1.07,6.24,6.24,0,0,0-1.69-.65c-0.66-.21-1.34-0.61-2-0.75a0.21,0.21,0,0,0-.4,0c-0.51,2.22,1,5.22,2.2,6.91a5.54,5.54,0,0,0,5.71,2.46,7.5,7.5,0,0,0,2.42-1.49,6.08,6.08,0,0,0,1.7-2.2,9.21,9.21,0,0,0,.07-6.29A21,21,0,0,0,319.49,48.94Z" transform="translate(-292.15 -20.59)"/><path class="cls-2" d="M347,20.59a34,34,0,0,0-8.54,6.88,35.7,35.7,0,0,0-5.85,9,44.56,44.56,0,0,0-3.25,10.23,57.75,57.75,0,0,0-1.17,10.69,76.8,76.8,0,0,0,.56,10.75c0.44,3.62,1,7.25,1.66,10.88,1.21,7.26,2.67,14.5,4.12,21.77s2.84,14.56,4.05,21.93c0.58,3.69,1.12,7.37,1.53,11.15a67.9,67.9,0,0,1,.19,11.45,65.77,65.77,0,0,1-1.74,11.31,53,53,0,0,1-4,10.72,39.64,39.64,0,0,1-6.56,9.31,26.45,26.45,0,0,1-8.28,6.15c6.16-4.21,9.82-9.84,12.45-16.55a50,50,0,0,0,2.94-10.37,63.43,63.43,0,0,0,1-10.73,78.17,78.17,0,0,0-.63-10.75c-0.5-3.58-1.14-7.23-1.82-10.84s-1.37-7.25-2.1-10.88l-2.16-10.89c-1.4-7.29-2.78-14.6-3.94-22-0.55-3.7-1-7.42-1.38-11.16A67.08,67.08,0,0,1,324,57.22a61.56,61.56,0,0,1,1.91-11.31,47.48,47.48,0,0,1,4.34-10.62,35.93,35.93,0,0,1,7.14-8.9A30.79,30.79,0,0,1,347,20.59Z" transform="translate(-292.15 -20.59)"/><path class="cls-1" d="M339.61,24.62a42.62,42.62,0,0,1-3,9.83,102.48,102.48,0,0,1-4.53,9.22c-3.23,6-6.84,11.84-9.65,18-0.69,1.54-1.33,3.1-1.88,4.69-0.13.39-.27,0.8-0.39,1.19s-0.25.82-.35,1.21c-0.22.8-.43,1.61-0.6,2.43a39.19,39.19,0,0,0-.8,10,39.86,39.86,0,0,0,5.64,19.19,58.37,58.37,0,0,0,6.25,8c2.26,2.55,4.65,5,6.71,7.76a38.41,38.41,0,0,1,2.85,4.31,33.48,33.48,0,0,1,4.1,14.9,31.32,31.32,0,0,1-6.41,19.52c-0.54.71-1,1.37-1.66,2.06A23.88,23.88,0,0,1,334,158.8a24.94,24.94,0,0,1-4.34,3,8.14,8.14,0,0,1-2.72.94,3.26,3.26,0,0,1-.43,0h-0.16l-0.23,0a3.83,3.83,0,0,1-.8-0.18,4.86,4.86,0,0,1-1.39-.71,5.09,5.09,0,0,1-1.83-2.47,3.52,3.52,0,0,1-.14-1.69,3.13,3.13,0,0,1,.78-1.6l0.28-.31,0.42,0a5.66,5.66,0,0,1,4.17,2.24,7.56,7.56,0,0,1,1.59,4.32,5.84,5.84,0,0,1-.06,1.17l0,0.15,0,0.15-0.05.26c-0.05.21-.1,0.4-0.16,0.58a11,11,0,0,1-.89,2,17.48,17.48,0,0,1-2.57,3.46,15.52,15.52,0,0,1-3.35,2.76,16.49,16.49,0,0,1-4,1.63,18,18,0,0,1-8.5,0,24.8,24.8,0,0,1-7.72-3.32,20.71,20.71,0,0,1-9.31-21.68l0.17,0a20.63,20.63,0,0,0,3.86,15.3,19.44,19.44,0,0,0,5.94,5.28,23.7,23.7,0,0,0,7.37,3,16.47,16.47,0,0,0,7.77-.17,14.5,14.5,0,0,0,3.55-1.53,14.19,14.19,0,0,0,3-2.47,16.12,16.12,0,0,0,2.3-3.13,6.58,6.58,0,0,0,1-3.44,5.75,5.75,0,0,0-1.22-3.27,3.84,3.84,0,0,0-2.83-1.54l0.71-.3a1.49,1.49,0,0,0-.25,1.51,3.23,3.23,0,0,0,1.16,1.58,2.67,2.67,0,0,0,1.77.59,6.44,6.44,0,0,0,2.09-.73,23.19,23.19,0,0,0,4.06-2.77,21.78,21.78,0,0,0,1.8-1.68c0.52-.57,1.07-1.26,1.57-1.91a33.09,33.09,0,0,0,4.79-8.74,29.64,29.64,0,0,0,1.74-9.82,30.76,30.76,0,0,0-1.6-9.91,31.69,31.69,0,0,0-1.95-4.67,33.41,33.41,0,0,0-2.72-4.27c-2-2.72-4.34-5.24-6.64-7.76a59.38,59.38,0,0,1-6.42-8,40.82,40.82,0,0,1-6.47-19.48,39.79,39.79,0,0,1,.7-10.38,42.67,42.67,0,0,1,3.39-9.82c2.94-6.25,6.6-12,10-17.91,1.71-2.94,3.34-5.93,4.81-9a46.37,46.37,0,0,0,3.45-9.58Z" transform="translate(-292.15 -20.59)"/><path class="cls-1" d="M351.19,53.37C347.31,59.08,338,63.91,329.39,61c3.92-11.65,13.86-6.88,21.8-7.62" transform="translate(-292.15 -20.59)"/><path class="cls-2" d="M337.22,60.74a23.85,23.85,0,0,0,8.88-5.13c1.52-1.51,3.61-3.49,4-5.7-2.68,1-6,1-8.83.83A14.38,14.38,0,0,0,334,52.06c-2.69,1.5-3.76,4.44-4.86,7.13-0.32.8-1,1.42-1.27,2.21a5.44,5.44,0,0,0,1,.4C331.5,62.61,334.83,61.61,337.22,60.74Zm-7-.32c1.4-2.58,1.83-5.67,4.78-7.06,2.17-1,4.67-.71,7-0.84,1.79-.1,4-0.57,5.69-0.27-2.14,2-4.36,4.51-7.26,5.44-2.31.73-4.62,1.47-6.91,2.24C333.3,60,330,60.93,330.23,60.43Z" transform="translate(-292.15 -20.59)"/></svg>