<?xml version="1.0" encoding="utf-8"?>
<!-- Generator: Adobe Illustrator 19.2.1, SVG Export Plug-In . SVG Version: 6.00 Build 0)  -->
<svg version="1.1" id="WW_Frames_CMYK" xmlns="http://www.w3.org/2000/svg" xmlns:xlink="http://www.w3.org/1999/xlink" x="0px"
	 y="0px" viewBox="0 0 308.98 214.17" style="enable-background:new 0 0 308.98 214.17;" xml:space="preserve">
<style type="text/css">
	.st0{fill:#F4F2E7;}
	.st1{opacity:0.9;}
	.st2{fill:#EBE3DF;}
	.st3{fill:#D3C6BC;}
	.st4{opacity:0.9;fill:#D3C6BC;enable-background:new    ;}
	.st5{opacity:0.9;fill:#DACEC6;enable-background:new    ;}
	.st6{opacity:0.9;fill:#D9CDC4;enable-background:new    ;}
	.st7{opacity:0.9;fill:#E7DFDA;enable-background:new    ;}
	.st8{fill:#DED3CB;}
	.st9{opacity:0.9;fill:#E3DAD4;enable-background:new    ;}
	.st10{fill:#DCD0C8;}
	.st11{fill:#D9CDC4;}
	.st12{fill:#F1EBE8;}
	.st13{fill:#E6DED9;}
	.st14{fill:#E7DFDA;}
	.st15{fill:#69B94C;}
	.st16{fill:#644130;}
	.st17{fill:#E8247F;}
</style>
<path class="st0" d="M294.49,43.18c-1.16-10-2.87-20.82-10-28c-8.21-8.26-19.08-10.34-30.72-10.83
	C191.86,1.75,123.23,1.03,92.3,0.47C55.16-0.18,17.16-1.82,15.71,9.34c-0.54,4-0.43,19.69-0.67,26.21c-1.33,36.22-3.76,84.7-2,123.2
	c0.44,9.69-5.08,35.17,6.08,44.85c11.16,9.68,34.54,9.28,49,9.28c45.39,0,123.13,3.61,194.4-1.15c9.89-0.66,20.37-1.69,28.24-7.71
	c3.36-2.57,5-19.93,5.83-40.41C296.56,163.6,299,82.34,294.49,43.18z"/>
<g class="st1">
	<path class="st2" d="M136,207.51c-1.39-0.25-2.76-0.58-4.1-1l-9.37-0.46l-4.19-0.2C124.35,206.33,130.21,206.94,136,207.51z"/>
	<path class="st2" d="M197.84,211.65c-7.26-0.75-22.48-0.88-36.75-1.66C173.65,210.95,185.97,211.56,197.84,211.65z"/>
	<path class="st2" d="M243.09,204.33c-1.29-0.05-2.55-0.13-3.78-0.22c-6.63,0.47-13.24,0.86-19.85,1.21l4.21,0.12l9.71-0.5
		L243.09,204.33z"/>
	<path class="st2" d="M136.8,205.91c15.67,0.54,32.59,1.69,49.11,2.09s32.6,0.14,46.4-1.63c-4.33-0.3-9-0.45-13.8-0.7
		c-14.05,0.59-28.1,0.83-42.15,0.72c-8.45,0-16.91-0.25-25.36-0.57c-7.27-0.27-14.54-0.61-21.79-1c0.28,0.61,1.2,1.17,2.7,1.67
		l17.25,0.77C145.16,206.76,141.16,206.31,136.8,205.91z"/>
	<path class="st2" d="M215.3,205.53c-13,0.61-26,0.92-38.95,0.87c14.04,0.12,28.09-0.12,42.15-0.72L215.3,205.53z"/>
	<path class="st2" d="M180.23,210.29c-11.34-0.4-20.88-1.8-31-3l-17.28-0.76c1.34,0.42,2.71,0.75,4.1,1
		C150.69,208.99,165.01,210.45,180.23,210.29z"/>
	<path class="st2" d="M161.08,209.99c-7.24-0.57-14.57-1.22-21.95-2C145.03,208.92,152.9,209.53,161.08,209.99z"/>
	<path class="st2" d="M150.99,205.82c8.45,0.32,16.91,0.55,25.36,0.57C167.9,206.34,159.44,206.11,150.99,205.82z"/>
	<path class="st2" d="M263.32,202.73c-1.91,0.12-3.82,0.17-5.78,0.21l-11.23,0.7l-2.9,0.19l-4.09,0.28
		c1.22,0.09,2.48,0.17,3.78,0.22l10.18-0.73C256.67,203.36,260.05,203.12,263.32,202.73z"/>
	<path class="st2" d="M286.37,194.1c-0.31,0.79-0.67,1.6-1.05,2.36c-0.28,0.95-0.81,1.82-1.52,2.51l-1.25,0.89
		c-0.43,0.28-0.88,0.54-1.31,0.82c-1.79,1.04-3.69,1.89-5.65,2.55c2.4-0.72,4.69-1.75,6.83-3.05c0.53-0.33,1-0.7,1.56-1
		c0.48-0.4,0.86-0.9,1.12-1.47C285.65,196.55,286.07,195.34,286.37,194.1z"/>
	<path class="st2" d="M129.1,204.61c0.02,0.08,0.05,0.15,0.09,0.22c7.25,0.39,14.52,0.73,21.79,1
		C143.69,205.52,136.4,205.12,129.1,204.61z"/>
	<path class="st2" d="M285.31,196.46c0.65-1.94,1.14-3.92,1.45-5.94c0.35-2,0.62-4.06,0.85-6.1c0.45-4.08,0.75-8.19,1-12.29
		c0.46-8.21,0.64-16.42,0.71-24.64c-0.47,7.48-1,15-1.73,22.47c-0.36,3.75-0.76,7.52-1.25,11.28c-0.45,3.75-1.09,7.48-1.92,11.16
		c-0.24,1.07-0.55,2.11-0.93,3.14c-0.16,0.44-0.36,0.86-0.59,1.27c-0.13,0.24-0.33,0.44-0.56,0.59l-0.62,0.41
		c-0.23,0.15-0.44,0.31-0.68,0.43c-0.48,0.26-0.93,0.55-1.42,0.79c-0.97,0.49-1.97,0.93-3,1.3c-4.29,1.43-8.75,2.24-13.27,2.39
		c-3.27,0.39-6.65,0.62-10.05,0.87l-10.18,0.73c3.43,0.15,7.08,0.13,10.85,0.09s7.63-0.14,11.44-0.47c3.77-0.28,7.5-0.97,11.12-2.06
		c1.76-0.53,3.46-1.23,5.09-2.07c0.41-0.2,0.8-0.41,1.19-0.65c0.37-0.2,0.73-0.42,1.08-0.66
		C284.49,197.92,284.97,197.23,285.31,196.46z"/>
	<path class="st2" d="M223.68,205.45c-1.72,0.1-3.45,0.15-5.17,0.22c4.79,0.25,9.47,0.4,13.8,0.7c-13.8,1.78-29.89,2.06-46.4,1.63
		s-33.44-1.55-49.11-2.09c4.32,0.4,8.4,0.85,12.38,1.35c10.71,0.41,21.38,0.71,32,0.88c10.62,0.17,21.21,0.13,31.78-0.12
		c10.56-0.21,21.08-0.63,31.57-1.15c5.24-0.3,10.48-0.57,15.7-0.93c5.21-0.26,10.36-1.16,15.34-2.7c-4.2,1.21-8.53,1.9-12.9,2.07
		c-4.35,0.24-8.73,0.25-13.09,0.32C240.89,205.73,232.24,205.65,223.68,205.45z"/>
	<path class="st2" d="M243.09,204.33l-9.71,0.61l-9.71,0.5c8.56,0.2,17.21,0.28,25.93,0.17c4.35-0.07,8.74-0.08,13.09-0.32
		c4.37-0.17,8.7-0.86,12.9-2.07c1.96-0.66,3.86-1.51,5.65-2.55c0.44-0.27,0.88-0.53,1.31-0.82l1.25-0.89
		c0.71-0.69,1.24-1.56,1.52-2.51c-0.35,0.75-0.84,1.43-1.45,2c-0.35,0.24-0.71,0.46-1.08,0.66c-0.39,0.24-0.78,0.45-1.19,0.65
		c-1.63,0.84-3.33,1.54-5.09,2.07c-3.62,1.09-7.35,1.78-11.12,2.06c-3.81,0.34-7.66,0.43-11.44,0.47S246.53,204.48,243.09,204.33z"
		/>
	<path class="st2" d="M223.68,205.45l-4.21-0.12l-4.17,0.2l3.21,0.15C220.23,205.6,221.95,205.54,223.68,205.45z"/>
	<path class="st2" d="M115.94,205.64l2.41,0.2l4.19,0.2l9.37,0.46c-1.5-0.5-2.43-1.06-2.7-1.67c-7.93-0.43-15.83-0.92-23.72-1.46
		l-11.81-0.83l-5.9-0.44c-1.94-0.15-4-0.29-6-0.39s-4.13,0.11-6.08,0.21c3.35,0.18,6.71,0.37,10.12,0.67l10,1L115.94,205.64z"/>
	<path class="st2" d="M219.47,205.32l-3.26-0.11l-4.67,0.15l3.76,0.16L219.47,205.32z"/>
	<path class="st2" d="M243.41,203.82l-4.27,0.27h0.19L243.41,203.82z"/>
	<path class="st2" d="M239.32,204.11h-0.16c-3.78,0.25-7.58,0.46-11.4,0.64s-7.66,0.34-11.53,0.48l3.26,0.11
		C226.08,204.98,232.69,204.59,239.32,204.11z"/>
	<path class="st2" d="M129.1,204.61c7.29,0.51,14.59,0.92,21.89,1.22c8.44,0.28,16.9,0.52,25.36,0.57c13,0.06,26-0.26,38.95-0.87
		l-3.76-0.16c-9.67,0.23-19.57,0.28-29.91,0c-23.66-0.12-41.74-0.57-64.75-2.24l-16.72-0.88c-3-0.15-6.12-0.29-9.2-0.39l-4.59-0.13
		c-1.56,0-3.09,0-4.58,0c2,0.1,4,0.24,6,0.39l5.9,0.44l11.81,0.83c7.87,0.53,15.76,1,23.66,1.43
		C129.13,204.75,129.11,204.68,129.1,204.61z"/>
	<path class="st2" d="M21.74,194.32c0.29,0.74,0.63,1.47,1,2.18c0.41,0.71,0.89,1.38,1.43,2c1.05,1.26,2.44,2.2,4,2.71
		c1.51,0.51,3.06,0.89,4.63,1.14c1.56,0.28,3.13,0.49,4.7,0.66c6.29,0.68,12.62,0.89,19,1c12.66,0.3,25.43,0,38.25,0.74l-9.39-1.08
		c-3.16-0.34-6.29-0.61-9.43-0.89c-6.27-0.54-12.52-1.08-18.76-1.73l-8.94-0.46c-2.16,0.31-4.35,0.37-6.53,0.19
		c-2.94-0.39-5.85-0.93-8.73-1.62c-1.4-0.22-2.78-0.55-4.12-1c-0.52-0.16-1.01-0.41-1.44-0.75c-0.24-0.15-0.47-0.32-0.68-0.52
		l-0.63-0.64c-1.67-2.2-2.85-4.73-3.45-7.43c-1.49-5.77-2-12-2.67-17.95c-0.13,4-0.26,7.9-0.1,11.84
		C19.92,186.65,20.55,190.56,21.74,194.32z"/>
	<path class="st2" d="M61.91,201.27l-9.91-1l-1.26,0.11c2.14,0.26,4.27,0.5,6.42,0.72L61.91,201.27z"/>
	<path class="st2" d="M20.36,158.82l-0.39,12c0.7,6,1.18,12.18,2.67,17.95c0.59,2.72,1.77,5.27,3.45,7.49l0.63,0.64
		c0.21,0.2,0.44,0.37,0.68,0.52c0.43,0.34,0.92,0.59,1.44,0.75c1.34,0.45,2.72,0.78,4.12,1c-1.09-0.26-2.17-0.6-3.22-1
		c-0.44-0.17-0.86-0.36-1.27-0.59c-0.14-0.11-0.28-0.17-0.42-0.3l-0.43-0.46c-1.28-1.38-2.18-3.06-2.62-4.89
		c-1.17-4.14-1.43-9.11-1.48-14.61c-0.34-6.12-2.5-8.86-2.21-14.42c1-19.59,3.8-44.17,2.43-64.33c0-14,0.14-30.1-0.21-45.62
		s-1.17-30.49-2.59-42.27c1.47,29,1.29,55.08,0.9,79.34L20.36,158.82z"/>
	<path class="st2" d="M50.74,200.34l-2.52,0.26l8.94,0.45C55.01,200.82,52.88,200.59,50.74,200.34z"/>
	<path class="st2" d="M263.32,202.73c3.82-0.38,7.59-1.18,11.24-2.4c-5.25,1.73-11.09,2.22-17,2.62
		C259.5,202.9,261.41,202.82,263.32,202.73z"/>
	<path class="st2" d="M114.88,205.67l2.41,0.12l-1.36-0.14l-2.13-0.17L114.88,205.67z"/>
	<path class="st2" d="M147.38,209.82c-12.16-1-22.67-2.31-32.5-4.1l-20.14-0.92C111.91,206.71,129.28,208.54,147.38,209.82z"/>
	<path class="st2" d="M113.81,205.48l2.13,0.17l-20-2.08l-10-1c-3.41-0.3-6.76-0.49-10.12-0.67l-1.44,0.08
		c-4.14,0.01-8.27-0.24-12.38-0.73l-4.84-0.2c6.24,0.65,12.49,1.18,18.76,1.73c3.14,0.28,6.27,0.54,9.43,0.89l9.39,1.08l20.14,0.92
		L113.81,205.48z"/>
	<path class="st2" d="M139.16,208.04c-1.11-0.17-2.17-0.34-3.13-0.52c-5.79-0.58-11.65-1.18-17.65-1.68l-1.05-0.05L139.16,208.04z"
		/>
	<path class="st2" d="M118.35,205.82l-2.41-0.2l1.36,0.14L118.35,205.82z"/>
	<path class="st2" d="M285.31,196.46c0.38-0.77,0.74-1.57,1.05-2.36c-0.3,1.23-0.73,2.42-1.27,3.56c-0.26,0.57-0.64,1.07-1.12,1.47
		c-0.51,0.34-1,0.71-1.56,1c-2.14,1.3-4.43,2.33-6.83,3.05c-4.98,1.54-10.13,2.44-15.34,2.7c-5.22,0.37-10.46,0.63-15.7,0.93
		c-10.49,0.52-21,0.94-31.57,1.15s-21.15,0.25-31.78,0.12s-21.3-0.46-32-0.88c10.16,1.23,19.71,2.64,31,3
		c-15.21,0.16-29.54-1.3-44.22-2.78c1,0.18,2,0.36,3.13,0.52c7.38,0.73,14.71,1.38,21.95,2c14.28,0.78,29.5,0.91,36.75,1.66
		c-11.87-0.09-24.18-0.7-36.75-1.66c-8.18-0.46-16.05-1.07-21.95-2l-21.8-2.12l-2.41-0.12c9.83,1.79,20.34,3.09,32.5,4.1
		c-18.1-1.23-35.47-3.06-52.64-5c-12.82-0.77-25.59-0.44-38.25-0.74c-6.33-0.15-12.66-0.36-19-1c-1.57-0.17-3.14-0.38-4.7-0.66
		c-1.58-0.28-3.13-0.69-4.64-1.23c-1.56-0.51-2.95-1.45-4-2.71c-0.54-0.62-1.02-1.29-1.43-2c-0.37-0.71-0.71-1.44-1-2.18
		c0.78,2.42,2.26,4.55,4.26,6.12c1.07,0.69,2.24,1.21,3.47,1.56c1.18,0.39,2.38,0.66,3.58,0.92c4.78,0.94,9.61,1.6,14.46,2
		c9.66,0.86,19.34,1.26,29,1.69l7.26,0.37l7.28,0.52l14.73,1c9.88,0.66,19.88,1.27,30.07,1.74c8.4,0.78,17.49,0.92,26.57,1
		c12.56-0.28,25.28,1.58,37.86,0.8c12.4-0.64,25-1.37,37.61-2.18l19.05-1.24c6.37-0.45,13-0.91,19.43-3c1.63-0.54,3.21-1.21,4.73-2
		l1.15-0.6l1.12-0.67c0.38-0.21,0.73-0.46,1.09-0.71l0.54-0.37c0.24-0.16,0.47-0.34,0.68-0.54c0.23-0.19,0.44-0.42,0.62-0.66
		c0.2-0.24,0.38-0.49,0.53-0.76c0.14-0.23,0.27-0.46,0.38-0.7c0.11-0.22,0.23-0.45,0.31-0.67c0.35-0.83,0.64-1.68,0.89-2.54
		c0.48-1.66,0.82-3.29,1.13-4.91c1.18-6.49,1.81-12.91,2.4-19.33c1.12-12.83,1.85-25.6,2.56-38.25c0.47-8.43-0.81-18.84-2.16-29.21
		c-0.24-2.18-0.72-4.32-1.44-6.39c-0.06,17.24-0.63,33.75-1.65,50.2c-0.06,8.21-0.25,16.43-0.71,24.64c-0.23,4.1-0.53,8.2-1,12.29
		c-0.23,2-0.5,4.08-0.85,6.1C286.39,192.52,285.93,194.52,285.31,196.46z"/>
	<path class="st2" d="M284.41,192.4c0.83-3.68,1.47-7.41,1.92-11.16c0.49-3.76,0.89-7.53,1.25-11.28c0.71-7.51,1.26-15,1.73-22.47
		c0.13-17.71-0.37-35.39-1.1-53.12c-0.64,0.23-1.16,1.21-1.41,2.77c-2.59,5.81,0.9,21.56,0.84,33.43c-0.07,12.91-0.42,26-1.32,39.11
		c-0.48,6.52-1,13.09-2.13,19.37c-0.28,1.56-0.6,3.11-1,4.54c-0.18,0.68-0.4,1.35-0.66,2c-0.11,0.26-0.23,0.52-0.36,0.77l-0.1,0.15
		c-0.03,0.04-0.07,0.08-0.11,0.12c-0.16,0.13-0.33,0.25-0.51,0.36c-0.3,0.2-0.58,0.42-0.9,0.6c-0.62,0.37-1.24,0.74-1.9,1.06
		c-1.32,0.67-2.68,1.23-4.09,1.67c-3.65,1.22-7.42,2.02-11.24,2.4c4.52-0.15,8.98-0.96,13.27-2.39c1.03-0.37,2.03-0.81,3-1.3
		c0.49-0.23,0.94-0.53,1.42-0.79c0.24-0.13,0.46-0.29,0.68-0.43l0.62-0.41c0.23-0.15,0.43-0.35,0.56-0.59
		c0.23-0.41,0.43-0.83,0.59-1.27C283.85,194.52,284.16,193.47,284.41,192.4z"/>
	<path class="st2" d="M290.95,97.3c-0.89-2.34-1.92-3.25-2.76-2.92c0.73,17.73,1.24,35.41,1.1,53.12
		C290.32,131.05,290.89,114.54,290.95,97.3z"/>
	<path class="st3" d="M243.28,204.34h-0.12h-0.38H243.28z"/>
	<path class="st3" d="M150.99,205.82c8.45,0.32,16.91,0.55,25.36,0.57C167.9,206.34,159.44,206.11,150.99,205.82z"/>
	<path class="st3" d="M258.67,202.92l-11.18,0.7l-1.51,0.11l-0.9,0.22h2.78c-1.66,0.18-3.22,0.29-4.64,0.41l10.12-0.72
		c3.38-0.25,6.73-0.48,10-0.87C261.79,202.82,260.22,202.87,258.67,202.92z"/>
	<path class="st3" d="M84.36,201.82h-0.85l0.91,0.06C84.42,201.88,84.37,201.82,84.36,201.82z"/>
	<path class="st3" d="M89.69,201.9h-0.58c0.08,0.14,0.19,0.25,0.33,0.34l3.14,0.23C91.63,202.32,90.66,202.11,89.69,201.9z"/>
	<path class="st3" d="M286.37,194.1c-0.31,0.79-0.67,1.6-1.05,2.36c-0.28,0.95-0.81,1.82-1.52,2.51l-1.25,0.89
		c-0.43,0.28-0.88,0.54-1.31,0.82c-1.79,1.04-3.69,1.89-5.65,2.55c2.4-0.72,4.69-1.75,6.83-3.05c0.53-0.33,1-0.7,1.56-1
		c0.48-0.4,0.86-0.9,1.12-1.47C285.65,196.55,286.07,195.34,286.37,194.1z"/>
	<path class="st4" d="M129.1,204.61c7.29,0.51,14.59,0.92,21.89,1.22c8.44,0.28,16.9,0.52,25.36,0.57c13,0.06,26-0.26,38.95-0.87
		l-1.66-0.07c-1.88,0.15-3.8,0.25-5.75,0.33l1.72-0.25h-1.67c-5.33,0.12-10.75,0.13-16.29,0.1c-2.55,0.11-5.1,0.06-7.64-0.14h-1.22
		c-11.6,0-21.86-0.18-32-0.48c-0.07,0.15-0.18,0.28-0.32,0.37l-7.17-0.64c-5.71-0.24-11.48-0.52-17.53-0.91
		c-0.84,0.19,2.28,0.76,0.67,0.88h-0.58l3.3,0.1C129.13,204.75,129.11,204.68,129.1,204.61z"/>
	<path class="st3" d="M219.47,205.32l-2.44-0.08h-1.22l-2.17,0.17l1.66,0.07L219.47,205.32z"/>
	<path class="st3" d="M89.4,202.92c8.86,0.85,17.72,1.79,26.53,2.72l2.41,0.2l4.19,0.2l9.37,0.46c-1.5-0.5-2.43-1.06-2.7-1.67
		l-3.34-0.19c-1.11,0-2-0.07-2.8-0.16c-9.45-0.55-18.88-1.18-28.29-1.87c-0.74,0.01-1.47-0.05-2.2-0.16l-3.14-0.23
		C89.78,202.51,90.16,202.82,89.4,202.92z"/>
	<path class="st3" d="M20.58,133.33v0.36c0,0.14,0,0.29,0,0.43V133.33z"/>
	<path class="st5" d="M21.5,193.68c0.54,1.54,1.31,2.99,2.28,4.3c0.51,0.64,1.09,1.22,1.74,1.73c0.63,0.54,1.35,0.95,2.12,1.24
		c3.04,1.04,6.2,1.71,9.4,2c6.35,0.71,12.73,0.94,19.12,1.09c12.76,0.31,25.64,0,38.58,0.74c-4.71-0.52-9.42-1.14-14.17-1.56
		l-14.15-1.25l-2.12-0.15h0.94l-2.62-0.24c-0.29,0.07-0.47,0.36-0.4,0.65c0,0.02,0.01,0.04,0.01,0.05
		c-2.46-0.47-8.69-0.44-7.67-1.23c0.1-0.07,0.21-0.11,0.32-0.12l-5.15-0.27c-2.28,0.34-4.6,0.42-6.9,0.26l-1-0.14
		c-1.23-0.12-2.46-0.31-3.67-0.56l0,0c-1.08,0.73,4,1.84,2.33,1.86c-4-0.14-6.41-0.71-7.69-1.34c-1.28-0.63-1.43-1.29-1-1.81
		c-1.29-0.22-2.54-0.59-3.74-1.11c-0.23-0.11-0.45-0.25-0.65-0.42c-0.23-0.15-0.46-0.31-0.66-0.5c-0.43-0.4-0.83-0.85-1.17-1.33
		c-1.51-2.28-2.57-4.84-3.12-7.52c-1.35-5.63-1.83-11.61-2.51-17.42c-0.12,3.88-0.26,7.74-0.12,11.59c0.08,1.93,0.18,3.85,0.45,5.76
		C20.5,189.92,20.91,191.82,21.5,193.68z"/>
	<path class="st6" d="M20.54,133.69v-0.36v0.78c0,8.67-0.09,17.3-0.24,25.85l-0.35,10.7c0.67,5.81,1.16,11.78,2.51,17.42
		c0.55,2.68,1.61,5.24,3.12,7.52c0.34,0.48,0.74,0.93,1.17,1.33c0.2,0.19,0.43,0.35,0.66,0.5c0.2,0.17,0.42,0.31,0.65,0.42
		c1.17,0.5,2.4,0.86,3.65,1.07l0.07-0.08c-0.95-0.26-1.87-0.59-2.76-1l-0.54-0.27c-0.13-0.09-0.25-0.17-0.38-0.26
		c-0.26-0.27-0.54-0.5-0.81-0.75c-1.12-1.36-1.92-2.95-2.33-4.66c-1.05-4.4-1.54-8.91-1.47-13.43c-0.23-3-0.4-6.8-0.54-10.56
		c-0.14-3.76-0.19-7.34,0-10.14c1.19-19.57,0.92-32.83-0.44-53c0.93-30.28,1.52-56.83-1-84.45c0.77,17.31,0.65,36.74,0.19,56.28
		S20.55,115.82,20.54,133.69z"/>
	<path class="st3" d="M55.46,200.87l-3.67-0.41l-2.06,0.22l5.15,0.27L55.46,200.87z"/>
	<path class="st3" d="M117.79,203.23l-3.29-0.17c-1.09,0.07-2.18,0.02-3.26-0.17l-8.71-0.46l-0.16,0.12l-0.8-0.17l-4.93-0.23
		c-0.19,0.09-0.37,0.21-0.54,0.34c-0.44,0.08-0.89,0.12-1.34,0.12c9.4,0.67,18.83,1.29,28.29,1.87
		C121.26,204.22,119.5,203.8,117.79,203.23z"/>
	<path class="st3" d="M86.3,202.63c-0.69-0.08-1.34-0.34-1.88-0.77l-0.91-0.06c-2.22,0-4.37,0.09-6.42,0.19
		C80.16,202.16,83.16,202.35,86.3,202.63z"/>
	<path class="st3" d="M57.33,200.76l-4.17-0.42l-1.36,0.12l3.67,0.41C55.97,200.82,56.63,200.82,57.33,200.76z"/>
	<path class="st3" d="M129.1,204.61c0.02,0.08,0.05,0.15,0.09,0.22c7.25,0.39,14.52,0.73,21.79,1
		C143.69,205.52,136.4,205.12,129.1,204.61z"/>
	<path class="st4" d="M275.59,203.22c1.96-0.66,3.86-1.51,5.65-2.55c0.44-0.27,0.88-0.53,1.31-0.82l1.25-0.89
		c0.71-0.69,1.24-1.56,1.52-2.51c-0.35,0.75-0.84,1.43-1.44,2c-0.34,0.24-0.7,0.46-1.07,0.66c-0.38,0.23-0.77,0.45-1.18,0.64
		c-1.62,0.84-3.32,1.53-5.07,2.07c-3.58,1.08-7.27,1.78-11,2.07c-3.79,0.34-7.62,0.44-11.38,0.48c-3.76,0.04-7.39,0.07-10.81-0.07
		c-1.05,0.11-2.22,0.32-3.39,0.52c0.92-0.25,1.85-0.41,2.8-0.49h-0.61l-9.23,0.58l-9.23,0.48c8.56,0.2,17.21,0.28,25.93,0.17
		c4.35-0.07,8.74-0.08,13.09-0.32C267.08,205.09,271.4,204.41,275.59,203.22z"/>
	<path class="st7" d="M285.31,196.46c0.38-0.77,0.74-1.57,1.05-2.36c-0.3,1.23-0.73,2.42-1.27,3.56c-0.26,0.57-0.64,1.07-1.12,1.47
		c-0.51,0.34-1,0.71-1.56,1c-2.14,1.3-4.43,2.33-6.83,3.05c-4.98,1.54-10.13,2.44-15.34,2.7c-5.22,0.37-10.46,0.63-15.7,0.93
		c-10.49,0.52-21,0.94-31.57,1.15s-21.15,0.25-31.78,0.12s-21.3-0.46-32-0.88c10.16,1.23,19.71,2.64,31,3
		c-15.21,0.16-29.54-1.3-44.22-2.78c1,0.18,2,0.36,3.13,0.52c7.38,0.73,14.71,1.38,21.95,2c11.81,0.65,24.26,0.84,32.31,1.32
		c9.14,0.15,18.34,0.06,28.09-0.59c1.91-0.15,4.47-0.44,7-0.49c2.06-0.19,4.23-0.3,6.51-0.44c2.65-0.52,7.15-0.61,9.5-0.84
		c5.27-0.57,10.45-0.66,15.54-0.72l1.49-0.18c2.52-0.34,5.05-0.56,7.59-0.64c2.78-0.45,5.52-1.14,8.18-2.07l1.75-0.68
		c0.57-0.26,1.15-0.51,1.72-0.78c0.57-0.27,1.13-0.57,1.68-0.88s1.1-0.64,1.63-1c0.61-0.39,1.19-0.82,1.74-1.28
		c0.46-0.54,0.86-1.13,1.2-1.76l0.45-0.84l0.43-0.84c0.91-2.74,1.58-5.55,2-8.41c0.46-2.76,0.83-5.5,1.14-8.24
		c0.63-5.48,1.1-10.94,1.52-16.39c0.83-10.9,1.44-21.75,2-32.52c0.46-8.44-0.82-18.84-2.17-29.21c-0.24-2.22-0.74-4.4-1.49-6.5
		c0,17.71-0.61,34.62-1.66,51.48c-0.06,8.21-0.25,16.43-0.71,24.64c-0.23,4.1-0.53,8.2-1,12.29c-0.23,2-0.5,4.08-0.85,6.1
		C286.37,192.5,285.92,194.5,285.31,196.46z"/>
	<path class="st3" d="M168.9,210.54l-0.29,0.23l6.24,0.12C172.88,210.82,170.89,210.68,168.9,210.54z"/>
	<path class="st3" d="M223.68,205.45l9.23-0.48l9.23-0.58c-2.68,0.12-5.56,0.15-8.11,0.09c-4.85,0.29-9.7,0.61-14.55,0.84
		L223.68,205.45z"/>
	<path class="st8" d="M139.16,208.04l-21.86-2.22l-2.41-0.12c9.83,1.79,20.34,3.09,32.5,4.1c-18.1-1.23-35.47-3.06-52.64-5
		c-12.94-0.77-25.82-0.44-38.58-0.74c-6.39-0.15-12.77-0.38-19.12-1.09c-3.2-0.29-6.36-0.96-9.4-2c-0.77-0.29-1.49-0.7-2.12-1.24
		c-0.65-0.51-1.23-1.09-1.74-1.73c-0.97-1.31-1.74-2.76-2.28-4.3l0.33,1l0.43,1c0.28,0.65,0.61,1.28,1,1.88
		c0.09,0.15,0.18,0.31,0.28,0.46l0.34,0.42l0.69,0.84c0.25,0.26,0.54,0.48,0.82,0.73c0.27,0.25,0.56,0.48,0.87,0.67
		c2.53,1.29,5.26,2.16,8.07,2.56c5.45,0.95,10.94,1.62,16.45,2c11,0.87,22,1.18,33,1.79c1.08,0.02,2.14-0.22,3.1-0.71
		c19.58,3.2,41.14,2.51,62.14,4.24c0.76,0.27-1.17,0.17-1.94,0.23l7.53,0.23c4.1-0.19,8.38-0.59,13.51-0.48l-7.06-0.5
		C152.9,209.53,145.03,208.92,139.16,208.04z"/>
	<path class="st3" d="M147.38,209.82c-12.16-1-22.67-2.31-32.5-4.1l-20.14-0.92C111.91,206.71,129.28,208.54,147.38,209.82z"/>
	<path class="st3" d="M161.08,209.99l7.06,0.5h0.8l0,0c2,0.14,4,0.25,6,0.36l18.53,0.41C185.34,210.82,172.9,210.64,161.08,209.99z"
		/>
	<path class="st3" d="M258.67,202.92c1.56,0,3.12-0.09,4.65-0.19c2.93-0.32,5.82-0.85,8.67-1.6h-0.13
		C267.52,202.1,263.11,202.7,258.67,202.92z"/>
	<path class="st9" d="M289.3,147.5c0.14-18.09-0.4-36.13-1.15-54.26c-0.59,0.31-1.08,1.25-1.32,2.75c-1.09,2.44-1.1,6.65-0.75,11.58
		c0.25,0-0.06-5.85,0.38-2.47c0.65,3.66,0.89,7.39,0.7,11.1l-0.1,2.07l0.08,0.86c0.32,0.44,0.37,1.02,0.13,1.51
		c0.28,3-0.55,19.27-0.62,22l1-13.09l0.16,2.27c-0.07-0.07-0.13-0.15-0.18-0.23v2.46c0.48,0.91,0.75,1.92,0.78,2.95l0.16-2.79
		c0.47,2.06,0.22,6.26,0,9c-0.54-0.66-0.37-3.46-0.29-4.85l-0.02,1.46c0.09-1.39,0-4.52-0.38-3.45c-0.19,1.5-0.22,3.02-0.07,4.53
		c0.02,0.36,0.02,0.72,0,1.08l0,0c0-0.3,0-0.68,0-1.08c0.05-0.35-0.04-0.71-0.25-1l-0.09,4.17c0,0.22,0.08,0.46,0.12,0.71
		c0-0.33,0.07-0.7,0.13-1.11l-0.09,1.4v-0.29c-0.26,3,0.4,4.07,0.46,6.87c-0.16-1.62-0.59,0.45-0.78-0.72v1
		c0.08,1.51,0.08,3.01,0,4.52c0.14,2,0.37,3.89,0.52,5.68c-0.52,0.22-0.63-1-0.7-2.51c-0.12,1.54-0.27,3.11-0.43,4.71
		c0.32,1.11,0.6,0.95,0.46,4.76c-0.27-0.24-0.51-0.51-0.71-0.81c-0.19,2.84-0.41,5.66-0.67,8.48v1.67c0.2,0.55,0.22,1.15,0.06,1.71
		c0-0.56,0-1.13-0.06-1.71l0,0c-0.16,1.22-0.35,2.47-0.57,3.75c-0.28,2.35-0.6,4.68-1,7c-0.34,2.17-0.88,4.31-1.6,6.38
		c0.08-0.04,0.14-0.1,0.19-0.17L283,195c-0.05,0.14-0.12,0.27-0.2,0.39c-0.16,0.32-0.31,0.66-0.43,1c-0.06,0.16-0.11,0.32-0.14,0.49
		c-0.06,0.18-0.19,0.34-0.36,0.43c-0.36,0.28-0.75,0.5-1.17,0.67l1.05-0.65c-2.47,1.46-5.02,2.77-7.64,3.92
		c2.54-0.68,4.96-1.71,7.21-3.06l0.81-0.54c0.17-0.1,0.33-0.21,0.48-0.34l0.16-0.18l0.13-0.2c0.13-0.23,0.25-0.47,0.36-0.72
		c0.49-1.19,0.88-2.43,1.16-3.69c0.83-3.68,1.47-7.41,1.92-11.16c0.49-3.76,0.89-7.53,1.25-11.28
		C288.28,162.45,288.83,154.98,289.3,147.5z"/>
	<path class="st3" d="M271.77,201.69c0.46-0.17,0.83-0.34,1.69-0.71l-1.47,0.15c-2.85,0.75-5.74,1.28-8.67,1.6
		C266.16,202.59,268.98,202.24,271.77,201.69z"/>
	<path class="st10" d="M243.23,204.32h0.19c0.44-0.05,0.89-0.08,1.34-0.08l-1.34,0.08h-0.09c3.42,0.14,7.06,0.12,10.81,0.07
		s7.59-0.14,11.38-0.48c3.73-0.29,7.42-0.99,11-2.07c1.75-0.54,3.44-1.23,5.06-2.07c0.41-0.19,0.8-0.41,1.18-0.64
		c0.37-0.2,0.73-0.42,1.07-0.66c0.6-0.57,1.09-1.25,1.44-2c0.65-1.94,1.14-3.92,1.45-5.94c0.35-2,0.62-4.06,0.85-6.1
		c0.45-4.08,0.75-8.19,1-12.29c0.46-8.21,0.64-16.42,0.71-24.64c-0.47,7.48-1,15-1.73,22.47c-0.36,3.75-0.76,7.52-1.25,11.28
		c-0.45,3.75-1.09,7.48-1.92,11.16c-0.28,1.26-0.67,2.5-1.16,3.69c-0.11,0.25-0.23,0.49-0.36,0.72l-0.13,0.2l-0.16,0.18
		c-0.15,0.13-0.31,0.24-0.48,0.34l-0.81,0.54c-2.25,1.35-4.67,2.38-7.21,3.06c-1.18,0.48-2.41,0.84-3.66,1.06
		c0.65-0.23,1-0.38,1.34-0.51c-2.79,0.54-5.61,0.87-8.45,1c-3.25,0.39-6.6,0.62-10,0.87L243.23,204.32z"/>
	<path class="st11" d="M290.95,96.01c-0.91-2.35-2-3.19-2.8-2.77c0.74,18.13,1.29,36.17,1.15,54.26
		C290.35,130.64,290.92,113.72,290.95,96.01z"/>
	<path class="st12" d="M113.81,205.48l2.13,0.17c-8.81-0.93-17.67-1.87-26.53-2.72h-0.25c-0.96-0.03-1.92-0.14-2.86-0.33
		c-3.1-0.28-6.17-0.47-9.21-0.64l-1.64,0.09c-1.22,0-2.51,0-3.84,0c-1.63,0-3.36-0.03-5.19-0.09l14.15,1.25
		c4.75,0.42,9.46,1,14.17,1.56l20.14,0.92L113.81,205.48z"/>
	<path class="st3" d="M118.35,205.82l-2.41-0.2l1.36,0.14L118.35,205.82z"/>
	<path class="st3" d="M180.23,210.29c-11.34-0.4-20.88-1.8-31-3l-17.28-0.76c1.34,0.42,2.71,0.75,4.1,1
		C150.69,208.99,165.01,210.45,180.23,210.29z"/>
	<path class="st11" d="M136.8,205.91c15.67,0.54,32.59,1.69,49.11,2.09s32.6,0.14,46.4-1.63c-4.33-0.3-9-0.45-13.8-0.7
		c-14.05,0.59-28.1,0.83-42.15,0.72c-8.45,0-16.91-0.25-25.36-0.57c-7.27-0.27-14.54-0.61-21.79-1c0.28,0.61,1.2,1.17,2.7,1.67
		l17.25,0.77C145.16,206.76,141.16,206.31,136.8,205.91z"/>
	<path class="st13" d="M215.3,205.53c-13,0.61-26,0.92-38.95,0.87c14.04,0.12,28.09-0.12,42.15-0.72L215.3,205.53z"/>
	<path class="st3" d="M234.02,204.48L234.02,204.48c-5.61,0.29-11.24,0.59-17,0.76l2.44,0.08
		C224.32,205.09,229.16,204.77,234.02,204.48z"/>
	<path class="st14" d="M161.08,209.99c-7.24-0.57-14.57-1.22-21.95-2C145.03,208.92,152.9,209.53,161.08,209.99z"/>
	<path class="st3" d="M223.68,205.45l-4.21-0.12l-4.17,0.2l3.21,0.15C220.23,205.6,221.95,205.54,223.68,205.45z"/>
	<path class="st3" d="M66.77,201.71l-3.61-0.33c-0.2,0.05-0.4,0.13-0.58,0.22l2.66,0.22C65.75,201.81,66.26,201.77,66.77,201.71z"/>
	<path class="st3" d="M114.88,205.67l2.41,0.12l-1.36-0.14l-2.13-0.17L114.88,205.67z"/>
	<path class="st3" d="M139.16,208.04c-1.11-0.17-2.17-0.34-3.13-0.52c-5.79-0.58-11.65-1.18-17.65-1.68l-1.05-0.05L139.16,208.04z"
		/>
	<path class="st13" d="M136,207.51c-1.39-0.25-2.76-0.58-4.1-1l-9.37-0.46l-4.19-0.2C124.35,206.33,130.21,206.94,136,207.51z"/>
	<path class="st3" d="M232.3,206.37c-13.8,1.78-29.89,2.06-46.4,1.63s-33.44-1.55-49.11-2.09c4.32,0.4,8.4,0.85,12.38,1.35
		c10.71,0.41,21.38,0.71,32,0.88c10.62,0.17,21.21,0.13,31.78-0.12c10.56-0.21,21.08-0.63,31.57-1.15c5.24-0.3,10.48-0.57,15.7-0.93
		c5.21-0.26,10.36-1.16,15.34-2.7c-4.2,1.21-8.53,1.9-12.9,2.07c-4.35,0.24-8.73,0.25-13.09,0.32c-8.71,0.12-17.36,0-25.93-0.17
		c-1.72,0.1-3.45,0.15-5.17,0.22C223.3,205.92,227.98,206.07,232.3,206.37z"/>
	<path class="st3" d="M135.47,10.57c20.35-2.51,47.2,0,70.2-0.19c-3.18-0.22-6.18-0.54-9.12-0.9c-31.49-0.17-62.43,0-93.14,0.22
		c13,0.4,25.78,1.14,38.38,2.06l3.81-0.1C142.08,11.35,138.64,11,135.47,10.57z"/>
	<path class="st2" d="M206.22,8.75c1.02,0.2,2.03,0.48,3,0.84l6.94,0.1h3.08C214.79,9.48,210.48,9.08,206.22,8.75z"/>
	<path class="st2" d="M160.81,5.98c5.32,0.82,16.47,0.8,27,1.18C178.52,6.55,169.5,6.11,160.81,5.98z"/>
	<path class="st2" d="M127.49,12.16c0.95,0.11,1.88,0.24,2.77,0.38l14.63-0.53l-3.1-0.23L127.49,12.16z"/>
	<path class="st2" d="M205.68,10.39c-23,0.15-49.85-2.33-70.2,0.19c3.17,0.42,6.61,0.77,10.13,1.1c10.35-0.25,20.69-0.48,31-0.59
		c6.21-0.12,12.43-0.13,18.64-0.09c5.33,0,10.67,0.05,16,0.16c-0.43-0.77-1.15-1.33-2-1.56l-12.69-0.1
		C199.49,9.82,202.49,10.17,205.68,10.39z"/>
	<path class="st2" d="M147.97,11.9c9.55-0.34,19.11-0.66,28.65-0.81c-10.32,0.11-20.67,0.34-31,0.59L147.97,11.9z"/>
	<path class="st2" d="M173.72,7.25c8.31,0.24,15.35,1.37,22.84,2.24l12.69,0.1c-0.97-0.36-1.98-0.64-3-0.84
		C195.4,7.82,184.87,6.88,173.72,7.25z"/>
	<path class="st2" d="M187.76,7.15c5.32,0.35,10.72,0.75,16.15,1.2C198.55,7.66,193.16,7.26,187.76,7.15z"/>
	<path class="st2" d="M195.26,10.99c-6.21,0-12.43,0-18.64,0.09C182.84,11,189.06,10.99,195.26,10.99z"/>
	<path class="st2" d="M112.47,12.56l4.34,0.26l8.29-0.1l2.14-0.05l3-0.1c-0.89-0.15-1.82-0.27-2.77-0.38L112.47,12.56z"/>
	<path class="st2" d="M92.32,9.45c0.62,0.12,1.26,0.22,1.9,0.32l9.2-0.05C99.72,9.59,96.03,9.5,92.32,9.45z"/>
	<path class="st2" d="M211.35,11.38c-0.02-0.08-0.04-0.15-0.08-0.22c-5.33-0.09-10.67-0.15-16-0.16
		C200.63,11.05,205.99,11.17,211.35,11.38z"/>
	<path class="st2" d="M94.22,9.77l-36.26,0.2c11,0.79,22,1.45,33.45,1.78c7,0.13,14,0.45,21.06,0.81l15-0.4
		C117.41,10.96,104.73,11.41,94.22,9.77z"/>
	<path class="st2" d="M141.8,11.82l3.81-0.1c-3.52-0.33-7-0.68-10.13-1.1c20.35-2.51,47.2,0,70.2-0.19
		c-3.18-0.22-6.18-0.54-9.12-0.9c-31.49-0.17-62.43,0-93.14,0.22C116.38,10.11,129.16,10.82,141.8,11.82z"/>
	<path class="st2" d="M127.49,12.16l14.31-0.34c-12.6-0.92-25.42-1.66-38.38-2.06l-9.2,0.05C104.73,11.41,117.41,10.96,127.49,12.16
		z"/>
	<path class="st2" d="M141.8,11.82l3.1,0.23l3.07-0.11l-2.36-0.22L141.8,11.82z"/>
	<path class="st2" d="M220.98,9.82l-1.82-0.1h-3.08l-6.88-0.09c0.85,0.23,1.57,0.79,2,1.56c11.64,0.24,23.22,0.66,34.71,1.43
		c1.53,0,3-0.13,4.42-0.21c-4.86-0.39-9.79-0.8-14.69-1.26L220.98,9.82z"/>
	<path class="st2" d="M144.9,12.01l2.4,0.18h3.44l-2.77-0.25L144.9,12.01z"/>
	<path class="st2" d="M127.25,12.64l3.15-0.08h-0.14L127.25,12.64z"/>
	<path class="st2" d="M130.26,12.54h0.14c5.58-0.15,11.19-0.28,16.89-0.37l-2.4-0.18L130.26,12.54z"/>
	<path class="st2" d="M211.35,11.38c-5.36-0.21-10.72-0.33-16.09-0.38c-6.2,0-12.42,0-18.64,0.09c-9.55,0.15-19.1,0.47-28.65,0.81
		l2.77,0.25c7.12-0.09,14.41-0.1,22,0c17.41-0.22,30.7-0.58,47.59,0.17c7.13,0.08,17,0.47,25.64,0.23
		c-11.49-0.77-23.07-1.19-34.71-1.43C211.3,11.2,211.34,11.29,211.35,11.38z"/>
	<path class="st2" d="M285.9,27.21c-1.76-4.37-4.72-8.16-8.55-10.91c-3.87-2.59-8.27-4.29-12.87-5c-4.59-0.76-9.22-1.15-13.87-1.17
		l-14.06-0.21c4.6,0.53,9.19,1.05,13.75,1.63c4.46,0.51,8.88,1.38,13.2,2.59c2,0.41,3.96,0.97,5.87,1.68
		c1.49,0.08,2.94,0.5,4.25,1.22c1.65,1.13,3.15,2.48,4.45,4c3.02,3,5.37,6.61,6.88,10.59c1.61,4.15,2.99,8.39,4.15,12.69
		C288.61,38.45,287.91,32.67,285.9,27.21z"/>
	<path class="st2" d="M260.23,13.5c2.22,0.55,4.42,1.22,6.57,2l0.85,0.09c-1.36-0.58-2.74-1.08-4.16-1.5
		C262.42,13.88,261.33,13.66,260.23,13.5z"/>
	<path class="st2" d="M289.74,53.03c-0.2-3-0.4-5.88-0.63-8.8c-1.16-4.3-2.54-8.54-4.15-12.69c-1.51-3.98-3.86-7.59-6.88-10.59
		c2.04,2.51,3.58,5.38,4.55,8.47c1.09,3.45,1.87,6.99,2.34,10.58c1,4.33,3.32,6,3.5,10.13c0.27,7.19,0.19,15.3,0.24,23.44
		c-0.08,7.9,0.38,15.79,1.38,23.63c1.1,20.5,0.89,47,2.15,64.49C293,118.97,292.43,85.18,289.74,53.03z"/>
	<path class="st2" d="M267.65,15.6c0.57,0,1.15,0.09,1.72,0.17c-1.91-0.7-3.87-1.25-5.87-1.66C264.91,14.52,266.3,15.02,267.65,15.6
		z"/>
	<path class="st2" d="M112.47,12.56l-9,0.23h13.34L112.47,12.56z"/>
	<path class="st2" d="M221.75,9.73h-1.77l1,0.08l1.56,0.07L221.75,9.73z"/>
	<path class="st2" d="M197.82,6.92c4.47,0.31,8.64,0.65,12.6,1.1s7.71,1,11.33,1.72l14.79,0.15C223.92,8.55,211.16,7.5,197.82,6.92z
		"/>
	<path class="st2" d="M222.54,9.88l-1.56-0.06l14.73,1.31c4.91,0.47,9.83,0.87,14.69,1.26l1-0.06c2.96,0.03,5.91,0.43,8.78,1.19
		c1.11,0.16,2.19,0.38,3.26,0.61c-4.32-1.21-8.74-2.08-13.2-2.59c-4.56-0.58-9.15-1.1-13.75-1.63L221.7,9.76L222.54,9.88z"/>
	<path class="st2" d="M203.91,8.35c0.82,0.12,1.6,0.25,2.31,0.4c4.26,0.33,8.58,0.73,13,1h0.77L203.91,8.35z"/>
	<path class="st2" d="M219.16,9.72l1.82,0.1l-1-0.08h-0.82V9.72z"/>
	<path class="st2" d="M94.22,9.77c-0.64-0.1-1.28-0.2-1.9-0.32c3.71,0,7.41,0.15,11.1,0.27c30.71-0.21,61.65-0.39,93.14-0.22
		c-7.49-0.87-14.52-2-22.84-2.24c11.15-0.38,21.68,0.59,32.5,1.5c-0.71-0.14-1.49-0.28-2.31-0.4c-5.43-0.45-10.83-0.85-16.15-1.2
		c-10.48-0.34-21.6-0.34-26.95-1.18c8.69,0.14,17.72,0.57,27,1.18c5.4,0.11,10.79,0.51,16.15,1.2l16.07,1.37h1.77
		c-3.62-0.68-7.37-1.24-11.33-1.72s-8.13-0.8-12.6-1.1c13.3,0.58,26.11,1.63,38.73,3l14.06,0.21c4.65,0.02,9.28,0.41,13.87,1.17
		c4.6,0.71,9,2.41,12.87,5c3.83,2.75,6.79,6.54,8.55,10.91c-2.44-7.05-7.84-12.67-14.79-15.38c-3.37-1.39-6.9-2.37-10.51-2.93
		c-3.58-0.61-7.18-0.94-10.75-1.19c-14.27-1-28.73-1.55-43.71-1.7c-3.09-0.21-6.3-0.28-9.58-0.28s-6.6,0.11-9.93,0.2
		c-9.2,0.63-18.54-1-27.74-0.35C122.73,7.82,84.16,8,47.33,4.73c-3.39-0.24-6.79-0.18-10.17,0.18C36.37,5,35.4,5.05,34.42,5.14
		s-2,0.21-3,0.37c-2.08,0.31-4.13,0.84-6.1,1.58c-2.16,0.83-3.71,2.3-4.16,3.73c1.26-1.19,2.85-1.97,4.56-2.24
		c1.57-0.31,3.17-0.46,4.77-0.46c3.17,0,6.21,0.41,9.26,0.56l18.21,1.29L94.22,9.77z"/>
	<path class="st2" d="M91.42,11.75c-11.44-0.33-22.45-1-33.45-1.78l-19.52,0.05c-0.82,0-1.61,0-2.47,0s-1.61,0-2.4,0
		c-1.57,0-3.13,0.1-4.69,0.3c-1.45,0.16-2.88,0.54-4.22,1.12c-0.54,0.24-1.02,0.58-1.43,1c-0.29,0.31-0.46,0.72-0.5,1.14
		c0.33,0,0.61,0,0.88,0s0.47,0.05,0.62,0.05c0.29,0.14,0.6,0.21,0.92,0.19c0.49-0.05,0.97-0.13,1.44-0.25
		c1.23-0.28,3-0.66,5.06-0.93c1-0.14,2.11-0.26,3.25-0.36l1.84-0.14l1.8-0.17c2.31-0.23,4.63-0.34,6.95-0.31
		c19,0.42,38.64,1,58,1.16l9-0.23C105.46,12.2,98.4,11.88,91.42,11.75z"/>
	<path class="st2" d="M21.16,10.82c-0.32,0.74-0.21,1.6,0.29,2.24c0.33,0.35,0.8,0.54,1.28,0.54c0.04-0.42,0.21-0.83,0.5-1.14
		c0.41-0.42,0.89-0.76,1.43-1c1.34-0.58,2.77-0.96,4.22-1.12c1.56-0.2,3.12-0.3,4.69-0.3c0.8,0,1.59,0,2.4,0s1.65,0,2.47,0
		l19.52-0.05L39.77,8.64c-3.06-0.15-6.1-0.59-9.26-0.56c-1.6,0-3.2,0.15-4.77,0.46C24.02,8.82,22.42,9.61,21.16,10.82z"/>
	<path class="st3" d="M127.36,12.14h0.12h0.28H127.36z"/>
	<path class="st3" d="M195.26,10.99c-6.21,0-12.43,0-18.64,0.09C182.84,11,189.06,10.99,195.26,10.99z"/>
	<path class="st3" d="M115.98,12.75l8.26-0.1h1.11l0.67-0.17l-2-0.11c1.22-0.1,2.38-0.11,3.42-0.18l-14.92,0.4L115.98,12.75z"/>
	<path class="st3" d="M244.16,12.53h0.61h-0.65C244.12,12.53,244.16,12.51,244.16,12.53z"/>
	<path class="st3" d="M240.27,12.58h0.42c-0.06-0.13-0.14-0.24-0.24-0.33l-2.3-0.13C238.86,12.24,239.57,12.39,240.27,12.58z"/>
	<path class="st3" d="M92.32,9.45c0.62,0.12,1.26,0.22,1.9,0.32l9.2-0.05C99.72,9.59,96.03,9.5,92.32,9.45z"/>
	<path class="st4" d="M211.35,11.38c-5.36-0.21-10.72-0.33-16.09-0.38c-6.2,0-12.42,0-18.64,0.09c-9.55,0.15-19.1,0.47-28.65,0.81
		l1.19,0.1c1.39-0.1,2.8-0.18,4.24-0.24l-1.27,0.23l1.23,0.06c3.92,0,7.91,0,12,0c1.87-0.12,3.75-0.1,5.62,0.08h0.9
		c8.54-0.11,16.08-0.24,23.54-0.28c0.04-0.14,0.12-0.27,0.22-0.38c1.78,0.11,3.54,0.26,5.28,0.39c4.2,0,8.44,0.05,12.88,0.22
		c0.61-0.22-1.69-0.67-0.52-0.85h0.42l-2.45-0.06C211.29,11.23,211.33,11.31,211.35,11.38z"/>
	<path class="st3" d="M144.9,12.01l1.79,0.14h0.9l1.6-0.12l-1.22-0.11L144.9,12.01z"/>
	<path class="st3" d="M240.47,11.55l-19.49-1.73l-1.82-0.1h-3.08l-6.88-0.09c0.85,0.23,1.57,0.79,2,1.56l2.45,0.06
		c0.68-0.04,1.37-0.04,2.05,0c6.94,0.14,13.87,0.43,20.76,0.76c0.54-0.03,1.08,0,1.62,0.09l2.3,0.13
		C240.16,11.98,239.94,11.68,240.47,11.55z"/>
	<path class="st3" d="M291.38,71.64v-0.26v-0.31v0.58V71.64z"/>
	<path class="st5" d="M286.09,27.67c-1.71-4.44-4.64-8.31-8.45-11.15c-1.9-1.38-3.98-2.5-6.17-3.34c-2.19-0.82-4.45-1.44-6.75-1.86
		c-4.63-0.78-9.31-1.19-14-1.21L236.53,9.9l10.37,1.21c3.45,0.41,6.87,0.86,10.2,1.48l1.5,0.18h-0.67c0.62,0.12,1.23,0.24,1.83,0.39
		c0.26-0.12,0.4-0.39,0.35-0.67c1.71,0.59,6,1.22,5.15,1.92c-0.07,0.05-0.15,0.07-0.24,0.07l1.71,0.45l1.67,0.52
		c1.58,0.04,3.14,0.43,4.55,1.14l0.58,0.37c0.35,0.2,0.69,0.43,1,0.68c0.35,0.25,0.69,0.53,1,0.84l0,0c0.5-0.13,0.16-0.87-0.27-1.44
		s-0.85-1.09-0.28-0.85c1.04,0.51,2.01,1.16,2.88,1.93c0.53,0.49,0.97,1.06,1.3,1.7c0.41,1,0.11,1.52-0.49,1.77
		c2.83,3.02,5.03,6.57,6.49,10.45c1.54,4.03,2.88,8.14,4,12.31C288.66,38.69,287.98,33.03,286.09,27.67z"/>
	<path class="st6" d="M291.4,71.38v0.26v-0.58l-1.65-18.89l-0.59-7.82c-1.12-4.17-2.46-8.28-4-12.31
		c-1.44-3.88-3.63-7.44-6.45-10.47h-0.09c3.58,4.69,5.13,10.37,6.28,17.57c1.21,4.87,2.01,9.84,2.39,14.85
		c0.34,14.32,1.5,23.9,3.8,38.58c0.42,22.2,0,41.6,1.17,62c0.09-12.74,0.51-27,0.56-41.35S292.57,84.43,291.4,71.38z"/>
	<path class="st3" d="M264.62,14.46c0.81,0.27,1.6,0.56,2.37,0.86l1.42,0.1l-1.67-0.52l-1.71-0.45h-0.4L264.62,14.46z"/>
	<path class="st3" d="M219.67,12.29h2.42c0.79-0.14,1.6-0.14,2.39,0l6.38,0.13l0.12-0.13l0.59,0.14h3.61
		c0.14-0.11,0.27-0.23,0.39-0.37c0.33-0.09,0.66-0.15,1-0.16c-6.89-0.32-13.82-0.62-20.76-0.76
		C217.14,11.38,218.43,11.76,219.67,12.29z"/>
	<path class="st3" d="M242.75,11.75c0.52,0.07,1,0.33,1.35,0.72h0.65c1.6,0,3.17-0.12,4.67-0.22L242.75,11.75z"/>
	<path class="st3" d="M263.33,14.38c0.91,0.27,1.82,0.56,2.73,0.89c0.31,0,0.62,0,0.93,0.06c-0.76-0.31-1.56-0.59-2.37-0.86
		C264.26,14.46,263.81,14.42,263.33,14.38z"/>
	<path class="st3" d="M211.35,11.38c-0.02-0.08-0.04-0.15-0.08-0.22c-5.33-0.09-10.67-0.15-16-0.16
		C200.63,11.05,205.99,11.17,211.35,11.38z"/>
	<path class="st4" d="M103.42,9.71l-9.2,0.05c10.46,1.63,23,1.2,33.1,2.37c0.78-0.07,1.64-0.22,2.51-0.37
		c-0.67,0.2-1.37,0.33-2.07,0.37h0.4l13.6-0.36C129.16,10.82,116.38,10.11,103.42,9.71z"/>
	<path class="st7" d="M94.22,9.77c-0.64-0.1-1.28-0.2-1.9-0.32c3.71,0,7.41,0.15,11.1,0.27c30.71-0.21,61.65-0.39,93.14-0.22
		c-7.49-0.87-14.52-2-22.84-2.24c11.15-0.38,21.68,0.59,32.5,1.5c-0.71-0.14-1.49-0.28-2.31-0.4c-5.43-0.45-10.83-0.85-16.15-1.2
		c-8.68-0.31-17.8-0.36-23.7-0.82c-6.69-0.13-13.43-0.18-20.57,0.24c-1.4,0.11-3.28,0.3-5.11,0.28c-1.51,0.11-3.11,0.18-4.78,0.21
		c-2.32,0.27-4.66,0.42-7,0.43c-3.79,0.24-7.6,0.2-11.39-0.12l-1.09,0.07c-1.82,0.15-3.66,0.07-5.46-0.26h-7.2l-5.17-0.06
		c-0.72,0.15-1.47,0.15-2.19,0c-16-0.26-32-1-47.65-2.42c-1.62-0.14-3.24-0.18-4.86-0.14c-0.85,0-1.71,0.04-2.59,0.11l-1.33,0.09
		l-1.26,0.05c-1.97,0.1-3.93,0.32-5.87,0.65c-2.12,0.35-4.18,0.96-6.15,1.82c-1.05,0.47-2,1.15-2.77,2c-0.61,0.66-1.01,1.5-1.12,2.4
		c0.47-0.84,1.16-1.53,2-2c0.76-0.44,1.57-0.77,2.41-1c1.6-0.4,3.25-0.61,4.9-0.64c3.25-0.12,6.38,0.36,9.51,0.51l18.64,1.41
		L94.22,9.77z"/>
	<path class="st3" d="M182.02,6.82l0.21-0.24h-4.58L182.02,6.82z"/>
	<path class="st3" d="M141.8,11.82l-13.6,0.36c2,0,4.09,0.08,6,0.26l10.73-0.39L141.8,11.82z"/>
	<path class="st8" d="M203.91,8.35l16.07,1.37h1.77c-3.62-0.68-7.37-1.24-11.33-1.72s-8.13-0.8-12.6-1.1
		c13.3,0.58,26.11,1.63,38.73,3l14.19,0.21c4.69,0.02,9.37,0.43,14,1.21c2.3,0.42,4.56,1.04,6.75,1.86
		c2.19,0.84,4.27,1.96,6.17,3.34c3.81,2.84,6.74,6.71,8.45,11.15c-1.32-3.94-3.56-7.51-6.52-10.43c-1.5-1.46-3.18-2.72-5-3.75
		c-1.81-1.04-3.71-1.9-5.69-2.57c-1.96-0.68-3.96-1.22-6-1.62c-2-0.43-4.06-0.73-6.1-1c-4.08-0.49-8.14-0.73-12.2-1
		c-0.83,0-1.64,0.28-2.3,0.78c-14.43-2.61-30.28-0.9-45.71-1.89c-0.56-0.25,0.85-0.21,1.41-0.3h-5.52
		c-3.28,0.48-6.58,0.76-9.89,0.85l5.18,0.33C193.17,7.21,198.56,7.64,203.91,8.35z"/>
	<path class="st3" d="M197.82,6.92c4.47,0.31,8.64,0.65,12.6,1.1s7.71,1,11.33,1.72l14.79,0.15C223.92,8.55,211.16,7.5,197.82,6.92z
		"/>
	<path class="st3" d="M187.76,7.15l-5.18-0.33H182l0,0l-4.37-0.23c-4.58,0-9.07-0.15-13.58-0.23
		C169.96,6.82,179.09,6.82,187.76,7.15z"/>
	<path class="st3" d="M115.98,12.75l-3.5-0.19l-6.84,0.17h0.11h10.24L115.98,12.75z"/>
	<path class="st9" d="M57.96,9.97l-19.94,0.05h-1.24h-1.27c-0.82,0-1.64,0-2.44,0c-1.59,0.01-3.18,0.14-4.76,0.38
		c-1.45,0.18-2.85,0.61-4.15,1.28c-0.47,0.26-0.88,0.63-1.17,1.08c-0.22,0.37-0.31,0.81-0.26,1.24c0.28-0.06,0.55-0.15,0.82-0.25
		c0.2-0.07,0.4-0.1,0.61-0.09c0.21,0.09,0.42,0.17,0.63,0.24c0.26,0.03,0.52,0,0.77-0.08c0.74-0.21,2-0.58,3.49-0.88
		c-0.5-0.08-1.02-0.06-1.51,0.07c-0.59,0.09-1,0.14,0-0.26c0.93-0.49,1.95-0.79,3-0.89c1.45-0.18,2.93-0.18,4.38,0l1.53,0.19
		l0.67-0.06c0.27-0.29,0.7-0.36,1.04-0.17c2.23-0.19,14.19,0.85,16.23,0.84l-4.83-0.53l-4.82-0.58l1.67-0.13
		c-0.05,0.06-0.11,0.12-0.17,0.17h1.81c0.64-0.46,1.4-0.72,2.18-0.76l-2.07-0.13c1.52-0.44,4.6-0.21,6.66,0
		c-0.49,0.55-2.55,0.38-3.57,0.3l1,0.08c-1-0.08-3.33,0-2.54,0.38c1.1,0.19,2.23,0.21,3.34,0.06c0.27-0.02,0.53-0.02,0.8,0l0,0h-0.8
		c-0.27-0.04-0.54,0.05-0.73,0.25l3.13,0.05l0.52-0.12c-0.25,0-0.52-0.07-0.81-0.12l1,0.08h-0.22c2.19,0.24,3-0.43,5.06-0.53
		c-1.19,0.18,0.33,0.58-0.53,0.79h0.71c1.12-0.1,2.24-0.14,3.36-0.1c1.47-0.19,2.87-0.48,4.18-0.69c0.18,0.51-0.74,0.66-1.84,0.78
		l3.49,0.26c0.81-0.37,0.68-0.63,3.5-0.67c-0.16,0.27-0.35,0.53-0.57,0.75l6.31,0.14l1.23-0.14c0.38-0.23,0.83-0.31,1.26-0.21
		c-0.41,0.08-0.84,0.15-1.26,0.21l0,0l2.82,0.21l10.61,0.18c-0.06-0.05-0.13-0.09-0.21-0.12l-0.38-0.07
		c0.13,0.01,0.26,0.03,0.38,0.07c1.55,0.22,2.29-0.48,4-0.11l-1-0.06c2.33,0.22,4.68,0.15,7-0.2c-4.21-0.18-8.42-0.34-12.61-0.41
		C79.98,11.42,68.96,10.76,57.96,9.97z"/>
	<path class="st3" d="M105.91,12.24l-1.44,0.25l1.16,0.24l6.84-0.17L105.91,12.24z"/>
	<path class="st10" d="M127.39,12.16h-0.14c-0.33,0.02-0.67,0.02-1,0h1h0.07c-10.06-1.16-22.64-0.74-33.1-2.37l-36.26,0.2
		c11,0.79,22,1.45,33.45,1.78c4.19,0.07,8.4,0.23,12.61,0.41c1-0.12,2-0.16,3-0.12l-1.1,0.2l6.56,0.32L127.39,12.16z"/>
	<path class="st11" d="M20.51,11.68c-0.14,0.82,0.19,1.65,0.86,2.14c0.39,0.28,0.9,0.36,1.36,0.22c-0.05-0.43,0.04-0.87,0.26-1.24
		c0.29-0.47,0.69-0.85,1.17-1.12c1.3-0.68,2.7-1.12,4.15-1.3c1.58-0.24,3.17-0.37,4.76-0.38c0.81,0,1.62,0,2.44,0h1.27h1.25
		l19.94-0.05L39.31,8.61c-3.13-0.16-6.26-0.63-9.51-0.51c-1.65,0.03-3.3,0.24-4.9,0.64c-0.84,0.23-1.65,0.56-2.41,1
		C21.67,10.2,20.99,10.87,20.51,11.68z"/>
	<path class="st12" d="M222.54,9.88l-1.56-0.06l19.49,1.74h0.18c0.71,0,1.41,0.08,2.1,0.24l6.67,0.55l1.19-0.08
		c0.93-0.01,1.86,0.03,2.78,0.11c1.17,0,2.41,0.12,3.72,0.25c-3.33-0.62-6.75-1.07-10.2-1.48l-10.37-1.21l-14.79-0.15L222.54,9.88z"
		/>
	<path class="st3" d="M219.16,9.72l1.82,0.1l-1-0.08h-0.82V9.72z"/>
	<path class="st3" d="M173.72,7.25c8.31,0.24,15.35,1.37,22.84,2.24l12.69,0.1c-0.97-0.36-1.98-0.64-3-0.84
		C195.4,7.82,184.87,6.88,173.72,7.25z"/>
	<path class="st11" d="M205.68,10.39c-23,0.15-49.85-2.33-70.2,0.19c3.17,0.42,6.61,0.77,10.13,1.1c10.35-0.25,20.69-0.48,31-0.59
		c6.21-0.12,12.43-0.13,18.64-0.09c5.33,0,10.67,0.05,16,0.16c-0.43-0.77-1.15-1.33-2-1.56l-12.69-0.1
		C199.49,9.82,202.49,10.17,205.68,10.39z"/>
	<path class="st13" d="M147.97,11.9c9.55-0.34,19.11-0.66,28.65-0.81c-10.32,0.11-20.67,0.34-31,0.59L147.97,11.9z"/>
	<path class="st3" d="M134.16,12.4L134.16,12.4l12.49-0.26L144.86,12L134.16,12.4z"/>
	<path class="st14" d="M187.76,7.15c5.32,0.35,10.72,0.75,16.15,1.2C198.55,7.66,193.16,7.26,187.76,7.15z"/>
	<path class="st3" d="M141.8,11.82l3.1,0.23l3.07-0.11l-2.36-0.22L141.8,11.82z"/>
	<path class="st3" d="M256.84,12.82c0.81,0.15,1.65,0.32,2.5,0.51c0.15-0.04,0.3-0.1,0.43-0.18c-0.6-0.15-1.21-0.27-1.83-0.39
		C257.57,12.75,257.2,12.77,256.84,12.82z"/>
	<path class="st3" d="M221.75,9.73h-1.77l1,0.08l1.56,0.07L221.75,9.73z"/>
	<path class="st3" d="M203.91,8.35c0.82,0.12,1.6,0.25,2.31,0.4c4.26,0.33,8.58,0.73,13,1h0.77L203.91,8.35z"/>
	<path class="st13" d="M206.22,8.75c1.02,0.2,2.03,0.48,3,0.84l6.94,0.1h3.08C214.79,9.48,210.48,9.08,206.22,8.75z"/>
</g>
<g>
	<path class="st15" d="M28.97,39.33l0.54-0.13c-0.62-1.66-1.47-3.22-2.52-4.64c-0.88-1.04-2-1.84-3.27-2.32c-3-1-6.88,0.12-9,1.78
		c0.21,0.27,0.38,1,0.62,1.23c1.77,1.73,3.92,3.02,6.28,3.77C24,39.78,26.54,39.88,28.97,39.33z"/>
	<path class="st16" d="M23.45,32.87c-1.05-0.15-2.12-0.17-3.17-0.05c-0.28,0-3.87,0.23-4.52,0.66c-0.03-0.01-0.06-0.01-0.09,0
		c-0.25,0.19,0.26,1.14,0.36,1.33c0.31,0.76,0.69,1.49,1.13,2.19c1.1,1.5,2.54,2.72,4.2,3.56c1.57,0.68,3.22,1.19,4.9,1.51
		c1.38,0.29,2.79,0.44,4.19,0.68c-0.68-1.69-1.14-3.46-1.84-5.14l-0.11-0.26C27.51,35.22,25.68,33.6,23.45,32.87z M24.26,34.34
		c1.06,0.63,1.98,1.48,2.7,2.48c0.82,1.52,1.42,3.14,1.81,4.82c-1.08-0.29-2.25-0.27-3.36-0.55c-1.28-0.3-2.52-0.77-3.68-1.39
		c-1.05-0.52-1.98-1.24-2.75-2.13c-0.36-0.53-0.77-1.04-1.2-1.52c-0.48-0.56-0.88-1.17-1.2-1.83c1.49-0.09,3-0.35,4.45-0.51
		c0.89-0.11,1.79,0.01,2.62,0.34C23.86,34.13,24.07,34.23,24.26,34.34z"/>
	<path class="st15" d="M29.61,54.36c-0.89,1.01-1.46,2.26-1.63,3.59c0,0.33,0,4.28,0.56,4c2.24-1,4.28-1.68,5.81-3.73
		s2.15-4.66,3-7.09c-0.5,0.06-1,0.11-1.5,0.21C33.5,51.65,31.31,52.71,29.61,54.36z"/>
	<path class="st17" d="M0.23,40.24c-0.09,0.15-0.17,0.3-0.24,0.45c0.56,0.16,1.15,0.14,1.69-0.06c0.36-0.07,0.72-0.15,1.08-0.25
		l0.45-0.11c-0.09,0.45-0.14,0.9-0.16,1.35c-0.11,0.43-0.11,0.87,0,1.3C3.04,43,3.1,43.08,3.18,43.1c0.25,0,0.48-0.08,0.69-0.21
		c0.34-0.14,0.69-0.26,1-0.38c0.08,0,0.44-0.11,0.72-0.24c0.04,0.42,0.13,0.82,0.29,1.21c0.09,0.48,0.21,0.95,0.35,1.41
		c-0.05,0.06-0.04,0.15,0.02,0.2c0.04,0.03,0.1,0.04,0.14,0.02c1.45-0.57,2.56-2.57,3.05-3.91c0.61-1.42,0.29-3.07-0.81-4.16
		c-0.53-0.38-1.13-0.65-1.77-0.79c-0.62-0.19-1.27-0.22-1.9-0.11c-1.43,0.35-2.7,1.19-3.57,2.38C0.96,39.06,0.57,39.64,0.23,40.24z"
		/>
	<path class="st17" d="M3.88,25.93l-0.35,0.08c0.17,0.37,0.45,0.67,0.8,0.87c0.2,0.16,0.41,0.31,0.62,0.46l0.27,0.19
		c-0.28,0.15-0.54,0.33-0.79,0.53c-0.27,0.15-0.5,0.36-0.66,0.62c-0.04,0.04-0.04,0.11,0,0.15c0.11,0.13,0.26,0.22,0.43,0.27
		c0.23,0.12,0.46,0.25,0.68,0.38c0.05,0,0.26,0.18,0.46,0.27c-0.2,0.21-0.37,0.44-0.51,0.7C4.62,30.72,4.42,31,4.24,31.29
		c-0.05,0.02-0.08,0.07-0.06,0.13c0.01,0.03,0.03,0.05,0.06,0.06c1.14,0.37,2.37,0.31,3.47-0.17c1.03-0.33,1.75-1.25,1.83-2.33
		c-0.04-0.46-0.17-0.9-0.39-1.3c-0.19-0.41-0.46-0.77-0.81-1.06c-0.84-0.6-1.87-0.88-2.9-0.8C4.92,25.82,4.4,25.85,3.88,25.93z"/>
	<path class="st17" d="M26.66,88.37c0.07,0.15,0.14,0.29,0.23,0.43c0.43-0.35,0.73-0.83,0.87-1.37c0.14-0.33,0.27-0.66,0.39-1
		c0-0.13,0.11-0.28,0.16-0.42c0.31,0.31,0.65,0.6,1,0.86c0.27,0.3,0.62,0.53,1,0.66c0.06,0.05,0.16,0.05,0.22,0
		c0.13-0.2,0.2-0.43,0.21-0.66c0.07-0.36,0.16-0.7,0.26-1c0.08-0.23,0.15-0.46,0.21-0.7c0.35,0.2,0.72,0.34,1.11,0.43
		c0.43,0.14,0.88,0.4,1.32,0.49c0.03,0.07,0.11,0.11,0.18,0.08c0.04-0.01,0.06-0.04,0.08-0.08c0.33-1.46-0.66-3.43-1.45-4.54
		c-0.77-1.29-2.24-1.97-3.72-1.73c-0.58,0.23-1.11,0.57-1.57,1c-0.48,0.39-0.86,0.89-1.12,1.45c-0.49,1.33-0.49,2.8,0,4.13
		C26.2,87.07,26.4,87.73,26.66,88.37z"/>
	<path class="st16" d="M8.58,107c2.09-1.2,3.98-2.72,5.58-4.52c1.57-1.77,2.87-3.78,3.84-5.94c0.99-2.14,1.71-4.4,2.16-6.72
		c0.47-2.3,0.73-4.65,0.77-7c0.04-2.36-0.08-4.72-0.37-7.06c-0.29-2.38-0.68-4.76-1.09-7.15c-0.8-4.77-1.75-9.53-2.71-14.3
		s-1.87-9.57-2.66-14.41c-0.38-2.43-0.74-4.84-1-7.33c-0.25-2.5-0.29-5.02-0.12-7.53c0.18-2.51,0.57-5.01,1.18-7.45
		c0.61-2.42,1.48-4.77,2.6-7c1.13-2.24,2.59-4.3,4.31-6.12c1.53-1.68,3.38-3.04,5.44-4c-3.79,2.68-6.65,6.48-8.18,10.87
		c-0.89,2.19-1.53,4.48-1.93,6.81c-0.42,2.33-0.64,4.69-0.66,7.05c-0.03,2.36,0.11,4.72,0.41,7.06c0.33,2.35,0.75,4.75,1.2,7.12
		s0.9,4.76,1.38,7.15l1.42,7.16c0.92,4.79,1.83,9.59,2.59,14.44c0.36,2.43,0.67,4.87,0.91,7.33c0.24,2.5,0.27,5.02,0.09,7.53
		c-0.18,2.51-0.6,5-1.25,7.43c-0.66,2.44-1.62,4.79-2.85,7c-1.24,2.19-2.83,4.16-4.69,5.85C13.07,104.89,10.91,106.16,8.58,107z"/>
	<path class="st15" d="M13.43,104.35c0.4-2.23,1.07-4.4,2-6.46c0.9-2.07,1.9-4.09,3-6.06c2.12-4,4.5-7.78,6.34-11.83
		c0.46-1,0.87-2,1.23-3.08c0.09-0.26,0.18-0.53,0.25-0.78s0.17-0.54,0.23-0.8c0.14-0.53,0.28-1.06,0.39-1.6
		c0.45-2.16,0.63-4.37,0.52-6.57c-0.14-4.45-1.42-8.79-3.71-12.61c-1.21-1.88-2.59-3.64-4.11-5.28c-1.49-1.68-3.05-3.3-4.41-5.1
		c-0.69-0.9-1.31-1.85-1.87-2.83c-1.65-3.01-2.57-6.36-2.69-9.79c-0.08-4.63,1.4-9.15,4.21-12.83c0.35-0.46,0.68-0.9,1.09-1.35
		c0.4-0.43,0.82-0.83,1.27-1.21c0.88-0.77,1.83-1.44,2.85-2c0.56-0.31,1.16-0.51,1.79-0.61c0.1-0.01,0.19-0.01,0.29,0h0.25
		c0.18,0.02,0.35,0.06,0.52,0.12c0.33,0.11,0.63,0.27,0.91,0.47c0.55,0.42,0.95,1.01,1.15,1.67c0.12,0.36,0.15,0.74,0.09,1.11
		c-0.07,0.37-0.25,0.72-0.51,1l-0.18,0.21h-0.29c-1.08-0.07-2.09-0.6-2.74-1.47c-0.62-0.82-0.97-1.81-1-2.84
		c-0.03-0.26-0.03-0.51,0-0.77v-0.24v-0.17c0-0.14,0.07-0.26,0.1-0.38c0.15-0.47,0.35-0.91,0.59-1.34c0.47-0.83,1.03-1.59,1.69-2.28
		c0.66-0.71,1.42-1.33,2.25-1.83c0.83-0.45,1.72-0.78,2.64-1c1.84-0.45,3.75-0.45,5.59,0c1.8,0.43,3.52,1.17,5.07,2.18
		c4.8,3.01,7.23,8.67,6.11,14.22h-0.11c0.52-3.55-0.39-7.17-2.53-10.05c-1.05-1.41-2.37-2.59-3.9-3.47c-1.49-0.93-3.13-1.61-4.84-2
		c-1.69-0.37-3.44-0.33-5.11,0.11c-0.82,0.23-1.6,0.56-2.33,1c-0.72,0.45-1.37,0.99-1.94,1.62c-0.59,0.63-1.1,1.33-1.52,2.09
		c-0.42,0.69-0.65,1.49-0.64,2.3c0.04,0.78,0.32,1.53,0.8,2.15c0.44,0.59,1.12,0.96,1.86,1l-0.47,0.2c0.23-0.28,0.3-0.66,0.17-1
		c-0.15-0.4-0.41-0.75-0.76-1c-0.33-0.27-0.75-0.41-1.17-0.39c-0.48,0.08-0.94,0.24-1.37,0.48c-0.95,0.51-1.85,1.12-2.67,1.82
		c-0.42,0.34-0.81,0.71-1.19,1.1c-0.34,0.38-0.7,0.83-1,1.26c-1.33,1.74-2.4,3.68-3.15,5.74c-0.74,2.07-1.13,4.25-1.15,6.45
		c-0.01,2.21,0.35,4.41,1.05,6.51c0.34,1.06,0.77,2.08,1.28,3.07c0.53,0.98,1.12,1.91,1.79,2.8c1.34,1.79,2.85,3.44,4.37,5.1
		c1.56,1.63,2.97,3.4,4.22,5.28c2.48,3.83,3.95,8.24,4.25,12.8c0.15,2.28-0.01,4.58-0.46,6.82c-0.47,2.23-1.22,4.4-2.22,6.45
		c-1.93,4.1-4.34,7.91-6.59,11.77c-1.13,1.93-2.2,3.9-3.16,5.91c-0.99,2.01-1.75,4.12-2.27,6.29L13.43,104.35z"/>
	<path class="st15" d="M5.83,85.46c2.55-3.76,8.67-6.93,14.32-5C17.58,88.11,11.04,84.98,5.83,85.46"/>
	<path class="st16" d="M15.01,80.61c-2.17,0.68-4.17,1.83-5.85,3.37c-1,1-2.37,2.29-2.66,3.74c1.88-0.56,3.85-0.75,5.8-0.54
		c1.67,0.15,3.34-0.15,4.86-0.86c1.77-1,2.47-2.92,3.2-4.69c0.21-0.52,0.63-0.93,0.83-1.45c-0.21-0.11-0.43-0.19-0.65-0.26
		C18.76,79.39,16.57,80.04,15.01,80.61z M19.6,80.82c-0.92,1.69-1.21,3.73-3.14,4.64c-1.42,0.67-3.07,0.47-4.58,0.55
		c-1.24,0.19-2.49,0.25-3.74,0.18c1.4-1.34,2.86-3,4.77-3.58c1.52-0.48,3-1,4.54-1.47C17.58,81.09,19.78,80.49,19.6,80.82z"/>
</g>
<g>
	<path class="st16" d="M297.36,137.1c-0.41-0.84-0.87-1.66-1.38-2.45c1.27,2.59,2.08,5.38,2.4,8.25c0.21,1.92,0.23,3.86,0.06,5.79
		c-0.15,1.93-0.45,3.85-0.87,5.74c-0.82,3.8-1.94,7.53-3.35,11.15c-1.45,3.61-3.15,7.12-5.07,10.5c-1.69,3.05-3.6,6.07-5.44,9
		l-0.67,1.06l-3.2,5c-1.21,1.93-2.2,3.54-3.09,5.06c-2.01,3.41-3.83,6.93-5.44,10.54l-0.06,0.14c-0.42,0.85-0.75,1.74-1,2.66
		c-0.25,0.98-0.32,2-0.21,3c0,0.14,0,0.29,0.06,0.43c0-0.14,0-0.29,0-0.43c-0.04-0.98,0.1-1.96,0.4-2.9
		c0.31-0.93,0.72-1.83,1.24-2.66c1.89-3.33,4-6.69,6.22-10c1.08-1.6,2.19-3.19,3.29-4.78c3.33-4.81,6.78-9.78,9.74-15
		c1.99-3.46,3.7-7.07,5.13-10.8c0.71-1.87,1.31-3.78,1.8-5.72c0.45-1.73,1-3.77,1.28-5.84c0.33-1.98,0.53-3.99,0.58-6
		c0.04-2.01-0.14-4.02-0.51-6C298.88,140.85,298.24,138.92,297.36,137.1z"/>
	<path class="st15" d="M273.16,187.11c0.96,1.07,2.22,1.82,3.61,2.17c0.34,0.09,4.54,0.52,4.35-0.09c-0.76-2.5-1.25-4.74-3.23-6.61
		s-4.68-2.86-7.15-4c0,0.54,0,1.08,0,1.61C270.98,182.82,271.59,185.34,273.16,187.11z"/>
	<path class="st17" d="M290.48,205.37c0.19-0.13,0.37-0.26,0.55-0.41c-0.58-0.52-1.31-0.84-2.09-0.92c-0.48-0.13-1-0.24-1.46-0.33
		c-0.19,0-0.41-0.1-0.62-0.13c0.37-0.49,0.71-1,1-1.54c0.36-0.46,0.61-1.01,0.7-1.59c0.06-0.1,0.04-0.23-0.05-0.3
		c-0.31-0.14-0.66-0.2-1-0.15c-0.5,0-1-0.09-1.5-0.15c-0.12,0-0.6-0.12-1-0.14c0.2-0.53,0.33-1.08,0.37-1.64
		c0.1-0.62,0.37-1.3,0.4-1.93c0.09-0.05,0.13-0.16,0.09-0.25c-0.03-0.06-0.09-0.1-0.17-0.11c-2.09-0.17-4.63,1.62-6,3
		c-1.58,1.37-2.16,3.57-1.46,5.54c0.43,0.77,1,1.45,1.69,2c0.64,0.57,1.4,0.98,2.23,1.2c1.95,0.42,3.98,0.14,5.74-0.79
		C288.79,206.35,289.66,205.89,290.48,205.37z"/>
	<path class="st16" d="M279.37,204.4c-0.11-0.23-0.22-0.46-0.31-0.7c-0.24-0.6-0.32-1.25-0.22-1.89c0.29-1.3,0.96-2.49,1.92-3.41
		c1.81-1.75,4.37-3.44,7-3c0.23,0-0.41,2.69-0.48,2.9c-0.12,0.35-0.23,0.71-0.32,1.08c1.08,0.03,2.15,0.17,3.2,0.44l0.47,0.13
		l-0.2,0.44l-0.25,0.57c-0.33,0.79-0.7,1.55-1.13,2.29c1.23,0.23,2.45,0.56,3.62,1l0.61,0.23l-0.48,0.45
		c-0.24,0.23-0.5,0.44-0.77,0.64c-0.82,0.57-1.69,1.05-2.6,1.45c-1.84,0.98-3.97,1.27-6,0.82c-0.9-0.26-1.72-0.72-2.41-1.35
		C280.34,205.9,279.78,205.19,279.37,204.4z M286.94,196.2c-1.79,0-3.68,0.92-5.61,2.79c-1.53,1.32-2.03,3.48-1.24,5.34
		c0.35,0.63,0.81,1.2,1.34,1.69c2,2.09,5.23,1.43,7.65,0.31c0.86-0.37,1.69-0.83,2.46-1.37l0.17-0.13
		c-1.12-0.38-2.27-0.66-3.44-0.84l-0.69-0.11l0.42-0.55c0.57-0.84,1.04-1.73,1.41-2.67l0.06-0.12c-0.96-0.25-1.95-0.37-2.94-0.36
		h-0.48v-0.47c0.07-0.59,0.22-1.18,0.43-1.74C286.72,197.41,286.88,196.81,286.94,196.2z"/>
	<path class="st15" d="M298.58,165.01c-1.04,0.71-1.85,1.71-2.32,2.88c-0.12,0.28-1,3.89-0.44,3.8c2.27-0.37,4.28-0.52,6.14-2
		c1.86-1.48,3-3.73,4.34-5.75c-0.47-0.06-0.94-0.13-1.4-0.16C302.72,163.5,300.5,163.93,298.58,165.01z"/>
	<path class="st16" d="M305.31,165.82c-1.46-0.54-2.97-0.94-4.5-1.21c-3.57-0.5-5.86,4.42-5.83,7.33c2.56,0.84,5.51,0.21,7.89-0.85
		c1.25-0.54,2.44-1.21,3.55-2c0.17-0.12,2.82-2.11,2.54-2.25C307.77,166.42,306.55,166.08,305.31,165.82z M307.11,167.47l-1.34,0.56
		c-1.64,0.71-2.83,2.12-4.45,2.82s-3.95,0.47-5.74,0.56c0.39-1.69,0.73-3.43,2.16-4.58c1.3-0.91,2.93-1.25,4.49-0.94
		c1.68,0.43,3.25,1.08,4.93,1.6L307.11,167.47z"/>
	<path class="st17" d="M292.6,145.1c-0.14-0.1-0.29-0.19-0.44-0.28c-0.19,0.53-0.21,1.11-0.05,1.65c0,0.36,0.11,0.71,0.17,1.07
		c0,0.14,0,0.3,0.08,0.45c-0.43-0.11-0.86-0.19-1.3-0.24c-0.41-0.11-0.85-0.11-1.26,0c-0.08-0.01-0.17,0.04-0.19,0.12
		c-0.01,0.24,0.04,0.48,0.16,0.69c0.11,0.35,0.22,0.69,0.31,1c0.05,0.24,0.11,0.48,0.18,0.72c-0.41,0.01-0.81,0.08-1.2,0.2
		c-0.44,0.1-1,0.11-1.4,0.26c-0.06-0.05-0.15-0.04-0.2,0.03c-0.03,0.04-0.04,0.08-0.02,0.12c0.46,1.44,2.34,2.65,3.61,3.22
		c1.35,0.68,2.97,0.47,4.1-0.53c0.4-0.49,0.7-1.06,0.88-1.67c0.22-0.59,0.3-1.22,0.23-1.84c-0.25-1.42-0.99-2.7-2.09-3.63
		C293.68,145.95,293.16,145.51,292.6,145.1z"/>
</g>
</svg>
