<svg id="WW_HandDrawnFrames_CMYK" xmlns="http://www.w3.org/2000/svg" viewBox="0 0 154.72 160.41"><defs><style>.cls-1{fill:#69b94c;}.cls-2{fill:#fff;}</style></defs><title>Frames_Drawn_1</title><path class="cls-1" d="M97,46.07c11.16-17.62,33.05-22.88,48.4-17.79C162.7,34,172.93,48.8,174.32,67c1.76,23-11.23,49.72-27,66.56s-31.56,31.06-37.81,53.25l-0.84-.85c-34.37-11.11-65.64-38.52-77.13-62.47C24,107.76,18.2,90.18,20.14,72.81s13.53-33.48,29.6-40.34S86.67,29.37,97,46.07" transform="translate(-19.76 -26.43)"/><path class="cls-2" d="M106.66,179.46c0.14,0,.11-0.15-0.23-0.25l-0.3.12Z" transform="translate(-19.76 -26.43)"/><path class="cls-2" d="M104.57,178.31c-0.42,0-.93,0-0.74.24,0.45-.05.52,0.06,1,0,0.34,0.09.55,0.27,0.47,0.32a2.58,2.58,0,0,0,.72.16,3,3,0,0,0-1.53-.58C104.39,178.35,104.53,178.34,104.57,178.31Z" transform="translate(-19.76 -26.43)"/><path class="cls-2" d="M74.48,162.53l0.17,0.14Z" transform="translate(-19.76 -26.43)"/><path class="cls-2" d="M58.2,149.18a0.37,0.37,0,0,0,.2.13A0.35,0.35,0,0,0,58.2,149.18Z" transform="translate(-19.76 -26.43)"/><path class="cls-2" d="M55.77,146.52l0.14,0.16A0.45,0.45,0,0,0,55.77,146.52Z" transform="translate(-19.76 -26.43)"/><path class="cls-2" d="M74.48,162.53l-0.43-.37A1,1,0,0,0,74.48,162.53Z" transform="translate(-19.76 -26.43)"/><path class="cls-2" d="M100,177.17a1.58,1.58,0,0,0,.3.07l-0.28-.09Z" transform="translate(-19.76 -26.43)"/><path class="cls-2" d="M82.4,167.39l0.15,0.09h0.16Z" transform="translate(-19.76 -26.43)"/><path class="cls-2" d="M88.64,170.83a0.38,0.38,0,0,0-.36.09,0.63,0.63,0,0,1,.37.06A0.18,0.18,0,0,0,88.64,170.83Z" transform="translate(-19.76 -26.43)"/><path class="cls-2" d="M98.75,175.88l0.19,0.05Z" transform="translate(-19.76 -26.43)"/><path class="cls-2" d="M78.08,164.68a0.14,0.14,0,0,0,0-.09A0.1,0.1,0,0,0,78.08,164.68Z" transform="translate(-19.76 -26.43)"/><path class="cls-2" d="M91.89,45.52l0,0S91.93,45.56,91.89,45.52Z" transform="translate(-19.76 -26.43)"/><path class="cls-2" d="M96,52.89l-0.06-.1-0.1,0Z" transform="translate(-19.76 -26.43)"/><path class="cls-2" d="M51.45,141.58l0,0A0.24,0.24,0,1,0,51.45,141.58Z" transform="translate(-19.76 -26.43)"/><path class="cls-2" d="M26.29,87.86c-0.07.69-.35-1.07-0.39,0C26,87.72,26.3,88.71,26.29,87.86Z" transform="translate(-19.76 -26.43)"/><path class="cls-2" d="M99.8,177.07L99.53,177Z" transform="translate(-19.76 -26.43)"/><path class="cls-2" d="M25.9,87.82h0v0Z" transform="translate(-19.76 -26.43)"/><path class="cls-2" d="M42.14,129.72a0.45,0.45,0,0,0,0,.17A0.26,0.26,0,0,0,42.14,129.72Z" transform="translate(-19.76 -26.43)"/><path class="cls-2" d="M48.65,138.9l-0.16-.23A2.22,2.22,0,0,0,48.65,138.9Z" transform="translate(-19.76 -26.43)"/><path class="cls-2" d="M38.95,124.83a1.38,1.38,0,0,0-.18-0.37,0.39,0.39,0,0,0,0,.07A0.71,0.71,0,0,1,38.95,124.83Z" transform="translate(-19.76 -26.43)"/><path class="cls-2" d="M36.21,119.39s0,0.08,0,.12l0.09,0.17Z" transform="translate(-19.76 -26.43)"/><path class="cls-2" d="M75.54,36.21a0.92,0.92,0,0,1,.23.23C75.72,36.3,76.61,36.51,75.54,36.21Z" transform="translate(-19.76 -26.43)"/><path class="cls-2" d="M100,177.07a0.24,0.24,0,0,1-.2,0l0.19,0.07S100,177.1,100,177.07Z" transform="translate(-19.76 -26.43)"/><path class="cls-2" d="M37.59,125.28l-0.43-.89C37.27,124.65,37.43,125,37.59,125.28Z" transform="translate(-19.76 -26.43)"/><path class="cls-2" d="M35.5,48.74l0.13-.19A0.65,0.65,0,0,0,35.5,48.74Z" transform="translate(-19.76 -26.43)"/><path class="cls-2" d="M35.8,121.81a2.52,2.52,0,0,0-.12-0.55,0.43,0.43,0,0,0-.09-0.08Z" transform="translate(-19.76 -26.43)"/><path class="cls-2" d="M75.77,36.45h0Z" transform="translate(-19.76 -26.43)"/><path class="cls-2" d="M82,38.4c-0.86-.41-0.5,0-0.74.06-1-.41-0.4-0.38-0.7-0.65-0.66-.25-1.27-0.2-1.75-0.4,0,0-.11-0.1,0-0.1-0.76-.08-2.06-0.79-3-0.77a0.26,0.26,0,0,1-.09-0.09,0.3,0.3,0,0,1,0,.35,1.78,1.78,0,0,1-.9-0.26,0.64,0.64,0,0,0,.41,0l-0.44-.06c-0.32-.32.6,0.09,0.64-0.07-0.85-.15-1.84-0.3-2.48-0.47-0.08-.27,1.51.3,0.71-0.11l1,0.36c-0.66-.54.59,0.19,0-0.36a24.31,24.31,0,0,0-2.79-.61c-0.32.06,0.06,0.19-.26,0.25-1.9-.18-1.38-0.83-2.82-0.73a1.89,1.89,0,0,1-1.52.09l0.36-.2c-1.3-.19-0.77.27-2.12,0,0.25-.08,1,0,0.83-0.07-0.87-.23-0.63.11-1.31,0.08L65,34.45a39.8,39.8,0,0,0-4.45.29c0.08-.07.34-0.15,0-0.2-1,.13-2,0.3-3,0.39s-2,.35-3,0.48l-0.65.35c-0.16.05-.32,0-0.16-0.07-0.72.18,0,.13-0.31,0.32s-0.55.08-.32-0.06c-0.59.3-1.44,0.67-2.28,1.06a14.71,14.71,0,0,1-2.32,1l0.21-.16c-1,.39-0.86.91-1.8,1.23L47,39c-0.5.27-1,.55-1.51,0.87l-1.43,1c-1,.62-1.77,1.31-2.55,1.74a3.41,3.41,0,0,1-.92.89,1.56,1.56,0,0,0-.71.9,10.91,10.91,0,0,0-2.23,1.69c-0.35.35-.33,0.7-0.71,1.17l-0.16-.12-0.2.37c-0.1.19-.18,0.38-0.18,0.38l-0.45.19-0.32.48A0.54,0.54,0,0,1,36,48.29a5.5,5.5,0,0,1-1.56,1.57l-1.08,1.82A1.91,1.91,0,0,1,33.65,51c-0.48,1-.29.05-0.73,1C33,51.94,33,52.16,33,52.2a10.56,10.56,0,0,0-1.4,2.13l0-.21a18.76,18.76,0,0,0-1.18,2.15c-0.38.76-.77,1.54-1.12,2.34,0.32-.55.47-0.31,0.28,0.16l-0.27.1c0,0.35.29-.45,0.15,0.23-0.29.58-.4,0.3-0.3-0.07l-0.26.75c-0.08,0,0-.17-0.08-0.24,0,0.34-.76,1.18-0.7,1.71l-0.07,0c-0.32.82-.53,1.42-0.73,2l-0.53,1.79a2.45,2.45,0,0,1,0,1,33.44,33.44,0,0,0-1.05,3.31c-0.09.89,0.1,0.29,0.12,0.7-0.17,0-.4,1.27-0.39.6a23.82,23.82,0,0,0-.46,3.82c0.09-.2.16-0.42,0.19-0.3a1,1,0,0,1-.25.71V74.86a22.6,22.6,0,0,1-.41,3.48,11.47,11.47,0,0,0-.09,3.17l0-.1,0.24,1.77c0,0.82-.14-0.48-0.22.12a23.27,23.27,0,0,1,.26,2.42,10.59,10.59,0,0,0,.25,2.16,8.11,8.11,0,0,0,.19,2.83,19.94,19.94,0,0,1,.51,3.11l0.09-.12a1.57,1.57,0,0,1,.09.83c0.08-.06,0-0.47.12-0.23,0.88,3.48,1.64,7.24,2.76,10.75,0.41,1.28.81,0.52,1.13,2.21l-0.36-.38c1.15,2.47,2,5.18,3.22,7.53a0.87,0.87,0,0,1-.27-0.34,4.57,4.57,0,0,0,.94,1.86c0.15,0.38-.07.13,0,0.39,0.14,0.55.76,1.2,0.74,1.54a0.43,0.43,0,0,1-.16-0.21c0.22,0.3.69,1.56,0.71,1.17,0.33,0.94.88,1.69,1.12,2.45,0.39,0.38.65,1.58,1,1.6-0.29.06,0.61,1.66,1,2.16-0.18-.15.18,0.53,0,0.37,0.34,0.64.7,1.2,0.76,1,0.39,1.31,1.63,2.13,1.64,3L41,130.69l0.95,1.2,1.78,2.34c-0.27.11-1.24-1.73-1.44-1.49,1.14,1.44,1.92,2.16,3,3.61,0.26,0.39-.26-0.13-0.4-0.23,1.23,1.35,2.1,2.83,3.31,3.93a0.93,0.93,0,0,1-.28-0.21,0.94,0.94,0,0,0,.53.48l-0.23-.21c-0.19-.51,1.13.7,1.24,0.68-0.64-.16,1,1.27.05,0.93,0.16,0.14.37,0.3,0.41,0.21,0.18,0.25.21,0.36-.07,0.19,0.8,0.82.63,0.42,1.32,1.2a1,1,0,0,1-.33-0.13,6.27,6.27,0,0,1,1.46,1.27c-0.06,0,0,.1-0.21-0.09a41.65,41.65,0,0,1,3,2.9c-0.54-.15.34,0.45,0.24,0.68L56,148.49l-0.18-.33c0.56,0.54,1.17.89,1.6,1.41L57,149.24l1.08,1-0.53-.63c0.65,0.45.15-.28,0.84,0.48a10,10,0,0,1,.75.92h0a4.85,4.85,0,0,1,1.07.83c0.06,0.15-.27.12-0.23,0.22,0.42,0.1,1.4,1.16,1.9,1.31-0.15-.07-0.24,0-0.22.07L62,153.5c0.24,0.28.26,0.33,0.15,0.37,0.79,0.73-.06-0.45.82,0.49a1.58,1.58,0,0,1-.24-0.13c0.91,0.92,2,1.52,2.83,2.32,0.12,0.4-.84-0.6-0.66-0.19,1.37,1,2.91,2,4.2,3l-0.23-.2c0.39-.13.89,0.86,1.66,1.22-0.18-.1-0.33,0-0.26,0a36.72,36.72,0,0,0,3.36,2.21l-0.23,0c0.51,0.43,1.43,1,2,1.44,0.23,0,.56.29,0.42,0a10.64,10.64,0,0,0,2.6,1.86,11.17,11.17,0,0,1,2.55,1.59c-0.2-.12-0.52-0.22-0.36-0.13l1.48,0.8a1.14,1.14,0,0,0-.38-0.47,3.54,3.54,0,0,1,1,.43c-0.69-.3-0.11.21,0.12,0.45,0-.07.1-0.05,0.1-0.11,0.62,0.68.27-.18,1.21,0.58l-0.09,0a9.43,9.43,0,0,1,1.24.53c0.09,0.24-.46-0.16-0.55,0a7.37,7.37,0,0,1,1.79.79c-0.28-.09-0.64-0.29-0.91-0.39a3.7,3.7,0,0,0,1,.75l0,0,1,0.62-0.23-.19c1,0,1.54.77,2.7,1-1.12-.23-0.24.06-0.4,0.2a0.94,0.94,0,0,1,.47.41,15.81,15.81,0,0,0,1.55.62c0,0.07.52,0.25,0.34,0.34,0.66,0.26-.1-0.17,0-0.21,1.07,0.26,2.17,1.36,3.73,1.71,1.29,0.41,1.6.31,2.78,0.69,0.35,0.25-.4.08-0.4,0.08a6.86,6.86,0,0,0,1.68.71c-0.14,0,0,.09.12,0.23a2.71,2.71,0,0,1,1,.27,1.81,1.81,0,0,1-.56,0c0.57,0.19,1.19.26,1.79,0.42,0.12,0.16-.41,0-0.65,0a7.45,7.45,0,0,0,2,.43l-0.4-.21c0.24,0.08.07,0.18-.11,0.15a0.89,0.89,0,0,1-.81-0.42l0.43,0.11c-0.3-.5-1.71-0.52-2.52-0.91l0.44-.1-0.93-.15c-0.15-.14-0.22-0.33.2-0.19-0.54-.37-0.56-0.13-1-0.48,0,0,0,0,0,0l-0.61-.17c0.13,0,0-.21.32,0-1-.57-1.75-0.51-2.06-0.86l0.09,0c-1.47-.52-0.22.12-1.39-0.12l-0.51-.78-0.22.11C94.24,174,94,173.83,94,173.78c-0.59-.14.06,0.12-0.31,0.08-0.62-.49-2-0.85-2-1.2-0.31,0,.62.42-0.17,0.16-0.07-.4-0.89-0.36-1.46-0.8,0.27-.06.83,0.31,0.27-0.13-0.52.09-1.2-.67-1.74-0.91-0.13.19-1.18-.53-2.1-0.94,0.09,0-1.6-1-2.37-1.52l0,0a4.4,4.4,0,0,1-1.69-.74c0.09-.11.23-0.09,0.59,0.05l-0.56-.34a2.09,2.09,0,0,1-.74-0.28l0.23-.06a20.55,20.55,0,0,1-2.51-1.41c-0.14.1,0.53,0.85-.55,0.32,0-.1.05-0.25,0.34-0.12a1.93,1.93,0,0,1-.51-0.26l0.49,0.12a2.93,2.93,0,0,0-.63-0.26,3,3,0,0,1-.1-0.3,2,2,0,0,0,.43.28,4,4,0,0,1-.9-0.83c0,0.08-.09.14-0.38,0-0.73-.48-0.17-0.29-0.55-0.63a1.49,1.49,0,0,0-.75-0.28,0.6,0.6,0,0,1-.26-0.34c-0.42-.18-1.77-1.15-1.46-0.7l0.09,0.08-0.07,0h0c-1.36-.64-2.44-1.88-3.68-2.67l0,0c-0.75-.46-1.6-1.12-2.19-1.38-0.21-.15-0.41-0.47-0.28-0.46a6.3,6.3,0,0,1-1.35-1.06,1,1,0,0,1,.59.37,5.94,5.94,0,0,0-1.57-1.24c0.35,0.07-.38-0.57-0.74-0.79l0.4,0.47c-0.38-.27-0.69-0.54-1-0.81l0.31,0c-1.23-1.29-2.71-1.76-3.46-3-0.45-.2.66,0.72,0.23,0.57a17.8,17.8,0,0,1-1.23-1.52c-0.77-.82-1-0.46-1.79-1.33,0.06,0.16,0,.4-0.66-0.15s-0.51-.93-0.09-0.61a0.34,0.34,0,0,1,.17.23c0.21,0.16.48,0.38,0.3,0.1l-0.13,0c-0.24-.34-1.06-1.11-0.78-1-0.5-.38-0.28-0.09,0,0.25-0.68-.81-1.18-1.14-1.91-1.94,0.09,0.15.15,0.32,0,.2-1.05-1.19-.59-0.4-1.36-1.15-0.34-.52.35,0-0.47-0.75-0.4-.53,0-0.24.27-0.09a9.8,9.8,0,0,1-1.56-1.82l0.4,0.33a6.58,6.58,0,0,1-.59-0.57l0.09,0.32a1.05,1.05,0,0,1-.32-0.46c-0.29-.16,0,0.34-0.55,0a4,4,0,0,1-.82-1.12c0.78,1,.06-0.24.79,0.55a3.92,3.92,0,0,1-.5-0.58s0.06,0,.12.06c-0.66-1-.54-0.27-1.36-1.23,0.19,0,0-.36-0.18-0.5,0.33,0.39,0,.31-0.36,0a5.8,5.8,0,0,0-.9-1l0.29,0.39a3.36,3.36,0,0,1-.85-0.78c0-.09.38,0.35,0.28,0.17-0.57-.35-0.72-1.24-1.37-1.85-0.19-.37.14-0.16,0-0.48-0.72-.68-0.53-0.93-1.26-1.67,0.06,0.32.12,0.34-.44-0.14l1.13,1.27-0.85-.72c0.31,0.41.74,0.8,0.91,1.05-0.42-.33-0.35-0.32-0.3,0-0.25-.69-1-1-1.34-1.75l0.32-.2c-0.57-1.09-1.39-1.66-2.22-3l0.24,0.45a6.9,6.9,0,0,1-.92-1.18c0.13,0,0-.32-0.07-0.54-0.06.07-.59-1-0.88-1L41,128.22c-0.61-1.12-1.07-1.06-1.67-2.13,0.31,0.25.1-.27,0.61,0.38a1.51,1.51,0,0,0-.46-0.64c0-.25-0.68-0.92-0.75-1.31A1.17,1.17,0,0,1,38.3,124c0-.06.06,0,0.06,0s-0.41-.6-0.35-0.18a8.8,8.8,0,0,0-.94-2.19,8.48,8.48,0,0,1-.85-2.1c-0.42-.79-0.9-1.76-1.25-2.5,0.06,0,.06,0,0.11.12-0.36-1.07-.62-0.48-1-1.7-0.08-.68.37,0.58,0.28,0.17,0.31-.33-0.67-1.39-0.79-2.27l0.1,0.18c-0.13-.66-0.76-1.42-1.15-2.42,0,0,.05,0,0.06,0a16.7,16.7,0,0,1-1.48-2.81c0.27,0.24.25,0.41,0.33,0.17-0.19-.42-0.2.22-0.58-0.63a2.77,2.77,0,0,1,0-1.11l0.31,0.82a4.5,4.5,0,0,0-.51-1.5l0.11,0a25.37,25.37,0,0,1-1.16-2.55l0,0.16c-0.48-.67-0.08-0.67-0.5-1.35l0.16-.3c-0.21-.48-0.75-1.66-1.07-2.54a18.16,18.16,0,0,1,1,2.07,9.4,9.4,0,0,0-.71-1.88,2.43,2.43,0,0,1,.24.63,7.12,7.12,0,0,1-1-2.31c0.51,0.05-.56-2.61-0.32-3.42a13.14,13.14,0,0,1-.58-2.66L26.45,89c-0.28.79-.09-0.6-0.46-0.42a2.51,2.51,0,0,1-.09-0.71s0-.37,0-0.75L26,86.33c0.08-.36.13,0.45,0.21,0.4a2.91,2.91,0,0,1,.17-1.17c-0.13.16-.23-0.35-0.23-1l-0.1.86c-0.34-1.47.22-1.3,0-2.78l0.14,0.47c0-.38-0.07-1.09-0.13-1.79a6.42,6.42,0,0,0-.21-1.79c0-.14.16-0.31,0.18,0l0-2.91a9.35,9.35,0,0,1,.27-2.59l0.07,0.15a2.73,2.73,0,0,1,.06-1s0.08,0.15.1,0a4.16,4.16,0,0,1,.12-1.36l0,0.4c0.48-1.73.26-2.75,0.6-4.23,0.29,0.08.68-1.28,1-1.92l0,0c0.35-1,.53-1.85.77-2.68s0.45-1.66.77-2.58a14.1,14.1,0,0,0,1.31-2.4c0.52-1,1.08-2,1.61-2.83-0.2.22-.17-0.15,0-0.46s0.49-1.17.67-1l-0.09.14a5.72,5.72,0,0,0,1.23-1.58l-0.21-.29c1.44-1.3,2.83-4.12,3.89-4.58,0.25-.39.63-0.81,0.88-1.2l0.11,0.14c0.89-.9,1.41-1.26,2.5-2.38l-0.14.31c0.65-.59.51-1.11,1.13-1.64L43,43.2c0.3-.24.6-0.48,0.92-0.7l1-.61a21.69,21.69,0,0,0,1.86-1.35,0.31,0.31,0,0,1-.21.27c0.63-.36,2.49-1.24,2.1-1.43,0.12,0.18,1.43-.66,2.14-1.13l0,0.22a3.19,3.19,0,0,1,1.44-1c0.23-.06.24,0.06-0.06,0.13,0.76-.17.51-0.36,1.43-0.59l-0.29.23a2.89,2.89,0,0,0,1.06-.55A3.23,3.23,0,0,1,56,36.52a1.68,1.68,0,0,1,.95-0.41c0.07,0-.09.12-0.17,0.16a25.77,25.77,0,0,1,2.87-.46,0.18,0.18,0,0,0,.16.08c-1,.14-1.9.24-1.82,0.22,0,0.16.87,0.08,0.24,0.39a8.41,8.41,0,0,1,2.62-.62l0.11,0.05-0.08,0a2,2,0,0,0,.52,0,6.51,6.51,0,0,0,.69,0,4.35,4.35,0,0,0,1.4,0c0-.18.52-0.13,0-0.3a0.67,0.67,0,0,1-.36,0l-0.18,0,0,0-1.06.06A2.32,2.32,0,0,1,63,35.65a4.09,4.09,0,0,1,.6-0.3c0.59,0.28,1.71.46,1.86,0.62,1.31-.1,3,0.24,3.92,0a0.72,0.72,0,0,1,.54.22,4.28,4.28,0,0,0-.59,0c0.76,0,2.17.38,2.39,0.16,0.9,0.29-.56.11,0.71,0.33l-0.19,0a17.25,17.25,0,0,0,3.28.75,8.61,8.61,0,0,1,3.38,1.15,0.76,0.76,0,0,1-.28-0.19c2.88,1.36,6.16,2.54,8.5,4.74a5.19,5.19,0,0,0,1.35.77l0,0.28,0.85,0.44A4.87,4.87,0,0,1,90.66,46a5.83,5.83,0,0,0,1.42,1.57l0-.24a4.2,4.2,0,0,1,1.08,1.45,0.53,0.53,0,0,1,.31.31l-0.07.07,1,1.11c0.5,1-.42.05,0.35,1.52a3.34,3.34,0,0,0,1,1.19,1,1,0,0,1-.17-0.65l0.32,0.48c0.32,0,.81.26,0.31-1.13l-0.64-.81,0-.36L96,51.24a1.94,1.94,0,0,0-.6-1,0.83,0.83,0,0,0-.07-0.46l-0.82-.66c0-.16.45,0.23,0.11-0.35-0.38-.3,0,0.51-0.47-0.06a1.14,1.14,0,0,0-.43-0.81c0-.11.12,0,0.28,0.12a8.48,8.48,0,0,1-.58-0.68,1.7,1.7,0,0,0-.57-0.45c-0.22-.48-1.19-1.22-1-1.38a13.35,13.35,0,0,1-1.12-.79c0.87,0.31-1.3-1.15-.89-1.28a5.47,5.47,0,0,1-1.29-.81,16.26,16.26,0,0,0-1.58-1,0.6,0.6,0,0,1,.26.12,7.87,7.87,0,0,1-.89-0.84,5,5,0,0,1-1.59-.41c-0.54-.59.55,0,0.46-0.34-0.07.19-1.25-.49-1.11-0.21a1.64,1.64,0,0,1-.56-0.65c-0.23.22-.5-0.22-1-0.25-0.69-.49-0.07-0.35-1-0.66C81.22,38.15,82,38.4,82,38.4ZM60.5,34.8h0l0.45,0ZM58.67,35l0.79-.1c0.07,0.05,0,.13-0.18.15A1.52,1.52,0,0,0,58.67,35ZM62.59,36a0.56,0.56,0,0,1-.42,0l0.49,0,0,0A0.28,0.28,0,0,1,62.59,36Z" transform="translate(-19.76 -26.43)"/><path class="cls-2" d="M63.09,35.7l0.12,0-0.17,0-0.1.06h0.15Z" transform="translate(-19.76 -26.43)"/><path class="cls-2" d="M74.68,162.7l0,0,0.05,0.07Z" transform="translate(-19.76 -26.43)"/><polygon class="cls-2" points="16.99 20.66 17.02 20.69 17.1 20.55 16.99 20.66"/><path class="cls-2" d="M82.82,168.59a0.31,0.31,0,0,0,.09.11A0.39,0.39,0,0,0,82.82,168.59Z" transform="translate(-19.76 -26.43)"/><path class="cls-2" d="M86.59,170.74l0.51,0.35C86.89,170.93,86.72,170.82,86.59,170.74Z" transform="translate(-19.76 -26.43)"/><path class="cls-2" d="M89.49,172.39a0.2,0.2,0,0,0,.09,0h0Z" transform="translate(-19.76 -26.43)"/><path class="cls-2" d="M47.88,139.84l-0.09-.09C47.57,139.54,47.71,139.69,47.88,139.84Z" transform="translate(-19.76 -26.43)"/><path class="cls-2" d="M59.1,151c-0.14-.09-0.28-0.18-0.42-0.29C58.87,150.9,59,151.05,59.1,151Z" transform="translate(-19.76 -26.43)"/><polygon class="cls-2" points="17.87 98.95 17.88 98.95 17.83 98.86 17.87 98.95"/><path class="cls-2" d="M58.15,150.18a2.93,2.93,0,0,0,.53.51A4.73,4.73,0,0,0,58.15,150.18Z" transform="translate(-19.76 -26.43)"/><path class="cls-2" d="M102.75,178.22l0.15,0.06a0,0,0,0,1,0,0Z" transform="translate(-19.76 -26.43)"/><path class="cls-2" d="M102.93,178.26l0.18,0A0.41,0.41,0,0,0,102.93,178.26Z" transform="translate(-19.76 -26.43)"/><path class="cls-2" d="M103.48,178.39l-0.37-.08A0.85,0.85,0,0,0,103.48,178.39Z" transform="translate(-19.76 -26.43)"/><path class="cls-2" d="M98.66,176.55l-0.07,0A0.09,0.09,0,0,0,98.66,176.55Z" transform="translate(-19.76 -26.43)"/><path class="cls-2" d="M97.41,176a8,8,0,0,0,1.12.57l0.06,0C98.35,176.6,97.73,176.07,97.41,176Z" transform="translate(-19.76 -26.43)"/><path class="cls-2" d="M92.63,173l1,0.53c-0.15-.15-0.34-0.34.13-0.14C92.56,172.62,93.94,173.68,92.63,173Z" transform="translate(-19.76 -26.43)"/><path class="cls-2" d="M89.55,171.43c0.55,0.25,0-.09.09-0.11C89.27,171.19,89.18,171.16,89.55,171.43Z" transform="translate(-19.76 -26.43)"/><path class="cls-2" d="M68.43,158l0.15-.09C68.21,157.61,68.54,157.93,68.43,158Z" transform="translate(-19.76 -26.43)"/><polygon class="cls-2" points="44.39 129.19 44.68 129.56 44.95 129.58 44.39 129.19"/><polygon class="cls-2" points="42.99 126.46 43.16 126.57 42.54 126.11 42.99 126.46"/><path class="cls-2" d="M36.82,120.3l-0.12.21C36.86,120.78,37.09,120.75,36.82,120.3Z" transform="translate(-19.76 -26.43)"/><path class="cls-2" d="M29.72,103.59a1.73,1.73,0,0,0-.26-1C29.57,103,29.63,103.4,29.72,103.59Z" transform="translate(-19.76 -26.43)"/><polygon class="cls-2" points="15.27 25.46 15.11 25.8 15.46 25.21 15.27 25.46"/><path class="cls-2" d="M107.35,181c0.25,0,.14-0.14-0.52-0.3l-0.52.08Z" transform="translate(-19.76 -26.43)"/><path class="cls-2" d="M103,179.5c-0.79-.13-1.73-0.24-1.29.1a16.59,16.59,0,0,0,1.87.17,1.42,1.42,0,0,1,1,.41,9.73,9.73,0,0,0,1.41.28,11.31,11.31,0,0,0-3.08-.84C102.68,179.5,102.93,179.53,103,179.5Z" transform="translate(-19.76 -26.43)"/><path class="cls-2" d="M48.64,142.84l0.25,0.35C48.82,143.09,48.74,143,48.64,142.84Z" transform="translate(-19.76 -26.43)"/><path class="cls-2" d="M30.13,106.45a1.3,1.3,0,0,0,.17.43A1.22,1.22,0,0,0,30.13,106.45Z" transform="translate(-19.76 -26.43)"/><path class="cls-2" d="M28.93,99.54L29,100A1.7,1.7,0,0,0,28.93,99.54Z" transform="translate(-19.76 -26.43)"/><path class="cls-2" d="M48.64,142.84l-0.63-.9A3.74,3.74,0,0,0,48.64,142.84Z" transform="translate(-19.76 -26.43)"/><path class="cls-2" d="M94.1,177a5.9,5.9,0,0,0,.59.15L94.15,177Z" transform="translate(-19.76 -26.43)"/><path class="cls-2" d="M61.32,155.78L61.57,156l0.26,0.12Z" transform="translate(-19.76 -26.43)"/><path class="cls-2" d="M72.29,164.31a0.76,0.76,0,0,0-.59-0.11,2.1,2.1,0,0,1,.63.29A0.19,0.19,0,0,0,72.29,164.31Z" transform="translate(-19.76 -26.43)"/><path class="cls-2" d="M91.48,175.18l0.37,0.13Z" transform="translate(-19.76 -26.43)"/><path class="cls-2" d="M54.2,148.83a0.27,0.27,0,0,0,0-.14A0.17,0.17,0,0,0,54.2,148.83Z" transform="translate(-19.76 -26.43)"/><path class="cls-2" d="M114.47,166.17a0,0,0,0,0,0,0C114.42,166.23,114.42,166.26,114.47,166.17Z" transform="translate(-19.76 -26.43)"/><path class="cls-2" d="M107.4,180.61l0.06-.22a0.19,0.19,0,0,0-.08-0.07Z" transform="translate(-19.76 -26.43)"/><path class="cls-2" d="M28.07,86.81v0.06C28.08,87.21,28.08,87,28.07,86.81Z" transform="translate(-19.76 -26.43)"/><path class="cls-2" d="M102.23,46.56c-0.47.45-.19,0,0.1-0.36s0.52-.65-0.27,0C102.22,46.08,101.09,47.73,102.23,46.56Z" transform="translate(-19.76 -26.43)"/><path class="cls-2" d="M93.77,176.89l-0.53-.22Z" transform="translate(-19.76 -26.43)"/><path class="cls-2" d="M102.06,46.17h0l-0.15.14A1.6,1.6,0,0,1,102.06,46.17Z" transform="translate(-19.76 -26.43)"/><path class="cls-2" d="M34.68,58.55a1.28,1.28,0,0,0-.21.23A0.69,0.69,0,0,0,34.68,58.55Z" transform="translate(-19.76 -26.43)"/><path class="cls-2" d="M28.12,79.3l0.07-.54C28.16,79,28.14,79.15,28.12,79.3Z" transform="translate(-19.76 -26.43)"/><path class="cls-2" d="M40.88,49a5.2,5.2,0,0,0,.53-0.6l-0.1.08A2.67,2.67,0,0,1,40.88,49Z" transform="translate(-19.76 -26.43)"/><path class="cls-2" d="M49.58,41.08l-0.2.1-0.3.22Z" transform="translate(-19.76 -26.43)"/><path class="cls-2" d="M137.17,138.12a2.57,2.57,0,0,1-.5.29C136.9,138.36,135.72,139.67,137.17,138.12Z" transform="translate(-19.76 -26.43)"/><path class="cls-2" d="M94.13,176.95a0.67,0.67,0,0,1-.36-0.06L94.15,177S94.21,177,94.13,176.95Z" transform="translate(-19.76 -26.43)"/><path class="cls-2" d="M40.12,47.75s0.32-.37.65-0.71l0.66-.7C41.06,46.72,40.57,47.23,40.12,47.75Z" transform="translate(-19.76 -26.43)"/><path class="cls-2" d="M166.43,60.62L166.58,61A2.44,2.44,0,0,0,166.43,60.62Z" transform="translate(-19.76 -26.43)"/><path class="cls-2" d="M45.57,42.34c0.3-.19.62-0.37,0.93-0.59a1.42,1.42,0,0,0,.15-0.18L46.11,42C45.83,42.14,45.57,42.34,45.57,42.34Z" transform="translate(-19.76 -26.43)"/><path class="cls-2" d="M136.67,138.41h0Z" transform="translate(-19.76 -26.43)"/><path class="cls-2" d="M128.44,147.83c1.21-1.34.4-.79,0.55-1.16,1.41-1.64.8-.62,1.39-1.08,0.87-1,1.41-1.94,2.11-2.66,0.08,0,.22-0.16.1,0,0.84-1.17,2.9-3.08,3.88-4.44a0.74,0.74,0,0,1,.19-0.12c-0.27.11-.39,0.06-0.41,0a6.63,6.63,0,0,1,1.26-1.31,2.16,2.16,0,0,0-.46.63l0.54-.66c0.69-.4-0.75.89-0.63,1,1.09-1.25,2.3-2.77,3.22-3.66,0.34,0-2,2.21-.69,1.11l-1.42,1.37c1.28-.85-0.84.85,0.38,0.1,1.83-1.83,1.92-2.18,3.74-4,0.31-.51-0.26,0,0.05-0.49a11,11,0,0,1,2.24-2.26,5.43,5.43,0,0,0,1.67-1.8,6.52,6.52,0,0,1,1.63-2.42l-0.23.66c1.58-2,.6-1.36,2.33-3.36-0.2.43-1.12,1.63-.87,1.35,1.18-1.26.62-1.05,1.4-2.1l0.33-.1c0.75-1.12,1.52-2.3,2.28-3.53l2.25-3.8c0,0.18-.23.65,0.18,0.08,1.8-3.29,4-7,5.55-10.23l0.42-1.33c0.13-.29.31-0.52,0.21-0.18,0.61-1.28-.08-0.11.11-0.77s0.5-.94.36-0.45c0.4-1.19,1-2.84,1.56-4.55l0.86-2.49c0.25-.8.5-1.54,0.74-2.15l-0.1.51c0.66-1.94.33-2.31,0.93-4.1l-0.05.36c0.27-1.07.58-2.17,0.8-3.29l0.6-3.32c0.19-1.09.27-2.16,0.43-3.15l0.22-1.45,0.14-1.34a11.14,11.14,0,0,1,0-2.49,5.09,5.09,0,0,0-.22-2.21,25.8,25.8,0,0,0-.06-5.42c-0.15-1-.48-1.38-0.72-2.53l0.19-.07s-0.11-.39-0.27-0.77L166.88,63l0-.89-0.16-.54c-0.07-.27-0.17-0.53-0.17-0.53a1.62,1.62,0,0,1,.08.89c-0.22-.84-0.56-1.84-0.74-2.67a12.4,12.4,0,0,1-.31-1.49l-0.83-1.89c-0.19-.48-0.46-0.92-0.63-1.27l-0.3-.57a6.84,6.84,0,0,1,.71,1.13c-1.13-1.91,0-.45-1-2.2,0.08,0.26-.17-0.08-0.22-0.1a23.28,23.28,0,0,0-2.51-4.31l0.29,0.2a36.89,36.89,0,0,0-6.54-7.44c0.86,0.89.49,0.87-.25,0.2l-0.16-.43c-0.58-.32.74,0.75-0.37,0s-0.52-.72.1-0.31l-1.27-.92a0.77,0.77,0,0,1,.4.1,14.68,14.68,0,0,1-1.33-1.07,7.78,7.78,0,0,0-1.62-1l0-.1a36.38,36.38,0,0,0-7-3.5,8.62,8.62,0,0,1-2-.43c-1-.33-2-0.64-3.14-0.95l-1.74-.29a10.83,10.83,0,0,0-1.82-.19c-1.75,0-.52.13-1.3,0.21a4.37,4.37,0,0,0-1.19-.19c-0.47,0-.77,0-0.13-0.11a34.25,34.25,0,0,0-7.47,1.06c0.41,0,.86-0.09.64,0a3.31,3.31,0,0,1-1.44.17l0.17-.06c-0.51.14-1,.28-1.58,0.4l-1.64.47-1.69.45-1.67.55-1.63.54c-0.52.21-1,.43-1.5,0.64a13.62,13.62,0,0,0-2.53,1.35l0.16-.11s-3,1.83-2.92,1.9c-1.35.86,0.73-.64-0.31-0.06-0.75.58-1.43,1.06-2.07,1.52s-1.18.94-1.73,1.37l-0.83.64c-0.26.22-.51,0.47-0.76,0.71-0.51.48-1,1-1.54,1.56a16.4,16.4,0,0,0-3.61,4.28l-0.46.72-0.12.18,0,0.07-0.06.14-0.26.55-0.13.24a0.2,0.2,0,0,1,0-.13,0.61,0.61,0,0,1,0-.25l-0.07.11a0.12,0.12,0,0,1-.06-0.06,2.83,2.83,0,0,1-.14-0.36,6,6,0,0,0-.24-0.72c0,0.12.31,0.89,0,.43a27.11,27.11,0,0,0-7-8.39,38.83,38.83,0,0,0-9.47-5.69c-2.51-.94-1.59,0-4.74-1.2h0.49l0.49,0a39.31,39.31,0,0,0-8.13-1.09,27.65,27.65,0,0,0-8,1,3,3,0,0,1,.79-0.3,12.07,12.07,0,0,0-4,1.24,1.29,1.29,0,0,1-.72.07c-1.1.3-2.52,1.26-3.11,1.4a1.54,1.54,0,0,1,.44-0.29c-0.64.35-3,1.58-2.31,1.4a38.59,38.59,0,0,0-4.43,3c-0.7.76-2.63,2.13-2.66,2.56-0.12-.33-2.62,2.26-3.31,3.29,0.2-.37-0.77.76-0.54,0.31-0.93,1.07-1.67,2.14-1.41,2-1.9,1.85-2.82,4.41-4,5.42A60.73,60.73,0,0,0,29.9,66.23a5.81,5.81,0,0,1,.57-2c0.36-.94.73-1.84,0.56-1.82a43.33,43.33,0,0,0-1.42,4.4c-0.39,1.36-.72,2.72-1.14,4.44-0.25.88,0-.54,0-0.85-0.33,1.76-.81,3.42-1,5.09a33.13,33.13,0,0,0-.56,4.86,3.31,3.31,0,0,1,0-.68,3.39,3.39,0,0,0,0,1.39l0-.61c0.27-1,.18,2.5.27,2.61-0.35-1.08-.18,3.11-0.61,1.42a1.25,1.25,0,0,0,.16.84c0,0.61-.09.8-0.18,0.18a15.25,15.25,0,0,0,.1,1.82c0,0.33.06,0.64,0.11,1.65a3.38,3.38,0,0,1-.19-0.62,22.19,22.19,0,0,1,.36,3.76c0-.1-0.08.1-0.1-0.41a36.8,36.8,0,0,0,.52,4c0.17,1.28.44,2.57,0.65,4.16-0.43-.89.09,1.1-0.11,1.31L28,101.94l0.22,0.84,0-.7c0.33,1.48.79,2.75,1,4L28.88,105l0.33,1.38,0.41,1.36L29.44,107c-0.09-.39-0.16-0.79-0.16-0.79,0.51,1.45.24-.23,0.72,1.72-0.14-.39.41,1.45,0.49,2.25h0c0.26,0.7.6,1.4,0.9,2.48,0,0.3-.32-0.14-0.31.06,0.43,0.64,1.18,3.35,1.77,4.13-0.16-.27-0.28-0.24-0.27-0.14L33,117.22c0.21,0.67.23,0.77,0.09,0.71,0.76,2,0-.74.84,1.64-0.08-.18-0.07-0.08-0.25-0.45a36,36,0,0,0,1.5,3.34c0.51,1.08,1,2.12,1.54,3.15,0.1,0.71-1-1.77-.8-1,0.8,1.47,1.62,3,2.52,4.45L41,133.34l-0.3-.52c0.53,0.19,1.17,2.1,2.19,3.38-0.24-.32-0.44-0.33-0.35-0.26a32.89,32.89,0,0,0,2.05,2.84l1.25,1.6,1.51,1.77-0.33-.27c0.37,0.53.9,1.21,1.43,1.9l1.58,1.88c0.34,0.26.85,0.88,0.63,0.42a30.24,30.24,0,0,0,4.14,4.66A55.37,55.37,0,0,1,59,154.87c-0.34-.31-0.87-0.68-0.59-0.43l2.49,2.13a3.71,3.71,0,0,0-.69-0.9,13.16,13.16,0,0,1,1.7,1.32c-1.15-.91-0.16.2,0.28,0.66-0.05-.1.15,0,0.14-0.07,1.15,1.29.41,0,2.09,1.58l-0.14,0c0.7,0.52,1.37,1,2.11,1.55,0.21,0.37-.79-0.5-0.92-0.43a29.06,29.06,0,0,1,3.12,2.18L67,161.34A13.79,13.79,0,0,0,68.82,163l-0.07-.06s0.43,0.37.88,0.7l0.89,0.68-0.44-.37c1.62,0.57,2.79,1.9,4.85,2.82-2-.93-0.39-0.06-0.63,0a3.17,3.17,0,0,1,.91.78c1,0.42,1.41,1.08,2.83,1.61,0,0.09,1,.57.69,0.59,1.21,0.65-.23-0.26-0.09-0.27,1,0.42,2,1.14,3.18,1.81a28.14,28.14,0,0,0,3.89,2c2.44,1,2.93,1.07,5.21,1.9,0.72,0.41-.71,0-0.71,0a26.14,26.14,0,0,0,3.29,1.37c-0.25,0,0,.1.3,0.31a11.31,11.31,0,0,1,1.92.56,5.6,5.6,0,0,1-1-.11l3.43,1c0.27,0.21-.75-0.1-1.18-0.18a19.71,19.71,0,0,0,3.87,1L100,178.7c0.48,0.14.2,0.22-.16,0.14a2.86,2.86,0,0,1-1.64-.65s0.21,0.07.42,0.12L99,178.42c-0.74-.59-3.3-1.12-4.95-1.73h0.78L94,176.48l-0.87-.24c-0.33-.21-0.51-0.45.3-0.15-1.11-.6-1.06-0.34-2-0.88-0.1-.07,0-0.06.06,0l-1.16-.4c0.24,0-.11-0.25.56,0.07-2-1-3.29-1.29-4-1.8l0.17,0.06c-2.79-1.22-.37.09-2.5-0.75l-1.14-1.14-0.36,0a1.62,1.62,0,0,1-.68-0.47c-1.1-.42.14,0.17-0.52,0-1.25-.87-3.66-2-3.8-2.43-0.55-.15,1.19.82-0.26,0.1-0.24-.5-1.61-0.94-2.7-1.8,0.45,0.08,1.5.86,0.42,0-0.86-.2-2.24-1.48-3.21-2.12-0.16.14-2.16-1.32-3.75-2.46,0.15,0-2.88-2.29-4.19-3.55h0.07a13.81,13.81,0,0,1-2.89-2.13,1.34,1.34,0,0,1,.94.49l-1-.85a7.61,7.61,0,0,1-1.23-.92l0.36,0.09c-0.63-.57-1.32-1.09-2-1.7s-1.4-1.29-2.14-2.09c-0.2,0,.93,1.55-0.81,0,0-.12,0-0.29.51,0.11a7.27,7.27,0,0,1-.82-0.75l0.77,0.54a11.89,11.89,0,0,0-1-.85c0.1-.08-0.34-0.49-0.19-0.48a6.27,6.27,0,0,0,.69.72,13.73,13.73,0,0,1-1.48-1.84c0,0.11-.12.12-0.59-0.35-1.18-1.24-.29-0.53-0.92-1.29-0.36-.23-1-1.13-1.15-1a1.93,1.93,0,0,1-.41-0.68c-0.32-.31-1-1.08-1.53-1.67s-0.89-1-.67-0.56l0.13,0.19-0.1-.11h0c-1-1.08-1.89-2.27-2.78-3.47s-1.68-2.48-2.55-3.62l0.05,0c-1-1.39-2.13-3.16-2.89-4.13-0.26-.44-0.5-1.09-0.33-0.94a24,24,0,0,1-1.7-2.88,3.68,3.68,0,0,1,.75,1.13c-0.82-1.49-.88-1.89-1.88-3.43,0.43,0.48-.41-1.23-0.82-1.92l0.45,1.11a20.24,20.24,0,0,1-1.1-2.25l0.37,0.3a47,47,0,0,0-2-4.31A17.88,17.88,0,0,1,33,115c-0.47-.81.58,1.8,0.13,1.09a35.85,35.85,0,0,1-.94-3.66c-0.61-2.1-.94-1.84-1.49-4.07,0,0.3-.11.63-0.65-1s-0.17-2,.1-1a1.14,1.14,0,0,1,.11.54c0.17,0.49.38,1.13,0.29,0.5l-0.13-.18c-0.18-.77-0.63-2.92-0.41-2.44-0.33-1.16-.23-0.48-0.08.41-0.32-2-.76-3.11-1-5.21,0,0.34,0,.66-0.08.33-0.41-3.07-.38-1.32-0.73-3.39,0-1.2.32,0.39,0-1.7-0.06-1.29.17-.29,0.29,0.21a19.78,19.78,0,0,1-.28-2.63c0-.79,0-1.49,0-2l0.11,1c-0.06-.6-0.08-1.09-0.11-1.59l-0.12.58a3.8,3.8,0,0,1,0-1.08c-0.13-.61-0.23.48-0.42-0.73a10.75,10.75,0,0,1,.1-2.68C27.68,88.72,28,86,28,88.06a10.12,10.12,0,0,1,0-1.49c0-.09,0,0.08,0,0.25,0.23-2.37-.2-1.09-0.15-3.56,0.09,0.32.26-.56,0.27-1-0.09,1-.23.46-0.24-0.45a21.82,21.82,0,0,0,.17-2.54L28,80.24A8.73,8.73,0,0,1,28.1,78c0.1-.08-0.09,1,0,0.61,0-1.24.64-2.71,0.77-4.41,0.24-.76.22,0,0.43-0.7,0.29-1.89.61-2,1-3.95-0.28.52-.31,0.62,0-0.77,0,0-.23.79-0.37,1.61L29.53,72l0.27-2.12c-0.23,1-.39,2.08-0.55,2.65,0.11-1,.12-0.9-0.11-0.47,0.53-1.28.46-2.69,1.09-4.16l0.35,0.16c0.87-2.19,1.16-4,2.53-6.81l-0.47.87a17.64,17.64,0,0,1,1.17-2.65,1.76,1.76,0,0,0,.66-0.73,24.8,24.8,0,0,0,1-2.32l0.42-.55,0.44-.54c1.39-2,1.26-2.57,2.73-4.47-0.33.65,0.39-.16-0.48,1.18a6.79,6.79,0,0,0,.87-1.25c0.34-.33,1.26-1.83,1.83-2.3a3.73,3.73,0,0,1,.77-1.11c0.08-.06,0,0,0,0s0.9-1.09.26-.61c1-.75,2.2-2,3.46-3.09a17,17,0,0,1,3.54-2.58A32.59,32.59,0,0,1,54,38.42a0.33,0.33,0,0,1-.25.18c2-.78,1.06-0.92,3.44-1.66,1.26-.22-1.2.54-0.43,0.36,0.44,0.23,2.82-1,4.51-1.06l-0.39.1c1.26-.1,3-0.71,5.1-0.76,0,0-.1,0,0,0.06a22.52,22.52,0,0,1,6.11,0c-0.64.05-.91-0.06-0.56,0.16,0.89,0.13-.23-0.31,1.56-0.05a8,8,0,0,1,1.92.79l-1.64-.38c0.79,0.41,2.12.48,3,.81L76.2,37a29,29,0,0,1,5.13,1.69l-0.23-.2c1.47,0.47,1.1.66,2.52,1.24l0.28,0.44a30.24,30.24,0,0,1,4.59,2.71c-0.46-.24-1.14-0.64-1.83-1.07s-1.46-.81-2-1.11l1.8,1.12a13.7,13.7,0,0,0,1.5.94,9,9,0,0,1-1.08-.73,15.44,15.44,0,0,1,3.9,2.82c-0.29.06,0.64,0.95,1.59,2.1,0.5,0.56.94,1.24,1.35,1.81a7.92,7.92,0,0,1,.73,1.5A8.41,8.41,0,0,1,95,51.41l0.35,0.7,0.37,1,0.71,2.06c0.05,0.32.14,0,.21-0.13l0.22-.44,0.46-.89,0.95-1.83,0.24-.47a2.48,2.48,0,0,1,.21-0.32l0.4-.57a24.48,24.48,0,0,1,1.71-2.34c-1.23.85,0.76-.9,0.3-1a7.79,7.79,0,0,1,.91-1.06l2.24-1.82c0.56-.38-0.59.69-0.47,0.69a3.26,3.26,0,0,1,1.08-.85,2,2,0,0,0,.77-0.4c-0.31.07,0.44-.6,1.39-1.29l-1.41.89a7.59,7.59,0,0,1,2.19-1.58,12.47,12.47,0,0,0,2.3-1.44s-0.71.6-.71,0.6c0.58-.48,1.81-1.1,3-1.81s2.44-1.26,3-1.73c0.26-.07.62-0.12,0,0.18,0.81-.38,1.71-0.68,2.59-1.06s1.8-.7,2.7-1a25.69,25.69,0,0,1,4.93-1.22l-0.25.14a8.89,8.89,0,0,1,2-.37s-0.25.13,0.05,0.09l1.11-.25a9.13,9.13,0,0,1,1.52-.13l-0.74.15c0.87,0,1.63-.06,2.34-0.13s1.35,0,2-.06a20.68,20.68,0,0,1,3.92.17,3.69,3.69,0,0,0,1.41.65l1.26,0.4c0.42,0.15.81,0.33,1.13,0.45l-0.06,0c1.9,0.68,3.47,1.38,5,2.08l2.26,1.15,2.28,1.42c0.84,0.84,2.38,2.06,3.9,3.58,0.79,0.73,1.49,1.61,2.23,2.4s1.29,1.69,1.84,2.45c-0.31-.48.24-0.06,0.62,0.49C159.89,49.82,161,51,160.67,51l-0.08-.14-0.09-.13a7,7,0,0,0,.67,1.53c0.34,0.62.76,1.31,1,2l0.4,0.06c0.29,0.89.72,1.87,1.09,2.92l0.62,1.57,0.54,1.6a24.26,24.26,0,0,1,.85,2.95c0.1,0.44.19,0.85,0.25,1.21a6.71,6.71,0,0,1,0,.94c0.22,0.87.46,2,.61,2.83l-0.18,0c0.26,2.46.25,3.7,0.33,6.75l-0.11-.62c-0.08,1.72.43,2.19,0.37,3.8l-0.14.23-0.16.23c-0.19,1.5-.36,3-0.64,4.5s-0.51,3-.77,4.46a0.92,0.92,0,0,1,0-.64l-0.81,3.12c-0.26,1.1-.52,2-0.25,1.77-0.26,0-.87,3-1.38,4.57l-0.08-.3a15.35,15.35,0,0,1-.82,3.28c-0.2.42-.29,0.32,0-0.23-0.67,1.38-.3,1.16-1.1,2.85l0.16-.68a10.67,10.67,0,0,0-.74,2.2,12.09,12.09,0,0,1-1.55,2.83,5.05,5.05,0,0,1-.73,1.87c-0.11.08,0-.23,0.07-0.39a30.06,30.06,0,0,0-1.43,2.83,14.25,14.25,0,0,1-1.27,2.22,0.46,0.46,0,0,0-.24.21l1.33-2.3c0.31-.59.49-0.92,0.46-0.85s-0.95,1.4-.53.11a33.83,33.83,0,0,1-2.35,4.77,1.21,1.21,0,0,1-.16.15l0.08-.15a7.9,7.9,0,0,0-.53.89c-0.3.43-.5,0.7-0.77,1.13a24.86,24.86,0,0,0-1.58,2.28c0.19,0-.46.93,0.25,0.17a2.44,2.44,0,0,1,.38-0.61c0.07-.11.15-0.23,0.19-0.31l0,0.06L153,116.7a8.2,8.2,0,0,1-1.17,2c-0.15.42-.32,0.88-0.43,1.13-0.86.81-2.23,2.57-2.56,2.71-0.74,1-1.6,2.3-2.45,3.4a25.88,25.88,0,0,0-2,2.87,2.51,2.51,0,0,1-.85.73c0.26-.34.59-0.71,0.71-0.91a40.87,40.87,0,0,0-2.94,3.66c-1.35,1.27.56-.9-1.16,1l0.18-.3c-3.7,3.38-5.19,6.29-9.34,10a2.64,2.64,0,0,1,.51-0.42c-4.5,4.47-8.66,9.77-12.67,14.59a13.53,13.53,0,0,0-1.62,2.61l-0.38.21s-0.22.42-.42,0.84l-0.41.84a16.23,16.23,0,0,1-1,1.57l-1,1.49c-0.35.51-.72,1-1.08,1.63a18.68,18.68,0,0,0-1,2.06l0.31-.32c-0.28.53-.72,1.37-1,2.07a3,3,0,0,1-.6,1.13,2,2,0,0,1-.29.81h-0.11s-0.28.69-.52,1.38l-0.45,1.41c-0.86,2.11-.29-0.49-1.41,2.66-0.34,1.2-.78,3.46-0.58,3a3.65,3.65,0,0,1,.55-1.21l-0.29,1.09c0.22,0.28.26,1.17,1.28-1.38l0.4-1.88,0.35-.53s-0.16.37-.27,0.76l-0.24.77a9.63,9.63,0,0,0,.64-2,2.38,2.38,0,0,0,.43-0.69l0.41-1.86c0.2-.16-0.11.86,0.44-0.27,0.24-.85-0.59.67-0.07-0.69a3.86,3.86,0,0,0,.83-1.52c0.13-.11.08,0.12-0.06,0.52,0.16-.45.4-1,0.63-1.56a6.43,6.43,0,0,0,.51-1.24,14.59,14.59,0,0,0,1-1.7,1.62,1.62,0,0,1,.72-0.94,20,20,0,0,1,1.09-2.33c-0.57,1.53,1.79-2.76,1.87-2.2a11.63,11.63,0,0,1,1.46-2.46c0.66-1,1.44-2,2-2.91a2.08,2.08,0,0,1-.28.46c0.74-.93,1-1.14,1.53-1.71-0.1-.28,1-1.74,1.54-2.61,1.11-1-.34.87,0.13,0.66-0.21-.08,1.46-2.07,1-1.8a5,5,0,0,1,1.21-1c-0.1-.35.63-0.83,1.11-1.64,1.19-1.1.5-.11,1.61-1.5C129.41,146.58,128.44,147.83,128.44,147.83Zm26.79-32.78h0c-0.18.32-.35,0.58-0.45,0.75C154.87,115.65,155,115.44,155.23,115.05ZM157,112l-0.78,1.34c-0.12.08-.1-0.07,0.08-0.38A5.38,5.38,0,0,0,157,112Zm-4.94,5.8a2.08,2.08,0,0,1,.48-0.67l-0.5.84,0,0.07A0.64,0.64,0,0,1,152.07,117.75Z" transform="translate(-19.76 -26.43)"/><path class="cls-2" d="M151.72,118.72l-0.12.2,0.22-.25,0.07-.19Z" transform="translate(-19.76 -26.43)"/><path class="cls-2" d="M48.93,143.25l0-.06a1.05,1.05,0,0,1,.08.14Z" transform="translate(-19.76 -26.43)"/><polygon class="cls-2" points="147.72 38.08 147.68 38.09 147.77 38.39 147.72 38.08"/><path class="cls-2" d="M62.2,157.65a1,1,0,0,0,.17.2A1.26,1.26,0,0,0,62.2,157.65Z" transform="translate(-19.76 -26.43)"/><path class="cls-2" d="M68.82,163l0.46,0.39,0.47,0.37Z" transform="translate(-19.76 -26.43)"/><path class="cls-2" d="M74.15,166.73a0.3,0.3,0,0,0,.15,0H74.15Z" transform="translate(-19.76 -26.43)"/><path class="cls-2" d="M26.9,79.62V79.37C26.93,78.77,26.91,79.17,26.9,79.62Z" transform="translate(-19.76 -26.43)"/><path class="cls-2" d="M30.49,110.18c-0.12-.31-0.24-0.61-0.35-0.93A1.76,1.76,0,0,0,30.49,110.18Z" transform="translate(-19.76 -26.43)"/><path class="cls-2" d="M40,47.91h0l0.14-.16Z" transform="translate(-19.76 -26.43)"/><path class="cls-2" d="M29.75,107.87a11.15,11.15,0,0,0,.39,1.38C30,108.81,29.9,108.3,29.75,107.87Z" transform="translate(-19.76 -26.43)"/><path class="cls-2" d="M99.6,179l0.3,0.1s0,0,0,0Z" transform="translate(-19.76 -26.43)"/><path class="cls-2" d="M99.94,179.08l0.34,0.08A1.52,1.52,0,0,0,99.94,179.08Z" transform="translate(-19.76 -26.43)"/><path class="cls-2" d="M101,179.34l-0.72-.18A3.16,3.16,0,0,0,101,179.34Z" transform="translate(-19.76 -26.43)"/><path class="cls-2" d="M91.52,175.91l-0.12,0A0.13,0.13,0,0,0,91.52,175.91Z" transform="translate(-19.76 -26.43)"/><path class="cls-2" d="M89.09,174.9a19.12,19.12,0,0,0,2.21,1.05l0.1,0C91,175.85,89.66,175.07,89.09,174.9Z" transform="translate(-19.76 -26.43)"/><path class="cls-2" d="M79.72,169.21l1.87,1.14c-0.3-.25-0.69-0.57.18-0.11C79.48,168.7,82.19,170.66,79.72,169.21Z" transform="translate(-19.76 -26.43)"/><path class="cls-2" d="M74,165.58c1,0.6,0-.09.12-0.09C73.45,165.14,73.29,165.06,74,165.58Z" transform="translate(-19.76 -26.43)"/><path class="cls-2" d="M40.27,130.66l0.2,0C40,129.91,40.41,130.71,40.27,130.66Z" transform="translate(-19.76 -26.43)"/><polygon class="cls-2" points="15.38 96.33 15.66 97.17 15.97 97.5 15.38 96.33"/><polygon class="cls-2" points="14.24 90.78 14.41 91.14 13.8 89.76 14.24 90.78"/><path class="cls-2" d="M48,42.43H47.63C47.18,42.85,47.22,43.1,48,42.43Z" transform="translate(-19.76 -26.43)"/><path class="cls-2" d="M81,38.68a6.35,6.35,0,0,0,1.75.94C82,39.26,81.36,38.84,81,38.68Z" transform="translate(-19.76 -26.43)"/><path class="cls-2" d="M163.14,56l-0.36-.61L163.09,56c0.15,0.3.28,0.6,0.28,0.6l-0.11-.29C163.21,56.12,163.14,56,163.14,56Z" transform="translate(-19.76 -26.43)"/><path class="cls-2" d="M110.87,182c0.05,0.12.18,0.06,0.17-.28l-0.2-.25Z" transform="translate(-19.76 -26.43)"/><path class="cls-2" d="M111.35,179.7c-0.09-.4-0.23-0.88-0.45-0.63,0.18,0.41.1,0.5,0.32,0.94,0,0.34-.09.59-0.17,0.53a2.46,2.46,0,0,0,.06.72,2.86,2.86,0,0,0,.1-1.59C111.26,179.54,111.31,179.67,111.35,179.7Z" transform="translate(-19.76 -26.43)"/><path class="cls-2" d="M123.49,149.51l-0.15.15Z" transform="translate(-19.76 -26.43)"/><path class="cls-2" d="M137.53,134.52a0.35,0.35,0,0,0-.13.2A0.33,0.33,0,0,0,137.53,134.52Z" transform="translate(-19.76 -26.43)"/><path class="cls-2" d="M140.16,132.18l-0.16.14A0.44,0.44,0,0,0,140.16,132.18Z" transform="translate(-19.76 -26.43)"/><path class="cls-2" d="M123.49,149.51l0.4-.38A1,1,0,0,0,123.49,149.51Z" transform="translate(-19.76 -26.43)"/><path class="cls-2" d="M111.26,175.07a1.53,1.53,0,0,0,0,.31v-0.28Z" transform="translate(-19.76 -26.43)"/><path class="cls-2" d="M118.48,157l-0.08.14a0.83,0.83,0,0,0,0,.16Z" transform="translate(-19.76 -26.43)"/><path class="cls-2" d="M115.43,163.18a0.38,0.38,0,0,0-.13-0.35,0.61,0.61,0,0,1,0,.36A0.18,0.18,0,0,0,115.43,163.18Z" transform="translate(-19.76 -26.43)"/><path class="cls-2" d="M112.19,173.62v0Z" transform="translate(-19.76 -26.43)"/><path class="cls-2" d="M121.21,152.89a0.14,0.14,0,0,0,.09,0A0.1,0.1,0,0,0,121.21,152.89Z" transform="translate(-19.76 -26.43)"/><path class="cls-2" d="M102.21,45.44l0,0S102.18,45.48,102.21,45.44Z" transform="translate(-19.76 -26.43)"/><path class="cls-2" d="M97.09,51.6l0-.1a0.31,0.31,0,0,0-.08-0.07Z" transform="translate(-19.76 -26.43)"/><path class="cls-2" d="M144.81,127.73l0,0A0.24,0.24,0,1,0,144.81,127.73Z" transform="translate(-19.76 -26.43)"/><path class="cls-2" d="M170.84,75.8c-0.2.66-.15-1.11-0.38-0.11C170.54,75.6,170.69,76.64,170.84,75.8Z" transform="translate(-19.76 -26.43)"/><path class="cls-2" d="M111.3,174.89l0-.29A2.09,2.09,0,0,0,111.3,174.89Z" transform="translate(-19.76 -26.43)"/><path class="cls-2" d="M170.46,75.7h0l0,0.1Z" transform="translate(-19.76 -26.43)"/><path class="cls-2" d="M154.69,116.61a0.43,0.43,0,0,0-.16.07A0.25,0.25,0,0,0,154.69,116.61Z" transform="translate(-19.76 -26.43)"/><path class="cls-2" d="M147.16,124.73l0.2-.18Z" transform="translate(-19.76 -26.43)"/><path class="cls-2" d="M158,111.91a1.34,1.34,0,0,0,.25-0.32l-0.05,0A0.7,0.7,0,0,1,158,111.91Z" transform="translate(-19.76 -26.43)"/><path class="cls-2" d="M161.39,106.92l-0.09.08-0.09.17Z" transform="translate(-19.76 -26.43)"/><path class="cls-2" d="M116.31,35a0.9,0.9,0,0,1-.31,0C116.13,35,115.36,35.37,116.31,35Z" transform="translate(-19.76 -26.43)"/><path class="cls-2" d="M111.36,175.08a0.24,0.24,0,0,1-.05-0.19l0,0.2A0,0,0,0,0,111.36,175.08Z" transform="translate(-19.76 -26.43)"/><path class="cls-2" d="M157,110.88l0.56-.75C157.44,110.34,157.24,110.61,157,110.88Z" transform="translate(-19.76 -26.43)"/><path class="cls-2" d="M156,40.27l-0.18-.11A0.58,0.58,0,0,0,156,40.27Z" transform="translate(-19.76 -26.43)"/><path class="cls-2" d="M159.15,107.83a2.32,2.32,0,0,0,.39-0.38,0.39,0.39,0,0,0,0-.12Z" transform="translate(-19.76 -26.43)"/><path class="cls-2" d="M116,34.92h0Z" transform="translate(-19.76 -26.43)"/><path class="cls-2" d="M110.8,38.13c0.74-.47.23-0.42,0.32-0.63,0.87-.61.51-0.1,0.88-0.18a12,12,0,0,1,1.32-1c0.05,0,.14,0,0.06.08,0.53-.5,1.85-0.92,2.5-1.46a0.25,0.25,0,0,1,.12,0,0.32,0.32,0,0,1-.24-0.25,1.64,1.64,0,0,1,.84-0.33,0.59,0.59,0,0,0-.32.24l0.37-.22c0.43,0.07-.5.28-0.44,0.43a10.89,10.89,0,0,1,2.18-1c0.19,0.16-1.36.54-.51,0.45l-0.47.12-0.46.14c0.81,0-.55.19,0.21,0.28,1.2-.38,1.29-0.59,2.51-0.91,0.24-.2-0.14-0.14.1-0.34,1.68-.73,1.51.15,2.71-0.46a1.67,1.67,0,0,1,1.33-.56l-0.27.31c1.21-.23.62-0.48,1.93-0.54-0.21.13-.94,0.24-0.75,0.24,0.86,0.05.56-.23,1.2-0.34l0.16,0.19c1.29-.21,2.71-0.53,4.16-0.63-0.08.07-.32,0.15,0,0.2a21.2,21.2,0,0,1,5.64.24l0.69-.13c0.16,0,.28.11,0.11,0.13,0.67,0.14,0-.12.38-0.15s0.5,0.18.25,0.2A13.31,13.31,0,0,1,142,33h-0.25c0.94,0.31,1.18-.06,2,0.37l-0.18,0c1,0.37,2.07.76,3.06,1.21a12,12,0,0,1,2.56,1.4,2.45,2.45,0,0,1,1.11.48,1.4,1.4,0,0,0,1,.39c1,0.78.65,0.64,2,1.71,0.37,0.28.72,0.17,1.2,0.49l-0.1.17,0.74,0.3,0.19,0.44,0.46,0.28a0.49,0.49,0,0,1-.25-0.37A4,4,0,0,1,157,41.28l0.8,0.59,0.76,0.63a1.7,1.7,0,0,1-.56-0.34c0.89,0.6,0,.28.8,0.83-0.06-.12.13,0,0.18,0a17.92,17.92,0,0,0,1.57,1.8l-0.21,0c0.49,0.54,1,1.15,1.45,1.77a19.72,19.72,0,0,1,1.43,2c-0.27-.52,0-0.54.28-0.15l-0.07.27c0.28,0.19-.21-0.46.27,0,0.32,0.53,0,.47-0.22.21l0.24,0.29,0.22,0.31c0,0.07-.15-0.07-0.24-0.06,0.26,0.2.45,1.22,0.87,1.49l0,0.07c0.73,1.46,1.16,2.09,1.65,3.33a2.21,2.21,0,0,1,.62.78c0.3,0.95.52,2,.87,3.17,0.3,0.78.21,0.19,0.41,0.53-0.14.1,0.18,1.25-.09,0.68,0.21,0.68.31,1.13,0.43,1.62l0.51,1.9c0-.21,0-0.43.1-0.33a0.87,0.87,0,0,1,0,.72l0-.08a11.78,11.78,0,0,1,.32,3.3,15.64,15.64,0,0,0,.16,3l0-.09,0.12,0.84c0.07,0.42.11,0.84,0.11,0.84,0,0.78-.12-0.46-0.22.11a12.1,12.1,0,0,1,.09,2.31,13.75,13.75,0,0,0-.07,2.07c-0.52,1.12-.31,4.11-0.85,5.62l0.12-.07a1.42,1.42,0,0,1-.2.77c0.09,0,.16-0.42.19-0.16A51.82,51.82,0,0,1,166.14,92c-0.41,1.21.37,0.88-.4,2.34l0-.5a61.91,61.91,0,0,1-2.67,7.36,0.81,0.81,0,0,1,.06-0.41,4.88,4.88,0,0,0-.75,1.85c-0.19.35-.14,0-0.31,0.22a13.46,13.46,0,0,1-.7,1.47,0.43,0.43,0,0,1,.06-0.25c-0.1.34-.82,1.4-0.5,1.2a23.83,23.83,0,0,1-1.35,2.19c-0.1.52-1,1.32-.82,1.6-0.2-.22-1.16,1.23-1.4,1.8,0-.22-0.38.37-0.34,0.11-0.39.57-.75,1.09-0.55,1.09-1,.8-1.33,2.21-2.14,2.48-1.16,1.7-2.33,3.21-3.49,4.65-0.16-.23,1.31-1.57,1-1.7a29.5,29.5,0,0,1-2.76,3.58c-0.33.31,0.08-.28,0.14-0.42-1.08,1.39-2.31,2.49-3.26,3.73a0.87,0.87,0,0,1,.17-0.29,0.88,0.88,0,0,0-.41.56l0.18-.24c0.48-.23-0.55,1.16-0.52,1.27,0.09-.64-1.13,1.06-0.9.13-0.12.16-.25,0.39-0.16,0.42-0.23.2-.33,0.23-0.19-0.05a15.79,15.79,0,0,1-1,1.38,1.09,1.09,0,0,1,.1-0.33,5.49,5.49,0,0,1-1.15,1.47c0-.06-0.1,0,0.08-0.21a36.63,36.63,0,0,1-2.7,3.06c0.13-.53-0.45.32-0.67,0.22l-0.55.66,0.32-.16c-0.53.53-.87,1.13-1.38,1.53l0.32-.47-1,1,0.62-.51c-0.45.63,0.27,0.15-.48,0.82a9.38,9.38,0,0,1-.9.71h0a3.94,3.94,0,0,1-.85,1c-0.16.05-.11-0.27-0.21-0.24-0.11.4-1.19,1.3-1.36,1.78,0.07-.15,0-0.24-0.06-0.22l-0.1.33c-0.28.21-.33,0.23-0.37,0.12-0.75.73,0.45,0-.51,0.77a1.52,1.52,0,0,1,.13-0.23c-0.91.86-1.61,1.8-2.45,2.59-0.41.08,0.65-.77,0.23-0.63-1.11,1.23-2.14,2.7-3.26,3.85l0.22-.2c0.1,0.39-.93.77-1.34,1.49,0.11-.17,0-0.32,0-0.26a26.57,26.57,0,0,0-2.39,3.11l0.06-.21c-0.48.45-1.11,1.3-1.56,1.84-0.06.22-.31,0.53-0.06,0.41-1.72,1.43-2.19,3.49-3.57,4.88,0.12-.19.24-0.5,0.13-0.35,0,0-.21.35-0.4,0.72l-0.38.73a1.09,1.09,0,0,0,.46-0.38,3.39,3.39,0,0,1-.41,1c0.29-.68-0.21-0.11-0.44.12,0.07,0,.05.09,0.11,0.09-0.65.61,0.18,0.27-.52,1.21l0-.09a8.92,8.92,0,0,1-.5,1.21c-0.24.1,0.15-.45,0-0.54a9.33,9.33,0,0,1-.7,1.77c0.08-.27.24-0.64,0.32-0.91a3.53,3.53,0,0,0-.67,1l0,0-0.28.49c-0.14.24-.27,0.49-0.27,0.49l0.16-.24c0.09,0.94-.57,1.59-0.7,2.73,0.12-1.11-.09-0.22-0.24-0.37a0.92,0.92,0,0,1-.35.51,15.11,15.11,0,0,0-.43,1.58c-0.08,0-.18.54-0.29,0.38-0.14.68,0.15-.13,0.21,0-0.09,1.07-1,2.33-1,3.89-0.19,1.3,0,1.59-.1,2.79-0.17.39-.16-0.37-0.16-0.37a5.07,5.07,0,0,0-.27,1.76c0-.13-0.1,0-0.19.17a2.61,2.61,0,0,1,0,1,1.77,1.77,0,0,1-.18-0.53c0,0.59,0,1.18,0,1.8-0.12.15-.13-0.38-0.19-0.6a7.07,7.07,0,0,0,.11,2l0.1-.43c0,0.25-.16.12-0.17-0.07a0.85,0.85,0,0,1,.19-0.87v0.44a1.68,1.68,0,0,0,.2-1.13,11.21,11.21,0,0,1,0-1.47l0.22,0.39-0.1-.92c0.09-.18.25-0.29,0.24,0.14a8.77,8.77,0,0,1,.2-1.07c0-.05,0,0,0,0l0-.61c0,0.13.2-.07,0.1,0.29,0.35-1,.1-1.77.39-2.13v0.09c0.25-1.49-.16-0.18-0.13-1.34l0.64-.63-0.16-.19c0-.15.15-0.44,0.21-0.37,0-.59-0.11.07-0.14-0.28,0.38-.67.48-2,0.85-2.08-0.05-.3-0.34.65-0.18-0.15,0.39-.11.25-0.9,0.62-1.5,0.09,0.26-.2.84,0.16,0.24-0.16-.5.54-1.22,0.7-1.77-0.21-.12.38-1.2,0.74-2.11a4,4,0,0,0,.52-0.86c0.29-.5.65-1.1,0.9-1.47l0,0a3.6,3.6,0,0,1,.66-1.67c0.11,0.09.09,0.23,0,.57l0.32-.55a2,2,0,0,1,.27-0.73l0.07,0.23a14.11,14.11,0,0,1,1.42-2.4c-0.1-.14-0.85.48-0.31-0.55,0.1,0,.24.06,0.11,0.34a1.55,1.55,0,0,1,.28-0.48l-0.14.47a2.79,2.79,0,0,0,.28-0.6,2.9,2.9,0,0,1,.29-0.09,2.21,2.21,0,0,0-.29.4,4,4,0,0,1,.83-0.84c-0.08,0-.14-0.1,0-0.37,0.48-.7.29-0.15,0.63-0.51a1.47,1.47,0,0,0,.31-0.72,0.57,0.57,0,0,1,.35-0.22c0.2-.4,1.23-1.64.77-1.37l-0.08.08,0-.06h0a38.49,38.49,0,0,1,2.86-3.37l0,0c0.5-.7,1.22-1.45,1.54-2,0.17-.19.49-0.36,0.47-0.23a5.56,5.56,0,0,1,1.12-1.24,1,1,0,0,1-.4.55,5.72,5.72,0,0,0,1.32-1.43c-0.1.34,0.59-.33,0.83-0.65l-0.49.35a11.82,11.82,0,0,1,.87-0.91v0.3c1.39-1.07,1.86-2.56,3.09-3.21,0.21-.43-0.73.6-0.57,0.19a17.13,17.13,0,0,1,1.55-1.11c0.85-.7.5-0.95,1.36-1.71-0.16.05-.4,0,0.15-0.65s0.92-.48.6-0.08a0.32,0.32,0,0,1-.22.17c-0.16.2-.38,0.47-0.1,0.3l0-.13c0.33-.23,1.1-1,1-0.75,0.37-.48.09-0.27-0.25,0,0.8-.66,1.13-1.14,1.92-1.84-0.15.09-.32,0.14-0.2,0,1.15-1,.38-0.59,1.09-1.36,0.5-.35,0,0.35.72-0.48,0.51-.41.24,0,0.1,0.27a9.81,9.81,0,0,1,1.73-1.6l-0.31.41a6.33,6.33,0,0,1,.54-0.61l-0.31.1a1,1,0,0,1,.44-0.33c0.14-.29-0.34,0,0-0.54a4.14,4.14,0,0,1,1-.89c-0.92.85,0.24,0-.47,0.82a3.78,3.78,0,0,1,.53-0.54s0,0.06,0,.13c1-.74.22-0.55,1.08-1.45,0,0.19.35-.06,0.48-0.23-0.35.36-.3,0,0-0.35a5.56,5.56,0,0,0,.84-1l-0.36.32a3.37,3.37,0,0,1,.66-0.9c0.1,0-.3.41-0.14,0.29,0.27-.59,1.1-0.88,1.58-1.61,0.33-.24.18,0.12,0.46-0.11,0.55-.81.81-0.67,1.4-1.51-0.31.12-.31,0.18,0.05-0.45l-1,1.31,0.55-.95c-0.34.37-.63,0.86-0.86,1.06,0.25-.46.24-0.4,0-0.3,0.63-.36.81-1.1,1.45-1.59l0.27,0.27c0.93-.78,1.25-1.73,2.34-2.84l-0.37.34a7.28,7.28,0,0,1,.88-1.17c0.07,0.12.3-.1,0.5-0.21a4.51,4.51,0,0,0,.62-1.15l0.57-.43c0.84-.94.6-1.35,1.37-2.28-0.11.37,0.29,0-.12,0.69a1.46,1.46,0,0,0,.42-0.65c0.21-.14.54-1,0.85-1.23a1.16,1.16,0,0,1,.25-0.66s0,0,0,0,0.34-.63,0-0.38c1.07-.77,1.91-2.89,2.77-3.63l1.28-2.43c0,0.06.05,0,0,.16,0.6-.93,0-0.77.67-1.83,0.47-.48-0.2.64,0,0.32,0.46,0,.63-1.38,1.18-2.06l-0.06.2a16.16,16.16,0,0,0,.93-2.47s0,0.06.05,0a26,26,0,0,1,.78-3c0,0.35-.07.46,0.15,0.34,0.13-.44-0.29,0,0-0.83a2.72,2.72,0,0,1,.66-0.87l-0.27.81a3.87,3.87,0,0,0,.53-1.47L167.26,94c0.35-1.27.12-1.36,0.54-2.7l-0.11.12c0-.81.3-0.59,0.32-1.38l0.3-.16,0.35-2.68a12.16,12.16,0,0,1-.14,2.27,7.24,7.24,0,0,0,.32-2,2.36,2.36,0,0,1-.09.66,8.08,8.08,0,0,1,.24-2.44c0.46,0.27.59-2.55,1.09-3.21a18.94,18.94,0,0,1,.34-2.68c0.14-.91.28-1.86,0.37-2.9-0.45.7,0.05-.6-0.36-0.51a2.42,2.42,0,0,1,0-.71l0.31-1.45c0.13-.34.06,0.46,0.15,0.42a3.17,3.17,0,0,1,.32-1.14c-0.14.14-.2-0.38-0.14-1l-0.19.85c-0.2-1.48.34-1.28,0.14-2.78l0.12,0.47a14.6,14.6,0,0,0-.45-3.58c0-.14.12-0.33,0.18,0a22.51,22.51,0,0,0-.42-2.89,18,18,0,0,1-.42-2.58l0.12,0.12a2.76,2.76,0,0,1-.29-1s0.12,0.12.1,0a5.56,5.56,0,0,1-.39-1.32l0.18,0.36a16.9,16.9,0,0,0-1.47-4c0.26-.08-0.08-1.47-0.33-2.13h0a13.78,13.78,0,0,0-1.24-2.54l-0.68-1.13-0.78-1.15c-0.28-1.24-2.09-3.52-3.19-5.13,0.16,0.26-.2.1-0.45-0.14s-1-.81-0.74-0.93l0.1,0.13a1.68,1.68,0,0,0-.43-0.77c-0.25-.27-0.56-0.56-0.82-0.82l-0.32.15a9.34,9.34,0,0,0-2.38-2.35A8.69,8.69,0,0,1,155,37.66c-0.43-.19-0.91-0.5-1.33-0.68l0.12-.14a22,22,0,0,0-3-1.83l0.34,0c-0.77-.45-1.24-0.06-2-0.42l-0.1-.35c-0.68-.36-1.38-0.71-2.08-1.05-0.35-.17-0.7-0.33-1.06-0.47a8.78,8.78,0,0,0-1.13-.31,0.33,0.33,0,0,1,.35,0c-0.67-.3-2.67-1.05-2.51-0.62,0.05-.25-1.55-0.43-2.39-0.48l0.16-.15a5,5,0,0,1-1.75,0c-0.23-.05-0.18-0.17.12-0.08-0.76-.2-0.62.08-1.54-0.14l0.36-.07a2,2,0,0,0-1.18,0,3.51,3.51,0,0,1-1.61-.33,1.66,1.66,0,0,1-1,.14c-0.06-.06.11-0.09,0.2-0.11-1.33-.17-2,0.18-2.9,0a0.19,0.19,0,0,0-.16-0.1c1.06,0,1.91,0,1.83,0,0-.16-0.86-0.19-0.17-0.42a15.88,15.88,0,0,1-2.7.38l-0.11-.05,0.09,0a1.68,1.68,0,0,0-.53.06,6.61,6.61,0,0,0-.69,0,3.9,3.9,0,0,0-1.42.06c0.05,0.17-.5.21,0,0.3a0.66,0.66,0,0,1,.36-0.07l0.18,0,0,0,1.06-.1a2.31,2.31,0,0,1-1.15.17c-0.21.14-.43,0.29-0.56,0.36-0.6-.18-1.74-0.16-1.92-0.28a12.6,12.6,0,0,0-3.73,1.17,0.73,0.73,0,0,1-.58,0,4.23,4.23,0,0,0,.55-0.22,7.27,7.27,0,0,0-2.21.89c-0.92.17,0.44-.37-0.77,0.06l0.14-.12c-2.55.45-3.63,1.95-6.3,2.81a0.76,0.76,0,0,1,.33-0.08c-2.93,1.32-5.47,3.59-8,5.48a3.06,3.06,0,0,0-1,1.2h-0.27l-0.49.82c-0.77,1.07-1.9,1.38-2.68,2.91l0.23-.09a7.4,7.4,0,0,1-1.12,1.41,0.54,0.54,0,0,1-.18.4l-0.09,0-0.34.66c-0.18.33-.32,0.67-0.32,0.67-0.65.94-.25-0.37-1.12,1.07a3.17,3.17,0,0,0-.41,1.53,1,1,0,0,1,.46-0.5l-0.22.52c0.21,0.23.29,0.73,1.11-.36l0.14-.46c0.07-.23.15-0.46,0.15-0.46L98.82,50l-0.2.34c-0.1.17-.19,0.35-0.19,0.35a1.84,1.84,0,0,0,.48-0.94,0.71,0.71,0,0,0,.34-0.26l0.12-.47,0.14-.46c0.16,0,0,.47.36,0,0.13-.43-0.45.2-0.12-0.44a1,1,0,0,0,.58-0.63c0.11,0,.08.1,0,0.29a8.9,8.9,0,0,0,.72-1.32c0.4-.28,1-1.27,1.15-1.06a4,4,0,0,1,.65-1.11c-0.28.81,1.1-1.19,1.24-.78,0.18-.64,1.39-1.58,2.07-2.39a0.53,0.53,0,0,1-.16.21,6.68,6.68,0,0,1,1-.6c-0.11-.25.56-0.86,0.87-1.28,0.71-.25-0.17.5,0.15,0.54-0.15-.14.86-0.92,0.57-0.9a1.43,1.43,0,0,1,.78-0.21c-0.1-.31.38-0.34,0.65-0.75,0.75-.3.33,0.14,1-0.41C111.39,37.62,110.8,38.13,110.8,38.13Zm19.43-6.46h0l-0.43,0Zm1.75-.06c-0.21,0-.48,0-0.76,0-0.06-.06,0-0.13.18-0.13A1.56,1.56,0,0,0,132,31.61Zm-3.82-1a0.57,0.57,0,0,1,.42,0l-0.49.06,0,0A0.27,0.27,0,0,1,128.16,30.57Z" transform="translate(-19.76 -26.43)"/><path class="cls-2" d="M127.67,30.85l-0.11,0,0.17,0,0.09-.06Z" transform="translate(-19.76 -26.43)"/><path class="cls-2" d="M123.31,149.69l0,0-0.07,0Z" transform="translate(-19.76 -26.43)"/><polygon class="cls-2" points="134.61 12.74 134.63 12.71 134.49 12.65 134.61 12.74"/><path class="cls-2" d="M117.3,157.41a0.3,0.3,0,0,0-.11.09A0.38,0.38,0,0,0,117.3,157.41Z" transform="translate(-19.76 -26.43)"/><path class="cls-2" d="M115.33,161.17l-0.31.52C115.16,161.47,115.26,161.3,115.33,161.17Z" transform="translate(-19.76 -26.43)"/><path class="cls-2" d="M114,164.15a0.18,0.18,0,0,0,0,.09h0Z" transform="translate(-19.76 -26.43)"/><path class="cls-2" d="M146.13,124.08l0.08-.1C146.39,123.74,146.26,123.9,146.13,124.08Z" transform="translate(-19.76 -26.43)"/><path class="cls-2" d="M135.75,135.36c0.09-.14.18-0.28,0.29-0.41C135.83,135.13,135.68,135.28,135.75,135.36Z" transform="translate(-19.76 -26.43)"/><polygon class="cls-2" points="137.22 84.54 137.22 84.54 137.28 84.46 137.22 84.54"/><path class="cls-2" d="M136.54,134.44a2.76,2.76,0,0,0-.5.51A4.46,4.46,0,0,0,136.54,134.44Z" transform="translate(-19.76 -26.43)"/><path class="cls-2" d="M110.94,178l0,0.16a0,0,0,0,1,0,0V178Z" transform="translate(-19.76 -26.43)"/><path class="cls-2" d="M110.95,178.15v0.18A0.39,0.39,0,0,0,110.95,178.15Z" transform="translate(-19.76 -26.43)"/><path class="cls-2" d="M111,178.69v-0.37A0.81,0.81,0,0,0,111,178.69Z" transform="translate(-19.76 -26.43)"/><path class="cls-2" d="M111.51,173.68l-0.06-.06A0.08,0.08,0,0,0,111.51,173.68Z" transform="translate(-19.76 -26.43)"/><path class="cls-2" d="M111.72,172.38a7.66,7.66,0,0,0-.31,1.19l0,0C111.4,173.4,111.78,172.69,111.72,172.38Z" transform="translate(-19.76 -26.43)"/><path class="cls-2" d="M113.77,167.26l-0.35,1c0.12-.16.28-0.38,0.16,0.1C114.15,167.14,113.35,168.62,113.77,167.26Z" transform="translate(-19.76 -26.43)"/><path class="cls-2" d="M114.95,164.12c-0.19.55,0.1,0,.12,0.07C115.15,163.83,115.17,163.74,114.95,164.12Z" transform="translate(-19.76 -26.43)"/><path class="cls-2" d="M128.4,144l0.08,0.15C128.76,143.82,128.43,144.12,128.4,144Z" transform="translate(-19.76 -26.43)"/><polygon class="cls-2" points="111.22 113.6 110.84 113.84 110.81 114.1 111.22 113.6"/><polygon class="cls-2" points="113.98 112.41 113.86 112.57 114.34 111.99 113.98 112.41"/><path class="cls-2" d="M161,107.91h-0.24C160.58,108.2,160.73,108.38,161,107.91Z" transform="translate(-19.76 -26.43)"/><path class="cls-2" d="M167.87,91.45a1.64,1.64,0,0,0,.32-1C168.07,90.87,167.9,91.24,167.87,91.45Z" transform="translate(-19.76 -26.43)"/><path class="cls-2" d="M159,40.92l0.31,0.21-0.26-.22c-0.13-.11-0.27-0.22-0.27-0.22Z" transform="translate(-19.76 -26.43)"/></svg>