<svg id="WW_HandDrawnFrames_CMYK" xmlns="http://www.w3.org/2000/svg" viewBox="0 0 157.69 133.51"><defs><style>.cls-1{fill:#e8247f;}.cls-2{fill:#fff;}</style></defs><title>Frames_Drawn_3</title><ellipse class="cls-1" cx="78.84" cy="66.76" rx="78.84" ry="66.76"/><path class="cls-2" d="M529.58,100.11a18.68,18.68,0,0,1,.51,2.09A18.57,18.57,0,0,1,529.58,100.11Z" transform="translate(-375.54 -34.94)"/><path class="cls-2" d="M523.19,76.33a71.59,71.59,0,0,1,5.39,16.8,73.68,73.68,0,0,1,1.3,9.3,41.37,41.37,0,0,1-.46,9c-0.2,1.34,0-.36-0.58,2.65a47.82,47.82,0,0,1-2.7,9.07,92.85,92.85,0,0,1-4.76,9.83,35.33,35.33,0,0,1-7.06,8.87c-2.78,2.53-5.69,4.78-8.3,7l0.61-.56a41.79,41.79,0,0,1-6.93,5s0.75-.46.18-0.18a21.43,21.43,0,0,1-2.54,1.38c-1.17.58-2.44,1.09-3,1.35-1,.35-0.95.27-2.29,0.71l-1.47.58a48.65,48.65,0,0,1-7.48,2c-2.82.53-5.87,0.93-8.85,1.29,0.29-.05.87-0.13,0.4-0.1a137.59,137.59,0,0,1-15.77,1,120.41,120.41,0,0,1-16.62-1.08c0.43,0,.83,0,0.21-0.09a56.08,56.08,0,0,1-6.67-1c-1.25-.36-4.87-1-8.1-2L428,157.1c-2.43-.62-3.54-1.12-5.52-1.62l-1.49-.56c-1.09-.21-3.42-1.21-5.38-1.87l0.05,0c-1.84-.66-2.76-1.09-4.43-1.79l-0.15-.08c-2-.83-3.46-1.57-4.46-2.11a9.4,9.4,0,0,0-1.51-.73c-1.28-.76,3.66,1.88,1.65.69a53.62,53.62,0,0,1-16.62-12.87,38.88,38.88,0,0,1-5.57-9,61.53,61.53,0,0,1-3.54-10c-0.36-1.56-.58-2.55-0.6-2.91-0.36-1.35-1-5.19-1.11-6.46,0,0.47,0-.91-0.09-1.65-0.14-2.55-.31-2.78-0.33-5.58,0,1.12.1,1.49,0.12,1.12a53.46,53.46,0,0,1,.2-8.41,5.37,5.37,0,0,0,0,1,45.45,45.45,0,0,1,1.39-8.22l-0.1.5-0.09.5c0.56-2.11.66-2.41,0.69-2.66a10.59,10.59,0,0,1,.67-2.21,1.27,1.27,0,0,0-.18.73,38.08,38.08,0,0,1,2.34-5.91,40.84,40.84,0,0,1,3.32-5.43c-0.12.17-.07,0.14-0.07,0.14a73.65,73.65,0,0,1,8.1-8.89,21.9,21.9,0,0,0,2.64-2.38c-0.09,0,1.13-1.2,2.13-2.23s1.79-1.88.91-1.07l2.05-2c0.77-.7,1.54-1.46,2.35-2.13,1.57-1.39,3.13-2.55,4.06-3.24-1.23,1,1.44-.88-0.87.83l0.9-.61c0.44-.31.91-0.6,0.91-0.6a10.37,10.37,0,0,0-1.23.94c0.57-.44,1.72-1.25,2.88-2l1.69-1,1.25-.67a39.67,39.67,0,0,1,3.66-1.83,28.25,28.25,0,0,1,5.08-1.68c-2,.49,1.16-0.13-0.19.2l0.91-.24c0.55-.15,1.29-0.27,2-0.43s1.5-.22,2.06-0.3l0.94-.08c1.44-.06.32,0.06,2.4,0a13.88,13.88,0,0,1,1.43-.1c0.54,0,6-.18,6.6-0.08s-2.34.09-.75,0.09c2.65-.07,2.77-0.12,5.42-0.18h0c1.75,0,5.17-.1,3.26-0.16a11.61,11.61,0,0,1-1.34.05c1.23-.09,4.32-0.12,7,0a7.27,7.27,0,0,0-1.16.05,81.86,81.86,0,0,1,11.34.69c0.07-.06-1.49-0.1-2.07-0.2,2.55,0.31,5.15.8,7.63,1.26s4.86,1,6.9,1.61c-0.68-.17-0.35-0.17-0.3-0.15,2.38,0.65,2.26.67,3.8,1.11,0.13,0.1,1.95.53,3.52,1.06,0.82,0.24.4,0.16-1-.29l2.72,0.86c1.2,0.43,2.66.91,4.17,1.52a84.09,84.09,0,0,1,8.7,4c-0.08-.06,3,1.41,4,2.07l-0.45-.18c0.47,0.3,1.36.82,2.15,1.28s1.44,0.92,1.51,1a2.77,2.77,0,1,0-.34-0.25c-0.64-.42-1.7-1.05-2.75-1.64-2.07-1.22-4.14-2.2-2.55-1.42,0.8,0.44,4.33,2.35,3.63,2,1.06,0.62,2.08,1.28,3.1,1.91s2,1.34,2.92,2c-0.56-.4-1.7-1.05-0.06.07L512,62.51l1.4,1.1a13,13,0,0,1,1.14.89,1.24,1.24,0,1,0,.32.21c0.07,0.08.34,0.35,0.71,0.68a13.21,13.21,0,0,1,1.21,1.21,6.71,6.71,0,0,1,1.29,1.64l-0.37-.33c0.95,1.19,1.54,2,2.23,2.94a2.29,2.29,0,0,1,.22.47,32.89,32.89,0,0,1,2.51,4.82c0.61,1.47,1.29,3.38,1.82,5.11s0.89,3.29,1,4a53.91,53.91,0,0,1,1.36,7.33,13.46,13.46,0,0,0-.24-1.45c0.2,1.74.28,2.16,0.44,3.75,0-.35.18,3.49,0.14,5.43,0.09,2.42.13,1.59,0.19,1.83l-0.18,4.6a34.59,34.59,0,0,1-.62,5c0.14-.83.43-3.52,0.13-1.52a49.27,49.27,0,0,1-1.81,7.84l0.38-.8a30.31,30.31,0,0,1-1.82,4.57c-0.45,1.13-1.92,3.75-1.64,3.45a83.76,83.76,0,0,1-5.13,8.34,56,56,0,0,1-5.13,6.26c-0.53.65-1.95,2.19-1.62,1.91,1-1,1.26-1.48,1.64-1.85a5.64,5.64,0,0,0-.62.78c-1.23,1.35-2.21,2.39-1.12,1.06-2.79,2.94-2.62,3.25-6.36,6.85,0.15-.19-0.16.05-1.32,1l-1.07,1-0.74.66-0.36.27c-2.73,2-1.6,1-1.72,1-1.4,1.11-3.31,2.19-4,2.68l-0.95.53-1,.46c1.43-.67-1.27.73-2,1.14l0.73-.41c-0.15.06-.68,0.34-1.29,0.66s-1.33.61-1.8,0.84c0.12,0,.67-0.25,1.31-0.53s1.36-.68,1.87-0.93l-1.46.81-1.7.81c0.33-.24-2.67,1.17-4,1.6-1.53.55-1.69,0.72-2.15,0.87-0.05,0-2.54.78-1.35,0.35a20.27,20.27,0,0,0,2.08-.68c-1,.36-0.93.21-3,0.93a10.25,10.25,0,0,1-2.62.86,14,14,0,0,0,1.56-.5s-0.71.22-1.44,0.37l-1.45.34-0.11.1a1.59,1.59,0,0,1-.31,0c-0.83.35-4.45,0.94-5.09,1.17-1.49.25-3.14,0.41-4.57,0.59l0.27,0-2.88.25-1.42.15-1.24.08,0.08,0c-1,0-3.22.16-4.42,0.16-2.42-.09-0.81-0.24-3.49-0.25-2.45-.14-3.85-0.09-2.87,0A89.77,89.77,0,0,1,436.25,163a10.29,10.29,0,0,1-1.52-.29A79.63,79.63,0,0,1,417,156.33c1.71,0.78.14,0,.13-0.06-1.41-.65-1.63-0.91-2.17-1.07,0.11,0.13,0,.09,1.57.94-1.74-.85-3.89-2-5.78-3.19s-3.53-2.35-4.39-3c0.87,0.64.17,0.19-.53-0.3a4.5,4.5,0,0,0-1.09-1l-1.26-1-1.3-1.08-0.27-.15-1-1a23,23,0,0,1-2.27-2.06,5.4,5.4,0,0,0-.4-0.49c-0.76-.82-1.76-1.75-2.63-2.82a30.81,30.81,0,0,1-2.39-3.21l-1-1.71c-0.57-.87-1.44-2.39-0.57-0.77L390.24,132c-0.38-.77-0.69-1.47-1-2.08a22.16,22.16,0,0,1-1.13-2.78,57.23,57.23,0,0,1-3.75-11.87A74.18,74.18,0,0,1,382.9,102l0.05,0.24c0-2.23-.1-1.16-0.09-2.71,0,0.72.14-1.7,0.15,0.05,0.07-1.59.09-2.62,0.09-3.5s0.06-1.64.13-2.67c0-.32-0.1,1.67-0.14,1.26l0.2-2.39c0.13-1.11.29-2.24,0.28-2.49,0.14-.79.13-0.16,0.11,0.27l0.11-1c0-.49.12-1,0.12-1,0.28-1.16,0,.18-0.06,1.52s-0.25,2.65,0,1.43l0.22-1.78c0.32-1.67-.52,4.7.11,0.26,0.21-1.93.45-3.59,0.07-1.89,0.34-2,.4-2.47.47-3,0-.25.07-0.52,0.16-1a18.82,18.82,0,0,1,.55-2.19c0.19-.57,0,0.28-0.3,1.16a4.48,4.48,0,0,0-.29,1.44c0.25-1,.52-2,0.79-3a28.45,28.45,0,0,1,.87-2.77c-0.69,1.92-.24.25,0.2-1,0.89-2.06-.46,1.37.74-1.55,0.1-.52,1.37-3.15.24-0.9a21.89,21.89,0,0,1,1-2.09c0.44-.78.91-1.63,1.3-2.41,0.58-.86-1.42,2.94.33-0.06a8.87,8.87,0,0,1,.82-1.5c0.46-.79.89-1.41,0.3-0.7,0.81-1.11.94-1.18,0.41-.34a28,28,0,0,1,3.32-4.21l0.38-.56c0.41-.45,1.06-1,1.78-1.73s1.6-1.56,2.44-2.35a9.26,9.26,0,0,1,1.54-1.24c0.4-.38,3.5-2.75,2.25-1.9-2,1.44-2.16,1.77-3.26,2.56,1.36-1.05,2.71-2.23,3.82-3.09l0.21-.09,2.65-1.93c-0.51.38-.22,0.22,0.34-0.14l0.69-.55c2.86-1.83.73-.35,3.55-2.06l-1.07.66-1,.69c0.45-.31,1.45-0.84,2.8-1.64,0.49-.38,1.47-1,1.91-1.29,1.63-.91.77-0.33,2.37-1.22l-1.06.57c-0.53.29-1,.6-1,0.6-0.31.19,1.47-.68,3.72-1.74,1.42-.7,3.65-1.77,1.34-0.79,1.14-.52,2.78-1.13,1.88-0.71,2.6-1.11-.38,0,1.88-0.88,0.95-.32,3.88-1.34,5.71-1.78l-1.2.43c-0.6.21-1.19,0.46-1.19,0.46l0.8-.27,0.81-.25c-2.06.73,1.08-.26-0.07,0.2,1.1-.33,2.43-0.76,3.5-1.06-1.65.37-.75,0.07,0.44-0.31s2.69-.75,2.2-0.71a22.6,22.6,0,0,1,3.73-.63c0.75,0,1.51-.19,3.89-0.6-0.79.07,1.46-.34-1.43,0.09,2.86-.36,1.92-0.43,5.31-0.69-2.5.27,2.7-.08-0.91,0.31a23.36,23.36,0,0,0-2.57.25,17,17,0,0,0,2.7-.15c1.78-.17,4.23-0.32,3.88-0.38-0.08-.08-2.73.2-1.59,0,1.78-.15,2.83-0.15,3.61-0.18s1.3-.06,2-0.13c-2.26.07-2.83,0-2.79,0l1.31-.07c0.66,0,1.31-.06,1.31-0.06l-0.51.06c4.21,0,1.24-.17,5.33-0.09l1.91,0.15c-0.49,0-2,0-3.24,0s-2.33,0-2,.08c1.33,0,2.21,0,3.07,0s1.71,0,3,.09c-0.56,0-1.32-.05-1.87,0,1,0,1.89.24,5.66,0.41,1.95,0.13.52,0,.57-0.06,4.24,0.38,5.51.57,8.22,1-0.57,0,4.76,1,1.76.47-0.34-.08-1-0.23-1.75-0.38l-2.66-.43c-1.89-.26-3.8-0.46-4.55-0.48,1.53,0.28-3.33-.35-4.25-0.21,3.41,0.21,3.23.39,3.77,0.5l2.41,0.22c0.41,0-.82-0.18-0.88-0.27,3.79,0.41,7.39,1.09,9.46,1.43,1.23,0.33.83,0.28-.65,0a78.57,78.57,0,0,1,13.09,3.87c-1.28-.55-0.15-0.13,1.08.33s2.51,1.07,1.66.65c-2.09-1-4-1.68-2.73-1.31s-0.06,0,.49.28c1.74,0.61,2.6,1.2,4.29,1.84-3.81-1.64-.8-0.19-1.54-0.4a19.58,19.58,0,0,1,2.53,1.25c1.36,0.6,2.82,1.38,4.32,2.18,0.75,0.39,1.46.89,2.2,1.33a20.17,20.17,0,0,1,2.1,1.41,58.22,58.22,0,0,1,5.51,4.77,61.51,61.51,0,0,1,4.67,5.15c1.13,1.58.25,0.6,1.51,2.29,1.45,2-.95-1.57,1.11,1.45l-0.22-.28c0.3,0.46,1.28,1.82,2.14,3.25s1.76,2.84,2.06,3.29l-0.32-.47c-0.16-.24-0.34-0.46-0.34-0.46L520,73.64s0.32,0.76-.23-0.2c1,2,2.21,4.18,3.25,6.39,0,0-.13-0.37-0.3-0.73l-0.31-.72A89,89,0,0,1,526.6,88.6l-0.11-.09,0.82,2.26a13.23,13.23,0,0,0,.79,2.79l-1-3L526,87.66c-0.53-1.66.7,1.77,0.41,0.71a44.7,44.7,0,0,0-1.88-4.93c0.51,1.34.55,1.4,1,2.43a17.32,17.32,0,0,1-1.16-2.53c0.28,0.7.63,1.7,0.72,1.84L524.17,83l-1.24-2.82c0.7,1.51-.31-0.85,0-0.29-0.07-.08-0.36-0.64-0.82-1.52s-1-2.11-1.73-3.44a35.05,35.05,0,0,0-2-3.58L517,69.27l-1.47-2.16L517,69l1.6,2.49c-1.12-1.9-1.24-2.13-2.46-4l-2.93-3.7,0-.16a23.37,23.37,0,0,0-1.77-2l-0.85-.94c-0.33-.39-0.74-0.85-1.33-1.43a41.4,41.4,0,0,0-3-3l-1.57-1.4L503,53.67a33.77,33.77,0,0,0-3.23-2.2c-1-.7-2.1-1.21-3-1.75l-0.11-.14c-0.54-.27-1.27-0.61-2.1-1s-1.75-.86-2.73-1.26c-1.93-.87-4-1.65-5.54-2.19a75.63,75.63,0,0,0-8.08-2.39l-1.87-.45L474.56,42c-1.07-.22-2-0.42-2.68-0.54a100.56,100.56,0,0,0-14-1.25,119.37,119.37,0,0,0-14.31.57l1.68-.27c-1.79.26-1.18,0-2.94,0.27,2-.18-2.44.39-3.65,0.7a67.78,67.78,0,0,0-13.73,3.73h-0.17a97.86,97.86,0,0,0-12.52,5.9,26.87,26.87,0,0,0-2.59,1.47c-2.24,1.55-3.45,2.32-6.57,4.79-0.58.44-1.24,1-1.91,1.55s-1.41,1.2-2.11,1.86a51.59,51.59,0,0,0-3.72,3.78,47.78,47.78,0,0,0-4.72,6.73,46,46,0,0,0-3.43,7.56A60.71,60.71,0,0,0,384,95.34l-0.07.41-0.06.41a83.15,83.15,0,0,0,1.2,17.54,61.79,61.79,0,0,0,4.9,15.58l-0.51-.76a26,26,0,0,0,2.85,5.24,49.77,49.77,0,0,0,5.41,7.45c0.51,0.56.91,1,1.28,1.39l1,1c0.64,0.57,1.21,1.13,2.18,1.93l1.59,1.38c0.5,0.41,1,.78,1.44,1.14l1.3,1,1.26,0.89c0.83,0.59,1.65,1.16,2.6,1.73l1.48,0.93,1.73,1-1.22-.71c-0.56-.29-0.64-0.27.59,0.45,1.81,1.13,7,3.61,5.1,2.56a72.38,72.38,0,0,0,9.39,3.79c3.35,1.13,6.76,2,9.65,2.66a9.12,9.12,0,0,1,1.6.26,85.43,85.43,0,0,0,15.12,1.75c0.85,0-1.36.06,0.82,0.08,1.29,0,0-.06,1.62-0.07a95,95,0,0,0,12.94-1,76.12,76.12,0,0,0,12.05-2.89,64.36,64.36,0,0,0,18.61-9.91,67,67,0,0,0,7.6-7.24c2.36-2.57,4.66-5.13,6.71-7.78l-0.07.14c1.34-1.8,2.88-3.93,4.22-6.06a49.56,49.56,0,0,0,3.24-5.89c0.55-.92,1.74-3.64,1.47-2.9a44.86,44.86,0,0,0,2.18-6.59,40.44,40.44,0,0,0,1.13-8.06l-0.08,1.29a58.78,58.78,0,0,0,.2-7.55c-0.09-2.5-.22-5-0.55-7.76,0.08,0.55.2,1.56,0.25,1.72-0.12-2.13-.84-5-0.91-6.15-0.26-1.19-.26-0.83-0.1-0.1a48.81,48.81,0,0,0-6.57-17.19,26.26,26.26,0,0,0-2.9-3.65c-0.57-.53-1.11-1.07-1.73-1.57l-1.85-1.49a88.9,88.9,0,0,0-7.73-5.46c-1.87-1.25-2.9-1.8-3.38-2.14s-0.49-.35-0.43-0.34,0.43,0.13-2.74-1.49A2.08,2.08,0,0,0,497.4,54c-2.47-1.2-3.77-2-5.56-2.73,0.68,0.41-1.18-.47-1.26-0.42a75.58,75.58,0,0,0-10.31-3.75l0.33,0a125.48,125.48,0,0,0-15-3.32,106.86,106.86,0,0,0-20.82-1.14L434.43,43c-3.48.1-6.87,0-10.16,0.79a35.32,35.32,0,0,0-9.44,3.55,47.4,47.4,0,0,0-8.33,5.76c-2.6,2.18-4.88,4.68-7.35,7.12s-5,4.75-7.32,7.23a44,44,0,0,0-6.12,7.92,42.88,42.88,0,0,0-3.93,9.16,54.35,54.35,0,0,0-2,19.82,62.58,62.58,0,0,0,4.22,19.6,47.67,47.67,0,0,0,4.57,9,30.21,30.21,0,0,0,3.13,4c1.13,1.27,2.35,2.46,3.61,3.62l1.59,1.44,1.35,1.1c0.81,0.68,1.54,1.18,2.27,1.7a50.54,50.54,0,0,0,6.19,3.69,0.66,0.66,0,1,0-.25-0.08c0.34,0.1,4.45,2.21,5.14,2.32a129.58,129.58,0,0,0,14,5,103.86,103.86,0,0,0,14.68,3.49c-1.63-.25-2.47-0.31-0.53,0l2,0.26,0.33,0.07c1.33,0.16,2.79.31,1.42,0.09a126.41,126.41,0,0,0,19.59.87,134.8,134.8,0,0,0,19.39-1.9,54.05,54.05,0,0,0,18.08-6.4c0.67-.43,1.36-0.84,2-1.29s1.31-.91,1.93-1.41c1.24-1,2.46-2.06,3.71-3.11a94,94,0,0,0,7.2-6.41,35.16,35.16,0,0,0,6-8.46,88.56,88.56,0,0,0,4.55-9.91,51.18,51.18,0,0,0,3.23-14,33.67,33.67,0,0,0-.08-7c-0.22-2.34-.59-4.66-1-7a83.53,83.53,0,0,0-3.85-13.64,46.94,46.94,0,0,0-3-6.53,15.3,15.3,0,0,0-4.67-5.4l0.44,0.25a3.63,3.63,0,0,1,.58.39,6.76,6.76,0,0,1,.8.67A22.6,22.6,0,0,1,523.19,76.33Z" transform="translate(-375.54 -34.94)"/><path class="cls-2" d="M528.62,96.28c-0.12-.69-0.69-2.92-0.15-1.17A7.25,7.25,0,0,1,528.62,96.28Z" transform="translate(-375.54 -34.94)"/><path class="cls-2" d="M494.06,47.75c-0.08,0-.78-0.4-1-0.5,0.69,0.33,1.35.6,1.88,0.89A7.71,7.71,0,0,0,494.06,47.75Z" transform="translate(-375.54 -34.94)"/><path class="cls-2" d="M479.25,42.36a19.79,19.79,0,0,1,2.09.51l1.72,0.47,1.61,0.52-0.84-.26c-0.5-.17-1.18-0.35-1.86-0.53l-1.86-.5C479.6,42.43,479.25,42.36,479.25,42.36Z" transform="translate(-375.54 -34.94)"/><path class="cls-2" d="M464.79,39.71c-1.27-.15-0.91-0.14.8,0A4.41,4.41,0,0,1,464.79,39.71Z" transform="translate(-375.54 -34.94)"/><path class="cls-2" d="M463.74,39.72l-2.42-.22s0.73,0.05,1.38.09A3.05,3.05,0,0,1,463.74,39.72Z" transform="translate(-375.54 -34.94)"/><path class="cls-2" d="M432,41.93l-3,.85C429.72,42.54,432.54,41.72,432,41.93Z" transform="translate(-375.54 -34.94)"/><path class="cls-2" d="M418,47.05c-0.44.2-.62,0.27-1.11,0.54-0.8.38,0-.08,0.69-0.41Z" transform="translate(-375.54 -34.94)"/><path class="cls-2" d="M526,114.74s-0.09.39-.19,0.78l-0.2.78,0-.24,0.19-.66C525.91,115.07,526,114.74,526,114.74Z" transform="translate(-375.54 -34.94)"/><path class="cls-2" d="M455,41.83a3.75,3.75,0,0,1-1.38-.1C455,41.77,453.06,41.77,455,41.83Z" transform="translate(-375.54 -34.94)"/><polygon class="cls-2" points="21.77 25.95 22.12 25.61 22.07 25.79 21.77 25.95"/></svg>