<svg id="WW_HandDrawnFrames_CMYK" xmlns="http://www.w3.org/2000/svg" viewBox="0 0 133.51 157.69"><defs><style>.cls-1{fill:#addbe1;}.cls-2{fill:#fff;}</style></defs><title>Frames_Drawn_2</title><ellipse class="cls-1" cx="66.76" cy="78.84" rx="66.76" ry="78.84"/><path class="cls-2" d="M271.42,26.5A18.68,18.68,0,0,1,273.5,26,18.55,18.55,0,0,1,271.42,26.5Z" transform="translate(-206.24 -22.85)"/><path class="cls-2" d="M247.64,32.89a71.58,71.58,0,0,1,16.79-5.39,73.69,73.69,0,0,1,9.3-1.3,41.32,41.32,0,0,1,9,.46c1.34,0.2-.36,0,2.65.58a47.81,47.81,0,0,1,9.07,2.7,92.8,92.8,0,0,1,9.83,4.76,35.32,35.32,0,0,1,8.87,7.06c2.53,2.78,4.78,5.69,7,8.3l-0.56-.61a41.86,41.86,0,0,1,5,6.92s-0.46-.75-0.18-0.18a21.51,21.51,0,0,1,1.39,2.54c0.59,1.17,1.09,2.44,1.35,3,0.35,1,.27.95,0.72,2.28l0.58,1.47a48.55,48.55,0,0,1,2,7.47c0.54,2.82.93,5.87,1.3,8.84-0.05-.29-0.13-0.87-0.1-0.4a137.51,137.51,0,0,1,1,15.77,120.35,120.35,0,0,1-1.08,16.62c0-.43,0-0.83-0.09-0.21a56.22,56.22,0,0,1-1,6.67c-0.36,1.25-1,4.87-2,8.1l0.06-.28c-0.62,2.43-1.12,3.54-1.61,5.52L326.25,135c-0.21,1.09-1.2,3.42-1.86,5.38l0-.05c-0.66,1.84-1.08,2.76-1.79,4.43l-0.08.15c-1.67,3.9-3,6-2.83,6-0.76,1.28,1.88-3.66.69-1.65a53.66,53.66,0,0,1-12.85,16.62,38.71,38.71,0,0,1-9,5.58,61.31,61.31,0,0,1-10,3.54c-1.55.36-2.55,0.57-2.91,0.61-1.35.36-5.19,1-6.46,1.11,0.47-.05-0.91,0-1.65.09-2.55.14-2.77,0.31-5.58,0.34,1.12,0,1.49-.1,1.12-0.12a53.65,53.65,0,0,1-8.41-.19,5.16,5.16,0,0,0,1,0,45.52,45.52,0,0,1-8.22-1.37l1,0.19c-2.11-.56-2.41-0.66-2.66-0.69a10.59,10.59,0,0,1-2.21-.66,1.27,1.27,0,0,0,.73.18,39.65,39.65,0,0,1-5.92-2.32A43,43,0,0,1,243,169c0.17,0.12.14,0.07,0.14,0.07a64.74,64.74,0,0,1-9-8,24.93,24.93,0,0,0-2.34-2.66c0,0.18-4.75-5-3.21-3.13-1.18-1.26-2.7-2.91-4-4.56s-2.42-3.23-3.09-4.17c0.92,1.26-.84-1.47.81,0.89l-0.59-.91-0.55-.93a10.26,10.26,0,0,0,.88,1.26c-0.41-.59-1.2-1.76-1.9-3s-1.35-2.4-1.64-3a40.42,40.42,0,0,1-3.59-8.71c0.6,1.94-.19-1.15.21,0.18,0,0-.12-0.36-0.29-0.9s-0.36-1.27-.55-2-0.35-1.47-.45-2l-0.17-.93c-0.21-1.43,0-.32-0.23-2.39a10.23,10.23,0,0,1-.22-1.42c-0.08-.53-0.48-6-0.35-6.6s0.12,2.34.1,0.75c-0.1-2.65-.15-2.77-0.18-5.43l0,0c0-1.75,0-5.17-.09-3.26a12.76,12.76,0,0,1,0,1.34c-0.07-1.24,0-4.33.16-7a7.5,7.5,0,0,0,0,1.16,97.57,97.57,0,0,1,1-11.31c-0.05-.07-0.12,1.49-0.23,2.07a123.93,123.93,0,0,1,2.92-14.52c-0.17.68-.17,0.34-0.15,0.3,0.65-2.38.67-2.26,1.11-3.8,0.1-.13.53-1.95,1.06-3.51,0.24-.82.16-0.4-0.29,1l0.86-2.72c0.44-1.19.91-2.66,1.53-4.17a83.15,83.15,0,0,1,4-8.69c-0.07.08,1.41-3,2.07-4l-0.18.45c0.3-.47.81-1.36,1.28-2.14s0.92-1.44,1-1.51a2.76,2.76,0,1,0-.25.34c-0.42.64-1.06,1.69-1.64,2.74-1.23,2.07-2.2,4.14-1.42,2.55,0.44-.8,2.36-4.33,2-3.63l1.91-3.1c0.65-1,1.34-2,2-2.92-0.4.56-1.05,1.7,0.07,0.06l2.24-3.1,1.1-1.4a13,13,0,0,1,.89-1.14,1.24,1.24,0,1,0,.21-0.32c0.09-.07.35-0.34,0.69-0.71l0.56-.6,0.66-.6a6.72,6.72,0,0,1,1.65-1.28l-0.33.37c1.19-.95,2-1.53,2.95-2.22a2.7,2.7,0,0,1,.48-0.22,33.22,33.22,0,0,1,4.82-2.5c1.48-.6,3.38-1.28,5.12-1.8s3.29-.88,4-1A54.06,54.06,0,0,1,264,29.2a13.07,13.07,0,0,0-1.45.24c1.74-.19,2.16-0.28,3.75-0.44-0.35,0,3.49-.17,5.43-0.13,2.42-.08,1.59-0.13,1.83-0.19l4.6,0.19a33.65,33.65,0,0,1,5,.63c-0.83-.14-3.52-0.44-1.52-0.13a49.47,49.47,0,0,1,7.84,1.83l-0.8-.38a30.48,30.48,0,0,1,4.56,1.83c1.13,0.44,3.74,1.93,3.45,1.64A83.39,83.39,0,0,1,305,39.43a56.48,56.48,0,0,1,6.25,5.14c0.65,0.54,2.19,1.95,1.91,1.62-1-1-1.48-1.26-1.84-1.64a5.51,5.51,0,0,0,.78.62c1.35,1.23,2.39,2.21,1.06,1.12,2.94,2.79,3.25,2.62,6.84,6.37-0.19-.15.05,0.16,1,1.32,0,0,1.94,2.13,1.89,2.17,2,2.73,1,1.6,1,1.72,1.11,1.4,2.18,3.32,2.68,4l0.52,0.95,0.46,1c-0.67-1.43.73,1.27,1.14,2L328.36,65c0.06,0.15.34,0.68,0.66,1.29l0.83,1.8a24.9,24.9,0,0,0-1.45-3.19l0.8,1.46,0.8,1.7c-0.23-.33,1.16,2.67,1.59,4,0.55,1.53.72,1.69,0.87,2.15,0,0.05.78,2.54,0.35,1.35a21.78,21.78,0,0,0-.68-2.08c0.36,1,.2.93,0.93,3a1.37,1.37,0,0,0,.32.75,7.66,7.66,0,0,1,.53,1.87,14.84,14.84,0,0,0-.5-1.56l0.13,0.45,0.24,1,0.34,1.45,0.1,0.11a1.59,1.59,0,0,1,0,.31c0.35,0.83.94,4.45,1.16,5.09,0.24,1.49.41,3.14,0.58,4.57l0-.27c0.1,1.75.41,4.07,0.47,5.54l0-.08c0,1,.16,3.22.15,4.42-0.09,2.42-.23.81-0.25,3.49-0.13,2.45-.09,3.85,0,2.87a90,90,0,0,1-2.08,13.35,10.68,10.68,0,0,1-.29,1.52,79.37,79.37,0,0,1-6.38,17.71c0.79-1.71,0-.14-0.06-0.13-0.65,1.41-.91,1.63-1.07,2.17,0.13-.11.09,0,0.94-1.57a65.79,65.79,0,0,1-3.2,5.78c-1.16,1.9-2.36,3.52-3,4.39,0.64-.87.19-0.16-0.3,0.53a4.49,4.49,0,0,0-1,1.09l-1,1.25-1.09,1.3-0.15.27-1,1a24.28,24.28,0,0,1-2.06,2.27c-0.1.06-.19,0.15-0.49,0.4-0.83.76-1.75,1.76-2.82,2.62a30.21,30.21,0,0,1-3.21,2.38l-1.71,1c-0.87.56-2.39,1.44-.78,0.57l-2.49,1.36-2.08,1a22.44,22.44,0,0,1-2.78,1.13,57.45,57.45,0,0,1-11.87,3.74,74.16,74.16,0,0,1-13.24,1.48l0.24-.05c-2.23,0-1.16.1-2.71,0.09,0.72,0-1.7-.15.05-0.15-1.59-.08-2.61-0.09-3.5-0.09s-1.63-.06-2.67-0.13c-0.32,0,1.66.1,1.26,0.14l-2.39-.2c-1.11-.14-2.24-0.29-2.49-0.28-0.79-.14-0.16-0.13.27-0.11l-1-.11c-0.49,0-1-.13-1-0.13-1.16-.28.18,0,1.52,0.07s2.65,0.25,1.43,0l-1.78-.22c-1.67-.32,4.7.52,0.26-0.11-1.93-.21-3.59-0.45-1.89-0.07-2-.34-2.47-0.4-3-0.47-0.25,0-.52-0.07-1-0.16a18.66,18.66,0,0,1-2.19-.55c-0.57-.19.28,0,1.16,0.3a4.39,4.39,0,0,0,1.44.29c-2-.53-4-1-5.73-1.67,1.92,0.69.25,0.24-1-.2-2.05-.89,1.37.46-1.55-0.74-0.52-.11-3.15-1.37-0.9-0.24a21.86,21.86,0,0,1-2.09-.95c-0.78-.45-1.63-0.91-2.4-1.31-0.85-.58,2.94,1.43-0.06-0.33a8.87,8.87,0,0,1-1.5-.82c-0.79-.46-1.41-0.89-0.69-0.3-1.11-.81-1.18-0.94-0.34-0.41a27.86,27.86,0,0,1-4.21-3.32l-0.56-.38c-0.45-.41-1-1.06-1.72-1.78s-1.56-1.6-2.35-2.44a9.26,9.26,0,0,1-1.24-1.54c-0.38-.4-2.74-3.5-1.9-2.25,1.44,2,1.77,2.16,2.56,3.26-1.05-1.36-2.23-2.71-3.09-3.82l-0.09-.21c-0.52-.66-1.61-2.24-1.93-2.65,0.38,0.51.22,0.22-.14-0.34l-0.55-.69c-1.83-2.86-.35-0.73-2.06-3.55l0.66,1.07,0.69,1c-0.31-.45-0.84-1.45-1.64-2.8-0.38-.49-1-1.47-1.29-1.91-0.91-1.62-.33-0.77-1.22-2.37l0.57,1.06c0.28,0.53.6,1,.6,1,0.19,0.31-.68-1.47-1.74-3.72-0.7-1.42-1.77-3.65-.79-1.34-0.52-1.14-1.13-2.78-.71-1.88-1.1-2.6,0,.38-0.88-1.88-0.33-.95-1.34-3.88-1.78-5.71l0.43,1.2c0.21,0.6.46,1.19,0.46,1.19l-0.27-.8-0.25-.81c0.73,2.06-.26-1.08.2,0.07-0.33-1.1-.76-2.43-1.06-3.5,0.37,1.65.07,0.75-.31-0.44s-0.75-2.69-.71-2.2a22.51,22.51,0,0,1-.63-3.73c0-.75-0.19-1.51-0.6-3.89,0.07,0.79-.34-1.46.09,1.43-0.36-2.85-.43-1.92-0.69-5.31,0.27,2.5-.08-2.7.31,0.91a23.63,23.63,0,0,0,.25,2.57,16.78,16.78,0,0,0-.14-2.7c-0.17-1.78-.32-4.23-0.38-3.88-0.08.08,0.2,2.73,0,1.59-0.15-1.78-.15-2.82-0.18-3.6s-0.06-1.3-.13-2c0.07,2.26,0,2.82,0,2.79l-0.07-1.31c0-.66-0.06-1.31-0.06-1.31l0.06,0.51c0-4.21-.17-1.24-0.09-5.33l0.07-1c0-.48.08-1,0.08-1,0,0.49,0,2,0,3.24s0,2.33.08,2c0-1.33,0-2.21,0-3.07s0-1.71.09-3c0,0.56-.05,1.32,0,1.87,0-.48.07-0.95,0.16-1.77s0.12-2,.25-3.89,0-.52-0.06-0.57c0.38-4.24.57-5.51,1-8.22,0,0.57,1-4.76.47-1.76-0.08.34-.23,1-0.38,1.75l-0.43,2.66c-0.26,1.89-.46,3.79-0.48,4.55,0.28-1.53-.35,3.33-0.22,4.25,0.21-3.41.39-3.23,0.5-3.76l0.22-2.41c0-.41-0.18.82-0.27,0.88,0.41-3.78,1.09-7.39,1.43-9.46,0.33-1.23.28-.83,0,0.65a78.54,78.54,0,0,1,3.87-13.09c-0.55,1.28-.13.15,0.33-1.08s1.07-2.51.65-1.66c-1,2.09-1.68,4-1.31,2.73s0,0.06.28-.49c0.62-1.74,1.2-2.6,1.84-4.29-1.64,3.81-.19.8-0.4,1.54a19.75,19.75,0,0,1,1.25-2.53c0.6-1.36,1.38-2.82,2.18-4.32,0.39-.75.89-1.46,1.33-2.2a20,20,0,0,1,1.41-2.1,58.12,58.12,0,0,1,4.77-5.5A61.35,61.35,0,0,1,234.26,43c1.57-1.13.6-.25,2.28-1.51,2-1.45-1.57.95,1.45-1.11l-0.28.22c0.46-.3,1.82-1.28,3.25-2.14s2.84-1.76,3.29-2.06l-0.46.32c-0.24.16-.46,0.34-0.46,0.34l1.62-.94s0.76-.32-0.2.23c2-1,4.18-2.21,6.39-3.25,0,0-.37.13-0.73,0.29l-0.72.31a89,89,0,0,1,10.22-4.19l-0.09.11,2.26-.82a13.21,13.21,0,0,0,2.79-.79l-3,1L259,30.08c-1.66.53,1.76-.7,0.71-0.41a44.64,44.64,0,0,0-4.93,1.88c1.34-.51,1.4-0.55,2.43-1a17.32,17.32,0,0,1-2.53,1.16c0.7-.28,1.7-0.63,1.84-0.72l-2.16.9-2.81,1.24c1.51-.7-0.85.31-0.29,0-0.08.07-.64,0.36-1.52,0.82s-2.11,1-3.44,1.73a35.11,35.11,0,0,0-3.58,2L240.58,39l-2.16,1.47,1.94-1.46,2.49-1.6c-1.9,1.12-2.13,1.24-4,2.46l-3.7,2.93-0.16,0a23.28,23.28,0,0,0-2,1.77L232,45.5c-0.39.33-.85,0.74-1.43,1.33a41.54,41.54,0,0,0-3,3l-1.4,1.57L225,53.08a33.59,33.59,0,0,0-2.2,3.23c-0.7,1-1.21,2.1-1.75,3l-0.14.11c-0.27.54-.61,1.27-1,2.1s-0.86,1.75-1.26,2.73c-0.87,1.93-1.65,4-2.19,5.54a75.49,75.49,0,0,0-2.4,8.08l-0.45,1.87-0.35,1.71c-0.22,1.07-.42,2-0.54,2.68a100.53,100.53,0,0,0-1.26,14,119.33,119.33,0,0,0,.57,14.31l-0.27-1.68c0.26,1.79,0,1.18.27,2.94-0.18-2,.39,2.43.7,3.65a67.87,67.87,0,0,0,3.72,13.73v0.17a97.92,97.92,0,0,0,5.89,12.52,27,27,0,0,0,1.47,2.59c1.55,2.24,2.32,3.45,4.79,6.57,0.44,0.58,1,1.24,1.55,1.92s1.2,1.41,1.85,2.11a51.2,51.2,0,0,0,3.78,3.72,47.84,47.84,0,0,0,6.72,4.73,46.37,46.37,0,0,0,7.55,3.44,60.64,60.64,0,0,0,16.53,3.17l0.41,0.07,0.41,0.06A83.14,83.14,0,0,0,284.95,171a61.69,61.69,0,0,0,15.58-4.88l-0.76.51c2.72-1.15,5.94-3.14,5.24-2.84a49.73,49.73,0,0,0,7.45-5.4l1.39-1.27,1-1c0.57-.65,1.14-1.21,1.93-2.18l1.38-1.58c0.42-.5.78-1,1.14-1.43l1-1.3,0.89-1.26c0.59-.83,1.16-1.65,1.74-2.6l0.93-1.48,1-1.73-0.71,1.22c-0.29.56-.27,0.64,0.45-0.59,1.13-1.81,3.61-6.95,2.57-5.1a72.93,72.93,0,0,0,3.8-9.38c1.13-3.35,2-6.76,2.67-9.64a9.12,9.12,0,0,1,.26-1.6,85.39,85.39,0,0,0,1.76-15.11c0-.85.06,1.36,0.08-0.82,0-1.29-.06,0-0.07-1.62a94.05,94.05,0,0,0-1-12.94,75.42,75.42,0,0,0-2.88-12.05,64.47,64.47,0,0,0-9.88-18.62,67.2,67.2,0,0,0-7.23-7.61c-2.57-2.37-5.13-4.66-7.77-6.72L307,42c-1.8-1.34-3.93-2.88-6.06-4.23A49.58,49.58,0,0,0,295,34.53c-0.92-.55-3.63-1.75-2.9-1.48a44.5,44.5,0,0,0-6.58-2.2,40.5,40.5,0,0,0-8.06-1.15l1.29,0.08a58.51,58.51,0,0,0-7.54-.21c-2.5.08-5,.21-7.76,0.54,0.55-.08,1.56-0.2,1.72-0.25-2.13.12-5,.83-6.15,0.9-1.19.26-.83,0.26-0.1,0.1a49,49,0,0,0-17.2,6.53,25.68,25.68,0,0,0-3.66,2.89c-0.54.56-1.07,1.11-1.58,1.72L235,43.84a88.12,88.12,0,0,0-5.47,7.72c-1.25,1.87-1.81,2.89-2.14,3.37s-0.34.49-.34,0.43,0.13-.43-1.49,2.74a2.08,2.08,0,0,0-.22.47c-1.21,2.47-2,3.77-2.74,5.56,0.41-.68-0.48,1.18-0.43,1.26a76,76,0,0,0-3.76,10.3l0-.33a125.37,125.37,0,0,0-3.33,15,115.59,115.59,0,0,0-1.68,20.79q0,5.18.45,10.32a57.92,57.92,0,0,0,1.58,10.08,48.35,48.35,0,0,0,3.66,9.46,55.51,55.51,0,0,0,5.49,8.53c2.08,2.68,4.48,5.08,6.84,7.59s4.67,5,7.17,7.33a43.65,43.65,0,0,0,8,6,45.75,45.75,0,0,0,9.19,3.88,54.46,54.46,0,0,0,19.82,2A62.6,62.6,0,0,0,295.29,172a47.82,47.82,0,0,0,9-4.58,30.43,30.43,0,0,0,4-3.13c1.27-1.13,2.46-2.36,3.61-3.61l1.44-1.59,1.1-1.35c0.68-.81,1.17-1.54,1.7-2.27a50.64,50.64,0,0,0,3.68-6.19,0.66,0.66,0,1,0-.08.25c0.11-.34,2.2-4.46,2.32-5.14a129.92,129.92,0,0,0,4.95-14,103.67,103.67,0,0,0,3.48-14.68c-0.25,1.63-.3,2.47,0,0.53l0.13-1,0.12-1,0.07-.33c0.16-1.33.31-2.79,0.09-1.42a126.62,126.62,0,0,0,.87-19.59,134.73,134.73,0,0,0-1.91-19.39,54,54,0,0,0-6.4-18.07c-0.43-.67-0.84-1.36-1.29-2s-0.91-1.31-1.41-1.93c-1-1.24-2.06-2.46-3.11-3.71a93.5,93.5,0,0,0-6.41-7.2,35.19,35.19,0,0,0-8.46-6A88.45,88.45,0,0,0,292.82,30a51.2,51.2,0,0,0-14-3.23,33.71,33.71,0,0,0-7,.08c-2.33.22-4.66,0.59-7,1a83.53,83.53,0,0,0-13.64,3.85,46.94,46.94,0,0,0-6.53,3,15.3,15.3,0,0,0-5.4,4.67l0.25-.44a3.63,3.63,0,0,1,.39-0.58,6.77,6.77,0,0,1,.67-0.8A22.6,22.6,0,0,1,247.64,32.89Z" transform="translate(-206.24 -22.85)"/><path class="cls-2" d="M267.58,27.46c-0.69.12-2.92,0.69-1.17,0.15A7.26,7.26,0,0,1,267.58,27.46Z" transform="translate(-206.24 -22.85)"/><path class="cls-2" d="M219.07,62c0,0.08-.4.78-0.5,1,0.33-.69.6-1.35,0.89-1.88A7.73,7.73,0,0,0,219.07,62Z" transform="translate(-206.24 -22.85)"/><path class="cls-2" d="M213.68,76.81a20.07,20.07,0,0,1,.51-2.08L214.65,73l0.52-1.6-0.26.84c-0.17.5-.35,1.18-0.53,1.86L213.88,76C213.74,76.46,213.68,76.81,213.68,76.81Z" transform="translate(-206.24 -22.85)"/><path class="cls-2" d="M211,91.27c-0.15,1.26-.14.91,0-0.8A4.41,4.41,0,0,1,211,91.27Z" transform="translate(-206.24 -22.85)"/><path class="cls-2" d="M211,92.32l-0.22,2.42s0.05-.73.09-1.38A3.06,3.06,0,0,1,211,92.32Z" transform="translate(-206.24 -22.85)"/><path class="cls-2" d="M213.23,124.06l0.85,3C213.84,126.33,213,123.51,213.23,124.06Z" transform="translate(-206.24 -22.85)"/><path class="cls-2" d="M218.35,138c0.2,0.44.27,0.62,0.54,1.11,0.38,0.8-.08,0-0.41-0.69Z" transform="translate(-206.24 -22.85)"/><polygon class="cls-2" points="79.91 7.26 81.47 7.66 81.22 7.64 79.91 7.26"/><path class="cls-2" d="M212.92,100.94a3.83,3.83,0,0,1-.15,1.37C212.86,100.87,212.79,102.85,212.92,100.94Z" transform="translate(-206.24 -22.85)"/><polygon class="cls-2" points="25.91 136.1 25.58 135.75 25.76 135.8 25.91 136.1"/></svg>