<svg id="WW_SecondaryIcons_FlowersLeaves_CMYK" xmlns="http://www.w3.org/2000/svg" viewBox="0 0 33.56 96.39"><defs><style>.cls-1{fill:#644130;}</style></defs><title>Icons_FlowersLeaves_6</title><ellipse class="cls-1" cx="565.83" cy="301.44" rx="1.69" ry="1.73" transform="translate(-555.59 -269.93) rotate(-0.44)"/><ellipse class="cls-1" cx="560.4" cy="298.65" rx="1.69" ry="1.73" transform="translate(-555.65 -269.83) rotate(-0.45)"/><ellipse class="cls-1" cx="555.71" cy="294.21" rx="1.69" ry="1.73" transform="translate(-555.62 -269.85) rotate(-0.45)"/><ellipse class="cls-1" cx="576.06" cy="300.39" rx="1.69" ry="1.73" transform="translate(-555.67 -269.68) rotate(-0.45)"/><ellipse class="cls-1" cx="582.38" cy="297.89" rx="1.69" ry="1.73" transform="translate(-555.48 -269.98) rotate(-0.42)"/><ellipse class="cls-1" cx="555" cy="290.15" rx="1.69" ry="1.73" transform="translate(-555.5 -270.03) rotate(-0.44)"/><ellipse class="cls-1" cx="583.53" cy="292.89" rx="1.69" ry="1.73" transform="translate(-555.44 -269.97) rotate(-0.42)"/><ellipse class="cls-1" cx="585.18" cy="287.3" rx="1.69" ry="1.73" transform="translate(-555.57 -269.61) rotate(-0.45)"/><ellipse class="cls-1" cx="584.8" cy="281.97" rx="1.69" ry="1.73" transform="translate(-555.53 -269.62) rotate(-0.45)"/><ellipse class="cls-1" cx="580.7" cy="277.43" rx="1.69" ry="1.73" transform="translate(-555.56 -269.5) rotate(-0.47)"/><ellipse class="cls-1" cx="571.69" cy="275.99" rx="1.69" ry="1.73" transform="translate(-555.24 -270.23) rotate(-0.4)"/><ellipse class="cls-1" cx="563.61" cy="276.8" rx="1.69" ry="1.73" transform="translate(-555.48 -269.8) rotate(-0.45)"/><ellipse class="cls-1" cx="560.17" cy="279.79" rx="1.53" ry="1.56" transform="translate(-555.29 -270.25) rotate(-0.41)"/><ellipse class="cls-1" cx="556.9" cy="284.13" rx="1.69" ry="1.73" transform="translate(-555.54 -269.84) rotate(-0.45)"/><path class="cls-1" d="M584.9,287.41a0,0,0,0,0,0,0,0,0,0,0,0,0,0h0Z" transform="translate(-553.31 -274.26)"/><path class="cls-1" d="M562.23,297.84a0,0,0,0,0,0,0,0,0,0,0,0,0,0h0Z" transform="translate(-553.31 -274.26)"/><path class="cls-1" d="M560.76,299.12c7.37-5.72,13.08-13.89,19.38-20.72a0.23,0.23,0,0,0-.32-0.32c-7,6.26-12.68,14.06-19.58,20.53-0.35.33,0.15,0.79,0.51,0.51h0Z" transform="translate(-553.31 -274.26)"/><path class="cls-1" d="M563.3,276.89c1.87,3.38,3.58,6.85,5.53,10.19,2.41,4.15,4,8.78,6.54,12.8a0.42,0.42,0,0,0,.72-0.42c-2.45-4.17-3.65-8.8-6.28-12.95-2.08-3.27-4.1-6.9-6.28-10.1-0.12-.18-0.34.29-0.23,0.48h0Z" transform="translate(-553.31 -274.26)"/><path class="cls-1" d="M556.21,294.36c5-1,9.8-4.08,14.69-5.62a37.68,37.68,0,0,0,12.3-6.13c0.28-.21,0-0.68-0.28-0.49a64.7,64.7,0,0,1-13.84,6.31c-4.41,1.48-8.68,3.79-13,5.57a0.18,0.18,0,0,0,.1.35h0Z" transform="translate(-553.31 -274.26)"/><path class="cls-1" d="M560,279.93c3.93,3.54,7.58,6.63,11.53,10.15,3.21,2.86,6.56,5.89,10.62,7.51a0.27,0.27,0,0,0,.21-0.49c-4.88-2.06-8.29-5.68-12.08-9.19a102.73,102.73,0,0,0-10.05-8.28,0.19,0.19,0,0,0-.23.29h0Z" transform="translate(-553.31 -274.26)"/><path class="cls-1" d="M556.7,284.17a111.72,111.72,0,0,1,12.91,4.78c4.33,1.77,8.56,2.52,13.1,3.52a0.43,0.43,0,0,0,.23-0.83c-5.18-1.62-10.13-2.45-15.23-4.56-3.57-1.48-7.08-2.89-11-3.26-0.21,0-.24.31,0,0.36h0Z" transform="translate(-553.31 -274.26)"/><path class="cls-1" d="M554.63,290.55c11.6-1.15,20.38-2.05,30.53-2.83a0.23,0.23,0,0,0,0-.46,172.05,172.05,0,0,0-30.58,2.93,0.19,0.19,0,0,0,0,.37h0Z" transform="translate(-553.31 -274.26)"/><path class="cls-1" d="M566.07,301.91a64.35,64.35,0,0,0,3.15-7c0.94-2.26,2.27-4.78,2.38-7.25a0.29,0.29,0,0,0-.54-0.15c-2,4.76-3.42,9.75-5.62,14.45a0.15,0.15,0,0,0,.27.16Z" transform="translate(-553.31 -274.26)"/><path class="cls-1" d="M571.52,276.77c-2.18,7-1,14.37-.6,21.59,0.44,7.66-.55,15.29-0.27,23,0.59,16.28,3.53,32.55,4.66,48.82,0,0.69,1.13.69,1.08,0-1.21-15.72-3.73-31.44-4.6-47.16-0.39-7,.31-14,0.2-21-0.14-8.52-1.55-16.55.18-25a0.34,0.34,0,0,0-.65-0.18h0Z" transform="translate(-553.31 -274.26)"/></svg>