<svg id="WW_SecondaryIcons_FlowersLeaves_CMYK" xmlns="http://www.w3.org/2000/svg" viewBox="0 0 60.04 50.45"><defs><style>.cls-1{fill:#69b94c;}.cls-2{fill:#644130;}</style></defs><title>Icons_FlowersLeaves_13</title><path class="cls-1" d="M269.29,189.5a18.89,18.89,0,0,0,4.74,4.26c-7.21.92-13.87,1.73-19-4.64-1.08-1.34-8.64-17.83-10.87-16.59,5.55-.3,11.88.7,16,4.78C263.65,180.72,266.08,185.61,269.29,189.5Z" transform="translate(-216.44 -143.93)"/><path class="cls-1" d="M221.56,190.42c0.19,0.23.39,0.46,0.59,0.68,2.19,2.34,4.3,2,6.72.16-0.07.05,6.34,2.78,7.27,2.8,2.54,0,4.7-1,4.89-3.73,0.44-6.43-9.19-13.85-13.9-17-1.85-1.22-7.18-3.21-9.23-1.52-1.66,1.36-1.19,4.46-1,6.3C217.43,182.15,218.89,187.13,221.56,190.42Z" transform="translate(-216.44 -143.93)"/><path class="cls-1" d="M237.23,166.09a13.78,13.78,0,0,0,4.43,1.53c4.88,0.77,10.12-.22,14.72-1.85,10.1-3.57-9.57-17.75-13.77-19.31-6.14-2.29-10.09,5-10.8,10.28C231.25,160.94,233.86,164.23,237.23,166.09Z" transform="translate(-216.44 -143.93)"/><path class="cls-2" d="M247.72,166c-1.68,0-3.36-.1-4.94-0.19-4.52-.28-8-1.93-9.92-4.76a7.27,7.27,0,0,1,.83-9l0.11-.11-0.39-.17a4.43,4.43,0,0,1-2.48-1.76,2.07,2.07,0,0,1,.51-0.06,5.74,5.74,0,0,1,2.54.87l0.16,0.09v-0.18a5.8,5.8,0,0,1,1.73-4.29,7.69,7.69,0,0,1,5.36-2.51h0.38c5.73,0.42,11.36,5.3,14.41,10a34.05,34.05,0,0,1,3.6,6.52,2.63,2.63,0,0,1,.08,1.84c-0.49,1.34-3.81,2.55-5,2.91a24.68,24.68,0,0,1-6.9.81h0Zm-8-11.43a9.26,9.26,0,0,0-.7,7.47,3.89,3.89,0,0,0,2.58,2.66,18.27,18.27,0,0,0,2.89.56l0.25,0a10.88,10.88,0,0,0,1.18.09,1.88,1.88,0,0,0,1.2-.29l0.07-.06-0.06-.08a8.23,8.23,0,0,1-1.14-7.47l0-.07-0.05,0a13.83,13.83,0,0,0-4-1.95c-0.77-.29-1.5-0.55-2.16-0.87l-0.08,0Zm6.93,3.18c-0.39,2.09-.16,5,1,6.39a2.34,2.34,0,0,0,1.86.91,4.26,4.26,0,0,0,2.16-.72l0.12-.07-0.1-.09a3.67,3.67,0,0,1-1-2.44,5.9,5.9,0,0,0-.45-1.76c-0.56-1.15-1.53-1.53-2.87-2.06l-0.7-.28Zm4.54,2c-0.15,1.06.14,3.9,1.38,4.55a1.14,1.14,0,0,0,.54.11,9.06,9.06,0,0,0,2.5-.65,8.85,8.85,0,0,1,1.64-.48l1.27-.55-0.21-.09c-0.75-.32-1.5-0.66-2.25-1-1.54-.7-3.14-1.43-4.73-2l-0.11,0Zm-16.31-7.41a1.72,1.72,0,0,0-.35,0,1.91,1.91,0,0,0-1.3,1,8.1,8.1,0,0,0-.16,5.42,8.38,8.38,0,0,0,2.72,3.39,9.38,9.38,0,0,0,1.69,1,11.9,11.9,0,0,1,1.29.71l0.27,0.18-0.35-.83c-0.12-.27-0.23-0.54-0.34-0.81a8.32,8.32,0,0,1-.46-5.12l0.07-.36a5.59,5.59,0,0,1,1-2.66l0.08-.1-0.11-.05c-0.27-.13-0.59-0.32-0.94-0.53A7.34,7.34,0,0,0,234.91,152.3Zm21.9,6.12a0.42,0.42,0,0,0-.18,0l-0.33.15a4.39,4.39,0,0,0-1.76,1.17l-0.09.1,0.79,0.37a27,27,0,0,0,3.29,1.37l0.29,0.09-0.18-.25a2.86,2.86,0,0,1-.25-0.54c0-.11-0.08-0.21-0.11-0.27a4.34,4.34,0,0,1-.46-0.88C257.54,159.11,257.24,158.42,256.81,158.42Zm-2.54-3.6a1.68,1.68,0,0,0-.78.22,17.7,17.7,0,0,0-4,2.65l-0.14.13,0.18,0a13.31,13.31,0,0,1,3.88,1.67l0.08,0.05,0.06-.08a4.86,4.86,0,0,1,2.93-2l0.16,0-0.09-.13a9.74,9.74,0,0,1-.61-1C255.49,155.59,255.05,154.82,254.27,154.82Zm-5.6-5.48c-2.41,1.26-5.13,2.69-6.39,5.2,0.06,0.26,6.31,2.53,6.37,2.55h0a5.1,5.1,0,0,0,1.45-1.15c0.33-.29.61-0.54,0.71-0.61l0.13-.1a4.73,4.73,0,0,1,2.77-1.29l0.33,0,0.2-.09a17.81,17.81,0,0,0-4.43-4.93l-0.15-.13Zm-3.07-3.47c-3.18,1.68-5.32,3.36-6.56,5.12-0.18.26-.35,0.53-0.52,0.8l-0.39.61-0.06.09,0.09,0.06a17.28,17.28,0,0,0,3.3,1.64l0.08,0,0-.07a11.12,11.12,0,0,1,3.11-3.38c0.55-.38,3.77-2.21,4.39-2.21l0.18-.13a9.17,9.17,0,0,0-3.58-2.54l0,0Zm-4.52-1a4.9,4.9,0,0,0-2,.41,7.63,7.63,0,0,0-4.1,6v0.09l0.3,0.07a8.88,8.88,0,0,1,2.29.76l0.09-.18c-0.08-.33,2.24-3.08,3-3.93a6.62,6.62,0,0,1,3.22-2.26l0.25-.06-0.22-.13A5.69,5.69,0,0,0,241.08,144.84Z" transform="translate(-216.44 -143.93)"/><path class="cls-2" d="M236.56,192.66a8.06,8.06,0,0,1-1.14-.08,13.72,13.72,0,0,1-3.64-1.45c-0.67-.34-1.31-0.66-1.87-0.89l-0.83-.34a3.1,3.1,0,0,0-1-.33,1,1,0,0,0-.52.2,8.23,8.23,0,0,1-1.3.6,2.38,2.38,0,0,1-.83.15c-2,0-4.38-2.58-6.95-7.66-2-4-2.53-7.38-1.66-10.75,1.25-1.45,3.24-2.21,5.88-2.21,5.06,0,11,2.74,12.65,3.58a2.64,2.64,0,0,1,1.52,2,2.24,2.24,0,0,1-.34,1.12,1.75,1.75,0,0,0-.29,1c0.18,0.84,1.22,1.74,2.13,2.54a10.39,10.39,0,0,1,1.26,1.21,13.31,13.31,0,0,1,2.83,6,4.14,4.14,0,0,1-1,3.38,6.64,6.64,0,0,1-4.94,1.91h0Zm-0.48-4.42a26.75,26.75,0,0,0-.25,2.93v0.09l0.08,0a5.6,5.6,0,0,0,1.09.11,8.21,8.21,0,0,0,2.61-.48l0.21-.07-0.19-.11a21.84,21.84,0,0,1-3.39-2.54l-0.14-.13Zm-6.91-5.49c-0.24.62-1.27,5.38-.26,6a18.42,18.42,0,0,0,6,2.36l0.14,0,0-.14a4,4,0,0,1,.11-1.38,2.94,2.94,0,0,0,0-1.55,6,6,0,0,0-1.32-1.55c-0.28-.27-0.54-0.52-0.71-0.72a14.2,14.2,0,0,0-3.17-2.62l-0.74-.5Zm10.3,0.14a14.54,14.54,0,0,0-3.75,2.49L235,186l-0.11.09,0.12,0.08c0.54,0.35,1.16.85,1.81,1.37,1.36,1.09,2.89,2.32,4.08,2.5h0.07l0-.06c1.1-2.05.09-4.1-.81-5.91-0.19-.39-0.38-0.77-0.55-1.15l0-.09Zm-16.4-4.07c-0.56,1.44-1,6.74.21,9.37a2.2,2.2,0,0,0,2,1.55,2.44,2.44,0,0,0,.65-0.1l-0.05-.19a45.13,45.13,0,0,1,.16-8.56c0-.12.07-0.18-2.24-1.74l-0.55-.37-0.11-.09Zm3.85,2.73c-0.45,2.32-1.06,5.5-.53,7.84l0,0.08h0.09a1.29,1.29,0,0,0,1-.49c0.3-1.57.8-6.5,0.81-6.55a4.75,4.75,0,0,0-1.23-1l-0.11,0Zm-9.77-7a3.86,3.86,0,0,1,0,.62,3.65,3.65,0,0,0,0,.44c0.85,3.74,2,8,4.63,10.84l0.17-.1c-0.65-2.13-.21-4.81.15-7,0.28-1.71-1.75-3-3.39-4-0.5-.32-1-0.62-1.34-0.9l-0.19-.15Zm21.13,7.31c-1.27,0-3.49,1.89-4.55,2.79l-0.36.3L233.5,185a0.8,0.8,0,0,0,.38.09c0.74,0,1.86-.79,2.94-1.55a10.76,10.76,0,0,1,2.09-1.28l0.14-.05-0.1-.11A0.86,0.86,0,0,0,238.28,181.84Zm-2.68-6.55a3.85,3.85,0,0,0-1.06.23c-3.3,1.07-5.66,1.93-8.37,4.12l-0.1.08,0.1,0.08c0.87,0.65,1.78,1.25,2.66,1.84,1.12,0.74,2.27,1.51,3.33,2.36l0,0,0.12,0a12.36,12.36,0,0,0,3.18-1.72,20.55,20.55,0,0,1,2.41-1.39l0.18-.07-0.16-.11c-0.78-.54-3.07-2.57-3.14-3.29a2.54,2.54,0,0,1,.55-0.83,1.6,1.6,0,0,0,.63-1.18A0.36,0.36,0,0,0,235.6,175.29Zm-5.08-2.64a7,7,0,0,0-2.34.46c-2.36.84-4.74,1.85-6.14,3.57l-0.08.09,0.11,0.06a8.67,8.67,0,0,1,1.2.85,8,8,0,0,0,1.68,1.11,0.7,0.7,0,0,0,.29.06,3.81,3.81,0,0,0,1.95-1.25,6.92,6.92,0,0,1,.76-0.65,15.63,15.63,0,0,1,7-2.44l0.32,0-0.28-.16C233.27,173.35,232,172.65,230.52,172.65Zm-6.67-1.46a32.81,32.81,0,0,0-3.69.22c-1.53.33-2.29,0.72-2.4,1.22s0.67,1.19,1.6,1.88a10.46,10.46,0,0,1,1.51,1.28h0a10.59,10.59,0,0,0,2.6-1.33,34.78,34.78,0,0,1,5-2.6v-0.2A20.68,20.68,0,0,0,223.85,171.19Z" transform="translate(-216.44 -143.93)"/><path class="cls-2" d="M268.27,193.16a9.86,9.86,0,0,1-1.76-.15l-0.58-.1c-2.86-.52-5.82-1.05-8.24-2.9-2.14-1.64-3-3.91-3.93-6.31a28.22,28.22,0,0,0-1.46-3.36,23,23,0,0,0-3.31-4.55,9.75,9.75,0,0,0-2.35-1.87l-0.86-.55a2.82,2.82,0,0,0-1.17-.39,4,4,0,0,1-1-.27,1.29,1.29,0,0,1,1.13-.65,4,4,0,0,1,1,.18,4.43,4.43,0,0,0,1.13.2,1.76,1.76,0,0,0,.58-0.09,15,15,0,0,1,4-.46l0.88,0a20.64,20.64,0,0,1,7.14,1.32c6,2.2,9.39,9.38,10.27,11.53a16.71,16.71,0,0,0,4.21,5.21,3.92,3.92,0,0,0,1.28.38,1.94,1.94,0,0,1,1.28.49,0.56,0.56,0,0,1-.18.49,5.45,5.45,0,0,1-2.29.81c-0.36.08-.69,0.15-0.9,0.22a16.08,16.08,0,0,1-4.82.84h0Zm-2.91-4.57a4,4,0,0,0,.44,3.07,2.13,2.13,0,0,0,1.58.82l0.44,0a11.48,11.48,0,0,0,3-.55l1-.27,0.89-.21-0.27-.12a13.43,13.43,0,0,0-2.6-.75c-1.6-.35-3.11-0.67-4.32-2.05l-0.14-.15Zm-3.86-3.14c-0.1.38-.23,0.77-0.35,1.16a7.18,7.18,0,0,0-.49,4.06,10.42,10.42,0,0,0,2.67,1c0.39,0.1.79,0.2,1.18,0.32l0.21,0.06-0.09-.2a3.94,3.94,0,0,1-.05-2,3.74,3.74,0,0,0,0-1.74c-0.26-.68-1.24-1.57-2.91-2.66l-0.12-.08Zm6.83,0.59a3.54,3.54,0,0,0-1.68.63,12,12,0,0,1-1.18.61l-0.12.05,0.08,0.1c1.19,1.49,5,3.14,7.24,3.14a3.71,3.71,0,0,0,.52,0l0.16,0-0.09-.13a19.6,19.6,0,0,0-3.55-3.77A2.25,2.25,0,0,0,268.33,186Zm-10-5a17.7,17.7,0,0,1-.68,2,8.06,8.06,0,0,0-.81,4.61,7.18,7.18,0,0,0,2.83,2.58l0.07-.19a0.14,0.14,0,0,1-.06-0.09c-0.27-.85,1-4.86,1.33-5.33l0-.06,0-.06c-0.41-.52-0.77-1.06-1.14-1.6s-0.86-1.28-1.36-1.88l-0.13-.15Zm7,0.9a7.83,7.83,0,0,0-4,1.31l-0.09.06,0.06,0.09a12.06,12.06,0,0,0,1.81,1.92,14.64,14.64,0,0,1,1.42,1.42l0.07,0.08,0.08-.07a7.14,7.14,0,0,1,3-1.39c0.35-.1.71-0.2,1.05-0.32l0.09,0,0-.09A3.39,3.39,0,0,0,265.31,181.94Zm-12-5.2a1.61,1.61,0,0,0-1.43,1.18l0,0.06,0,0a6,6,0,0,1,1.22,2.38,8.49,8.49,0,0,0,1,2.23,8.76,8.76,0,0,0,.88,1.86,9.16,9.16,0,0,1,.9,1.9l0.2,0a9.91,9.91,0,0,1,.66-3.61l0-.14a6.55,6.55,0,0,1,.4-1c0.3-.61.43-0.89-0.26-1.87S254.7,176.74,253.33,176.74Zm7.3-1.28a11,11,0,0,0-4.27,1.32l-0.82.37,0.14,0.1a18.88,18.88,0,0,1,4.9,5.4l0.08,0.14,0.09-.14c0.64-1,3.41-1.82,4.89-1.82a2.9,2.9,0,0,1,.55,0l0.19,0-0.08-.18a8.45,8.45,0,0,0-2.15-3.24A4.27,4.27,0,0,0,260.64,175.45Zm-12.34-1.62a23.8,23.8,0,0,1,3.05,3.34l0.06,0.08,0.08-.06a1.25,1.25,0,0,0,.58-1.4c-0.35-1.11-2.48-2.06-3.7-2.13l-0.29,0Zm1.8-.88h-0.72l0.2,0.17a8,8,0,0,0,1.84,1l0.7,0.33a7.68,7.68,0,0,1,1,.67,5.54,5.54,0,0,0,1.41.87,1.83,1.83,0,0,0,.52.07,10.86,10.86,0,0,0,3.5-1.05c0.48-.2.94-0.39,1.33-0.53l0.27-.09-1-.38a14.36,14.36,0,0,0-4.72-1.21,4.62,4.62,0,0,0-.87.08,8.62,8.62,0,0,1-1.3.09l-1.06,0Z" transform="translate(-216.44 -143.93)"/></svg>