<svg id="WW_SecondaryIcons_FlowersLeaves_CMYK" xmlns="http://www.w3.org/2000/svg" viewBox="0 0 67.53 75.36"><defs><style>.cls-1{fill:#69b94c;fill-rule:evenodd;}</style></defs><title>Icons_FlowersLeaves_16</title><path class="cls-1" d="M703.39,186.93a2.3,2.3,0,0,0,.91-1.07,0.54,0.54,0,0,0-.5-0.46,0.7,0.7,0,0,0-.36-1.18c-1.28-.09-1.78,2.48-3.06,2.87,0.15-.41.74-1,1.07-1.66,0.53-1.13.5-3.48-1.15-2.76a0.91,0.91,0,0,0-1.1-.69c-1.49.36-.31,3.79,0.25,4.95-1.14-.57-0.67-3.9-2.59-3a2,2,0,0,0,.39,2.77c0.59,0.53,1.54.63,2,1.07-0.14.33-.27,0.67-0.44,1-1,.44-2.65,1-3.68.7a6.75,6.75,0,0,0-1-.44,9.55,9.55,0,0,0-1.79.06c-1.41.17-2.28,0.83-3.58,1.24a23.84,23.84,0,0,1,1.73-2.55,27.42,27.42,0,0,0,3.11-5.52,16.43,16.43,0,0,1,1.32-2.89c0.16-.23.37-0.37,0.51-0.58a17.72,17.72,0,0,0,2.09-5,40.28,40.28,0,0,1,2-4.19,4.12,4.12,0,0,1,1.06-1.73,7.21,7.21,0,0,0,1.07-1c0.6-.15,1.19-0.46,2-0.65,1.11,0.79-.46,2.88.06,3.94a0.89,0.89,0,0,0,1.51-.08,3.42,3.42,0,0,0,.55.73,1.33,1.33,0,0,0,1.17-.43c1.31-1.59-1.33-4.07-2.7-4.34,0.53-.58,1.48-0.4,2.38-0.25a6,6,0,0,0,1.87.34,4.38,4.38,0,0,0,1.76-.61,1.34,1.34,0,0,0,.32-1.93,1,1,0,0,0-.8-0.19c0.17-.71.12-1.6-0.67-1.68-2.93.46-3.11,2.78-5.09,3.88,0.29-1.24,1.68-3.6.15-4.67a1.14,1.14,0,0,0-.89.45c-0.61-.72-1.55.14-1.5,0.84,0.07,1.12,1.48,1.85,1.71,2.79a4.84,4.84,0,0,1,0,.83,5.32,5.32,0,0,0-3.45,1.91c0-1.5.29-3,.22-4.69s-0.4-3.26.22-4.69c0.15-.35.53-0.63,0.65-1a8,8,0,0,0,.16-1.35,4.05,4.05,0,0,1,1-2.13,6.26,6.26,0,0,1,2.09-1.78c1,0.15,1.65,2,2.48,2.44a0.93,0.93,0,0,0,1.45-.76,0.81,0.81,0,0,0,.76-1.12c-0.46-1.09-3-.8-4.13-0.95,0.37-.53,1.2-0.34,1.78-0.48,1.31-.32,3.16-1.44,2.65-2.86a1.94,1.94,0,0,0-1.31,0,2.57,2.57,0,0,0-.1-1.23,1.87,1.87,0,0,0-2.13.82c-0.7,1-.46,2.58-1.29,3.44-0.36-.63.08-2.15-0.29-3-0.25-.57-1.21-0.95-1.56-0.19a0.94,0.94,0,0,0-1.49.56c-0.1,1.57,2.43,2.2,3,2.9-1.36.87-2.48,1.55-3.07,2.8-0.11.23-.17,0.75-0.29,1a7.36,7.36,0,0,0-.23,1.36c-0.1.56-.51,1-0.6,1.57a7.7,7.7,0,0,0-1.5-1.31c-0.15-1.06.75-1.54,1.09-2.29,0.2-.44.2-0.87,0.44-1.33,0.09-1.32-1.09-1.76-1.54-.82a1,1,0,0,0-1.69-.51c-0.76.91,0.4,3.67,0.92,4.47-1.57.08-1-4.16-2.61-4.22a1.07,1.07,0,0,0-1.1.77,2.12,2.12,0,0,0-1,0c-0.79.82,0,1.36,0.86,2a5.49,5.49,0,0,0,1.49.9c0.28,0.08.56,0,.79,0.13a5.86,5.86,0,0,1,1.06.84c-1.71-.15-4,0.67-3.26,2.56a1.42,1.42,0,0,0,1.24,0,1.64,1.64,0,0,0,.38.9,1.56,1.56,0,0,0,1.3-.46c0.61-.7.27-2.5,1.25-2.53a2.52,2.52,0,0,1,1.6,1.5,5.19,5.19,0,0,1-.17.93,4.26,4.26,0,0,1,0,1.59,3.31,3.31,0,0,1,.24,1.62c0.08,2.63-.17,5.34-1.32,7.26a10,10,0,0,0-1.44,2.29,6.65,6.65,0,0,0,0,.69,12.3,12.3,0,0,1-1.24,4.05c-0.45.81-1.17,1.37-1.65,2.26a4.47,4.47,0,0,0-.88-2.05,4.74,4.74,0,0,1,.74-0.49,4.22,4.22,0,0,0,1.25-1.07c0.41-.5,1.56-2.31.59-2.75a1.09,1.09,0,0,0-1,.26,2.26,2.26,0,0,0-.22-0.79c-2.28-1.13-1.27,3-1.67,4.34a2.1,2.1,0,0,1-.47-1c0-.4.18-0.91,0.15-1.41a5.27,5.27,0,0,0-.79-2.69,1,1,0,0,0-1.74.68,1.29,1.29,0,0,0-.71-0.07,1.94,1.94,0,0,0,.19,2.81c0.62,0.5,1.62.78,2.33,1.29,0.07,0,.05.21,0.12,0.26s0.58,0,.49.39c-0.77,0-2.59-1.39-4.1-.75-0.61.27-.93,1.29,0.16,1.22-0.86,1,.45,1.34,1.63.94a8.09,8.09,0,0,0,1-.46,7.9,7.9,0,0,1,.87-0.51,1.29,1.29,0,0,1,1.2.46,12.75,12.75,0,0,1,.3,2.3,11.48,11.48,0,0,1-1.7,4.21c-0.38.65-.74,1.29-1.17,1.89a28.4,28.4,0,0,1-2.24,2.79c-0.32.35-.58,0.76-0.91,1.07a15.59,15.59,0,0,0-1.89,2.09c-1.12,1.61-1.85,3.36-3.31,4.45-0.38.51-.85,0.92-1.25,1.42a6.86,6.86,0,0,1-1.27,1.35c-0.31.22-.73,0.33-1.07,0.55a12.83,12.83,0,0,0-1.14.91c-0.91.78-1.63,1.61-2.51,2.49a3.92,3.92,0,0,1-.46.5,4.11,4.11,0,0,1-.59.18c-0.31.15-.59,0.42-0.86,0.58a7.76,7.76,0,0,0-.87.51c0.29-.67.89-1.09,1.26-1.77a17,17,0,0,0,1-3.24c0.53-1.76,1.74-3.4,2.25-5.28,0.09-.33.08-0.72,0.14-1.07a3.63,3.63,0,0,0,.19-1.56c-0.12-.57-0.55-1.1-0.65-1.61-0.28-1.44.4-2.47,0.48-3.7a24.35,24.35,0,0,0-.31-3.06,4.62,4.62,0,0,1,.63-1.79,14.27,14.27,0,0,1,1.23-1.55c0.82,0.47.43,2.12,1.16,2.83a1,1,0,0,0,1.74-.68,0.85,0.85,0,0,0,1.38-.4c0-.58-1.22-1.67-1.68-1.9a5.36,5.36,0,0,0-2.09-.43c0-.6.71-0.43,1.09-0.48a7.41,7.41,0,0,0,1.34-.25c1.41-.49,2.85-2.12,1.59-3.29a2.26,2.26,0,0,0-.82.09c-0.09-.5-0.17-1.21-0.66-1.26-0.84-.08-1.56,1.26-1.83,2-0.37,1-.34,2.13-1.05,2.49-0.07-1.14-.63-3.58-1.79-3.54a0.78,0.78,0,0,0-.82.78,5.79,5.79,0,0,0-.59-0.17c-0.09-1.38-.76-2.87-0.67-4.24,0.05-.79.38-1.47,0.41-2.23,0-.25-0.07-0.49-0.07-0.75A16.07,16.07,0,0,1,676,165c1.16-.41,2.41.7,3.76,0.46,1-.18,2-1.16.72-1.66a0.78,0.78,0,0,0,.15-0.65c-0.92-.71-1.88.21-2.79,0.67-0.58.29-1.15,0.51-1.66,0.73a1.3,1.3,0,0,1,.82-0.78,5.62,5.62,0,0,0,2.35-1.14,4.82,4.82,0,0,0,.95-1.22c0.26-.54.36-1.63-0.74-1.32,0.26-2.07-1.77-1.42-2.44-.09a4.92,4.92,0,0,0-.46,1.61,8.9,8.9,0,0,1,0,1,5.86,5.86,0,0,1-.68,1.17,8.32,8.32,0,0,1,.38-2.36c0.15-.71.31-2-0.52-2a1,1,0,0,0-.81,1.2c-0.68-.05-0.63-1.18-1-1.68a4,4,0,0,0,2.81-3.45,0.72,0.72,0,0,0-1,0c-0.78.54-.91,2.34-1.9,2.79-0.08-.47.86-3.47-0.54-3.57a0.55,0.55,0,0,0-.62.4c-1.76-.87-1.47,2-0.34,2.56-0.67,0-1.13-1.21-2-1a0.89,0.89,0,0,0-.36,1.39,2.78,2.78,0,0,0,1,.78c0.8,0.35,1.81,0,2.48.29,0.26,0.37.38,0.93,0.6,1.34,0,0.34-.61.32-0.79,0.57-0.5,2,2.72,2.77,1.6,5.11-0.13,2.16-.72,4-0.75,6.25a4.69,4.69,0,0,0-2.25-1.24c-0.44-1-.83-2.94-1.76-3.41-0.44-.22-1.36-0.23-1.27.59a0.79,0.79,0,0,0-1,.54c0.23,2,2.43,1.17,3.33,2.21-0.78,0-2.12-.86-3.55-0.43-1.1.32-2.19,1.73-.51,1.69a0.84,0.84,0,0,0,.22.79c1.71,0.34,2.57-1.89,4.45-1.4,0,0.59-.71.78-1,1.23a5.07,5.07,0,0,0-.56,1.42,2.58,2.58,0,0,0,.25.92A1.13,1.13,0,0,0,672,175a3.56,3.56,0,0,0,.37.83,1.1,1.1,0,0,0,1-.4c0.69-1-.65-2.59-1-3.63,1,0,1.36.8,1.93,1.37a21.47,21.47,0,0,0,.43,3,2.85,2.85,0,0,1,.2.66,4,4,0,0,0-.31,1.31,1.5,1.5,0,0,0,.47.67c0.09,0.82.06,1.65,0.19,2.46,0.28,1.71,1.13,3.25,1.08,4.93a0.75,0.75,0,0,0-1-.36c-0.22-1.26-1.45-.75-1.78.13s0.16,2.33-.31,2.76c-1.08-.69-0.16-3.16-1.35-4.18a1.35,1.35,0,0,0-2.27.85,1.63,1.63,0,0,0-1.08.14,0.85,0.85,0,0,0,0,.89c0.61,1.7,3.19,1.69,4.33,2.71a9.86,9.86,0,0,0-3.26,0c-1,.29-2,1.48-0.64,1.72,0.07,1.33,1.54.83,2.31,0.12a5.67,5.67,0,0,0,.51-0.58,1.43,1.43,0,0,1,1.68-.67c0.53,0.52,1.44.81,2,1.42a4.18,4.18,0,0,1,1,2.65,3.75,3.75,0,0,1-.21.73c-0.12.36-.22,0.67-0.34,1.11a2.26,2.26,0,0,0-.21,1.08,8.7,8.7,0,0,0-.74,1.6c-0.08.18-.26,0.3-0.32,0.48s-0.11.64-.24,0.95-0.33.51-.41,0.77,0,0.49-.07.71a7.17,7.17,0,0,1-.35.69,18.22,18.22,0,0,1-.94,2,18.66,18.66,0,0,1-3.89,4.35,10.69,10.69,0,0,1-2.58,1.74,23,23,0,0,1-4.52,2.11c-0.34.12-.74,0.13-1.06,0.27a9.36,9.36,0,0,0-1.41,1,11.57,11.57,0,0,0-1.25,1.07,13.63,13.63,0,0,0-.15-4.06c-0.09-.33-0.29-0.66-0.4-1a24.83,24.83,0,0,1-1.09-3.19c-0.14-.82-0.11-1.6-0.31-2.37a19.16,19.16,0,0,0-.86-2.33c-0.32-.76-0.5-1.61-0.85-2.27-0.13-.24-0.36-0.37-0.46-0.61a7.54,7.54,0,0,1-.39-1.31,18.68,18.68,0,0,1-.38-2c-0.16-1.4.38-2.7,0.47-4.11a5.83,5.83,0,0,0,.92.45c0.59,0.41,1.15,1.71,2,1.62a1.4,1.4,0,0,0,1-.89,1.77,1.77,0,0,0,1.1-.07c0.56-1.11-.65-1.64-1.93-1.78-0.76-.09-2,0.54-2.72.31,0.19-.82,1.3-0.66,2.11-1,1.1-.4,2.65-1.39,1.87-2.58a2.08,2.08,0,0,0-.87-0.18,1.26,1.26,0,0,0-.47-1.37c-3.05-.18-1.71,3.06-3,4.38-0.22-1.74-.88-2.81-2.11-3.07-0.2-1,0-2.06-.08-3a10,10,0,0,1-.37-1.94,23.08,23.08,0,0,0,.38-2.36,31.65,31.65,0,0,0-.61-3.21,4.24,4.24,0,0,0,2.21-3,4.27,4.27,0,0,1,.74,1.32,4.78,4.78,0,0,0,.78,1.17c0.76,0.61,2.54.2,2.29-1.06a1.2,1.2,0,0,0,1.08-.9,1.88,1.88,0,0,0-1-1.26,6.89,6.89,0,0,0-2.51-.42c0.4-.43,1.41-0.55,2.09-1s2.13-2.6,0-2.43a1.27,1.27,0,0,0-.27-0.71,1.82,1.82,0,0,0-1.36.12c-1.09.91-1.3,2.41-1.55,3.9a1.75,1.75,0,0,0-2.69-1,17.66,17.66,0,0,1,.63-3.59c0.13-.65.25-1.31,0.39-1.95,0.44-1.93.51-3.83,1.73-5.12,1.13-.11,2.67,1.16,3.69,1.17a1.58,1.58,0,0,0,1.42-.55,0.87,0.87,0,0,0-.68-1c0.89-1-.58-1.33-2-0.87a9.62,9.62,0,0,1-1.66.73c0.63-.86,2.71-0.85,3.62-1.73,0.6-.58,1-2.1-0.45-2a1.87,1.87,0,0,0-.17-0.87,1.59,1.59,0,0,0-2.09,1c-0.44,1-.05,2.49-1,3,0-1.27,1.3-3-.12-3.93,0.22-.44.39-0.89,0.64-1.37a20.53,20.53,0,0,0,1.59-2.59,9.24,9.24,0,0,1,.28-1.09,2.76,2.76,0,0,1,.43-0.64s0-.06,0-0.07c0.39-.15,1.25.46,2.23,0.41a4.42,4.42,0,0,0,1.27-.24s1.08-.46,1-1c-0.21-1.2-3,.28-3.93.47-0.15-.18.15-0.31,0.26-0.47a1.18,1.18,0,0,1,.86-0.58,5.42,5.42,0,0,0,2.37-.66c0.66-.53.88-2.09-0.61-1.76a1.51,1.51,0,0,0-.68-1.4c-2.09.57-.94,3.56-2.77,4.41a1.53,1.53,0,0,1,.29-1c0-.11,0-0.27.07-0.36,0.39-.78,1.45-1.38.8-2.72a0.76,0.76,0,0,0-.56,0,1.07,1.07,0,0,0-.53-0.59c-1.71.68-1.19,3.45-.41,5.14a7.58,7.58,0,0,1-.48,1.13c-0.16.39-.25,0.79-0.4,1.19a14.7,14.7,0,0,1-1.55,2.44c0.43-1.55-1.36-3.16-1.28-4.89,0-.23.82-3.29-0.53-3.16a0.54,0.54,0,0,0-.51.58c-0.9-1-2.25.43-1.24,1.49-0.63-.18-1.23-0.78-2-0.45a1.6,1.6,0,0,0,.18.94c-0.9-.19-1.54,1.12-0.68,1.52,0.63,0.29,1.73-.2,2.74-0.18s1.29,0.63,1.8.7c0.18,0.51.65,1,.87,1.64a6.81,6.81,0,0,1,.13,3.24,2.51,2.51,0,0,1-1.43.48c-0.84.87,0.11,2.37,0.72,3.05-0.26,2.06-1.23,3.63-1.48,5.69a3.64,3.64,0,0,0-1.23-1c0.46-.94,1.88-3.1.17-4.19a0.86,0.86,0,0,0-.7.34,0.88,0.88,0,0,0-.89-0.66c-0.57.13-.75,1-0.47,1.89s1.31,1.37,1.24,2.12a1.64,1.64,0,0,1-.88-0.25,3.16,3.16,0,0,1-.84-0.4c-0.5-.42-0.68-1.27-1.16-1.72a2.43,2.43,0,0,0-2.33-.6A1,1,0,0,0,644,162a1.06,1.06,0,0,0,0,2,4.24,4.24,0,0,0,3.52-.46,2.2,2.2,0,0,1,2,.25c-0.15.15-.22,0.44-0.43,0.64a11.3,11.3,0,0,1-1.5.84c-0.87.58-1.34,2.21,0.25,1.69a0.84,0.84,0,1,0,1.67,0c0.46-.71.25-1.76,0.36-2.84a1.58,1.58,0,0,1,1.28,1.28A6,6,0,0,1,651,167c-0.08.49-.17,1.05-0.27,1.51a20.08,20.08,0,0,0-.61,3c0,0.54.1,1,.09,1.58-0.75.38-1.59,0.71-1.25,1.83a1,1,0,0,0,.75.27,2,2,0,0,0-.05,1.19,0.82,0.82,0,0,0,.73.21,29.67,29.67,0,0,1,.65,3.07c0.07,1-.5,2-0.33,3a4.47,4.47,0,0,1-.82-1c-0.3-1.12,1.47-3.13.24-4.21a1.1,1.1,0,0,0-.7.34,0.8,0.8,0,0,0-.83-0.74c-1.32.38-.07,2.71,0.53,3.51a3.15,3.15,0,0,1-.84-0.39c-0.92-.74-1.49-2.83-2.57-2.56a0.51,0.51,0,0,0-.45.57,2.29,2.29,0,0,0-.61,0c-0.85,1.33,1,2.11,2.09,2.24-0.66,0-2.13-.07-2.05.88,0.14,1.74,3.22.05,4.58,0.38a10.45,10.45,0,0,1,1.61,2.26c0.34,0.73,0,2.14.18,3.15a5,5,0,0,0-.44,1c-1.28.1-.68,1.89,0.55,1.77-0.17,1.29.86,2.09,1.15,3.11,0.36,1.29.28,2.57,0.53,3.85,0.35,1.8,1.51,3.65,2.1,5.56,0.06,0.18.05,0.42,0.11,0.6s0.38,0.62.46,1,0,1.09.1,1.64,0.12,1.06.23,1.55c0.27,1.23,1,2.21,1.33,3.35a8.62,8.62,0,0,1-.43,5,9.29,9.29,0,0,1-4.29,3.75,2.47,2.47,0,0,1,.56.34,11.56,11.56,0,0,0,3.53-2.6c0.82-.9,1.72-1.72,2.62-2.65a6.69,6.69,0,0,1,2-1.56c0.37-.16.83-0.17,1.19-0.3a11.73,11.73,0,0,0,1.09-.48c2.16-1,4.07-1.68,5.76-3.25a18.38,18.38,0,0,1,3.32-2.58,25.59,25.59,0,0,0,2.8-1.71c0.28-.21.59-0.37,0.86-0.58a14.76,14.76,0,0,0,1.77-2,16.87,16.87,0,0,1,2.25-1.68,23.2,23.2,0,0,0,2.85-2.9c0.31-.36.66-0.63,0.93-0.94a14.57,14.57,0,0,0,1.23-1.9c0.39-.63.71-1.36,1.15-2a5.83,5.83,0,0,1,2.65-1.75c0.43-.14.88-0.17,1.26-0.31s0.45-.27.63-0.33a8.65,8.65,0,0,1,3.76-.3c0.29,0,.52.21,0.81,0.26a4.9,4.9,0,0,0,3.65-.84,6.61,6.61,0,0,1,1.19-1.41C701.19,187.24,702.55,187.43,703.39,186.93ZM675.67,179c0.8,0.54,2,.55,2.39,1.63a18.92,18.92,0,0,0-1.72,2.62A12.18,12.18,0,0,1,675.67,179Zm-2,10.08a3.94,3.94,0,0,0,2.66-2.8c0.21,1.44-.28,2.31-0.46,3.42a1.78,1.78,0,0,1-.17.93C675.28,189.84,674.24,189.85,673.71,189.12Zm-20.63-28.94a2.52,2.52,0,0,1,.18-0.52,1,1,0,0,1,.14.39C653.23,160,653.15,160.33,653.08,160.18Zm-2.43,12.74c-0.12-.37,0-0.58-0.11-0.95a1.37,1.37,0,0,1,2-.38,3.27,3.27,0,0,0,.55,1.07A11.63,11.63,0,0,1,650.65,172.92Zm-3.78,7.45a2.3,2.3,0,0,1,1,.36A2.41,2.41,0,0,1,646.86,180.36Zm4.8,9.56c0.64,0.18,1.46.12,1.6,0.74a2,2,0,0,1-.22.67,4.8,4.8,0,0,1-.28,1.44C652.37,191.87,651.63,190.91,651.67,189.92Z" transform="translate(-643.3 -144.11)"/></svg>