<svg id="WW_SecondaryIcons_FlowersLeaves_CMYK" xmlns="http://www.w3.org/2000/svg" viewBox="0 0 59.32 127.11"><defs><style>.cls-1{fill:#7cbf5e;}.cls-2,.cls-3{fill:none;}.cls-2{stroke:#644130;stroke-miterlimit:10;stroke-width:0.94px;}.cls-4{fill:#644130;}.cls-5{fill:#addbe1;}.cls-6{fill:#fdc400;}.cls-7{fill:#f4f2e7;}</style></defs><title>Icons_FlowersLeaves_2</title><path class="cls-1" d="M49.68,328.93a10.4,10.4,0,0,0,3.07-1.76,23.27,23.27,0,0,0,6.24-9.3c3-7.52-14.85-3.35-17.82-1.73-4.35,2.36-2.15,8.22.5,11.24C43.78,329.78,47,329.93,49.68,328.93Z" transform="translate(0 -266.93)"/><path class="cls-1" d="M31.37,321a16.72,16.72,0,0,0-4.37.18c-3.56.62-8.1,1.4-11,3.53-3.31,2.42,2.33,7.37,7.21,9.81a10.21,10.21,0,0,0,7,1.09c4.67-.84,6.22-6.46,5.69-10.18C35.45,322.44,34.08,321.43,31.37,321Z" transform="translate(0 -266.93)"/><path class="cls-2" d="M36.19,308.58s6.77,47.69-1.35,85.36" transform="translate(0 -266.93)"/><path class="cls-3" d="M30.14,323.09a8.4,8.4,0,0,1,.11,3.46,12.91,12.91,0,0,0,2.66.68c0-.41.13-0.83,0.17-1.24a14.12,14.12,0,0,0-1.2-6.06,6.75,6.75,0,0,0-3.23-.31C29,319.58,30,322.64,30.14,323.09Z" transform="translate(0 -266.93)"/><path class="cls-3" d="M35.84,322.75A3.8,3.8,0,0,0,33,320.67a5.05,5.05,0,0,1,.73,2.89c0,0.32.06,3.86-.3,3.77a7.23,7.23,0,0,1,1.82.77A5.66,5.66,0,0,0,35.84,322.75Z" transform="translate(0 -266.93)"/><path class="cls-3" d="M31.62,327.86a4.79,4.79,0,0,1-.86,2.28,6.32,6.32,0,0,1-2.79,2.7c-0.32.17-.66,0.32-1,0.48,0.86,0.11,1.62.46,2.51,0.5a6.2,6.2,0,0,0,3.15-.58,4.33,4.33,0,0,0,.75-0.55l0.11-.1c1-.95,2.22-2.59,1.44-3.61C34.37,328.2,32.52,328.09,31.62,327.86Z" transform="translate(0 -266.93)"/><path class="cls-3" d="M24.45,322.68c0.05,0.25.26,2,.32,2s1.61,0.61,2.87,1.07l0.21,0.08c0.91,0.33,1.66.6,1.66,0.58,0.58-2.27-.55-4.65-1.36-6.75a13.42,13.42,0,0,0-5,.62,0.09,0.09,0,0,1,.08,0A3.42,3.42,0,0,1,24.45,322.68Z" transform="translate(0 -266.93)"/><path class="cls-3" d="M30.95,327.65c-1-.27-2.13-0.79-3.23-1.11l-0.09,0a6.17,6.17,0,0,0-1.5-.26A6.23,6.23,0,0,1,21.77,330a3.28,3.28,0,0,0,1.37,1.34,13.86,13.86,0,0,0,1.9,1.09,2.39,2.39,0,0,0,1.16.22h0.06C28.49,332.47,30.77,329.5,30.95,327.65Z" transform="translate(0 -266.93)"/><path class="cls-3" d="M25.49,326c-1.25-.42-2.05-0.81-3-0.39s-1.63,1.64-2.9,1.67a2.83,2.83,0,0,0,1,1.56L20.76,329C22.27,329.72,24.45,327.82,25.49,326Z" transform="translate(0 -266.93)"/><path class="cls-3" d="M19.49,321.66c-0.22-.49-1.4.38-1.91,0.47a5.24,5.24,0,0,1-.61.29,25.62,25.62,0,0,0,3.05,1A3.86,3.86,0,0,0,19.49,321.66Z" transform="translate(0 -266.93)"/><path class="cls-3" d="M21.95,324.94c-1.72-.7-3.62-1.16-5.39-1.73L16.92,324c0.55,0.58,1.37,2.67,2.11,2.84C20,327,21.48,325.66,21.95,324.94Z" transform="translate(0 -266.93)"/><path class="cls-3" d="M23.89,324.69a13.18,13.18,0,0,0-1-3.43c-0.5-1.26-1.64-.38-2.8-0.12a3.74,3.74,0,0,1,.72,2.59A10,10,0,0,1,23.89,324.69Z" transform="translate(0 -266.93)"/><path class="cls-4" d="M38.32,329.44a3.36,3.36,0,0,0-2.21-1.13c2-2,1.22-6-.92-7.6-3.48-2.58-9.06-2.56-13.07-1.42a25.23,25.23,0,0,0-5.23,1.93,2,2,0,0,0-1,1c-0.4,1,.9,3.36,1.44,4.18,1.59,2.44,4.12,4.41,6.41,6.15a14,14,0,0,0,2,1.3,0.18,0.18,0,0,1,0-.21c0.09,0.27.29,0.16,0.39,0.42l0.47,0.21c0.08-.11.19,0,0.25,0.1l0.31,0.11a0.09,0.09,0,0,1,0,0l0,0a7.74,7.74,0,0,0,4.47.23,5.49,5.49,0,0,0,4-5.55A3.56,3.56,0,0,0,38.32,329.44Zm-6.45-9.51a14.12,14.12,0,0,1,1.2,6.06c0,0.41-.12.83-0.17,1.24a12.91,12.91,0,0,1-2.66-.68,8.4,8.4,0,0,0-.11-3.46c-0.11-.45-1.19-3.51-1.5-3.47A6.75,6.75,0,0,1,31.87,319.93ZM25,319.54a1,1,0,0,0,.06.11c0,0.16-.17.14-0.17-0.05S25,319.33,25,319.54Zm3.15,0.11c0.8,2.1,1.93,4.48,1.36,6.75,0,0-.76-0.24-1.66-0.58a0.17,0.17,0,0,1-.12.12,1.58,1.58,0,0,1-.09-0.2c-1.26-.46-2.71-1-2.87-1.07s-0.27-1.75-.32-2a3.42,3.42,0,0,0-1.19-2.39,0.09,0.09,0,0,0-.08,0A13.42,13.42,0,0,1,28.16,319.65Zm0.71,6.83c-0.18.22-.65,0-0.4-0.21A3.45,3.45,0,0,0,28.87,326.48ZM24.12,324c-0.55-.47.2-0.56,0,0h0Zm-1.18-2.76a13.18,13.18,0,0,1,1,3.43,10,10,0,0,0-3-1,3.74,3.74,0,0,0-.72-2.59C21.29,320.87,22.44,320,22.94,321.26Zm-5.35.88c0.51-.09,1.69-1,1.91-0.47A3.86,3.86,0,0,1,20,323.4a25.62,25.62,0,0,1-3.05-1A5.24,5.24,0,0,0,17.58,322.13ZM19,326.81c-0.74-.17-1.56-2.26-2.11-2.84l-0.36-.75c1.77,0.57,3.67,1,5.39,1.73C21.48,325.66,20,327,19,326.81Zm0.6,1.9c-0.05-.14-0.19-0.31-0.07-0.39C19.61,328.46,19.74,328.62,19.62,328.71ZM20.76,329c0,0.15-.17.13-0.17-0.05a0.19,0.19,0,0,1,0,0,2.83,2.83,0,0,1-1-1.56c1.28,0,1.85-1.22,2.9-1.67s1.78,0,3,.39C24.45,327.82,22.27,329.72,20.76,329Zm5.71,4.52c-0.58.31-.37-0.4,0,0h0Zm0.09-.62c0-.2.07-0.07,0.06,0.11S26.52,333.05,26.56,332.86Zm-0.3-.25c-0.08.15-.08,0.1-0.06,0a2.39,2.39,0,0,1-1.16-.22,13.86,13.86,0,0,1-1.9-1.09A3.28,3.28,0,0,1,21.77,330a6.23,6.23,0,0,0,4.35-3.71,6.17,6.17,0,0,1,1.5.26,0.28,0.28,0,0,1-.06-0.33c0.41,0.18.29,0.36,0.15,0.36,1.1,0.32,2.21.84,3.23,1.11C30.77,329.5,28.49,332.47,26.26,332.62ZM33,334c-0.23.47,0.07-.52,0,0h0Zm0.5-1.38c0,0.08,0,.11-0.11.1a4.33,4.33,0,0,1-.75.55,6.2,6.2,0,0,1-3.15.58c-0.89,0-1.65-.39-2.51-0.5,0.32-.16.66-0.31,1-0.48a6.32,6.32,0,0,0,2.79-2.7,4.79,4.79,0,0,0,.86-2.28c0.9,0.23,2.74.34,3.35,1.13C35.75,330,34.57,331.65,33.53,332.6Zm1.69-4.5a7.23,7.23,0,0,0-1.82-.77c0.36,0.09.31-3.45,0.3-3.77a5.05,5.05,0,0,0-.73-2.89,3.8,3.8,0,0,1,2.88,2.08A5.66,5.66,0,0,1,35.21,328.1Z" transform="translate(0 -266.93)"/><path class="cls-5" d="M20.57,301c-2.19,1.12-5.54,1-8,1.46-2.72.49-5.41,1.81-8.21,1.81-2.31,0-3-.8-3.55-3.07C0,297.93-.26,294,0.91,290.83c0.8-2.16,2.65-1.51,4.69-1.17,3.43,0.58,6.82,1.17,10.19,2a49.46,49.46,0,0,1,4.93,1.38c2,0.75,1.92,1,1.67,3.19a20.09,20.09,0,0,0-.24,2.35Z" transform="translate(0 -266.93)"/><path class="cls-5" d="M23.75,294.45c-2.75-1-5.66-3-8.1-4.56-2.87-1.85-5.78-3.5-8.51-5.56-4.16-3.14-1-6.55,2.25-9.08,1.51-1.17,4.87-4.1,7-3.62,0.91,0.2,1.67,1.32,2.19,2,1.35,1.76,2.57,3.65,3.73,5.53a128.06,128.06,0,0,1,6.43,12.68Z" transform="translate(0 -266.93)"/><path class="cls-5" d="M27.28,291c-1.57-3.62-2-7.82-3.22-11.58-0.89-2.78-1.41-5.71-2-8.54-0.48-2.24.29-2.08,2.36-2.56,2.33-.53,5.69-1.27,8-0.08,1.48,0.76,1.25,2.81,1.46,4.34a38.12,38.12,0,0,1,0,9.83c-0.3,2.73-.76,5.49-1,8.18Z" transform="translate(0 -266.93)"/><path class="cls-5" d="M40.82,277.33c0.33-.54,1.37-2.71,2-2.94s2.45,1.13,3.17,1.53c2.07,1.13,9.53,4.65,8.52,7.59-0.58,1.68-2.44,3.45-3.79,4.51a68,68,0,0,1-6,4.5,4.65,4.65,0,0,1-2.91,1.07c-3-.29-7.8-1.06-6.59-4.91A51.63,51.63,0,0,1,40.82,277.33Z" transform="translate(0 -266.93)"/><path class="cls-4" d="M4.85,302a10.49,10.49,0,0,1-1.23-.07c-2.56-.31-3.15-1.45-3.44-3.75a18.59,18.59,0,0,1,1.36-10.43,2.35,2.35,0,0,1,2.2-1.46,8,8,0,0,1,2.29.5L6.72,287c3.38,1,6.68,2,9.9,3.24l0.86,0.33L18,290.74l-0.68-.48-0.89-.62c-0.84-.58-1.69-1.15-2.54-1.71C12,286.65,10,285.32,8.12,283.8a4.5,4.5,0,0,1-2-3.57c0.06-2.4,2.63-4.53,4.56-5.93l0.55-.41c1.57-1.16,4.19-3.11,6.16-3.11a2.64,2.64,0,0,1,.66.08,4.6,4.6,0,0,1,2.16,2l0.14,0.2c1.41,2,2.65,4.07,3.57,5.67s1.8,3.37,2.54,4.94c-0.3-1.56-.62-3.17-1-4.68a66.43,66.43,0,0,1-1.44-6.9q-0.15-.87-0.3-1.74a2.59,2.59,0,0,1,.13-2,2.64,2.64,0,0,1,1.87-.75l0.68-.12a25,25,0,0,1,4.61-.57,7.27,7.27,0,0,1,3.6.79c1.3,0.72,1.36,2.26,1.42,3.61,0,0.35,0,.69.06,1a38.33,38.33,0,0,1-.27,9.9c-0.14,1-.31,2-0.47,3-0.28,1.7-.57,3.46-0.74,5.16l0,0.27-4.91.2,0.46,1.07-5.46,2.63-0.13,0c-0.43-.17-0.88-0.37-1.36-0.6a6,6,0,0,1-.27,1.79l0,0.2c-0.06.24-.12,0.47-0.18,0.71a11,11,0,0,0-.33,1.56v0.1l-2,2.29-0.08,0a12.3,12.3,0,0,1-4.06.53l-1.58,0c-0.89,0-1.76,0-2.55,0a29,29,0,0,0-3.17.43A24.07,24.07,0,0,1,4.85,302Zm30.62-30.54c-0.05-1.25-.06-2.6-1.05-3.15a7,7,0,0,0-3.38-.75,20.91,20.91,0,0,0-4.25.68l-0.69.13a2.43,2.43,0,0,0-1.46.5,2.22,2.22,0,0,0,0,1.5q0.16,0.87.3,1.74a62.73,62.73,0,0,0,1,6.74c0.44,1.55.74,3.11,1,4.7,0.17,0.89.41,1.92,0.6,2.8l-0.32.18a79.26,79.26,0,0,0-3.64-7.37c-0.91-1.59-2.19-3.7-3.59-5.65L19.73,273a3.78,3.78,0,0,0-1.84-1.54,4.35,4.35,0,0,0-.75-0.13c-1.77,0-3.64,1.93-5.14,3.05l-0.56.41c-2.85,2.06-4.26,3.84-4.3,5.44a3.92,3.92,0,0,0,1.77,3.06c1.85,1.49,3.44,2.83,5.36,4.11,0.85,0.57,1.35,1,2.2,1.58L18,290.1c1.13,0.79,2,1.25,3.25,2l-0.31.55c-1.19-.59-2.39-1.05-3.67-1.54l-0.87-.46c-3.2-1.24-6.47-2.1-9.84-3.09l-0.68-.21a4.77,4.77,0,0,0-2.1-.47c-0.74,0-1,.7-1.37,1.47C1.07,290.89.8,294.18,1.29,298c0.27,2.18.64,3,2.79,3.27a4.42,4.42,0,0,0,.77,0,23.55,23.55,0,0,0,3.93-.45,29.66,29.66,0,0,1,3.24-.43c0.8,0,1.68.08,2.6,0.11,0.52,0,1.09.11,1.61,0.11a12,12,0,0,0,3.73-.66l1.74-2a12.32,12.32,0,0,1,.34-1.55c0.06-.23.12-0.46,0.18-0.69l0-.2c0.34-1.44.4-1.76-.08-2.16l0.35-.51a18.44,18.44,0,0,0,2.06,1l4.68-2.25-0.58-1.35L34,290c0.18-1.63.62-3,.89-4.6,0.16-1,.35-2.51.5-3.5a30.35,30.35,0,0,0,.24-8.73" transform="translate(0 -266.93)"/><path class="cls-4" d="M47.73,292.25a0.31,0.31,0,0,1-.27-0.15c-0.09-.15.27-0.37,0.41-0.47a25.66,25.66,0,0,0,2.62-1.85c0.45-.35,1.08-0.8,1.66-1.22s2.94-2.37,3.64-4.22c0.89-2.36-4.91-5.64-7.39-7l-0.75-.43c-0.2-.11-0.44-0.29-0.72-0.5a3.44,3.44,0,0,0-2.06-.83,5.19,5.19,0,0,0-1.6,1.73c-0.14.23-.25,0.43-0.33,0.54-1.87,2.83-4.41,6.37-5.87,10.3-0.06.16,0,.45-0.21,0.39a0.31,0.31,0,0,1-.18-0.4,54.46,54.46,0,0,1,5.74-10.64c0.07-.11.18-0.29,0.31-0.52,0.73-1.25,1.38-2.3,2-2.48s1.59,0.39,2.71,1.19c0.26,0.19.49,0.36,0.67,0.46l0.74,0.42c2.84,1.61,8.75,5,7.67,7.81-0.74,2-3.07,3.82-4,4.53-0.57.42-1.05,0.79-1.5,1.14a34.64,34.64,0,0,1-3,2.16A0.32,0.32,0,0,1,47.73,292.25Z" transform="translate(0 -266.93)"/><path class="cls-6" d="M22.91,300.27c-0.66-.18-3-1.25-3.31-1.91-0.62-1.22.85-1.9,1.35-2.83,0.81-1.5-.9-1.92-0.5-3.25,0.23-.78.94-0.49,1.31-0.92a8.14,8.14,0,0,0,.74-1.38,2,2,0,0,0,.69-0.55c0.11-.36-0.4-0.62-0.35-0.91a1.86,1.86,0,0,1,.89-1.5c1.41-.55,1.82,1,2.95-0.61,1-1.47.75-1.79,2.55-.74,1.62,0.94,1.91,0,3.35-.85,0.81-.46.2-0.57,1.15-0.37a7.75,7.75,0,0,1,1.35.78c0.72,0.43,1.51,1.6,2.13,1.62s1.16-1.25,2-.82c0.37,0.19.33,1.29,0.57,1.64,0.8,1.14,1.75,1,1.67,2.67-0.07,1.35-.94,2.13-1.74,3.12-1,1.21-1.66,2.56-2.65,3.77-2.84,3.46-8,2.87-12,4.11Z" transform="translate(0 -266.93)"/><path class="cls-5" d="M34.47,309.91c-1.28.53-2.85,0-4.2,0.08a26,26,0,0,1-6.84-.45c-1.68-.31-4.42-0.66-5.87-1.56s-0.48-1.89.27-3.14a34.72,34.72,0,0,1,5.76-7.24c0.81-.77,1.94-1.85,3.08-1.62,1.36,0.27,2.66,2.15,3.52,3.13,1.24,1.41,2.62,2.74,3.83,4.15,0.46-2.11.27-4.37,0.85-6.54,0.23-.88.54-3.18,1.4-3.72,1-.64,3.87-0.35,5-0.22s4.78,0.39,5.58,1.39c0.59,0.75-.25,2.9-0.51,3.81a22.86,22.86,0,0,1-3,5.74c-1,1.47-3.92,5.45-5.87,5.3Z" transform="translate(0 -266.93)"/><path class="cls-4" d="M33.1,309.36c-0.43,0-.86,0-1.28-0.08a8.78,8.78,0,0,0-1.53-.07,26.17,26.17,0,0,1-6.92-.46l-0.85-.15a15.87,15.87,0,0,1-5.13-1.45,1.71,1.71,0,0,1-.85-1,2.91,2.91,0,0,1,.72-2.05l0.3-.48a35.18,35.18,0,0,1,5.81-7.3c0.85-.81,2.07-2,3.36-1.7s2.32,1.58,3.2,2.65l0.49,0.59c0.56,0.64,1.17,1.28,1.76,1.89s1.31,1.62,1.85,2.22c0.12-.75.08-2.09,0.14-2.89a18,18,0,0,1,.39-3.49c0-.17.09-0.4,0.15-0.66,0.25-1.16.58-2.75,1.39-3.25s2.49-.58,5.2-0.26l0.5,0.05c2.17,0.22,4.56.54,5.28,1.45,0.56,0.7.18,2.11-.3,3.6l-0.15.49a23,23,0,0,1-3.06,5.83,15.33,15.33,0,0,1-5.68,5.29l-3.31,1A3.71,3.71,0,0,1,33.1,309.36ZM32,308.78c0.4,0,.92.06,1.31,0.06a8.06,8.06,0,0,0,2-.4l2.09-.83s2.8-.46,5.91-5.2a21.69,21.69,0,0,0,2.77-5.6c0-.14.25-0.61,0.31-0.8,0.28-.88.62-2.2,0.12-2.6-1.26-1-3-1-4.29-1.11l-1.14-.06a20.07,20.07,0,0,0-2.49-.15,3.9,3.9,0,0,0-2.17.46A4.26,4.26,0,0,0,35.31,295c-0.06.27-.11,0.51-0.16,0.69a19.12,19.12,0,0,0-.48,3.51,21.83,21.83,0,0,1-.36,3l-0.13.62-0.41-.49c-0.64-.76-1.36-1.51-2.05-2.24s-1.2-1.26-1.77-1.91l-0.5-.6c-0.77-.94-1.47-2-2.48-2.24s-2,.82-2.8,1.54a34.52,34.52,0,0,0-5.71,7.17l-0.3.49a2.56,2.56,0,0,0-.64,1.58,1.14,1.14,0,0,0,.57.65,12.67,12.67,0,0,0,4.39,1.25c0.31,0.05,1.25.15,1.51,0.2A70.3,70.3,0,0,0,32,308.78Z" transform="translate(0 -266.93)"/><path class="cls-7" d="M28,293.63a0.15,0.15,0,0,0,.09-0.21,4.79,4.79,0,0,1-.43-1.82,0.7,0.7,0,0,1,.56-0.5,0.93,0.93,0,0,1,.84.63,8.12,8.12,0,0,1,.27,1.33c0,0.1,0,.18.13,0.17s0.1-.08.09-0.18a8.77,8.77,0,0,0-.27-1.4l0-.17a1.11,1.11,0,0,0-1-.79,1,1,0,0,0-.88,1,3.76,3.76,0,0,0,.48,1.69l0.07,0.15A0.2,0.2,0,0,0,28,293.63Z" transform="translate(0 -266.93)"/><path class="cls-7" d="M32.63,294.43a0.12,0.12,0,0,1-.15-0.13,4.06,4.06,0,0,0-.37-1.55,0.6,0.6,0,0,0-.62-0.17,0.79,0.79,0,0,0-.4.8,6.93,6.93,0,0,0,.3,1.11c0,0.08,0,.15,0,0.18s-0.1,0-.13-0.1a7.64,7.64,0,0,1-.33-1.16l0-.15a0.94,0.94,0,0,1,.49-1,0.85,0.85,0,0,1,1,.42,3.22,3.22,0,0,1,.28,1.46c0,0.06,0,.11,0,0.14A0.16,0.16,0,0,1,32.63,294.43Z" transform="translate(0 -266.93)"/><path class="cls-7" d="M34.74,292.12a0.12,0.12,0,0,1-.11-0.15,3.88,3.88,0,0,0,0-1.52,0.57,0.57,0,0,0-.54-0.28,0.75,0.75,0,0,0-.54.66,6.61,6.61,0,0,0,.05,1.09c0,0.08,0,.15-0.07.16s-0.09,0-.1-0.12a7.21,7.21,0,0,1-.07-1.15v-0.14a0.9,0.9,0,0,1,.66-0.83,0.81,0.81,0,0,1,.89.61,3,3,0,0,1,0,1.42l0,0.13A0.15,0.15,0,0,1,34.74,292.12Z" transform="translate(0 -266.93)"/><path class="cls-7" d="M31.9,290.16a0.11,0.11,0,0,1-.09-0.14,4.05,4.05,0,0,0,0-1.38,0.44,0.44,0,0,0-.43-0.26,0.67,0.67,0,0,0-.42.6,6.85,6.85,0,0,0,.05,1c0,0.08,0,.14-0.05.15s-0.07,0-.08-0.11a7.69,7.69,0,0,1-.06-1.05v-0.13a0.78,0.78,0,0,1,.51-0.75,0.66,0.66,0,0,1,.71.57,3.2,3.2,0,0,1,0,1.29L32,290A0.14,0.14,0,0,1,31.9,290.16Z" transform="translate(0 -266.93)"/><path class="cls-7" d="M30.09,287.94a0.13,0.13,0,0,1-.13-0.15,4.9,4.9,0,0,0-.28-1.63,0.53,0.53,0,0,0-.55-0.23,0.8,0.8,0,0,0-.39.78,8.45,8.45,0,0,0,.24,1.17c0,0.09,0,.16,0,0.18s-0.09,0-.12-0.12a9.16,9.16,0,0,1-.26-1.23l0-.15a0.93,0.93,0,0,1,.48-1,0.79,0.79,0,0,1,.94.54,3.81,3.81,0,0,1,.21,1.54c0,0.06,0,.11,0,0.14A0.16,0.16,0,0,1,30.09,287.94Z" transform="translate(0 -266.93)"/><path class="cls-7" d="M26.29,287.56a0.16,0.16,0,0,1-.2-0.12,5.76,5.76,0,0,0-.88-1.74,0.63,0.63,0,0,0-.71-0.07,0.94,0.94,0,0,0-.17,1,9.78,9.78,0,0,0,.67,1.24c0.06,0.09.1,0.17,0,.22s-0.12,0-.17-0.09a10.83,10.83,0,0,1-.72-1.3l-0.08-.16a1.1,1.1,0,0,1,.2-1.26,0.93,0.93,0,0,1,1.24.29,4.47,4.47,0,0,1,.76,1.66l0.05,0.16A0.19,0.19,0,0,1,26.29,287.56Z" transform="translate(0 -266.93)"/><path class="cls-7" d="M23.41,291a0.13,0.13,0,0,1-.18-0.08,4.88,4.88,0,0,0-.91-1.38,0.53,0.53,0,0,0-.6,0,0.8,0.8,0,0,0,0,.87,8.59,8.59,0,0,0,.69,1c0.06,0.07.1,0.13,0,.18s-0.1,0-.16-0.06a9.16,9.16,0,0,1-.73-1l-0.08-.13a0.94,0.94,0,0,1,0-1.09,0.79,0.79,0,0,1,1.08.12,3.83,3.83,0,0,1,.8,1.33l0.06,0.13A0.16,0.16,0,0,1,23.41,291Z" transform="translate(0 -266.93)"/><path class="cls-7" d="M22,293.07a0.13,0.13,0,0,1-.19,0A4.9,4.9,0,0,0,20.48,292a0.53,0.53,0,0,0-.57.18,0.8,0.8,0,0,0,.22.85,8.64,8.64,0,0,0,.95.73c0.08,0,.13.1,0.09,0.16s-0.09,0-.17,0a9.31,9.31,0,0,1-1-.76l-0.12-.1A0.94,0.94,0,0,1,19.6,292a0.79,0.79,0,0,1,1.06-.2,3.83,3.83,0,0,1,1.16,1l0.09,0.11A0.16,0.16,0,0,1,22,293.07Z" transform="translate(0 -266.93)"/><path class="cls-7" d="M24.71,295.28a0.13,0.13,0,0,1-.19,0,4.87,4.87,0,0,0-1.28-1.05,0.53,0.53,0,0,0-.57.18,0.8,0.8,0,0,0,.22.85,8.53,8.53,0,0,0,.95.73c0.08,0,.13.1,0.09,0.17s-0.09,0-.17,0a9.07,9.07,0,0,1-1-.76l-0.12-.1a0.93,0.93,0,0,1-.28-1.05,0.79,0.79,0,0,1,1.06-.2,3.81,3.81,0,0,1,1.16,1l0.09,0.11A0.16,0.16,0,0,1,24.71,295.28Z" transform="translate(0 -266.93)"/><path class="cls-7" d="M26.77,294.12a0.13,0.13,0,0,1-.17-0.1,4.87,4.87,0,0,0-.78-1.46,0.53,0.53,0,0,0-.6,0,0.8,0.8,0,0,0-.12.87,8.45,8.45,0,0,0,.59,1c0.05,0.08.09,0.14,0,.19s-0.1,0-.15-0.08a9.06,9.06,0,0,1-.64-1.09l-0.07-.14a0.94,0.94,0,0,1,.15-1.08,0.79,0.79,0,0,1,1.06.22,3.84,3.84,0,0,1,.68,1.39l0,0.13A0.16,0.16,0,0,1,26.77,294.12Z" transform="translate(0 -266.93)"/><path class="cls-7" d="M34.72,287.87a0.13,0.13,0,0,1-.08-0.18,4.89,4.89,0,0,0,.22-1.64,0.53,0.53,0,0,0-.46-0.39,0.8,0.8,0,0,0-.61.63,8.48,8.48,0,0,0-.12,1.19c0,0.09,0,.16-0.09.17s-0.08-.06-0.08-0.15a9.21,9.21,0,0,1,.12-1.25l0-.15a0.93,0.93,0,0,1,.75-0.79,0.79,0.79,0,0,1,.73.8,3.82,3.82,0,0,1-.27,1.53l0,0.14A0.17,0.17,0,0,1,34.72,287.87Z" transform="translate(0 -266.93)"/><path class="cls-7" d="M37.48,290.34a0.15,0.15,0,0,1-.09-0.2,5.51,5.51,0,0,0,.25-1.86,0.6,0.6,0,0,0-.52-0.44,0.9,0.9,0,0,0-.69.71,9.52,9.52,0,0,0-.14,1.35c0,0.1,0,.19-0.1.19s-0.09-.07-0.09-0.17a10.15,10.15,0,0,1,.14-1.42l0-.17a1.05,1.05,0,0,1,.85-0.89,0.89,0.89,0,0,1,.82.9,4.3,4.3,0,0,1-.3,1.73l0,0.15A0.18,0.18,0,0,1,37.48,290.34Z" transform="translate(0 -266.93)"/><path class="cls-4" d="M28.22,294a0.15,0.15,0,0,0,.07-0.22,4.8,4.8,0,0,1-.54-1.79,0.71,0.71,0,0,1,.53-0.54,0.93,0.93,0,0,1,.88.58,8,8,0,0,1,.35,1.31c0,0.1,0,.18.14,0.16s0.09-.08.07-0.18a8.79,8.79,0,0,0-.35-1.38l-0.05-.17a1.11,1.11,0,0,0-1.09-.72,1,1,0,0,0-.82,1.05,3.75,3.75,0,0,0,.58,1.65l0.07,0.14A0.19,0.19,0,0,0,28.22,294Z" transform="translate(0 -266.93)"/><path class="cls-4" d="M32.87,294.52a0.13,0.13,0,0,1-.15-0.12,4.07,4.07,0,0,0-.46-1.52,0.6,0.6,0,0,0-.63-0.13,0.79,0.79,0,0,0-.35.82,6.88,6.88,0,0,0,.37,1.09c0,0.08.06,0.15,0,.18s-0.11,0-.14-0.09a7.56,7.56,0,0,1-.4-1.14l0-.14a0.94,0.94,0,0,1,.42-1,0.85,0.85,0,0,1,1.07.36,3.21,3.21,0,0,1,.37,1.44v0.14A0.16,0.16,0,0,1,32.87,294.52Z" transform="translate(0 -266.93)"/><path class="cls-4" d="M34.83,292.08a0.12,0.12,0,0,1-.12-0.14,3.86,3.86,0,0,0-.11-1.51,0.57,0.57,0,0,0-.56-0.25,0.75,0.75,0,0,0-.5.69,6.72,6.72,0,0,0,.12,1.09c0,0.08,0,.15-0.06.17s-0.09,0-.11-0.12a7.37,7.37,0,0,1-.14-1.15v-0.14a0.9,0.9,0,0,1,.61-0.87,0.81,0.81,0,0,1,.92.56,3.05,3.05,0,0,1,0,1.42c0,0.06,0,.1,0,0.13A0.15,0.15,0,0,1,34.83,292.08Z" transform="translate(0 -266.93)"/><path class="cls-4" d="M31.87,290.3a0.11,0.11,0,0,1-.1-0.13,4.07,4.07,0,0,0-.11-1.38,0.44,0.44,0,0,0-.44-0.24,0.67,0.67,0,0,0-.38.62,7.05,7.05,0,0,0,.11,1c0,0.08,0,.14,0,0.15s-0.08,0-.09-0.11a7.61,7.61,0,0,1-.13-1V289a0.78,0.78,0,0,1,.47-0.78,0.66,0.66,0,0,1,.74.52,3.2,3.2,0,0,1,.06,1.29v0.12A0.14,0.14,0,0,1,31.87,290.3Z" transform="translate(0 -266.93)"/><path class="cls-4" d="M29.93,288.2a0.13,0.13,0,0,1-.14-0.14,4.9,4.9,0,0,0-.38-1.61,0.53,0.53,0,0,0-.57-0.2,0.8,0.8,0,0,0-.34.81,8.55,8.55,0,0,0,.31,1.15c0,0.08,0,.16,0,0.19s-0.1,0-.13-0.11a9.21,9.21,0,0,1-.34-1.21l0-.15a0.94,0.94,0,0,1,.41-1,0.79,0.79,0,0,1,1,.48,3.79,3.79,0,0,1,.3,1.52c0,0.06,0,.11,0,0.14A0.16,0.16,0,0,1,29.93,288.2Z" transform="translate(0 -266.93)"/><path class="cls-4" d="M26.11,288.06a0.16,0.16,0,0,1-.2-0.11,5.77,5.77,0,0,0-1-1.68,0.63,0.63,0,0,0-.71,0,0.94,0.94,0,0,0-.1,1,10,10,0,0,0,.75,1.19c0.06,0.08.11,0.16,0,.22s-0.12,0-.18-0.08a10.57,10.57,0,0,1-.8-1.25l-0.09-.16a1.1,1.1,0,0,1,.12-1.27,0.93,0.93,0,0,1,1.26.21,4.49,4.49,0,0,1,.86,1.61l0.06,0.16A0.19,0.19,0,0,1,26.11,288.06Z" transform="translate(0 -266.93)"/><path class="cls-4" d="M23.45,291.64a0.13,0.13,0,0,1-.18-0.07,4.87,4.87,0,0,0-1-1.32,0.53,0.53,0,0,0-.6,0,0.8,0.8,0,0,0,0,.88,8.41,8.41,0,0,0,.75.93c0.06,0.07.11,0.13,0.05,0.18s-0.1,0-.16-0.05a9.25,9.25,0,0,1-.8-1l-0.09-.12a0.93,0.93,0,0,1,0-1.09,0.79,0.79,0,0,1,1.08.06,3.83,3.83,0,0,1,.88,1.27l0.07,0.12A0.17,0.17,0,0,1,23.45,291.64Z" transform="translate(0 -266.93)"/><path class="cls-4" d="M22.13,293.83a0.13,0.13,0,0,1-.2,0,4.88,4.88,0,0,0-1.34-1,0.53,0.53,0,0,0-.56.22,0.8,0.8,0,0,0,.27.83,8.66,8.66,0,0,0,1,.67c0.08,0,.14.09,0.1,0.16s-0.09,0-.17,0a9.21,9.21,0,0,1-1-.7l-0.12-.09a0.93,0.93,0,0,1-.34-1,0.79,0.79,0,0,1,1-.26,3.82,3.82,0,0,1,1.22,1l0.1,0.1A0.17,0.17,0,0,1,22.13,293.83Z" transform="translate(0 -266.93)"/><path class="cls-4" d="M25,295.87a0.13,0.13,0,0,1-.2,0,4.9,4.9,0,0,0-1.34-1,0.53,0.53,0,0,0-.56.22,0.8,0.8,0,0,0,.27.83,8.63,8.63,0,0,0,1,.67c0.08,0,.14.09,0.1,0.16s-0.09,0-.17,0a9.06,9.06,0,0,1-1-.7L22.94,296a0.93,0.93,0,0,1-.34-1,0.79,0.79,0,0,1,1-.26,3.81,3.81,0,0,1,1.22,1l0.1,0.1A0.17,0.17,0,0,1,25,295.87Z" transform="translate(0 -266.93)"/><path class="cls-4" d="M27,294.58a0.13,0.13,0,0,1-.17-0.09,4.85,4.85,0,0,0-.87-1.41,0.53,0.53,0,0,0-.6,0,0.8,0.8,0,0,0-.07.87,8.32,8.32,0,0,0,.66,1c0.05,0.07.09,0.14,0,.19s-0.1,0-.15-0.07a9.06,9.06,0,0,1-.7-1L25,293.87a0.93,0.93,0,0,1,.08-1.08,0.79,0.79,0,0,1,1.07.16,3.83,3.83,0,0,1,.76,1.35L27,294.42A0.17,0.17,0,0,1,27,294.58Z" transform="translate(0 -266.93)"/><path class="cls-4" d="M34.54,287.84a0.13,0.13,0,0,1-.09-0.17,4.9,4.9,0,0,0,.12-1.65,0.53,0.53,0,0,0-.48-0.36,0.8,0.8,0,0,0-.57.67,8.5,8.5,0,0,0-.05,1.2c0,0.09,0,.16-0.08.17s-0.08-.06-0.08-0.15a9,9,0,0,1,0-1.26v-0.15a0.94,0.94,0,0,1,.7-0.83,0.79,0.79,0,0,1,.78.75,3.81,3.81,0,0,1-.17,1.54l0,0.14A0.16,0.16,0,0,1,34.54,287.84Z" transform="translate(0 -266.93)"/><path class="cls-4" d="M37.46,290.14a0.15,0.15,0,0,1-.1-0.2,5.53,5.53,0,0,0,.14-1.87,0.6,0.6,0,0,0-.55-0.41,0.91,0.91,0,0,0-.64.75,9.46,9.46,0,0,0-.06,1.35c0,0.1,0,.19-0.09.19s-0.09-.06-0.1-0.17a10.17,10.17,0,0,1,0-1.43V288.2a1.06,1.06,0,0,1,.79-0.94,0.9,0.9,0,0,1,.88.85,4.35,4.35,0,0,1-.19,1.74l0,0.16A0.19,0.19,0,0,1,37.46,290.14Z" transform="translate(0 -266.93)"/></svg>