<svg id="WW_SecondaryIcons_FlowersLeaves_CMYK" xmlns="http://www.w3.org/2000/svg" viewBox="0 0 61.97 126.28"><defs><style>.cls-1{fill:#69b94c;}.cls-2{fill:#644130;}.cls-3{fill:#f79c62;}.cls-4{fill:#fdc400;}.cls-5{fill:#f4f2e7;}</style></defs><title>Icons_FlowersLeaves_5</title><path class="cls-1" d="M151.91,333.35a16.61,16.61,0,0,0,4.39-3.46c-0.29,6.37-.59,12.25-6.87,15.74-1.32.73-16.71,4.79-16,6.91,0.57-4.84,2.39-10.17,6.54-13.14C143.48,336.91,148.07,335.54,151.91,333.35Z" transform="translate(-102.7 -266.75)"/><path class="cls-2" d="M154.92,334.79a8.67,8.67,0,0,1-.4,1.5l-0.18.48c-0.88,2.4-1.78,4.87-3.75,6.69-1.74,1.61-3.83,2-6,2.45a24.47,24.47,0,0,0-3.12.75,20.2,20.2,0,0,0-4.43,2.18,8.55,8.55,0,0,0-2,1.75l-0.61.66a2.47,2.47,0,0,0-.51,1,3.49,3.49,0,0,1-.38.82,1.13,1.13,0,0,1-.39-1.07,3.51,3.51,0,0,1,.31-0.83,3.9,3.9,0,0,0,.34-0.94,1.57,1.57,0,0,0,0-.52,13.11,13.11,0,0,1,.2-3.5s0.09-.6.12-0.76a18.08,18.08,0,0,1,2.21-6c2.8-4.89,9.52-6.71,11.51-7.15a14.68,14.68,0,0,0,5.13-2.85,3.45,3.45,0,0,0,.52-1,1.7,1.7,0,0,1,.61-1,0.49,0.49,0,0,1,.4.23,4.79,4.79,0,0,1,.36,2.1c0,0.33,0,.62.06,0.81a14.1,14.1,0,0,1,0,4.29h0Zm-4.38,1.83a3.49,3.49,0,0,0,2.72.08,1.86,1.86,0,0,0,.94-1.24c0-.12.06-0.25,0.08-0.38a10.14,10.14,0,0,0,0-2.67c0-.31-0.06-0.62-0.08-0.92l-0.05-.8-0.15.22a11.84,11.84,0,0,0-1,2.13,6.29,6.29,0,0,1-2.42,3.43l-0.15.1Zm-3.3,2.86c0.32,0.15.63,0.31,1,.48a6.3,6.3,0,0,0,3.43,1,9.06,9.06,0,0,0,1.23-2.16c0.15-.33.29-0.65,0.46-1l0.09-.17-0.19,0a3.47,3.47,0,0,1-1.76-.26,3.26,3.26,0,0,0-1.5-.25,6.64,6.64,0,0,0-2.74,2.12l-0.08.09Zm1.53-5.82a3.1,3.1,0,0,0,.29,1.54,10.43,10.43,0,0,1,.35,1.11l0,0.11,0.1-.06c1.47-.81,3.46-3.83,3.8-5.79a3,3,0,0,0,0-.46V330l-0.13.05a17.22,17.22,0,0,0-3.79,2.5A2,2,0,0,0,148.78,333.66ZM143,341.53a15.29,15.29,0,0,1,1.62.89,7.07,7.07,0,0,0,3.86,1.39,6.31,6.31,0,0,0,2.65-2.06l-0.15-.09a0.12,0.12,0,0,1-.09,0c-0.78.1-4-1.6-4.41-1.94l0,0-0.06,0c-0.51.27-1,.51-1.55,0.74s-1.23.55-1.83,0.89l-0.15.09Zm1.82-5.88a6.87,6.87,0,0,0,.53,3.63l0,0.09,0.09,0a10.62,10.62,0,0,0,1.94-1.28,12.75,12.75,0,0,1,1.44-1l0.08,0,0-.08a6.26,6.26,0,0,1-.76-2.79c0-.32-0.07-0.64-0.12-1v-0.08h-0.08A3,3,0,0,0,144.78,335.66Zm-6.3,9.57a1.41,1.41,0,0,0,.81,1.41l0.05,0,0,0a5.27,5.27,0,0,1,2.24-.7,7.45,7.45,0,0,0,2.08-.55,7.62,7.62,0,0,0,1.74-.48,8,8,0,0,1,1.77-.49v-0.18a8.73,8.73,0,0,1-3-1.11l-0.11-.06a5.81,5.81,0,0,1-.8-0.5,1.24,1.24,0,0,0-1.66-.06C140.75,342.94,138.69,344,138.49,345.23Zm0-6.51a9.64,9.64,0,0,0,.5,3.88l0.2,0.76,0.11-.1a16.56,16.56,0,0,1,5.4-3.42l0.14-.05-0.11-.1c-0.8-.71-1.06-3.22-0.84-4.5a2.54,2.54,0,0,1,.12-0.47l0.06-.16-0.17,0a7.42,7.42,0,0,0-3.12,1.37A3.75,3.75,0,0,0,138.47,338.72Zm-3.26,10.42a20.88,20.88,0,0,1,3.34-2.14l0.08,0,0-.08a1.09,1.09,0,0,0-1.12-.71c-1,.13-2.15,1.84-2.4,2.88l-0.06.25Zm-0.49-1.69c0,0.13,0,.26-0.06.4l0,0.23,0.18-.15A7.05,7.05,0,0,0,136,346.5l0.39-.55a6.82,6.82,0,0,1,.73-0.75,4.87,4.87,0,0,0,1-1.09,1.6,1.6,0,0,0,.14-0.44,9.52,9.52,0,0,0-.39-3.18c-0.1-.45-0.2-0.87-0.26-1.23l0-.25-0.48.83a12.57,12.57,0,0,0-1.75,3.9,4,4,0,0,0-.06.77,7.51,7.51,0,0,1-.12,1.14c-0.05.31-.12,0.61-0.18,0.91S134.78,347.14,134.73,347.46Z" transform="translate(-102.7 -266.75)"/><path class="cls-2" d="M130.69,308.59l0.08,0.88c0.27,2.88.53,5.59,0.54,8.21,0,1.14,0,2.33,0,3.63s-0.08,2.5-.13,3.72-0.09,2.5-.13,3.76c-0.08,3-.06,5.28.07,7.43,0.33,5.36.86,10.79,1.37,16l0.29,3,0.21,2.22c0.5,5.24,1,10.65,1.65,16,0.21,1.74.33,3.53,0.45,5.26s0.24,3.33.42,5a14.46,14.46,0,0,1,0,1.87c0,0.3,0,.6,0,0.91s0,0.72,0,1.08c0,2.06,0,4,1,5.45l0.77-.54c-0.87-1.17-.91-3.34-0.86-4.89,0-.34,0-0.68,0-1s0-.66,0-1a14.55,14.55,0,0,0,0-2c-0.18-1.61-.3-3.28-0.41-4.9s-0.25-3.58-.46-5.37c-0.64-5.36-1.16-10.84-1.66-16.14l-0.19-2-0.29-3c-0.51-5.24-1-10.66-1.36-16-0.13-2.13-.16-4.4-0.08-7.36,0-1.23.08-2.48,0.13-3.7s0.1-2.52.13-3.78,0-2.54,0-3.67c0-2.7-.29-5.59-0.55-8.38l-0.09-1Z" transform="translate(-102.7 -266.75)"/><path class="cls-1" d="M115.54,330.77l-0.75-.12c0.1,2.29-.06,5.06.69,7.24a11.13,11.13,0,0,0,2.89,4.71c3.2,2.89,8.78,3.56,12.43,2.63-0.12-.46,0-1.44-0.13-1.9a21.69,21.69,0,0,0-5.93-8.18A19.33,19.33,0,0,0,115.54,330.77Z" transform="translate(-102.7 -266.75)"/><path class="cls-3" d="M140.38,289.65c5.45-2.07,10.64-5.62,16.33-6.94,1.49-.35,2.73-0.72,3.74.72,1.32,1.87,1.85,5.17,2,7.42a18,18,0,0,1-.73,6.29c-0.47,1.67-1.37,1.9-3.08,2-6.33.36-12.67-2-18.71-3.48-0.52-.13-1-0.27-1.52-0.38a9.77,9.77,0,0,0-1.34-5Z" transform="translate(-102.7 -266.75)"/><path class="cls-3" d="M145.71,300.18a24,24,0,0,1,7.64,4.08c3.81,3.39-1.66,8.86-4,11.4-1.3,1.39-2.38,2.93-4.09,1.66-2.47-1.84-4.43-4.38-6.48-6.65a62.68,62.68,0,0,1-4.35-5.28c-0.62-.86-1.67-1.8-1.89-2.82,0.22,1,3-1.36,3.16-1.57,0.72-.85,1.27-2.09,2.22-2.72C140.12,296.82,143.58,299.42,145.71,300.18Z" transform="translate(-102.7 -266.75)"/><path class="cls-3" d="M138.79,289.7a120.9,120.9,0,0,0,9.65-13.36c1-1.61.4-2.12-1.26-3-2.74-1.5-6.7-3.42-9.86-3.7-2.27-.2-2.28,3.43-2.56,5.25-0.34,2.2-.93,4.31-1.3,6.49-0.25,1.49-.79,3.55-0.55,5.06s1,0.87,2.2,1.38c1,0.43,2.53,1.26,2.72,2.49Z" transform="translate(-102.7 -266.75)"/><path class="cls-3" d="M128.94,274.14c-0.22-1.45.28-4.45-.93-5.54-1.91-1.72-7.05,1.26-8.8,2.17s-5.84,1.85-5.32,4.16c0.58,2.57,3.48,5,5.13,7,2.49,2.91,4.25,6.16,7.19,8.64,0.3,0.25.6,0.5,0.9,0.73,1-1.1,2.26-2.41,3.15-3.59s0.17-2.4-.09-3.81C129.59,280.65,129.44,277.37,128.94,274.14Z" transform="translate(-102.7 -266.75)"/><path class="cls-3" d="M124.27,293.22c-2.47-2.17-5.6-3.83-8.36-5.61a44.11,44.11,0,0,0-6.08-3.49c-1.41-.62-2.5-0.83-3.42.64a34.12,34.12,0,0,0-3.4,8.79c-0.39,1.48-.72,2,1,2.5,2.67,0.86,5.55,1,8.27,1.71s6.13,1.81,8.92,1.8c-0.17-2,1-4,2.32-5.45Z" transform="translate(-102.7 -266.75)"/><path class="cls-3" d="M134.9,314.5c1,2.58,2.22,5,2.14,7.86-0.13,5.11-9.24,5.23-12.74,4.86-2.7-.28-3-1.4-3.45-4.06a35.71,35.71,0,0,1-.33-10.43c0.28-1.93.63-3.86,1.09-5.75,0.21-.84.49-2.84,1.19-3.43a1,1,0,0,0,.21-0.41c-0.1.21,6.67,1.9,7.3,2.43,1.15,1,1.74,2.78,2.39,4.1C133.49,311.26,134.25,312.86,134.9,314.5Z" transform="translate(-102.7 -266.75)"/><path class="cls-3" d="M124,304c-1.4-1-2-2.77-3.11-4a40.54,40.54,0,0,1-4.31,1.75c-1.89.8-3.77,1.77-5.61,2.68-1.49.74-3,1.48-4.49,2.23-1.06.54-2.72,1.18-3.39,2.22,1.84,3.49,5,6.22,7.78,8.88,1,1,2.47,2.55,3.8,3.05,1,0.39,1.13-.11,1.89-1a56.3,56.3,0,0,0,5.58-8c0.9-1.55,2.28-3.34,2.78-4.91Z" transform="translate(-102.7 -266.75)"/><path class="cls-2" d="M147.62,298.89c-2.11-.89-6.52-3.69-9-2.67-1.16.49-4.54,5.59-5.54,4.54a0.3,0.3,0,0,0-.47.36c2.13,4.73,8.46,10.13,12.19,13.67,3.2,3,4.26,2.53,7.07-.52,2-2.21,5.3-5.35,4.85-8.69C156.26,301.79,150.61,300,147.62,298.89Zm8.37,8.49c-0.21,2.41-3,4.81-4.5,6.48-2.88,3.12-5.73,1.15-8.07-1.41-1.81-2-3.63-4-5.32-6.1-0.53-.66-4.89-5.1-5-4.83,0,0.06,2-.87,1.91-0.82a5.63,5.63,0,0,0,1.7-1.6c2.8-4.25,7-1.21,10.79.37C151,300.79,156.41,302.63,156,307.38Z" transform="translate(-102.7 -266.75)"/><path class="cls-2" d="M164.54,289.24c-0.23-2.52-.73-7.57-4-8.14-2.07-.37-5,1.13-6.76,1.85-4.39,1.8-8.87,4.58-13.34,6.22,2.23-2.7,4.76-5.8,6.76-8.68,1.09-1.57,4.21-4.56,3.8-6.68-0.51-2.67-9.56-5.74-11.89-5.49-3.47.38-3.13,7-3.63,9.37-0.41,2-2.94,9.83-1.91,11.75s3.3,1,4.55,3.06l-0.31.06a0.3,0.3,0,0,0-.18.44,3.19,3.19,0,0,0,2.5,1.57c3.88,1,7.71,2.18,11.62,3,2.74,0.58,7.12,1.66,9.83.74C165,297.17,164.81,292.2,164.54,289.24Zm-26.68,1.86c-0.78-.74-1.92-0.67-2.65-1.26-2.72-2.22,1.33-13.63,1.77-16.73a9.28,9.28,0,0,1,.83-2.64c1.31-2.35,3.33-1.26,5-.67,2.23,0.76,5.68,1.78,6.58,4.08s-1.74,4.91-3.15,6.91C144.45,283.43,138.65,291.85,137.87,291.1Zm20,6.72a62.64,62.64,0,0,1-9.35-1.66c-2.39-.62-10.18-3.29-10.29-3.08a0.35,0.35,0,0,1,.15-0.12l0,0a5.33,5.33,0,0,1,3.07-3.65c5-2.6,13.41-6.5,16.47-7.26,4-1,5.12.75,5.88,6.53C164.43,293,163.87,298.43,157.9,297.82Z" transform="translate(-102.7 -266.75)"/><path class="cls-2" d="M128.77,291.93a0.31,0.31,0,0,0,.42,0c1.33-1.44,3.37-4.44,3.63-6.53s-0.89-5.16-1.16-7.4c-0.2-1.62-.36-3.25-0.59-4.87h0c-0.18-2.41.5-6-2.72-6.36-3-.34-8.05,2.64-10.5,4.06-3.13,1.82-2.79,3.66-.65,6.46C120.57,281.71,124.43,288.41,128.77,291.93Zm-7.95-21.74c1.48-.7,3-1.84,4.64-2.21,4.24-1,4.8,2.26,5,5.15a0.12,0.12,0,0,1,0,.08c0.4,2.91,3.2,15.61-.64,17.14-3.39,1.35-6.72-7.26-8.78-9.67-1.2-1.4-3.47-3-4.11-4.74C115.34,271.56,118.44,271.33,120.82,270.2Z" transform="translate(-102.7 -266.75)"/><path class="cls-2" d="M124.06,296.21a5.42,5.42,0,0,0-.55,1.27A7.74,7.74,0,0,0,124.06,296.21Z" transform="translate(-102.7 -266.75)"/><path class="cls-2" d="M131.5,303.52a13.83,13.83,0,0,0-3.65-1.22c-2.82-.85-3-1.06-4.81-3.44a0.31,0.31,0,0,0,.28-0.3,4.64,4.64,0,0,1,.19-1.09,1.65,1.65,0,0,1-.2.28c-2,2.07-10.76-1.6-13.29-2.06-2.85-.52-5.35-1.63-4.36-4.95,0.33-1.11.69-2.21,1.11-3.28,0.36-.81,0,0,1.23-2.67s3.13-1,4.76-.81,4.4,2.64,6,3.64a77.82,77.82,0,0,1,7.41,5.05,19.74,19.74,0,0,0-1.34,1.64,9.62,9.62,0,0,0-.8,1.89,27.54,27.54,0,0,1,2.79-3.36l0-.06a0.24,0.24,0,0,0,0-.37,76.44,76.44,0,0,0-7.75-5.32c-2.31-1.44-4.74-3.38-7.35-4.27-3.7-1.27-4.63,2-5.78,5.13-1,2.57-3.1,5.89-.21,7.39,2.64,1.37,6.62,1.3,9.48,2a43.16,43.16,0,0,0,7.18,1.44c-5.63,2.62-13.19,4.47-17.68,8.84a0.31,0.31,0,0,0,0,.36c2.06,3.51,4.9,6.17,7.83,8.94,1.07,1,3,3.57,4.84,3.24,1.21-.22,3.34-4.53,4.16-4.88a36.55,36.55,0,0,0,.31,4.06,14.44,14.44,0,0,0,1.11,5.18,0.36,0.36,0,0,0,.09.11,2,2,0,0,0,.09.19c2,3.11,8.82,1.95,11.75,1,6.25-2,4.13-7.61,2.17-12.44C135.88,310.7,134,305.26,131.5,303.52Zm5.94,19.85c-1.62,2.21-4.79,2.51-7.34,2.64-1.11.06-5.07,0.38-6.63-2-1.73-2.66-1-8.15-1-9.87a0.47,0.47,0,0,0,0-.22s0-.1,0-0.15a0.3,0.3,0,0,0-.56-0.15l-0.09.13a0.48,0.48,0,0,0-.26.39h0c-2.05,3.09-4,6.5-6.32,4.37-1.62-1.5-5.08-4.45-6.57-6.08s-3.14-3.54-2.73-4.75c0.26-.74,2.41-1.69,4-2.49,2.39-1.18,4.76-2.44,7.2-3.53,1-.47,3.08-1.74,4.28-1.7,1.76,0.06.77-.28,2,0.75A10.72,10.72,0,0,0,124.8,302c1.48,0.87,3.51.74,5,1.52,3.27,1.67,5.27,6.88,6.6,10S139.57,320.46,137.44,323.37Z" transform="translate(-102.7 -266.75)"/><path class="cls-4" d="M129.09,303a30.89,30.89,0,0,0,3-.74,12.67,12.67,0,0,0,4-3c1.79-2,3.9-5.55,2.39-8.25-2.89-5.15-10.07-.54-12.89,2.3-1.28,1.29-3.16,3.17-3.65,5-0.68,2.51,1.87,3.62,3.71,4.57Z" transform="translate(-102.7 -266.75)"/><path class="cls-5" d="M121.86,301.86a0.19,0.19,0,0,0-.29-0.06,6.13,6.13,0,0,1-2.2,1,0.9,0.9,0,0,1-.76-0.59,1.19,1.19,0,0,1,.6-1.21,10.53,10.53,0,0,1,1.61-.64c0.13,0,.22-0.08.19-0.21s-0.12-.11-0.25-0.07a11.39,11.39,0,0,0-1.7.66l-0.21.1a1.42,1.42,0,0,0-.76,1.49,1.28,1.28,0,0,0,1.46.88,4.82,4.82,0,0,0,2-1l0.17-.12A0.25,0.25,0,0,0,121.86,301.86Z" transform="translate(-102.7 -266.75)"/><path class="cls-5" d="M138.77,288.89a0.14,0.14,0,0,1,0-.21,5.21,5.21,0,0,0,1.06-1.42,0.57,0.57,0,0,0-.23-0.6,0.85,0.85,0,0,0-.9.27,9.1,9.1,0,0,0-.74,1c0,0.08-.1.15-0.17,0.11s0-.1,0-0.18a9.82,9.82,0,0,1,.77-1.11l0.1-.13a1,1,0,0,1,1.11-.35,0.85,0.85,0,0,1,.27,1.13,4.09,4.09,0,0,1-1,1.29l-0.11.1A0.17,0.17,0,0,1,138.77,288.89Z" transform="translate(-102.7 -266.75)"/><path class="cls-5" d="M130.83,286.36a0.17,0.17,0,0,1-.22-0.13,6.28,6.28,0,0,0-1-1.87,0.68,0.68,0,0,0-.77-0.06,1,1,0,0,0-.15,1.11,10.82,10.82,0,0,0,.77,1.32c0.07,0.1.11,0.18,0,.24s-0.13,0-.19-0.1a11.65,11.65,0,0,1-.82-1.39l-0.09-.17a1.2,1.2,0,0,1,.18-1.38,1,1,0,0,1,1.36.28,4.86,4.86,0,0,1,.88,1.78l0.06,0.17A0.21,0.21,0,0,1,130.83,286.36Z" transform="translate(-102.7 -266.75)"/><path class="cls-5" d="M137,287.15a0.2,0.2,0,0,1,0-.29,7.38,7.38,0,0,0,1-2.31,0.81,0.81,0,0,0-.52-0.75,1.21,1.21,0,0,0-1.13.69,12.71,12.71,0,0,0-.63,1.69c0,0.13-.08.24-0.2,0.21s-0.09-.12-0.05-0.25a13.85,13.85,0,0,1,.66-1.79l0.09-.21a1.41,1.41,0,0,1,1.39-.87,1.2,1.2,0,0,1,.76,1.45,5.76,5.76,0,0,1-1,2.13l-0.11.18A0.24,0.24,0,0,1,137,287.15Z" transform="translate(-102.7 -266.75)"/><path class="cls-5" d="M122.14,307.27a0.17,0.17,0,0,1,.1.23,6.27,6.27,0,0,0-.32,2.1,0.68,0.68,0,0,0,.58.51,1,1,0,0,0,.79-0.8,11,11,0,0,0,.18-1.52c0-.12,0-0.21.12-0.21s0.1,0.08.09,0.19a11.67,11.67,0,0,1-.18,1.61l0,0.19a1.2,1.2,0,0,1-1,1,1,1,0,0,1-.92-1,4.89,4.89,0,0,1,.37-2l0.05-.17A0.21,0.21,0,0,1,122.14,307.27Z" transform="translate(-102.7 -266.75)"/><path class="cls-5" d="M123.75,304.52a0.17,0.17,0,0,1,0,.25,6.22,6.22,0,0,0-1.1,1.82,0.68,0.68,0,0,0,.34.69,1,1,0,0,0,1-.43,11,11,0,0,0,.75-1.34c0-.11.1-0.19,0.19-0.15s0.06,0.11,0,.22a11.53,11.53,0,0,1-.78,1.42l-0.1.17a1.2,1.2,0,0,1-1.28.55,1,1,0,0,1-.45-1.31,4.89,4.89,0,0,1,1.09-1.66l0.12-.14A0.21,0.21,0,0,1,123.75,304.52Z" transform="translate(-102.7 -266.75)"/><path class="cls-5" d="M141.13,291.75a0.17,0.17,0,0,1,.18-0.17,6.26,6.26,0,0,0,2.08-.45,0.68,0.68,0,0,0,.27-0.72,1,1,0,0,0-1-.46,10.8,10.8,0,0,0-1.49.37c-0.11,0-.2.06-0.24,0s0-.12.15-0.16a11.61,11.61,0,0,1,1.56-.4l0.19,0a1.2,1.2,0,0,1,1.28.56,1,1,0,0,1-.64,1.23,4.88,4.88,0,0,1-2,.35h-0.18A0.21,0.21,0,0,1,141.13,291.75Z" transform="translate(-102.7 -266.75)"/><path class="cls-5" d="M138.91,300.22a0.19,0.19,0,0,1,.28,0,7.07,7.07,0,0,0,2,1.26,0.77,0.77,0,0,0,.79-0.38,1.16,1.16,0,0,0-.48-1.17,12.19,12.19,0,0,0-1.5-.86c-0.12-.06-0.21-0.11-0.17-0.22s0.13-.07.24,0a13.08,13.08,0,0,1,1.59.9l0.19,0.12a1.35,1.35,0,0,1,.61,1.46,1.15,1.15,0,0,1-1.49.5,5.53,5.53,0,0,1-1.87-1.25l-0.16-.13A0.24,0.24,0,0,1,138.91,300.22Z" transform="translate(-102.7 -266.75)"/><path class="cls-2" d="M122.29,301.53a0.19,0.19,0,0,0-.29,0,6.13,6.13,0,0,1-2.13,1.1,0.9,0.9,0,0,1-.8-0.55,1.19,1.19,0,0,1,.52-1.24,10.48,10.48,0,0,1,1.57-.74c0.12,0,.22-0.1.17-0.22s-0.13-.1-0.25-0.05a11.41,11.41,0,0,0-1.66.76l-0.2.11a1.42,1.42,0,0,0-.66,1.54,1.28,1.28,0,0,0,1.51.79,4.82,4.82,0,0,0,2-1.12l0.16-.13A0.25,0.25,0,0,0,122.29,301.53Z" transform="translate(-102.7 -266.75)"/><path class="cls-5" d="M128.08,288.24a0.16,0.16,0,0,1-.25,0A5.2,5.2,0,0,0,126.2,287a0.77,0.77,0,0,0-.74.35,1,1,0,0,0,.27,1.11,9,9,0,0,0,1.21.84c0.1,0.05.17,0.11,0.12,0.21s-0.12.06-.22,0a9.77,9.77,0,0,1-1.28-.87l-0.15-.12a1.21,1.21,0,0,1-.34-1.38,1.09,1.09,0,0,1,1.38-.45,4.11,4.11,0,0,1,1.48,1.2l0.12,0.13A0.21,0.21,0,0,1,128.08,288.24Z" transform="translate(-102.7 -266.75)"/><path class="cls-2" d="M128.39,288.14a0.16,0.16,0,0,1-.25,0,5.2,5.2,0,0,0-1.71-1.11,0.77,0.77,0,0,0-.72.39,1,1,0,0,0,.34,1.09,8.89,8.89,0,0,0,1.26.76c0.1,0,.18.1,0.13,0.2s-0.12.07-.22,0a9.81,9.81,0,0,1-1.34-.79l-0.16-.11a1.21,1.21,0,0,1-.43-1.36,1.09,1.09,0,0,1,1.35-.53,4.1,4.1,0,0,1,1.55,1.11l0.13,0.12A0.21,0.21,0,0,1,128.39,288.14Z" transform="translate(-102.7 -266.75)"/><path class="cls-2" d="M138.63,289a0.14,0.14,0,0,1,0-.21,5.21,5.21,0,0,0,1-1.48,0.57,0.57,0,0,0-.26-0.59,0.85,0.85,0,0,0-.88.33,9,9,0,0,0-.67,1.09c0,0.09-.09.15-0.16,0.12s0-.09,0-0.18a9.84,9.84,0,0,1,.7-1.16l0.09-.14a1,1,0,0,1,1.09-.42,0.85,0.85,0,0,1,.34,1.11,4.1,4.1,0,0,1-1,1.35l-0.1.11A0.17,0.17,0,0,1,138.63,289Z" transform="translate(-102.7 -266.75)"/><path class="cls-5" d="M140.35,294.12a0.14,0.14,0,0,1,.2-0.06,5.21,5.21,0,0,0,1.72.46,0.57,0.57,0,0,0,.48-0.43,0.85,0.85,0,0,0-.59-0.73,9.1,9.1,0,0,0-1.25-.29c-0.1,0-.17,0-0.16-0.12s0.08-.08.17-0.06a9.84,9.84,0,0,1,1.32.3l0.16,0a1,1,0,0,1,.74.9,0.85,0.85,0,0,1-.95.67,4.09,4.09,0,0,1-1.59-.49l-0.14-.06A0.17,0.17,0,0,1,140.35,294.12Z" transform="translate(-102.7 -266.75)"/><path class="cls-2" d="M140.18,294a0.14,0.14,0,0,1,.2-0.07,5.21,5.21,0,0,0,1.74.35,0.57,0.57,0,0,0,.45-0.46,0.85,0.85,0,0,0-.63-0.69,9.06,9.06,0,0,0-1.26-.22c-0.1,0-.17,0-0.17-0.11s0.07-.08.17-0.07A9.86,9.86,0,0,1,142,293l0.16,0a1,1,0,0,1,.79.85,0.85,0.85,0,0,1-.91.72,4.09,4.09,0,0,1-1.61-.39l-0.14-.05A0.17,0.17,0,0,1,140.18,294Z" transform="translate(-102.7 -266.75)"/><path class="cls-2" d="M130.74,286.75a0.17,0.17,0,0,1-.22-0.11,6.28,6.28,0,0,0-1.12-1.8,0.68,0.68,0,0,0-.77,0,1,1,0,0,0-.08,1.12,10.84,10.84,0,0,0,.85,1.27c0.07,0.09.12,0.17,0,.24s-0.13,0-.2-0.09a11.7,11.7,0,0,1-.91-1.34l-0.1-.17a1.2,1.2,0,0,1,.09-1.39,1,1,0,0,1,1.37.19,4.86,4.86,0,0,1,1,1.72l0.07,0.17A0.21,0.21,0,0,1,130.74,286.75Z" transform="translate(-102.7 -266.75)"/><path class="cls-5" d="M128.92,305.49a0.17,0.17,0,0,1,.2.15,6.28,6.28,0,0,0,.78,2,0.68,0.68,0,0,0,.76.15,1,1,0,0,0,.28-1.09,10.83,10.83,0,0,0-.61-1.41c-0.05-.1-0.09-0.19,0-0.24s0.13,0,.18.12a11.67,11.67,0,0,1,.66,1.48l0.07,0.18a1.2,1.2,0,0,1-.34,1.35,1,1,0,0,1-1.32-.44,4.86,4.86,0,0,1-.66-1.87l0-.18A0.21,0.21,0,0,1,128.92,305.49Z" transform="translate(-102.7 -266.75)"/><path class="cls-2" d="M129.05,305.12a0.17,0.17,0,0,1,.21.14,6.28,6.28,0,0,0,.91,1.92,0.68,0.68,0,0,0,.77.1,1,1,0,0,0,.21-1.1,10.84,10.84,0,0,0-.7-1.37c-0.06-.1-0.1-0.19,0-0.24s0.13,0,.19.11a11.67,11.67,0,0,1,.75,1.43l0.08,0.18a1.2,1.2,0,0,1-.25,1.37,1,1,0,0,1-1.34-.35,4.86,4.86,0,0,1-.78-1.83l-0.05-.17A0.21,0.21,0,0,1,129.05,305.12Z" transform="translate(-102.7 -266.75)"/><path class="cls-2" d="M136.41,287.39a0.2,0.2,0,0,1-.06-0.29,7.39,7.39,0,0,0,.81-2.37,0.8,0.8,0,0,0-.57-0.71,1.21,1.21,0,0,0-1.08.76,12.74,12.74,0,0,0-.53,1.73c0,0.13-.07.24-0.18,0.22s-0.1-.11-0.07-0.25a13.84,13.84,0,0,1,.54-1.82l0.08-.22a1.41,1.41,0,0,1,1.34-1,1.2,1.2,0,0,1,.85,1.4,5.76,5.76,0,0,1-.84,2.18l-0.1.19A0.24,0.24,0,0,1,136.41,287.39Z" transform="translate(-102.7 -266.75)"/><path class="cls-5" d="M135.73,302.23a0.2,0.2,0,0,1,.28.11,7.38,7.38,0,0,0,1.53,2,0.81,0.81,0,0,0,.91-0.08,1.21,1.21,0,0,0,0-1.32,12.71,12.71,0,0,0-1.15-1.39c-0.09-.1-0.16-0.19-0.08-0.27s0.15,0,.24.08a13.85,13.85,0,0,1,1.22,1.46l0.14,0.19a1.41,1.41,0,0,1,.05,1.64,1.2,1.2,0,0,1-1.63-.07,5.76,5.76,0,0,1-1.36-1.9l-0.1-.19A0.24,0.24,0,0,1,135.73,302.23Z" transform="translate(-102.7 -266.75)"/><path class="cls-2" d="M135.84,301.56a0.2,0.2,0,0,1,.28.09,7.39,7.39,0,0,0,1.65,1.88,0.8,0.8,0,0,0,.9-0.13,1.21,1.21,0,0,0-.12-1.32,12.74,12.74,0,0,0-1.23-1.32c-0.1-.09-0.17-0.18-0.1-0.27s0.15,0,.25.06a13.83,13.83,0,0,1,1.31,1.38l0.15,0.18a1.41,1.41,0,0,1,.16,1.63,1.2,1.2,0,0,1-1.63,0A5.76,5.76,0,0,1,136,302l-0.11-.18A0.24,0.24,0,0,1,135.84,301.56Z" transform="translate(-102.7 -266.75)"/><path class="cls-5" d="M122.46,292.1a0.17,0.17,0,0,1-.25,0,6.26,6.26,0,0,0-1.69-1.29,0.68,0.68,0,0,0-.73.26,1,1,0,0,0,.32,1.08,10.85,10.85,0,0,0,1.25.89c0.1,0.06.18,0.12,0.13,0.21s-0.12.05-.22,0a11.73,11.73,0,0,1-1.32-.93l-0.16-.12a1.2,1.2,0,0,1-.41-1.33,1,1,0,0,1,1.35-.31,4.9,4.9,0,0,1,1.53,1.26l0.13,0.13A0.21,0.21,0,0,1,122.46,292.1Z" transform="translate(-102.7 -266.75)"/><path class="cls-5" d="M121.59,295.26a0.17,0.17,0,0,1-.25,0,6.29,6.29,0,0,0-2-.73,0.68,0.68,0,0,0-.62.47,1,1,0,0,0,.62.93,11,11,0,0,0,1.46.48c0.11,0,.2.06,0.18,0.16s-0.1.08-.21,0.05a11.76,11.76,0,0,1-1.54-.49l-0.18-.07a1.2,1.2,0,0,1-.78-1.15,1,1,0,0,1,1.2-.69,4.9,4.9,0,0,1,1.84.75l0.16,0.09A0.21,0.21,0,0,1,121.59,295.26Z" transform="translate(-102.7 -266.75)"/><path class="cls-2" d="M122.79,292.9a0.17,0.17,0,0,1-.25,0,6.26,6.26,0,0,0-1.77-1.18,0.68,0.68,0,0,0-.71.31,1,1,0,0,0,.39,1.05,10.81,10.81,0,0,0,1.3.81c0.1,0.05.18,0.11,0.14,0.2s-0.11.06-.22,0a11.79,11.79,0,0,1-1.38-.84l-0.16-.11a1.2,1.2,0,0,1-.49-1.31,1,1,0,0,1,1.33-.39,4.9,4.9,0,0,1,1.61,1.16l0.13,0.12A0.21,0.21,0,0,1,122.79,292.9Z" transform="translate(-102.7 -266.75)"/><path class="cls-2" d="M122.12,296.11a0.17,0.17,0,0,1-.24.06,6.27,6.27,0,0,0-2-.6,0.68,0.68,0,0,0-.58.5,1,1,0,0,0,.68.89,11,11,0,0,0,1.48.39c0.11,0,.21,0,0.19.15s-0.09.09-.21,0.07a11.77,11.77,0,0,1-1.57-.4l-0.19-.06a1.2,1.2,0,0,1-.85-1.1,1,1,0,0,1,1.16-.77,4.89,4.89,0,0,1,1.88.63L122,296A0.21,0.21,0,0,1,122.12,296.11Z" transform="translate(-102.7 -266.75)"/><path class="cls-2" d="M122.58,306.55a0.17,0.17,0,0,1,.11.23,6.27,6.27,0,0,0-.19,2.12,0.68,0.68,0,0,0,.61.47,1,1,0,0,0,.74-0.84,11,11,0,0,0,.09-1.53c0-.12,0-0.21.11-0.22s0.11,0.07.11,0.19a11.77,11.77,0,0,1-.08,1.61l0,0.2a1.2,1.2,0,0,1-.91,1.06,1,1,0,0,1-1-1,4.89,4.89,0,0,1,.25-2l0-.18A0.21,0.21,0,0,1,122.58,306.55Z" transform="translate(-102.7 -266.75)"/><path class="cls-2" d="M124.11,304a0.17,0.17,0,0,1,0,.25,6.25,6.25,0,0,0-1,1.88,0.68,0.68,0,0,0,.38.67,1,1,0,0,0,1-.5,10.88,10.88,0,0,0,.67-1.38c0-.11.09-0.19,0.18-0.16s0.07,0.11,0,.21a11.63,11.63,0,0,1-.69,1.46l-0.09.17a1.2,1.2,0,0,1-1.25.63,1,1,0,0,1-.53-1.28,4.89,4.89,0,0,1,1-1.72l0.11-.15A0.21,0.21,0,0,1,124.11,304Z" transform="translate(-102.7 -266.75)"/><path class="cls-2" d="M141.08,291.53a0.17,0.17,0,0,1,.17-0.18,6.25,6.25,0,0,0,2-.58,0.68,0.68,0,0,0,.22-0.74,1,1,0,0,0-1.05-.39,10.82,10.82,0,0,0-1.46.46c-0.11,0-.2.07-0.24,0s0-.13.14-0.17a11.62,11.62,0,0,1,1.54-.5l0.19-.05a1.2,1.2,0,0,1,1.31.48,1,1,0,0,1-.57,1.26,4.89,4.89,0,0,1-1.93.47l-0.18,0A0.21,0.21,0,0,1,141.08,291.53Z" transform="translate(-102.7 -266.75)"/><path class="cls-2" d="M138.82,300.14a0.19,0.19,0,0,1,.28,0,7.08,7.08,0,0,0,2.12,1.13,0.77,0.77,0,0,0,.76-0.43,1.16,1.16,0,0,0-.55-1.14,12.21,12.21,0,0,0-1.56-.77c-0.12,0-.22-0.1-0.18-0.21s0.12-.08.24,0a13.12,13.12,0,0,1,1.65.8l0.2,0.11a1.35,1.35,0,0,1,.7,1.42,1.15,1.15,0,0,1-1.45.59,5.53,5.53,0,0,1-1.94-1.13l-0.17-.12A0.24,0.24,0,0,1,138.82,300.14Z" transform="translate(-102.7 -266.75)"/></svg>