<svg id="WW_SecondaryIcons_FlowersLeaves_CMYK" xmlns="http://www.w3.org/2000/svg" viewBox="0 0 59 41.43"><defs><style>.cls-1{fill:#69b94c;}.cls-2{fill:#644130;}</style></defs><title>Icons_FlowersLeaves_15</title><path class="cls-1" d="M365,188.17a18.87,18.87,0,0,0-14.25-1.28,7.08,7.08,0,0,0-2,.94c1.82,1.78,5.37,3.74,7.92,3.88,3.17,0.17,7-.88,9-2.83C365.41,188.76,365.17,188.28,365,188.17Z" transform="translate(-317.63 -153.3)"/><path class="cls-1" d="M350.5,175a3.7,3.7,0,0,1-2.2,1.38,9.68,9.68,0,0,1-1.17-1.24c-4.44-5.89,3.36-12.58,2.28-18.75,2.6,2.5,4.46,6.86,4.06,10.38a17.27,17.27,0,0,1-1.41,5.87C352,172.84,351.23,174,350.5,175Z" transform="translate(-317.63 -153.3)"/><path class="cls-1" d="M375.94,158.4l0.68-.11c-0.09,2.06.06,4.56-.63,6.52a10,10,0,0,1-2.61,4.24c-2.88,2.6-7.91,3.21-11.2,2.37,0.11-.41,0-1.3.12-1.71a19.56,19.56,0,0,1,5.34-7.36A17.4,17.4,0,0,1,375.94,158.4Z" transform="translate(-317.63 -153.3)"/><path class="cls-1" d="M333.69,194.32a5.89,5.89,0,0,0,3.46.11c0.28-.07,3.46-1.45,3.08-1.81-1.55-1.49-2.8-2.9-5-3.44s-4.5-.17-6.74,0c0.21,0.38.43,0.77,0.67,1.14A9.6,9.6,0,0,0,333.69,194.32Z" transform="translate(-317.63 -153.3)"/><path class="cls-1" d="M317.63,169.11c2.37,5.15,9.27,10.31,16.63,9.09-1.6-10-10.29-7.44-16.63-9.09" transform="translate(-317.63 -153.3)"/><path class="cls-2" d="M330.52,188.84a23.88,23.88,0,0,0,1.63,4c1.64,2.95,6.6,1.89,8.75.22a10.69,10.69,0,0,0-5.08-5.41,18.26,18.26,0,0,0-3.5-1.52c-0.19-.06-3.16-0.91-3.11-0.63A26.71,26.71,0,0,0,330.52,188.84Zm0.22-2.28,1.17,0.68c1.45,0.82,3.18.92,4.62,1.73s2.57,2.69,3.65,4c-1.48.66-3,1.39-4.64,1a5.45,5.45,0,0,1-3.23-2.83C331.66,189.61,331.26,188.07,330.73,186.56Z" transform="translate(-317.63 -153.3)"/><path class="cls-2" d="M334.59,178.94a4.55,4.55,0,0,0,.85-0.19c-0.14-.69-0.57-1.27-0.72-2-0.53-2.33-1-4.85-3-6.43a11.79,11.79,0,0,0-5.76-2.05c-2.33-.27-5-0.65-7-1.85,0.06,1.85,1.48,3.74,2.51,5.15a19.61,19.61,0,0,0,6.5,5.35C329.76,178,332.33,179.24,334.59,178.94Zm-3.54-2.14c-1.76-.94-3.52-1.84-5.29-2.75-2.22-1.14-3.69-3.44-5.14-5.38a21.85,21.85,0,0,1,4.57,1c1.85,0.42,3.92.5,5.54,1.62,2.2,1.52,2.14,4.08,2.93,6.36C333.8,178.09,331.22,176.9,331.05,176.81Z" transform="translate(-317.63 -153.3)"/><path class="cls-2" d="M349.91,161.29a10.7,10.7,0,0,0-.79-1.56A10.29,10.29,0,0,0,346,156.6a20.62,20.62,0,0,1-.66,4.32c-0.4,2-1.17,3.85-1.6,5.81a10.89,10.89,0,0,0,4.06,11.38,5.74,5.74,0,0,1,1-1.24c1.68-2.35,2.05-5.65,2.18-8.44A16.82,16.82,0,0,0,349.91,161.29Zm-0.78,12.21a7.42,7.42,0,0,1-1.9,2.67,12.59,12.59,0,0,1-2.13-3.88,8.54,8.54,0,0,1-.56-4.31,34.1,34.1,0,0,1,1-4.31c0.12-.46,1.4-4.29,1.15-4.48,1.68,1.24,2.49,3.61,2.81,5.57C350,167.55,350.27,170.81,349.14,173.49Z" transform="translate(-317.63 -153.3)"/><path class="cls-2" d="M367.88,183.56c0.05-.11.1-0.22,0.14-0.33a17.11,17.11,0,0,1-4.33-.83,6.59,6.59,0,0,0-3.17-.56,15.93,15.93,0,0,0-7.8,2.89c-0.78.6-1.54,1.25-2.3,1.87l-0.59.5c0.09-.07,3.84,1.7,4.23,1.82a12.57,12.57,0,0,0,5.19.45,12.07,12.07,0,0,0,4.61-1.7,13.48,13.48,0,0,0,3-2.51A8.09,8.09,0,0,0,367.88,183.56Zm-2.11,1a7.1,7.1,0,0,1-1.71,1.42,13,13,0,0,1-2.6,1.66,7.09,7.09,0,0,1-3.44.83c-2-.17-4.28-0.44-5.91-1.78a10.7,10.7,0,0,1,4.75-3.12,11.51,11.51,0,0,1,4.64-.45c1.51,0.17,2.9.92,4.41,1.07A1.08,1.08,0,0,1,365.77,184.56Z" transform="translate(-317.63 -153.3)"/><path class="cls-2" d="M374.94,160.42c0-.12,0-0.23,0-0.35,0-2.26-.36-4.52-0.41-6.77-1.48,1-3,1.81-4.45,2.82a29.52,29.52,0,0,0-4.86,4.1,14.69,14.69,0,0,0-3.05,6.11,17.78,17.78,0,0,0-.28,3.08c0,0.26-.14,1.59.24,1.69a0.15,0.15,0,0,0,.12,0c1,0.18,5.16-1.33,5.49-1.44a15.35,15.35,0,0,0,3.58-1.64A10.47,10.47,0,0,0,374.94,160.42Zm-4,6.19a6.66,6.66,0,0,1-2.82,1.66c-1.77.53-3.59,1-5.34,1.58a10.77,10.77,0,0,1,.48-2.67,17.52,17.52,0,0,0,.63-2.32A10.77,10.77,0,0,1,366,161.1a18.67,18.67,0,0,1,3.53-3.38c1.12-.85,2.48-1.39,3.56-2.26a23.53,23.53,0,0,1,.28,6.39,11.09,11.09,0,0,1-1.89,4.09A4.33,4.33,0,0,1,371,166.61Z" transform="translate(-317.63 -153.3)"/></svg>