<svg id="WW_SecondaryIcons_FlowersLeaves_CMYK" xmlns="http://www.w3.org/2000/svg" viewBox="0 0 50.1 60.39"><defs><style>.cls-1{fill:#fdc400;}.cls-1,.cls-2{fill-rule:evenodd;}.cls-2{fill:#e8247f;}</style></defs><title>Icons_FlowersLeaves_19</title><path class="cls-1" d="M478.08,50.06c2.61,2.2,2.76,7.73,7.52,7,1.26-1,1.43-2.63,1.13-4.59,0.82-.6,2.09-0.93,2.74-1.63,0.73-2.39-1.28-3.55-2.47-4.66-2.76-.52-5.77-2.17-8.49-1.74a5.2,5.2,0,0,0-1,2.89c-1.21.43-3.56,0.5-4.42-.59,2,0.14,4.75-1.6,4.7-3.55-0.11-3.84-6.11-4.47-7.29-.6a6.7,6.7,0,0,0,1.38,3c-5.31.37-10.07,8.47-4.37,10.41,1.28-.46,2.14-0.94,3-0.27-0.41,4.05,4.07,6.19,6,3.32C477.75,57.21,477.64,52.95,478.08,50.06Z" transform="translate(-439.52)"/><path class="cls-1" d="M488.78,40.24c-0.36-2.81-2.19-3.25-3.6-4.38,1.14-2.91-1.23-6-4.78-4.33-1.92.91-4.33,6.1-4.62,7.12,1.07,1.46,2.67,2.07,3.14,4.5C482,43,487.73,43.4,488.78,40.24Z" transform="translate(-439.52)"/><path class="cls-1" d="M460.89,32.74c0.74-.51,1.23.81,1.76,1.48a14.41,14.41,0,0,1,1.69,2.22c0.95,1.9,1.21,4.19,2.79,5.06,2.22,1.22,4.1-.49,4.62-2.81-0.52-4.3-3.13-5.24-5-7.4,2.62,0.92,4.14,3.6,8.14,2.31,1.13-1.16,1.34-2.66.4-4.65a15.44,15.44,0,0,0-13.82-2.11c1.85-4.45,9.66-1.23,11.36-4.71-0.3-3.64-4.88-5-8-4s-5,4.53-6.46,6.38c-0.69-2.84,1.14-5.82.3-9.41-1.06-.66-2.68-0.41-4.5.15-2.1,2.05-2.07,6.29-.52,9.47-1.3-.39-1.79-2.39-2.94-3.59-0.18-.18-1.5-0.89-1.93-1.2-1.06-.76-2.19-2-4-0.93a3.44,3.44,0,0,0-1.13,2.43c0,4.25,4.71,7.27,7.54,8.2-4.46.69-6.57-4-11.36-1.75-1.72,4.85,5.89,6.71,9.63,5.77-1.67,1.32-3.11,2.78-2.06,5.78,3.51,2.64,7.75-1.78,8.72-4.78,0.5,2.83-.84,6.74,1.23,8.79a3.92,3.92,0,0,0,2.79.75C464.54,43.33,463.16,35.7,460.89,32.74Z" transform="translate(-439.52)"/><path class="cls-2" d="M477.58,41.82a3.43,3.43,0,0,0-4.2-2.6,3.63,3.63,0,0,0-2.67,4.29,3.44,3.44,0,0,0,4.2,2.6A3.63,3.63,0,0,0,477.58,41.82Z" transform="translate(-439.52)"/><path class="cls-2" d="M460.71,29.7a3.44,3.44,0,0,0-4.2-2.6,3.63,3.63,0,0,0-2.67,4.29A3.44,3.44,0,0,0,458,34,3.63,3.63,0,0,0,460.71,29.7Z" transform="translate(-439.52)"/><path class="cls-1" d="M458.59,54.81a1.69,1.69,0,0,1-.41,1.17,3.29,3.29,0,0,1-2.26.67c-1.76-.58-0.35-4.4,1.68-3.75A2,2,0,0,1,458.59,54.81Z" transform="translate(-439.52)"/><path class="cls-1" d="M452.32,48.23A2.18,2.18,0,0,1,453,46a1.62,1.62,0,0,1,1.9.2,2.56,2.56,0,0,1,.17,1.89A1.58,1.58,0,0,1,452.32,48.23Z" transform="translate(-439.52)"/><path class="cls-1" d="M453.28,54.27c-0.82.73-1.22,1.91-2.67,1.84a7.67,7.67,0,0,1-2.31-.78,2.63,2.63,0,0,1-.64-1.55,4.56,4.56,0,0,1,1.89-3.21c0.8-.39,2.82-0.36,3.37.54,0.07,0.11,0,.31,0,0.41s0.26,0.11.28,0.15c0.08,0.23,0,.71.12,1A2.74,2.74,0,0,1,453.28,54.27Z" transform="translate(-439.52)"/><path class="cls-1" d="M452,42.19a2,2,0,0,1,1.83-.53C455.57,43.46,451,45.64,452,42.19Z" transform="translate(-439.52)"/><path class="cls-1" d="M446.36,50.79c0,1.69-.56,2.7-1.86,3-0.43.1-.61,0.08-1.26,0.21-1.36.27-2.54-1.4-2.45-2.87a3,3,0,0,1,2.32-2.73c0.85-.29,1.83-0.68,2.69.33A3.79,3.79,0,0,1,446.36,50.79Z" transform="translate(-439.52)"/><path class="cls-1" d="M448.21,48.4a4.54,4.54,0,0,1-1.11-1.21,3.31,3.31,0,0,1,1.24-2.38,2,2,0,0,1,.85-0.17c0.78,0.11,1.36,1.43,1.11,2.34A2.35,2.35,0,0,1,448.21,48.4Z" transform="translate(-439.52)"/><path class="cls-1" d="M462.32,1a1.7,1.7,0,0,1,.84-0.91,3.18,3.18,0,0,1,2.31.31c1.36,1.25-1.45,4.2-3,2.77A2,2,0,0,1,462.32,1Z" transform="translate(-439.52)"/><path class="cls-1" d="M465.35,9.64a2.19,2.19,0,0,1-1.55,1.79,1.6,1.6,0,0,1-1.64-1,2.61,2.61,0,0,1,.6-1.81A1.56,1.56,0,0,1,465.35,9.64Z" transform="translate(-439.52)"/><path class="cls-1" d="M466.91,3.67c1-.33,1.87-1.27,3.16-0.61a7.7,7.7,0,0,1,1.77,1.66,2.72,2.72,0,0,1,0,1.69,4.52,4.52,0,0,1-3,2.18c-0.88,0-2.7-.83-2.83-1.88,0-.13.16-0.27,0.14-0.4s-0.2-.2-0.19-0.25c0-.24.27-0.67,0.32-1A2.8,2.8,0,0,1,466.91,3.67Z" transform="translate(-439.52)"/><path class="cls-1" d="M463.24,15.35a2,2,0,0,1-1.87-.26C460.49,12.71,465.47,12.55,463.24,15.35Z" transform="translate(-439.52)"/><path class="cls-1" d="M471.77,9.72c0.65-1.57,1.59-2.26,2.89-2,0.43,0.08.59,0.17,1.22,0.32,1.34,0.31,1.74,2.33,1.06,3.65a3,3,0,0,1-3.19,1.57c-0.88-.08-1.92-0.13-2.31-1.41A3.87,3.87,0,0,1,471.77,9.72Z" transform="translate(-439.52)"/><path class="cls-1" d="M469.14,11.16a4.65,4.65,0,0,1,.52,1.57,3.27,3.27,0,0,1-2.08,1.69,1.91,1.91,0,0,1-.84-0.19c-0.66-.42-0.66-1.88-0.06-2.62A2.3,2.3,0,0,1,469.14,11.16Z" transform="translate(-439.52)"/></svg>