<svg id="Bird" xmlns="http://www.w3.org/2000/svg" xmlns:xlink="http://www.w3.org/1999/xlink" viewBox="0 0 173.66 94.84"><defs><style>.cls-1{fill:none;}.cls-2{clip-path:url(#clip-path);}.cls-3{fill:#a4dbe0;}.cls-4{clip-path:url(#clip-path-2);}.cls-5{fill:#f0efe3;fill-rule:evenodd;}.cls-6{fill:#614130;}</style><clipPath id="clip-path" transform="translate(6.22 -13.14)"><path class="cls-1" d="M9.9,37.86c1.67,0.23,3.38,0,5.06.22a48.69,48.69,0,0,0,5.46.78,16.07,16.07,0,0,1,2.68.34c0.9,0.16,2,.8,2.94.77a10.72,10.72,0,0,1,2.88.57,12.37,12.37,0,0,1,2.8.88c1.41,0.83,3.31.78,4.78,1.52a17.06,17.06,0,0,0,2.44.84c0.9,0.3,1.71.88,2.63,1.15a51.61,51.61,0,0,1,6.54,2.59c-1.12-1.44-2-2.7-2.58-3.52A14,14,0,0,1,43,36.32a26.2,26.2,0,0,1-5.49-7.27c-1.3-3-1-5.35,4.17-2,2.06,1.34,6.67,5.54,11.26,10C56.69,40.78,64.19,48.64,69,54.35h2.54a12,12,0,0,0,2.66-.12A13.58,13.58,0,0,1,83.9,56.8a15,15,0,0,1,4,4.77,17.78,17.78,0,0,1,1.28,2.89A10.54,10.54,0,0,1,90,68.61v0a37.29,37.29,0,0,0,2.69,3.75c1.28,1.57,2.5,3.19,3.82,4.72a33.45,33.45,0,0,1,4.39,6.78c-0.39-.5-0.78-1-1.19-1.49-0.72-.87-1.49-1.68-2.29-2.47-1.82-1.79-3.79-3.42-5.67-5.14-1.1-1-2.34-2.53-3.49-3.48a39.6,39.6,0,0,0-5.82-2.77,30,30,0,0,0-5.76-1.08c-3.31-.37-7-1-10.16.26s-6.09,3.87-9.06,5.69a9.87,9.87,0,0,1-5.63,1.78,26.47,26.47,0,0,0-5.11.16c0.74-.11,1.93,1.71,2.23,2.18a16.28,16.28,0,0,1,1.71,3.69,25.13,25.13,0,0,1,1,11.07A21.9,21.9,0,0,1,50.17,98c-2.05,4.76-3.82-2-4.71-3.92-0.5,1.13-1.3,4-2.77,4.15-2.93.32-3.4-6.29-3.72-8.12A33.46,33.46,0,0,1,40.18,74c0.18-.6,2.43-8,2.32-8.1a0.21,0.21,0,0,1-.11-0.18c-1-.19-0.54-2.18-1.45-2.64a13.17,13.17,0,0,1-4.74-3.68,12.78,12.78,0,0,1-1.46-5.57,6.12,6.12,0,0,1-2.57.51c-4.17,0-6.18-2.74-7.33-6.49a8.8,8.8,0,0,1-3.52-1c-2.5-1-5.3-1-7.73-2.28S9.39,40.75,9.9,37.86Z"/></clipPath><clipPath id="clip-path-2" transform="translate(6.22 -13.14)"><path class="cls-1" d="M96.47,77.09c-1.32-1.53-2.55-3.15-3.82-4.72A37.29,37.29,0,0,1,90,68.63v0a10.54,10.54,0,0,0-.77-4.15,17.78,17.78,0,0,0-1.28-2.89,15,15,0,0,0-4-4.77,13.58,13.58,0,0,0-9.72-2.57,12,12,0,0,1-2.66.12H69c-4.8-5.71-12.29-13.57-16.07-17.26-4.6-4.5-9.2-8.7-11.26-10-5.16-3.35-5.47-1-4.17,2A26.2,26.2,0,0,0,43,36.32,14,14,0,0,0,45.52,44c0.54,0.82,1.46,2.08,2.58,3.52a51.32,51.32,0,0,0-6.54-2.59c-0.92-.27-1.72-0.85-2.63-1.15a17.06,17.06,0,0,1-2.44-.84c-1.46-.74-3.37-0.7-4.78-1.52a12.37,12.37,0,0,0-2.8-.88A10.72,10.72,0,0,0,26,40c-0.9,0-2-.61-2.94-0.77a16.07,16.07,0,0,0-2.68-.34A48.69,48.69,0,0,1,15,38.08c-1.68-.2-3.39,0-5.06-0.22-0.5,2.89,1.14,5.32,3.7,6.63s5.23,1.26,7.73,2.28a8.8,8.8,0,0,0,3.52,1C26,51.55,28,54.34,32.17,54.29a6.12,6.12,0,0,0,2.57-.51,12.78,12.78,0,0,0,1.46,5.57A13.17,13.17,0,0,0,41,63c0.91,0.45.45,2.45,1.45,2.64a0.21,0.21,0,0,0,.11.18c0.11,0.09-2.14,7.5-2.32,8.1A33.46,33.46,0,0,0,39,90.13c0.32,1.83.79,8.44,3.72,8.12,1.47-.16,2.27-3,2.77-4.15,0.89,1.87,2.65,8.68,4.71,3.92a21.9,21.9,0,0,0,1.49-5.74,25.13,25.13,0,0,0-1-11.07,16.28,16.28,0,0,0-1.71-3.69c-0.31-.47-1.5-2.28-2.23-2.18a26.47,26.47,0,0,1,5.11-.16,9.87,9.87,0,0,0,5.63-1.78c3-1.82,5.81-4.38,9.06-5.69s6.85-.63,10.16-0.26a30,30,0,0,1,5.76,1.08,39.6,39.6,0,0,1,5.82,2.77c1.16,0.95,2.39,2.47,3.49,3.48,1.89,1.72,3.86,3.35,5.67,5.14,0.8,0.79,1.57,1.61,2.29,2.47,0.41,0.49.8,1,1.19,1.49A33.49,33.49,0,0,0,96.47,77.09Z"/></clipPath></defs><title>Icons_Bird</title><g class="cls-2"><path class="cls-3" d="M96.47,77.09c-1.32-1.53-2.55-3.15-3.82-4.72A37.29,37.29,0,0,1,90,68.63v0a10.54,10.54,0,0,0-.77-4.15,17.78,17.78,0,0,0-1.28-2.89,15,15,0,0,0-4-4.77,13.58,13.58,0,0,0-9.72-2.57,12,12,0,0,1-2.66.12H69c-0.63-.75-1.32-1.55-2-2.36a1.07,1.07,0,0,1-.67.15c0-.24.33-0.22,0.6-0.24-4.68-5.34-10.71-11.63-14-14.82-3.88-3.8-7.77-7.38-10.12-9.21a0.41,0.41,0,0,1-.05.23c-0.58.1-.53-0.44-1.21-0.24,0-.23.51-0.35,0.89-0.28-0.28-.21-0.54-0.39-0.76-0.54-3.06-2-4.41-2-4.73-1a1,1,0,0,0,.72-0.14,0.57,0.57,0,0,1-.79.45,2.57,2.57,0,0,0,0,.49l0.06,0-0.06,0a7.66,7.66,0,0,0,.63,2.12,12.93,12.93,0,0,0,.83,1.56c0.29-.18,1.15,0,0.22.35A30.78,30.78,0,0,0,43,36.32,14,14,0,0,0,45.52,44c0.54,0.82,1.46,2.08,2.58,3.52a51.61,51.61,0,0,0-6.54-2.59c-0.92-.27-1.72-0.85-2.63-1.15L38,43.52a1.33,1.33,0,0,1-.65.12,0.3,0.3,0,0,1,.33-0.22,7.84,7.84,0,0,1-1.24-.48c-1.46-.74-3.37-0.7-4.78-1.52a12.37,12.37,0,0,0-2.8-.88A10.72,10.72,0,0,0,26,40c-0.9,0-2-.61-2.94-0.77a16.07,16.07,0,0,0-2.68-.34A48.69,48.69,0,0,1,15,38.08c-1.68-.2-3.39,0-5.06-0.22-0.5,2.89,1.14,5.32,3.7,6.63a25.16,25.16,0,0,0,5.7,1.64c0.05-.06.07,0,0.07,0a14.53,14.53,0,0,1,2,.62,8.8,8.8,0,0,0,3.52,1C26,51.55,28,54.34,32.17,54.29a6.12,6.12,0,0,0,2.57-.51,12.78,12.78,0,0,0,1.46,5.57A13.17,13.17,0,0,0,41,63c0.91,0.45.45,2.45,1.45,2.64a0.21,0.21,0,0,0,.11.18c0.11,0.09-2.14,7.5-2.32,8.1-0.25.83-.46,1.65-0.66,2.46h0.06V76.9H39.41c-0.16.7-.3,1.39-0.42,2.08a2,2,0,0,1,1.08-.14,1.63,1.63,0,0,1-1.13.46,31.31,31.31,0,0,0-.35,7.59,8,8,0,0,1,1.49.21c0.13,0,.39.46,0.48,0.49a4.2,4.2,0,0,1,1.94.73,1.78,1.78,0,0,1-1.21,0c-0.34-.1-0.85-0.64-1.21-0.73a10.07,10.07,0,0,0-1.45-.23c0,0.33.06,0.66,0.1,1,0.17,0.07.32,0.17,0.38,0.2-0.07.32-.18,0.31-0.32,0.22,0.06,0.45.11,0.89,0.2,1.35v0.08a6.55,6.55,0,0,1,.59.53,1.54,1.54,0,0,0,.48.15c0.13,0,.15,0,0,0a1.17,1.17,0,0,0-.48.33c-0.28,0-.13-0.24,0-0.24A0.82,0.82,0,0,0,39,90.58c0.33,2.27.92,8,3.65,7.67,1.47-.16,2.27-3,2.77-4.15,0.89,1.87,2.65,8.68,4.71,3.92a17.87,17.87,0,0,0,.75-2.15A1.66,1.66,0,0,0,50,95.6c0-.46.63-0.21,1-0.22,0.11-.41.2-0.82,0.28-1.23,0,0,0,0,0-.07,0.11-.55.21-1.1,0.28-1.64-0.51.22-.72-0.47,0-0.31a25.12,25.12,0,0,0-1-10.91c-0.19-.56-0.4-1.11-0.64-1.66-0.61.1-.89-0.46-0.17-0.39a14.36,14.36,0,0,0-.9-1.64c-0.31-.47-1.5-2.28-2.23-2.18a26.47,26.47,0,0,1,5.11-.16,8.31,8.31,0,0,0,3.48-.67,1.08,1.08,0,0,1,.58-0.26,16.48,16.48,0,0,0,1.56-.85c3-1.82,5.81-4.38,9.06-5.69s6.85-.63,10.16-0.26a30,30,0,0,1,5.76,1.08,20.91,20.91,0,0,1,2.09.85c-0.17-.07.5-0.31,0.49-0.24,0-.17-0.37-0.54,0-0.73s0.54,1.35-.48,1c1.76,0.81,3.59,1.8,3.73,1.92,1.16,0.95,2.39,2.47,3.49,3.48,1.89,1.72,3.86,3.35,5.67,5.14q0.55,0.54,1.07,1.1l0.11,0,0,0.05c0.39,0.42.78,0.86,1.15,1.3s0.8,1,1.19,1.49c-0.52-1-1.09-2-1.69-3l-0.11-.06a0.34,0.34,0,0,1,0-.09A28.87,28.87,0,0,0,96.47,77.09ZM50.75,85.88h0.49v0.49H50.75V85.88ZM50,82.49c0-.29.44-0.2,0.73-0.24C50.71,82.53,50.3,82.45,50,82.49Zm0.48,6.8c-0.53.74-1.56-.28,0,0h0Zm-0.24-2.67c-0.9.85-1.23-.66,0,0h0ZM49,86.13c0-.29.44-0.2,0.73-0.24C49.74,86.17,49.33,86.09,49,86.13Zm0,7.53c0.35-.72.19,0.56-0.49,0.24C48.12,93.71,48.71,93.63,49,93.65ZM39.58,80.06c-0.05.38-.28,0-0.24-0.24S39.62,79.8,39.58,80.06Zm0.49,5.83v0.49H39.58V85.88h0.49Zm0.24-9.47c-0.11.35-.21,0-0.49,0A0.25,0.25,0,0,1,40.31,76.42Zm1.21-3.15c-0.27,0-.13-0.25,0-0.25,0.09-.41-0.19-0.46-0.49-0.49,0-.53.86-0.11,1.21-0.24C42.46,73.07,41.45,72.62,41.52,73.26ZM13.12,39a0.25,0.25,0,0,1-.49,0C12.74,38.68,12.84,39.05,13.12,39Zm2.67,0.49c-0.22.15-.44,0.29-0.49,0A0.25,0.25,0,0,1,15.79,39.52Zm1.7,3.88c0,0.28-.44.21-0.73,0.24C16.8,43.36,17.2,43.44,17.49,43.4Zm1.7-1.46c-0.25.2-.44-0.21-0.49-0.24C17.77,41.16,19.35,41.81,19.19,41.94Zm1,0.73c0,0.6-.82.07-1,0C19.35,41.94,19.71,42.9,20.16,42.67Zm1.7,0.73c0.27-.07,0,1.14.49,0.49C23.19,44.81,20.94,44,21.86,43.4Zm1.94-1.7c0,0.28-.44.21-0.73,0.24C23.11,41.66,23.51,41.74,23.8,41.7Zm0,1c0.1,0.47-1.1.36-.73-0.24A1.89,1.89,0,0,1,23.8,42.67Zm5.1,7c0.37-.86.46,0.45,0.24,0.48A0.42,0.42,0,0,1,28.9,49.71ZM27,49c0.71-.36.71,1.08,0,0.73V49Zm-1-.49H25.5a1.15,1.15,0,0,0,.24-0.73C26.25,47.91,26.26,48.15,26,48.5Zm1.7-6.8A1.5,1.5,0,0,0,27,41.46C26.89,41.07,28.27,41.12,27.68,41.7Zm0.73,2.91c-0.73.66-1.45-.17-2.18-0.24-0.06-.38.57-0.08,0.73-0.24s0-.47,0-0.48A1.14,1.14,0,0,1,28.41,44.61Zm1.21-3.4c0,0.53-.86.11-1.21,0.24C28.37,40.93,29.27,41.35,29.62,41.21ZM32.3,53.35a1,1,0,0,1-1.21.73C31,53.4,31.68,53.38,32.3,53.35Zm-0.49-6.07c0.11-.35.21,0,0.49,0A0.25,0.25,0,0,1,31.81,47.28Zm0.49-4.85c0.1,0.47-1.11.35-.73-0.24A1.93,1.93,0,0,1,32.3,42.43Zm0,1c-0.28.25-.57,0.19-0.24,0S32.59,43.15,32.3,43.4ZM34,43.88c0,0.53-.86.11-1.21,0.24C32.74,43.6,33.64,44,34,43.88Zm1.46,0c0,0.28-.44.2-0.73,0.24C34.76,43.84,35.17,43.92,35.45,43.88Zm0.49,2.43c-0.07.33-.61,0.2-1,0.24C35,46.23,35.57,46.35,35.94,46.31Zm0,1.94c-0.59.8-1.16-.68,0,0h0ZM36.18,49c0.81-.59-0.59.81,0,0h0Zm1,2.18a0.37,0.37,0,0,0,.24.49,2,2,0,0,1-2.19.24C35.56,51.23,36.31,51.71,37.15,51.17Zm0.49-4.61a0.25,0.25,0,0,1-.49,0C37.26,46.2,37.36,46.58,37.64,46.55Zm10,30.11c0,0.28-.44.2-0.73,0.24C46.9,76.62,47.31,76.7,47.59,76.66Zm-1,9.47c-0.07-.39,1.31-0.34.73,0.24A1.5,1.5,0,0,0,46.62,86.13Zm1-2.67c-0.64.89-1.41,0.12,0,0h0Zm-1.7,7.77a0.67,0.67,0,0,1,.73-0.49A0.67,0.67,0,0,1,45.89,91.23Zm-1-3.88a1.81,1.81,0,0,1,1.7,1.21,1.89,1.89,0,0,1-1.94,0C44.48,87.87,45,87.93,44.92,87.34Zm0.24-1.94c0.84,0.63-1.25.58,0,0h0Zm-1.46,7.77c-0.1-.47,1.11-0.35.73,0.24H43.95C44,93.2,43.85,93.18,43.71,93.17Zm-0.49-7c-0.09-1,.79-0.17,1.21-0.24,0.27,0.62-.83,1.25.24,1.21,0.24,0.35-1,.21-1.21,0a1,1,0,0,0,.49-1C43.81,85.78,43.66,86.21,43.22,86.13Zm1.46-14.57c-0.08.33-.61,0.2-1,0.24C43.77,71.24,44.35,71.25,44.68,71.56ZM44.43,64a1.5,1.5,0,0,0-.73-0.24C43.64,63.41,45,63.45,44.43,64ZM43.71,74a0.25,0.25,0,0,1,.49,0C44,74.14,43.76,74.28,43.71,74Zm0.49,7.77v0.49H43.71V81.76h0.49ZM42.74,73c0.31-.09.08-0.59,0-0.49C43.37,71.69,43.65,73.23,42.74,73ZM41.52,96.81c-0.23,0-.19.3-0.24,0.49-0.28,0-.2-0.44-0.24-0.73C41.56,96.39,42.58,96.81,41.52,96.81Zm1-6.07c-0.57.78-1-.85,0,0h0Zm0.24,5.34c-0.22.66-.85-0.25-1.21-0.24C41.89,95,42.11,96.34,42.74,96.08ZM41.28,54.81c0.54-.94-0.11.65-0.24,0.49S41.25,54.86,41.28,54.81Zm-1,2.19c-0.39.68-.91-0.53-1.46-0.49,0.08-.33.61-0.2,1-0.24C39.74,56.75,39.87,57,40.31,57Zm-1.21-2.43c0,0.28-.44.21-0.73,0.24C38.4,54.52,38.81,54.6,39.09,54.57ZM39.58,50c-0.29,0-.21-0.44-0.24-0.73C40.14,49.06,39.73,49.73,39.58,50Zm1,0c0,0.28-.44.2-0.73,0.24C39.86,49.91,40.26,50,40.55,50Zm0,9a1.36,1.36,0,0,0-1-.24C39.5,58.27,40.94,58.26,40.55,58.94Zm0.24-9.22c1.5-.89,1.25.51,0,0h0Zm2.43,10.44c-0.34.11,0,.57,0,0.49A0.62,0.62,0,0,1,42,60.39C42.69,60.59,42.64,60.05,43.22,60.15Zm0-6.07c0.82-.59-0.59.81,0,0h0Zm2.19-6.56H44.19C44.28,46.88,45.48,46.39,45.41,47.53Zm0,4.37c-0.6,0-.41-0.3,0-0.24C46,52.05,45.32,53.28,45.41,51.9Zm-0.24,5.34c-0.22.15-.43,0.29-0.48,0A0.25,0.25,0,0,1,45.16,57.24Zm-0.24-8c0.78-.85,1.3.5,0,0h0Zm1.21,11.41c-0.46.43-.68-0.43-1.21-0.49s-0.79.46-1.46,0.24c0.32-.73,1.92-0.18,2.43-0.73C45.87,59.83,46.45,60.47,46.13,60.64ZM45.65,79.33c-0.85-.41.47-0.62,1-0.49C46.79,79.5,45.47,78.67,45.65,79.33Zm1.94,2.18c0,0.53-.86.11-1.21,0.24C46.34,81.23,47.24,81.65,47.59,81.51Zm-7.53-51a1.21,1.21,0,0,1,1.46-.24C41.36,30.54,41,30.54,41,31,40.55,31,40.73,30.36,40.06,30.53Zm-0.49-3.64a0.25,0.25,0,0,1-.49,0C39.2,26.54,39.31,26.92,39.58,26.89Zm1.7,0.73c-0.22.66-.85-0.25-1.21-0.24,0.36-.52.59,0.17,1.21-0.24C41.13,27.35,41,27.57,41.28,27.62Zm1,2.43c-0.16.73-.52-0.23-1,0C41.31,29.44,42.1,30,42.25,30ZM54.87,66.71c0-.21-0.09-0.23-0.24-0.24,0.11-.36.31,0.1,0.73,0,0.59-.52-0.27.35-0.48,0.49C54.6,66.9,54.74,66.71,54.87,66.71Zm-2.19,0c0.11-.35.21,0,0.48,0A0.25,0.25,0,0,1,52.69,66.71Zm0,5.1c-0.22.15-.43,0.29-0.49,0A0.25,0.25,0,0,1,52.69,71.8Zm-2.43,2.43c0.33-1.44,1.61-.68,2.67-0.49C52.43,74.3,50.83,73.75,50.26,74.23Zm0.49-9c0.34-.64.92,0.51,1,1C51.09,66.2,51.37,65.27,50.75,65.25Zm0.49,3.89a0.67,0.67,0,0,1-.73.48A0.67,0.67,0,0,1,51.23,69.13ZM50,74a1.19,1.19,0,0,1-1.21.48C48.56,73.66,49.56,74.1,50,74Zm-1.94-.24c0.25,0.28.19,0.58,0,.24S47.82,73.46,48.08,73.75Zm0.24-5.83c-0.74.9-.82-0.74,0,0h0Zm0-16a6.26,6.26,0,0,0-.49.73C47.23,52.53,47.82,51.68,48.32,51.9ZM46.13,39.76a0.25,0.25,0,0,1,.48,0C46.51,40.11,46.41,39.73,46.13,39.76Zm-1.94-7c-0.74.9-.82-0.74,0,0h0Zm0.24,3.4c0.08,0.43-1.36.43-1-.24A1.57,1.57,0,0,1,44.43,36.12Zm1.21,5.59c0,0.28-.44.21-0.73,0.24C45,41.66,45.36,41.74,45.65,41.7Zm1-8c-0.06.43-.42,0.55-1,0.49A0.57,0.57,0,0,1,46.62,33.69Zm0,2.43a1.56,1.56,0,0,1,.24-1C47.29,35.07,47.3,36.5,46.62,36.12Zm1.21,0c-0.22.15-.43,0.29-0.49,0A0.25,0.25,0,0,1,47.83,36.12ZM48.56,46.8c0,0.29-.44.2-0.73,0.24C47.87,46.76,48.28,46.84,48.56,46.8ZM48.8,35.63c-0.11.35-.21,0-0.49,0A0.25,0.25,0,0,1,48.8,35.63ZM49,62.09c-0.1.7-1.29,0.91-2.18,1A6,6,0,0,1,49,62.09Zm0.49,1.7c-0.06.35-.73,0.08-0.73,0.49C48.2,64.17,49,63.58,49.53,63.79Zm0.73,5.83c0.11,0.52-.35.46-0.73,0.49A0.67,0.67,0,0,1,50.26,69.62ZM51,47c0,0.29-.44.21-0.73,0.24C50.3,47,50.7,47.08,51,47Zm0.24-1.46c-0.29,0-.21-0.44-0.24-0.73C51.8,44.69,51.38,45.36,51.23,45.58Zm0.48-8.25c-0.33.16-.54-0.16-0.24-0.24a1.48,1.48,0,0,0,.24,0C52.09,36.9,51.9,37.24,51.72,37.33ZM52,72c-0.22.15-.43,0.29-0.48,0A0.25,0.25,0,0,1,52,72Zm1.46-17.48c-0.22.66-.85-0.25-1.21-0.24C52.64,53.45,52.87,54.75,53.42,54.57Zm0.49,4.13c-0.21.71-.61-0.32-1.21,0C52.75,58.13,53.76,58.55,53.9,58.69Zm0,4.37a0.25,0.25,0,0,1-.49,0C53.52,62.71,53.63,63.09,53.9,63.06Zm0,5.83c0.1,0.47-1.11.35-.73-0.24A1.86,1.86,0,0,1,53.9,68.89Zm0.49-1.7s0.74,1.12-.24,1C54.63,68.09,54,67.07,54.39,67.19Zm1-14.57c0,0.28-.44.2-0.73,0.24C54.67,52.58,55.07,52.66,55.36,52.63Zm0.24-6.8c-0.64.89-1.41,0.12,0,0h0Zm0.24,8.74H55.36c0-.21-0.09-0.23-0.24-0.24C55,53.85,56.22,54,55.84,54.57Zm1,12.87c-0.11.35-.21,0-0.49,0A0.25,0.25,0,0,1,56.82,67.43Zm13.11-8c0.08-.33.61-0.2,1-0.24C70.82,59.51,70.29,59.38,69.93,59.42ZM58.27,54.57c-0.44.21-1.05,0.29-.24,0C58.12,54.53,59.3,54.08,58.27,54.57Zm0,3.64a1.9,1.9,0,0,1,.24-0.73C59,57.38,58.87,58.59,58.27,58.21Zm1,10.68c-0.53.74-1.55-.28,0,0h0Zm0.24-1.46c0.49-.08.76,0,0.73,0.49H59.49V67.43Zm0.74-3.64h0l-0.34.11L59.62,64l0.25-.08,0.34-.11h0Zm0.72,2.67c-0.08.42-.75-0.22-1,0.49C59.21,66.58,60.69,65.9,60.94,66.46Zm1-10.2a0.67,0.67,0,0,1-.73.49C61.47,56.26,61.06,55.76,61.91,56.27Zm-0.24-8c0.74-.9.82,0.74,0,0h0Zm1.94,1.94c0,0.29-.44.2-0.73,0.24C62.92,50.16,63.33,50.23,63.61,50.2Zm-1,10.68a1.07,1.07,0,0,1,1-.48C63.86,61.12,63.07,60.82,62.64,60.88Zm1.94,0.73H64.1V61.12h0.49v0.49Zm0.73-9.23H64.83V51.9h0.49v0.49ZM67,66.46c0,0.53-.86.11-1.21,0.24C65.76,66.18,66.66,66.6,67,66.46Zm0.49-8.74s-0.39-.33-0.24-0.49,0.24,0.24.24,0.24C68,57.64,68.59,58.36,67.5,57.72Zm2.19-2.19c0,0.76-.71,1.45-1.21,1,0.14-.33.61-0.12,0.73-0.49,0-.14-0.64-0.12-0.49-0.24s0.45-.53-0.24-0.73c0-.21.1-0.23,0.24-0.24H69.2A0.66,0.66,0,0,0,69.68,55.54Zm0.49,0a1.5,1.5,0,0,0-.73-0.24C69.37,54.91,70.75,55,70.17,55.54Zm1,0.49c-0.31.76-1.16-.53-1.21,0.49-0.79-.5.82-0.62,0.73-1.21,0.28,0,.14.24,0,0.24C70.56,56,70.84,56,71.14,56Zm0.73,1H71.38V56.51h0.49V57Zm0.49,4.37c-0.22.15-.44,0.29-0.49,0A0.25,0.25,0,0,1,72.35,61.37Zm1-4.61c-0.53.74-1.55-.28,0,0h0Zm2.18,3.16c-0.78-.12-2,0.54-2.67-0.24,0.61-.23,1.13.36,2.43,0,0.08-.64-1.36.23-1-0.73a1.78,1.78,0,0,1,1.94,1.21C76.36,61.15,75.31,59.88,75.51,59.91Zm0.73,1c-0.35.92-1.38-.1,0,0h0Zm-0.73,1.21a1.07,1.07,0,0,1,1-.48C76.73,62.34,75.94,62,75.51,62.09Zm2.91,0.73c0.76-.12.95,0.35,1.46,0.49C79.78,63.49,78.47,63.8,78.42,62.82Zm0.48,1c-0.64.6-1.41-.7,0,0h0Zm-1,.49c-0.53.74-1.55-.28,0,0h0Zm1-6.55c-0.53.74-1.55-.28,0,0h0Zm1.7,2.67a0.67,0.67,0,0,1-.73.48A0.67,0.67,0,0,1,80.61,60.39Zm3.16,8.25c0-.29.44-0.2,0.73-0.25C84.45,68.69,84,68.61,83.76,68.65Zm-0.24-6.8a0.67,0.67,0,0,1-.73.48C82.68,61.82,83.14,61.87,83.52,61.85Zm0-1.46c0,0.28-.44.2-0.73,0.24C82.83,60.35,83.23,60.43,83.52,60.39ZM85,60.64c-0.38.38-1.08-.46-1.46-0.49,0.29-.55,1,0.29,1,0.24S85.17,60.44,85,60.64Zm5.58,9.71H89.83V69.86C90.32,69.78,90.59,69.91,90.56,70.35Zm0.24,2.18c0,0.29-.44.21-0.73,0.25C90.12,72.49,90.52,72.57,90.8,72.53Z" transform="translate(6.22 -13.14)"/></g><g class="cls-4"><path class="cls-5" d="M153.56,58.55a1.2,1.2,0,0,1-.31.42,0.64,0.64,0,0,1-.54,0,1.46,1.46,0,0,1-.53-0.53c-0.67-1.24-1.32-2.49-2-3.74a0.6,0.6,0,0,1,.32-0.8,0.64,0.64,0,0,1,.86.14,5.61,5.61,0,0,1,.41.65q0.85,1.72,1.68,3.46A2,2,0,0,1,153.56,58.55Z" transform="translate(6.22 -13.14)"/><path class="cls-5" d="M151,58.13a2.87,2.87,0,0,1-.18.56,0.69,0.69,0,0,1-1,.17,1.62,1.62,0,0,1-.26-0.28q-1-1.73-2.06-3.46a0.55,0.55,0,0,1,.23-0.66,0.76,0.76,0,0,1,.88,0c0.32,0.47.64,1,.93,1.44s0.41,0.79.65,1.17S150.71,57.77,151,58.13Z" transform="translate(6.22 -13.14)"/><path class="cls-5" d="M142.52,99.71c0-.64,0-1.29.08-1.92a1.34,1.34,0,0,1,.29-0.68,0.63,0.63,0,0,1,.7-0.17,0.41,0.41,0,0,1,.3.44c-0.05,1.41-.12,2.82-0.22,4.23a1.54,1.54,0,0,1-.32.69,0.6,0.6,0,0,1-.69.17,0.5,0.5,0,0,1-.32-0.44c0-.77.07-1.54,0.11-2.3h0.07Z" transform="translate(6.22 -13.14)"/><path class="cls-5" d="M147.09,97.65c-0.05.33-.13,0.78-0.2,1.22-0.15,1-.27,2-0.44,3.05a0.73,0.73,0,0,1-.4.37,0.57,0.57,0,0,1-.65-0.27,1.83,1.83,0,0,1-.18-0.74c0.2-1.34.43-2.67,0.66-4a1.37,1.37,0,0,1,.17-0.34,0.86,0.86,0,0,1,.7-0.22,0.45,0.45,0,0,1,.32.42A3.93,3.93,0,0,1,147.09,97.65Z" transform="translate(6.22 -13.14)"/><path class="cls-5" d="M161.39,36.66a1.19,1.19,0,0,1,.33.15,0.73,0.73,0,0,1,.2.32q0.67,2.22,1.31,4.44a0.74,0.74,0,0,1-.06.37,0.6,0.6,0,0,1-.61.36A1.73,1.73,0,0,1,162.1,42a0.32,0.32,0,0,1-.11-0.16c-0.44-1.48-.87-3-1.29-4.45A0.71,0.71,0,0,1,161.39,36.66Z" transform="translate(6.22 -13.14)"/><path class="cls-5" d="M158.87,37.25a0.28,0.28,0,0,1,.16,0,0.74,0.74,0,0,1,.25.28c0.54,1.44,1.07,2.88,1.59,4.32a0.64,0.64,0,0,1-.29.66,0.55,0.55,0,0,1-.7-0.06,1.89,1.89,0,0,1-.21-0.32q-0.76-2-1.51-3.95A0.74,0.74,0,0,1,158.87,37.25Z" transform="translate(6.22 -13.14)"/><path class="cls-5" d="M121.84,66.33a1.27,1.27,0,0,1-.25.38,0.81,0.81,0,0,1-1.15-.33c-0.39-1-.77-2-1.12-3.09a3.08,3.08,0,0,1-.11-0.95,0.83,0.83,0,0,1,.39-0.63,0.52,0.52,0,0,1,.67.14,2.26,2.26,0,0,1,.15.35,25.69,25.69,0,0,0,1.15,3.28C121.69,65.78,121.76,66.09,121.84,66.33Z" transform="translate(6.22 -13.14)"/><path class="cls-5" d="M124,66.25a1.61,1.61,0,0,1-.41.33,0.85,0.85,0,0,1-.85-0.29,1,1,0,0,1-.09-0.17c-0.36-1.16-.72-2.32-1.07-3.49a0.85,0.85,0,0,1,.21-0.89,0.77,0.77,0,0,1,.47-0.25,0.59,0.59,0,0,1,.43.31c0.43,1.27.83,2.56,1.23,3.85A4.09,4.09,0,0,1,124,66.25Z" transform="translate(6.22 -13.14)"/><path class="cls-5" d="M165.31,51.28a2.93,2.93,0,0,1,.28-0.44,0.54,0.54,0,0,1,.81.11c0.12,0.36.24,0.73,0.33,1.1,0.25,1.12.48,2.25,0.71,3.37a0.64,0.64,0,0,1-.51.69,0.67,0.67,0,0,1-.64-0.31,1.22,1.22,0,0,1-.1-0.16q-0.44-2.06-.87-4.12A1.42,1.42,0,0,1,165.31,51.28Z" transform="translate(6.22 -13.14)"/><path class="cls-5" d="M164.94,56a1.89,1.89,0,0,1-.36.34,0.52,0.52,0,0,1-.64-0.27,2.71,2.71,0,0,1-.15-0.35A29.93,29.93,0,0,0,162.73,52a0.72,0.72,0,0,1,.57-0.87,0.46,0.46,0,0,1,.51.15,2.54,2.54,0,0,1,.19.34,18.41,18.41,0,0,1,1,3.94A2.58,2.58,0,0,1,164.94,56Z" transform="translate(6.22 -13.14)"/><path class="cls-5" d="M34.68,106c0,0.15,0,.21,0,0.27a0.63,0.63,0,0,1-.5.51,0.71,0.71,0,0,1-.66-0.28,1.86,1.86,0,0,1-.15-0.35,7.48,7.48,0,0,1-.11-0.76q-0.18-1.82-.35-3.64a1,1,0,0,1,.51-1A0.45,0.45,0,0,1,34,101a1.5,1.5,0,0,1,.15.35A44.51,44.51,0,0,1,34.68,106Z" transform="translate(6.22 -13.14)"/><path class="cls-5" d="M31.94,103.11c0,0.58,0,1.15.06,1.73a0.59,0.59,0,0,1-.79.56,1,1,0,0,1-.42-0.33,0.69,0.69,0,0,1-.07-0.37c0-1.15-.1-2.31-0.13-3.46a1.08,1.08,0,0,1,.53-1,0.45,0.45,0,0,1,.52,0,1.25,1.25,0,0,1,.34.87c0,0.64,0,1.28-.07,1.92h0Z" transform="translate(6.22 -13.14)"/><path class="cls-5" d="M150.66,80.2c0-.65,0-1.29,0-1.93a0.76,0.76,0,0,1,.59-0.68,0.51,0.51,0,0,1,.63.3,1.61,1.61,0,0,1,.09.37q0,2.13,0,4.25a0.54,0.54,0,0,1-.14.35,0.92,0.92,0,0,1-.46.29,0.44,0.44,0,0,1-.46-0.28,2.58,2.58,0,0,1-.18-0.74c0-.64,0-1.29.06-1.93h0Z" transform="translate(6.22 -13.14)"/><path class="cls-5" d="M148.57,80c-0.06-.64-0.14-1.28-0.16-1.92a0.72,0.72,0,0,1,.29-0.46,0.68,0.68,0,0,1,.72,0,0.7,0.7,0,0,1,.22.29,17.56,17.56,0,0,1,.29,3.84,5.65,5.65,0,0,1-.08.57,0.73,0.73,0,0,1-.57.44,0.55,0.55,0,0,1-.56-0.42c-0.07-.77-0.12-1.53-0.19-2.3h0Z" transform="translate(6.22 -13.14)"/><path class="cls-5" d="M137.9,70.41c0,0.51,0,1-.05,1.53a0.63,0.63,0,0,1-.51.5,0.53,0.53,0,0,1-.49-0.22,1.47,1.47,0,0,1-.14-0.35q-0.1-2.11-.18-4.22a0.61,0.61,0,0,1,.4-0.59,0.48,0.48,0,0,1,.74.29c0.09,0.63.17,1.27,0.21,1.9a10.77,10.77,0,0,1,0,1.15h0Z" transform="translate(6.22 -13.14)"/><path class="cls-5" d="M140,69.42c0,0.51,0,1,0,1.53a5,5,0,0,1,0,.57,0.72,0.72,0,0,1-.69.54,0.71,0.71,0,0,1-.52-0.49c0-1.53,0-3.05.05-4.58a0.57,0.57,0,0,1,.49-0.51,0.48,0.48,0,0,1,.61.28,4.61,4.61,0,0,1,.08.56c0,0.7,0,1.41,0,2.11h0Z" transform="translate(6.22 -13.14)"/><path class="cls-5" d="M87.67,78.29a2.4,2.4,0,0,1-.38.41,0.46,0.46,0,0,1-.53-0.11,0.61,0.61,0,0,1-.14-0.13q-1.5-2-3-4a0.64,0.64,0,0,1,0-.72,0.42,0.42,0,0,1,.5-0.15,1.73,1.73,0,0,1,.3.23c1,1.31,2.09,2.62,3.12,3.94A1.53,1.53,0,0,1,87.67,78.29Z" transform="translate(6.22 -13.14)"/><path class="cls-5" d="M85.59,73.24A2.8,2.8,0,0,1,86,72.81a0.4,0.4,0,0,1,.35,0,2.41,2.41,0,0,1,.58.49q1.15,1.44,2.26,2.91a0.72,0.72,0,0,1,.11.54,0.81,0.81,0,0,1-.35.42,0.46,0.46,0,0,1-.54,0A2.67,2.67,0,0,1,88,76.71c-0.76-1-1.51-1.93-2.25-2.92A1.57,1.57,0,0,1,85.59,73.24Z" transform="translate(6.22 -13.14)"/><path class="cls-5" d="M53.7,13.14a0.34,0.34,0,0,1,.19,0,2.93,2.93,0,0,1,.41.63c0.5,1.32,1,2.64,1.48,4a0.77,0.77,0,0,1,0,.18,0.68,0.68,0,0,1-.31.65,0.52,0.52,0,0,1-.67-0.14,3.64,3.64,0,0,1-.39-0.66C54,16.53,53.54,15.26,53.1,14A0.77,0.77,0,0,1,53.7,13.14Z" transform="translate(6.22 -13.14)"/><path class="cls-5" d="M51,14.47a0.77,0.77,0,0,1,.53-0.62,0.76,0.76,0,0,1,.35.1,0.28,0.28,0,0,1,.13.14c0.6,1.41,1.2,2.83,1.79,4.24a0.63,0.63,0,0,1-.52.84,0.67,0.67,0,0,1-.64-0.33c-0.53-1.3-1.07-2.6-1.58-3.91A1.41,1.41,0,0,1,51,14.47Z" transform="translate(6.22 -13.14)"/><path class="cls-5" d="M76.42,101.67c0.1-.24.2-0.54,0.34-0.82a0.4,0.4,0,0,1,.29-0.19,0.4,0.4,0,0,1,.31.16,2.92,2.92,0,0,1,.34.89c0.14,1.08.23,2.18,0.33,3.27a1.39,1.39,0,0,1-.06.38,0.71,0.71,0,0,1-.59.42,0.52,0.52,0,0,1-.58-0.39A33.81,33.81,0,0,1,76.42,101.67Z" transform="translate(6.22 -13.14)"/><path class="cls-5" d="M80.87,104.54a2,2,0,0,1-.1.63,0.8,0.8,0,0,1-.43.32,0.45,0.45,0,0,1-.52-0.14,0.93,0.93,0,0,1-.19-0.32,9.3,9.3,0,0,1-.19-1.13c-0.08-.83-0.14-1.66-0.18-2.49a2.39,2.39,0,0,1,.13-0.74,0.51,0.51,0,0,1,.56-0.4,1.1,1.1,0,0,1,.4.36,2,2,0,0,1,.24.72C80.7,102.45,80.78,103.53,80.87,104.54Z" transform="translate(6.22 -13.14)"/><path class="cls-5" d="M139.82,34.47c0,0.45,0,.9,0,1.35a0.62,0.62,0,0,1-.1.36,0.87,0.87,0,0,1-.43.34,0.61,0.61,0,0,1-.5-0.19,1.26,1.26,0,0,1-.29-0.69c0-1.16,0-2.32,0-3.47a0.72,0.72,0,0,1,.63-0.63,0.49,0.49,0,0,1,.47.24c0.06,0.45.14,0.89,0.16,1.34s0,0.9,0,1.35h0Z" transform="translate(6.22 -13.14)"/><path class="cls-5" d="M137.17,35.44c0,0.46,0,.91,0,1.35a0.76,0.76,0,0,1-.56.44,0.66,0.66,0,0,1-.55-0.45c0-.38-0.09-0.76-0.11-1.14-0.05-1-.1-2-0.14-3.06a0.7,0.7,0,0,1,.38-0.62,0.47,0.47,0,0,1,.75.25c0.08,0.57.16,1.14,0.21,1.71S137.16,35,137.17,35.44Z" transform="translate(6.22 -13.14)"/><path class="cls-5" d="M136.69,83.51a0.66,0.66,0,0,1,.44-0.57,0.55,0.55,0,0,1,.69.13,31.16,31.16,0,0,1,2.2,4.08,1.49,1.49,0,0,1,0,.75,0.5,0.5,0,0,1-.64.23,1.62,1.62,0,0,1-.65-0.69q-1-1.78-2-3.56a0.54,0.54,0,0,1-.06-0.18A1.06,1.06,0,0,1,136.69,83.51Z" transform="translate(6.22 -13.14)"/><path class="cls-5" d="M137.8,88.12a1.76,1.76,0,0,1-.36.4,0.72,0.72,0,0,1-.72-0.13,1.1,1.1,0,0,1-.12-0.14q-0.88-1.72-1.76-3.44a0.64,0.64,0,0,1,.43-0.91,0.48,0.48,0,0,1,.54.07,0.63,0.63,0,0,1,.13.13c0.6,1.14,1.2,2.27,1.78,3.42A2,2,0,0,1,137.8,88.12Z" transform="translate(6.22 -13.14)"/><path class="cls-5" d="M55.08,107.2a0.76,0.76,0,0,1-.5.74,0.6,0.6,0,0,1-.66-0.23,1,1,0,0,1-.11-0.16c-0.3-1.31-.61-2.62-0.89-3.93a0.73,0.73,0,0,1,.25-0.69,0.46,0.46,0,0,1,.66,0,5.9,5.9,0,0,1,.29.71c0.31,1,.62,2.09.92,3.13A2.4,2.4,0,0,1,55.08,107.2Z" transform="translate(6.22 -13.14)"/><path class="cls-5" d="M57.61,107.16a2.59,2.59,0,0,1-.29.44,0.6,0.6,0,0,1-.7-0.1,3.17,3.17,0,0,1-.47-0.82c-0.17-.55-0.26-1.12-0.38-1.69s-0.25-1.26-.37-1.89a0.77,0.77,0,0,1,.49-0.75,0.42,0.42,0,0,1,.5.12,5,5,0,0,1,.29.71c0.31,1.25.61,2.5,0.91,3.74A1.65,1.65,0,0,1,57.61,107.16Z" transform="translate(6.22 -13.14)"/><path class="cls-5" d="M98.44,101.83a1,1,0,0,1,.28.25,3.06,3.06,0,0,1,.28.72c0.27,1.25.53,2.51,0.78,3.76a0.63,0.63,0,0,1-.56.67,0.77,0.77,0,0,1-.79-0.41c-0.08-.44-0.11-0.89-0.2-1.33-0.18-.88-0.39-1.75-0.57-2.63a0.93,0.93,0,0,1,.43-1A0.27,0.27,0,0,1,98.44,101.83Z" transform="translate(6.22 -13.14)"/><path class="cls-5" d="M102.18,106.51a2,2,0,0,1-.33.42,0.66,0.66,0,0,1-.71-0.11,1.7,1.7,0,0,1-.29-0.48q-0.44-1.67-.84-3.34a0.94,0.94,0,0,1,.28-0.87,0.49,0.49,0,0,1,.79.11,7.13,7.13,0,0,1,.26.72q0.4,1.48.78,3A4.35,4.35,0,0,1,102.18,106.51Z" transform="translate(6.22 -13.14)"/><path class="cls-5" d="M139.13,22.42c0-.05,0,0.07,0,0.2a0.73,0.73,0,0,1-.51.52,0.61,0.61,0,0,1-.58-0.39,2.51,2.51,0,0,1-.09-0.37c-0.1-1.48-.21-3-0.29-4.43a0.65,0.65,0,0,1,.41-0.6,0.51,0.51,0,0,1,.77.28,3.17,3.17,0,0,1,.08.38C139,19.42,139,20.83,139.13,22.42Z" transform="translate(6.22 -13.14)"/><path class="cls-5" d="M141.56,20.16c0,0.62,0,1.07-.06,1.52a0.62,0.62,0,0,1-.11.36,0.86,0.86,0,0,1-.46.31,0.67,0.67,0,0,1-.47-0.27,1,1,0,0,1-.16-0.55c0-1.1-.08-2.19-0.09-3.29a0.76,0.76,0,0,1,.38-0.63,0.53,0.53,0,0,1,.8.21,3.37,3.37,0,0,1,.12.56C141.54,19,141.55,19.68,141.56,20.16Z" transform="translate(6.22 -13.14)"/><path class="cls-5" d="M124.38,101.29a1.12,1.12,0,0,1-.21.3,0.72,0.72,0,0,1-1.12-.28c-0.37-1.09-.74-2.18-1.09-3.28a0.88,0.88,0,0,1,.18-0.89,0.49,0.49,0,0,1,.8,0,26.06,26.06,0,0,1,1.45,4A0.71,0.71,0,0,1,124.38,101.29Z" transform="translate(6.22 -13.14)"/><path class="cls-5" d="M125.39,96.58a0.41,0.41,0,0,1,.18,0,1.11,1.11,0,0,1,.23.31,19,19,0,0,1,1.1,3.89,0.58,0.58,0,0,1-.37.6,0.87,0.87,0,0,1-.71-0.22l-0.1-.16a1,1,0,0,1-.08-0.18c-0.32-1.11-.66-2.22-1-3.34a0.8,0.8,0,0,1,.35-0.84A1.09,1.09,0,0,1,125.39,96.58Z" transform="translate(6.22 -13.14)"/><path class="cls-5" d="M158.19,68.13c0,0.51,0,1-.05,1.54a1.05,1.05,0,0,1-.05.18,0.93,0.93,0,0,1-.56.48,0.68,0.68,0,0,1-.54-0.47,1.81,1.81,0,0,1-.05-0.38,21.18,21.18,0,0,0,0-3.84,0.74,0.74,0,0,1,.55-0.7,0.47,0.47,0,0,1,.5.16,2.16,2.16,0,0,1,.18.54c0.06,0.83.09,1.66,0.14,2.49h-0.08Z" transform="translate(6.22 -13.14)"/><path class="cls-5" d="M160.66,67.87c-0.06.91-.11,1.68-0.17,2.45a0.64,0.64,0,0,1-.56.44,0.79,0.79,0,0,1-.57-0.45,0.92,0.92,0,0,1,0-.19c0.05-1.41.11-2.83,0.17-4.24a0.94,0.94,0,0,1,.16-0.34,0.7,0.7,0,0,1,.67-0.26,0.4,0.4,0,0,1,.3.42C160.66,66.47,160.66,67.24,160.66,67.87Z" transform="translate(6.22 -13.14)"/><path class="cls-5" d="M106.93,94.83a0.58,0.58,0,0,1-.8.61,0.75,0.75,0,0,1-.36-0.4c-0.15-.62-0.27-1.26-0.36-1.89s-0.2-1.53-.26-2.3a0.81,0.81,0,0,1,.49-0.77,0.37,0.37,0,0,1,.5.1,4.15,4.15,0,0,1,.18.54q0.31,1.8.6,3.61A3,3,0,0,1,106.93,94.83Z" transform="translate(6.22 -13.14)"/><path class="cls-5" d="M108.6,91.86a1.23,1.23,0,0,1,.41-1.14,0.43,0.43,0,0,1,.64.16,6.23,6.23,0,0,1,.16.75c0.13,1.09.25,2.17,0.37,3.26a0.62,0.62,0,0,1-.45.55,0.61,0.61,0,0,1-.66-0.28,1.87,1.87,0,0,1-.2-0.53C108.76,93.61,108.67,92.58,108.6,91.86Z" transform="translate(6.22 -13.14)"/><path class="cls-5" d="M-1.53,105.52L-1.81,103c0-.19-0.05-0.38-0.06-0.57a0.91,0.91,0,0,1,.58-0.71,0.61,0.61,0,0,1,.61.6c0.1,1.34.2,2.68,0.27,4a0.62,0.62,0,0,1-1,.53,0.45,0.45,0,0,1-.25-0.26c0-.38,0-0.76,0-1.15h0.07Z" transform="translate(6.22 -13.14)"/><path class="cls-5" d="M1,104.51c0-.57,0-1.15,0-1.72a1.43,1.43,0,0,1,.34-0.66,0.4,0.4,0,0,1,.64.11,1,1,0,0,1,.08.17c0.12,1.27.25,2.54,0.35,3.8a0.64,0.64,0,0,1-.94.59,0.63,0.63,0,0,1-.36-0.39c-0.06-.63-0.06-1.27-0.08-1.9H1Z" transform="translate(6.22 -13.14)"/><path class="cls-5" d="M22.82,90.32c0,0.19,0,.39,0,0.58A1.12,1.12,0,0,1,22.15,92a0.32,0.32,0,0,1-.45-0.18,19.69,19.69,0,0,1-.17-4.41,0.29,0.29,0,0,1,.05-0.18A1,1,0,0,1,22,86.85a0.66,0.66,0,0,1,.46.26,1,1,0,0,1,.2.52c0.07,0.89.12,1.79,0.18,2.69h0Z" transform="translate(6.22 -13.14)"/><path class="cls-5" d="M24.93,89.64c0,0.29,0,.55,0,0.81a1,1,0,0,1-.5.78,0.45,0.45,0,0,1-.63-0.2,12.12,12.12,0,0,1-.13-3.85A0.38,0.38,0,0,1,23.74,87a2.07,2.07,0,0,1,.38-0.41,0.64,0.64,0,0,1,.6.4c0,0.31.09,0.63,0.11,0.95C24.87,88.51,24.9,89.09,24.93,89.64Z" transform="translate(6.22 -13.14)"/><path class="cls-5" d="M87.95,91.3c-0.2,1.27-.37,2.48-0.57,3.68a0.78,0.78,0,0,1-.68.59,0.52,0.52,0,0,1-.58-0.36,1.58,1.58,0,0,1,0-.38c0.17-1.21.35-2.41,0.54-3.62a1.7,1.7,0,0,1,.48-1,0.44,0.44,0,0,1,.64.08,1.12,1.12,0,0,1,.16.34C87.94,90.84,87.94,91.1,87.95,91.3Z" transform="translate(6.22 -13.14)"/><path class="cls-5" d="M88.24,95.4a3.16,3.16,0,0,1,0-.68c0.28-.92.58-1.84,0.88-2.75a1.23,1.23,0,0,1,.23-0.3,0.47,0.47,0,0,1,.52,0,1,1,0,0,1,.24.29,1.36,1.36,0,0,1,.1.56,11.12,11.12,0,0,1-1,3.29,0.65,0.65,0,0,1-.14.13,0.57,0.57,0,0,1-.54,0,0.87,0.87,0,0,1-.23-0.28A0.77,0.77,0,0,1,88.24,95.4Z" transform="translate(6.22 -13.14)"/><path class="cls-5" d="M114.46,29.07c0-.1.05-0.29,0.09-0.47a0.67,0.67,0,0,1,.55-0.43,0.9,0.9,0,0,1,.36.42c0.2,1,.36,2,0.53,3,0.07,0.38.15,0.75,0.21,1.13a0.54,0.54,0,0,1-.45.53,0.51,0.51,0,0,1-.5-0.19,1.21,1.21,0,0,1-.2-0.32A16.6,16.6,0,0,1,114.46,29.07Z" transform="translate(6.22 -13.14)"/><path class="cls-5" d="M1.71,17.39a1,1,0,0,1,.32.18,1.65,1.65,0,0,1,.27.5q0.55,1.65,1.07,3.3a1.9,1.9,0,0,1,0,.38,0.57,0.57,0,0,1-.46.53,1.59,1.59,0,0,1-.52-0.15A0.23,0.23,0,0,1,2.31,22c-0.37-1.29-.75-2.59-1.1-3.89a0.61,0.61,0,0,1,.32-0.65A0.91,0.91,0,0,1,1.71,17.39Z" transform="translate(6.22 -13.14)"/><path class="cls-5" d="M4.46,16.82a0.45,0.45,0,0,1,.17.07,1.3,1.3,0,0,1,.34.43c0.37,1.28.72,2.57,1.06,3.86a0.54,0.54,0,0,1-.38.58A0.67,0.67,0,0,1,5,21.55a4,4,0,0,1-.3-0.7c-0.26-1-.51-2-0.75-3A0.92,0.92,0,0,1,4.14,17,1.27,1.27,0,0,1,4.46,16.82Z" transform="translate(6.22 -13.14)"/><path class="cls-5" d="M138.64,50.37c0,0.58,0,1.16-.06,1.74a1.18,1.18,0,0,1-.12.56A1.1,1.1,0,0,1,138,53a0.55,0.55,0,0,1-.46-0.27,2.55,2.55,0,0,1-.16-0.54,24.53,24.53,0,0,1,.16-3.86,1.81,1.81,0,0,1,.05-0.19,0.71,0.71,0,0,1,.62-0.38,0.47,0.47,0,0,1,.46.5c0,0.71,0,1.42-.07,2.13h0Z" transform="translate(6.22 -13.14)"/><path class="cls-5" d="M91.86,44.17c0-.64,0-1.28.08-1.92a2.3,2.3,0,0,1,.22-0.72,0.59,0.59,0,0,1,.28-0.23,0.38,0.38,0,0,1,.47.2,0.89,0.89,0,0,1,.24.5c0,1.28-.13,2.56-0.2,3.83a0.76,0.76,0,0,1-.42.6,0.82,0.82,0,0,1-.54.09,0.41,0.41,0,0,1-.28-0.44c0-.64,0-1.28.07-1.92h0.09Z" transform="translate(6.22 -13.14)"/><path class="cls-5" d="M100.22,58.23a1.77,1.77,0,0,1-.4.29,0.44,0.44,0,0,1-.53-0.1,0.8,0.8,0,0,1-.22-0.3c-0.24-1.26-.47-2.52-0.68-3.78a0.94,0.94,0,0,1,.35-0.85,0.39,0.39,0,0,1,.51,0,1.66,1.66,0,0,1,.29.49c0.26,1.32.5,2.64,0.75,4A0.83,0.83,0,0,1,100.22,58.23Z" transform="translate(6.22 -13.14)"/><path class="cls-5" d="M101.22,53a1,1,0,0,1,.31.2,1.27,1.27,0,0,1,.25.5c0.21,1.19.41,2.38,0.6,3.57a0.61,0.61,0,0,1-.54.66,0.6,0.6,0,0,1-.64-0.29,1.56,1.56,0,0,1-.14-0.35c-0.15-1.13-.29-2.27-0.42-3.4a0.78,0.78,0,0,1,.4-0.8Z" transform="translate(6.22 -13.14)"/><path class="cls-5" d="M21.15,62.69c0-.58,0-1.15,0-1.72a2,2,0,0,1,.26-0.7A0.7,0.7,0,0,1,22,59.92a1,1,0,0,1,.49.55,1.16,1.16,0,0,1,0,.19c-0.06,1.15-.13,2.3-0.2,3.45a0.92,0.92,0,0,1-.47.79,1,1,0,0,1-.52.13A0.39,0.39,0,0,1,21,64.61c0-.64,0-1.28.06-1.92h0Z" transform="translate(6.22 -13.14)"/><path class="cls-5" d="M24.86,62.35c-0.07.8-.08,1.38-0.17,2a1.39,1.39,0,0,1-.36.66,0.64,0.64,0,0,1-.5.21,1,1,0,0,1-.38-0.39,0.38,0.38,0,0,1,0-.18,12.32,12.32,0,0,1,.3-3.25,1,1,0,0,1,.08-0.17,0.6,0.6,0,0,1,.62-0.32,0.79,0.79,0,0,1,.39.39A8.74,8.74,0,0,1,24.86,62.35Z" transform="translate(6.22 -13.14)"/><path class="cls-5" d="M122.68,80.64a0.86,0.86,0,0,1,.3-0.84,0.45,0.45,0,0,1,.66.1,1.12,1.12,0,0,1,.16.34,35.92,35.92,0,0,1,.17,5.37,0.65,0.65,0,0,1-.52.5,0.67,0.67,0,0,1-.73-0.47c0-.13,0-0.26,0-0.38Z" transform="translate(6.22 -13.14)"/><path class="cls-5" d="M126.5,83c0,0.64,0,1.28-.07,1.92a0.48,0.48,0,0,1-.37.39,0.62,0.62,0,0,1-.65-0.29,1.45,1.45,0,0,1-.17-0.54q0-1.73.11-3.46a1,1,0,0,1,.2-0.53,0.7,0.7,0,0,1,.45-0.3,0.6,0.6,0,0,1,.41.33,1.84,1.84,0,0,1,.15.74c0,0.58,0,1.16-.05,1.74h0Z" transform="translate(6.22 -13.14)"/><path class="cls-5" d="M77,33.88a2.17,2.17,0,0,1,.63.46A16.6,16.6,0,0,1,79,37.55a0.92,0.92,0,0,1-.61,1.06,0.59,0.59,0,0,1-.35-0.07,0.25,0.25,0,0,1-.13-0.13c-0.47-1.13-.95-2.26-1.38-3.4a1.21,1.21,0,0,1,.06-0.74A1.37,1.37,0,0,1,77,33.88Z" transform="translate(6.22 -13.14)"/><path class="cls-5" d="M80.86,37.1a0.91,0.91,0,0,1-.54.8A0.39,0.39,0,0,1,80,37.85a1,1,0,0,1-.32-0.46c-0.28-1-.54-2.09-0.79-3.14a0.74,0.74,0,0,1,.05-0.37,0.58,0.58,0,0,1,.33-0.43,0.68,0.68,0,0,1,.66.27,0.8,0.8,0,0,1,.12.14q0.43,1.56.84,3.13A0.23,0.23,0,0,1,80.86,37.1Z" transform="translate(6.22 -13.14)"/><path class="cls-5" d="M107.52,48.49a0.67,0.67,0,0,1-.05-1.13,20.8,20.8,0,0,0,2.75-2.09,0.8,0.8,0,0,1,.73-0.08,0.49,0.49,0,0,1,.28.76,2.1,2.1,0,0,1-.23.3,13.57,13.57,0,0,0-1.91,1.89,1.57,1.57,0,0,1-1.21.49A1,1,0,0,1,107.52,48.49Z" transform="translate(6.22 -13.14)"/><path class="cls-5" d="M111.7,49c-0.07.06-.16,0.15-0.26,0.23a12.8,12.8,0,0,0-2.18,1.84,0.57,0.57,0,0,1-.7-0.08,0.78,0.78,0,0,1-.11-1.18,11.09,11.09,0,0,1,2.29-1.7,1.65,1.65,0,0,1,.74-0.12,0.39,0.39,0,0,1,.43.3,1.6,1.6,0,0,1-.09.53A0.6,0.6,0,0,1,111.7,49Z" transform="translate(6.22 -13.14)"/><path class="cls-5" d="M12.69,72.55c0,1-.06,1.94-0.1,2.9a0.52,0.52,0,0,1-.53.45,0.72,0.72,0,0,1-.59-0.42,2.19,2.19,0,0,1-.06-0.38q0.12-2.71.26-5.42A0.86,0.86,0,0,1,12,69a0.58,0.58,0,0,1,.53-0.16,0.4,0.4,0,0,1,.32.42c0,1.1-.07,2.19-0.1,3.29h0Z" transform="translate(6.22 -13.14)"/><path class="cls-5" d="M10.67,71.65c0,0.58,0,1.15-.06,1.73a0.67,0.67,0,0,1-1.13.47,0.45,0.45,0,0,1-.18-0.31c0.26-1.13.25-2.29,0.43-3.42a0.87,0.87,0,0,1,.61-0.68,0.37,0.37,0,0,1,.32.13,1.21,1.21,0,0,1,.15.55c0,0.51,0,1,0,1.54h-0.1Z" transform="translate(6.22 -13.14)"/><path class="cls-5" d="M159.5,91.25c-0.08.83-.14,1.66-0.24,2.49a0.49,0.49,0,0,1-.39.37,0.52,0.52,0,0,1-.71-0.42c0.09-1.28.19-2.55,0.29-3.83a5.73,5.73,0,0,1,.15-0.95,1.38,1.38,0,0,1,.28-0.49,0.65,0.65,0,0,1,.33-0.17,0.44,0.44,0,0,1,.41.32,2.8,2.8,0,0,1,.06.57c-0.06.7-.13,1.4-0.21,2.1h0Z" transform="translate(6.22 -13.14)"/><path class="cls-5" d="M162.61,90.22a14.74,14.74,0,0,1-.51,3.45,0.48,0.48,0,0,1-.21.3,1.14,1.14,0,0,1-.54.08,0.45,0.45,0,0,1-.27-0.23,0.62,0.62,0,0,1-.08-0.37c0.18-1.21.36-2.41,0.55-3.61a0.79,0.79,0,0,1,.51-0.54,0.4,0.4,0,0,1,.47.19C162.57,89.88,162.61,90.25,162.61,90.22Z" transform="translate(6.22 -13.14)"/><path class="cls-5" d="M135,50.14c0.06-.7.11-1.4,0.2-2.09a0.45,0.45,0,0,1,.38-0.37,0.52,0.52,0,0,1,.6.31,1.8,1.8,0,0,1,.07.37q0,1.82-.1,3.63a1.27,1.27,0,0,1-.12.36,0.61,0.61,0,0,1-.64.27,0.41,0.41,0,0,1-.37-0.37c0-.7,0-1.4.06-2.1H135Z" transform="translate(6.22 -13.14)"/><path class="cls-5" d="M5.12,85.12c-0.08.75-.14,1.39-0.23,2a1.18,1.18,0,0,1-.52.78,0.41,0.41,0,0,1-.6-0.23,2.68,2.68,0,0,1-.11-0.56,3.32,3.32,0,0,1,.07-0.76,9.56,9.56,0,0,0,.21-2.29,1.56,1.56,0,0,1,.17-0.73,0.62,0.62,0,0,1,.46-0.28,0.82,0.82,0,0,1,.46.29,0.53,0.53,0,0,1,.14.34C5.16,84.21,5.14,84.72,5.12,85.12Z" transform="translate(6.22 -13.14)"/><path class="cls-5" d="M1.09,85.76c0-.43.06-0.94,0.13-1.44a1.87,1.87,0,0,1,.22-0.72,0.59,0.59,0,0,1,.45-0.26,0.7,0.7,0,0,1,.43.34,1.06,1.06,0,0,1,.09.56c-0.05.89-.12,1.78-0.19,2.67A1.29,1.29,0,0,1,1.5,88a0.46,0.46,0,0,1-.34,0,0.41,0.41,0,0,1-.24-0.25,6.75,6.75,0,0,1,0-.94C1,86.47,1,86.16,1.09,85.76Z" transform="translate(6.22 -13.14)"/><path class="cls-5" d="M75.62,81.35c0-.51.07-1,0.13-1.53a0.54,0.54,0,0,1,.77-0.29,0.79,0.79,0,0,1,.48.77c-0.09,1-.17,2-0.31,3.07a1.73,1.73,0,0,1-.37.65,0.31,0.31,0,0,1-.48,0,4.1,4.1,0,0,1-.25-0.92c0-.58,0-1.15,0-1.73h0Z" transform="translate(6.22 -13.14)"/><path class="cls-5" d="M79.07,82.71c0,0.46,0,.9-0.06,1.34a1.22,1.22,0,0,1-.21.52,0.44,0.44,0,0,1-.31.17,0.46,0.46,0,0,1-.31-0.16A0.81,0.81,0,0,1,78,84.24a20.16,20.16,0,0,1-.29-4,1.34,1.34,0,0,1,.11-0.36,0.38,0.38,0,0,1,.48-0.15,0.81,0.81,0,0,1,.58.69C79,81.19,79,81.95,79.07,82.71Z" transform="translate(6.22 -13.14)"/><path class="cls-5" d="M151.09,23.82c-0.07.7-.13,1.4-0.21,2.1a1.77,1.77,0,0,1-.14.55,0.48,0.48,0,0,1-.43.32,0.63,0.63,0,0,1-.57-0.4,7.48,7.48,0,0,1,0-1.14,13.07,13.07,0,0,0,.15-3.62,0.8,0.8,0,0,1,.64-0.62,0.54,0.54,0,0,1,.6.35q0.06,0.76.08,1.52c0,0.32,0,.64,0,1h0Z" transform="translate(6.22 -13.14)"/><path class="cls-5" d="M153.94,24.09c-0.09.7-.17,1.39-0.27,2.09a0.57,0.57,0,0,1-.61.33,0.52,0.52,0,0,1-.4-0.37,1.33,1.33,0,0,1-.1-0.56c0.09-1.15.19-2.3,0.29-3.44a0.79,0.79,0,0,1,.66-0.61,0.49,0.49,0,0,1,.45.27,4,4,0,0,1,.11.75C154.05,23.06,154,23.57,153.94,24.09Z" transform="translate(6.22 -13.14)"/><path class="cls-5" d="M85.78,54.18a5.14,5.14,0,0,1-.35.54,0.51,0.51,0,0,1-.8-0.12,4.19,4.19,0,0,1-.19-0.74Q84.3,52.44,84.21,51a2.44,2.44,0,0,1,.09-0.56,0.47,0.47,0,0,1,.4-0.35,1.53,1.53,0,0,1,.5.22,0.5,0.5,0,0,1,.2.31C85.53,51.83,85.65,53,85.78,54.18Z" transform="translate(6.22 -13.14)"/><path class="cls-5" d="M81.45,51.75c0.06-.36.09-0.49,0.11-0.61A0.55,0.55,0,0,1,82,50.61a0.91,0.91,0,0,1,.62.41,0.55,0.55,0,0,1,.1.16c0.17,0.88.35,1.76,0.5,2.65a0.81,0.81,0,0,1-.73.76,0.74,0.74,0,0,1-.34-0.12A0.31,0.31,0,0,1,82,54.34,9.57,9.57,0,0,1,81.45,51.75Z" transform="translate(6.22 -13.14)"/><path class="cls-5" d="M125,43.64c0.1-.13.24-0.33,0.41-0.51a0.41,0.41,0,0,1,.51.07,2.15,2.15,0,0,1,.23.53c0.09,0.57.18,1.15,0.22,1.72a11.59,11.59,0,0,0,.27,2.3,1,1,0,0,1,0,.57,0.47,0.47,0,0,1-.41.36,0.46,0.46,0,0,1-.51-0.18,2.06,2.06,0,0,1-.29-0.71C125.22,46.44,125.11,45.09,125,43.64Z" transform="translate(6.22 -13.14)"/><path class="cls-5" d="M122.91,43.7a1.48,1.48,0,0,1,.36.21,0.79,0.79,0,0,1,.18.34,23.6,23.6,0,0,1,.63,3.82,1.33,1.33,0,0,1,0,.19,0.52,0.52,0,0,1-.55.43,1.4,1.4,0,0,1-.47-0.27,0.29,0.29,0,0,1-.07-0.18c-0.19-1.21-.38-2.42-0.55-3.64a1,1,0,0,1,.11-0.56A1.51,1.51,0,0,1,122.91,43.7Z" transform="translate(6.22 -13.14)"/><path class="cls-5" d="M49.81,61.42a32.94,32.94,0,0,1-1,3.48,0.31,0.31,0,0,1-.1.16,0.9,0.9,0,0,1-.48.2,0.59,0.59,0,0,1-.35-0.4,2.33,2.33,0,0,1,0-.94c0.2-.8.45-1.59,0.68-2.39a3.29,3.29,0,0,1,.22-0.73,0.61,0.61,0,0,1,.46-0.27,0.68,0.68,0,0,1,.45.31A1.68,1.68,0,0,1,49.81,61.42Z" transform="translate(6.22 -13.14)"/><path class="cls-5" d="M46,64.11l0.17-.84,0.5-2.45A0.37,0.37,0,0,1,47,60.46a0.71,0.71,0,0,1,.63.36,0.88,0.88,0,0,1,.11.55c-0.22,1.07-.46,2.13-0.7,3.19a1.14,1.14,0,0,1-.22.31,0.45,0.45,0,0,1-.5.17,1.12,1.12,0,0,1-.25-0.27A0.4,0.4,0,0,1,46,64.59C46,64.47,46,64.34,46,64.11Z" transform="translate(6.22 -13.14)"/><path class="cls-5" d="M128.92,27.52a0.4,0.4,0,0,1-.36.37,1.41,1.41,0,0,1-.5-0.19,0.6,0.6,0,0,1-.19-0.32,32.45,32.45,0,0,1-.67-4.16,0.79,0.79,0,0,1,.32-0.66,0.43,0.43,0,0,1,.65.07,1.38,1.38,0,0,1,.09.16,27.22,27.22,0,0,1,.67,4.54A0.79,0.79,0,0,1,128.92,27.52Z" transform="translate(6.22 -13.14)"/><path class="cls-5" d="M125.78,27.13a2.11,2.11,0,0,1-.4.38,0.56,0.56,0,0,1-.69-0.1,1.05,1.05,0,0,1-.2-0.32c-0.18-.94-0.35-1.87-0.51-2.81a0.92,0.92,0,0,1,.31-0.86,0.47,0.47,0,0,1,.31-0.17,0.71,0.71,0,0,1,.44.31C125.35,24.73,125.6,25.91,125.78,27.13Z" transform="translate(6.22 -13.14)"/><path class="cls-5" d="M72.84,19.68a3.16,3.16,0,0,1,.25-0.47A0.43,0.43,0,0,1,73.4,19a1.48,1.48,0,0,1,.46.26,0.28,0.28,0,0,1,.09.16A26.8,26.8,0,0,0,75,23.1a1.79,1.79,0,0,1,.05.38,0.59,0.59,0,0,1-.41.58,0.62,0.62,0,0,1-.81-0.29q-0.52-1.74-1-3.48A3.1,3.1,0,0,1,72.84,19.68Z" transform="translate(6.22 -13.14)"/><path class="cls-5" d="M77.58,22.65a1.74,1.74,0,0,1-.34.42,0.62,0.62,0,0,1-.69-0.17,10.53,10.53,0,0,1-1-3.09,1.19,1.19,0,0,1,.25-0.7,0.48,0.48,0,0,1,.8,0,2.39,2.39,0,0,1,.17.34c0.24,0.8.48,1.59,0.71,2.39A6,6,0,0,1,77.58,22.65Z" transform="translate(6.22 -13.14)"/><path class="cls-5" d="M64.84,41.5a1,1,0,0,1-.61.78,0.36,0.36,0,0,1-.33-0.07,2.37,2.37,0,0,1-.29-0.69,20.4,20.4,0,0,0-.47-2.43,0.9,0.9,0,0,1,0-.56,1.21,1.21,0,0,1,.33-0.44,0.58,0.58,0,0,1,.67.18,1.35,1.35,0,0,1,.29.48c0.15,0.81.27,1.63,0.39,2.45A1.19,1.19,0,0,1,64.84,41.5Z" transform="translate(6.22 -13.14)"/><path class="cls-5" d="M67,40.88a4,4,0,0,1,0,.74,1,1,0,0,1-.32.45,0.41,0.41,0,0,1-.52,0,0.93,0.93,0,0,1-.21-0.32q-0.27-1.61-.5-3.23a0.65,0.65,0,0,1,.1-0.37,0.79,0.79,0,0,1,.25-0.27,0.41,0.41,0,0,1,.53.08,1.4,1.4,0,0,1,.39.64C66.8,39.27,66.87,40,67,40.88Z" transform="translate(6.22 -13.14)"/><path class="cls-5" d="M113.07,33a0.56,0.56,0,0,1-.5.62,0.82,0.82,0,0,1-.5-0.21,0.89,0.89,0,0,1-.22-0.52c-0.09-1-.17-2-0.23-3.07a0.71,0.71,0,0,1,.5-0.74,0.4,0.4,0,0,1,.34.09,0.61,0.61,0,0,1,.14.35q0.25,1.62.47,3.24A0.79,0.79,0,0,1,113.07,33Z" transform="translate(6.22 -13.14)"/><path class="cls-5" d="M-1.56,53.73a1.29,1.29,0,0,1-.34.36,0.7,0.7,0,0,1-.84-0.26q-0.8-1.62-1.58-3.25a0.79,0.79,0,0,1,.09-0.73A0.75,0.75,0,0,1-4,49.59a0.43,0.43,0,0,1,.49.18c0.63,1.18,1.25,2.35,1.87,3.54A1.48,1.48,0,0,1-1.56,53.73Z" transform="translate(6.22 -13.14)"/><path class="cls-5" d="M-5.56,50.18l0.33,0.18a0.28,0.28,0,0,1,.13.14,6.32,6.32,0,0,0,1.46,2.66,0.64,0.64,0,0,1,.11.36,0.52,0.52,0,0,1-.18.51,0.69,0.69,0,0,1-.71.06,1.78,1.78,0,0,1-.28-0.25,10.84,10.84,0,0,1-1.46-2.68,0.76,0.76,0,0,1,.26-0.86A1,1,0,0,1-5.56,50.18Z" transform="translate(6.22 -13.14)"/><path class="cls-5" d="M96.77,79.55a0.42,0.42,0,0,1,.19,0,1.57,1.57,0,0,1,.54.5A31.65,31.65,0,0,0,99,83.59a0.82,0.82,0,0,1-.55,1.06,1,1,0,0,1-.52-0.11,0.32,0.32,0,0,1-.11-0.15,19.73,19.73,0,0,1-1.46-3.52,1.21,1.21,0,0,1,.16-1.09A1.29,1.29,0,0,1,96.77,79.55Z" transform="translate(6.22 -13.14)"/><path class="cls-5" d="M98.48,80.5c0.06-.13.12-0.31,0.2-0.48a0.5,0.5,0,0,1,.81-0.06,2.44,2.44,0,0,1,.24.3q0.52,0.93,1,1.86a0.69,0.69,0,0,1-.35,1A0.57,0.57,0,0,1,99.56,83c-0.37-.68-0.72-1.37-1.06-2.06A1.27,1.27,0,0,1,98.48,80.5Z" transform="translate(6.22 -13.14)"/><path class="cls-5" d="M107.48,64.34a0.85,0.85,0,0,1,.33.15,1.24,1.24,0,0,1,.25.51,27.7,27.7,0,0,0,.84,3.57,0.6,0.6,0,0,1-.47.72,0.77,0.77,0,0,1-.82-0.35,26.41,26.41,0,0,1-.8-3.78A0.84,0.84,0,0,1,107.48,64.34Z" transform="translate(6.22 -13.14)"/><path class="cls-5" d="M111,68.38c0,0.57-.25.79-0.51,0.77a0.8,0.8,0,0,1-.64-0.34,1,1,0,0,1-.14-0.35c-0.19-.93-0.39-1.87-0.55-2.8a0.78,0.78,0,0,1,.44-0.78,0.46,0.46,0,0,1,.64.15,6.78,6.78,0,0,1,.23.72c0.18,0.81.35,1.61,0.51,2.42C111,68.35,111,68.54,111,68.38Z" transform="translate(6.22 -13.14)"/><path class="cls-5" d="M32.85,64.29a2,2,0,0,1,.64.43c0.51,0.82,1,1.66,1.43,2.5a0.77,0.77,0,0,1-.43.95,0.72,0.72,0,0,1-.36,0A0.26,0.26,0,0,1,34,68c-0.53-.88-1.08-1.75-1.57-2.64a1.08,1.08,0,0,1,0-.74A1.22,1.22,0,0,1,32.85,64.29Z" transform="translate(6.22 -13.14)"/><path class="cls-5" d="M34.79,63.61a1.47,1.47,0,0,1,.49.17,2,2,0,0,1,.49.58c0.4,0.73.77,1.46,1.15,2.2a0.65,0.65,0,0,1-.3.81,0.82,0.82,0,0,1-.53,0,0.49,0.49,0,0,1-.27-0.25c-0.45-.84-0.9-1.68-1.31-2.54a1.43,1.43,0,0,1,0-.74A0.8,0.8,0,0,1,34.79,63.61Z" transform="translate(6.22 -13.14)"/><path class="cls-5" d="M34.8,77.93a1.15,1.15,0,0,1-.54,1.25c-0.5.3-.83,0.12-0.86-0.5s0-1-.06-1.53a7.75,7.75,0,0,1,0-1,2.79,2.79,0,0,1,.21-0.72,0.44,0.44,0,0,1,.65-0.12,1.5,1.5,0,0,1,.39.63C34.68,76.73,34.75,77.49,34.8,77.93Z" transform="translate(6.22 -13.14)"/><path class="cls-5" d="M37.22,77.11c-0.05.61-.09,1.19-0.15,1.76a0.73,0.73,0,0,1-.46.56,0.43,0.43,0,0,1-.6-0.23,3.21,3.21,0,0,1-.09-0.56c0-.89,0-1.79.08-2.68a3.11,3.11,0,0,1,.31-0.88A0.53,0.53,0,0,1,36.8,75a0.74,0.74,0,0,1,.39.62C37.22,76.13,37.21,76.64,37.22,77.11Z" transform="translate(6.22 -13.14)"/><path class="cls-5" d="M58.68,52.17a10.85,10.85,0,0,1-.84,2.9,2,2,0,0,1-.5.56,0.33,0.33,0,0,1-.46-0.18,1,1,0,0,1-.09-0.36A5.92,5.92,0,0,1,57,54.15a14.79,14.79,0,0,0,.59-2.41,0.61,0.61,0,0,1,.53-0.46,0.85,0.85,0,0,1,.54.49C58.65,51.89,58.66,52,58.68,52.17Z" transform="translate(6.22 -13.14)"/><path class="cls-5" d="M54.65,54.17c0-.27.09-0.59,0.15-0.9,0.15-.74.31-1.48,0.49-2.22a0.35,0.35,0,0,1,.3-0.14,0.81,0.81,0,0,1,.72.75,4.59,4.59,0,0,1-.06.95c-0.15.68-.34,1.35-0.55,2a1.34,1.34,0,0,1-.38.4,0.4,0.4,0,0,1-.6-0.24C54.69,54.59,54.67,54.4,54.65,54.17Z" transform="translate(6.22 -13.14)"/><path class="cls-5" d="M63.16,100.73a0.74,0.74,0,0,1,0-.32q0.45-1.37.93-2.73A4.18,4.18,0,0,1,64.48,97a0.91,0.91,0,0,1,1-.47,0.83,0.83,0,0,1,.16.89c-0.41,1.21-.86,2.42-1.3,3.62a0.64,0.64,0,0,1-.61.38A0.58,0.58,0,0,1,63.16,100.73Z" transform="translate(6.22 -13.14)"/><path class="cls-5" d="M66,100.82a0.49,0.49,0,0,1,0-.19,10.92,10.92,0,0,1,1.3-2.76,0.3,0.3,0,0,1,.14-0.12A1.49,1.49,0,0,1,68,97.61a0.39,0.39,0,0,1,.32.41,1.41,1.41,0,0,1,0,.57,8.63,8.63,0,0,1-1.11,2.23,0.74,0.74,0,0,1-.86.24A1.23,1.23,0,0,1,66,100.82Z" transform="translate(6.22 -13.14)"/><path class="cls-5" d="M103.89,19.15a0.65,0.65,0,0,1-.86.51,0.8,0.8,0,0,1-.29-0.24c-0.45-.92-0.89-1.85-1.32-2.78a1.07,1.07,0,0,1-.07-0.56,1.36,1.36,0,0,1,.22-0.51,0.39,0.39,0,0,1,.64,0c0.14,0.28.25,0.59,0.4,0.87,0.3,0.56.62,1.12,0.94,1.68A2.82,2.82,0,0,1,103.89,19.15Z" transform="translate(6.22 -13.14)"/><path class="cls-5" d="M104.8,15.23a0.41,0.41,0,0,1,.18.07,2.28,2.28,0,0,1,.32.48c0.35,0.83.69,1.67,1,2.5a0.6,0.6,0,0,1-.14.7,0.8,0.8,0,0,1-.88-0.12,1.54,1.54,0,0,1-.22-0.31c-0.31-.78-0.63-1.55-0.91-2.34a0.79,0.79,0,0,1,.3-0.86A1,1,0,0,1,104.8,15.23Z" transform="translate(6.22 -13.14)"/><path class="cls-5" d="M112.4,76.53a13.43,13.43,0,0,1,.32,1.45c0.1,0.83.14,1.66,0.19,2.49a1.81,1.81,0,0,1-.06.38,0.55,0.55,0,0,1-.58.4,0.54,0.54,0,0,1-.43-0.33,0.41,0.41,0,0,1-.08-0.17c-0.09-1.21-.18-2.43-0.25-3.65a0.61,0.61,0,0,1,.15-0.34,0.69,0.69,0,0,1,.29-0.24A1.48,1.48,0,0,1,112.4,76.53Z" transform="translate(6.22 -13.14)"/><path class="cls-5" d="M115,79.79c0-.08,0,0.06,0,0.16a0.48,0.48,0,0,1-.26.25,0.72,0.72,0,0,1-.53,0,1.05,1.05,0,0,1-.37-0.63c0-.89,0-1.78,0-2.67a0.77,0.77,0,0,1,.42-0.6,0.39,0.39,0,0,1,.49.1,1.56,1.56,0,0,1,.12.36C114.85,77.68,114.9,78.63,115,79.79Z" transform="translate(6.22 -13.14)"/><path class="cls-5" d="M48.05,78.69c0,0.66,0,1.11-.06,1.55a1,1,0,0,1-.51.75,0.44,0.44,0,0,1-.62-0.19,4.26,4.26,0,0,1-.1-0.75,12.32,12.32,0,0,0-.09-3,1.4,1.4,0,0,1,.2-0.71,0.48,0.48,0,0,1,.66-0.11,1.38,1.38,0,0,1,.4.62C48,77.5,48,78.21,48.05,78.69Z" transform="translate(6.22 -13.14)"/><path class="cls-5" d="M50.33,78.14c0,0.76,0,1.15-.06,1.52a0.86,0.86,0,0,1-.58.7,0.48,0.48,0,0,1-.48-0.17,1.21,1.21,0,0,1-.13-0.35c0-1-.06-1.91-0.06-2.86a0.76,0.76,0,0,1,.34-0.65,0.46,0.46,0,0,1,.34,0,0.85,0.85,0,0,1,.56.71A11.33,11.33,0,0,1,50.33,78.14Z" transform="translate(6.22 -13.14)"/><path class="cls-5" d="M19.65,41.07a1.68,1.68,0,0,1,.46.37,8.74,8.74,0,0,1,1.31,2.75,0.78,0.78,0,0,1-.16.72,0.45,0.45,0,0,1-.66.07,2,2,0,0,1-.24-0.29c-0.41-.8-0.81-1.59-1.19-2.4a1.28,1.28,0,0,1,0-1.11C19.25,41,19.34,41,19.65,41.07Z" transform="translate(6.22 -13.14)"/><path class="cls-5" d="M23.4,43.54a1.69,1.69,0,0,1-.37.33,0.42,0.42,0,0,1-.33-0.12,1.83,1.83,0,0,1-.37-0.44c-0.2-.33-0.37-0.67-0.54-1a10.56,10.56,0,0,1-.58-1.2,1.7,1.7,0,0,1,0-.74,0.45,0.45,0,0,1,.62-0.23,1.11,1.11,0,0,1,.31.21,7.76,7.76,0,0,1,1.28,2.76A2.27,2.27,0,0,1,23.4,43.54Z" transform="translate(6.22 -13.14)"/><path class="cls-5" d="M64.13,75.42a0.79,0.79,0,0,1-.75.65A0.58,0.58,0,0,1,63,75.71c-0.16-.68-0.29-1.38-0.39-2.07a10.44,10.44,0,0,1-.06-1.53,1,1,0,0,1,.2-0.52,0.38,0.38,0,0,1,.33-0.11,0.69,0.69,0,0,1,.54.49C63.81,73.1,64,74.24,64.13,75.42Z" transform="translate(6.22 -13.14)"/><path class="cls-5" d="M66.77,74.55a7.23,7.23,0,0,1-.16,1,1.05,1.05,0,0,1-.37.41,0.37,0.37,0,0,1-.61-0.14c-0.11-.83-0.23-1.65-0.31-2.48a1.54,1.54,0,0,1,.13-0.75,0.8,0.8,0,0,1,.44-0.33,0.41,0.41,0,0,1,.33.17,1.77,1.77,0,0,1,.37.65C66.69,73.62,66.72,74.14,66.77,74.55Z" transform="translate(6.22 -13.14)"/><path class="cls-5" d="M94.63,45.07c0-.51,0-1,0.06-1.52A1,1,0,0,1,94.9,43a0.48,0.48,0,0,1,.88,0,0.93,0.93,0,0,1,.13.54q-0.12,1.42-.3,2.84a0.65,0.65,0,0,1-.51.51,0.43,0.43,0,0,1-.47-0.2c0-.56-0.08-1.13-0.12-1.69h0.12Z" transform="translate(6.22 -13.14)"/><path class="cls-5" d="M59.2,86.57c0.06-.22.09-0.35,0.13-0.47a0.55,0.55,0,0,1,.79-0.2,0.9,0.9,0,0,1,.26.27c0.29,0.7.57,1.41,0.83,2.12a1,1,0,0,1-.65,1.23,0.44,0.44,0,0,1-.49-0.15A11.6,11.6,0,0,1,59.2,86.57Z" transform="translate(6.22 -13.14)"/><path class="cls-5" d="M61.93,85.48a1.12,1.12,0,0,1,.48.19A8.13,8.13,0,0,1,63.71,88,0.88,0.88,0,0,1,63,89a0.44,0.44,0,0,1-.35-0.09,6.67,6.67,0,0,1-1.17-2.59,0.93,0.93,0,0,1,.14-0.54A1.15,1.15,0,0,1,61.93,85.48Z" transform="translate(6.22 -13.14)"/><path class="cls-5" d="M3.43,37.71c-0.08.61-.16,1.37-0.27,2.13a0.52,0.52,0,0,1-.76.32,1,1,0,0,1-.26-0.26,0.27,0.27,0,0,1,0-.19,20.37,20.37,0,0,0,.06-4.6,0.8,0.8,0,0,1,.25-0.7,0.56,0.56,0,0,1,.31-0.19,0.72,0.72,0,0,1,.45.29,2.85,2.85,0,0,1,.21.93C3.43,36.14,3.42,36.85,3.43,37.71Z" transform="translate(6.22 -13.14)"/><path class="cls-5" d="M5.93,38.16a2.64,2.64,0,0,1-.06.44,0.59,0.59,0,0,1-.19.31,0.84,0.84,0,0,1-.54,0,0.68,0.68,0,0,1-.35-0.41q-0.21-1.31-.33-2.63a0.78,0.78,0,0,1,.2-0.51,0.84,0.84,0,0,1,.47-0.25,0.37,0.37,0,0,1,.4.33C5.7,36.4,5.83,37.4,5.93,38.16Z" transform="translate(6.22 -13.14)"/><path class="cls-5" d="M62.52,23.37a2.82,2.82,0,0,1,.1-0.55c0.36-1,.73-1.92,1.13-2.87a0.72,0.72,0,0,1,.45-0.31,0.77,0.77,0,0,1,.63.62,1.62,1.62,0,0,1-.1.56c-0.43.86-.87,1.72-1.32,2.57a0.61,0.61,0,0,1-.29.24,0.5,0.5,0,0,1-.35,0A0.91,0.91,0,0,1,62.52,23.37Z" transform="translate(6.22 -13.14)"/><path class="cls-5" d="M66,20.24a0.85,0.85,0,0,1,.62.69,5.77,5.77,0,0,1-.88,2.68,1.21,1.21,0,0,1-.45.34,0.43,0.43,0,0,1-.35,0,0.68,0.68,0,0,1-.19-0.3,0.29,0.29,0,0,1,0-.19c0.28-1,.56-2,0.87-2.92A1,1,0,0,1,66,20.24Z" transform="translate(6.22 -13.14)"/><path class="cls-5" d="M64,66a0.7,0.7,0,0,1-.35-0.07,15.24,15.24,0,0,1-2.23-3.59,1.29,1.29,0,0,1,0-.38,0.32,0.32,0,0,1,.34-0.35,1.43,1.43,0,0,1,.68.3c0.66,1,1.28,1.93,1.88,2.92a1,1,0,0,1-.14,1.08A0.48,0.48,0,0,1,64,66Z" transform="translate(6.22 -13.14)"/><path class="cls-5" d="M66.23,64c-0.05.11-.1,0.23-0.16,0.34a0.43,0.43,0,0,1-.64.13,9.91,9.91,0,0,1-1.6-2.56,1.87,1.87,0,0,1-.06-0.37,0.43,0.43,0,0,1,.44-0.48,0.89,0.89,0,0,1,.68.27,9.71,9.71,0,0,1,1.31,2.3A1.22,1.22,0,0,1,66.23,64Z" transform="translate(6.22 -13.14)"/><path class="cls-5" d="M23,73l0.37-.07a0.39,0.39,0,0,1,.39.33,1.29,1.29,0,0,1-.07.55,8,8,0,0,1-.66.94c-0.51.66-1,1.3-1.55,2a0.89,0.89,0,0,1-1,.27,0.39,0.39,0,0,1-.3-0.41,17.64,17.64,0,0,1,2.69-3.48A0.8,0.8,0,0,1,23,73Z" transform="translate(6.22 -13.14)"/><path class="cls-5" d="M22.12,78.29a4.29,4.29,0,0,1-.52,0,0.43,0.43,0,0,1-.35-0.54,1.16,1.16,0,0,1,.15-0.34c0.57-.6,1.14-1.2,1.72-1.77a2.49,2.49,0,0,1,.64-0.41,0.39,0.39,0,0,1,.35,0,1.11,1.11,0,0,1,.26.47,0.48,0.48,0,0,1-.09.36A11.46,11.46,0,0,1,22.12,78.29Z" transform="translate(6.22 -13.14)"/><path class="cls-5" d="M75.12,68.48c0-.86,0-1.37.07-1.88a0.37,0.37,0,0,1,.38-0.34,1,1,0,0,1,.35.12,0.88,0.88,0,0,1,.38.64c0.08,0.83.16,1.66,0.21,2.49a0.93,0.93,0,0,1-.48.78A0.48,0.48,0,0,1,75.26,70C75.19,69.4,75.14,68.76,75.12,68.48Z" transform="translate(6.22 -13.14)"/><path class="cls-5" d="M78.65,67.7c0,0.75,0,1.13-.06,1.51a0.75,0.75,0,0,1-.46.57,0.46,0.46,0,0,1-.63-0.2,8.09,8.09,0,0,1,.1-3.4A0.42,0.42,0,0,1,78.07,66a0.91,0.91,0,0,1,.55.73C78.65,67.18,78.65,67.63,78.65,67.7Z" transform="translate(6.22 -13.14)"/><path class="cls-5" d="M85.23,23.78c-0.07.47-.14,1-0.25,1.6a1.29,1.29,0,0,1-.63.91,0.47,0.47,0,0,1-.34,0,0.49,0.49,0,0,1-.25-0.24,0.6,0.6,0,0,1-.06-0.37,22.42,22.42,0,0,0,.37-3.21,1.75,1.75,0,0,1,.13-0.35A0.4,0.4,0,0,1,84.66,22a0.8,0.8,0,0,1,.48.55C85.19,22.93,85.2,23.31,85.23,23.78Z" transform="translate(6.22 -13.14)"/><path class="cls-5" d="M85.88,24.16c0-.23.11-0.85,0.21-1.47a0.37,0.37,0,0,1,.6-0.15A1,1,0,0,1,87,23a8.3,8.3,0,0,1-.11,2.83,1.41,1.41,0,0,1-.3.47,0.5,0.5,0,0,1-.52.1,0.7,0.7,0,0,1-.2-0.29,4.93,4.93,0,0,1-.05-0.76C85.84,25.07,85.86,24.82,85.88,24.16Z" transform="translate(6.22 -13.14)"/><path class="cls-5" d="M49.24,38.32a8.94,8.94,0,0,1-.5,2.84,1.17,1.17,0,0,1-.34.45,0.41,0.41,0,0,1-.33.09,0.43,0.43,0,0,1-.26-0.24,1.33,1.33,0,0,1-.09-0.55c0.1-1.14.22-2.28,0.34-3.41a0.64,0.64,0,0,1,.15-0.34A0.42,0.42,0,0,1,48.52,37a0.74,0.74,0,0,1,.66.58C49.21,37.91,49.23,38.22,49.24,38.32Z" transform="translate(6.22 -13.14)"/><path class="cls-5" d="M49.59,40.18c0.11-.62.24-1.37,0.4-2.12a0.41,0.41,0,0,1,.39-0.35,0.74,0.74,0,0,1,.62.36,1.1,1.1,0,0,1,0,.18,6.09,6.09,0,0,1-.47,2.81,1.3,1.3,0,0,1-.4.38,0.37,0.37,0,0,1-.47-0.18,1.08,1.08,0,0,1-.07-0.18C49.61,40.84,49.6,40.58,49.59,40.18Z" transform="translate(6.22 -13.14)"/><path class="cls-5" d="M31.72,37.2a5.81,5.81,0,0,1-.43.5,0.41,0.41,0,0,1-.51-0.07,2.32,2.32,0,0,1-.23-0.3c-0.34-.76-0.67-1.52-1-2.29a1.68,1.68,0,0,1-.1-0.75,0.85,0.85,0,0,1,.27-0.47,0.4,0.4,0,0,1,.52,0,1.09,1.09,0,0,1,.42.38c0.36,0.82.68,1.65,1,2.48A1.9,1.9,0,0,1,31.72,37.2Z" transform="translate(6.22 -13.14)"/><path class="cls-5" d="M31.62,33.5l0.13-.41a0.49,0.49,0,0,1,.48-0.22,0.8,0.8,0,0,1,.57.48,9,9,0,0,1,.46,2.46,1.33,1.33,0,0,1-.13.55,0.62,0.62,0,0,1-.27.23,0.46,0.46,0,0,1-.5-0.17,1.3,1.3,0,0,1-.11-0.16A8,8,0,0,1,31.62,33.5Z" transform="translate(6.22 -13.14)"/><path class="cls-5" d="M36.12,51c-0.06.51-.11,1-0.2,1.53a0.72,0.72,0,0,1-.48.56A0.44,0.44,0,0,1,35,52.91a1.14,1.14,0,0,1-.1-0.37c0.09-1.09.19-2.18,0.29-3.27a0.43,0.43,0,0,1,.37-0.38,0.61,0.61,0,0,1,.62.35,1.54,1.54,0,0,1,.09.37c0,0.45,0,.9,0,1.35H36.12Z" transform="translate(6.22 -13.14)"/><path class="cls-5" d="M37.27,51.89c0.14-.74.29-1.55,0.46-2.35A2.15,2.15,0,0,1,38,49a0.36,0.36,0,0,1,.47-0.17,0.49,0.49,0,0,1,.34.41,12.16,12.16,0,0,1-.53,3.17,0.91,0.91,0,0,1-.1.16,0.43,0.43,0,0,1-.48.19,0.67,0.67,0,0,1-.25-0.26A4.1,4.1,0,0,1,37.27,51.89Z" transform="translate(6.22 -13.14)"/><path class="cls-5" d="M16.32,52.35a5.18,5.18,0,0,1-.61.45,0.57,0.57,0,0,1-.35-0.06,0.23,0.23,0,0,1-.17-0.3c0.26-1,.5-2,0.78-3A1.59,1.59,0,0,1,16.3,49a0.22,0.22,0,0,1,.34,0,0.73,0.73,0,0,1,.44.78C16.85,50.61,16.58,51.46,16.32,52.35Z" transform="translate(6.22 -13.14)"/><path class="cls-5" d="M17.68,51.46c0.19-.41.37-0.81,0.56-1.22a0.38,0.38,0,0,1,.48-0.19,0.67,0.67,0,0,1,.41.59A0.78,0.78,0,0,1,19,51c-0.36.75-.72,1.5-1.1,2.24a0.69,0.69,0,0,1-.65.33,0.42,0.42,0,0,1-.35-0.37,3,3,0,0,1,.11-0.56c0.17-.41.37-0.81,0.56-1.22Z" transform="translate(6.22 -13.14)"/><path class="cls-5" d="M4.59,60.84c0-.39.64-3.29,0.76-3.54a0.41,0.41,0,0,1,.47-0.23,0.71,0.71,0,0,1,.43.32,0.93,0.93,0,0,1,0,.56c-0.18.87-.37,1.75-0.59,2.62a1.15,1.15,0,0,1-.64.68,0.22,0.22,0,0,1-.18,0A1,1,0,0,1,4.61,61,0.42,0.42,0,0,1,4.59,60.84Z" transform="translate(6.22 -13.14)"/><path class="cls-5" d="M7.36,59c0.08-.6.14-1.1,0.21-1.6a0.74,0.74,0,0,1,.51-0.5,0.85,0.85,0,0,1,.62.63,1.19,1.19,0,0,1,0,.19c-0.08.75-.14,1.51-0.26,2.26a1.26,1.26,0,0,1-.38.63,0.76,0.76,0,0,1-.51.11,0.4,0.4,0,0,1-.16-0.3C7.37,59.87,7.37,59.37,7.36,59Z" transform="translate(6.22 -13.14)"/><path class="cls-5" d="M98.37,31.52a1,1,0,0,1-.68,1.14,0.44,0.44,0,0,1-.33-0.09,0.6,0.6,0,0,1-.22-0.3c-0.22-.87-0.46-1.74-0.62-2.63a2.2,2.2,0,0,1,.19-0.92,0.44,0.44,0,0,1,.65-0.13,1.16,1.16,0,0,1,.26.28A9.16,9.16,0,0,1,98.37,31.52Z" transform="translate(6.22 -13.14)"/><path class="cls-5" d="M100.87,31c-0.07.23-.12,0.48-0.21,0.72A0.59,0.59,0,0,1,100,32a0.82,0.82,0,0,1-.37-0.38,5.09,5.09,0,0,1-.21-2.28,0.94,0.94,0,0,1,.36-0.65,0.28,0.28,0,0,1,.35,0,0.83,0.83,0,0,1,.46.58C100.73,29.83,100.78,30.4,100.87,31Z" transform="translate(6.22 -13.14)"/><path class="cls-5" d="M16,22a0.67,0.67,0,0,1,.18,0,1.17,1.17,0,0,1,.73.58c0.43,0.86.87,1.72,1.29,2.59a1,1,0,0,1-.32,1.37,0.34,0.34,0,0,1-.5-0.08c-0.54-1-1.08-2-1.6-3.07a1.42,1.42,0,0,1,0-1.13A1,1,0,0,1,16,22Z" transform="translate(6.22 -13.14)"/><path class="cls-5" d="M18.58,21.51a1.5,1.5,0,0,1,.49.37c0.31,0.7.59,1.41,0.83,2.14a0.78,0.78,0,0,1-.17.52,0.52,0.52,0,0,1-.82,0,6,6,0,0,1-1-2.28,0.76,0.76,0,0,1,.17-0.53A1.3,1.3,0,0,1,18.58,21.51Z" transform="translate(6.22 -13.14)"/><path class="cls-5" d="M42.76,93.51c0-.25,0-0.44.07-0.63a21.79,21.79,0,0,0,.42-2.83,0.55,0.55,0,0,1,.47-0.52,0.79,0.79,0,0,1,.64.6c0,0.06,0,.13,0,0.19a25.33,25.33,0,0,1-.68,3.55,1,1,0,0,1-.42.36A0.4,0.4,0,0,1,42.83,94C42.81,93.82,42.78,93.64,42.76,93.51Z" transform="translate(6.22 -13.14)"/><path class="cls-5" d="M46.88,91.46c-0.14.67-.27,1.43-0.47,2.17a1.44,1.44,0,0,1-.47.58,0.55,0.55,0,0,1-.35,0,0.24,0.24,0,0,1-.11-0.12,0.32,0.32,0,0,1-.07-0.18c0.09-1,.18-2,0.3-3a0.71,0.71,0,0,1,.37-0.39,0.72,0.72,0,0,1,.73.5Z" transform="translate(6.22 -13.14)"/><path class="cls-5" d="M89.92,61.74a0.69,0.69,0,0,1,.55.9c-0.64,1-1.11,2-1.67,3a2.63,2.63,0,0,1-.38.42,0.33,0.33,0,0,1-.47-0.15,1.21,1.21,0,0,1-.1-0.93,11.4,11.4,0,0,1,1.62-3.06A1,1,0,0,1,89.92,61.74Z" transform="translate(6.22 -13.14)"/><path class="cls-5" d="M90.27,66.25a1.82,1.82,0,0,1,.1-0.49c0.3-.63.62-1.25,0.94-1.88A0.48,0.48,0,0,1,92,63.82a0.6,0.6,0,0,1,.32.64,5.54,5.54,0,0,1-1.38,2.46,0.4,0.4,0,0,1-.35,0,0.64,0.64,0,0,1-.23-0.26,0.49,0.49,0,0,1,0-.18C90.29,66.44,90.29,66.38,90.27,66.25Z" transform="translate(6.22 -13.14)"/><path class="cls-5" d="M43.74,26.45A1.11,1.11,0,0,1,43.43,26c0-1.08-.06-2.16-0.07-3.25a1,1,0,0,1,.14-0.35,0.43,0.43,0,0,1,.64-0.15,1.05,1.05,0,0,1,.35.43,7.78,7.78,0,0,1,.17,2.85A1.1,1.1,0,0,1,43.74,26.45Z" transform="translate(6.22 -13.14)"/><path class="cls-5" d="M47.16,24.18a3.07,3.07,0,0,1-.24,1.51,0.61,0.61,0,0,1-.47.25,0.54,0.54,0,0,1-.29-0.21,4.4,4.4,0,0,1-.05-3,0.42,0.42,0,0,1,.63-0.12,0.94,0.94,0,0,1,.34.43A10.11,10.11,0,0,1,47.16,24.18Z" transform="translate(6.22 -13.14)"/><path class="cls-5" d="M66.92,54.16c0.08-.61.15-1.19,0.24-1.75a0.68,0.68,0,0,1,.23-0.28,0.5,0.5,0,0,1,.52.14,1.27,1.27,0,0,1,.29.48,8.29,8.29,0,0,1-.07,2.89,0.9,0.9,0,0,1-.45.59A0.41,0.41,0,0,1,67.06,56C67,55.4,67,54.77,66.92,54.16Z" transform="translate(6.22 -13.14)"/><path class="cls-5" d="M70.12,53.58c0.07-.3.15-0.67,0.25-1a0.42,0.42,0,0,1,.64-0.1,2.3,2.3,0,0,1,0,2.79,0.44,0.44,0,0,1-.65-0.1,1.36,1.36,0,0,1-.15-0.34C70.18,54.41,70.16,54,70.12,53.58Z" transform="translate(6.22 -13.14)"/></g><path class="cls-6" d="M80.11,63.83a2.06,2.06,0,0,1,2.74.19c0.33,0.43.44,1.62,1,1.83,0.41,0.14.37-1.34,0.34-1.55a2.13,2.13,0,0,0-1.08-1.58,2.93,2.93,0,0,0-3.31.75A0.23,0.23,0,0,0,80.11,63.83Z" transform="translate(6.22 -13.14)"/><path class="cls-6" d="M51.55,101.86c-1.89,0-4-2.85-5-5.66L46.1,95.05l-0.5,1.12C44.8,98,43.76,99.1,42.88,99.1S41.26,98,40.79,97.15C37,90,38.16,80.41,40.52,73.77a0.55,0.55,0,0,1,.55-0.39,0.62,0.62,0,0,1,.49.22,0.45,0.45,0,0,1,0,.42,36,36,0,0,0-1.7,12.37c0,0.1,1.1,10.08,3.63,10.08h0c0.85,0,1.49-.93,2.1-3a0.33,0.33,0,0,1,.33-0.28,0.52,0.52,0,0,1,.24.06l0.13,0.07h0.16a0.6,0.6,0,0,1,.64.39,15.21,15.21,0,0,0,1.49,4.14L48.67,98,48.81,98a6.53,6.53,0,0,0,2.94,1,1.82,1.82,0,0,0,1.43-.58,3.52,3.52,0,0,0,.52-2.78,27.68,27.68,0,0,0,0-6.18A30.89,30.89,0,0,0,51,80.93c-0.42-1-.86-2.05-1.25-3.1l-0.11-.3-0.32,0c-0.67,0-1.34-.09-2-0.11A0.27,0.27,0,0,1,47,77.1a0.33,0.33,0,0,1,.33-0.35l1.06-.07a27.78,27.78,0,0,0,8.85-1.5,14.29,14.29,0,0,0,2.94-1.8,16.75,16.75,0,0,1,2.26-1.47A26.64,26.64,0,0,1,70,69.55a25.57,25.57,0,0,1,4.22-.36A21.17,21.17,0,0,1,86.7,73v0.1a33.19,33.19,0,0,0-12.54-2.7,22.53,22.53,0,0,0-10.88,2.71c-0.89.48-1.75,1.07-2.59,1.63A17.27,17.27,0,0,1,56,77.3a11.41,11.41,0,0,1-3.2.39c-0.63,0-1.27,0-1.91-.07l-0.83-.05,0.33,0.76c0.37,0.84.75,1.66,1.13,2.48,1.53,3.29,3,6.39,3.37,10.07,0.22,2,.73,6.76-0.83,9.17C53.28,101.25,52.43,101.86,51.55,101.86Z" transform="translate(6.22 -13.14)"/><path class="cls-6" d="M103.51,87.92a0.19,0.19,0,0,1-.13,0q-0.61-.58-1.22-1.17l0.53-.06,0.43,0.46,0.35-.53,0,0h0s0.06,0,.07.08l0.1,1.17A0.18,0.18,0,0,1,103.51,87.92ZM102,86.55c-1.2-1.19-2.37-2.42-3.51-3.62-1.48-1.56-3-3.15-4.58-4.67a101.71,101.71,0,0,1,8.23,7.82l0.8-.59c-2.37-4.21-5.36-7.25-8.51-10.46-1-1-2-2-3-3.08A10.94,10.94,0,0,1,89,67a20,20,0,0,0-1.52-4c-2.74-5.15-9-7.87-18.07-7.87a66.8,66.8,0,0,0-16.92,2.46h0a0.13,0.13,0,0,1-.16-0.12,0.19,0.19,0,0,1,.13-0.24c1.19-.44,2.46-0.84,3.89-1.22l1-.27-0.87-.62c-5.83-4.18-13.46-7-20.2-9.49L34.41,45c-4.58-1.71-11.4-3.74-17.87-3.74a25.07,25.07,0,0,0-6.15.71l-0.47.12L10,42.54c0.88,4,4.86,6.35,11.83,7.06h0.34l1,0a4.5,4.5,0,0,1,1.74.17l0.25,0.14a1.72,1.72,0,0,1,.61.44A3.6,3.6,0,0,1,26.64,52c0.17,0.81.38,1.39,2.46,3,1.82,1.39,2.49,1.63,3.21,1.63h0.52a4.25,4.25,0,0,1,1.57.35,1.26,1.26,0,0,1,.59.58,4.73,4.73,0,0,0,.4.52,4.09,4.09,0,0,1,1.24,2.31c0.21,1.07.51,1.82,2.83,3.31a17.09,17.09,0,0,0,6.68,2L47.9,66a0.32,0.32,0,0,1,.25.4,0.43,0.43,0,0,1-.38.43c-3.55-.09-8.57-0.63-11.41-4.25a6.41,6.41,0,0,1-.75-1.38,7,7,0,0,0-.84-1.53c-1-1.27-1.41-1.54-2.28-1.54H32.05A7.46,7.46,0,0,1,30.41,58a6.17,6.17,0,0,1-3.35-1.71,7,7,0,0,1-1.12-2.71,5.16,5.16,0,0,0-1.22-2.68c-1.05-.84-3.12-1.1-5.31-1.38a17.42,17.42,0,0,1-4-.79c-3.36-1.46-5.07-3.32-5.54-6l-0.1-.57-0.55.18A17.39,17.39,0,0,0,7.3,43a0.64,0.64,0,0,1-.27.06,0.66,0.66,0,0,1-.6-0.49,0.41,0.41,0,0,1,.25-0.5,21.18,21.18,0,0,1,10.16-2.25A49.12,49.12,0,0,1,31.69,42.5C39.3,45,50.25,49,57.36,55.4l0.19,0.3,0.35-.05a43,43,0,0,1,8.83-1l0.93,0H68.3c1.43,0,2.73.07,4,.16l0.32,0c4.2,0.31,9,.65,12.51,3.16,3,2.11,3.83,4.76,4.8,7.83,0.3,0.94.6,1.91,1,2.91,1.3,3.38,3.83,6.1,6.29,8.72,2.29,2.45,4.66,5,6,8.05a0.13,0.13,0,0,1,0,.17l0,0h0l0,0ZM67.13,53.83c-2.29-3.16-5.68-5.75-9-8.25-1.59-1.22-3.1-2.37-4.46-3.56A119.79,119.79,0,0,1,42.33,30.91c-0.29-.32-0.72-1-1.17-1.65-1.43-2.13-2.52-3.66-3.52-3.94A7.33,7.33,0,0,0,35.71,25a1.56,1.56,0,0,0-1.61.83c-0.77,1.75,2.57,5.59,3.61,6.73A19.29,19.29,0,0,0,39.19,34a11.53,11.53,0,0,1,2,2.12,18.94,18.94,0,0,1,1.34,4.52A9.19,9.19,0,0,0,43,42.23a0.51,0.51,0,0,1,0,.52,0.61,0.61,0,0,1-.5.28,0.51,0.51,0,0,1-.43-0.26,16.42,16.42,0,0,1-1.62-3.53,12.89,12.89,0,0,0-2.39-4.49l-0.17-.19a28.63,28.63,0,0,1-5.42-7.69c-0.72-1.69-.83-3.14-0.3-4a2.59,2.59,0,0,1,2.24-1h0.15c2.07,0,3.61,1.84,5,3.46l0.35,0.42c2.9,3.43,6.31,7.39,10.07,11,1.88,1.83,4,3.56,6.28,5.4,4.39,3.57,8.93,7.26,11.54,11.66a0.21,0.21,0,0,1,0,.17l-0.14.57Z" transform="translate(6.22 -13.14)"/></svg>