<svg id="WW_SecondaryIcons_FlowersLeaves_CMYK" xmlns="http://www.w3.org/2000/svg" viewBox="0 0 57.99 131.62"><defs><style>.cls-1{fill:#69b94c;}.cls-2{fill:#644130;}.cls-3{fill:#e8247f;fill-rule:evenodd;}</style></defs><title>Icons_FlowersLeaves_1</title><path class="cls-1" d="M221,315.61c3.89,8.45,15.21,16.93,27.3,14.93-2.63-16.36-16.9-12.21-27.3-14.93" transform="translate(-219.96 -262.32)"/><path class="cls-1" d="M270,332.26l0.71,0.31c-1.34,1.88-3.37,5.82-9.4,7.54-4.19,1.2-10,.07-12.55-2.73,0.35-.32,1.24-1.58,1.63-1.87,2.45-1.85,6.2-4.17,9.4-4.59A19.5,19.5,0,0,1,270,332.26Z" transform="translate(-219.96 -262.32)"/><path class="cls-2" d="M251.69,393.93c-4.31-39.49-3.09-97.39-3.08-98l0.93,0c0,0.58-1.24,58.41,3.07,97.83Z" transform="translate(-219.96 -262.32)"/><path class="cls-3" d="M277.94,289.59c-0.52.14-1,.26-1.55,0.41s-0.82.33-1.24,0.41c-0.78.15-1.58,0.23-2.37,0.36a10.73,10.73,0,0,0-1.1.26l-2.34.65c0.24,0.18.53,0.38,0.79,0.61a1.67,1.67,0,0,1,.82,1.84,0.68,0.68,0,0,1-.85.59c-1.44-.13-2.88-0.3-4.32-0.46l-0.3-.06c0.52,0.63,1,1.16,1.42,1.75a14,14,0,0,1,1,1.77,1,1,0,0,1-1,1.43,5.41,5.41,0,0,0-.8,0c0.13,0.64.25,1.27,0.4,1.9,0.09,0.35.28,0.68,0.33,1a1.39,1.39,0,0,1-.08,1,1.54,1.54,0,0,1-1.17.18c-0.92-.28-1.79-0.68-2.69-1a7.84,7.84,0,0,1-3.08-2.38c-1.59-1.86-3.18-3.71-4.71-5.61a16.34,16.34,0,0,1-2.39-4.22,3.18,3.18,0,0,1-.31-0.69,2,2,0,0,1,.07-1.07,1.28,1.28,0,0,1,.82-0.23,9.54,9.54,0,0,0,1-.09,1.15,1.15,0,0,1-.65-1.43,1,1,0,0,1,.49-0.5c0.56-.25,1.14-0.45,1.71-0.67v-0.21a2.48,2.48,0,0,0-.7-0.23,0.73,0.73,0,0,1-.79-0.52,1,1,0,0,1,.24-1.11c0.15-.12.28-0.25,0.42-0.38l0-.14a3.63,3.63,0,0,1-.9,0,0.9,0.9,0,0,1-.6-0.43,0.76,0.76,0,0,1,.36-0.61c1.1-.61,2.23-1.15,3.33-1.75a2.56,2.56,0,0,0,.79-0.73c-1.25.47-2.49,1-3.75,1.41a4.28,4.28,0,0,1-1.38.23,2.13,2.13,0,0,1-.78-0.44,3.6,3.6,0,0,0-.33.69,0.88,0.88,0,0,1-.94.86,1,1,0,0,1-.72-1.34,5.09,5.09,0,0,0,.14-2.73c0-.94-0.24-1.88-0.27-2.82a7.57,7.57,0,0,0-1.1-3.34,1.47,1.47,0,0,0-.58-0.31,22.81,22.81,0,0,0-.3,4,1.1,1.1,0,0,1-.39.83,0.75,0.75,0,0,1-1.17-.65c-0.07-.67-0.1-1.35-0.23-2a14,14,0,0,0-1.33-4.52,15.63,15.63,0,0,1-.85-1.88,1.62,1.62,0,0,0-1.37-.8,9.74,9.74,0,0,0-1-.14,14.87,14.87,0,0,0-.47,2.19,11.31,11.31,0,0,0,1.61,6.59,4.22,4.22,0,0,0,1.84,1.41,9.13,9.13,0,0,1,2.86,2.64,0.74,0.74,0,0,1,.15.45,14.79,14.79,0,0,1-.29,1.93,0.86,0.86,0,0,1-.56.51,0.71,0.71,0,0,1-.54-0.4,3.21,3.21,0,0,0-1.48-1.29,10.08,10.08,0,0,0-2-.92,3.61,3.61,0,0,0-.69-0.13c0.63,1,1.17,1.91,1.73,2.8a0.61,0.61,0,0,0,.22.15,0.88,0.88,0,0,1,.43,1.15,0.94,0.94,0,0,1-1.08.62c-2.88-.32-5.16-1.85-7.34-3.59a6.36,6.36,0,0,1-2.51-3.42,7.1,7.1,0,0,0-.68-1.11,8.38,8.38,0,0,1-.58-1.55,0.51,0.51,0,0,1,.65-0.68c0.7,0.09,1.4.2,2.1,0.34s1.63,0.33,2.44.53c0.61,0.15,1.21.35,1.8,0.55s1.14,0.43,1.72.64c0.16,0.06.34,0.09,0.64,0.17a6.45,6.45,0,0,0-.6-1.13,6.17,6.17,0,0,1-1.1-2.79,10.89,10.89,0,0,1,.25-5.93c0.09-.28.2-0.55,0.32-0.81a1,1,0,0,1,1.31-.55,0.57,0.57,0,0,0,.48,0,2.22,2.22,0,0,1,2.9-.16A11.63,11.63,0,0,1,248,267a21.32,21.32,0,0,1,4.15,8.65,9.66,9.66,0,0,1,.28,2,20,20,0,0,1-.14,2.12,18.16,18.16,0,0,0,7.16-9.07c-0.33.12-.55,0.18-0.75,0.27l-1.64.76a1,1,0,0,1-1.46-.44,0.83,0.83,0,0,0-.34-0.41,1.67,1.67,0,0,0-1,.24,2.38,2.38,0,0,0-.84,1.48c-0.09.68-.34,0.85-0.87,0.76a0.91,0.91,0,0,1-.7-1,8.41,8.41,0,0,1,1.47-3.88,16.8,16.8,0,0,1,3.82-3.57,8.09,8.09,0,0,1,3.16-1.37c0.71-.13,1.42-0.29,2.13-0.44a0.54,0.54,0,0,0,.16-0.12h2.42a1.39,1.39,0,0,1,.09,1.47c-0.59,1.25-1.09,2.55-1.62,3.83a1.1,1.1,0,0,0,0,.37,8.33,8.33,0,0,1,3.42-1.18c0.87-.09,1.74-0.19,2.6-0.26a0.62,0.62,0,0,1,.73.74,2.62,2.62,0,0,1-.07.76,22.38,22.38,0,0,1-.84,2.11,19,19,0,0,1-3.05,4.9,20.61,20.61,0,0,1-4.91,3.68l-2.27,1.3a2,2,0,0,0,.39,0,21.84,21.84,0,0,1,9-1,19.41,19.41,0,0,1,3.55.78c1.33,0.42,2.61,1,3.89,1.52a0.6,0.6,0,0,1,.34.42,1.11,1.11,0,0,1-.35.58,2,2,0,0,1-.49.21c-1.37.71-2.72,1.44-4.09,2.14-0.5.26-1,.46-1.48,0.65,1,0.09,1.95.13,2.92,0.31a12.66,12.66,0,0,1,2,.69,4.86,4.86,0,0,1,1,.41c0.73,0.47,1.44,1,2.15,1.48v0.77ZM268,269.3a8.81,8.81,0,0,0-4.88,2.18,2.48,2.48,0,0,0-.84,1.57,3.12,3.12,0,0,1-.72,2c-0.3.44-.68,0.83-1.08,1.31,1.77-.62,3.69-0.64,4.9-2.26C266.43,272.69,267.75,271.36,268,269.3Zm2.2,12.47c-2.13-1.25-10.6-.21-11.92,1.42C262.36,284.08,266.15,282.46,270.15,281.76Zm-28.75-.49,0.14-.17a18,18,0,0,0-3.17-3.86,3.83,3.83,0,0,0-2.1-1,0.76,0.76,0,0,0-.54.15,0.53,0.53,0,0,0,0,.49,4.05,4.05,0,0,0,.88,1.16C238.21,279.18,239.81,280.21,241.4,281.27Z" transform="translate(-219.96 -262.32)"/><path class="cls-3" d="M222,285c1-.63,2.08-1.27,3.12-1.89a8.84,8.84,0,0,1,6.31-1c0.61,0.11,1.25,0,1.84.19,1.49,0.36,3,.72,4.45,1.22a18.47,18.47,0,0,0,4.51,1.17,1.29,1.29,0,0,0,.27,0,0.61,0.61,0,0,1,.8.64,6.52,6.52,0,0,1-.13,1.36,0.34,0.34,0,0,0,.3.5,1,1,0,0,1,.38,1.7,1.7,1.7,0,0,0-.27,1.53c0.52-.36,1-0.65,1.4-1a4.1,4.1,0,0,0,.43-0.42,0.94,0.94,0,0,1,1.29-.29,2,2,0,0,1,.93,0,2.52,2.52,0,0,1,.6.83,0.84,0.84,0,0,0,.15-0.2c0.23-.78.85-0.94,1.45-0.15,1.29,1.72,2.59,3.42,3.84,5.17a13,13,0,0,1,1,1.93c0.48,1,1,2,1.42,3s0.82,2.06,1.21,3.1,0.74,1.89,1,2.86a12.21,12.21,0,0,1,.4,2.19c0.12,1.1.21,2.22,0.22,3.33,0,1.65-.55,1.77-2.22,1.49-0.32-.05-0.63-0.15-1-0.24-0.06.31-.13,0.56-0.16,0.83-0.16,1.31-.31,2.62-0.49,3.93a1.52,1.52,0,0,1-.25.47h-1a9.47,9.47,0,0,1-1.17-.65c-0.43-.32-0.79-0.73-1.2-1.07a21.31,21.31,0,0,1-2-1.64,20.52,20.52,0,0,1-3.77-5.59,23.23,23.23,0,0,1-1.75-4.8,20.06,20.06,0,0,1-.24-2.91c0-.57,0-1.15,0-1.77a0.74,0.74,0,0,0-.16.1,2.06,2.06,0,0,0-.12.25,11.92,11.92,0,0,1-3.49,5,16,16,0,0,1-7.56,3.46,0.89,0.89,0,0,1-1.2-1c0-1.1.16-2.2,0.25-3.32l-0.34.06c-0.83.12-1,0-1-.88a9.63,9.63,0,0,1,.73-3.55,17.47,17.47,0,0,1,1.84-3.61,13.26,13.26,0,0,1,3.09-3.48c0.48-.36.89-0.82,1.45-1.33a3.06,3.06,0,0,0-.43,0c-1.89.59-3.77,1.24-5.68,1.76a8.38,8.38,0,0,1-4,.39c-0.53-.12-1.05-0.26-1.59-0.33a4.53,4.53,0,0,1-2.41-.92,1,1,0,0,1,0-1.6c0.63-.54,1.23-1.12,1.85-1.7a0.7,0.7,0,0,0-.14-0.15,5.14,5.14,0,0,1-2.32-1.91,1.15,1.15,0,0,0-.38-0.29V285Zm21.55,9a0.52,0.52,0,0,0-.64-0.56,2.46,2.46,0,0,0-1.12.69c-0.59.87-1.06,1.82-1.57,2.74-0.2.35-.36,0.72-0.59,1-0.52.75-1,1.52-1.6,2.21-0.76.9-1.61,1.72-2.39,2.6-0.51.57-1,1.16-1.45,1.77a1.67,1.67,0,0,0-.11.7,2.66,2.66,0,0,0,.7-0.06,12.71,12.71,0,0,0,4.89-3.8,17.62,17.62,0,0,0,2.85-4.71C242.93,295.77,243.24,294.87,243.58,294Zm5-.41a3.53,3.53,0,0,0,.14.44c0.55,1.07,1.13,2.12,1.64,3.21,0.64,1.37,1.22,2.76,1.81,4.15a12.39,12.39,0,0,1,1.19,4.84,4.05,4.05,0,0,0,.46,1.7,0.39,0.39,0,0,0,.77-0.11,7.22,7.22,0,0,0,.18-2.15,17.23,17.23,0,0,0-1.74-4.63c-0.66-1.56-1.38-3.09-2-4.66A6.59,6.59,0,0,0,248.62,293.59Z" transform="translate(-219.96 -262.32)"/><path class="cls-2" d="M270,327.21c0.25-.41-4.46.46-4.75,0.52a34.72,34.72,0,0,0-5.84,1.78c-3.7,1.46-7.82,3.92-10.41,7.34,2,2.75,8.38,5,12.45.84a55.17,55.17,0,0,0,4.73-5.77C267.32,330.37,269,328.81,270,327.21Zm-7.45,7.88a13,13,0,0,1-6.73,4c-2.8.42-4.58-.95-6.39-2.21,2.46-1.9,5.35-4.69,8.11-5.81s5.38-1,8.11-2.1c0.74-.3,1.48-0.63,2.21-0.92C266,330.42,264.44,332.82,262.51,335.08Z" transform="translate(-219.96 -262.32)"/><path class="cls-2" d="M270.65,285.54a19.46,19.46,0,0,0-2.66-.13,44.51,44.51,0,0,0,6-2.4,1.33,1.33,0,0,0,.45-0.71,0.45,0.45,0,0,0,0-.27,0.87,0.87,0,0,0-.54-0.68l-0.8-.36c-1-.44-2-0.89-3-1.24a19.31,19.31,0,0,0-3.51-.87,17.73,17.73,0,0,0-1.85-.17,22.07,22.07,0,0,0-5.5.52c0.14-.08.28-0.16,0.43-0.22A16,16,0,0,0,269,267.91a1,1,0,0,0-.36-1,0.86,0.86,0,0,0-.53-0.24,13.38,13.38,0,0,0-5.82,1.14l0.49-1.1c0.42-.93.76-1.43,1.22-2.35s0.33-1.81-.27-2a12.61,12.61,0,0,0-4.91.34,13.74,13.74,0,0,0-7.08,4.91,25.11,25.11,0,0,0-1.82,3.54,17.87,17.87,0,0,0-2.89-5.12l-0.08-.1a11.45,11.45,0,0,0-2.75-2.69c-2-1.26-3-.21-3.32.06h-0.08a1.55,1.55,0,0,0-1.87.71c-0.13.26-.24,0.54-0.35,0.81a10.9,10.9,0,0,0-.41,5.95l0,0.12a6.2,6.2,0,0,0,1.05,2.49c0.08,0.12.43,0.76,0.51,0.92-0.18-.07-0.67-0.33-0.85-0.4-0.34-.14-0.65-0.33-1-0.46-0.56-.21-1.16-0.44-1.78-0.61s-1.44-.39-2.41-0.61c-0.63-.14-1.7-0.5-2.46-0.63a0.93,0.93,0,0,0-.85.13,0.86,0.86,0,0,0-.25,1,7,7,0,0,0,.56,1.51,15.55,15.55,0,0,0,3.49,4.9,14,14,0,0,0,6.1,3.66h0a14.8,14.8,0,0,1-4-1l-0.2-.08c-1.38-.53-2.82-0.93-4.22-1.32l-0.16,0a12.11,12.11,0,0,0-8.27.52,17.94,17.94,0,0,0-2.14,1.18,4.88,4.88,0,0,0-1.32,1.26,1.24,1.24,0,0,0,.19.75,5.46,5.46,0,0,0,2.86,2.11,4.87,4.87,0,0,0-2,1.23,1.67,1.67,0,0,0-.51,1.2,1.5,1.5,0,0,0,.5,1,5.61,5.61,0,0,0,2.62,1.19,16.27,16.27,0,0,0,5.72-.11,36.48,36.48,0,0,0,4-1.23c0.48-.15,1.27-0.36,1.45-0.41-0.13.11-1.31,0.87-1.44,1a11.59,11.59,0,0,0-3.08,3.15,17.36,17.36,0,0,0-2,3.53,11.63,11.63,0,0,0-.84,3.1,2,2,0,0,0,.17,1.46,0.91,0.91,0,0,0,.92.3s0.53-.17.56-0.17a9.58,9.58,0,0,0-.66,2.81,2.18,2.18,0,0,0,.36,1.31,1.58,1.58,0,0,0,1.53.31,14.23,14.23,0,0,0,7.57-3.3,18.71,18.71,0,0,0,3.39-4.78,24.89,24.89,0,0,0,.11,4.1,21.26,21.26,0,0,0,1.22,4.6l0.08,0.19a20.24,20.24,0,0,0,3.57,5.68c0.37,0.42,2.8,2.6,3.06,2.81a5.11,5.11,0,0,0,.81.5,2.67,2.67,0,0,0,1.59.27l0.26,0h0a0.91,0.91,0,0,0,.54-0.66c0.12-.81.25-1.61,0.37-2.42,0.07-.48.09-1.06,0.16-1.53,0-.13-0.06-0.42.54-0.17a3.29,3.29,0,0,0,1.16.19,2.41,2.41,0,0,0,1.32-.39,1.84,1.84,0,0,0,.42-1.49c0-1.19-.07-2.38-0.13-3.29a12.48,12.48,0,0,0-.34-2.21c-0.2-.76-0.47-1.51-0.73-2.24l-0.4-1.13c-0.29-.84-0.64-1.72-1-2.56s-0.77-2-1.1-2.92c0,0-.61-1.75-0.77-2.42l0.16,0.22c0.1,0.14.24,0.32,0.35,0.46,1.31,1.73,2.56,3.41,3.89,5.07L257,299a8.09,8.09,0,0,0,3.05,2.53l0.81,0.36c0.59,0.27,1.21.54,1.83,0.76a1.81,1.81,0,0,0,1.37-.16,0.28,0.28,0,0,0,.1-0.05,1.06,1.06,0,0,0,.12-0.1,0.92,0.92,0,0,0,.35-1,10.53,10.53,0,0,0-1.15-3l0.91,0.29a1,1,0,0,0,1.07-.08,1.18,1.18,0,0,0,.32-0.41,1.57,1.57,0,0,0-.13-1.34,13.29,13.29,0,0,0-.92-1.79,6.37,6.37,0,0,0-1.28-1.32l1.87,0.43c1,0.16,1.19.21,2.24,0.34a1.35,1.35,0,0,0,1.36-.5,1.24,1.24,0,0,0,.19-0.39c0.31-1.06-1.53-2.22-1.6-2.28,0.54-.13,1.11-0.24,1.64-0.33s1-.17,1.34-0.21,5-.95,5.29-1.07C277.2,288.93,274.38,286.2,270.65,285.54Zm-18.89,7.19a24.8,24.8,0,0,0,1.56,5.5c0.31,0.85.62,1.71,0.91,2.55l0.39,1.13c0.25,0.72.37,1.23,0.56,2a12.61,12.61,0,0,1,.32,2.22c0.06,0.89,0,1.76,0,2.93a1.66,1.66,0,0,1-.28,1.13,1.11,1.11,0,0,1-.69.26,4.89,4.89,0,0,1-1.11-.08c-0.81-.13-0.83.48-0.83,0.48,0,0.19-.22,1.46-0.32,1.93-0.38,1.76-.86,2.77-2,1.77-0.23-.2-2.08-1.62-3-2.51a17.66,17.66,0,0,1-5.3-10.16,26.94,26.94,0,0,1-.14-4,1.09,1.09,0,0,0-.14-0.89c-0.39-.21-0.74.41-0.83,0.58a12.69,12.69,0,0,1-3.57,4.54c-2.2,1.66-6.15,3.18-7.48,3.07a0.78,0.78,0,0,1-.53-0.8,12.82,12.82,0,0,1,.52-3.11c0.2-.69-0.36-0.45-0.46-0.45s-0.56.08-.66,0.1-0.21-.23-0.21-0.44a9.32,9.32,0,0,1,.79-3.38,16.82,16.82,0,0,1,1.87-3.45,13,13,0,0,1,3-3.37,12.74,12.74,0,0,0,1.07-.89,2.61,2.61,0,0,0,.36-0.35c0.19-.22.33-0.68-0.36-0.52s-1.58.45-2.16,0.61a31.27,31.27,0,0,1-4,.94c-4.11.58-6.31-.4-6.73-0.62-0.08-.06-0.17-0.11-0.24-0.18a0.84,0.84,0,0,1-.32-0.63,0.75,0.75,0,0,1,.31-0.56c0.45-.36,1-0.75,1.44-1.13,0.19-.17,1.35-1.16-0.13-1.36a2.78,2.78,0,0,1-1-.41,3.17,3.17,0,0,1-1-1.13c-0.4-.75.69-1.41,0.69-1.41,0.7-.4,1.26-0.7,2-1.09a8,8,0,0,1,4.1-1,13.83,13.83,0,0,1,3.38.45l0.16,0c1.39,0.37,4.14,1.25,4.14,1.25,1.33,0.34,2.31.56,3.07,0.67a10.59,10.59,0,0,0,1.8,0s0.55-.1.16-0.4a4.12,4.12,0,0,0-.39-0.19s-1.64-.73-2.14-1a11.92,11.92,0,0,1-3.08-2,14.43,14.43,0,0,1-2.9-3.88c-0.11-.26-0.87-2.13-1-2.56a0.45,0.45,0,0,1,.07-0.46,0.19,0.19,0,0,1,.1-0.05c0.71,0.12,1.35.24,1.94,0.36,1,0.21,1.7.39,2.38,0.58s1,0.21,1.53.41c0.34,0.12.75,0.2,1.08,0.34l0.72,0.28c0.11,0,.47.19,0.63,0.23,0,0,.51.29,0.26-0.41a23.91,23.91,0,0,1-1.29-4.18c-0.39-2,.24-3.28.88-5,0.1-.26.21-0.52,0.33-0.77a0.7,0.7,0,0,1,.53-0.42,4.83,4.83,0,0,1,.49.09,0.85,0.85,0,0,0,.41-0.17c0.28-.3,1.12-1,2.58-0.06a12,12,0,0,1,2.64,2.54,16.89,16.89,0,0,1,3,5.41s0.26,0.36.47,0c0.38-.57.93-1.85,1.14-2.19a12.88,12.88,0,0,1,7.78-5.95c0.61-.17,1.24-0.29,1.86-0.4a9.72,9.72,0,0,1,2.63-.11c0.34,0.22.1,0.6-.08,0.94a28.81,28.81,0,0,0-1.19,2.68l-0.36,1.17c0,0.19-.29.77,0.52,0.41a21.53,21.53,0,0,1,5.46-1c0.62,0,.47.75,0.47,0.75a4.93,4.93,0,0,1-.25.87c-0.28.73-2.07,6.72-9.94,10.23-0.58.26-.49,1.09,0.15,1,3.07-.65,6.5-1.06,8.29-0.7,5.64,1.13,6.71,2.34,7.07,2.55s0.2,0.51-.21.72A54,54,0,0,1,268,285l-0.43.17s-0.61.5,0.09,0.67c1,0.25,2.2.26,2.85,0.4a9.45,9.45,0,0,1,4.58,2.27l0.23,0.22s0.23,0.26-.07.36-0.84.18-1.2,0.28l-0.79.17c-0.25,0-.9.21-1.13,0.26-0.83.19-3.14,0.7-3.7,0.84a10.36,10.36,0,0,0-1.18.29c-0.71.22-.28,0.66-0.28,0.66,0.17,0.13.35,0.28,0.52,0.43a1.5,1.5,0,0,1,.73,1.33v0.05h0a0.41,0.41,0,0,1-.4.39H267.7c-1-.12-2.08-0.27-3.11-0.41l-1.11-.15-0.4-.07s-0.42,0-.26.36a3.13,3.13,0,0,0,.45.77,13.31,13.31,0,0,1,.87,1.17,13,13,0,0,1,.88,1.73,0.83,0.83,0,0,1,0,.62,0.59,0.59,0,0,1-.42.25l-1.11,0s-0.42-.13-0.35.39,0.1,0.61.1,0.61c0.07,0.45.2,0.79,0.3,1.22,0.05,0.21.11,0.43,0.17,0.59a1.68,1.68,0,0,1,.06.52,0.6,0.6,0,0,1-.61.64,14.05,14.05,0,0,1-1.89-.67,10,10,0,0,1-2.26-1.5,85.54,85.54,0,0,1-6.61-7.46,0.65,0.65,0,0,0-.6-0.25A1.45,1.45,0,0,0,251.76,292.73Z" transform="translate(-219.96 -262.32)"/><path class="cls-2" d="M251.34,283.72l0,0a0.8,0.8,0,0,0-.93.11,0.59,0.59,0,0,0-.14.73,0.48,0.48,0,0,0,.67.19c0.16-.08,0-0.29.06-0.31a0.31,0.31,0,0,1,.15,0,0.65,0.65,0,0,1,.37.28,1.18,1.18,0,0,1,.11.83,1.8,1.8,0,0,1-1.1,1.14,2.78,2.78,0,0,1-2.45-.26,2.29,2.29,0,0,1-.87-2.59,0.78,0.78,0,0,1,.14-0.2,0.92,0.92,0,0,1,.57-0.31,0.45,0.45,0,0,1,.22,0c0.1,0-.18.3,0,0.44a0.68,0.68,0,0,0,1-.12,0.83,0.83,0,0,0,0-1,1.12,1.12,0,0,0-1.27-.35l-0.06,0a2.07,2.07,0,0,0-.87.65h0a2.24,2.24,0,0,0-.28,2.59,3.38,3.38,0,0,0,1.25,1.37,2.85,2.85,0,0,0,1.76.49,3,3,0,0,0,1.8-.55A1.94,1.94,0,0,0,251.34,283.72Z" transform="translate(-219.96 -262.32)"/></svg>