<svg id="WW_SecondaryIcons_FlowersLeaves_CMYK" xmlns="http://www.w3.org/2000/svg" viewBox="0 0 59.84 67.05"><defs><style>.cls-1{fill:#69b94c;}.cls-2{fill:#addbe1;}.cls-3{fill:#f4f2e7;}.cls-4{fill:#c5b5d8;}.cls-5{fill:#644130;}</style></defs><title>Icons_FlowersLeaves_3</title><path class="cls-1" d="M40,165.81c-0.92,2.61.22,4,2.76,4.21,2.82,0.22,4.86-1.91,5.65-4.51,0.93-3.08-.59-5.4-1.12-8.3a47.81,47.81,0,0,0-.85-5c-0.63.17-1,1-1.51,1.45a9,9,0,0,1-3.2,1.42c-2.11.73-4.92,2-6.34,3.78s-2.5,4.9-1.08,6.82C36,167.87,39.23,166.39,40,165.81Z" transform="translate(-1.5 -145.36)"/><path class="cls-1" d="M30.88,203.37a0.46,0.46,0,0,1,0-.09c-0.44-3,2.92-5.89,5.49-7.83a0.48,0.48,0,0,1,.58.76c-1.37,1-5.53,4.17-5.12,6.93A0.48,0.48,0,0,1,30.88,203.37Z" transform="translate(-1.5 -145.36)"/><path class="cls-1" d="M28.45,169a0.48,0.48,0,0,1,.68-0.57c1.34,0.74,6.54.79,8.94-.89a2.18,2.18,0,0,0,1.08-2.24,0.48,0.48,0,0,1,.94-0.15,3.12,3.12,0,0,1-1.47,3.17c-2.6,1.82-8.18,1.92-9.95.95A0.48,0.48,0,0,1,28.45,169Z" transform="translate(-1.5 -145.36)"/><path class="cls-1" d="M28.15,212.09a0.47,0.47,0,0,1,0-.41c3.45-5.48,3-16.16.37-21.34a105.72,105.72,0,0,1-5.88-13.73h0a0.48,0.48,0,0,1,.9-0.31,105,105,0,0,0,5.83,13.6c2.77,5.4,3.2,16.54-.41,22.28A0.48,0.48,0,0,1,28.15,212.09Z" transform="translate(-1.5 -145.36)"/><path class="cls-1" d="M15.08,186c4.5-1.75,6.73,2.21,4.92,6.32-1.88,4.26-6.38,5-8.82,8.93a40.51,40.51,0,0,0-.83-6.64c-0.46-2.28-1.27-4.71-1.17-7,0.08-1.91.81-4.54,3.16-4.85C13.94,182.54,15.44,185,15.08,186Z" transform="translate(-1.5 -145.36)"/><path class="cls-1" d="M15.33,186.7a0.48,0.48,0,0,1,.07-0.44c2.2-2.88,5-4.6,7.37-4.6a4.19,4.19,0,0,1,3.46,1.7,0.48,0.48,0,0,1-.76.58,3.23,3.23,0,0,0-2.7-1.32c-2.09,0-4.63,1.62-6.62,4.22A0.48,0.48,0,0,1,15.33,186.7Z" transform="translate(-1.5 -145.36)"/><path class="cls-1" d="M8.41,203.3a0.49,0.49,0,0,1,.29-0.64,0.48,0.48,0,0,1,.6.3v0a4.36,4.36,0,0,0,3.13,3.1,4.54,4.54,0,0,0,4.26-1.74,10.81,10.81,0,0,0,1.65-2.88c0.72-1.62,1.45-3.29,3.47-3.44a16.76,16.76,0,0,1,1.93-2.26c1.5-1.51,2.84-2.19,4.08-2.09s2.25,0.88,3.32,2.38a0.48,0.48,0,1,1-.78.55c-0.9-1.26-1.75-1.91-2.62-2s-2,.51-3.33,1.81A17.25,17.25,0,0,0,23,198.09a8.7,8.7,0,0,1,1.57.43,0.48,0.48,0,0,1,.31.38c0.15,1-.57,3-1.71,3.52a1.53,1.53,0,0,1-1.9-.62,2.41,2.41,0,0,1-.06-2.65c-0.93.4-1.38,1.43-1.95,2.7a11.71,11.71,0,0,1-1.8,3.13,5.47,5.47,0,0,1-5.17,2A5.28,5.28,0,0,1,8.41,203.3ZM22.35,199c-0.6,1-.75,1.78-0.39,2.22s0.68,0.4.77,0.35a3.14,3.14,0,0,0,1.16-2.24A6.21,6.21,0,0,0,22.35,199Z" transform="translate(-1.5 -145.36)"/><path class="cls-2" d="M44.36,194.83a3.53,3.53,0,0,0-1.58.23,11.75,11.75,0,0,0-2.37.73,10.13,10.13,0,0,0-2.73,2c-0.85.75-2.63,1.91-3.85,1.38s-0.42-2,0-2.63c0.75-1.21,1.7-2.24,2.42-3.47s0.55-3.33,1.83-4.12" transform="translate(-1.5 -145.36)"/><path class="cls-2" d="M44.41,173.23a10.75,10.75,0,0,0-1.58-.36,8.87,8.87,0,0,0-1.73-.08c-1.7,0-3,1.2-4.17,2.32-0.59.55-.86,1.29-1.49,1.79-0.46.37-1.07,0.43-1.52,0.81-1.25,1-.48,2.42-0.42,3.63a5.36,5.36,0,0,1-.54,1.53,9.28,9.28,0,0,0,0,2.34c0.15,1.79,1.42,2.36,2.86,3.19,1,0.6,2.24.57,3,1.63s1.13,2.12,1.92,3.07c1.58,1.88,4.07,1.94,6.21,2.62,0.77,0.24,1.95-.18,2.61.07s0.72,1.26,1.67,1.42a7.15,7.15,0,0,0,4-1.12c1.8-1.28,4.16-3,5.22-5,0.72-1.33.48-3,.83-4.43,0.43-1.74-.95-3.91-1.48-5.54a2.67,2.67,0,0,0-1.87-1.73c-1.11-.4-0.91-0.27-1.38-1.38a6,6,0,0,0-3.93-3.22c-1.76-.61-2.52-2-4.29-2.47A4.84,4.84,0,0,0,44.41,173.23Z" transform="translate(-1.5 -145.36)"/><path class="cls-3" d="M49.32,177.77c0.13,1.79-2,4.07-3.15,5.7-0.53.73-1.51,0.12-2.33,0s-2.2-.08-3-0.65c0.93,0.45,4.83,1.35,5,2.72,0.13,1.09-2,2.1-2.13,3.2,0.61-.14,2.51-1.92,4-1.66,0.74,0.13,1.51,1.41,2,2.06-0.19-.71-1.52-2.13-0.94-2.94a3.13,3.13,0,0,1,1.5-.85c0.75-.19,1.43-0.54,2.2-0.67-1,.07-3.5.53-4.2-0.31-0.87-1,.22-2.79,1-4.69A4.15,4.15,0,0,0,49.32,177.77Z" transform="translate(-1.5 -145.36)"/><path class="cls-4" d="M22.2,148.29c-2.26-1.09-6.76-.07-8.77,1.32-1.54,1.07-2.67,2.63-4.15,3.77a13.64,13.64,0,0,0-2.2,1.5c-0.45.52-.49,1.36-1,1.93-1.05,1.28-2.35,1.06-2.8,3s0.24,4.45.4,6.43a14.12,14.12,0,0,0,0,2.58c0.26,0.89,1.07,1.14,1.4,1.91,0.69,1.62-.37,1.81,1,3.38,2.39,2.72,3.33,6.78,7.59,5.59,2.06-.57,1.11-0.14,2.89.8,1.33,0.7,3.57.47,5.05,0.53a12,12,0,0,0,9.82-4.44c0.22-.27.42-0.87,0.71-1.24,0.72-.92,1.57-1,2.17-2.31,1-2.14,2.12-4.33,2.21-6.67,0.16-4.23-1.23-9.45-4.85-11.93-1.68-1.16-2.4-2.87-4-4A11.49,11.49,0,0,0,22.2,148.29Z" transform="translate(-1.5 -145.36)"/><path class="cls-3" d="M19.54,162.14a6.23,6.23,0,0,0-2-1.07,21.54,21.54,0,0,1-2.18-1.47,17.47,17.47,0,0,0-3.52-2.16c0.12,1.54,2.35,2.71,3.27,3.86a6.13,6.13,0,0,1,1.61,3.28c0.09,1.35-.67,1.88-1.48,2.87-0.64.78-3.38,2.62-3.37,3.62,2.77,0.28,4.7-4.17,7.51-3.74,0,1.07,1.28,2.32,1.39,3.39a20.68,20.68,0,0,0,.76,3.28c1-.5.47-3.45,0.51-4.45,0-.81,0-3.17.62-3.86,1-1.19,4.08-1,5.51-1.67-2.28.42-4.66,0.34-6.15-1.67-1.34-1.8-.34-4.89-0.77-7C20.28,156.53,20.19,161.74,19.54,162.14Z" transform="translate(-1.5 -145.36)"/><path class="cls-5" d="M23.57,162.12c0.28-2.18,2.55-3.29,3.77-4.91a7.74,7.74,0,0,0,1.34-5.51c-0.27-3.57-3.7-4.86-6.88-5.66-3.65-.91-5.66,2.77-6.14,5.92A11.29,11.29,0,0,0,19,161.1a0.33,0.33,0,0,0,.47-0.47,11.19,11.19,0,0,1-3.3-7.53,8.39,8.39,0,0,1,.94-3.7c0.67-1.1,3.18-2.76,4.48-2.72a18.11,18.11,0,0,1,4.1,1.69c4.21,2.53,2,7.53-.63,10.2a6.17,6.17,0,0,0-2.18,3.55c-0.05.42,0.61,0.41,0.66,0h0Z" transform="translate(-1.5 -145.36)"/><path class="cls-5" d="M19.21,146.63c-0.53-2.09-3.7-1.06-5.08-.61-3.19,1-5.71,3.27-7.92,5.74s-0.77,5,1.06,7.1c2,2.24,5.69,5.78,8.92,4.73a0.33,0.33,0,0,0-.18-0.64c-2.63.86-6-2.17-7.64-3.89a9,9,0,0,1-2.45-3.58c-0.66-2.81,1-3.29,2.39-4.59,1.61-1.45,2.69-2.95,4.73-3.78,1-.42,5.08-2.07,5.53-0.3a0.33,0.33,0,0,0,.64-0.18h0Z" transform="translate(-1.5 -145.36)"/><path class="cls-5" d="M5.34,155.36c-2.41-.78-3.52,1.19-3.76,3.37-0.19,1.72.31,3.42,0.19,5.15-0.09,1.29-.65,2.93.21,4.07,1.47,1.93,5.45,1.13,7.36.47,2.36-.82,5.89-2.62,7-5,0.19-.38-0.38-0.71-0.57-0.33-1.59,3.24-7.42,5.56-10.88,5.3-3.77-.29-2.31-3.72-2.49-6.35-0.12-1.81-1-7.24,2.72-6.05a0.33,0.33,0,0,0,.17-0.64h0Z" transform="translate(-1.5 -145.36)"/><path class="cls-5" d="M3.55,168.43C0.88,170,3.2,171.55,4.65,173c2.06,2.06,2.54,6.06,6.21,6,4.83,0,6.51-8,8.07-11.34,0.18-.38-0.39-0.72-0.57-0.33-1.41,3-2.25,6.52-4.43,9.15s-5.06,2.22-6.79-.8a15.89,15.89,0,0,0-1.4-2.6c-0.59-.7-4.16-2.8-1.86-4.13a0.33,0.33,0,0,0-.34-0.57h0Z" transform="translate(-1.5 -145.36)"/><path class="cls-5" d="M14.24,176.54c-1.61,4.34,2.17,4.67,5.56,4.23,2.14-.28,4.79-0.34,6.73-1.32,1.74-.88,4.15-3.26,2.93-5.27a0.33,0.33,0,0,0-.57.34c1,1.67-1.61,3.76-2.68,4.31a9,9,0,0,1-3.1.8l-2.46.37c-2.73.41-7.38,1.08-5.77-3.27,0.15-.4-0.49-0.57-0.64-0.17h0Z" transform="translate(-1.5 -145.36)"/><path class="cls-5" d="M22.31,167.14a11.42,11.42,0,0,0,3,3.73c1.06,1,2.48,3.2,3.79,3.79,2.64,1.18,4.59-1.54,5.3-3.81,1.12-3.58,2.14-10.65,0-14.07-1.25-2-3.63-5.85-6.36-5.34-0.42.08-.24,0.72,0.18,0.64,1.32-.25,3.95,2.9,4.74,4.13,2.39,3.68,1.81,8,1.18,12.05-0.5,3.22-2.37,7.46-6.35,4.18-1.57-1.29-4.12-3.68-4.84-5.49-0.16-.39-0.79-0.22-0.64.18h0Z" transform="translate(-1.5 -145.36)"/><path class="cls-5" d="M19.74,161.43c0.23-.74,1.11-5.89,1.55-6.08-0.23.1-.06,3.68-0.06,4.11,0,1-.32,2.49.42,3.32,0.91,1,3,1,4.24,1.13,0.57,0.06,2.93-.09,3.15.23-0.45-.65-2.45-0.17-3-0.08-5.05.72-4.3,3.26-4.44,7.73q-0.09,1.45-.09,2.9L22,175.3c0.23-.92-0.51-3-0.7-3.95s-0.57-3.82-1.64-4.53c-1.83-1.21-4.59,1.75-5.87,2.72-0.4.3-2.25,1.43-1.83,1.55s2.87-2.8,3.09-3c0.87-1,2.34-2.4,2.2-3.86-0.1-1-1.15-1.88-1.81-2.53-0.94-.92-2-1.71-2.91-2.68s-2-1.91-.7-1.68c2.24,0.42,5.11,5.2,7.67,4.35a0.33,0.33,0,0,0-.18-0.64c-2.06.68-6.61-4.35-8.72-5a0.33,0.33,0,0,0-.4.41c0.59,2.07,2.16,3.36,3.7,4.78,1.75,1.61,2.79,3.1,1.45,5.43-1.11,1.93-3.32,3.49-4.84,5.08-0.21.22,0,.68,0.32,0.55,2.35-1,3.94-3.28,6.23-4.26,3.92-1.68,3.84,5.59,4.49,8.23a0.33,0.33,0,0,0,.65-0.09c-0.13-2.89-.65-7.33,1-9.66s4.24-1.63,6.79-2.24a0.33,0.33,0,0,0-.09-0.65c-2.29-.16-6,0.28-7.43-1.58-1.32-1.71-.5-5.48-0.58-7.6,0-.3-0.48-0.48-0.62-0.16a70.8,70.8,0,0,0-2.2,7A0.33,0.33,0,0,0,19.74,161.43Z" transform="translate(-1.5 -145.36)"/><path class="cls-5" d="M44.94,182.56c-0.64-1.72.43-3.69-.18-5.54-0.5-1.51-.43-4.24-1.8-5.38-1.19-1-3.44-.69-4.81-0.28a5.46,5.46,0,0,0-2.07,1.16c-1.11,1-2.17,1.81-3.35,2.68a3,3,0,0,0,.67,5.37,12.41,12.41,0,0,0,4.76.13,5.65,5.65,0,0,1,4.09,1A9.22,9.22,0,0,0,44.54,183c0.4,0.14.57-.5,0.17-0.64-1.35-.47-2.1-1.58-3.36-2.1a7.09,7.09,0,0,0-3.18-.2,17.7,17.7,0,0,1-3.52.11c-3.13-.41-3.11-3.12-0.56-4.93,1.43-1,2.51-2.68,4.24-3.22a6.42,6.42,0,0,1,2.71-.28c2.38,0.46,2.22,1.86,2.52,3.48s1,3,.79,4.86a5.59,5.59,0,0,0,0,2.69C44.45,183.14,45.09,183,44.94,182.56Z" transform="translate(-1.5 -145.36)"/><path class="cls-5" d="M32,179.59c-1.16,3.27-1.37,5.65,1.75,7.69a4,4,0,0,0,3.58.81,11.81,11.81,0,0,0,2.41-1.38,13.39,13.39,0,0,1,3.71-1.44,0.33,0.33,0,0,0-.18-0.64,14.32,14.32,0,0,0-3,1c-1.44.74-2.83,2.29-4.65,1.86a6.2,6.2,0,0,1-3.76-3.16c-0.48-1.44.3-3.23,0.78-4.58,0.14-.4-0.5-0.57-0.64-0.17h0Z" transform="translate(-1.5 -145.36)"/><path class="cls-5" d="M36.7,188c0.86,0.79.82,1.72,1.31,2.65a10.92,10.92,0,0,0,1.47,1.87A5.35,5.35,0,0,0,43,194.14c2.13,0.34,5.67,2.72,6-1.12,0-.42-0.63-0.42-0.66,0-0.23,3-3.1.86-4.28,0.59-1.89-.44-2.85-0.3-4.26-1.93-1.12-1.3-1.28-3-2.55-4.13a0.33,0.33,0,0,0-.47.47h0Z" transform="translate(-1.5 -145.36)"/><path class="cls-5" d="M45.35,186.78l-0.21.07a0.34,0.34,0,0,0-.14.55c1.14,1.32,2.54,2.26,3,4,0.35,1.28-.34,2.71.3,3.94a2.77,2.77,0,0,0,3.12,1.27,4.65,4.65,0,0,0,1.91-1.07c1.36-1.12,2.89-2.12,4.2-3.28,1.6-1.42,1.77-3.31,2-5.32,0.05-.42-0.61-0.41-0.66,0-0.21,1.74-.31,3.11-1.55,4.42a17.81,17.81,0,0,1-2.5,2c-1.84,1.38-5.45,5.34-6-.18-0.12-1.17.14-1.94-.51-3-0.4-.67-2.12-2.94-2.81-2.7,0.4-.14.22-0.78-0.18-0.64h0Z" transform="translate(-1.5 -145.36)"/><path class="cls-5" d="M48,186.14a15.07,15.07,0,0,1,4.86.69,12.9,12.9,0,0,0,3.66,1c1.65,0.05,3.35-.7,3.66-2.48a5.39,5.39,0,0,0-.47-2.54,19.32,19.32,0,0,0-.94-3.72c-0.73-1.5-1.59-1.82-3.21-1.84a0.33,0.33,0,0,0,0,.66c2.13,0,2.79,1.45,3.18,3.39,0.46,2.28,1.76,5.31-1.66,5.82-1.76.26-3.45-.83-5.09-1.26a16.06,16.06,0,0,0-4-.39,0.33,0.33,0,0,0,0,.66h0Z" transform="translate(-1.5 -145.36)"/><path class="cls-5" d="M48,184.14c2.69-1.39,5.36-1.92,7.14-4.65a3.86,3.86,0,0,0-.9-5.34c-1.29-1-3-.85-4.32-1.84-0.91-.67-1.46-1.66-2.58-2.07a4.09,4.09,0,0,0-4.76,1.53c-0.24.35,0.34,0.68,0.57,0.33,2-3,4.52-.73,6.31.68,1.13,0.89,2.47.92,3.71,1.62,3.68,2.07,1.23,5.86-1.47,7.43-1.26.73-2.72,1.08-4,1.75-0.38.2,0,.76,0.34,0.57h0Z" transform="translate(-1.5 -145.36)"/><path class="cls-5" d="M45.39,182.71a13.34,13.34,0,0,0,3.71-5.86,0.33,0.33,0,0,0-.6-0.25c-0.78,1.68-2.39,4.81-1.78,6.71,0.79,2.44,5.63,1.1,7.4,1a0.33,0.33,0,0,0,0-.66c-1.8,0-5.7.14-6.61,2.16-0.81,1.78,1.56,3.55,2.2,5l0.52-.4c-1.14-1.31-2.78-3.64-4.73-3.72-1.7-.07-3.11,1.56-4.18,2.65l0.47,0.47c1-1.16,2.91-2.69,2.31-4.44s-3.17-2.92-4.77-3.57l-0.09.65c1.34,0.06,5.16,1.76,6.21.26,0.24-.35-0.33-0.68-0.57-0.33-0.57.81-4.59-.54-5.64-0.59-0.4,0-.4.52-0.09,0.65,1.1,0.44,3.22,1.27,3.78,2.38,1.05,2.09-.56,3.3-1.62,4.52a0.33,0.33,0,0,0,.47.47c1.56-1.57,3-3.06,5.39-1.55a13.66,13.66,0,0,1,2.59,2.63c0.27,0.3.66-.09,0.52-0.4-0.69-1.52-1.8-2-1.55-3.81,0.23-1.6.86-1.67,2.37-2a12.76,12.76,0,0,1,3-.28v-0.66c-2.19.15-6.83,1.34-6.64-1.92a14.6,14.6,0,0,1,1.59-4.77l-0.6-.25a12.63,12.63,0,0,1-3.54,5.56C44.59,182.51,45.06,183,45.39,182.71Z" transform="translate(-1.5 -145.36)"/><path class="cls-5" d="M35.57,188.09c0.76,3.18-2.08,4.26-3.42,6.61-0.62,1.09-1.29,2.91,0,3.84s2.76,0.07,3.78-.54a20,20,0,0,0,2.25-1.75,23.46,23.46,0,0,1,4-2.23,0.33,0.33,0,0,0-.34-0.57,26.16,26.16,0,0,0-4.71,2.81,11.17,11.17,0,0,1-2,1.4,3.4,3.4,0,0,1-1.75.59c-1.19-.17-1.69-0.16-1.25-1.88a4.71,4.71,0,0,1,.44-1.11c1.41-2.74,4.45-3.79,3.6-7.34a0.33,0.33,0,0,0-.64.18h0Z" transform="translate(-1.5 -145.36)"/></svg>