<svg id="WW_SecondaryIcons_FlowersLeaves_CMYK" xmlns="http://www.w3.org/2000/svg" viewBox="0 0 69.03 65.35"><defs><style>.cls-1{fill:#e8247f;fill-rule:evenodd;}.cls-2{fill:#644130;}</style></defs><title>Icons_FlowersLeaves_12</title><g id="vOdDFw"><path class="cls-1" d="M391.7,35.56c-0.62.16-1.23,0.31-1.85,0.49s-1,.39-1.48.49c-0.93.18-1.88,0.27-2.82,0.42a13,13,0,0,0-1.31.31l-2.78.77c0.29,0.22.63,0.45,0.94,0.72a2,2,0,0,1,1,2.2,0.81,0.81,0,0,1-1,.7c-1.72-.15-3.43-0.36-5.15-0.55L376.85,41c0.62,0.75,1.21,1.38,1.69,2.09a16.38,16.38,0,0,1,1.15,2.1,1.13,1.13,0,0,1-1.19,1.7,6.47,6.47,0,0,0-1,0c0.16,0.76.3,1.52,0.48,2.26,0.1,0.42.34,0.81,0.39,1.23a1.65,1.65,0,0,1-.1,1.18,1.83,1.83,0,0,1-1.39.21c-1.09-.33-2.14-0.81-3.2-1.23a9.33,9.33,0,0,1-3.66-2.84c-1.89-2.21-3.79-4.42-5.61-6.68a19.43,19.43,0,0,1-2.85-5,3.77,3.77,0,0,1-.37-0.82,2.42,2.42,0,0,1,.08-1.28,1.53,1.53,0,0,1,1-.27,11,11,0,0,0,1.25-.1c-0.61-.46-1.09-0.93-0.77-1.7a1.24,1.24,0,0,1,.58-0.59c0.66-.3,1.36-0.54,2-0.8l0-.24a3,3,0,0,0-.83-0.27,0.87,0.87,0,0,1-.95-0.62,1.16,1.16,0,0,1,.28-1.32c0.17-.14.33-0.3,0.5-0.45l0-.17a4.35,4.35,0,0,1-1.07,0,1.07,1.07,0,0,1-.71-0.51,0.91,0.91,0,0,1,.43-0.73c1.31-.72,2.65-1.37,4-2.08a3,3,0,0,0,.94-0.87c-1.48.56-3,1.15-4.46,1.68a5,5,0,0,1-1.65.28,2.54,2.54,0,0,1-.93-0.52,4.29,4.29,0,0,0-.4.83,1.05,1.05,0,0,1-1.12,1,1.24,1.24,0,0,1-.86-1.6c0.56-1.09.2-2.17,0.16-3.25s-0.29-2.24-.32-3.36a9,9,0,0,0-1.31-4,1.76,1.76,0,0,0-.69-0.37c-0.08,1.65-.56,3.16-0.36,4.73a1.31,1.31,0,0,1-.46,1,0.89,0.89,0,0,1-1.39-.77c-0.09-.8-0.12-1.6-0.28-2.39a16.71,16.71,0,0,0-1.59-5.39,18.59,18.59,0,0,1-1-2.24,1.93,1.93,0,0,0-1.63-1c-0.31-.08-0.64-0.1-1.15-0.17a17.82,17.82,0,0,0-.56,2.61,13.47,13.47,0,0,0,1.91,7.85A5,5,0,0,0,352,19.85a10.85,10.85,0,0,1,3.4,3.15,0.88,0.88,0,0,1,.18.53,17.49,17.49,0,0,1-.34,2.3,1,1,0,0,1-.66.61A0.85,0.85,0,0,1,354,26a3.82,3.82,0,0,0-1.76-1.54,12,12,0,0,0-2.33-1.1,4.36,4.36,0,0,0-.82-0.15c0.74,1.21,1.4,2.27,2.06,3.34a0.71,0.71,0,0,0,.26.18,1,1,0,0,1,.52,1.37,1.12,1.12,0,0,1-1.28.73c-3.42-.38-6.14-2.2-8.73-4.27a7.58,7.58,0,0,1-3-4.07,8.47,8.47,0,0,0-.8-1.32,9.82,9.82,0,0,1-.7-1.84,0.61,0.61,0,0,1,.77-0.81c0.83,0.11,1.67.24,2.5,0.4s1.94,0.39,2.9.63c0.72,0.18,1.44.42,2.14,0.66s1.36,0.51,2,.76c0.2,0.07.4,0.11,0.76,0.2a7.69,7.69,0,0,0-.71-1.34,7.35,7.35,0,0,1-1.31-3.33,13,13,0,0,1,.3-7.06c0.11-.33.24-0.65,0.38-1a1.17,1.17,0,0,1,1.56-.66,0.68,0.68,0,0,0,.57,0,2.64,2.64,0,0,1,3.45-.19,13.86,13.86,0,0,1,3.34,3.07A25.38,25.38,0,0,1,361,18.91a11.53,11.53,0,0,1,.34,2.44,24.06,24.06,0,0,1-.17,2.52,21.61,21.61,0,0,0,8.52-10.79c-0.39.14-.65,0.21-0.9,0.32l-2,.91a1.17,1.17,0,0,1-1.74-.53,1,1,0,0,0-.41-0.49,2,2,0,0,0-1.15.29,2.82,2.82,0,0,0-1,1.76c-0.11.81-.4,1-1,0.91A1.08,1.08,0,0,1,360.7,15a10,10,0,0,1,1.75-4.62A20,20,0,0,1,367,6.15a9.64,9.64,0,0,1,3.76-1.63c0.85-.15,1.69-0.34,2.53-0.52a0.6,0.6,0,0,0,.19-0.15h2.88a1.65,1.65,0,0,1,.11,1.75c-0.7,1.49-1.3,3-1.93,4.56a1.3,1.3,0,0,0,0,.44,9.91,9.91,0,0,1,4.08-1.41c1-.11,2.07-0.23,3.1-0.31a0.73,0.73,0,0,1,.87.87,3.13,3.13,0,0,1-.08.9,26.51,26.51,0,0,1-1,2.51A22.57,22.57,0,0,1,377.9,19a24.53,24.53,0,0,1-5.85,4.38c-0.85.5-1.71,1-2.71,1.55a2.29,2.29,0,0,0,.47,0,26,26,0,0,1,10.7-1.23,23.07,23.07,0,0,1,4.23.93c1.58,0.5,3.1,1.18,4.64,1.81a0.71,0.71,0,0,1,.41.5,1.32,1.32,0,0,1-.41.7,2.47,2.47,0,0,1-.59.24c-1.62.84-3.24,1.71-4.87,2.54-0.6.31-1.24,0.55-1.76,0.77,1.13,0.11,2.32.15,3.47,0.37a14.91,14.91,0,0,1,2.37.83,5.85,5.85,0,0,1,1.14.48c0.87,0.56,1.71,1.17,2.56,1.77v0.92ZM379.81,11.4A10.47,10.47,0,0,0,374,14a3,3,0,0,0-1,1.87,3.71,3.71,0,0,1-.86,2.42c-0.36.52-.81,1-1.28,1.56,2.11-.74,4.39-0.77,5.84-2.69C378,15.44,379.56,13.86,379.81,11.4Zm2.61,14.84c-2.53-1.48-12.62-.25-14.19,1.69C373.15,29,377.65,27.07,382.42,26.24Zm-34.22-.59,0.17-.2a21.35,21.35,0,0,0-3.77-4.59,4.55,4.55,0,0,0-2.5-1.16,0.9,0.9,0,0,0-.65.18,0.63,0.63,0,0,0,0,.58,4.8,4.8,0,0,0,1.05,1.38C344.39,23.16,346.31,24.39,348.2,25.65Z" transform="translate(-322.67 -3.09)"/><path class="cls-1" d="M325.14,30.05c1.24-.75,2.47-1.51,3.72-2.25a10.53,10.53,0,0,1,7.51-1.19c0.72,0.13,1.49.06,2.19,0.23,1.78,0.43,3.57.86,5.3,1.45a22,22,0,0,0,5.37,1.39,1.43,1.43,0,0,0,.32,0,0.73,0.73,0,0,1,1,.76,7.77,7.77,0,0,1-.15,1.61,0.41,0.41,0,0,0,.36.59,1.15,1.15,0,0,1,.45,2,2,2,0,0,0-.32,1.82c0.62-.42,1.15-0.77,1.67-1.15a5,5,0,0,0,.51-0.5,1.12,1.12,0,0,1,1.53-.35,2.38,2.38,0,0,1,1.1,0,3,3,0,0,1,.71,1,1,1,0,0,0,.18-0.23c0.27-.92,1-1.12,1.72-0.18,1.54,2,3.09,4.08,4.57,6.16a15.41,15.41,0,0,1,1.18,2.3c0.58,1.2,1.17,2.39,1.69,3.61s1,2.45,1.44,3.69,0.89,2.25,1.23,3.4a14.47,14.47,0,0,1,.47,2.61c0.14,1.32.25,2.64,0.27,4,0,2-.65,2.11-2.65,1.77-0.38-.06-0.75-0.18-1.21-0.29-0.07.36-.15,0.67-0.19,1-0.2,1.56-.37,3.12-0.58,4.68a1.8,1.8,0,0,1-.3.56H363a11.5,11.5,0,0,1-1.39-.77c-0.51-.38-0.94-0.86-1.43-1.28a25.77,25.77,0,0,1-2.33-2,24.43,24.43,0,0,1-4.48-6.65,27.72,27.72,0,0,1-2.09-5.71,24,24,0,0,1-.29-3.46c0-.68,0-1.37,0-2.11a0.84,0.84,0,0,0-.19.12,2.5,2.5,0,0,0-.14.29,14.18,14.18,0,0,1-4.16,5.94,19.1,19.1,0,0,1-9,4.12,1.06,1.06,0,0,1-1.43-1.23c0.06-1.31.19-2.61,0.3-4l-0.41.08c-1,.15-1.18,0-1.21-1a11.47,11.47,0,0,1,.87-4.23,20.79,20.79,0,0,1,2.19-4.3,15.79,15.79,0,0,1,3.68-4.14c0.57-.43,1.06-1,1.72-1.59a3.75,3.75,0,0,0-.51,0c-2.25.71-4.48,1.48-6.76,2.1a10,10,0,0,1-4.81.47c-0.63-.14-1.26-0.31-1.89-0.39a5.39,5.39,0,0,1-2.87-1.1,1.17,1.17,0,0,1-.06-1.9c0.75-.64,1.46-1.34,2.21-2a0.85,0.85,0,0,0-.17-0.18,6.12,6.12,0,0,1-2.76-2.27,1.4,1.4,0,0,0-.45-0.34V30.05ZM350.79,40.8a0.61,0.61,0,0,0-.76-0.66,2.91,2.91,0,0,0-1.34.82c-0.7,1-1.26,2.16-1.87,3.26-0.23.42-.43,0.86-0.7,1.25-0.61.89-1.21,1.81-1.91,2.63-0.9,1.07-1.91,2-2.85,3.09-0.61.68-1.19,1.38-1.73,2.11a2,2,0,0,0-.12.84,3.16,3.16,0,0,0,.83-0.07c2.43-.87,4.14-2.69,5.82-4.52a21,21,0,0,0,3.39-5.61C350,42.91,350.38,41.85,350.79,40.8Zm6-.49a4.25,4.25,0,0,0,.16.52c0.65,1.27,1.35,2.52,2,3.82,0.76,1.63,1.45,3.29,2.15,4.95a14.73,14.73,0,0,1,1.41,5.76,4.84,4.84,0,0,0,.55,2,0.47,0.47,0,0,0,.92-0.13,8.58,8.58,0,0,0,.21-2.56c-0.23-2-1.31-3.7-2.07-5.51s-1.65-3.68-2.41-5.54A7.86,7.86,0,0,0,356.79,40.31Z" transform="translate(-322.67 -3.09)"/></g><path class="cls-2" d="M383,30.74a23.27,23.27,0,0,0-3.16-.15A52.86,52.86,0,0,0,387,27.73a1.59,1.59,0,0,0,.53-0.84,0.53,0.53,0,0,0,0-.32,1,1,0,0,0-.64-0.81l-1-.43c-1.16-.52-2.35-1.06-3.57-1.48a23,23,0,0,0-4.18-1,21,21,0,0,0-2.2-.2,26.27,26.27,0,0,0-6.54.62c0.17-.09.34-0.19,0.51-0.27A19.09,19.09,0,0,0,381,9.75a1.13,1.13,0,0,0-.43-1.13A1,1,0,0,0,380,8.33,16,16,0,0,0,373,9.68l0.59-1.31c0.5-1.1.91-1.7,1.45-2.8s0.39-2.16-.32-2.33a15,15,0,0,0-5.84.4,16.34,16.34,0,0,0-8.43,5.84,29.8,29.8,0,0,0-2.17,4.21,21.27,21.27,0,0,0-3.44-6.09l-0.09-.12a13.6,13.6,0,0,0-3.27-3.2c-2.34-1.5-3.62-.25-3.95.07l-0.1,0a1.84,1.84,0,0,0-2.22.84c-0.15.31-.29,0.64-0.41,1a13,13,0,0,0-.49,7.08l0,0.14a7.4,7.4,0,0,0,1.26,3c0.1,0.15.52,0.91,0.6,1.09-0.21-.09-0.8-0.39-1-0.48-0.4-.17-0.78-0.4-1.19-0.55-0.67-.26-1.38-0.52-2.12-0.73s-1.71-.46-2.87-0.72c-0.75-.17-2-0.59-2.93-0.75a1.11,1.11,0,0,0-1,.16,1,1,0,0,0-.3,1.17,8.21,8.21,0,0,0,.66,1.8,18.49,18.49,0,0,0,4.15,5.84,16.68,16.68,0,0,0,7.26,4.35h0a17.61,17.61,0,0,1-4.78-1.14l-0.24-.09c-1.64-.63-3.36-1.11-5-1.57l-0.19-.05a14.42,14.42,0,0,0-9.85.62,21.39,21.39,0,0,0-2.55,1.4,5.81,5.81,0,0,0-1.57,1.5,1.47,1.47,0,0,0,.23.89,6.52,6.52,0,0,0,3.41,2.51A5.78,5.78,0,0,0,324,33a2,2,0,0,0-.61,1.43,1.78,1.78,0,0,0,.59,1.2,6.67,6.67,0,0,0,3.12,1.42,19.4,19.4,0,0,0,6.81-.13,43.39,43.39,0,0,0,4.81-1.46c0.57-.18,1.52-0.43,1.73-0.49-0.16.13-1.56,1-1.72,1.15A13.81,13.81,0,0,0,335,39.87a20.62,20.62,0,0,0-2.35,4.2,13.8,13.8,0,0,0-1,3.69,2.33,2.33,0,0,0,.2,1.74,1.08,1.08,0,0,0,1.1.36s0.63-.2.67-0.2a11.44,11.44,0,0,0-.78,3.34,2.61,2.61,0,0,0,.43,1.56,1.88,1.88,0,0,0,1.83.37,16.94,16.94,0,0,0,9-3.93,22.28,22.28,0,0,0,4-5.69,29.65,29.65,0,0,0,.13,4.88,25.26,25.26,0,0,0,1.46,5.48l0.09,0.22a24.09,24.09,0,0,0,4.25,6.77c0.44,0.51,3.34,3.1,3.64,3.34a6.07,6.07,0,0,0,1,.6,3.19,3.19,0,0,0,1.9.32l0.31,0h0a1.08,1.08,0,0,0,.65-0.78c0.14-1,.3-1.92.44-2.88,0.08-.57.11-1.26,0.19-1.82,0-.15-0.07-0.5.65-0.21a3.92,3.92,0,0,0,1.38.23,2.86,2.86,0,0,0,1.57-.47,2.18,2.18,0,0,0,.5-1.77c0-1.41-.08-2.84-0.16-3.92a14.81,14.81,0,0,0-.41-2.63c-0.24-.9-0.56-1.8-0.87-2.66l-0.47-1.35c-0.35-1-.76-2-1.16-3.05s-0.91-2.39-1.31-3.48c0,0-.72-2.09-0.92-2.89l0.19,0.26c0.12,0.17.29,0.38,0.41,0.55,1.56,2.06,3,4.06,4.63,6l0.54,0.67a9.61,9.61,0,0,0,3.64,3l1,0.43c0.71,0.32,1.43.65,2.18,0.9a2.16,2.16,0,0,0,1.63-.19,0.35,0.35,0,0,0,.12-0.06,1.6,1.6,0,0,0,.14-0.12,1.1,1.1,0,0,0,.41-1.22,12.53,12.53,0,0,0-1.37-3.54l1.09,0.35a1.17,1.17,0,0,0,1.27-.09,1.41,1.41,0,0,0,.38-0.48,1.88,1.88,0,0,0-.16-1.59,16,16,0,0,0-1.1-2.13,7.57,7.57,0,0,0-1.53-1.57l2.22,0.51c1.25,0.19,1.42.25,2.67,0.41a1.61,1.61,0,0,0,1.62-.6,1.51,1.51,0,0,0,.22-0.47c0.37-1.26-1.82-2.64-1.9-2.72,0.64-.15,1.32-0.29,2-0.4s1.16-.2,1.59-0.25,6-1.13,6.29-1.28C390.81,34.77,387.46,31.53,383,30.74Zm-22.48,8.56a29.44,29.44,0,0,0,1.86,6.55c0.37,1,.74,2,1.08,3l0.46,1.35c0.3,0.86.44,1.47,0.67,2.35a14.94,14.94,0,0,1,.38,2.64c0.07,1.06,0,2.09,0,3.49a2,2,0,0,1-.33,1.35,1.32,1.32,0,0,1-.82.31,5.74,5.74,0,0,1-1.33-.1c-1-.15-1,0.57-1,0.57-0.06.23-.26,1.74-0.38,2.3-0.45,2.1-1,3.3-2.42,2.11-0.27-.23-2.48-1.93-3.53-3a21,21,0,0,1-6.31-12.09,32.28,32.28,0,0,1-.16-4.74,1.3,1.3,0,0,0-.16-1.05c-0.47-.25-0.88.49-1,0.7a15.1,15.1,0,0,1-4.25,5.41c-2.62,2-7.32,3.79-8.91,3.66a0.92,0.92,0,0,1-.63-1,15.21,15.21,0,0,1,.62-3.7c0.24-.82-0.43-0.54-0.55-0.54s-0.67.1-.78,0.12c-0.29,0-.25-0.27-0.25-0.53a11.08,11.08,0,0,1,.95-4,20.09,20.09,0,0,1,2.23-4.1,15.44,15.44,0,0,1,3.54-4,14.62,14.62,0,0,0,1.27-1.06,3.14,3.14,0,0,0,.43-0.41c0.23-.27.4-0.81-0.43-0.62s-1.88.54-2.57,0.73a37.13,37.13,0,0,1-4.74,1.12c-4.89.7-7.51-.47-8-0.73-0.1-.07-0.2-0.14-0.29-0.21a1,1,0,0,1-.39-0.74,0.9,0.9,0,0,1,.37-0.67c0.53-.43,1.2-0.89,1.71-1.35,0.22-.2,1.6-1.39-0.15-1.62a3.28,3.28,0,0,1-1.2-.48A3.79,3.79,0,0,1,324.31,29c-0.47-.9.82-1.67,0.82-1.67,0.84-.48,1.5-0.83,2.35-1.3a9.47,9.47,0,0,1,4.89-1.21,16.54,16.54,0,0,1,4,.53l0.19,0.05c1.65,0.44,4.92,1.49,4.92,1.49,1.59,0.4,2.74.67,3.66,0.8a12.58,12.58,0,0,0,2.14.05s0.65-.12.19-0.48a4.82,4.82,0,0,0-.46-0.23s-1.95-.87-2.54-1.16a14.13,14.13,0,0,1-3.67-2.39,17.17,17.17,0,0,1-3.45-4.61c-0.13-.31-1-2.53-1.17-3.05a0.53,0.53,0,0,1,.09-0.55,0.24,0.24,0,0,1,.12-0.06c0.84,0.14,1.6.28,2.3,0.43,1.15,0.25,2,.46,2.84.69s1.16,0.25,1.82.49c0.4,0.15.89,0.24,1.28,0.4l0.86,0.33c0.13,0.05.56,0.22,0.75,0.27,0,0,.61.35,0.31-0.49a28.49,28.49,0,0,1-1.54-5c-0.46-2.39.28-3.9,1.05-6,0.11-.31.25-0.62,0.39-0.92a0.83,0.83,0,0,1,.63-0.5,5.82,5.82,0,0,1,.58.11,1,1,0,0,0,.49-0.2c0.34-.36,1.34-1.24,3.08-0.07a14.28,14.28,0,0,1,3.15,3A20.08,20.08,0,0,1,358,14.27s0.31,0.43.56,0.05c0.45-.68,1.11-2.2,1.36-2.6a15.34,15.34,0,0,1,9.26-7.08c0.73-.2,1.47-0.34,2.21-0.48,0,0,2.72-.4,3.13-0.13s0.12,0.71-.09,1.12A34.56,34.56,0,0,0,373,8.34l-0.42,1.4c-0.06.23-.35,0.92,0.62,0.48a25.67,25.67,0,0,1,6.5-1.2c0.73,0,.56.89,0.56,0.89a5.85,5.85,0,0,1-.29,1c-0.33.86-2.47,8-11.83,12.17-0.69.31-.58,1.3,0.18,1.14,3.65-.77,7.74-1.26,9.87-0.83,6.72,1.35,8,2.79,8.41,3s0.23,0.6-.25.86A64.49,64.49,0,0,1,379.86,30l-0.51.2s-0.73.6,0.11,0.8c1.22,0.3,2.61.31,3.39,0.48a11.23,11.23,0,0,1,5.46,2.7l0.27,0.26s0.27,0.31-.08.43-1,.21-1.42.33c-0.21.05-.68,0.15-0.94,0.2s-1.07.25-1.34,0.31c-1,.22-3.74.84-4.4,1a12.13,12.13,0,0,0-1.41.35c-0.84.26-.33,0.78-0.33,0.78,0.2,0.16.42,0.33,0.62,0.52a1.79,1.79,0,0,1,.86,1.58V40h0a0.49,0.49,0,0,1-.47.47l-0.15,0c-1.24-.14-2.47-0.32-3.71-0.49l-1.32-.18L374,39.73s-0.5,0-.31.42a3.69,3.69,0,0,0,.53.92,16,16,0,0,1,1,1.4,15.43,15.43,0,0,1,1,2.06,1,1,0,0,1,0,.74,0.7,0.7,0,0,1-.5.3l-1.32-.05s-0.49-.15-0.41.46,0.11,0.73.11,0.73c0.09,0.53.23,0.93,0.36,1.45,0.06,0.25.13,0.51,0.2,0.7a2,2,0,0,1,.07.62,0.71,0.71,0,0,1-.73.77,16.51,16.51,0,0,1-2.25-.79,11.89,11.89,0,0,1-2.69-1.79,102,102,0,0,1-7.87-8.88,0.77,0.77,0,0,0-.72-0.3A1.73,1.73,0,0,0,360.53,39.29Z" transform="translate(-322.67 -3.09)"/><path class="cls-2" d="M360,28.57l0,0a1,1,0,0,0-1.11.13,0.7,0.7,0,0,0-.17.87,0.58,0.58,0,0,0,.79.23c0.19-.09,0-0.35.08-0.37a0.37,0.37,0,0,1,.18,0,0.77,0.77,0,0,1,.43.34,1.4,1.4,0,0,1,.13,1A2.14,2.14,0,0,1,359,32.1a3.32,3.32,0,0,1-2.92-.31,2.73,2.73,0,0,1-1-3.08,0.93,0.93,0,0,1,.17-0.24,1.08,1.08,0,0,1,.67-0.37,0.55,0.55,0,0,1,.26,0c0.12,0-.21.36,0,0.53a0.81,0.81,0,0,0,1.15-.15,1,1,0,0,0,0-1.24,1.33,1.33,0,0,0-1.51-.41l-0.07,0a2.45,2.45,0,0,0-1,.78h0a2.66,2.66,0,0,0-.33,3.09,4,4,0,0,0,1.49,1.63,3.4,3.4,0,0,0,2.1.59,3.6,3.6,0,0,0,2.14-.66A2.31,2.31,0,0,0,360,28.57Z" transform="translate(-322.67 -3.09)"/></svg>