<svg id="WW_SecondaryIcons_FlowersLeaves_CMYK" xmlns="http://www.w3.org/2000/svg" viewBox="0 0 72.57 55.4"><defs><style>.cls-1{fill:#addbe1;}.cls-2{fill:#644130;}.cls-3{fill:#fdc400;}.cls-4{fill:#f4f2e7;}</style></defs><title>Icons_FlowersLeaves_10</title><path class="cls-1" d="M129.15,52.53C126.34,54,122,53.84,118.92,54.4c-3.49.63-6.94,2.32-10.53,2.32-3,0-3.83-1-4.56-3.94-1-4.14-1.38-9.19.12-13.25,1-2.77,3.39-1.94,6-1.49,4.39,0.74,8.74,1.5,13.06,2.6a63.43,63.43,0,0,1,6.32,1.77c2.59,1,2.46,1.28,2.14,4.09a25.76,25.76,0,0,0-.31,3Z" transform="translate(-102.78 -8.9)"/><path class="cls-1" d="M133.23,44.19c-3.52-1.23-7.25-3.83-10.38-5.84-3.68-2.37-7.41-4.48-10.91-7.13-5.33-4-1.3-8.39,2.89-11.63,1.94-1.5,6.25-5.25,9-4.64,1.16,0.26,2.14,1.69,2.81,2.55,1.73,2.26,3.29,4.67,4.78,7.09a164.32,164.32,0,0,1,8.24,16.26Z" transform="translate(-102.78 -8.9)"/><path class="cls-1" d="M137.76,39.78c-2-4.65-2.59-10-4.13-14.85-1.14-3.56-1.81-7.32-2.58-11-0.61-2.87.37-2.67,3-3.28,3-.68,7.3-1.63,10.25-0.1,1.9,1,1.6,3.6,1.88,5.56a48.91,48.91,0,0,1,.05,12.6c-0.39,3.5-1,7-1.22,10.49Z" transform="translate(-102.78 -8.9)"/><path class="cls-1" d="M155.12,22.24c0.43-.69,1.76-3.48,2.58-3.76,1-.35,3.14,1.45,4.07,2,2.65,1.44,12.21,6,10.92,9.72-0.74,2.15-3.12,4.42-4.85,5.78a87,87,0,0,1-7.67,5.77c-1.25.78-2.33,1.51-3.73,1.38-3.89-.37-10-1.36-8.45-6.3A66.17,66.17,0,0,1,155.12,22.24Z" transform="translate(-102.78 -8.9)"/><path class="cls-2" d="M109,53.81a13.28,13.28,0,0,1-1.57-.09c-3.28-.39-4-1.86-4.4-4.8-0.64-5.09,0-10,1.75-13.37a3,3,0,0,1,2.82-1.87,10.28,10.28,0,0,1,2.93.64l0.86,0.27c4.33,1.28,8.56,2.56,12.69,4.15l1.1,0.42,0.74,0.28L125,38.82,123.9,38c-1.08-.75-2.17-1.47-3.26-2.19-2.48-1.65-5-3.36-7.45-5.3-1.75-1.41-2.61-2.95-2.57-4.58,0.08-3.08,3.37-5.81,5.84-7.6l0.71-.52c2-1.49,5.37-4,7.9-4a3.39,3.39,0,0,1,.84.1c1.19,0.31,2.11,1.6,2.77,2.55l0.18,0.25c1.81,2.53,3.4,5.22,4.58,7.28s2.31,4.32,3.25,6.33c-0.39-2-.79-4.07-1.34-6a84.88,84.88,0,0,1-1.85-8.85c-0.13-.74-0.26-1.49-0.39-2.22a3.31,3.31,0,0,1,.17-2.52c0.44-.62,1.22-0.76,2.4-1l0.87-.16a32,32,0,0,1,5.91-.73,9.32,9.32,0,0,1,4.62,1c1.66,0.93,1.75,2.89,1.82,4.63,0,0.45,0,.89.08,1.3a49.16,49.16,0,0,1-.35,12.69c-0.18,1.27-.39,2.55-0.6,3.82-0.36,2.18-.73,4.43-0.95,6.61l0,0.35-6.3.25,0.59,1.37-7,3.37-0.16-.06c-0.55-.21-1.13-0.47-1.74-0.77a7.75,7.75,0,0,1-.35,2.29L132,46c-0.07.3-.15,0.6-0.23,0.91a14.32,14.32,0,0,0-.43,2v0.12L128.83,52l-0.1,0a15.77,15.77,0,0,1-5.21.68c-0.68,0-1.36,0-2,0-1.15,0-2.26-.05-3.26,0a37.21,37.21,0,0,0-4.06.55A30.89,30.89,0,0,1,109,53.81Zm39.25-39.16c-0.07-1.6-.08-3.33-1.35-4a9,9,0,0,0-4.34-1,26.84,26.84,0,0,0-5.46.87l-0.89.16a3.12,3.12,0,0,0-1.88.64,2.84,2.84,0,0,0,0,1.92c0.13,0.74.26,1.48,0.39,2.23,0.5,2.91.51,5.79,1.33,8.64,0.57,2,.94,4,1.34,6,0.22,1.14.52,2.46,0.77,3.58l-0.41.23A101.21,101.21,0,0,0,133,24.5c-1.17-2-2.81-4.74-4.6-7.24l-0.37-.55a4.85,4.85,0,0,0-2.36-2,5.62,5.62,0,0,0-1-.17c-2.26,0-4.66,2.48-6.59,3.91l-0.72.53c-3.65,2.64-5.46,4.92-5.51,7,0,1.36.73,2.69,2.27,3.93,2.38,1.92,4.41,3.63,6.88,5.27,1.09,0.72,1.73,1.28,2.82,2l1.9,1.41c1.44,1,2.63,1.6,4.17,2.56l-0.39.7c-1.52-.76-3.07-1.35-4.7-2l-1.11-.59c-4.1-1.59-8.3-2.69-12.61-4l-0.88-.27a6.11,6.11,0,0,0-2.69-.6c-1,0-1.26.89-1.76,1.88-1.68,3.27-2,7.48-1.4,12.41,0.35,2.79.82,3.86,3.58,4.19a5.61,5.61,0,0,0,1,.05,30.25,30.25,0,0,0,5-.58,37.73,37.73,0,0,1,4.15-.56c1-.06,2.16.11,3.33,0.14,0.66,0,1.39.14,2.06,0.14a15.42,15.42,0,0,0,4.78-.85l2.23-2.59a15.8,15.8,0,0,1,.43-2c0.08-.3.16-0.59,0.23-0.89l0.06-.26c0.44-1.84.51-2.25-.1-2.76l0.45-.66a23.55,23.55,0,0,0,2.64,1.27l6-2.89-0.75-1.74,6.77-.27c0.23-2.09.8-3.82,1.14-5.89,0.21-1.27.45-3.22,0.64-4.49a38.86,38.86,0,0,0,.3-11.2" transform="translate(-102.78 -8.9)"/><path class="cls-2" d="M164,41.36a0.4,0.4,0,0,1-.34-0.19c-0.12-.19.34-0.48,0.53-0.6a33.18,33.18,0,0,0,3.36-2.37c0.58-.45,1.38-1,2.12-1.57,0.92-.68,3.77-3,4.67-5.41,1.15-3-6.3-7.23-9.47-9l-1-.55c-0.25-.15-0.56-0.37-0.92-0.63-0.82-.59-2.08-1.24-2.64-1.06a6.64,6.64,0,0,0-2.05,2.22c-0.18.3-.32,0.55-0.42,0.7-2.4,3.62-5.65,8.16-7.53,13.21-0.08.21-.05,0.58-0.26,0.5a0.4,0.4,0,0,1-.24-0.52,69.81,69.81,0,0,1,7.36-13.64c0.09-.14.23-0.38,0.4-0.66,0.94-1.6,1.78-2.95,2.52-3.18s2,0.49,3.47,1.53c0.34,0.24.63,0.46,0.86,0.59l0.95,0.54c3.64,2.06,11.22,6.35,9.83,10-1,2.51-3.93,4.9-5.17,5.81-0.73.54-1.35,1-1.93,1.46a44.1,44.1,0,0,1-3.9,2.77A0.4,0.4,0,0,1,164,41.36Z" transform="translate(-102.78 -8.9)"/><path class="cls-3" d="M132.15,51.65c-0.84-.23-3.81-1.6-4.25-2.45-0.79-1.56,1.09-2.44,1.73-3.62,1-1.92-1.15-2.47-.64-4.16,0.3-1,1.21-.62,1.68-1.18a10.41,10.41,0,0,0,.95-1.77c0.12-.25.73-0.22,0.88-0.7S132,37,132,36.61a2.38,2.38,0,0,1,1.14-1.92C135,34,135.52,36,137,33.9c1.29-1.88,1-2.3,3.27-.95,2.07,1.21,2.45,0,4.29-1.09,1-.59.25-0.73,1.48-0.48a10,10,0,0,1,1.73,1c0.93,0.55,1.94,2,2.73,2.07,1,0,1.49-1.6,2.57-1,0.47,0.24.42,1.65,0.73,2.1,1,1.46,2.24,1.3,2.13,3.43-0.09,1.74-1.2,2.73-2.23,4-1.26,1.55-2.13,3.29-3.4,4.83-3.64,4.43-10.2,3.67-15.33,5.27Z" transform="translate(-102.78 -8.9)"/><path class="cls-1" d="M147,64c-1.64.69-3.65,0-5.39,0.11a33.28,33.28,0,0,1-8.77-.58c-2.15-.4-5.67-0.84-7.53-2s-0.62-2.43.34-4A44.46,44.46,0,0,1,133,48.22c1-1,2.49-2.37,3.95-2.08,1.74,0.35,3.41,2.76,4.51,4,1.59,1.81,3.37,3.51,4.9,5.33,0.59-2.7.34-5.6,1.09-8.38,0.3-1.13.69-4.08,1.8-4.77,1.3-.82,5-0.45,6.4-0.28s6.12,0.5,7.15,1.79c0.76,1-.32,3.72-0.66,4.89a29.34,29.34,0,0,1-3.87,7.36c-1.25,1.88-5,7-7.52,6.79Z" transform="translate(-102.78 -8.9)"/><path class="cls-2" d="M145.21,63.3c-0.55,0-1.1-.06-1.64-0.11a11.26,11.26,0,0,0-2-.09,33.51,33.51,0,0,1-8.87-.59l-1.09-.19c-2.2-.38-4.94-0.85-6.58-1.86A2.18,2.18,0,0,1,124,59.13a3.73,3.73,0,0,1,.92-2.63l0.38-.61a45.07,45.07,0,0,1,7.45-9.36c1.09-1,2.66-2.51,4.3-2.18s3,2,4.1,3.39c0.23,0.28.44,0.53,0.63,0.75,0.72,0.82,1.5,1.64,2.25,2.43s1.68,2.08,2.37,2.85c0.15-1,.11-2.68.18-3.7a23,23,0,0,1,.5-4.48c0.06-.22.12-0.51,0.19-0.84,0.32-1.49.75-3.52,1.78-4.16s3.19-.74,6.66-0.34l0.65,0.07c2.79,0.29,5.84.69,6.77,1.87,0.72,0.9.23,2.7-.39,4.62-0.08.24-.15,0.45-0.2,0.63a29.47,29.47,0,0,1-3.92,7.47,19.68,19.68,0,0,1-7.29,6.78L147.08,63A4.77,4.77,0,0,1,145.21,63.3Zm-1.43-.75c0.52,0.05,1.18.07,1.68,0.07a10.32,10.32,0,0,0,2.56-.51l2.68-1.06s3.59-.58,7.57-6.67a27.81,27.81,0,0,0,3.55-7.18c0.05-.18.32-0.78,0.4-1,0.36-1.13.79-2.82,0.15-3.33-1.61-1.28-3.87-1.26-5.49-1.43-0.25,0-1.29-.05-1.47-0.07a25.9,25.9,0,0,0-3.19-.19,5,5,0,0,0-2.78.59c-0.74.46-1.16,2-1.42,3.16-0.07.35-.14,0.65-0.2,0.88a24.39,24.39,0,0,0-.61,4.49,28.18,28.18,0,0,1-.47,3.87l-0.17.8-0.53-.62c-0.83-1-1.74-1.94-2.63-2.87s-1.54-1.62-2.27-2.45c-0.2-.23-0.41-0.49-0.65-0.77-1-1.21-1.88-2.61-3.18-2.86s-2.62,1-3.59,2a44.26,44.26,0,0,0-7.32,9.19l-0.39.63a3.28,3.28,0,0,0-.82,2A1.45,1.45,0,0,0,126,60a16.26,16.26,0,0,0,5.63,1.61c0.39,0.07,1.6.19,1.94,0.26A90.2,90.2,0,0,0,143.78,62.55Z" transform="translate(-102.78 -8.9)"/><path class="cls-4" d="M138.71,43.13a0.19,0.19,0,0,0,.11-0.27,6.13,6.13,0,0,1-.55-2.34,0.9,0.9,0,0,1,.72-0.64,1.19,1.19,0,0,1,1.08.81,10.56,10.56,0,0,1,.34,1.7c0,0.13,0,.24.17,0.22s0.13-.1.11-0.23a11.37,11.37,0,0,0-.34-1.79l-0.06-.22a1.42,1.42,0,0,0-1.33-1,1.28,1.28,0,0,0-1.13,1.28,4.82,4.82,0,0,0,.61,2.16L138.53,43A0.25,0.25,0,0,0,138.71,43.13Z" transform="translate(-102.78 -8.9)"/><path class="cls-4" d="M144.61,44.16a0.16,0.16,0,0,1-.19-0.16,5.2,5.2,0,0,0-.47-2,0.77,0.77,0,0,0-.79-0.21,1,1,0,0,0-.51,1,9,9,0,0,0,.39,1.42c0,0.1.06,0.19,0,.23s-0.13,0-.17-0.13a9.77,9.77,0,0,1-.42-1.49l0-.19a1.21,1.21,0,0,1,.63-1.28,1.09,1.09,0,0,1,1.34.54,4.11,4.11,0,0,1,.36,1.88c0,0.08,0,.14,0,0.17A0.21,0.21,0,0,1,144.61,44.16Z" transform="translate(-102.78 -8.9)"/><path class="cls-4" d="M147.32,41.2a0.15,0.15,0,0,1-.14-0.19,5,5,0,0,0,0-1.95,0.73,0.73,0,0,0-.69-0.36,1,1,0,0,0-.69.85,8.55,8.55,0,0,0,.07,1.4c0,0.11,0,.19-0.09.21s-0.12-.05-0.13-0.16a9.33,9.33,0,0,1-.08-1.48V39.33a1.15,1.15,0,0,1,.85-1.06,1,1,0,0,1,1.14.79,3.9,3.9,0,0,1-.06,1.82l0,0.16A0.2,0.2,0,0,1,147.32,41.2Z" transform="translate(-102.78 -8.9)"/><path class="cls-4" d="M143.68,38.68a0.14,0.14,0,0,1-.11-0.18,5.21,5.21,0,0,0,0-1.78,0.57,0.57,0,0,0-.55-0.34,0.85,0.85,0,0,0-.54.77,9.09,9.09,0,0,0,.07,1.28c0,0.1,0,.18-0.07.19s-0.09-.05-0.11-0.15a9.83,9.83,0,0,1-.08-1.35V37a1,1,0,0,1,.66-1,0.85,0.85,0,0,1,.9.73,4.09,4.09,0,0,1,0,1.66l0,0.15A0.17,0.17,0,0,1,143.68,38.68Z" transform="translate(-102.78 -8.9)"/><path class="cls-4" d="M141.35,35.83a0.17,0.17,0,0,1-.16-0.19,6.28,6.28,0,0,0-.36-2.09,0.68,0.68,0,0,0-.71-0.3,1,1,0,0,0-.5,1,10.83,10.83,0,0,0,.31,1.5c0,0.11,0,.21,0,0.24s-0.12,0-.15-0.15a11.67,11.67,0,0,1-.34-1.58l0-.19a1.2,1.2,0,0,1,.61-1.25,1,1,0,0,1,1.2.7,4.86,4.86,0,0,1,.26,2c0,0.08,0,.14,0,0.18A0.21,0.21,0,0,1,141.35,35.83Z" transform="translate(-102.78 -8.9)"/><path class="cls-4" d="M136.48,35.35a0.2,0.2,0,0,1-.25-0.16A7.38,7.38,0,0,0,135.1,33a0.81,0.81,0,0,0-.9-0.09,1.21,1.21,0,0,0-.21,1.3,12.72,12.72,0,0,0,.86,1.58c0.07,0.11.12,0.22,0,.28s-0.15,0-.22-0.12a13.84,13.84,0,0,1-.92-1.66l-0.1-.21a1.41,1.41,0,0,1,.25-1.62,1.2,1.2,0,0,1,1.59.37,5.76,5.76,0,0,1,1,2.12l0.07,0.2A0.24,0.24,0,0,1,136.48,35.35Z" transform="translate(-102.78 -8.9)"/><path class="cls-4" d="M132.79,39.73a0.17,0.17,0,0,1-.23-0.11,6.26,6.26,0,0,0-1.17-1.77,0.68,0.68,0,0,0-.77,0,1,1,0,0,0-.06,1.12,10.87,10.87,0,0,0,.88,1.25c0.07,0.09.13,0.17,0.05,0.24s-0.13,0-.2-0.08a11.71,11.71,0,0,1-.94-1.32l-0.11-.17a1.2,1.2,0,0,1,.06-1.39,1,1,0,0,1,1.38.16,4.9,4.9,0,0,1,1,1.7l0.08,0.16A0.21,0.21,0,0,1,132.79,39.73Z" transform="translate(-102.78 -8.9)"/><path class="cls-4" d="M130.93,42.42a0.17,0.17,0,0,1-.25,0A6.29,6.29,0,0,0,129,41a0.68,0.68,0,0,0-.74.24,1,1,0,0,0,.28,1.09,11,11,0,0,0,1.21.94c0.1,0.06.17,0.13,0.12,0.21s-0.12,0-.21,0a11.75,11.75,0,0,1-1.29-1l-0.15-.13a1.2,1.2,0,0,1-.36-1.35,1,1,0,0,1,1.36-.25,4.9,4.9,0,0,1,1.48,1.32l0.12,0.14A0.21,0.21,0,0,1,130.93,42.42Z" transform="translate(-102.78 -8.9)"/><path class="cls-4" d="M134.47,45.25a0.17,0.17,0,0,1-.25,0,6.27,6.27,0,0,0-1.64-1.35,0.68,0.68,0,0,0-.74.24,1,1,0,0,0,.28,1.09,11,11,0,0,0,1.21.94c0.1,0.06.17,0.13,0.12,0.21s-0.12,0-.21,0a11.67,11.67,0,0,1-1.29-1l-0.15-.13a1.2,1.2,0,0,1-.36-1.35,1,1,0,0,1,1.36-.25,4.89,4.89,0,0,1,1.49,1.32l0.12,0.14A0.21,0.21,0,0,1,134.47,45.25Z" transform="translate(-102.78 -8.9)"/><path class="cls-4" d="M137.1,43.76a0.17,0.17,0,0,1-.22-0.13,6.22,6.22,0,0,0-1-1.87,0.68,0.68,0,0,0-.77-0.06,1,1,0,0,0-.16,1.11,11,11,0,0,0,.76,1.33c0.07,0.1.11,0.18,0,.24s-0.13,0-.19-0.1a11.51,11.51,0,0,1-.82-1.4l-0.09-.17a1.2,1.2,0,0,1,.19-1.38,1,1,0,0,1,1.36.29,4.89,4.89,0,0,1,.87,1.79l0.06,0.17A0.21,0.21,0,0,1,137.1,43.76Z" transform="translate(-102.78 -8.9)"/><path class="cls-4" d="M147.29,35.75a0.17,0.17,0,0,1-.1-0.23,6.26,6.26,0,0,0,.29-2.1,0.68,0.68,0,0,0-.59-0.5,1,1,0,0,0-.78.81,10.81,10.81,0,0,0-.16,1.52c0,0.12,0,.21-0.12.21s-0.1-.08-0.1-0.19a11.61,11.61,0,0,1,.16-1.61l0-.2a1.2,1.2,0,0,1,1-1,1,1,0,0,1,.93,1,4.88,4.88,0,0,1-.34,2l-0.05.17A0.21,0.21,0,0,1,147.29,35.75Z" transform="translate(-102.78 -8.9)"/><path class="cls-4" d="M150.83,38.92a0.19,0.19,0,0,1-.11-0.26,7.07,7.07,0,0,0,.33-2.38,0.77,0.77,0,0,0-.66-0.57,1.16,1.16,0,0,0-.88.91,12.19,12.19,0,0,0-.18,1.73c0,0.13,0,.24-0.13.24s-0.12-.09-0.11-0.22a13.11,13.11,0,0,1,.18-1.82l0-.22a1.35,1.35,0,0,1,1.09-1.14,1.15,1.15,0,0,1,1.06,1.16,5.53,5.53,0,0,1-.39,2.21l-0.06.2A0.24,0.24,0,0,1,150.83,38.92Z" transform="translate(-102.78 -8.9)"/><path class="cls-2" d="M139,43.62a0.19,0.19,0,0,0,.09-0.28,6.13,6.13,0,0,1-.7-2.3,0.9,0.9,0,0,1,.68-0.69,1.19,1.19,0,0,1,1.13.74,10.49,10.49,0,0,1,.44,1.68c0,0.13.05,0.23,0.18,0.21s0.12-.11.1-0.24a11.41,11.41,0,0,0-.45-1.77l-0.07-.22a1.42,1.42,0,0,0-1.39-.93,1.28,1.28,0,0,0-1,1.35,4.82,4.82,0,0,0,.74,2.12l0.09,0.18A0.25,0.25,0,0,0,139,43.62Z" transform="translate(-102.78 -8.9)"/><path class="cls-2" d="M144.91,44.28a0.16,0.16,0,0,1-.2-0.15,5.2,5.2,0,0,0-.59-2,0.77,0.77,0,0,0-.8-0.16,1,1,0,0,0-.45,1.05,8.89,8.89,0,0,0,.48,1.39c0,0.1.07,0.19,0,.24s-0.14,0-.18-0.12a9.81,9.81,0,0,1-.52-1.46l-0.05-.18a1.21,1.21,0,0,1,.54-1.31,1.09,1.09,0,0,1,1.38.46,4.1,4.1,0,0,1,.48,1.85c0,0.08,0,.14,0,0.17A0.21,0.21,0,0,1,144.91,44.28Z" transform="translate(-102.78 -8.9)"/><path class="cls-2" d="M147.44,41.15a0.15,0.15,0,0,1-.15-0.18,5,5,0,0,0-.14-1.94,0.73,0.73,0,0,0-.72-0.32,1,1,0,0,0-.64.89,8.55,8.55,0,0,0,.15,1.4c0,0.1,0,.19-0.08.21s-0.12,0-.14-0.15a9.34,9.34,0,0,1-.18-1.47V39.4a1.15,1.15,0,0,1,.78-1.11,1,1,0,0,1,1.19.71,3.91,3.91,0,0,1,.06,1.82l0,0.17A0.2,0.2,0,0,1,147.44,41.15Z" transform="translate(-102.78 -8.9)"/><path class="cls-2" d="M143.64,38.86a0.14,0.14,0,0,1-.12-0.17,5.21,5.21,0,0,0-.15-1.77,0.57,0.57,0,0,0-.57-0.3,0.85,0.85,0,0,0-.49.8,9.06,9.06,0,0,0,.14,1.27c0,0.1,0,.17-0.06.19s-0.1,0-.11-0.14a9.85,9.85,0,0,1-.16-1.34V37.24a1,1,0,0,1,.6-1,0.85,0.85,0,0,1,.95.67,4.1,4.1,0,0,1,.07,1.66c0,0.06,0,.12,0,0.15A0.17,0.17,0,0,1,143.64,38.86Z" transform="translate(-102.78 -8.9)"/><path class="cls-2" d="M141.15,36.17A0.17,0.17,0,0,1,141,36a6.28,6.28,0,0,0-.49-2.07,0.68,0.68,0,0,0-.73-0.26,1,1,0,0,0-.44,1,10.84,10.84,0,0,0,.4,1.48c0,0.11.06,0.2,0,.24s-0.12,0-.16-0.14a11.68,11.68,0,0,1-.43-1.56l0-.19a1.2,1.2,0,0,1,.53-1.29,1,1,0,0,1,1.24.62,4.86,4.86,0,0,1,.39,1.95c0,0.08,0,.14,0,0.18A0.21,0.21,0,0,1,141.15,36.17Z" transform="translate(-102.78 -8.9)"/><path class="cls-2" d="M136.25,36a0.2,0.2,0,0,1-.26-0.14,7.39,7.39,0,0,0-1.27-2.16,0.8,0.8,0,0,0-.91,0,1.21,1.21,0,0,0-.13,1.31,12.75,12.75,0,0,0,1,1.53c0.08,0.11.14,0.21,0,.28s-0.15,0-.23-0.11a13.84,13.84,0,0,1-1-1.6l-0.12-.2a1.41,1.41,0,0,1,.15-1.63,1.2,1.2,0,0,1,1.61.27,5.76,5.76,0,0,1,1.11,2.06l0.08,0.2A0.24,0.24,0,0,1,136.25,36Z" transform="translate(-102.78 -8.9)"/><path class="cls-2" d="M132.84,40.59a0.17,0.17,0,0,1-.23-0.09,6.26,6.26,0,0,0-1.27-1.7,0.68,0.68,0,0,0-.77.06,1,1,0,0,0,0,1.12,10.8,10.8,0,0,0,1,1.2c0.08,0.09.14,0.16,0.07,0.23s-0.13,0-.2-0.07a11.79,11.79,0,0,1-1-1.25l-0.12-.16a1.2,1.2,0,0,1,0-1.39,1,1,0,0,1,1.38.07,4.9,4.9,0,0,1,1.13,1.63l0.09,0.16A0.21,0.21,0,0,1,132.84,40.59Z" transform="translate(-102.78 -8.9)"/><path class="cls-2" d="M131.15,43.39a0.17,0.17,0,0,1-.25,0,6.27,6.27,0,0,0-1.72-1.24,0.68,0.68,0,0,0-.72.28,1,1,0,0,0,.34,1.07,11,11,0,0,0,1.27.86c0.1,0.06.18,0.11,0.13,0.2s-0.12.05-.22,0a11.76,11.76,0,0,1-1.35-.9l-0.16-.12a1.2,1.2,0,0,1-.44-1.32,1,1,0,0,1,1.34-.34A4.89,4.89,0,0,1,131,43.08l0.13,0.13A0.21,0.21,0,0,1,131.15,43.39Z" transform="translate(-102.78 -8.9)"/><path class="cls-2" d="M134.86,46a0.17,0.17,0,0,1-.25,0,6.27,6.27,0,0,0-1.72-1.24,0.68,0.68,0,0,0-.72.28,1,1,0,0,0,.34,1.07,11,11,0,0,0,1.27.86c0.1,0.06.18,0.11,0.13,0.2s-0.12.05-.22,0a11.76,11.76,0,0,1-1.35-.9l-0.16-.12a1.2,1.2,0,0,1-.44-1.32,1,1,0,0,1,1.34-.34,4.89,4.89,0,0,1,1.56,1.22l0.13,0.13A0.21,0.21,0,0,1,134.86,46Z" transform="translate(-102.78 -8.9)"/><path class="cls-2" d="M137.4,44.35a0.17,0.17,0,0,1-.22-0.11,6.25,6.25,0,0,0-1.11-1.81,0.68,0.68,0,0,0-.77,0,1,1,0,0,0-.09,1.12A10.87,10.87,0,0,0,136,44.8c0.07,0.09.12,0.17,0,.24s-0.13,0-.2-0.09a11.63,11.63,0,0,1-.9-1.34l-0.1-.17a1.2,1.2,0,0,1,.1-1.39,1,1,0,0,1,1.37.2,4.89,4.89,0,0,1,1,1.73l0.07,0.17A0.21,0.21,0,0,1,137.4,44.35Z" transform="translate(-102.78 -8.9)"/><path class="cls-2" d="M147.06,35.71a0.17,0.17,0,0,1-.11-0.22,6.25,6.25,0,0,0,.16-2.12,0.68,0.68,0,0,0-.62-0.46,1,1,0,0,0-.73.85,10.82,10.82,0,0,0-.06,1.53c0,0.12,0,.21-0.1.22s-0.11-.07-0.11-0.19a11.6,11.6,0,0,1,.06-1.62l0-.2a1.2,1.2,0,0,1,.9-1.07,1,1,0,0,1,1,1,4.89,4.89,0,0,1-.22,2l0,0.18A0.21,0.21,0,0,1,147.06,35.71Z" transform="translate(-102.78 -8.9)"/><path class="cls-2" d="M150.8,38.66a0.19,0.19,0,0,1-.13-0.25,7.08,7.08,0,0,0,.18-2.4,0.77,0.77,0,0,0-.7-0.52,1.16,1.16,0,0,0-.82,1,12.21,12.21,0,0,0-.07,1.73c0,0.13,0,.24-0.12.25S149,38.35,149,38.22a13.15,13.15,0,0,1,.06-1.83l0-.22a1.35,1.35,0,0,1,1-1.21,1.15,1.15,0,0,1,1.13,1.09,5.53,5.53,0,0,1-.25,2.23l0,0.2A0.24,0.24,0,0,1,150.8,38.66Z" transform="translate(-102.78 -8.9)"/><path class="cls-4" d="M138.71,43.13a0.19,0.19,0,0,0,.11-0.27,6.13,6.13,0,0,1-.55-2.34,0.9,0.9,0,0,1,.72-0.64,1.19,1.19,0,0,1,1.08.81,10.56,10.56,0,0,1,.34,1.7c0,0.13,0,.24.17,0.22s0.13-.1.11-0.23a11.37,11.37,0,0,0-.34-1.79l-0.06-.22a1.42,1.42,0,0,0-1.33-1,1.28,1.28,0,0,0-1.13,1.28,4.82,4.82,0,0,0,.61,2.16L138.53,43A0.25,0.25,0,0,0,138.71,43.13Z" transform="translate(-102.78 -8.9)"/><path class="cls-4" d="M144.61,44.16a0.16,0.16,0,0,1-.19-0.16,5.2,5.2,0,0,0-.47-2,0.77,0.77,0,0,0-.79-0.21,1,1,0,0,0-.51,1,9,9,0,0,0,.39,1.42c0,0.1.06,0.19,0,.23s-0.13,0-.17-0.13a9.77,9.77,0,0,1-.42-1.49l0-.19a1.21,1.21,0,0,1,.63-1.28,1.09,1.09,0,0,1,1.34.54,4.11,4.11,0,0,1,.36,1.88c0,0.08,0,.14,0,0.17A0.21,0.21,0,0,1,144.61,44.16Z" transform="translate(-102.78 -8.9)"/><path class="cls-4" d="M147.32,41.2a0.15,0.15,0,0,1-.14-0.19,5,5,0,0,0,0-1.95,0.73,0.73,0,0,0-.69-0.36,1,1,0,0,0-.69.85,8.55,8.55,0,0,0,.07,1.4c0,0.11,0,.19-0.09.21s-0.12-.05-0.13-0.16a9.33,9.33,0,0,1-.08-1.48V39.33a1.15,1.15,0,0,1,.85-1.06,1,1,0,0,1,1.14.79,3.9,3.9,0,0,1-.06,1.82l0,0.16A0.2,0.2,0,0,1,147.32,41.2Z" transform="translate(-102.78 -8.9)"/><path class="cls-4" d="M143.68,38.68a0.14,0.14,0,0,1-.11-0.18,5.21,5.21,0,0,0,0-1.78,0.57,0.57,0,0,0-.55-0.34,0.85,0.85,0,0,0-.54.77,9.09,9.09,0,0,0,.07,1.28c0,0.1,0,.18-0.07.19s-0.09-.05-0.11-0.15a9.83,9.83,0,0,1-.08-1.35V37a1,1,0,0,1,.66-1,0.85,0.85,0,0,1,.9.73,4.09,4.09,0,0,1,0,1.66l0,0.15A0.17,0.17,0,0,1,143.68,38.68Z" transform="translate(-102.78 -8.9)"/><path class="cls-4" d="M141.35,35.83a0.17,0.17,0,0,1-.16-0.19,6.28,6.28,0,0,0-.36-2.09,0.68,0.68,0,0,0-.71-0.3,1,1,0,0,0-.5,1,10.83,10.83,0,0,0,.31,1.5c0,0.11,0,.21,0,0.24s-0.12,0-.15-0.15a11.67,11.67,0,0,1-.34-1.58l0-.19a1.2,1.2,0,0,1,.61-1.25,1,1,0,0,1,1.2.7,4.86,4.86,0,0,1,.26,2c0,0.08,0,.14,0,0.18A0.21,0.21,0,0,1,141.35,35.83Z" transform="translate(-102.78 -8.9)"/><path class="cls-4" d="M136.48,35.35a0.2,0.2,0,0,1-.25-0.16A7.38,7.38,0,0,0,135.1,33a0.81,0.81,0,0,0-.9-0.09,1.21,1.21,0,0,0-.21,1.3,12.72,12.72,0,0,0,.86,1.58c0.07,0.11.12,0.22,0,.28s-0.15,0-.22-0.12a13.84,13.84,0,0,1-.92-1.66l-0.1-.21a1.41,1.41,0,0,1,.25-1.62,1.2,1.2,0,0,1,1.59.37,5.76,5.76,0,0,1,1,2.12l0.07,0.2A0.24,0.24,0,0,1,136.48,35.35Z" transform="translate(-102.78 -8.9)"/><path class="cls-4" d="M132.79,39.73a0.17,0.17,0,0,1-.23-0.11,6.26,6.26,0,0,0-1.17-1.77,0.68,0.68,0,0,0-.77,0,1,1,0,0,0-.06,1.12,10.87,10.87,0,0,0,.88,1.25c0.07,0.09.13,0.17,0.05,0.24s-0.13,0-.2-0.08a11.71,11.71,0,0,1-.94-1.32l-0.11-.17a1.2,1.2,0,0,1,.06-1.39,1,1,0,0,1,1.38.16,4.9,4.9,0,0,1,1,1.7l0.08,0.16A0.21,0.21,0,0,1,132.79,39.73Z" transform="translate(-102.78 -8.9)"/><path class="cls-4" d="M130.93,42.42a0.17,0.17,0,0,1-.25,0A6.29,6.29,0,0,0,129,41a0.68,0.68,0,0,0-.74.24,1,1,0,0,0,.28,1.09,11,11,0,0,0,1.21.94c0.1,0.06.17,0.13,0.12,0.21s-0.12,0-.21,0a11.75,11.75,0,0,1-1.29-1l-0.15-.13a1.2,1.2,0,0,1-.36-1.35,1,1,0,0,1,1.36-.25,4.9,4.9,0,0,1,1.48,1.32l0.12,0.14A0.21,0.21,0,0,1,130.93,42.42Z" transform="translate(-102.78 -8.9)"/><path class="cls-4" d="M134.47,45.25a0.17,0.17,0,0,1-.25,0,6.27,6.27,0,0,0-1.64-1.35,0.68,0.68,0,0,0-.74.24,1,1,0,0,0,.28,1.09,11,11,0,0,0,1.21.94c0.1,0.06.17,0.13,0.12,0.21s-0.12,0-.21,0a11.67,11.67,0,0,1-1.29-1l-0.15-.13a1.2,1.2,0,0,1-.36-1.35,1,1,0,0,1,1.36-.25,4.89,4.89,0,0,1,1.49,1.32l0.12,0.14A0.21,0.21,0,0,1,134.47,45.25Z" transform="translate(-102.78 -8.9)"/><path class="cls-4" d="M137.1,43.76a0.17,0.17,0,0,1-.22-0.13,6.22,6.22,0,0,0-1-1.87,0.68,0.68,0,0,0-.77-0.06,1,1,0,0,0-.16,1.11,11,11,0,0,0,.76,1.33c0.07,0.1.11,0.18,0,.24s-0.13,0-.19-0.1a11.51,11.51,0,0,1-.82-1.4l-0.09-.17a1.2,1.2,0,0,1,.19-1.38,1,1,0,0,1,1.36.29,4.89,4.89,0,0,1,.87,1.79l0.06,0.17A0.21,0.21,0,0,1,137.1,43.76Z" transform="translate(-102.78 -8.9)"/><path class="cls-4" d="M147.29,35.75a0.17,0.17,0,0,1-.1-0.23,6.26,6.26,0,0,0,.29-2.1,0.68,0.68,0,0,0-.59-0.5,1,1,0,0,0-.78.81,10.81,10.81,0,0,0-.16,1.52c0,0.12,0,.21-0.12.21s-0.1-.08-0.1-0.19a11.61,11.61,0,0,1,.16-1.61l0-.2a1.2,1.2,0,0,1,1-1,1,1,0,0,1,.93,1,4.88,4.88,0,0,1-.34,2l-0.05.17A0.21,0.21,0,0,1,147.29,35.75Z" transform="translate(-102.78 -8.9)"/><path class="cls-4" d="M150.83,38.92a0.19,0.19,0,0,1-.11-0.26,7.07,7.07,0,0,0,.33-2.38,0.77,0.77,0,0,0-.66-0.57,1.16,1.16,0,0,0-.88.91,12.19,12.19,0,0,0-.18,1.73c0,0.13,0,.24-0.13.24s-0.12-.09-0.11-0.22a13.11,13.11,0,0,1,.18-1.82l0-.22a1.35,1.35,0,0,1,1.09-1.14,1.15,1.15,0,0,1,1.06,1.16,5.53,5.53,0,0,1-.39,2.21l-0.06.2A0.24,0.24,0,0,1,150.83,38.92Z" transform="translate(-102.78 -8.9)"/><path class="cls-2" d="M139,43.62a0.19,0.19,0,0,0,.09-0.28,6.13,6.13,0,0,1-.7-2.3,0.9,0.9,0,0,1,.68-0.69,1.19,1.19,0,0,1,1.13.74,10.49,10.49,0,0,1,.44,1.68c0,0.13.05,0.23,0.18,0.21s0.12-.11.1-0.24a11.41,11.41,0,0,0-.45-1.77l-0.07-.22a1.42,1.42,0,0,0-1.39-.93,1.28,1.28,0,0,0-1,1.35,4.82,4.82,0,0,0,.74,2.12l0.09,0.18A0.25,0.25,0,0,0,139,43.62Z" transform="translate(-102.78 -8.9)"/><path class="cls-2" d="M144.91,44.28a0.16,0.16,0,0,1-.2-0.15,5.2,5.2,0,0,0-.59-2,0.77,0.77,0,0,0-.8-0.16,1,1,0,0,0-.45,1.05,8.89,8.89,0,0,0,.48,1.39c0,0.1.07,0.19,0,.24s-0.14,0-.18-0.12a9.81,9.81,0,0,1-.52-1.46l-0.05-.18a1.21,1.21,0,0,1,.54-1.31,1.09,1.09,0,0,1,1.38.46,4.1,4.1,0,0,1,.48,1.85c0,0.08,0,.14,0,0.17A0.21,0.21,0,0,1,144.91,44.28Z" transform="translate(-102.78 -8.9)"/><path class="cls-2" d="M147.44,41.15a0.15,0.15,0,0,1-.15-0.18,5,5,0,0,0-.14-1.94,0.73,0.73,0,0,0-.72-0.32,1,1,0,0,0-.64.89,8.55,8.55,0,0,0,.15,1.4c0,0.1,0,.19-0.08.21s-0.12,0-.14-0.15a9.34,9.34,0,0,1-.18-1.47V39.4a1.15,1.15,0,0,1,.78-1.11,1,1,0,0,1,1.19.71,3.91,3.91,0,0,1,.06,1.82l0,0.17A0.2,0.2,0,0,1,147.44,41.15Z" transform="translate(-102.78 -8.9)"/><path class="cls-2" d="M143.64,38.86a0.14,0.14,0,0,1-.12-0.17,5.21,5.21,0,0,0-.15-1.77,0.57,0.57,0,0,0-.57-0.3,0.85,0.85,0,0,0-.49.8,9.06,9.06,0,0,0,.14,1.27c0,0.1,0,.17-0.06.19s-0.1,0-.11-0.14a9.85,9.85,0,0,1-.16-1.34V37.24a1,1,0,0,1,.6-1,0.85,0.85,0,0,1,.95.67,4.1,4.1,0,0,1,.07,1.66c0,0.06,0,.12,0,0.15A0.17,0.17,0,0,1,143.64,38.86Z" transform="translate(-102.78 -8.9)"/><path class="cls-2" d="M141.15,36.17A0.17,0.17,0,0,1,141,36a6.28,6.28,0,0,0-.49-2.07,0.68,0.68,0,0,0-.73-0.26,1,1,0,0,0-.44,1,10.84,10.84,0,0,0,.4,1.48c0,0.11.06,0.2,0,.24s-0.12,0-.16-0.14a11.68,11.68,0,0,1-.43-1.56l0-.19a1.2,1.2,0,0,1,.53-1.29,1,1,0,0,1,1.24.62,4.86,4.86,0,0,1,.39,1.95c0,0.08,0,.14,0,0.18A0.21,0.21,0,0,1,141.15,36.17Z" transform="translate(-102.78 -8.9)"/><path class="cls-2" d="M136.25,36a0.2,0.2,0,0,1-.26-0.14,7.39,7.39,0,0,0-1.27-2.16,0.8,0.8,0,0,0-.91,0,1.21,1.21,0,0,0-.13,1.31,12.75,12.75,0,0,0,1,1.53c0.08,0.11.14,0.21,0,.28s-0.15,0-.23-0.11a13.84,13.84,0,0,1-1-1.6l-0.12-.2a1.41,1.41,0,0,1,.15-1.63,1.2,1.2,0,0,1,1.61.27,5.76,5.76,0,0,1,1.11,2.06l0.08,0.2A0.24,0.24,0,0,1,136.25,36Z" transform="translate(-102.78 -8.9)"/><path class="cls-2" d="M132.84,40.59a0.17,0.17,0,0,1-.23-0.09,6.26,6.26,0,0,0-1.27-1.7,0.68,0.68,0,0,0-.77.06,1,1,0,0,0,0,1.12,10.8,10.8,0,0,0,1,1.2c0.08,0.09.14,0.16,0.07,0.23s-0.13,0-.2-0.07a11.79,11.79,0,0,1-1-1.25l-0.12-.16a1.2,1.2,0,0,1,0-1.39,1,1,0,0,1,1.38.07,4.9,4.9,0,0,1,1.13,1.63l0.09,0.16A0.21,0.21,0,0,1,132.84,40.59Z" transform="translate(-102.78 -8.9)"/><path class="cls-2" d="M131.15,43.39a0.17,0.17,0,0,1-.25,0,6.27,6.27,0,0,0-1.72-1.24,0.68,0.68,0,0,0-.72.28,1,1,0,0,0,.34,1.07,11,11,0,0,0,1.27.86c0.1,0.06.18,0.11,0.13,0.2s-0.12.05-.22,0a11.76,11.76,0,0,1-1.35-.9l-0.16-.12a1.2,1.2,0,0,1-.44-1.32,1,1,0,0,1,1.34-.34A4.89,4.89,0,0,1,131,43.08l0.13,0.13A0.21,0.21,0,0,1,131.15,43.39Z" transform="translate(-102.78 -8.9)"/><path class="cls-2" d="M134.86,46a0.17,0.17,0,0,1-.25,0,6.27,6.27,0,0,0-1.72-1.24,0.68,0.68,0,0,0-.72.28,1,1,0,0,0,.34,1.07,11,11,0,0,0,1.27.86c0.1,0.06.18,0.11,0.13,0.2s-0.12.05-.22,0a11.76,11.76,0,0,1-1.35-.9l-0.16-.12a1.2,1.2,0,0,1-.44-1.32,1,1,0,0,1,1.34-.34,4.89,4.89,0,0,1,1.56,1.22l0.13,0.13A0.21,0.21,0,0,1,134.86,46Z" transform="translate(-102.78 -8.9)"/><path class="cls-2" d="M137.4,44.35a0.17,0.17,0,0,1-.22-0.11,6.25,6.25,0,0,0-1.11-1.81,0.68,0.68,0,0,0-.77,0,1,1,0,0,0-.09,1.12A10.87,10.87,0,0,0,136,44.8c0.07,0.09.12,0.17,0,.24s-0.13,0-.2-0.09a11.63,11.63,0,0,1-.9-1.34l-0.1-.17a1.2,1.2,0,0,1,.1-1.39,1,1,0,0,1,1.37.2,4.89,4.89,0,0,1,1,1.73l0.07,0.17A0.21,0.21,0,0,1,137.4,44.35Z" transform="translate(-102.78 -8.9)"/><path class="cls-2" d="M147.06,35.71a0.17,0.17,0,0,1-.11-0.22,6.25,6.25,0,0,0,.16-2.12,0.68,0.68,0,0,0-.62-0.46,1,1,0,0,0-.73.85,10.82,10.82,0,0,0-.06,1.53c0,0.12,0,.21-0.1.22s-0.11-.07-0.11-0.19a11.6,11.6,0,0,1,.06-1.62l0-.2a1.2,1.2,0,0,1,.9-1.07,1,1,0,0,1,1,1,4.89,4.89,0,0,1-.22,2l0,0.18A0.21,0.21,0,0,1,147.06,35.71Z" transform="translate(-102.78 -8.9)"/><path class="cls-2" d="M150.8,38.66a0.19,0.19,0,0,1-.13-0.25,7.08,7.08,0,0,0,.18-2.4,0.77,0.77,0,0,0-.7-0.52,1.16,1.16,0,0,0-.82,1,12.21,12.21,0,0,0-.07,1.73c0,0.13,0,.24-0.12.25S149,38.35,149,38.22a13.15,13.15,0,0,1,.06-1.83l0-.22a1.35,1.35,0,0,1,1-1.21,1.15,1.15,0,0,1,1.13,1.09,5.53,5.53,0,0,1-.25,2.23l0,0.2A0.24,0.24,0,0,1,150.8,38.66Z" transform="translate(-102.78 -8.9)"/></svg>