<svg id="WW_SecondaryIcons_FlowersLeaves_CMYK" xmlns="http://www.w3.org/2000/svg" viewBox="0 0 60.36 56.57"><defs><style>.cls-1{fill:#faf9f3;}.cls-2{fill:#ef78a5;}.cls-3{fill:#644130;}</style></defs><title>Icons_FlowersLeaves_11</title><path class="cls-1" d="M40.43,55a1.26,1.26,0,0,1,.89.29A11.4,11.4,0,0,1,41.27,59c-0.31.6-1.45,2.19-1.14,3.61a4.07,4.07,0,0,0,2.32,2.77c0.62,0.08,1.93-1.37,2.17-2.63s-1.43-2.87-1.34-3.86,0.26-2.83.26-2.83a4.39,4.39,0,0,1,.55-1.45l-3.63-.53Z" transform="translate(-4.85 -8.9)"/><path class="cls-1" d="M15.57,49.53a2.93,2.93,0,0,1,1,.82c0.14,0.52.35,3.68,0,4.39S15,57.33,15.35,59s2,3.12,2.77,3.2,2.24-1.64,2.49-3.12S18.89,55.73,19,54.58s0.27-4.31.27-4.31,0-.06.6-1.2l-4.25-.55Z" transform="translate(-4.85 -8.9)"/><path class="cls-2" d="M41.09,44.16a6.53,6.53,0,0,1,4.18-4.69,5.4,5.4,0,0,1,5.44,1.89c1.3,2,.89,5.57,0,7.75-2,4.81-6.52,6.48-6.28,8.63,0.38,3.44,3.14,1.77,2.3,3.09-0.61,1-3.11.58-3.67-.33S42.24,59,41.8,58.26c-0.28,1.62-.91,2.23-2.44,3-1.13.58-3.46-.51-2.85-1.91,0.32-.75,2.59.81,2.6-0.88,0-2.34-2.09-3-3.53-4.48-3.39-3.4-6.29-6.19-4.73-10.46a5.42,5.42,0,0,1,5.07-3.72C38.45,39.81,40.62,42.74,41.09,44.16Z" transform="translate(-4.85 -8.9)"/><path class="cls-2" d="M16.72,37c0.2-1.84,2.44-3.94,4.12-4.57a5.11,5.11,0,0,1,5.34,1.27c1.7,1.77,2.35,5.86,1.41,8.14-1.66,4-7.36,5.65-6.9,10.38,0.35,3.59,2-.14,3,0.63s-0.35,3.34-2,3.55a2.59,2.59,0,0,1-2.67-1.27c-0.54-.85-0.52-2.74-1.37-3.11-0.27,1.69-.79,3.24-2.37,4.09a2.76,2.76,0,0,1-3.65-1.35,1.05,1.05,0,0,1,1.46-1.47c0.91,0.63,1.79,1.31,1.77-.46,0-2.44-4.07-3.9-5.66-5.18-3.47-2.78-5.78-6.93-3.45-11.31a6.68,6.68,0,0,1,5.74-3.64C14.17,32.64,16.21,35.52,16.72,37Z" transform="translate(-4.85 -8.9)"/><path class="cls-3" d="M18.07,28.49A9.86,9.86,0,0,1,22,23.19,14.14,14.14,0,0,1,28.38,21l0.5,0h0.71L29,20.38l-0.25-.24a6.3,6.3,0,0,1-1.57-3.93,6.22,6.22,0,0,1,3.21-6.29,7.36,7.36,0,0,1,3.17-1,5.58,5.58,0,0,1,3.18.81A5.18,5.18,0,0,1,39,12.18,4.09,4.09,0,0,1,38.86,15c-0.07.2-1.1,2-2.7,2H36.08a1.43,1.43,0,0,1-1.35-1,1.11,1.11,0,0,1,.51-1.27,0.71,0.71,0,0,1,1.07.48l0,0.17,0.17,0a0.74,0.74,0,0,0,.49,0,3.23,3.23,0,0,0,1-.72l0.17-.27a3.23,3.23,0,0,0-.7-2.76,5.38,5.38,0,0,0-4-1.79,4.15,4.15,0,0,0-1.37.22c-2.4.84-3.86,3.72-3.33,6.56a6.15,6.15,0,0,0,4,4.88c0.65,0.3,3,1.36,3.85,1.66L38,23.7c2.56,0.94,4.77,1.75,7.51,2.88,2.34,1,12.4,3,19.65,3.5L65,32a16.21,16.21,0,0,0-3.25.09c-0.29,0,0,.06-0.61-0.15-0.27-.09-10.24-2.12-10.24-2.12a8.48,8.48,0,0,0-3.44.06,4.57,4.57,0,0,0-3.52,3.07,15.37,15.37,0,0,0-1,4.37c0,0.41,0,.82,0,1.22a11,11,0,0,0,.14,3.2,9.47,9.47,0,0,1-.36,1.22,23.26,23.26,0,0,1-.39-7.11,8.7,8.7,0,0,1,.95-3.51A6.62,6.62,0,0,1,46.7,29.1L46.9,29,47,29l0.94-.22L47,28.47c-1.35-.51-3.15-1.22-4.89-1.91-3.1-1.23-6-2.39-7-2.61A11.37,11.37,0,0,1,33,23.09a6.84,6.84,0,0,0-3.18-1l-0.77,0c-3.89.19-5.5,0.26-8.91,4.34-1.68,2-1.66,4.46-1.64,6.84,0,0.56,0,1.13,0,1.68a1.65,1.65,0,0,1-.48.62s0-.07-0.08-0.19A11.27,11.27,0,0,1,18.07,28.49Z" transform="translate(-4.85 -8.9)"/><path class="cls-3" d="M7.43,43.32c1.07,1.6,2.92,2.91,4.34,4.18,0.9,0.81,5.06,5.55,2,5a1.55,1.55,0,0,0-2,1.68c0.45,1.91,2.66,2,4.39,2a3.68,3.68,0,0,0-.08,3.1c0.42,0.88,1.47,2.71,2.71,2.58,1-.1,2.2-1.49,2.6-2.33a4.38,4.38,0,0,0,0-3c0-.09-0.22-0.34.18-0.32a3.65,3.65,0,0,0,3.74-2.27,1.56,1.56,0,0,0-.32-1.79c-0.64-.41-1.16,0-1.77.21a1.24,1.24,0,0,1-.39,0c-4.19-.59,2.59-6.87,3.16-7.41a15.42,15.42,0,0,0,3.14-3.87,7.2,7.2,0,0,0,.37-6.36c-2.31-5-8.91-2.88-11.5.87a6.14,6.14,0,0,0-11.2-.35A7.86,7.86,0,0,0,7.43,43.32Zm9.43,12.77A1,1,0,0,1,17,55.53a6.18,6.18,0,0,0,1.7-2.82,5.52,5.52,0,0,0,1.61,3.46c0.12,0.47.27,0.93,0.35,1.41a2.8,2.8,0,0,1-1.59,3.09c-0.83.32-1.21-.14-1.69-0.77a4.7,4.7,0,0,1-.63-1.21A4.66,4.66,0,0,1,16.86,56.09ZM7.14,37a5.65,5.65,0,0,1,10.45-1,0.21,0.21,0,0,0,.12.1,0.84,0.84,0,0,0,.5.07A9.08,9.08,0,0,1,23,32.81c3.66-.53,6.11,1.51,6,4.67-0.07,2.25-1.49,4.24-3,5.8s-3.64,2.92-4.76,4.94S19.82,53,22.64,53.08A1.46,1.46,0,0,0,23,53a3.31,3.31,0,0,0,.69-0.23c0.42-.18,1,0,0.83.58a2,2,0,0,1-.43.74,4.2,4.2,0,0,1-3.09,1H20.91a1,1,0,0,1-.43-0.37,4.89,4.89,0,0,1-.58-0.94A16.85,16.85,0,0,1,19,51.08a0.25,0.25,0,0,0-.47,0A10.77,10.77,0,0,1,16.82,55a0.8,0.8,0,0,0-.1.08,2.48,2.48,0,0,0-.26.06h0.22l-0.12,0c-4,.25-3.68-1.7-2.73-1.36A2,2,0,0,0,16.09,53c0.55-.62.1-1.87-0.25-2.69-1-2.35-3.31-3.85-5.11-5.52C8.5,42.79,6.13,40.29,7.14,37Z" transform="translate(-4.85 -8.9)"/><path class="cls-3" d="M37.27,58.67c-0.21.93,0.69,1.67,1.44,2a2.65,2.65,0,0,0,2.73-.43,3.48,3.48,0,0,0-.27,3.08c0.35,0.79,1,2.17,2,2.14a3.08,3.08,0,0,0,2.26-2,3.87,3.87,0,0,0,.31-2.2,2.52,2.52,0,0,0,2.43-.43,1.35,1.35,0,0,0-.35-2.26c-0.53-.31-1.38-0.59-1.51-1.23a4.37,4.37,0,0,1,.86-2.44c1.74-2.54,4.69-4.33,5.81-7.39,0.87-2.39,1-5.25-.86-7.19-3.3-3.47-8.64-2.46-9.44,2.33-1.93-3.54-7.13-5.6-10-1.74-4.17,5.6,3,10.37,6.25,14a7.14,7.14,0,0,1,.92,1.31,2.13,2.13,0,0,1,.25.81C40,58,38.62,57.54,38,57.8A1.26,1.26,0,0,0,37.27,58.67ZM42,59.81c0.43-.36.77-0.71,1.15-1.07a6.6,6.6,0,0,0,1.76,2.19,2.9,2.9,0,0,1-.11,2.28c-0.32.57-1.21,1.64-2,1.26a3.66,3.66,0,0,1-1.29-2A5.29,5.29,0,0,1,41.94,60,0.6,0.6,0,0,0,42,59.81Zm-3.63-.91a0.41,0.41,0,0,1,.44-0.36,5,5,0,0,0,1-.12,1.66,1.66,0,0,0,.92-1.66c-0.07-2.15-2.92-4.24-4.45-5.95a16.32,16.32,0,0,1-2.19-2.87c-1.14-2-1.5-3.45-.39-5.52,1.26-2.33,3.22-3,5.83-1.92a7.05,7.05,0,0,1,2.91,3.09,0.3,0.3,0,0,0,.58-0.1,1.25,1.25,0,0,1,.06-0.21c0.39-1,.84-2.55,1.71-3.23,3.14-2.5,5.76.24,6.69,2.48,1.25,3-.08,5.8-2,8.24-1.27,1.62-2.79,3-3.5,4.85,0,0-1,1.79.23,3a3.73,3.73,0,0,0,.42.3c0.39,0.27.64,0.17,0.66,0.72s-0.31.63-.88,0.53a1.85,1.85,0,0,1-.79-0.36c-0.8-.59-0.86-1.25-1.53-2s-1.21-.19-2.09.55-1.6,1.73-2.77,1.28a2.17,2.17,0,0,1-.56-0.25A0.46,0.46,0,0,1,38.39,58.9Z" transform="translate(-4.85 -8.9)"/></svg>