<svg id="WW_SecondaryIcons_FlowersLeaves_CMYK" xmlns="http://www.w3.org/2000/svg" viewBox="0 0 52.16 57.48"><defs><style>.cls-1{fill:#e8247f;}</style></defs><title>Icons_FlowersLeaves_18</title><path class="cls-1" d="M560,14.45S562.2,3.39,559.3,3,560,14.45,560,14.45Z" transform="translate(-547.43 -2.99)"/><path class="cls-1" d="M560.4,17.32s-2.16,11.07.74,11.45S560.4,17.32,560.4,17.32Z" transform="translate(-547.43 -2.99)"/><path class="cls-1" d="M560.69,14.52s6.79-9,4.36-10.62S560.69,14.52,560.69,14.52Z" transform="translate(-547.43 -2.99)"/><path class="cls-1" d="M559.75,17.25s-6.79,9-4.35,10.62S559.75,17.25,559.75,17.25Z" transform="translate(-547.43 -2.99)"/><path class="cls-1" d="M561.24,14.86s10.05-5.11,8.57-7.64S561.24,14.86,561.24,14.86Z" transform="translate(-547.43 -2.99)"/><path class="cls-1" d="M559.2,16.91s-10.05,5.11-8.57,7.64S559.2,16.91,559.2,16.91Z" transform="translate(-547.43 -2.99)"/><path class="cls-1" d="M561.58,15.41s11.27-.19,11.05-3.11S561.58,15.41,561.58,15.41Z" transform="translate(-547.43 -2.99)"/><path class="cls-1" d="M558.86,16.36s-11.27.19-11,3.11S558.86,16.36,558.86,16.36Z" transform="translate(-547.43 -2.99)"/><path class="cls-1" d="M561.65,16.06s10.22,4.78,11.29,2.05S561.65,16.06,561.65,16.06Z" transform="translate(-547.43 -2.99)"/><path class="cls-1" d="M558.79,15.71s-10.22-4.77-11.29-2.05S558.79,15.71,558.79,15.71Z" transform="translate(-547.43 -2.99)"/><path class="cls-1" d="M561.43,16.67s7.09,8.77,9.25,6.8S561.43,16.67,561.43,16.67Z" transform="translate(-547.43 -2.99)"/><path class="cls-1" d="M559,15.1s-7.09-8.77-9.25-6.79S559,15.1,559,15.1Z" transform="translate(-547.43 -2.99)"/><path class="cls-1" d="M561,17.12s2.53,11,5.34,10.16S561,17.12,561,17.12Z" transform="translate(-547.43 -2.99)"/><path class="cls-1" d="M559.47,14.65s-2.53-11-5.34-10.16S559.47,14.65,559.47,14.65Z" transform="translate(-547.43 -2.99)"/><path class="cls-1" d="M586.62,24s2.16-11.07-.74-11.45S586.62,24,586.62,24Z" transform="translate(-547.43 -2.99)"/><path class="cls-1" d="M587,26.9s-2.16,11.07.74,11.46S587,26.9,587,26.9Z" transform="translate(-547.43 -2.99)"/><path class="cls-1" d="M587.26,24.1s6.79-9,4.36-10.62S587.26,24.1,587.26,24.1Z" transform="translate(-547.43 -2.99)"/><path class="cls-1" d="M586.33,26.84s-6.79,9-4.36,10.62S586.33,26.84,586.33,26.84Z" transform="translate(-547.43 -2.99)"/><path class="cls-1" d="M587.82,24.45s10.05-5.11,8.57-7.64S587.82,24.45,587.82,24.45Z" transform="translate(-547.43 -2.99)"/><path class="cls-1" d="M585.78,26.5s-10.05,5.11-8.57,7.64S585.78,26.5,585.78,26.5Z" transform="translate(-547.43 -2.99)"/><path class="cls-1" d="M588.16,25s11.27-.19,11-3.11S588.16,25,588.16,25Z" transform="translate(-547.43 -2.99)"/><path class="cls-1" d="M585.43,25.95s-11.27.19-11.05,3.11S585.43,25.95,585.43,25.95Z" transform="translate(-547.43 -2.99)"/><path class="cls-1" d="M588.23,25.64s10.22,4.77,11.29,2.05S588.23,25.64,588.23,25.64Z" transform="translate(-547.43 -2.99)"/><path class="cls-1" d="M585.36,25.3s-10.22-4.77-11.29-2.05S585.36,25.3,585.36,25.3Z" transform="translate(-547.43 -2.99)"/><path class="cls-1" d="M588,26.25s7.09,8.77,9.25,6.8S588,26.25,588,26.25Z" transform="translate(-547.43 -2.99)"/><path class="cls-1" d="M585.58,24.69s-7.09-8.77-9.25-6.8S585.58,24.69,585.58,24.69Z" transform="translate(-547.43 -2.99)"/><path class="cls-1" d="M587.54,26.71s2.53,11,5.33,10.16S587.54,26.71,587.54,26.71Z" transform="translate(-547.43 -2.99)"/><path class="cls-1" d="M586,24.24s-2.53-11-5.34-10.16S586,24.24,586,24.24Z" transform="translate(-547.43 -2.99)"/><path class="cls-1" d="M564.3,46.14s2.16-11.07-.74-11.46S564.3,46.14,564.3,46.14Z" transform="translate(-547.43 -2.99)"/><path class="cls-1" d="M564.67,49s-2.16,11.07.74,11.45S564.67,49,564.67,49Z" transform="translate(-547.43 -2.99)"/><path class="cls-1" d="M565,46.21s6.79-9,4.36-10.62S565,46.21,565,46.21Z" transform="translate(-547.43 -2.99)"/><path class="cls-1" d="M564,48.94s-6.79,9-4.35,10.62S564,48.94,564,48.94Z" transform="translate(-547.43 -2.99)"/><path class="cls-1" d="M565.5,46.55s10.05-5.11,8.57-7.64S565.5,46.55,565.5,46.55Z" transform="translate(-547.43 -2.99)"/><path class="cls-1" d="M563.47,48.6s-10,5.11-8.57,7.64S563.47,48.6,563.47,48.6Z" transform="translate(-547.43 -2.99)"/><path class="cls-1" d="M565.85,47.1s11.27-.19,11.05-3.11S565.85,47.1,565.85,47.1Z" transform="translate(-547.43 -2.99)"/><path class="cls-1" d="M563.12,48s-11.27.19-11,3.11S563.12,48,563.12,48Z" transform="translate(-547.43 -2.99)"/><path class="cls-1" d="M565.92,47.74s10.22,4.77,11.29,2.05S565.92,47.74,565.92,47.74Z" transform="translate(-547.43 -2.99)"/><path class="cls-1" d="M563.05,47.4s-10.22-4.77-11.29-2.05S563.05,47.4,563.05,47.4Z" transform="translate(-547.43 -2.99)"/><path class="cls-1" d="M565.7,48.35s7.09,8.77,9.25,6.8S565.7,48.35,565.7,48.35Z" transform="translate(-547.43 -2.99)"/><path class="cls-1" d="M563.27,46.79S556.18,38,554,40,563.27,46.79,563.27,46.79Z" transform="translate(-547.43 -2.99)"/><path class="cls-1" d="M565.23,48.81s2.53,11,5.34,10.16S565.23,48.81,565.23,48.81Z" transform="translate(-547.43 -2.99)"/><path class="cls-1" d="M563.74,46.34s-2.53-11-5.34-10.16S563.74,46.34,563.74,46.34Z" transform="translate(-547.43 -2.99)"/></svg>