<svg id="WW_SecondaryIcons_FlowersLeaves_CMYK" xmlns="http://www.w3.org/2000/svg" viewBox="0 0 50.21 99.9"><defs><style>.cls-1{fill:#644130;}.cls-2{fill:#fdc400;}.cls-3{fill:#69b94c;}</style></defs><title>Icons_FlowersLeaves_7</title><circle class="cls-1" cx="17.31" cy="1.45" r="1.45"/><path class="cls-2" d="M359,303.28l-8.7-5.08-9.18,5.92s-3.26-9.3,1.93-14.74,13.17-4.83,16.43.36A12,12,0,0,1,359,303.28Z" transform="translate(-325.63 -271.29)"/><path class="cls-1" d="M368.71,308.24a0.36,0.36,0,0,1-.19-0.05c-0.16-.09-15.31-9.34-18.62-10.66l-15.32,9.33a0.36,0.36,0,0,1-.53-0.18c-0.05-.13-5.07-13.35,2-22.59a20.25,20.25,0,0,1,14.55-8.36h0.3A18.6,18.6,0,0,1,368,287.07c4,12.09,1.13,20.84,1.1,20.92a0.36,0.36,0,0,1-.22.22Zm-18.85-11.48,0.12,0c2.79,1,16,9,18.51,10.54,0.51-1.89,1.75-10.07-1.65-20.37a16.82,16.82,0,0,0-16-10.5H350.6c-2.07,0-9.13,2-14.07,8.56-6.12,8-2.71,18.72-1.95,21l15.09-9.19A0.36,0.36,0,0,1,349.86,296.76Z" transform="translate(-325.63 -271.29)"/><path class="cls-1" d="M333.89,305.39a2.94,2.94,0,0,1-2.8-4.86c1.21-1.75,4.61-3.83,13.94-3.83,1.5,0,3.13.05,4.84,0.16a0.27,0.27,0,0,1,.15.49C349.6,297.66,339.62,305.39,333.89,305.39ZM345,297.23c-9.09,0-12.18,2.08-13.32,3.72a2.53,2.53,0,0,0-.44,2.44c0.54,0.92,1.51,1.13,2.87,1.13,4.78,0,12.7-5.49,15-7.17C347.67,297.27,346.31,297.23,345,297.23Z" transform="translate(-325.63 -271.29)"/><path class="cls-1" d="M338.1,298.3h0c-4.78,0-7.93-.78-9.34-2.32a3.28,3.28,0,0,1-.86-2.6c0.14-1.81,1.48-2.73,4-2.73,6.28,0,17.92,5.71,18.41,6a0.27,0.27,0,0,1-.07.51A76.83,76.83,0,0,1,338.1,298.3Zm-5.77-7c-2.21,0-3.35.73-3.46,2.23a2.72,2.72,0,0,0,.72,2.18c1.31,1.42,3.88,2,8.51,2a74.57,74.57,0,0,0,11.2-1C346.57,295.44,337.58,291.29,332.33,291.29Z" transform="translate(-325.63 -271.29)"/><path class="cls-1" d="M350.64,297.21h-0.08c-0.45-.14-15.69-4.76-19-9.28-1.28-1.73-1.09-4.47,2.59-5.09,1.42-.24,3.22.78,4.74,2.13,4.56,4,11.32,11.11,11.94,11.75a0.27,0.27,0,0,1,.13.23,0.29,0.29,0,0,1-.28.27h0Zm-19.11-11.95c-0.58,1.49,1.29,3.3,1.31,3.31,2.64,2.64,13.42,6.65,16.86,7.77-2-2-7.36-7.59-11.2-11-1.42-1.26-2.42-1.85-3.72-1.85C332.93,283.52,331.91,284.28,331.53,285.27Z" transform="translate(-325.63 -271.29)"/><path class="cls-1" d="M349.86,297.39a0.28,0.28,0,0,1-.13,0c-4.12-2.26-12.58-11.22-12.65-16.26a3.06,3.06,0,0,1,1.56-2.88,2.45,2.45,0,0,1,1.24-.35c5.22,0,10,18.4,10.24,19.19a0.27,0.27,0,0,1-.1.28A0.27,0.27,0,0,1,349.86,297.39Zm-9.7-18.88a1.88,1.88,0,0,0-1,.28,2.52,2.52,0,0,0-1.29,2.41c0.06,4.56,7.41,12.72,11.52,15.34-0.4-1.46-1.47-5.16-2.91-8.82C344.12,281.63,342.11,278.52,340.15,278.52Z" transform="translate(-325.63 -271.29)"/><path class="cls-1" d="M349.86,297.39a0.27,0.27,0,0,1-.16-0.05c-1.37-1-2.73-5.1-3.46-8.76-1-4.79-1-9.21-.2-11.83,0.63-2,1.8-3,3.38-3h0.14a2.85,2.85,0,0,1,2.3,1.25c3.38,4.71-1.54,21.49-1.75,22.21a0.27,0.27,0,0,1-.17.18h-0.09Zm-0.44-23.11c-1.34,0-2.27,1.11-2.83,2.86-1.74,5.43.86,17,3.12,19.49,0.75-2.65,4.65-17.22,1.71-21.32a2.3,2.3,0,0,0-1.88-1h-0.12Z" transform="translate(-325.63 -271.29)"/><path class="cls-1" d="M349.47,297.48a0.28,0.28,0,0,1-.14,0,0.27,0.27,0,0,1-.12-0.29c0.18-.85,4.38-20.86,11.15-20.86a3.71,3.71,0,0,1,1.36.27,3.44,3.44,0,0,1,2,2.69c0.43,2.77-1.66,8.17-14.06,18.17A0.27,0.27,0,0,1,349.47,297.48Zm10.65-20.31c-5.62,0-9.37,15.64-10.21,19.34,11.64-9.5,13.42-14.24,13-16.83a2.9,2.9,0,0,0-1.65-2.28A3.16,3.16,0,0,0,360.11,277.17Z" transform="translate(-325.63 -271.29)"/><path class="cls-1" d="M349.38,296.94a0.27,0.27,0,0,1-.19-0.46c0.48-.49,11.86-12.13,17.6-12.13a2.82,2.82,0,0,1,2.58,1.39,2.52,2.52,0,0,1,.17,2.42c-2.16,4.95-19.38,8.62-20.11,8.77h-0.06Zm17.22-12c-4.75,0-13.83,8.74-16.37,11.25,3.64-.84,17-4.18,18.81-8.25a1.93,1.93,0,0,0-.32-1.87A2.27,2.27,0,0,0,366.6,284.95Z" transform="translate(-325.63 -271.29)"/><path class="cls-1" d="M364.74,298.14a106.29,106.29,0,0,1-15-1.47,0.27,0.27,0,0,1-.05-0.52c0.1,0,10.52-4,17.12-4,3,0,4.85.83,5.44,2.45a1.87,1.87,0,0,1-.16,1.8C371.3,297.56,368.89,298.14,364.74,298.14Zm-13.85-1.84a100.46,100.46,0,0,0,13.85,1.3c4.85,0,6.45-.83,6.94-1.52a1.34,1.34,0,0,0,.09-1.3c-0.51-1.39-2.11-1.94-4.87-1.94C361.58,292.83,353.62,295.32,350.89,296.29Z" transform="translate(-325.63 -271.29)"/><path class="cls-1" d="M368.65,305.76c-4,0-11.08-3.43-19.35-9.42a0.27,0.27,0,0,1-.1-0.31,0.29,0.29,0,0,1,.26-0.18c0.74,0,18.29.55,22.15,4.71a2.59,2.59,0,0,1,.77,1.91C372.29,304.63,371,305.76,368.65,305.76Zm-18.29-9.33c7.85,5.59,14.3,8.58,18.11,8.58,2,0,3.11-.93,3.2-2.76a2,2,0,0,0-.63-1.52C367.82,297.26,354.06,296.6,350.36,296.43Z" transform="translate(-325.63 -271.29)"/><path class="cls-1" d="M374,299.3H374c-0.8-.22-17.44-1.64-23.79-2.17l-22.07,1.81a0.27,0.27,0,0,1-.29-0.25,0.27,0.27,0,0,1,.25-0.29l22.45-2c1,0.08,21.82,2.06,22.83,2.33a2.09,2.09,0,0,1,.95.37A0.27,0.27,0,0,1,374,299.3Z" transform="translate(-325.63 -271.29)"/><path class="cls-1" d="M349.86,297.39l-0.1,0-22.51-9a0.27,0.27,0,0,1-.15-0.35,4.82,4.82,0,0,1,1.62.18l21.15,8.61c8.37-2.83,21.76-7.61,22.37-8.5a0.24,0.24,0,0,1,.28-0.22,0.3,0.3,0,0,1,.24.33c-0.09,1.1-14.33,6.07-22.81,8.94h-0.09Z" transform="translate(-325.63 -271.29)"/><path class="cls-1" d="M349.83,296.67a0.27,0.27,0,0,1-.2-0.08l-16.55-17.53a1.3,1.3,0,0,1-.3-0.81,0.27,0.27,0,0,1,.38,0l16.09,17.16L344,276.63l-1-3.18a0.27,0.27,0,0,1,.19-0.34,0.75,0.75,0,0,1,.54.4l6.41,22.81A0.27,0.27,0,0,1,349.83,296.67Z" transform="translate(-325.63 -271.29)"/><path class="cls-1" d="M349.86,297.39h-0.08a0.27,0.27,0,0,1-.18-0.21c-0.28-1.44,2.19-10.46,3.93-17.11,0.93-3.55,1.58-6.72,1.66-7a0.27,0.27,0,0,1,.33-0.19,0.93,0.93,0,0,1,.2.71c-0.57,2.08-1.21,5.38-2.1,8.76-1.52,5.8-3.34,12-3.5,14.17,6.31-6.06,15.85-15.59,15.93-16.7a0.27,0.27,0,0,1,.29-0.25,1.93,1.93,0,0,1-.16.85c-0.09,1.65-13.38,14.3-16.13,16.93A0.27,0.27,0,0,1,349.86,297.39Z" transform="translate(-325.63 -271.29)"/><circle class="cls-1" cx="48.76" cy="27.46" r="1.45"/><circle class="cls-1" cx="47.22" cy="17.31" r="1.45"/><circle class="cls-1" cx="41.15" cy="8.43" r="1.45"/><circle class="cls-1" cx="29.82" cy="1.81" r="1.45"/><circle class="cls-1" cx="7.25" cy="6.98" r="1.45"/><circle class="cls-1" cx="1.45" cy="16.77" r="1.45"/><circle class="cls-1" cx="2.18" cy="27.19" r="1.45"/><path class="cls-1" d="M349,297.32c1.11,13.19,2.38,26,2.36,39.3,0,11.39,2,22.76.91,34.12,0,0.51.83,0.64,0.9,0.12,1.59-11.34-.87-22.6-1-34-0.19-13.27-.23-26.43-2.57-39.61a0.3,0.3,0,0,0-.58.08h0Z" transform="translate(-325.63 -271.29)"/><path class="cls-3" d="M356.67,350.64a3.7,3.7,0,0,1-2.29-1.22,9.69,9.69,0,0,1,.49-1.63c2.9-6.78,12.59-3.33,17.4-7.34-0.87,3.5-3.73,7.28-7,8.68a17.27,17.27,0,0,1-5.8,1.69C359.27,350.83,357.94,350.75,356.67,350.64Z" transform="translate(-325.63 -271.29)"/><path class="cls-1" d="M368.28,343.31a10.71,10.71,0,0,0,1-1.46,10.29,10.29,0,0,0,1.14-4.29,20.63,20.63,0,0,1-4.08,1.57c-1.91.63-3.92,0.9-5.84,1.5a10.89,10.89,0,0,0-7.86,9.18,5.74,5.74,0,0,1,1.55.21c2.87,0.29,5.92-1,8.41-2.3A16.82,16.82,0,0,0,368.28,343.31Zm-11,5.39a7.42,7.42,0,0,1-3.26-.32,12.59,12.59,0,0,1,2.31-3.78,8.54,8.54,0,0,1,3.46-2.63,34.12,34.12,0,0,1,4.25-1.26c0.46-.12,4.42-0.91,4.46-1.23-0.25,2.07-1.9,4-3.44,5.2C362.87,346.48,360.2,348.36,357.3,348.7Z" transform="translate(-325.63 -271.29)"/><path class="cls-3" d="M333.22,329.93c1.87,6.71,9.24,14.33,18.42,14.29,0-12.41-11-11-18.42-14.29" transform="translate(-325.63 -271.29)"/></svg>