<svg id="WW_SecondaryIcons_FlowersLeaves_CMYK" xmlns="http://www.w3.org/2000/svg" viewBox="0 0 61.23 61.01"><defs><style>.cls-1{fill:#fdc400;}</style></defs><title>Icons_FlowersLeaves_20</title><path class="cls-1" d="M685.45,5.86c0.31,0.33.56,0.13,0.63-.2s0-.83.13-1.23a0.93,0.93,0,0,1,.69-0.89,0.71,0.71,0,0,1,1,.51c0.14,0.59-.35,1.67.09,2.12a0.88,0.88,0,0,0,1,.07c0.52-.22,1.67-0.38,1.92-0.06a1.23,1.23,0,0,1,.1,1.18c-0.55.89-2.15-.1-2.41,0.76a1.14,1.14,0,0,0,.56,1.06,1.66,1.66,0,0,1,.39,1.25,0.69,0.69,0,0,1-.92.61,1.63,1.63,0,0,1-1-1c-0.23-.48-0.66-2.34-1.45-1.18-0.44.64-.72,2.46-1.9,2.07a1,1,0,0,1-.79-1.14,2.3,2.3,0,0,1,1-1.57c0.37-.39.22-0.59-0.16-0.88L683,6.37a1,1,0,0,1-.47-1,1.07,1.07,0,0,1,1.08-.6A3.72,3.72,0,0,1,685.45,5.86Z" transform="translate(-645.21 -1.23)"/><path class="cls-1" d="M693.59,9.74c-0.12.33-.37,0.26-0.52,0.05s-0.28-.6-0.47-0.86a0.74,0.74,0,0,0-.78-0.44,0.56,0.56,0,0,0-.54.66c0.08,0.47.77,1.11,0.59,1.58a0.7,0.7,0,0,1-.74.37,1.87,1.87,0,0,0-1.42.54,1,1,0,0,0,.29.89c0.68,0.48,1.54-.73,2-0.19a0.9,0.9,0,0,1-.09.94,1.31,1.31,0,0,0,.1,1,0.55,0.55,0,0,0,.86.16,1.29,1.29,0,0,0,.43-1.06c0-.42-0.24-1.91.7-1.3,0.52,0.33,1.28,1.58,2,.92a0.83,0.83,0,0,0,.22-1.08,1.81,1.81,0,0,0-1.21-.84c-0.39-.17-0.34-0.36-0.15-0.69s0.43-.71.64-1.08a0.77,0.77,0,0,0,0-.86,0.84,0.84,0,0,0-1-.1A2.94,2.94,0,0,0,693.59,9.74Z" transform="translate(-645.21 -1.23)"/><path class="cls-1" d="M687.21,32.49c-0.12.33-.37,0.26-0.52,0.05s-0.28-.6-0.47-0.86a0.74,0.74,0,0,0-.78-0.44,0.56,0.56,0,0,0-.54.66c0.08,0.47.77,1.11,0.59,1.58a0.69,0.69,0,0,1-.74.37,1.86,1.86,0,0,0-1.42.54,1,1,0,0,0,.29.89c0.68,0.48,1.54-.73,2-0.19a0.9,0.9,0,0,1-.09.94,1.32,1.32,0,0,0,.1,1,0.55,0.55,0,0,0,.86.16,1.29,1.29,0,0,0,.43-1.06c0-.42-0.24-1.91.7-1.3,0.52,0.33,1.28,1.58,2,.92a0.83,0.83,0,0,0,.23-1.08,1.82,1.82,0,0,0-1.21-.84c-0.39-.17-0.34-0.36-0.15-0.69l0.64-1.08a0.78,0.78,0,0,0,0-.87,0.85,0.85,0,0,0-1-.1A3,3,0,0,0,687.21,32.49Z" transform="translate(-645.21 -1.23)"/><path class="cls-1" d="M659.43,41.15c-0.12.33-.37,0.26-0.52,0.05s-0.28-.6-0.47-0.86a0.73,0.73,0,0,0-.78-0.44,0.56,0.56,0,0,0-.54.66c0.08,0.47.77,1.12,0.59,1.58a0.7,0.7,0,0,1-.74.37,1.86,1.86,0,0,0-1.42.54,1,1,0,0,0,.29.89c0.68,0.49,1.54-.73,2-0.19a0.9,0.9,0,0,1-.09.94,1.32,1.32,0,0,0,.1,1,0.55,0.55,0,0,0,.86.16,1.29,1.29,0,0,0,.43-1.06c0-.42-0.24-1.91.7-1.3,0.52,0.33,1.28,1.58,2,.92a0.83,0.83,0,0,0,.23-1.08,1.82,1.82,0,0,0-1.21-.84c-0.39-.17-0.34-0.36-0.15-0.69s0.43-.71.64-1.08a0.78,0.78,0,0,0,0-.86,0.85,0.85,0,0,0-1-.1A3,3,0,0,0,659.43,41.15Z" transform="translate(-645.21 -1.23)"/><path class="cls-1" d="M659.77,19c0,0.35-.23.39-0.46,0.26s-0.5-.43-0.78-0.6a0.73,0.73,0,0,0-.89-0.08,0.56,0.56,0,0,0-.23.83c0.27,0.4,1.16.7,1.18,1.2a0.69,0.69,0,0,1-.53.65A1.86,1.86,0,0,0,657,22.37a1,1,0,0,0,.63.7c0.82,0.17,1.11-1.3,1.74-1a0.9,0.9,0,0,1,.31.9,1.31,1.31,0,0,0,.51.91,0.55,0.55,0,0,0,.85-0.2,1.29,1.29,0,0,0,0-1.14c-0.16-.39-1-1.64.1-1.48,0.61,0.09,1.81.92,2.23,0a0.83,0.83,0,0,0-.24-1.08,1.82,1.82,0,0,0-1.45-.27c-0.43,0-.46-0.19-0.42-0.57s0.1-.83.15-1.25a0.78,0.78,0,0,0-.31-0.81,0.85,0.85,0,0,0-.93.3A2.94,2.94,0,0,0,659.77,19Z" transform="translate(-645.21 -1.23)"/><path class="cls-1" d="M683.25,21.49c0.4,0,.45.26,0.3,0.52s-0.49.57-.68,0.89a0.84,0.84,0,0,0-.09,1,0.64,0.64,0,0,0,.95.26c0.46-.3.8-1.32,1.37-1.35a0.79,0.79,0,0,1,.74.6,2.12,2.12,0,0,0,1.23,1.22,1.11,1.11,0,0,0,.8-0.72c0.19-.93-1.48-1.26-1.12-2a1,1,0,0,1,1-.35,1.5,1.5,0,0,0,1-.59,0.62,0.62,0,0,0-.23-1,1.47,1.47,0,0,0-1.31.05c-0.45.18-1.88,1.14-1.69-.12,0.11-.69,1-2.07,0-2.54a1,1,0,0,0-1.23.27,2.08,2.08,0,0,0-.31,1.66c0,0.49-.22.53-0.65,0.48L682,19.66a0.89,0.89,0,0,0-.92.36,1,1,0,0,0,.34,1.06A3.37,3.37,0,0,0,683.25,21.49Z" transform="translate(-645.21 -1.23)"/><path class="cls-1" d="M680.55,48.57c0.38-.12.5,0.14,0.41,0.43s-0.33.67-.43,1a0.83,0.83,0,0,0,.16,1,0.64,0.64,0,0,0,1,0c0.36-.4.45-1.47,1-1.63a0.79,0.79,0,0,1,.86.39,2.1,2.1,0,0,0,1.48.87,1.11,1.11,0,0,0,.59-0.89c0-.94-1.73-0.85-1.57-1.63a1,1,0,0,1,.9-0.59,1.49,1.49,0,0,0,.85-0.82,0.62,0.62,0,0,0-.46-0.88,1.46,1.46,0,0,0-1.24.37c-0.39.28-1.52,1.55-1.65,0.3-0.07-.69.49-2.24-0.61-2.45a0.94,0.94,0,0,0-1.11.56,2.05,2.05,0,0,0,.11,1.67c0.13,0.47-.08.56-0.5,0.62l-1.4.19a0.88,0.88,0,0,0-.8.57,1,1,0,0,0,.59.93A3.33,3.33,0,0,0,680.55,48.57Z" transform="translate(-645.21 -1.23)"/><path class="cls-1" d="M664.23,24.28c0.38-.12.49,0.14,0.41,0.43s-0.33.67-.43,1a0.83,0.83,0,0,0,.16,1,0.64,0.64,0,0,0,1,0c0.36-.4.45-1.47,1-1.63a0.78,0.78,0,0,1,.85.39,2.11,2.11,0,0,0,1.48.87,1.11,1.11,0,0,0,.59-0.89c0-.94-1.73-0.85-1.57-1.63a1,1,0,0,1,.9-0.59,1.49,1.49,0,0,0,.85-0.82,0.62,0.62,0,0,0-.46-0.88,1.46,1.46,0,0,0-1.24.37c-0.39.28-1.52,1.55-1.65,0.3-0.07-.69.49-2.24-0.61-2.45a0.94,0.94,0,0,0-1.11.56,2.06,2.06,0,0,0,.11,1.67c0.13,0.47-.08.56-0.5,0.62l-1.41.19a0.88,0.88,0,0,0-.8.57,1,1,0,0,0,.59.93A3.34,3.34,0,0,0,664.23,24.28Z" transform="translate(-645.21 -1.23)"/><path class="cls-1" d="M660.58,52.56c-0.12.33-.37,0.26-0.52,0s-0.28-.6-0.47-0.86a0.74,0.74,0,0,0-.78-0.44,0.56,0.56,0,0,0-.54.66c0.08,0.47.77,1.12,0.59,1.58a0.7,0.7,0,0,1-.74.37,1.86,1.86,0,0,0-1.42.54,1,1,0,0,0,.29.9c0.68,0.48,1.54-.73,2-0.19a0.9,0.9,0,0,1-.08.94,1.31,1.31,0,0,0,.1,1,0.55,0.55,0,0,0,.86.16,1.29,1.29,0,0,0,.43-1.06c0-.42-0.24-1.91.7-1.3,0.52,0.33,1.28,1.58,2,.92a0.83,0.83,0,0,0,.23-1.08A1.82,1.82,0,0,0,662,54c-0.39-.17-0.34-0.36-0.15-0.69s0.43-.71.64-1.08a0.77,0.77,0,0,0,0-.86,0.84,0.84,0,0,0-1-.1A2.94,2.94,0,0,0,660.58,52.56Z" transform="translate(-645.21 -1.23)"/><path class="cls-1" d="M650.31,27.22c-0.3.19-.45,0-0.45-0.27s0.13-.65.13-1a0.74,0.74,0,0,0-.37-0.81,0.56,0.56,0,0,0-.83.21c-0.22.43,0,1.35-.46,1.62a0.69,0.69,0,0,1-.82-0.14,1.86,1.86,0,0,0-1.46-.4,1,1,0,0,0-.3.89c0.26,0.79,1.67.32,1.72,1a0.9,0.9,0,0,1-.63.71,1.32,1.32,0,0,0-.54.89,0.55,0.55,0,0,0,.6.64,1.29,1.29,0,0,0,1-.6c0.27-.33.94-1.68,1.33-0.64,0.22,0.57.1,2,1.09,1.94a0.83,0.83,0,0,0,.82-0.74,1.82,1.82,0,0,0-.48-1.4c-0.21-.37-0.06-0.49.29-0.65l1.16-.49a0.77,0.77,0,0,0,.55-0.67,0.84,0.84,0,0,0-.72-0.66A2.94,2.94,0,0,0,650.31,27.22Z" transform="translate(-645.21 -1.23)"/><path class="cls-1" d="M690.39,16.12c-0.35-.07-0.32-0.33-0.13-0.51s0.55-.36.78-0.6a0.74,0.74,0,0,0,.31-0.84,0.56,0.56,0,0,0-.74-0.44c-0.46.15-1,.93-1.47,0.82a0.69,0.69,0,0,1-.48-0.68,1.87,1.87,0,0,0-.75-1.32,1,1,0,0,0-.84.42c-0.38.74,1,1.41,0.48,1.94a0.91,0.91,0,0,1-.95.06,1.32,1.32,0,0,0-1,.25,0.55,0.55,0,0,0,0,.87,1.29,1.29,0,0,0,1.11.26c0.42,0,1.85-.52,1.39.49-0.25.56-1.37,1.5-.61,2.14a0.83,0.83,0,0,0,1.1.06,1.82,1.82,0,0,0,.65-1.33c0.11-.41.31-0.39,0.66-0.25L691,18a0.77,0.77,0,0,0,.86-0.09,0.84,0.84,0,0,0,0-1A3,3,0,0,0,690.39,16.12Z" transform="translate(-645.21 -1.23)"/><path class="cls-1" d="M650.23,34.58c-0.35-.07-0.32-0.33-0.13-0.51s0.55-.36.78-0.6a0.74,0.74,0,0,0,.31-0.84,0.56,0.56,0,0,0-.74-0.44c-0.46.15-1,.93-1.47,0.82a0.69,0.69,0,0,1-.48-0.68,1.87,1.87,0,0,0-.75-1.32,1,1,0,0,0-.84.42c-0.38.74,1,1.41,0.48,1.94a0.9,0.9,0,0,1-.95.06,1.32,1.32,0,0,0-1,.25,0.55,0.55,0,0,0,0,.87,1.29,1.29,0,0,0,1.11.26c0.42,0,1.85-.52,1.39.49-0.25.56-1.37,1.5-.61,2.14a0.83,0.83,0,0,0,1.1.06,1.82,1.82,0,0,0,.65-1.33c0.11-.41.31-0.39,0.66-0.25l1.16,0.47a0.77,0.77,0,0,0,.86-0.09,0.84,0.84,0,0,0,0-1A3,3,0,0,0,650.23,34.58Z" transform="translate(-645.21 -1.23)"/><path class="cls-1" d="M692.9,52.88c-0.12.33-.37,0.26-0.52,0.05s-0.28-.6-0.47-0.86a0.73,0.73,0,0,0-.78-0.44,0.56,0.56,0,0,0-.54.66c0.08,0.47.77,1.12,0.59,1.58a0.7,0.7,0,0,1-.74.37,1.85,1.85,0,0,0-1.42.54,1,1,0,0,0,.29.89c0.68,0.48,1.54-.73,2-0.19a0.9,0.9,0,0,1-.09.94,1.32,1.32,0,0,0,.1,1,0.55,0.55,0,0,0,.86.16,1.29,1.29,0,0,0,.43-1.06c0-.42-0.24-1.91.7-1.3,0.52,0.33,1.28,1.58,2,.92a0.83,0.83,0,0,0,.23-1.08,1.82,1.82,0,0,0-1.21-.84c-0.39-.17-0.34-0.36-0.15-0.69s0.43-.71.64-1.08a0.78,0.78,0,0,0,0-.86,0.84,0.84,0,0,0-1-.1A3,3,0,0,0,692.9,52.88Z" transform="translate(-645.21 -1.23)"/><path class="cls-1" d="M702.7,24.94c-0.22-.27-0.44-0.13-0.51.12s-0.07.65-.16,1a0.73,0.73,0,0,1-.59.67,0.56,0.56,0,0,1-.73-0.45c-0.08-.47.36-1.31,0-1.68a0.7,0.7,0,0,0-.83-0.11,1.86,1.86,0,0,1-1.52-.05,1,1,0,0,1,0-.94c0.48-.68,1.69.19,1.94-0.47a0.9,0.9,0,0,0-.39-0.87,1.31,1.31,0,0,1-.25-1,0.55,0.55,0,0,1,.76-0.44,1.29,1.29,0,0,1,.75.87c0.16,0.39.4,1.88,1.09,1,0.38-.48.7-1.91,1.61-1.53a0.83,0.83,0,0,1,.57.95,1.82,1.82,0,0,1-.87,1.19c-0.31.29-.2,0.46,0.08,0.7l1,0.81a0.78,0.78,0,0,1,.32.8,0.84,0.84,0,0,1-.88.42A2.94,2.94,0,0,1,702.7,24.94Z" transform="translate(-645.21 -1.23)"/><path class="cls-1" d="M656.65,36.39c-0.23-.27-0.44-0.13-0.51.12s-0.07.65-.16,1a0.74,0.74,0,0,1-.59.67,0.56,0.56,0,0,1-.73-0.45c-0.08-.47.36-1.3,0-1.68a0.69,0.69,0,0,0-.82-0.11,1.86,1.86,0,0,1-1.52-.05,1,1,0,0,1,0-.94c0.48-.68,1.69.19,1.94-0.47a0.9,0.9,0,0,0-.39-0.87,1.31,1.31,0,0,1-.25-1,0.55,0.55,0,0,1,.76-0.44,1.29,1.29,0,0,1,.75.87c0.16,0.39.4,1.88,1.09,1,0.38-.48.69-1.91,1.61-1.53a0.83,0.83,0,0,1,.57.95,1.82,1.82,0,0,1-.87,1.19c-0.32.29-.2,0.46,0.08,0.7l1,0.81a0.77,0.77,0,0,1,.32.8,0.84,0.84,0,0,1-.88.42A3,3,0,0,1,656.65,36.39Z" transform="translate(-645.21 -1.23)"/><path class="cls-1" d="M694.25,31.64c0,0.35.25,0.38,0.47,0.23s0.47-.46.74-0.64a0.74,0.74,0,0,1,.88-0.14,0.56,0.56,0,0,1,.28.81c-0.24.42-1.11,0.77-1.1,1.27a0.69,0.69,0,0,0,.56.61,1.86,1.86,0,0,1,1.14,1,1,1,0,0,1-.59.74c-0.8.22-1.18-1.22-1.8-.87a0.9,0.9,0,0,0-.25.92,1.32,1.32,0,0,1-.46.94,0.55,0.55,0,0,1-.86-0.15,1.29,1.29,0,0,1,0-1.14c0.13-.4.89-1.7-0.2-1.47-0.6.13-1.75,1-2.22,0.16a0.83,0.83,0,0,1,.17-1.09,1.81,1.81,0,0,1,1.43-.36c0.43,0,.45-0.22.38-0.59s-0.15-.82-0.22-1.23a0.78,0.78,0,0,1,.26-0.82,0.85,0.85,0,0,1,.95.24A3,3,0,0,1,694.25,31.64Z" transform="translate(-645.21 -1.23)"/><path class="cls-1" d="M673.36,26.49c0.09,0.34.34,0.3,0.52,0.1s0.33-.57.55-0.81a0.74,0.74,0,0,1,.82-0.36,0.56,0.56,0,0,1,.48.71c-0.12.46-.87,1-0.73,1.51a0.69,0.69,0,0,0,.7.44,1.86,1.86,0,0,1,1.36.67,1,1,0,0,1-.37.86c-0.72.42-1.46-.87-2-0.37a0.9,0.9,0,0,0,0,.95,1.31,1.31,0,0,1-.19,1,0.55,0.55,0,0,1-.87.08,1.29,1.29,0,0,1-.32-1.1c0-.42.41-1.88-0.57-1.36-0.55.28-1.42,1.45-2.1,0.73a0.83,0.83,0,0,1-.12-1.1,1.82,1.82,0,0,1,1.29-.72c0.41-.13.37-0.33,0.22-0.67s-0.36-.75-0.54-1.13a0.77,0.77,0,0,1,0-.86,0.84,0.84,0,0,1,1,0A3,3,0,0,1,673.36,26.49Z" transform="translate(-645.21 -1.23)"/><path class="cls-1" d="M682,39.93c0.32,0.15.45-.07,0.41-0.33s-0.21-.62-0.26-0.95a0.74,0.74,0,0,1,.26-0.86,0.56,0.56,0,0,1,.85.1c0.27,0.4.22,1.34,0.67,1.54a0.7,0.7,0,0,0,.8-0.25,1.86,1.86,0,0,1,1.4-.59,1,1,0,0,1,.41.85c-0.15.82-1.62,0.54-1.56,1.25a0.9,0.9,0,0,0,.72.62,1.32,1.32,0,0,1,.65.81,0.55,0.55,0,0,1-.51.71,1.29,1.29,0,0,1-1-.47c-0.31-.29-1.15-1.54-1.41-0.46-0.14.6,0.17,2-.82,2.07a0.83,0.83,0,0,1-.91-0.62,1.82,1.82,0,0,1,.29-1.45c0.16-.39,0-0.5-0.37-0.6L680.38,41a0.77,0.77,0,0,1-.63-0.59,0.84,0.84,0,0,1,.63-0.75A3,3,0,0,1,682,39.93Z" transform="translate(-645.21 -1.23)"/><path class="cls-1" d="M671.79,12.17c0.35,0,.38-0.24.24-0.47s-0.45-.48-0.62-0.76a0.73,0.73,0,0,1-.11-0.89,0.56,0.56,0,0,1,.82-0.25c0.41,0.25.74,1.13,1.24,1.14a0.69,0.69,0,0,0,.63-0.55,1.86,1.86,0,0,1,1-1.11,1,1,0,0,1,.72.61c0.19,0.81-1.26,1.15-.92,1.78a0.9,0.9,0,0,0,.91.28,1.31,1.31,0,0,1,.92.48,0.55,0.55,0,0,1-.17.86,1.29,1.29,0,0,1-1.14,0c-0.4-.14-1.68-0.94-1.47.16,0.11,0.6,1,1.78.09,2.22a0.83,0.83,0,0,1-1.08-.2,1.81,1.81,0,0,1-.32-1.44c0-.43-0.21-0.45-0.58-0.4l-1.24.19a0.77,0.77,0,0,1-.82-0.29,0.84,0.84,0,0,1,.27-0.94A3,3,0,0,1,671.79,12.17Z" transform="translate(-645.21 -1.23)"/><path class="cls-1" d="M678.06,24.55c0.35,0,.38-0.24.24-0.47s-0.45-.48-0.62-0.76a0.74,0.74,0,0,1-.11-0.89,0.56,0.56,0,0,1,.82-0.25c0.41,0.25.74,1.13,1.24,1.14a0.69,0.69,0,0,0,.63-0.55,1.86,1.86,0,0,1,1-1.11,1,1,0,0,1,.72.61c0.19,0.81-1.26,1.15-.92,1.78a0.9,0.9,0,0,0,.91.28,1.32,1.32,0,0,1,.93.48,0.55,0.55,0,0,1-.17.86,1.29,1.29,0,0,1-1.14,0c-0.4-.14-1.68-0.94-1.47.16,0.11,0.6,1,1.78.09,2.22a0.83,0.83,0,0,1-1.08-.2,1.82,1.82,0,0,1-.32-1.44c0-.43-0.21-0.45-0.58-0.4l-1.24.19a0.78,0.78,0,0,1-.82-0.29,0.85,0.85,0,0,1,.27-0.94A2.94,2.94,0,0,1,678.06,24.55Z" transform="translate(-645.21 -1.23)"/><path class="cls-1" d="M663.63,9.44c-0.22-.27-0.44-0.13-0.51.12s-0.07.65-.16,1a0.74,0.74,0,0,1-.59.67,0.56,0.56,0,0,1-.73-0.45c-0.08-.47.36-1.31,0-1.68A0.69,0.69,0,0,0,660.85,9a1.86,1.86,0,0,1-1.52-.05,1,1,0,0,1,0-.94c0.48-.68,1.69.19,1.94-0.48a0.9,0.9,0,0,0-.39-0.86,1.31,1.31,0,0,1-.25-1,0.55,0.55,0,0,1,.76-0.43,1.29,1.29,0,0,1,.75.86c0.16,0.39.4,1.88,1.09,1,0.38-.48.69-1.91,1.61-1.53a0.83,0.83,0,0,1,.56.95,1.82,1.82,0,0,1-.87,1.19c-0.31.29-.2,0.46,0.08,0.7l1,0.81a0.78,0.78,0,0,1,.32.8,0.84,0.84,0,0,1-.88.41A3,3,0,0,1,663.63,9.44Z" transform="translate(-645.21 -1.23)"/><path class="cls-1" d="M687.15,29.36c-0.22-.27-0.44-0.13-0.51.12s-0.07.65-.16,1a0.73,0.73,0,0,1-.59.67,0.56,0.56,0,0,1-.73-0.45c-0.08-.47.36-1.31,0-1.68a0.69,0.69,0,0,0-.83-0.11,1.86,1.86,0,0,1-1.52-.05,1,1,0,0,1,0-.94c0.48-.68,1.69.19,1.94-0.48a0.9,0.9,0,0,0-.39-0.87,1.31,1.31,0,0,1-.25-1,0.55,0.55,0,0,1,.76-0.43,1.29,1.29,0,0,1,.75.86c0.16,0.39.4,1.88,1.09,1,0.38-.48.69-1.91,1.61-1.53a0.83,0.83,0,0,1,.57.95,1.82,1.82,0,0,1-.87,1.19c-0.32.29-.2,0.46,0.08,0.7l1,0.81a0.78,0.78,0,0,1,.32.8,0.84,0.84,0,0,1-.88.42A3,3,0,0,1,687.15,29.36Z" transform="translate(-645.21 -1.23)"/><path class="cls-1" d="M660.3,33.75c0.32-.14.24-0.39,0-0.53s-0.61-.24-0.89-0.42a0.74,0.74,0,0,1-.49-0.75,0.56,0.56,0,0,1,.63-0.58c0.48,0,1.16.7,1.61,0.49a0.7,0.7,0,0,0,.33-0.77,1.86,1.86,0,0,1,.45-1.45,1,1,0,0,1,.91.23c0.53,0.65-.63,1.58-0.06,2a0.9,0.9,0,0,0,.94-0.14,1.32,1.32,0,0,1,1,0,0.55,0.55,0,0,1,.22.85,1.29,1.29,0,0,1-1,.49c-0.42,0-1.92-.12-1.26.78,0.36,0.49,1.65,1.18,1,2a0.83,0.83,0,0,1-1.06.29,1.82,1.82,0,0,1-.91-1.16c-0.19-.38-0.38-0.32-0.7-0.11l-1,.71a0.77,0.77,0,0,1-.86.1,0.84,0.84,0,0,1-.16-1A3,3,0,0,1,660.3,33.75Z" transform="translate(-645.21 -1.23)"/><path class="cls-1" d="M690.2,49.76c-0.23-.27-0.44-0.13-0.51.12s-0.07.65-.16,1a0.74,0.74,0,0,1-.59.67,0.56,0.56,0,0,1-.73-0.45c-0.08-.47.36-1.3,0-1.68a0.7,0.7,0,0,0-.82-0.11,1.86,1.86,0,0,1-1.52,0,1,1,0,0,1,0-.94c0.48-.68,1.69.19,1.94-0.47a0.9,0.9,0,0,0-.39-0.87,1.31,1.31,0,0,1-.25-1A0.55,0.55,0,0,1,688,45.5a1.29,1.29,0,0,1,.75.87c0.16,0.39.4,1.88,1.09,1,0.38-.48.7-1.91,1.61-1.54a0.83,0.83,0,0,1,.57.95A1.82,1.82,0,0,1,691.1,48c-0.31.29-.2,0.45,0.08,0.7l1,0.81a0.77,0.77,0,0,1,.32.8,0.85,0.85,0,0,1-.89.42A3,3,0,0,1,690.2,49.76Z" transform="translate(-645.21 -1.23)"/><path class="cls-1" d="M700.5,38.26c0,0.48-.37.49-0.66,0.28s-0.6-.66-1-0.93a1,1,0,0,0-1.19-.25,0.76,0.76,0,0,0-.44,1.08c0.29,0.58,1.44,1.14,1.4,1.81a0.94,0.94,0,0,1-.81.78c-0.59.18-1.64,0.84-1.62,1.27a1.32,1.32,0,0,0,.74,1c1.07,0.36,1.7-1.57,2.51-1,0.47,0.31.26,0.79,0.27,1.26a1.78,1.78,0,0,0,.54,1.31,0.74,0.74,0,0,0,1.18-.13,1.75,1.75,0,0,0,.13-1.55c-0.14-.56-1.07-2.38.38-2,0.8,0.23,2.29,1.53,3,.38a1.13,1.13,0,0,0-.14-1.49,2.47,2.47,0,0,0-1.91-.6c-0.58-.06-0.59-0.33-0.47-0.83s0.27-1.1.4-1.65a1.05,1.05,0,0,0-.29-1.14,1.15,1.15,0,0,0-1.3.25A4,4,0,0,0,700.5,38.26Z" transform="translate(-645.21 -1.23)"/><path class="cls-1" d="M653,39.59c-0.36.32-.61,0.08-0.66-0.27s0-.89,0-1.33a1,1,0,0,0-.66-1,0.76,0.76,0,0,0-1.07.45c-0.2.62,0.22,1.83-.29,2.27a0.94,0.94,0,0,1-1.13,0c-0.54-.29-1.75-0.57-2-0.25a1.32,1.32,0,0,0-.22,1.26c0.51,1,2.31.1,2.51,1,0.12,0.55-.37.74-0.7,1.08a1.78,1.78,0,0,0-.54,1.31,0.74,0.74,0,0,0,.93.74,1.76,1.76,0,0,0,1.18-1c0.29-.49.92-2.44,1.66-1.12,0.41,0.73.54,2.7,1.85,2.39a1.13,1.13,0,0,0,1-1.15,2.47,2.47,0,0,0-.92-1.78c-0.36-.45-0.18-0.65.25-0.92l1.45-.89a1.05,1.05,0,0,0,.6-1,1.15,1.15,0,0,0-1.1-.74A4,4,0,0,0,653,39.59Z" transform="translate(-645.21 -1.23)"/><path class="cls-1" d="M699.61,17.05c-0.45.2-.33,0.54,0,0.73s0.85,0.33,1.24.57a1,1,0,0,1,.68,1,0.78,0.78,0,0,1-.87.81c-0.66-.07-1.61-1-2.24-0.67a1,1,0,0,0-.45,1.06c0,0.62-.2,1.87-0.62,2a1.35,1.35,0,0,1-1.26-.32c-0.73-.89.87-2.2,0.07-2.77-0.47-.34-0.85,0-1.3.21a1.82,1.82,0,0,1-1.44,0,0.76,0.76,0,0,1-.31-1.17,1.79,1.79,0,0,1,1.43-.69c0.58-.07,2.66.15,1.74-1.09-0.51-.68-2.3-1.62-1.47-2.72a1.15,1.15,0,0,1,1.47-.41,2.52,2.52,0,0,1,1.28,1.6c0.27,0.53.53,0.44,1,.15l1.43-1a1.07,1.07,0,0,1,1.19-.14,1.17,1.17,0,0,1,.23,1.33A4.09,4.09,0,0,1,699.61,17.05Z" transform="translate(-645.21 -1.23)"/><path class="cls-1" d="M669.66,30.17c-0.27.41,0,.63,0.37,0.63s0.89-.18,1.35-0.18a1,1,0,0,1,1.13.51,0.78,0.78,0,0,1-.29,1.15c-0.59.3-1.88,0.06-2.24,0.64a1,1,0,0,0,.19,1.14c0.38,0.5.84,1.68,0.56,2a1.35,1.35,0,0,1-1.24.41c-1.1-.36-0.45-2.32-1.43-2.38-0.57,0-.69.49-1,0.87a1.83,1.83,0,0,1-1.24.74A0.76,0.76,0,0,1,665,34.9a1.79,1.79,0,0,1,.83-1.35c0.46-.37,2.32-1.3.88-1.85-0.8-.3-2.81-0.13-2.7-1.5a1.15,1.15,0,0,1,1-1.14,2.52,2.52,0,0,1,1.94.66c0.51,0.3.69,0.08,0.89-.4s0.44-1.07.67-1.6a1.08,1.08,0,0,1,.93-0.76,1.17,1.17,0,0,1,.92,1A4.09,4.09,0,0,1,669.66,30.17Z" transform="translate(-645.21 -1.23)"/><path class="cls-1" d="M666.26,18.1c0-.49-0.4-0.49-0.68-0.25s-0.58.7-.94,1a1,1,0,0,1-1.2.31,0.78,0.78,0,0,1-.49-1.08c0.27-.61,1.43-1.22,1.35-1.9a1,1,0,0,0-.86-0.77c-0.61-.16-1.71-0.79-1.7-1.23a1.35,1.35,0,0,1,.71-1.09c1.08-.41,1.8,1.53,2.6,1,0.47-.33.23-0.81,0.22-1.3a1.83,1.83,0,0,1,.5-1.35,0.76,0.76,0,0,1,1.21.09,1.79,1.79,0,0,1,.19,1.57c-0.12.57-1,2.47,0.47,2,0.81-.26,2.28-1.65,3-0.51a1.15,1.15,0,0,1-.08,1.53,2.52,2.52,0,0,1-1.92.69c-0.59.09-.59,0.36-0.45,0.87s0.32,1.11.47,1.67a1.08,1.08,0,0,1-.25,1.17,1.17,1.17,0,0,1-1.34-.21A4.08,4.08,0,0,1,666.26,18.1Z" transform="translate(-645.21 -1.23)"/><path class="cls-1" d="M691.86,24c0.37,0.33.63,0.08,0.67-.28s0-.91,0-1.36a1,1,0,0,1,.67-1,0.78,0.78,0,0,1,1.1.46c0.21,0.63-.22,1.86.3,2.31a1,1,0,0,0,1.15,0c0.55-.3,1.79-0.58,2.09-0.25a1.35,1.35,0,0,1,.22,1.29c-0.52,1-2.36.1-2.56,1.06-0.12.56,0.38,0.76,0.72,1.1a1.83,1.83,0,0,1,.55,1.33,0.76,0.76,0,0,1-.95.76,1.79,1.79,0,0,1-1.21-1c-0.3-.51-0.95-2.49-1.7-1.15-0.42.74-.55,2.76-1.89,2.44a1.15,1.15,0,0,1-1-1.18,2.52,2.52,0,0,1,.94-1.81c0.37-.46.18-0.67-0.26-0.94l-1.48-.91a1.08,1.08,0,0,1-.61-1,1.17,1.17,0,0,1,1.12-.76A4.09,4.09,0,0,1,691.86,24Z" transform="translate(-645.21 -1.23)"/><path class="cls-1" d="M677.51,32.15c0.37,0.33.63,0.08,0.67-.28s0-.91,0-1.36a1,1,0,0,1,.67-1,0.78,0.78,0,0,1,1.1.46c0.21,0.63-.22,1.86.3,2.31a1,1,0,0,0,1.15,0c0.55-.3,1.79-0.58,2.09-0.25a1.35,1.35,0,0,1,.22,1.29c-0.52,1-2.36.1-2.56,1.06-0.12.56,0.38,0.75,0.72,1.1a1.83,1.83,0,0,1,.55,1.34,0.76,0.76,0,0,1-.95.76,1.79,1.79,0,0,1-1.21-1c-0.3-.51-0.95-2.49-1.7-1.15-0.42.74-.55,2.76-1.89,2.44a1.15,1.15,0,0,1-1-1.18,2.52,2.52,0,0,1,.94-1.81c0.37-.46.18-0.67-0.26-0.94l-1.48-.91a1.07,1.07,0,0,1-.61-1,1.17,1.17,0,0,1,1.12-.76A4.09,4.09,0,0,1,677.51,32.15Z" transform="translate(-645.21 -1.23)"/><path class="cls-1" d="M687.26,55.37c-0.45.2-.33,0.54,0,0.73s0.85,0.33,1.24.57a1,1,0,0,1,.68,1,0.78,0.78,0,0,1-.87.81c-0.66-.07-1.61-1-2.23-0.67a1,1,0,0,0-.45,1.06c0,0.63-.2,1.87-0.62,2a1.35,1.35,0,0,1-1.26-.32c-0.73-.89.87-2.2,0.07-2.77-0.47-.34-0.85,0-1.3.21A1.83,1.83,0,0,1,681,58a0.76,0.76,0,0,1-.31-1.17,1.79,1.79,0,0,1,1.43-.69c0.58-.07,2.66.15,1.74-1.09-0.51-.68-2.3-1.62-1.47-2.72a1.15,1.15,0,0,1,1.47-.41,2.52,2.52,0,0,1,1.27,1.6c0.27,0.53.53,0.44,1,.14l1.43-1a1.08,1.08,0,0,1,1.19-.14,1.17,1.17,0,0,1,.23,1.33A4.08,4.08,0,0,1,687.26,55.37Z" transform="translate(-645.21 -1.23)"/><path class="cls-1" d="M659.42,12.91c-0.45.2-.33,0.54,0,0.73s0.85,0.33,1.24.57a1,1,0,0,1,.68,1,0.78,0.78,0,0,1-.87.81c-0.66-.06-1.61-1-2.23-0.67a1,1,0,0,0-.45,1.06c0,0.63-.2,1.87-0.62,2a1.35,1.35,0,0,1-1.27-.32c-0.73-.89.87-2.2,0.07-2.77-0.47-.34-0.85,0-1.3.21a1.82,1.82,0,0,1-1.44,0,0.76,0.76,0,0,1-.31-1.17,1.79,1.79,0,0,1,1.43-.69c0.58-.07,2.66.15,1.74-1.09-0.51-.68-2.3-1.62-1.47-2.72a1.15,1.15,0,0,1,1.47-.41,2.52,2.52,0,0,1,1.28,1.6c0.27,0.53.53,0.44,1,.15l1.43-1a1.08,1.08,0,0,1,1.19-.14,1.17,1.17,0,0,1,.23,1.33A4.08,4.08,0,0,1,659.42,12.91Z" transform="translate(-645.21 -1.23)"/><path class="cls-1" d="M693.79,39.86c-0.45.2-.33,0.54,0,0.73s0.85,0.33,1.24.57a1,1,0,0,1,.68,1,0.78,0.78,0,0,1-.87.81c-0.66-.07-1.61-1-2.23-0.67a1,1,0,0,0-.45,1.06c0,0.62-.2,1.87-0.62,2a1.35,1.35,0,0,1-1.26-.32c-0.73-.89.87-2.2,0.07-2.77-0.47-.34-0.84,0-1.3.21a1.83,1.83,0,0,1-1.44,0,0.76,0.76,0,0,1-.31-1.17,1.79,1.79,0,0,1,1.43-.69c0.58-.07,2.66.15,1.74-1.09-0.51-.68-2.3-1.62-1.47-2.72a1.15,1.15,0,0,1,1.47-.41,2.52,2.52,0,0,1,1.27,1.6c0.27,0.53.53,0.44,1,.15l1.43-1a1.07,1.07,0,0,1,1.19-.14,1.17,1.17,0,0,1,.23,1.34A4.09,4.09,0,0,1,693.79,39.86Z" transform="translate(-645.21 -1.23)"/><path class="cls-1" d="M668.15,39.86c-0.45.2-.33,0.54,0,0.73s0.85,0.33,1.24.57a1,1,0,0,1,.68,1,0.78,0.78,0,0,1-.87.81c-0.66-.07-1.61-1-2.23-0.67a1,1,0,0,0-.45,1.06c0,0.62-.2,1.87-0.62,2a1.35,1.35,0,0,1-1.26-.32c-0.73-.89.87-2.2,0.07-2.77-0.47-.34-0.84,0-1.3.21a1.83,1.83,0,0,1-1.44,0,0.76,0.76,0,0,1-.31-1.17,1.79,1.79,0,0,1,1.43-.69c0.58-.07,2.66.15,1.74-1.09-0.51-.68-2.3-1.62-1.47-2.72a1.15,1.15,0,0,1,1.47-.41,2.52,2.52,0,0,1,1.27,1.6c0.27,0.53.53,0.44,1,.15l1.43-1a1.07,1.07,0,0,1,1.19-.14,1.17,1.17,0,0,1,.24,1.34A4.09,4.09,0,0,1,668.15,39.86Z" transform="translate(-645.21 -1.23)"/><path class="cls-1" d="M666.34,51.05c-0.32-.37-0.61-0.16-0.7.19s-0.07.91-.18,1.35a1,1,0,0,1-.79.95,0.78,0.78,0,0,1-1-.59c-0.13-.65.45-1.82,0-2.33a1,1,0,0,0-1.15-.12c-0.58.23-1.85,0.36-2.1,0a1.35,1.35,0,0,1-.06-1.3c0.64-1,2.35.19,2.67-.74,0.19-.54-0.29-0.8-0.58-1.18a1.82,1.82,0,0,1-.39-1.39,0.76,0.76,0,0,1,1-.63,1.79,1.79,0,0,1,1.07,1.17c0.23,0.54.63,2.59,1.55,1.35,0.5-.69.88-2.67,2.17-2.2a1.15,1.15,0,0,1,.82,1.29,2.52,2.52,0,0,1-1.16,1.69c-0.42.41-.26,0.64,0.14,1L669,50.58a1.08,1.08,0,0,1,.48,1.1,1.17,1.17,0,0,1-1.21.61A4.09,4.09,0,0,1,666.34,51.05Z" transform="translate(-645.21 -1.23)"/><path class="cls-1" d="M680.25,11.88c0.11,0.48.46,0.43,0.71,0.17s0.49-.77.81-1.1a1,1,0,0,1,1.15-.45,0.78,0.78,0,0,1,.62,1c-0.2.64-1.26,1.39-1.1,2.06a1,1,0,0,0,1,.65c0.62,0.08,1.79.57,1.85,1a1.35,1.35,0,0,1-.57,1.17c-1,.54-2-1.29-2.7-0.63-0.42.39-.13,0.84-0.06,1.31a1.83,1.83,0,0,1-.33,1.41,0.76,0.76,0,0,1-1.21.06A1.79,1.79,0,0,1,680,17c0.05-.58.68-2.58-0.72-1.92-0.77.36-2.05,1.93-3,.89a1.15,1.15,0,0,1-.11-1.52,2.52,2.52,0,0,1,1.82-.93c0.57-.16.54-0.44,0.34-0.92s-0.46-1.06-.68-1.6a1.07,1.07,0,0,1,.1-1.2,1.17,1.17,0,0,1,1.35,0A4.08,4.08,0,0,1,680.25,11.88Z" transform="translate(-645.21 -1.23)"/><path class="cls-1" d="M651.61,19.14c0.11,0.48.46,0.43,0.71,0.17s0.49-.77.81-1.1a1,1,0,0,1,1.15-.45,0.78,0.78,0,0,1,.62,1c-0.2.64-1.26,1.39-1.1,2.06a1,1,0,0,0,1,.65c0.62,0.08,1.79.57,1.85,1a1.35,1.35,0,0,1-.57,1.17c-1,.54-2-1.29-2.7-0.63-0.42.39-.13,0.84-0.06,1.31a1.82,1.82,0,0,1-.33,1.41,0.76,0.76,0,0,1-1.21.06,1.79,1.79,0,0,1-.39-1.54c0.05-.58.68-2.58-0.71-1.92-0.77.36-2.05,1.93-3,.89a1.15,1.15,0,0,1-.11-1.53,2.51,2.51,0,0,1,1.82-.93c0.57-.16.54-0.44,0.34-0.92s-0.46-1.06-.68-1.6a1.08,1.08,0,0,1,.1-1.2,1.17,1.17,0,0,1,1.35,0A4.09,4.09,0,0,1,651.61,19.14Z" transform="translate(-645.21 -1.23)"/><path class="cls-1" d="M680.17,3.82c-0.29.36-.53,0.14-0.6-0.22s0-.91-0.11-1.36a1,1,0,0,0-.65-1,0.66,0.66,0,0,0-.9.55c-0.13.65,0.32,1.84-.09,2.33a0.74,0.74,0,0,1-1,.07C676.33,4,675.25,3.8,675,4.15a1.55,1.55,0,0,0-.1,1.3c0.52,1,2-.1,2.27.84a1.32,1.32,0,0,1-.53,1.16,2,2,0,0,0-.38,1.38,0.67,0.67,0,0,0,.87.67,1.69,1.69,0,0,0,1-1.12c0.22-.53.63-2.56,1.37-1.29,0.41,0.7.67,2.7,1.79,2.28A1.15,1.15,0,0,0,682,8.11a2.59,2.59,0,0,0-.94-1.73c-0.35-.43-0.21-0.65.15-1l1.2-1a1.14,1.14,0,0,0,.45-1.08,1,1,0,0,0-1-.66A3.39,3.39,0,0,0,680.17,3.82Z" transform="translate(-645.21 -1.23)"/><path class="cls-1" d="M674.45,47.54c-0.08.45-.4,0.38-0.63,0.1s-0.46-.79-0.76-1.13a1,1,0,0,0-1-.54,0.66,0.66,0,0,0-.52.92c0.2,0.63,1.18,1.45,1.05,2.08a0.74,0.74,0,0,1-.83.54c-0.55,0-1.58.39-1.62,0.81a1.55,1.55,0,0,0,.54,1.18c0.93,0.61,1.72-1.07,2.39-.36a1.31,1.31,0,0,1,.1,1.27,2,2,0,0,0,.34,1.39,0.66,0.66,0,0,0,1.08.17,1.68,1.68,0,0,0,.29-1.45c-0.07-.57-0.69-2.55.58-1.79,0.7,0.42,1.9,2,2.67,1.12a1.15,1.15,0,0,0,0-1.46,2.59,2.59,0,0,0-1.66-1.06c-0.52-.2-0.49-0.47-0.33-0.92s0.37-1,.56-1.48a1.15,1.15,0,0,0-.13-1.16,1,1,0,0,0-1.21-.08A3.39,3.39,0,0,0,674.45,47.54Z" transform="translate(-645.21 -1.23)"/><path class="cls-1" d="M703.72,32.4c-0.4-.23-0.54.06-0.48,0.42s0.3,0.86.38,1.31a1,1,0,0,1-.26,1.15,0.66,0.66,0,0,1-1-.19c-0.36-.56-0.35-1.83-0.92-2.14a0.74,0.74,0,0,0-.95.28c-0.37.41-1.32,1-1.66,0.72a1.54,1.54,0,0,1-.56-1.18c0.13-1.1,1.93-.63,1.82-1.6a1.32,1.32,0,0,0-.91-0.89,2,2,0,0,1-.84-1.15,0.66,0.66,0,0,1,.57-0.94,1.68,1.68,0,0,1,1.3.71c0.39,0.42,1.5,2.17,1.74.71,0.13-.8-0.34-2.77.86-2.77a1.15,1.15,0,0,1,1.15.91,2.59,2.59,0,0,1-.26,1.95c-0.17.53,0,.68,0.49,0.84l1.49,0.53a1.14,1.14,0,0,1,.81.85,1,1,0,0,1-.71,1A3.39,3.39,0,0,1,703.72,32.4Z" transform="translate(-645.21 -1.23)"/><path class="cls-1" d="M674,43c0-.46-0.33-0.43-0.6-0.2s-0.58.7-.93,1a1,1,0,0,1-1.12.37,0.66,0.66,0,0,1-.37-1c0.29-.59,1.39-1.25,1.37-1.89a0.74,0.74,0,0,0-.73-0.67c-0.54-.11-1.5-0.64-1.46-1.06a1.54,1.54,0,0,1,.73-1.08c1-.45,1.53,1.33,2.3.74a1.31,1.31,0,0,0,.3-1.24A2,2,0,0,1,674,36.7a0.66,0.66,0,0,1,1.1,0,1.69,1.69,0,0,1,.06,1.48c-0.16.55-1.09,2.4,0.28,1.86,0.76-.3,2.2-1.71,2.81-0.68a1.16,1.16,0,0,1-.19,1.45,2.59,2.59,0,0,1-1.81.78c-0.54.12-.56,0.38-0.47,0.85s0.21,1,.31,1.55a1.14,1.14,0,0,1-.32,1.13,1,1,0,0,1-1.21-.11A3.4,3.4,0,0,1,674,43Z" transform="translate(-645.21 -1.23)"/><path class="cls-1" d="M675.46,21.48c-0.4-.23-0.54.06-0.48,0.42s0.3,0.86.38,1.31a1,1,0,0,1-.26,1.15,0.66,0.66,0,0,1-1-.19c-0.36-.56-0.35-1.83-0.92-2.14a0.74,0.74,0,0,0-1,.28c-0.37.41-1.32,1-1.66,0.72a1.55,1.55,0,0,1-.56-1.18c0.13-1.1,1.93-.63,1.82-1.6a1.32,1.32,0,0,0-.91-0.89A2,2,0,0,1,670,18.2a0.66,0.66,0,0,1,.57-0.94,1.68,1.68,0,0,1,1.3.71c0.39,0.42,1.5,2.17,1.74.71,0.13-.8-0.34-2.77.86-2.77a1.15,1.15,0,0,1,1.15.9,2.59,2.59,0,0,1-.26,2c-0.17.52,0,.68,0.49,0.84l1.49,0.53a1.14,1.14,0,0,1,.81.85,1,1,0,0,1-.71,1A3.39,3.39,0,0,1,675.46,21.48Z" transform="translate(-645.21 -1.23)"/><path class="cls-1" d="M677.59,59.19c-0.4-.23-0.54.06-0.48,0.42s0.3,0.86.38,1.31a1,1,0,0,1-.26,1.15,0.66,0.66,0,0,1-1-.19c-0.36-.56-0.36-1.83-0.92-2.14a0.74,0.74,0,0,0-1,.28c-0.37.41-1.32,1-1.66,0.72a1.55,1.55,0,0,1-.56-1.18c0.13-1.1,1.93-.63,1.82-1.6a1.31,1.31,0,0,0-.91-0.89,2,2,0,0,1-.84-1.15,0.66,0.66,0,0,1,.57-0.94,1.68,1.68,0,0,1,1.3.71c0.39,0.42,1.5,2.17,1.74.71,0.13-.81-0.34-2.77.86-2.77a1.15,1.15,0,0,1,1.15.91,2.59,2.59,0,0,1-.26,1.95c-0.17.53,0,.68,0.49,0.84l1.49,0.53a1.14,1.14,0,0,1,.81.85,1,1,0,0,1-.71,1A3.39,3.39,0,0,1,677.59,59.19Z" transform="translate(-645.21 -1.23)"/><path class="cls-1" d="M668.4,5.07c0.41,0.2.54-.1,0.44-0.45s-0.37-.83-0.48-1.27a1,1,0,0,1,.17-1.16,0.66,0.66,0,0,1,1.05.11c0.4,0.53.5,1.8,1.08,2.07A0.74,0.74,0,0,0,671.59,4c0.34-.44,1.24-1.06,1.6-0.84a1.55,1.55,0,0,1,.65,1.13c0,1.11-1.87.78-1.69,1.73a1.31,1.31,0,0,0,1,.82,2,2,0,0,1,.93,1.08,0.66,0.66,0,0,1-.49,1,1.68,1.68,0,0,1-1.35-.6c-0.42-.38-1.67-2-1.79-0.57-0.07.81,0.56,2.73-.64,2.82a1.15,1.15,0,0,1-1.22-.81,2.59,2.59,0,0,1,.11-2c0.13-.54-0.09-0.67-0.55-0.8l-1.53-.41a1.14,1.14,0,0,1-.87-0.78,1,1,0,0,1,.63-1A3.39,3.39,0,0,1,668.4,5.07Z" transform="translate(-645.21 -1.23)"/><path class="cls-1" d="M655.64,26.9c0.41,0.2.54-.1,0.44-0.45s-0.37-.83-0.48-1.27a1,1,0,0,1,.17-1.16,0.66,0.66,0,0,1,1.05.11c0.4,0.53.5,1.8,1.08,2.07a0.74,0.74,0,0,0,.93-0.36c0.34-.44,1.24-1.06,1.6-0.84a1.55,1.55,0,0,1,.65,1.13c0,1.11-1.87.78-1.69,1.73a1.32,1.32,0,0,0,1,.82,2,2,0,0,1,.93,1.08,0.66,0.66,0,0,1-.49,1,1.69,1.69,0,0,1-1.35-.6c-0.42-.39-1.67-2-1.79-0.57-0.07.81,0.56,2.73-.64,2.82a1.16,1.16,0,0,1-1.22-.81,2.59,2.59,0,0,1,.11-2c0.13-.54-0.09-0.67-0.55-0.8l-1.53-.41A1.14,1.14,0,0,1,653,27.6a1,1,0,0,1,.64-1A3.39,3.39,0,0,1,655.64,26.9Z" transform="translate(-645.21 -1.23)"/><path class="cls-1" d="M666.27,55.54c0.41,0.2.54-.1,0.45-0.45s-0.37-.84-0.48-1.27a1,1,0,0,1,.17-1.16,0.66,0.66,0,0,1,1.05.11c0.4,0.53.5,1.8,1.08,2.07a0.74,0.74,0,0,0,.92-0.36c0.34-.44,1.24-1.06,1.6-0.84a1.54,1.54,0,0,1,.65,1.13c0,1.11-1.87.78-1.69,1.73a1.31,1.31,0,0,0,1,.82,2,2,0,0,1,.93,1.08,0.66,0.66,0,0,1-.49,1,1.69,1.69,0,0,1-1.35-.6c-0.42-.38-1.67-2-1.79-0.57-0.07.81,0.56,2.73-.64,2.83a1.15,1.15,0,0,1-1.22-.81,2.59,2.59,0,0,1,.11-2c0.13-.54-0.09-0.67-0.55-0.8L664.47,57a1.14,1.14,0,0,1-.87-0.78,1,1,0,0,1,.63-1A3.4,3.4,0,0,1,666.27,55.54Z" transform="translate(-645.21 -1.23)"/><path class="cls-1" d="M697.86,49.24c-0.26-.32-0.51-0.15-0.59.14s-0.08.76-.19,1.13a0.86,0.86,0,0,1-.69.78,0.65,0.65,0,0,1-.85-0.52c-0.09-.55.42-1.52,0-2a0.81,0.81,0,0,0-1-.13,2.16,2.16,0,0,1-1.76-.06,1.13,1.13,0,0,1,0-1.09c0.56-.79,2,0.22,2.26-0.55a1,1,0,0,0-.45-1,1.53,1.53,0,0,1-.29-1.18,0.64,0.64,0,0,1,.88-0.51,1.5,1.5,0,0,1,.87,1c0.18,0.46.46,2.19,1.26,1.17,0.44-.56.81-2.22,1.88-1.78a1,1,0,0,1,.66,1.1,2.11,2.11,0,0,1-1,1.38c-0.37.33-.24,0.53,0.09,0.82l1.11,0.94a0.9,0.9,0,0,1,.37.93,1,1,0,0,1-1,.48A3.43,3.43,0,0,1,697.86,49.24Z" transform="translate(-645.21 -1.23)"/><path class="cls-1" d="M655.84,50.22c-0.26-.32-0.51-0.15-0.59.14s-0.08.76-.19,1.13a0.85,0.85,0,0,1-.69.78,0.65,0.65,0,0,1-.85-0.52c-0.09-.55.42-1.52,0-2a0.81,0.81,0,0,0-1-.13,2.16,2.16,0,0,1-1.76-.06,1.13,1.13,0,0,1,0-1.09c0.56-.79,2,0.22,2.26-0.55a1.05,1.05,0,0,0-.45-1,1.53,1.53,0,0,1-.29-1.18,0.63,0.63,0,0,1,.88-0.51,1.5,1.5,0,0,1,.87,1c0.18,0.46.46,2.19,1.26,1.17,0.44-.56.81-2.22,1.88-1.78a1,1,0,0,1,.66,1.1,2.11,2.11,0,0,1-1,1.38c-0.37.33-.24,0.53,0.09,0.81l1.11,0.94a0.9,0.9,0,0,1,.37.93,1,1,0,0,1-1,.48A3.43,3.43,0,0,1,655.84,50.22Z" transform="translate(-645.21 -1.23)"/></svg>