<svg id="WW_SecondaryIcons_FlowersLeaves_CMYK" xmlns="http://www.w3.org/2000/svg" viewBox="0 0 57.34 69.89"><defs><style>.cls-1{fill:#69b94c;}</style></defs><title>Icons_FlowersLeaves_14</title><path class="cls-1" d="M458.67,147.92c7.23,10,3,27.83-3.12,36.84A66.67,66.67,0,0,1,437,202.29c-3,1.63-1.76.81-4.79,1.14-1.84,0-3-.21-4.77.6-3.73,1.71-5,6.53-7.24,9.7,2.7,0.09,7.58.65,10.21-.56,3.73-1.71,6.23-7.71,6.38-7.85,4.26-3.85,8.57-7.38,12.61-11.89-4.88,3.83,2.6,10.91,1.39,16.62,8.25-8.75,5.89-14.65,1.28-18.91,3.21-2.27,7.07-7.76,8-11.62-2.37,2.95-.81,8.08,1,10.95,1.43,2.53,7.07,5,6.66,7.57-0.18-4.44,2.11-8.14.43-13-1.29-3.39-3.22-7-6.76-7.79,0.89-3.86,3.17-7.57,2.67-12.12,2,7.31,8.86,6.56,13.43,11.9,0.15-9.59-2.72-18.67-12.62-13.6-0.06-4.76-2-8.93-4-13.31,4.59,4.8,13.41-3.77,16.64-.2-3.31-4.32-16.72-10.39-17.37-.8a7.08,7.08,0,0,0-1.15-2.1Z" transform="translate(-420.22 -144.05)"/><path class="cls-1" d="M458.56,181.38c-6.44-9.75-15.14-1.52-20.2,3.87,6.9,1.55,14.46,1,19.54-4.65" transform="translate(-420.22 -144.05)"/><path class="cls-1" d="M463.44,163.86c-6-4.14-10.27,4-12.58,8.39,7.86,1.63,8.93-5.3,11.7-9.43" transform="translate(-420.22 -144.05)"/><path class="cls-1" d="M445.15,196.72c0.91-7.92-11.62-5.83-15.63-4.23,4.63,5.48,10.22,5.22,16.44,3.33" transform="translate(-420.22 -144.05)"/></svg>