<svg id="WW_SecondaryIcons_FlowersLeaves_CMYK" xmlns="http://www.w3.org/2000/svg" viewBox="0 0 83.97 83.75"><defs><style>.cls-1{fill:#69b94c;fill-rule:evenodd;}</style></defs><title>Icons_FlowersLeaves_17</title><path class="cls-1" d="M603.31,190.09c0.21,0.13.31-.21,0.45-0.36a1.27,1.27,0,0,0,.46-1,5.82,5.82,0,0,1,.28-2.63c0.45-.79,2.06-1.3,2,0.34a1.63,1.63,0,0,1,1.6.48c-0.24,2.31-3.61,1.62-4.19,3.7a1.65,1.65,0,0,0,1-.49c0.11-.07.29-0.08,0.37-0.14,0.75-.55,1.21-1.78,2.74-1.32a0.81,0.81,0,0,1,.13.59,1.15,1.15,0,0,1,.72.46c-0.42,1.93-3.45,1.87-5.38,1.33a8,8,0,0,0-1.11.71c-0.39.24-.8,0.4-1.19,0.63a15.81,15.81,0,0,0-2.32,2.07c1.57-.72,3.58.89,5.4,0.5,0.25-.05,3.34-1.45,3.44,0a0.58,0.58,0,0,1-.53.65c1.25,0.77-.06,2.46-1.36,1.58,0.3,0.64,1,1.16.83,2.07a1.72,1.72,0,0,1-1,0c0.36,0.92-.91,1.83-1.49,1-0.42-.62-0.09-1.86-0.3-2.94s-0.89-1.25-1.05-1.78c-0.57-.1-1.14-0.52-1.89-0.63a7.31,7.31,0,0,0-3.45.43,2.7,2.7,0,0,0-.26,1.6c-0.78,1-2.53.3-3.36-.23-2.14.63-3.63,1.94-5.77,2.57a3.9,3.9,0,0,1,1.29,1.13c0.92-.65,3-2.53,4.41-0.92a0.93,0.93,0,0,1-.24.8,0.94,0.94,0,0,1,.86.83c0,0.62-.95,1-1.92.83s-1.68-1.15-2.47-.94a1.77,1.77,0,0,0,.42.89,3.42,3.42,0,0,0,.57.82c0.53,0.46,1.46.5,2,.93a2.61,2.61,0,0,1,1,2.37,1.13,1.13,0,0,1-1.84.61,1.14,1.14,0,0,1-2.13.31,4.56,4.56,0,0,1-.13-3.81,2.37,2.37,0,0,0-.61-2.06c-0.13.18-.42,0.31-0.6,0.57a12.07,12.07,0,0,0-.63,1.74c-0.46,1-2.11,1.81-1.83,0a0.9,0.9,0,1,1-.32-1.76c0.67-.61,1.82-0.58,2.95-0.88a1.7,1.7,0,0,0-1.58-1.14,6.42,6.42,0,0,0-1.62.47c-0.5.17-1.08,0.36-1.55,0.55a21.57,21.57,0,0,1-3,1.17c-0.56.13-1.11,0.07-1.69,0.18-0.27.87-.47,1.81-1.72,1.64a1,1,0,0,1-.42-0.74,2.18,2.18,0,0,1-1.25.26,0.88,0.88,0,0,1-.35-0.74,31.92,31.92,0,0,0-3.36-.15c-1.1.1-2.06,0.88-3.1,0.88a4.82,4.82,0,0,0,1.23.69c1.24,0.12,3.06-2.1,4.42-1a1.18,1.18,0,0,1-.24.8,0.86,0.86,0,0,1,.93.75c-0.17,1.47-2.86.55-3.81,0.05a3.38,3.38,0,0,0,.57.82c0.95,0.85,3.25,1.08,3.17,2.27a0.55,0.55,0,0,1-.53.57,2.49,2.49,0,0,1,.06.66c-1.27,1.13-2.42-.72-2.74-1.82,0.1,0.71.45,2.24-.57,2.33-1.87.16-.62-3.41-1.2-4.79a11.14,11.14,0,0,0-2.68-1.31c-0.83-.23-2.27.42-3.38,0.36a5.33,5.33,0,0,1-1,.64c0.12,1.37-1.88,1.06-2-.27-1.33.41-2.36-.54-3.5-0.67-1.43-.16-2.77.16-4.17,0.12-2-.05-4.13-1-6.26-1.25-0.21,0-.45,0-0.66,0-0.36-.06-0.72-0.29-1.09-0.32-0.53,0-1.16.16-1.76,0.18s-1.14.06-1.68,0c-1.35-.07-2.52-0.71-3.79-0.82-2.24-.21-3.71.63-5.23,1.34-1.38,1.39-3,3-3.28,5.56-0.08.61-.06,1.24-0.12,1.9a8.84,8.84,0,0,1-.35,2.41c-0.07.17-.28,0.3-0.38,0.5s-0.12.46-.24,0.65c-0.2.35-.51,0.67-0.76,1s-0.46.73-.69,1.08-0.54.61-.75,0.93c-0.51.77-.83,1.79-1.74,2.23a1.35,1.35,0,0,1-.19-1.1,16.71,16.71,0,0,0,3.64-5.33,28,28,0,0,0,1-4.44,12.24,12.24,0,0,1,2.31-4.92c0.81-1,1.52-2.13,2.35-3.24a7.21,7.21,0,0,0,1.3-2.38c0.1-.42,0-0.91.1-1.31a12.64,12.64,0,0,1,.32-1.24c0.72-2.47,1.07-4.6,2.43-6.67a19.71,19.71,0,0,0,2.15-4,27.67,27.67,0,0,1,1.32-3.26c0.18-.33.29-0.69,0.46-1a15.79,15.79,0,0,1,1.81-2.23,18.29,18.29,0,0,0,1.38-2.67,24.86,24.86,0,0,1,2.57-3.52c0.32-.39.55-0.81,0.83-1.15a15.74,15.74,0,0,1,1.8-1.64c0.6-.52,1.32-1,1.87-1.56a6.27,6.27,0,0,0,1.39-3.11c0.08-.48,0-1,0.11-1.39s0.21-.53.24-0.73a9.29,9.29,0,0,0-.34-4c-0.1-.3-0.32-0.52-0.42-0.82a5.26,5.26,0,0,1,.24-4,7.06,7.06,0,0,0,1.28-1.51c0.37-1-.08-2.45.3-3.43a2.48,2.48,0,0,1,1-1.15,0.58,0.58,0,0,1,.57.45,0.75,0.75,0,0,1,1.31.18c0.32,1.34-2.31,2.33-2.5,3.75,0.41-.24.88-1,1.57-1.43,1.1-.76,3.59-1.14,3.13.73a1,1,0,0,1,.93,1c-0.12,1.64-4,1-5.28.6,0.81,1.11,4.25,0,3.68,2.21a2.18,2.18,0,0,1-3,.07c-0.67-.53-0.93-1.52-1.49-1.94-0.33.21-.66,0.4-1,0.63-0.29,1.13-.61,3-0.1,4a7.36,7.36,0,0,1,.63,1,10.22,10.22,0,0,1,.25,1.91c0.07,1.53-.48,2.56-0.68,4a25.5,25.5,0,0,0,2.4-2.28,29.41,29.41,0,0,1,5.3-4.26,17.62,17.62,0,0,0,2.83-1.91c0.21-.21.33-0.45,0.53-0.65a19,19,0,0,1,5-3.1,43.2,43.2,0,0,0,4.09-2.83,4.41,4.41,0,0,0,1.64-1.42,7.72,7.72,0,0,1,.84-1.3c0.05-.67.28-1.35,0.35-2.19-1-1-3,1-4.19.63a1,1,0,0,1-.18-1.61,3.67,3.67,0,0,1-.87-0.46,1.43,1.43,0,0,1,.25-1.31c1.46-1.67,4.54.7,5.07,2.1,0.52-.66.16-1.63-0.16-2.56a6.41,6.41,0,0,1-.69-1.92,4.73,4.73,0,0,1,.34-2,1.44,1.44,0,0,1,2-.68,1.11,1.11,0,0,1,.35.81c0.72-.3,1.67-0.41,1.89.41,0,3.18-2.4,3.78-3.22,6.07,1.26-.52,3.52-2.41,4.93-1a1.22,1.22,0,0,1-.32,1c0.87,0.52.13,1.67-.63,1.74-1.19.12-2.23-1.24-3.26-1.32a5.21,5.21,0,0,0-.88.12,5.72,5.72,0,0,1-1.41,4c1.59-.3,3.17-0.84,4.93-1.05s3.52-.14,4.93-1.05c0.34-.22.57-0.67,0.9-0.86a8.57,8.57,0,0,1,1.4-.41,4.35,4.35,0,0,0,2.08-1.41,6.71,6.71,0,0,0,1.52-2.52c-0.33-1-2.36-1.4-3-2.2a1,1,0,0,1,.55-1.67,0.87,0.87,0,0,1,1-1c1.23,0.29,1.37,3,1.73,4.21,0.5-.48.15-1.33,0.19-2,0.11-1.45,1-3.6,2.57-3.3a2.09,2.09,0,0,1,.19,1.4,2.74,2.74,0,0,1,1.32-.11c0.56,0.73,0,1.85-.5,2.4-0.91.92-2.65,0.94-3.41,2,0.73,0.27,2.27-.46,3.23-0.22,0.65,0.17,1.22,1.11.47,1.62a1,1,0,0,1-.33,1.68c-1.65.38-2.75-2.19-3.6-2.65-0.69,1.59-1.21,2.9-2.43,3.75-0.23.16-.76,0.31-1,0.49a7.86,7.86,0,0,1-1.4.48c-0.57.2-1,.72-1.56,0.91a8.3,8.3,0,0,1,1.65,1.36c1.15,0,1.51-1.06,2.23-1.56,0.43-.29.88-0.37,1.33-0.7,1.38-.33,2.06.85,1.14,1.49a1,1,0,0,1,.84,1.7c-0.83,1-4,.22-4.9-0.19,0.2,1.68,4.58.35,4.93,2a1.15,1.15,0,0,1-.62,1.3,2.26,2.26,0,0,1,.12,1c-0.73,1-1.44.23-2.25-.57a5.89,5.89,0,0,1-1.21-1.42c-0.13-.28-0.14-0.59-0.27-0.81a6.22,6.22,0,0,0-1.07-1c0.46,1.79,0,4.4-2.14,3.9a1.53,1.53,0,0,1-.19-1.32,1.76,1.76,0,0,1-1-.24,1.67,1.67,0,0,1,.26-1.46c0.64-.77,2.6-0.72,2.46-1.77a2.71,2.71,0,0,0-1.87-1.44,5.48,5.48,0,0,0-1,.34,4.56,4.56,0,0,0-1.69.25,3.55,3.55,0,0,0-1.76,0c-2.8.37-5.62,1.12-7.46,2.67a10.7,10.7,0,0,1-2.17,1.92,6.73,6.73,0,0,1-.74.13,13.19,13.19,0,0,0-4.07,2c-0.78.62-1.25,1.47-2.1,2.14a4.81,4.81,0,0,1,2.33.57,5.11,5.11,0,0,0,.39-0.87,4.53,4.53,0,0,1,.91-1.51c0.46-.53,2.17-2.06,2.81-1.1a1.17,1.17,0,0,1-.1,1.1,2.44,2.44,0,0,1,.88.09c1.6,2.22-2.95,1.87-4.31,2.53a2.25,2.25,0,0,0,1.16.32c0.43,0,.93-0.35,1.47-0.4a5.67,5.67,0,0,1,3,.37,1.07,1.07,0,0,1-.41,2,1.39,1.39,0,0,1,.2.74c-0.6,1.07-2.27.94-3,.29s-1.12-1.58-1.78-2.24c-0.06-.06-0.23,0-0.29-0.08s-0.12-.61-0.5-0.45c0.12,0.82,1.93,2.5,1.51,4.21-0.17.7-1.2,1.21-1.32,0-0.9,1.09-1.5-.25-1.28-1.57a8.8,8.8,0,0,1,.32-1.09,8.4,8.4,0,0,0,.39-1,1.39,1.39,0,0,0-.7-1.19,13.66,13.66,0,0,0-2.49.09,12.32,12.32,0,0,0-4.16,2.53c-0.62.51-1.24,1-1.79,1.57a30.36,30.36,0,0,0-2.56,2.87c-0.32.4-.7,0.75-1,1.15a16.69,16.69,0,0,1-1.89,2.37c-1.51,1.47-3.23,2.55-4.13,4.29-0.47.49-.82,1.06-1.28,1.58a7.34,7.34,0,0,0-1.21,1.58c-0.18.37-.22,0.84-0.4,1.24a14.1,14.1,0,0,1-.76,1.37c-0.66,1.1-1.42,2-2.2,3.09a4.1,4.1,0,0,0-.45.58,4.48,4.48,0,0,0-.09.66c-0.1.35-.34,0.7-0.46,1a8.62,8.62,0,0,1-.39,1c0.66-.43,1-1.14,1.65-1.64a18.25,18.25,0,0,1,3.26-1.6c1.77-.87,3.3-2.44,5.2-3.31,0.33-.15.75-0.21,1.11-0.34a3.9,3.9,0,0,1,1.62-.47c0.63,0,1.26.4,1.82,0.41,1.57,0,2.54-.86,3.83-1.15a26.1,26.1,0,0,1,3.3-.21,5,5,0,0,0,1.78-1,15.35,15.35,0,0,0,1.43-1.58c-0.65-.78-2.33-0.09-3.2-0.74a1.12,1.12,0,0,1,.41-2,0.92,0.92,0,0,1,.18-1.53c0.61-.13,2,1,2.31,1.45a5.74,5.74,0,0,1,.83,2.14c0.63-.13.33-0.83,0.32-1.24a8,8,0,0,1,0-1.46c0.27-1.58,1.75-3.39,3.2-2.27a2.43,2.43,0,0,1,.05.88c0.55,0,1.32,0,1.45.47,0.23,0.87-1.06,1.88-1.81,2.3-1,.57-2.2.74-2.45,1.55,1.22-.13,3.9,0,4.07,1.27a0.84,0.84,0,0,1-.68,1,5.89,5.89,0,0,1,.28.59c1.48-.15,3.17.3,4.61,0,0.83-.19,1.49-0.66,2.29-0.82,0.27-.06.53,0,0.81-0.05a17.28,17.28,0,0,0,4.73-1.72c0.23-1.3-1.16-2.43-1.15-3.91,0-1.12.88-2.28,1.64-1.06a0.83,0.83,0,0,1,.67-0.28c0.92,0.85.11,2-.22,3.07-0.21.67-.34,1.31-0.48,1.89a1.4,1.4,0,0,0,.68-1,6,6,0,0,1,.8-2.69,5.16,5.16,0,0,1,1.13-1.22c0.52-.37,1.67-0.66,1.52.55,2.15-.64,1.82,1.62.52,2.57a5.26,5.26,0,0,1-1.63.77,9.67,9.67,0,0,0-1,.12,6.25,6.25,0,0,0-1.12.92,9,9,0,0,0,2.43-.82c0.72-.29,2.07-0.68,2.19.2a1.12,1.12,0,0,1-1.12,1.07c0.18,0.71,1.36.46,2,.78a4.26,4.26,0,0,1,3.16-3.58,0.77,0.77,0,0,1,.12,1c-0.44.92-2.32,1.38-2.62,2.5,0.51,0,3.52-1.52,3.88-.05a0.59,0.59,0,0,1-.31.72c1.23,1.71-1.86,1.91-2.65.81,0.11,0.71,1.48,1,1.42,1.94a1,1,0,0,1-1.41.62,3,3,0,0,1-1-.9c-0.51-.78-0.29-1.92-0.74-2.58-0.43-.21-1.05-0.24-1.53-0.4-0.36.1-.24,0.7-0.46,0.94-2.05.89-3.41-2.39-5.69-.8-2.27.52-4.13,1.46-6.49,1.89a5,5,0,0,1,1.7,2.16c1.09,0.3,3.26.36,3.92,1.26,0.31,0.43.49,1.4-.4,1.45a0.85,0.85,0,0,1-.39,1.16c-2.19.11-1.67-2.37-2.92-3.14,0.14,0.83,1.28,2.09,1.08,3.69-0.15,1.23-1.45,2.62-1.7.84a0.91,0.91,0,0,1-.88-0.09c-0.67-1.75,1.55-3.05.71-5-0.62.1-.7,0.88-1.13,1.29a5.41,5.41,0,0,1-1.41.84,2.73,2.73,0,0,1-1-.1,1.21,1.21,0,0,1,0-1.54,3.8,3.8,0,0,1-.95-0.24,1.17,1.17,0,0,1,.25-1.16c1-.91,2.86.24,4,0.39-0.16-1-1.08-1.3-1.79-1.8a23.11,23.11,0,0,1-3.22.07,3,3,0,0,0-.73-0.09,4.29,4.29,0,0,1-1.33.55,1.62,1.62,0,0,1-.8-0.39c-0.89.05-1.76,0.23-2.64,0.23-1.87,0-3.64-.63-5.41-0.28a0.81,0.81,0,0,1,.56,1c1.37,0,1.05,1.4.17,1.91s-2.49.23-2.87,0.81c0.92,1,3.38-.38,4.67.7a1.45,1.45,0,0,1-.5,2.55,1.76,1.76,0,0,1,0,1.17,0.91,0.91,0,0,1-1,.12c-1.91-.35-2.35-3.08-3.63-4.11a10.55,10.55,0,0,1,.58,3.45c-0.13,1.11-1.21,2.42-1.71,1-1.42.17-1.15-1.49-.53-2.43a6.09,6.09,0,0,1,.53-0.65,1.54,1.54,0,0,0,.41-1.89c-0.65-.47-1.11-1.38-1.86-1.87a4.48,4.48,0,0,0-3-.58,4.09,4.09,0,0,0-.74.35c-0.36.19-.67,0.35-1.11,0.56a2.44,2.44,0,0,1-1.11.41,9.31,9.31,0,0,1-1.56,1.06c-0.18.12-.28,0.32-0.45,0.43s-0.66.23-1,.42-0.48.44-.75,0.57-0.51.1-.74,0.2a7.72,7.72,0,0,0-.67.5,19.41,19.41,0,0,0-1.94,1.34,20,20,0,0,0-3.92,4.88,11.47,11.47,0,0,0-1.39,3,24.67,24.67,0,0,0-1.44,5.16c-0.07.38,0,.8-0.1,1.17a10,10,0,0,1-.77,1.66,12.55,12.55,0,0,1-.91,1.52,14.63,14.63,0,0,1,4.33-.55c0.37,0,.75.19,1.16,0.25a26.41,26.41,0,0,0,3.57.6c0.9,0,1.72-.17,2.56-0.08a20.47,20.47,0,0,1,2.62.5c0.86,0.21,1.8.25,2.55,0.5,0.27,0.09.45,0.31,0.72,0.38a8,8,0,0,0,1.46.18,19.89,19.89,0,0,0,2.19.05c1.51-.08,2.8-0.87,4.27-1.21a6.27,6.27,0,0,1-.64-0.89c-0.54-.56-2-0.92-2.08-1.88a1.5,1.5,0,0,1,.76-1.23,1.9,1.9,0,0,1-.12-1.17c1.08-.79,1.85.4,2.23,1.74,0.23,0.79-.21,2.25.15,2.93,0.84-.34.47-1.49,0.64-2.4,0.24-1.24,1-3,2.4-2.43a2.24,2.24,0,0,1,.34.89,1.35,1.35,0,0,1,1.53.26c0.73,3.2-2.94,2.35-4.12,3.93,1.88-.07,3.13.44,3.62,1.7,1.14,0,2.17-.4,3.16-0.44a10.74,10.74,0,0,0,2.12.05,24.64,24.64,0,0,1,2.44-.82,33.89,33.89,0,0,1,3.51.09,4.56,4.56,0,0,1,2.78-2.86,4.58,4.58,0,0,0-1.52-.55,5.19,5.19,0,0,1-1.38-.62c-0.77-.69-0.66-2.65.72-2.62a1.29,1.29,0,0,1,.76-1.3,2,2,0,0,1,1.52.84,7.38,7.38,0,0,1,.89,2.58c0.39-.5.34-1.58,0.72-2.4s2.38-2.71,2.57-.45a1.39,1.39,0,0,1,.8.17,2,2,0,0,1,.11,1.47c-0.77,1.32-2.33,1.8-3.86,2.32a1.88,1.88,0,0,1,1.55,2.67,18.87,18.87,0,0,0,3.69-1.3c0.66-.25,1.35-0.49,2-0.76,2-.81,4-1.21,5.11-2.73-0.08-1.22-1.7-2.63-1.89-3.7a1.7,1.7,0,0,1,.33-1.6,0.94,0.94,0,0,1,1.23.54c0.94-1.12,1.51.38,1.27,1.93a10.35,10.35,0,0,0-.49,1.89c0.8-.82.43-3,1.2-4.14,0.51-.74,2.05-1.43,2.19.13a2,2,0,0,1,1,0c0.69,0.87,0,1.93-.72,2.4-1,.63-2.63.49-3,1.61,1.36-.17,2.93-1.9,4.19-0.56,0.43-.31.87-0.57,1.34-0.92a22.07,22.07,0,0,1,2.47-2.14,9.92,9.92,0,0,0,1.11-.49,3,3,0,0,0,.6-0.57H603c0.09-.43-0.71-1.25-0.82-2.29a4.71,4.71,0,0,1,0-1.39s0.3-1.23.91-1.22C604.43,185.85,603.35,189.11,603.31,190.09Zm-36.86-16.33A20.23,20.23,0,0,1,564,176a13,13,0,0,0,4.61,0C567.88,175.25,567.67,174,566.45,173.76Zm-9.24,3.88a1.9,1.9,0,0,0-1,.34c1,0.34,1.14,1.44,2,1.88a4.23,4.23,0,0,1,2.5-3.31C559.19,176.57,558.35,177.25,557.21,177.63Zm35.33,19a2.7,2.7,0,0,0,.52-0.28,1.13,1.13,0,0,0-.44-0.08C592.68,196.44,592.36,196.58,592.54,196.64Zm-13.07,4.81c0.41,0.06.61-.11,1,0a1.47,1.47,0,0,0,.05-2.19,3.5,3.5,0,0,1-1.24-.4A12.45,12.45,0,0,0,579.47,201.44Zm-19.26.34a2.11,2.11,0,0,0-.67.35,5.14,5.14,0,0,0-1.48.55c1,0.26,2.16.87,3.2,0.66C561,202.7,560.89,201.82,560.21,201.78Zm12,5a2.47,2.47,0,0,0-.56-1A2.57,2.57,0,0,0,572.24,206.76Z" transform="translate(-524.91 -134.97)"/></svg>