<svg id="Layer_1" data-name="Layer 1" xmlns="http://www.w3.org/2000/svg" viewBox="0 0 98.75 73.01"><defs><style>.cls-1{fill:#69be5a;}.cls-2{fill:#ed328b;}.cls-3{fill:#614130;}</style></defs><title>PrimaryIcon</title><path class="cls-1" d="M94.17,22.85a15.47,15.47,0,0,0-11.68-1.11,5.79,5.79,0,0,0-1.67.76,12.07,12.07,0,0,0,6.48,3.21,10.77,10.77,0,0,0,7.41-2.28C94.54,23.33,94.34,22.94,94.17,22.85Z" transform="translate(0)"/><path class="cls-1" d="M82.83,17.79A3,3,0,0,1,81,18.92a8,8,0,0,1-1-1C76.46,13.05,82.89,7.6,82,2.54a11.19,11.19,0,0,1,3.28,8.53,14.15,14.15,0,0,1-1.18,4.81C84,16,83.43,16.93,82.83,17.79Z" transform="translate(0)"/><path class="cls-1" d="M29,28.45a4.83,4.83,0,0,0-2.61-1.11c-0.23,0-3.08.08-2.9,0.47,0.74,1.6,1.28,3,2.78,4.11a17,17,0,0,0,5.15,2c0-.36-0.1-0.72-0.17-1.07A7.87,7.87,0,0,0,29,28.45Z" transform="translate(0)"/><path class="cls-2" d="M20.51,21.16a7.85,7.85,0,0,0-.19-0.81,4.45,4.45,0,0,0-2,1.86c-0.38.47-.74,1-1.08,1.46-0.14.2-.31,0.4-0.45,0.62a14.18,14.18,0,0,0-1.23-1.86,4.22,4.22,0,0,0-1.43-1.56,0.28,0.28,0,0,0-.36-0.09,2.2,2.2,0,0,0-.64,1c-0.28.54-.58,1.07-0.89,1.59a12.51,12.51,0,0,0-.66,1.07A7.1,7.1,0,0,0,9.9,23.24C9.25,22.83,8.63,22.19,8,21.85a0.23,0.23,0,0,0-.43-0.09c-1.21,2.24-.46,5.93.34,8.12a6.17,6.17,0,0,0,5.43,4.33,8.14,8.14,0,0,0,3.05-.89,6.75,6.75,0,0,0,2.49-1.87,10.3,10.3,0,0,0,1.93-6.77A22.45,22.45,0,0,0,20.51,21.16Z" transform="translate(0)"/><path class="cls-1" d="M1.52,2.17C3.44,6.4,9.07,10.66,15.11,9.7,13.84,1.53,6.7,3.56,1.52,2.17" transform="translate(0)"/><path class="cls-3" d="M98.5,10.55c-0.87-1.38-2.8-1.15-4.13-.8C85.71,12,79.3,20.08,75,27.41c-5.55,9.36-9.09,21.82-11.09,32.43h0c-0.73-1.77-4.06-9.54-6.64-15.17L56.89,44c0.82-1,1.56-1.83,2.57-2.91,1.22-1.32,2.58-2.45,3.76-3.83s3.13-4.46,1.29-6.22-5.4.65-6.63,2.21c-0.78-1.66-2.89-3.18-4.75-2.67s-2.94,2.69-2.88,4.4c0.09,2.34,1.35,4.64,2.47,6.63,0.47,0.84.9,1.64,1.29,2.39a82.91,82.91,0,0,0-9.56,12.32C42.35,44.09,40,31.37,33.92,20.37c-2.52-4.59-7.23-10.14-12.71-11.2-5.19-1-11,1.5-14.74,5.05S0,24.69,0,30c0,3.57,1.86,9.27,5.13,11.31,3.74,2.33,8.49,2,12.44.29,1.38-.6,8.62-4.61,5.32-7-1.61-1.16-3.43.84-4.35,1.82-3.07,3.25-8.55,5.44-12.66,2.8-4.34-2.78-5-9.62-3.69-14a21.25,21.25,0,0,1,9.09-12c5.9-3.41,12-1.87,15.81,3.62a38.64,38.64,0,0,1,4.65,10.39,117.16,117.16,0,0,1,5.05,22.92A108.24,108.24,0,0,1,37.52,62a88.38,88.38,0,0,1-.34,9.35c-0.33,3.16,5.94,1.41,6.4-1.42A71.19,71.19,0,0,1,55.14,46.24c2.72,5.67,4.19,11.82,5.41,18q0.46,2.33.89,4.68c0.25,1.34.45,2.69,1.68,3.1a4.2,4.2,0,0,0,3.74-.84,9,9,0,0,0,1.85-4.91c1.21-8.7,2.36-17.25,4.64-25.74,3-11,8.74-25.41,21.83-27.1,1.3-.17,2.91.08,3.48-1.46A1.5,1.5,0,0,0,98.5,10.55Zm-37,22.85c1,0.68.72,1.67,0.14,2.5a35,35,0,0,1-4.77,4.9,7.87,7.87,0,0,0-1,1c-1.34-3.13-3.71-7.94-.83-8.21,1.19-.11,2,1.4,2.47,2.22C57.53,35.84,60.08,32.42,61.52,33.4Z" transform="translate(0)"/><path class="cls-3" d="M14,33c-0.31,0-.62,0-0.94,0a4.32,4.32,0,0,1-2.2-.68A8.25,8.25,0,0,1,8,28.56C7,25.7,6.33,22,8.08,19.27c0.15-.23,2.79,1.78,3,2a13.63,13.63,0,0,0,1,.89,17.43,17.43,0,0,1,2.12-3.27l0.37-.46L15,18.82l0.51,0.56a23.92,23.92,0,0,1,2,2.38,25.64,25.64,0,0,1,2.89-3.53l0.56-.57,0.27,0.75a9.5,9.5,0,0,1,.34,1.17,18.14,18.14,0,0,1,.34,3.6,10.6,10.6,0,0,1-2,7.09,7.24,7.24,0,0,1-2.68,2A8.65,8.65,0,0,1,14,33ZM8.59,20.62c-0.89,2-.77,4.53.36,7.59a5.65,5.65,0,0,0,5.32,4,8.28,8.28,0,0,0,2.53-.67c3.32-1.25,4.14-5.11,4.09-8.34a17.35,17.35,0,0,0-.32-3.4l-0.06-.25A25.13,25.13,0,0,0,17.9,23l-0.45.71L17,22.92a16.69,16.69,0,0,0-2.28-2.87l-0.11-.12A13.32,13.32,0,0,0,12.82,23l-0.2.54-0.51-.27A9.13,9.13,0,0,1,10.4,22,7.15,7.15,0,0,0,8.59,20.62Z" transform="translate(0)"/><path class="cls-3" d="M29.78,33.58a19.57,19.57,0,0,0,0-3.57c-0.37-2.74-4.48-3.41-6.62-2.77a8.77,8.77,0,0,0,2.27,5.65,15,15,0,0,0,2.22,2.2c0.13,0.1,2.14,1.64,2.19,1.41A22,22,0,0,0,29.78,33.58Zm-0.84,1.68c-0.23-.29-0.46-0.58-0.69-0.87-0.86-1.06-2.16-1.65-3-2.7s-1.17-2.82-1.61-4.12a5.78,5.78,0,0,1,3.83.64,4.47,4.47,0,0,1,1.63,3.12C29.14,32.65,29,33.95,28.94,35.26Z" transform="translate(0)"/><path class="cls-3" d="M15.38,10.31a3.72,3.72,0,0,0,.7-0.16c-0.11-.57-0.46-1-0.59-1.61-0.43-1.92-.8-4-2.41-5.28A9.67,9.67,0,0,0,8.36,1.55,15,15,0,0,1,2.6,0c0,1.51,1.2,3.07,2,4.24A16.07,16.07,0,0,0,9.94,8.65C11.43,9.5,13.52,10.54,15.38,10.31ZM12.49,8.54C11.05,7.76,9.61,7,8.16,6.26,6.34,5.32,5.15,3.43,4,1.83a17.9,17.9,0,0,1,3.74.83C9.23,3,10.92,3.09,12.24,4,14,5.27,14,7.37,14.61,9.24,14.74,9.6,12.63,8.61,12.49,8.54Z" transform="translate(0)"/><path class="cls-3" d="M82.41,6.54a8.64,8.64,0,0,0-.64-1.28A8.43,8.43,0,0,0,79.2,2.69a16.93,16.93,0,0,1-.56,3.54c-0.34,1.62-1,3.15-1.34,4.76a8.93,8.93,0,0,0,3.28,9.35,4.71,4.71,0,0,1,.79-1c1.38-1.92,1.71-4.62,1.82-6.91A13.79,13.79,0,0,0,82.41,6.54Zm-0.69,10a6.07,6.07,0,0,1-1.57,2.18,10.32,10.32,0,0,1-1.73-3.19A7,7,0,0,1,78,12a28,28,0,0,1,.86-3.53C78.94,8.1,80,5,79.8,4.8a7.16,7.16,0,0,1,2.28,4.58C82.43,11.68,82.67,14.35,81.72,16.55Z" transform="translate(0)"/><path class="cls-3" d="M95.05,19.91l0.12-.27a14,14,0,0,1-3.55-.7,5.4,5.4,0,0,0-2.6-.47,13.07,13.07,0,0,0-6.41,2.34c-0.64.49-1.26,1-1.9,1.52l-0.49.41c0.07-.06,3.14,1.41,3.46,1.51a10.31,10.31,0,0,0,4.25.39,9.89,9.89,0,0,0,3.79-1.37,11,11,0,0,0,2.48-2A6.63,6.63,0,0,0,95.05,19.91Zm-1.73.81a5.84,5.84,0,0,1-1.41,1.16,10.68,10.68,0,0,1-2.14,1.35,5.82,5.82,0,0,1-2.82.66,8.62,8.62,0,0,1-4.84-1.48A8.77,8.77,0,0,1,86,19.87a9.44,9.44,0,0,1,3.8-.35c1.24,0.15,2.37.77,3.61,0.9A0.9,0.9,0,0,1,93.32,20.72Z" transform="translate(0)"/></svg>