<svg id="Layer_1" data-name="Layer 1" xmlns="http://www.w3.org/2000/svg" viewBox="0 0 54.87 71.88"><defs><style>.cls-1{fill:#ed328b;}</style></defs><title>PrimaryIcon_Boot</title><path class="cls-1" d="M54.87,61.27c0-3.15-2.06-6.32-4.28-8.33-2.69-2.44-5.8-2.83-9.26-3.17-2.35-.24-4.77-0.07-7.1-0.49l-0.75-.13a2.78,2.78,0,0,1-2.25-1.7c-2.22-5-1-10,.08-15.24l0.28-1.45c0.36-1.9.86-3.88,1.33-5.8,1-4,2-8.23,2.09-12.27V12.44c0-.79-0.33-3.1-2.61-3.1H32.24c-0.21,0-.93.1-1.77,0.21s-1.57.21-1.93,0.23C27.17,5.17,25.75,2.08,21.2.49A13.54,13.54,0,0,0,17.26,0,11.37,11.37,0,0,0,12,1.08l-0.29.16c-0.57.32-1.15,0.65-1.7,1C8.42,3.38,7.37,5.81,7,6.69c0,0.06-.07.23-0.22,0.85A24,24,0,0,1,6.09,10a10.26,10.26,0,0,1-2,.14,10.21,10.21,0,0,0-2.35.19,1.15,1.15,0,0,0-.74.5,2.54,2.54,0,0,0-.32,1.26c0.22,2.39.5,4.82,0.77,7.17A121.67,121.67,0,0,1,2.59,37c-0.14,4.18.08,8.42,0.29,12.52l0,0.64c0,0.69.1,1.39,0.16,2.07,0.31,3.65-1.32,6-2.46,9.33-0.87,2.58-1,6.16.93,8.55s6.28,1.75,9,1.42c2.25-.28,4.46-0.88,6.72-0.68,5.83,0.5,11.35-.49,17.14-0.49a134,134,0,0,1,14,.76h0.13c1.37,0,2.8-1.38,3.64-2.31A11.45,11.45,0,0,0,54.87,61.27Zm-2.53,3.41,0,0a0.47,0.47,0,0,0-.4.12,7.9,7.9,0,0,0-1.83.34,8.13,8.13,0,0,1-1.48.31c-0.65,0-1.31.07-2,.07A17.41,17.41,0,0,1,41.81,65a16.54,16.54,0,0,0-3.43-.51h0a13,13,0,0,0,1.29-2.73A12.52,12.52,0,0,0,40.44,59a10.9,10.9,0,0,0,.17-3c-0.18-1.55-.36-3.1-0.63-4.65l0-.24a21.17,21.17,0,0,1,8.29,1.64C51,54.08,52.6,57.26,53,60.13a8,8,0,0,1-.34,4.12A1.87,1.87,0,0,1,52.34,64.68ZM37,69c-0.54,0-1.07,0-1.6,0s-1,0-1.53,0-0.91,0-1.3-.05c-0.74-.07-1.52-0.1-2.37-0.1-1.8,0-3.65.16-5.44,0.31s-3.64.31-5.43,0.31c-0.48,0-.94,0-1.39,0l-1.06,0c-1.39,0-2.86.12-4.28,0.24s-2.93.25-4.36,0.25a14,14,0,0,1-5.16-.82,1.28,1.28,0,0,1-.77-1C2,67,1.41,65.73,1.72,64.85c0.09-.26.18-0.28,0.28-0.28H2.13a120.6,120.6,0,0,0,22.19,2.05c1.55,0,3.2,0,5.35,0,1.28,0,2.56-.15,3.8-0.27a39.87,39.87,0,0,1,4-.27c0.45,0,.87,0,1.28,0l1.84,0.15c2.34,0.19,4.56.37,6.83,0.37a36,36,0,0,0,4.25-.24l0,0a2.29,2.29,0,0,1-.14.31,7.38,7.38,0,0,1-2.83,2.79,5.65,5.65,0,0,1-2.8.57,28.33,28.33,0,0,1-5.07-.66c-0.7-.14-1.37-0.26-1.94-0.34A14,14,0,0,0,37,69ZM31.48,10.69a2.39,2.39,0,0,1,1.23.41c1.15,0.85.73,2.63,0.52,3.82-0.67,3.84-1.47,7.7-2.29,11.51-0.44,2-.89,4.15-1.26,6.17-1.11,6.12-1.7,10.87,1,16.22a2.68,2.68,0,0,0,2.46,1.72,28,28,0,0,0,4.4.43c0.31,0,.39,0,0.44.21,0.69,2.25,1.56,6.61.47,8.67A26.87,26.87,0,0,0,37,63.45l-0.4,1.11A94.46,94.46,0,0,1,25,65.24c-1.27,0-2.6,0-3.94-.06l-1.89,0H14.86c-4.18,0-9.15-.56-12.39-2.16-0.11-1,1-2,1.36-3.23a14.34,14.34,0,0,0,.66-2.62,29.3,29.3,0,0,0-.08-5.54c0-.64-0.1-1.29-0.13-1.93q-0.07-1.3-.14-2.59C3.93,43.6,3.72,40,3.77,36.38c0-3-.14-6.06-0.31-9-0.06-1.06-.13-2.11-0.18-3.17a59.73,59.73,0,0,0-1-7.33c-0.24-1.38-.49-2.81-0.68-4.25a0.88,0.88,0,0,1,.14-0.69,0.86,0.86,0,0,1,.63-0.28c0.41,0,.85,0,1.26,0H4.34a11.91,11.91,0,0,0,1.73-.09c0.77-.11,2-0.41,2.09-1.17a11.14,11.14,0,0,1,.78-3.06A9,9,0,0,1,14.3,2a11,11,0,0,1,3.8-.49A14.64,14.64,0,0,1,23.75,3.4a6.67,6.67,0,0,1,2.31,2.76,31.81,31.81,0,0,1,1.77,5.05A13.37,13.37,0,0,1,31.48,10.69Z" transform="translate(0)"/><path class="cls-1" d="M23.47,9.49c-0.85-3.25-4.18-7.78-8-5.76-2.2,1.15-4.55,4.38-4.29,6.82a0.69,0.69,0,0,0,.74.78h0.25c1.6-.16,3.26-0.2,4.86-0.23,0.45,0,6.78-.23,6.73-0.49s-0.16-.72-0.25-1.07v0Zm-2,.36a57.76,57.76,0,0,1-6.19.32c-0.87,0-1.73,0-2.54,0a0.69,0.69,0,0,1-.48-0.1,0.6,0.6,0,0,1,.08-0.43,13.67,13.67,0,0,1,2.47-4,3.79,3.79,0,0,1,2.68-1.11h0.06a1.12,1.12,0,0,1,.41.15L18.23,4.8a7.62,7.62,0,0,1,3.95,5Z" transform="translate(0)"/><path class="cls-1" d="M15.66,36a0.59,0.59,0,0,1-.42-0.18l-0.52-.53c-2.39-2.4-7.36-7.38-6.7-11.13a4,4,0,0,1,2.5-3A3.53,3.53,0,0,1,12,20.85c2.07,0,3.53,2,4.38,3.59,0.77-1.93,2.41-3.87,4.57-3.87a3.89,3.89,0,0,1,2,.59,3.29,3.29,0,0,1,1.74,2.45c0.35,2.85-3.16,6.37-6,9.2a18.32,18.32,0,0,0-2.57,2.86,0.58,0.58,0,0,1-.43.32H15.66ZM12,22a2.37,2.37,0,0,0-1,.24,2.9,2.9,0,0,0-1.85,2.1c-0.55,3.15,4.48,8.2,6.38,10.11l0,0A32,32,0,0,1,17.92,32c2.51-2.51,5.94-5.95,5.66-8.23a2.16,2.16,0,0,0-1.18-1.59A2.74,2.74,0,0,0,21,21.74c-2,0-3.64,2.67-3.85,4.5a0.58,0.58,0,0,1-1.13.14C15.2,24.27,13.73,22,12,22Z" transform="translate(0)"/></svg>