<svg id="WW_Vines_CMYK" xmlns="http://www.w3.org/2000/svg" viewBox="0 0 547.79 73.54"><defs><style>.cls-1{fill:#69b94c;}.cls-2{fill:#644130;}.cls-3{fill:#ed6098;}.cls-4{fill:#e8247f;}</style></defs><title>Vines_4</title><path class="cls-1" d="M407.25,64.41c-1.39-1.53-2.42-4.19-4-5.45a5.54,5.54,0,0,0-2.85-1.2c4.18-1.38,7.83-4.25,11.4-7.07,7.08-5.58,13.76-10.85,23.9-4.32a0.63,0.63,0,0,0,.68-1.06c-4.7-3-8.75-3.66-12.4-3A5.34,5.34,0,0,0,425.63,40c0.45-1.36.7-5.09-.19-6.3-1.19,1.68-3.57,3.27-4.46,5.08a6.48,6.48,0,0,0-.31,4.62c-3.43,1.45-6.56,3.9-9.63,6.33-5.24,4.13-10.65,8.4-17.52,7.54a89.08,89.08,0,0,1-15.77-3.7c3.95-1.1,6.29-5.26,8.71-9.6,0.82-1.48,1.67-3,2.61-4.46l0.48-.74a10.14,10.14,0,0,1,4.66,2.39c1.29,1.17,3.08,4.39,5.17,4,2.37-.48,1.79-3.67.58-5-1.51-1.61-3.91-2-6-2.2a14.83,14.83,0,0,0-4,.16,27.58,27.58,0,0,1,13.8-11,0.63,0.63,0,1,0-.46-1.17,36.88,36.88,0,0,0-3.79,1.75,7.12,7.12,0,0,0,1.66-4.11c0.1-1.82-.88-6.5-2.38-7.69-0.89,2.48-3.27,5.24-3.76,7.77s0.3,4.11,1.28,6A28.56,28.56,0,0,0,389,37.34c-0.3-2.33-.55-4.93-3.06-6-1.47-.6-2,0.65-1.57,1.9a6.1,6.1,0,0,0,2.29,2.55,11.91,11.91,0,0,1,2,2l-0.67,1c-1,1.5-1.82,3-2.65,4.53-3,5.41-5.54,9.9-10.89,9.14-2.32-.78-4.62-1.59-6.9-2.4l-3.2-1.12A6.41,6.41,0,0,0,369,47.22c1-1,2.83-4.28,2.56-5.77-1.8,1-4.63,1.41-6.22,2.65a6.81,6.81,0,0,0-2.36,4.35,116.33,116.33,0,0,0-19-5.21c2-1.16,4.1-2.42,4.06-5,0-1.59-1.39-1.59-2.37-.69a6.1,6.1,0,0,0-1.44,3.11,12.36,12.36,0,0,1-.92,2.52,51.87,51.87,0,0,0-13.88-.39c-11.59,1.33-22,6.71-31.49,12.32a0.63,0.63,0,0,0,.64,1.08c9.39-5.54,19.64-10.85,31-12.16a45.39,45.39,0,0,1,5.15-.29,10.2,10.2,0,0,1,3.85,4c0.82,1.54,1.39,5.18,3.5,5.49,2.39,0.36,2.94-2.84,2.24-4.46-0.87-2-3-3.2-4.88-4.11a14.35,14.35,0,0,0-2.31-.86c10.26,0.49,20.3,4,30.08,7.49l2.42,0.85a15.63,15.63,0,0,0,4.66,1.6,99.26,99.26,0,0,0,19.14,4.77,15.51,15.51,0,0,0,4.76-.14c0.45,2,1.19,3.84,2.94,4.89C402.28,64,405.86,65,407.25,64.41Z" transform="translate(-19.08 -15.92)"/><path class="cls-1" d="M301.37,54.27l-0.78.33c-0.5.22-1.26,0.53-2.23,0.91a69,69,0,0,1-8.19,2.57,67.79,67.79,0,0,1-12,1.85,49.11,49.11,0,0,1-6.87,0,23.13,23.13,0,0,1-7-1.55,15.34,15.34,0,0,1-5.85-4.15,10.74,10.74,0,0,1-2.68-6.45,6.62,6.62,0,0,1,.75-3.36A8,8,0,0,1,258.73,42a7.1,7.1,0,0,1,5.69-1.61,4.55,4.55,0,0,1,3.66,3.46,3.75,3.75,0,0,1-1.57,3.69,2.62,2.62,0,0,1-2.73.14,1.78,1.78,0,0,1-.74-0.81l0.8-.36a0.9,0.9,0,0,0,.39.41A1.75,1.75,0,0,0,266,46.8,2.88,2.88,0,0,0,267.2,44a3.65,3.65,0,0,0-3-2.74,6.2,6.2,0,0,0-4.93,1.44,7.15,7.15,0,0,0-1.93,2.16,5.67,5.67,0,0,0-.64,2.91,9.81,9.81,0,0,0,2.47,5.86,14.38,14.38,0,0,0,5.51,3.88A22.18,22.18,0,0,0,271.39,59a48.16,48.16,0,0,0,6.72,0,66.79,66.79,0,0,0,11.81-1.85A67.93,67.93,0,0,0,298,54.53c0.94-.38,1.68-0.68,2.19-0.9l0.78-.33Z" transform="translate(-19.08 -15.92)"/><circle class="cls-1" cx="245.05" cy="30.44" r="1.21"/><path class="cls-1" d="M52.23,55.93A96.79,96.79,0,0,0,63,49.23l0.09-.06a7.09,7.09,0,0,1-5.57,0c-1.37-.69-4.36-3.32-4.61-4.91,2.17,0.37,5.16-.21,7.2.48A5.8,5.8,0,0,1,62.26,46a4.27,4.27,0,0,1-.32-1.51c0-1.2.68-4.25,1.69-5C64.17,41.12,65.69,43,66,44.65a4.72,4.72,0,0,1-.4,2.84l1.61-1.06A48.24,48.24,0,0,1,79,40.91,16.87,16.87,0,0,1,77,40.79c-2.51-.33-5.39-0.85-7.16-2.85-1.41-1.59-2-5.45.86-6,2.54-.45,4.58,3.5,6.11,5a12.21,12.21,0,0,0,5.54,3,130.67,130.67,0,0,1,16.93-2.64l0.87-.1a161.17,161.17,0,0,1,17.58-1.14A7.06,7.06,0,0,1,113,33.26c-0.83-1.28-2.08-5.07-1.49-6.57,1.69,1.42,4.56,2.43,6,4.06s1.51,3.38,1.58,5.34a73.1,73.1,0,0,1,21.37,3,118.06,118.06,0,0,1,15.62,6.69l2.9,1.4c-1.74-2.15-3.64-4.5-2.47-7.46,0.7-1.78,2.25-1.2,3,.23a7.36,7.36,0,0,1,.3,4.12,14.09,14.09,0,0,0,0,3.49,104.47,104.47,0,0,0,9.83,4.19c10.18,3.61,19.52,2.6,29.45,2.6,1.86,0,2.34,1.52.08,1.52-10.08,0-19.57,1-30-2.68-0.77-.28-1.54-0.58-2.3-0.88a5.35,5.35,0,0,1,1.67,3.6c0,1.23-.74,4.37-1.79,5.14-0.54-1.65-2-3.52-2.33-5.21a5.47,5.47,0,0,1-1.42,1.53c-1.24.89-5,2.33-6.49,1.8,1.34-1.75,2.2-4.68,3.77-6.16a6.47,6.47,0,0,1,4.08-1.73c-3-1.3-6-2.72-8.88-4.13-3.45-1.68-7-3.38-10.6-4.84A12.08,12.08,0,0,0,139.51,44c-1.8,1.07-4.68,4.47-7.05,3.47-2.69-1.13-1.25-4.77.48-6a9.14,9.14,0,0,1,5.72-1.31,77,77,0,0,0-22.32-2.56,5.52,5.52,0,0,1-2.28,3.26c-1.43.9-3.82,1-5.42,1.68-0.11-1.26,1.7-3.82,2.62-4.6,0.09-.07.18-0.13,0.27-0.19-3.92.2-7.69,0.56-11.16,1l-0.87.1c-2.67.3-5.21,0.59-7.67,0.92A14,14,0,0,0,91,43.18a7.36,7.36,0,0,1-1.21,4c-1,1.24-2.66,1.45-2.94-.44-0.49-3.22,2-5.1,4.22-6.84a79.06,79.06,0,0,0-9.48,1.86,18.2,18.2,0,0,0-.84,3.87c-0.22,1.7-.34,3.43-1.47,4.82s-3.24,1.77-3.59-.53c-0.54-3.55,1.9-5.76,4.37-7.73A46.79,46.79,0,0,0,68,47.71c-1.3.83-2.69,1.78-4.16,2.78-3.07,2.09-6.14,4.2-9.22,5.91C52.36,57.64,50.62,56.73,52.23,55.93Z" transform="translate(-19.08 -15.92)"/><path class="cls-2" d="M20.16,55.7l1.58,0.13c1,0.07,2.6.23,4.6,0.34,4,0.26,9.93.52,17.45,0.31,3.76-.14,7.92-0.32,12.44-0.74s9.38-1,14.56-1.85S81.45,52,87.21,50.8s11.8-2.65,18.11-4.14,12.94-2.93,19.9-4.06A124.41,124.41,0,0,1,147,41a110.13,110.13,0,0,1,23,2.85c3.86,0.88,7.71,1.93,11.54,3.1s7.65,2.47,11.49,3.77a230.75,230.75,0,0,0,23.44,7,119.8,119.8,0,0,0,12.2,2.11,116.31,116.31,0,0,0,12.48.74,122.21,122.21,0,0,0,12.61-.59c4.13-.47,8.34-1.3,12.52-2.17,8.38-1.76,16.79-3.81,25.34-5.39a125.82,125.82,0,0,1,13-1.81,51.88,51.88,0,0,1,6.63-.13c1.13,0.06,2.22.18,3.28,0.29l3.23,0.36c8.58,1,17,2.47,25.43,3.86,4.19,0.72,8.38,1.4,12.52,2a83.63,83.63,0,0,0,12.41.86,121.6,121.6,0,0,0,24.26-2.74c7.88-1.64,15.57-3.68,23.17-5.48,3.81-.9,7.56-1.77,11.36-2.5,1.87-.36,3.71-0.74,5.62-1s3.76-.62,5.62-0.83a214.43,214.43,0,0,1,42.13-1c13,0.9,24.82,2.68,35.23,4.39S535,52,542.42,53.16s13.31,1.94,17.31,2.26c2,0.15,3.53.24,4.56,0.25l1.56,0h0a1,1,0,0,1,0,2l-1.61,0c-1.06,0-2.63-.08-4.67-0.21-4.07-.27-10-0.9-17.51-2s-16.58-2.38-27-3.73-22.2-2.51-35-3.22a262.35,262.35,0,0,0-41.4.69c-1.83.17-3.65,0.4-5.49,0.64s-3.71.53-5.58,0.83c-3.7.59-7.49,1.34-11.29,2.11-7.62,1.54-15.4,3.31-23.42,4.69a129,129,0,0,1-24.73,2.23,108.51,108.51,0,0,1-12.64-1c-4.19-.62-8.35-1.33-12.56-1.91-8.4-1.24-16.9-2.31-25.42-3.19l-3.19-.29c-1.08-.09-2.15-0.18-3.16-0.23a49.26,49.26,0,0,0-6.29.18,123.24,123.24,0,0,0-12.66,1.88c-8.43,1.63-16.79,3.74-25.23,5.59-4.23.91-8.44,1.79-12.82,2.32a127.15,127.15,0,0,1-12.94.75,119.67,119.67,0,0,1-12.86-.61,123.3,123.3,0,0,1-12.58-2,234.11,234.11,0,0,1-23.88-6.81c-7.7-2.51-15.22-4.91-22.71-6.6A119.62,119.62,0,0,0,147,44.81c-14.65-.54-28.44,1.9-41.12,4.37s-24.34,5.06-34.79,6.59a237.27,237.27,0,0,1-27.24,2.49c-7.59.18-13.55,0-17.62-.18-2-.08-3.57-0.22-4.62-0.28L20,57.69a1,1,0,0,1,.13-2h0Z" transform="translate(-19.08 -15.92)"/><path class="cls-1" d="M289.27,59.91c1.48,0.38,1.48,1.82,2.46,2.84,2.42,2.46,5.12,0,7.87.64-1.17-2.08-2.77-5-5.52-4.61a10.94,10.94,0,0,0-2.56.93,3.57,3.57,0,0,1-2.39,0" transform="translate(-19.08 -15.92)"/><path class="cls-1" d="M289.32,61.48c0.35,1.66-1.08,2.36-1.61,3.84-1.26,3.6,2.46,5.1,3.22,8.12,1.49-2.18,3.57-5.19,1.87-7.74a12.09,12.09,0,0,0-2.18-2.08,4,4,0,0,1-1.17-2.37" transform="translate(-19.08 -15.92)"/><path class="cls-1" d="M316.62,39a6.5,6.5,0,0,0-1,3.69c0,0.32.72,4.08,1.2,3.76,2-1.31,3.8-2.31,4.92-4.51s1.28-4.8,1.64-7.25c-0.47.14-.94,0.27-1.39,0.44A10.59,10.59,0,0,0,316.62,39Z" transform="translate(-19.08 -15.92)"/><path class="cls-1" d="M515.74,55.49l0.6,0.05c-0.21-1.79-.24-4-1-5.63a8.73,8.73,0,0,0-2.54-3.52c-2.67-2.08-7.08-2.29-9.89-1.34,0.12,0.35.05,1.13,0.21,1.48a17.05,17.05,0,0,0,5.12,6.07A15.18,15.18,0,0,0,515.74,55.49Z" transform="translate(-19.08 -15.92)"/><path class="cls-2" d="M512.34,46.94a13.39,13.39,0,0,0-3.22-1.19c-0.29-.08-4-1.12-4.86-0.91a0.13,0.13,0,0,0-.1,0c-0.33.11-.13,1.26-0.1,1.49A15.5,15.5,0,0,0,504.5,49a12.81,12.81,0,0,0,3,5.12A25.75,25.75,0,0,0,512,57.36c1.3,0.79,2.7,1.43,4,2.17-0.1-2,0-4-.08-5.92,0-.1,0-0.2,0-0.3A9.13,9.13,0,0,0,512.34,46.94Zm0.32,1.79a9.67,9.67,0,0,1,1.91,3.44,20.52,20.52,0,0,1,.16,5.57c-1-.68-2.21-1.07-3.24-1.74a16.29,16.29,0,0,1-3.29-2.72,9.39,9.39,0,0,1-2.07-3.14,15.27,15.27,0,0,0-.7-2,9.39,9.39,0,0,1-.58-2.29c1.56,0.43,3.17.69,4.74,1a5.81,5.81,0,0,1,2.56,1.27A3.77,3.77,0,0,1,512.66,48.73Z" transform="translate(-19.08 -15.92)"/><path class="cls-1" d="M495.83,58.76a7.27,7.27,0,0,0-4-1.4c-0.35,0-4.61.44-4.3,1,1.28,2.32,2.24,4.44,4.6,5.89s5.24,1.86,7.94,2.48c-0.11-.53-0.22-1.07-0.37-1.59C498.89,62.55,497.76,60.19,495.83,58.76Z" transform="translate(-19.08 -15.92)"/><path class="cls-1" d="M488.74,66a6.26,6.26,0,0,0-.89-3.57c-0.15-.26-2.49-3.12-2.75-2.63-1.07,2-2.15,3.7-2.07,6.08s1.13,4.65,2,6.88c0.33-.33.67-0.66,1-1A10.19,10.19,0,0,0,488.74,66Z" transform="translate(-19.08 -15.92)"/><path class="cls-3" d="M520.55,31.21a3.66,3.66,0,0,0,.14-0.36,2.06,2.06,0,0,0-1.27.17c-0.27.08-.53,0.17-0.79,0.27l-0.34.12a6.54,6.54,0,0,0,0-1,2,2,0,0,0-.13-1,0.13,0.13,0,0,0-.11-0.13,1,1,0,0,0-.51.21l-0.76.37c-0.06,0-.32.12-0.53,0.23a3.28,3.28,0,0,0-.31-0.89c-0.14-.33-0.21-0.73-0.37-1a0.11,0.11,0,0,0-.14-0.15c-1,.54-1.73,2.13-2,3.18a2.85,2.85,0,0,0,.93,3.07,3.76,3.76,0,0,0,1.4.46,3.12,3.12,0,0,0,1.44-.06,4.76,4.76,0,0,0,2.51-2.07A10.38,10.38,0,0,0,520.55,31.21Z" transform="translate(-19.08 -15.92)"/><path class="cls-3" d="M454.41,59.76a5,5,0,0,0-.44.29,2.83,2.83,0,0,0,1.57.8c0.36,0.12.73,0.22,1.11,0.32l0.47,0.13a9,9,0,0,0-.83,1.15,2.68,2.68,0,0,0-.61,1.2,0.18,0.18,0,0,0,0,.23,1.39,1.39,0,0,0,.74.16c0.39,0,.77.11,1.15,0.18,0.09,0,.46.12,0.78,0.15a4.52,4.52,0,0,0-.35,1.25c-0.1.48-.34,1-0.39,1.47a0.15,0.15,0,0,0,0,.28c1.6,0.22,3.63-1,4.75-2a3.93,3.93,0,0,0,1.36-4.2,5.17,5.17,0,0,0-1.21-1.62,4.3,4.3,0,0,0-1.67-1.06,6.55,6.55,0,0,0-4.46.36A14.25,14.25,0,0,0,454.41,59.76Z" transform="translate(-19.08 -15.92)"/><path class="cls-1" d="M458.94,32.88C458,37.7,453.25,43.46,446.8,43.94c-0.69-8.72,7.15-8.37,12.14-11.06" transform="translate(-19.08 -15.92)"/><path class="cls-2" d="M451.86,41.6a17,17,0,0,0,4.38-5.84c0.58-1.4,1.39-3.29,1.06-4.85a15.84,15.84,0,0,1-5.55,3,10.21,10.21,0,0,0-4.43,2.91c-1.34,1.73-1.22,4-1.19,6,0,0.61-.23,1.19-0.21,1.8a4,4,0,0,0,.76,0C448.64,44.42,450.54,42.84,451.86,41.6Zm-4.66,1.75c0.2-2.08-.38-4.22,1.16-6,1.13-1.27,2.86-1.76,4.33-2.5a18.93,18.93,0,0,1,3.65-1.76c-0.83,1.93-1.59,4.16-3.23,5.58-1.3,1.13-2.61,2.25-3.89,3.4C449.09,42.22,447.16,43.75,447.2,43.35Z" transform="translate(-19.08 -15.92)"/><path class="cls-1" d="M434.65,44.37c2.09,1.2,4.27,2.25,6.47,3.24s4.44,1.91,6.7,2.77a83.13,83.13,0,0,0,13.86,4.08,32.83,32.83,0,0,0,7.1.64,59.09,59.09,0,0,0,7.14-.82,58.94,58.94,0,0,0,13.72-4.36c4.41-2,8.61-4.41,12.84-6.82,2.12-1.2,4.27-2.35,6.5-3.37a28.53,28.53,0,0,1,7-2.26,19.14,19.14,0,0,1,7.4.11,23.87,23.87,0,0,1,6.92,2.68c0.54,0.31,1.07.64,1.58,1a10.3,10.3,0,0,1,1.49,1.22,15.06,15.06,0,0,1,2.39,3,5.68,5.68,0,0,1,.77,1.91,4.28,4.28,0,0,1-.24,2.12A3.72,3.72,0,0,1,535,51.24a1.84,1.84,0,0,1-1.38.33,2.14,2.14,0,0,1-1.15-.67l0,0,0-.06a2.27,2.27,0,0,1-.34-1.59,3.32,3.32,0,0,1,.56-1.34,6.24,6.24,0,0,1,1.9-1.73,9.36,9.36,0,0,1,9.48-.07,12,12,0,0,1,3.6,3.26c0.25,0.33.45,0.63,0.7,1a11.68,11.68,0,0,1,.58,1,10.93,10.93,0,0,1,.85,2.32,12.7,12.7,0,0,1,.16,4.85A15.25,15.25,0,0,1,545.57,67a11.07,11.07,0,0,1-4.12,2.59A8.52,8.52,0,0,1,539,70a8.66,8.66,0,0,1-2.45-.35,8.22,8.22,0,0,1-4.16-2.59,6.6,6.6,0,0,1-1.54-4.68,6.07,6.07,0,0,1,.69-2.42,6.5,6.5,0,0,1,1.61-1.91,5,5,0,0,1,2.3-1.1,4.2,4.2,0,0,1,2.55.4,3.66,3.66,0,0,1,1.77,1.88,3.52,3.52,0,0,1,0,2.57,2.94,2.94,0,0,1-.73,1.09,3,3,0,0,1-1.15.66,2.85,2.85,0,0,1-2.52-.38l0.41-.57a2.11,2.11,0,0,0,1.86.2,2.23,2.23,0,0,0,.8-0.49,2.09,2.09,0,0,0,.51-0.81,2.62,2.62,0,0,0-.08-1.9,2.67,2.67,0,0,0-1.35-1.33,3.18,3.18,0,0,0-1.91-.26,3.86,3.86,0,0,0-1.77.9A4.89,4.89,0,0,0,532,62.49a5.36,5.36,0,0,0,1.32,3.79,6.92,6.92,0,0,0,3.54,2.11,6.41,6.41,0,0,0,4.09-.14,9.85,9.85,0,0,0,3.52-2.32,13.7,13.7,0,0,0,3.86-7.59,11.13,11.13,0,0,0-.15-4.25A10.35,10.35,0,0,0,547,51.12c-0.16-.26-0.39-0.59-0.6-0.87a10.43,10.43,0,0,0-3.12-2.88,7.89,7.89,0,0,0-8,0,4.86,4.86,0,0,0-1.48,1.31,1.21,1.21,0,0,0-.22,1.36l-0.08-.1a0.79,0.79,0,0,0,.38.26,0.45,0.45,0,0,0,.35-0.1A2.51,2.51,0,0,0,535,49a3,3,0,0,0,.21-1.46,4.5,4.5,0,0,0-.57-1.46,13.88,13.88,0,0,0-2.12-2.75,9,9,0,0,0-1.3-1.12c-0.49-.34-1-0.67-1.49-1a22.94,22.94,0,0,0-6.56-2.72,18.19,18.19,0,0,0-7.08-.27c-4.74.78-9.1,3.1-13.28,5.51s-8.34,5-12.76,7.13a64.26,64.26,0,0,1-6.78,2.84,52.51,52.51,0,0,1-7.12,1.91,50,50,0,0,1-7.33.86,34.12,34.12,0,0,1-7.39-.69,84.36,84.36,0,0,1-14.07-4.19q-3.42-1.31-6.74-2.88c-2.21-1-4.39-2.16-6.5-3.42Z" transform="translate(-19.08 -15.92)"/><circle class="cls-1" cx="536.02" cy="62.35" r="1.11" transform="translate(221.07 497.72) rotate(-63.39)"/><path class="cls-4" d="M509.62,25.74a5.26,5.26,0,0,0-.33-0.46,3,3,0,0,0-.8,1.7c-0.11.39-.21,0.79-0.3,1.19,0,0.16-.09.33-0.12,0.51a9.54,9.54,0,0,0-1.25-.85,2.86,2.86,0,0,0-1.3-.61,0.19,0.19,0,0,0-.25,0,1.49,1.49,0,0,0-.14.79c0,0.41-.09.82-0.15,1.23a8.37,8.37,0,0,0-.14.84,4.82,4.82,0,0,0-1.34-.34c-0.51-.09-1.07-0.33-1.58-0.37a0.16,0.16,0,0,0-.3.06c-0.18,1.72,1.24,3.84,2.31,5a4.19,4.19,0,0,0,4.53,1.32,5.52,5.52,0,0,0,1.69-1.35,4.59,4.59,0,0,0,1.08-1.82,7,7,0,0,0-.54-4.75A15.3,15.3,0,0,0,509.62,25.74Z" transform="translate(-19.08 -15.92)"/><path class="cls-2" d="M508.59,34.87l-0.59.24a2.94,2.94,0,0,1-1.56.14,5.6,5.6,0,0,1-2.77-1.65c-1.4-1.52-2.74-3.67-2.36-5.86a9.05,9.05,0,0,1,2.38.46,9.11,9.11,0,0,0,.89.29,11.85,11.85,0,0,1,.49-2.6l0.11-.38,0.36,0.18L506,25.91a16.18,16.18,0,0,1,1.86,1,17.41,17.41,0,0,1,.91-3l0.2-.5,0.36,0.4a6.46,6.46,0,0,1,.51.65A12.34,12.34,0,0,1,511,26.64a7.2,7.2,0,0,1,.55,5,4.92,4.92,0,0,1-1.16,2A5.87,5.87,0,0,1,508.59,34.87Zm-6.6-6.4a6.82,6.82,0,0,0,2.18,4.68,3.84,3.84,0,0,0,4.37,1.13A5.62,5.62,0,0,0,510,33.21c1.76-1.64,1.28-4.28.41-6.29a11.7,11.7,0,0,0-1.08-2.05l-0.1-.14a17,17,0,0,0-.76,2.82l-0.1.56-0.45-.36a11.34,11.34,0,0,0-2.17-1.21l-0.1,0a9.06,9.06,0,0,0-.35,2.41l0,0.39-0.39,0a6.22,6.22,0,0,1-1.42-.39A4.86,4.86,0,0,0,502,28.47Z" transform="translate(-19.08 -15.92)"/><path class="cls-1" d="M201.1,39.56a5.69,5.69,0,0,0,3,1.44c0.27,0,3.63.06,3.43-.41-0.8-1.92-1.36-3.65-3.07-5s-3.92-1.9-6-2.62c0,0.42.08,0.85,0.15,1.27A9.28,9.28,0,0,0,201.1,39.56Z" transform="translate(-19.08 -15.92)"/><path class="cls-4" d="M201.08,80.85a4.93,4.93,0,0,0,.48.21,2.79,2.79,0,0,0-.17-1.73c-0.09-.37-0.2-0.73-0.32-1.09,0-.14-0.09-0.31-0.14-0.46a8.87,8.87,0,0,0,1.39.08,2.64,2.64,0,0,0,1.32-.13,0.18,0.18,0,0,0,.18-0.15,1.37,1.37,0,0,0-.26-0.7c-0.17-.35-0.32-0.69-0.46-1,0-.08-0.15-0.44-0.29-0.73a4.45,4.45,0,0,0,1.22-.37c0.45-.17,1-0.24,1.43-0.45a0.15,0.15,0,0,0,.21-0.18c-0.67-1.45-2.8-2.46-4.2-2.87a3.87,3.87,0,0,0-4.21,1.1,5.1,5.1,0,0,0-.7,1.87,4.24,4.24,0,0,0,0,2,6.46,6.46,0,0,0,2.67,3.51A14.07,14.07,0,0,0,201.08,80.85Z" transform="translate(-19.08 -15.92)"/><path class="cls-3" d="M250.68,41.8a5.07,5.07,0,0,0,.22-0.49,2.86,2.86,0,0,0-1.77.17c-0.37.1-.75,0.21-1.12,0.33l-0.47.15a9.08,9.08,0,0,0,.08-1.43,2.71,2.71,0,0,0-.13-1.35,0.18,0.18,0,0,0-.15-0.18,1.41,1.41,0,0,0-.71.27c-0.35.17-.71,0.32-1.07,0.47-0.09,0-.45.15-0.75,0.29a4.56,4.56,0,0,0-.38-1.25c-0.17-.46-0.25-1-0.46-1.46a0.15,0.15,0,0,0-.19-0.21c-1.48.69-2.52,2.87-3,4.3a4,4,0,0,0,1.12,4.32,5.22,5.22,0,0,0,1.91.72,4.34,4.34,0,0,0,2,0,6.61,6.61,0,0,0,3.59-2.73A14.41,14.41,0,0,0,250.68,41.8Z" transform="translate(-19.08 -15.92)"/><path class="cls-3" d="M213,46.58a4,4,0,0,0-.16.39,2.23,2.23,0,0,0,1.38-.17c0.29-.08.58-0.18,0.86-0.28l0.37-.12a7.09,7.09,0,0,0,0,1.11,2.11,2.11,0,0,0,.13,1.05,0.14,0.14,0,0,0,.12.14,1.1,1.1,0,0,0,.55-0.22c0.27-.14.55-0.27,0.83-0.39,0.07,0,.35-0.13.58-0.24a3.56,3.56,0,0,0,.32,1c0.14,0.36.21,0.8,0.39,1.13a0.12,0.12,0,0,0,.15.16c1.14-.56,1.91-2.29,2.22-3.41a3.09,3.09,0,0,0-1-3.35,4.07,4.07,0,0,0-1.5-.52,3.39,3.39,0,0,0-1.56,0,5.16,5.16,0,0,0-2.75,2.2A11.25,11.25,0,0,0,213,46.58Z" transform="translate(-19.08 -15.92)"/><path class="cls-1" d="M300.4,53.69c-15,10.37-40.37,13-55.49,2.69-11-7.52-22.35-23.76-37.56-15.62C196.78,46.42,194.2,62.05,203.77,70c2.69,2.25,8.22,2.91,8.42-2,0.17-4.18-5.39-5.46-8.57-5.21-15.18,1.2-16.72,20.6-2.88,25.34,1.09,0.37,1.57-.11.5-0.52-10.9-4.15-11.13-20.28,1.2-22.7a13.48,13.48,0,0,1,2.93-.2c9,1.25,4.25,8-.22,3.71a13.62,13.62,0,0,1-3.53-4.53,16.64,16.64,0,0,1-1.32-11.22c2.36-9.27,12.29-13.88,21.11-11.06,6.3,2,11.29,7.25,16.18,11.44,17,14.57,46.06,14.58,64.29.78Z" transform="translate(-19.08 -15.92)"/><path class="cls-4" d="M237.91,29a6.62,6.62,0,0,0-.29-0.65,3.83,3.83,0,0,0-1.42,1.9c-0.24.46-.46,0.93-0.68,1.4-0.08.19-.19,0.39-0.28,0.6a12.05,12.05,0,0,0-1.34-1.37,3.61,3.61,0,0,0-1.46-1.09,0.24,0.24,0,0,0-.32,0,1.88,1.88,0,0,0-.38.95c-0.15.5-.32,1-0.5,1.49a10.59,10.59,0,0,0-.38,1,6.09,6.09,0,0,0-1.58-.75c-0.61-.24-1.24-0.68-1.86-0.86a0.2,0.2,0,0,0-.38,0c-0.65,2.08.57,5.07,1.6,6.79a5.3,5.3,0,0,0,5.28,2.77,7,7,0,0,0,2.43-1.25,5.81,5.81,0,0,0,1.8-2,8.84,8.84,0,0,0,.53-6A19.33,19.33,0,0,0,237.91,29Z" transform="translate(-19.08 -15.92)"/><path class="cls-2" d="M235.22,40c-0.26.06-.52,0.11-0.79,0.15a3.71,3.71,0,0,1-2-.21,7.08,7.08,0,0,1-3-2.74C228.1,35,227,32,228,29.37c0.09-.22,2.64,1,2.83,1.16a11.52,11.52,0,0,0,1,.58,15,15,0,0,1,1.26-3.1l0.24-.45,0.4,0.31,0.52,0.39A20.44,20.44,0,0,1,236.34,30a22,22,0,0,1,1.87-3.45l0.38-.57,0.35,0.59a8.15,8.15,0,0,1,.47.93,15.59,15.59,0,0,1,.87,3,9.1,9.1,0,0,1-.57,6.31,6.21,6.21,0,0,1-1.93,2.13A7.42,7.42,0,0,1,235.22,40Zm-6.57-9.59c-0.43,1.82.08,3.95,1.53,6.34a4.85,4.85,0,0,0,5.13,2.5,7.11,7.11,0,0,0,2-1c2.6-1.59,2.66-5,2.09-7.69a14.78,14.78,0,0,0-.82-2.81l-0.09-.2a21.46,21.46,0,0,0-1.65,3.3l-0.27.67L236.15,31a14.33,14.33,0,0,0-2.38-2l-0.11-.09a11.45,11.45,0,0,0-1,2.9l-0.08.49-0.47-.15a7.86,7.86,0,0,1-1.66-.84A6.14,6.14,0,0,0,228.65,30.43Z" transform="translate(-19.08 -15.92)"/><path class="cls-1" d="M408.49,36.85A3.88,3.88,0,0,1,407,36.6,2.89,2.89,0,0,1,405.46,35a2.28,2.28,0,0,1,.05-1.83l1.12,0.55a1.06,1.06,0,0,0,0,.84,1.65,1.65,0,0,0,.88.91,3.74,3.74,0,0,0,3-.37A4.09,4.09,0,0,0,412,31.13a4.82,4.82,0,0,0-2.45-3.67,7.2,7.2,0,0,0-5.74-.23l-0.4-1.18a8.43,8.43,0,0,1,6.73.31A6.07,6.07,0,0,1,413.24,31a5.27,5.27,0,0,1-2.07,5.13A5,5,0,0,1,408.49,36.85Z" transform="translate(-19.08 -15.92)"/><ellipse class="cls-1" cx="406.74" cy="33.71" rx="1.31" ry="1.36" transform="translate(325.85 421.22) rotate(-86.03)"/><path class="cls-1" d="M197.81,85.79L198.2,86c0.25,0.12.64,0.35,1.11,0.54a15.47,15.47,0,0,0,1.73.67,16.07,16.07,0,0,0,2.33.56c0.43,0.09.89,0.1,1.35,0.16a13.93,13.93,0,0,0,1.45,0,10.35,10.35,0,0,0,3-.6A8.69,8.69,0,0,0,212,85.77a6.68,6.68,0,0,0,1.1-1.15l0.26-.37c0.08-.12.11-0.22,0.17-0.33a4.47,4.47,0,0,0,.31-0.71,8.84,8.84,0,0,0,.51-3.22,6,6,0,0,0-.83-2.91,3,3,0,0,0-.92-0.94,5.76,5.76,0,0,0-.58-0.24c-0.22,0-.4-0.1-0.64-0.12a3.55,3.55,0,0,0-2.35.64,2.44,2.44,0,0,0-1,1.76,1.76,1.76,0,0,0,.56,1.39,1.42,1.42,0,0,0,.89.42,1.25,1.25,0,0,0,.33,0l0.12,0.87a2.33,2.33,0,0,1-.55,0,2.77,2.77,0,0,1-1.34-.61,2.67,2.67,0,0,1-1-2,3.53,3.53,0,0,1,1.17-2.61,4.79,4.79,0,0,1,3.16-1.2,6.88,6.88,0,0,1,.94.09,6.18,6.18,0,0,1,1,.32,4.57,4.57,0,0,1,1.55,1.34,7.08,7.08,0,0,1,1.26,3.77,9.17,9.17,0,0,1-.61,4,6.14,6.14,0,0,1-.45,1c-0.09.16-.18,0.34-0.27,0.47l-0.27.37a8.34,8.34,0,0,1-1.43,1.46,10.41,10.41,0,0,1-3.39,1.8,11.74,11.74,0,0,1-3.49.52,15.46,15.46,0,0,1-1.62-.07c-0.51-.09-1-0.13-1.49-0.25a14.21,14.21,0,0,1-2.49-.79,16.45,16.45,0,0,1-1.81-.88c-0.5-.26-0.82-0.52-1.07-0.67l-0.37-.24Z" transform="translate(-19.08 -15.92)"/><path class="cls-1" d="M52.07,57.89c-0.33.24-.71,0.52-1.16,0.82a49.52,49.52,0,0,1-7,4.09,41.85,41.85,0,0,1-5.09,2.09,17,17,0,0,1-6.29.86A10.89,10.89,0,0,1,26,63a8.18,8.18,0,0,1-2.13-3.13,9.68,9.68,0,0,1-.61-3.69,12.58,12.58,0,0,1,.66-3.57,10.91,10.91,0,0,1,1.68-3.22,8.85,8.85,0,0,1,.6-0.7l0.11-.12,0.07-.07,0.15-.14,0.3-.28a10,10,0,0,1,4.72-2.33,9.52,9.52,0,0,1,6.43,1,7.84,7.84,0,0,1,3.36,4.77,6.64,6.64,0,0,1,.1,2.62,5.07,5.07,0,0,1-.13.61l0,0.15c0,0.11,0,.1-0.05.16l-0.09.26a6.23,6.23,0,0,1-.51,1.05,6.47,6.47,0,0,1-2.82,2.47,5.44,5.44,0,0,1-2.36.48,3.84,3.84,0,0,1-.63-0.06l-0.22,0,0.11-.65h0.19a3.17,3.17,0,0,0,.55,0,4.8,4.8,0,0,0,2-.57,5.44,5.44,0,0,0,2.22-2.22A4.93,4.93,0,0,0,39.93,55L40,54.7a0.7,0.7,0,0,0,0-.1l0-.12A3.84,3.84,0,0,0,40.11,54a5.72,5.72,0,0,0-.21-2.09,6.3,6.3,0,0,0-2.8-3.67,7.76,7.76,0,0,0-5.18-.5,8.27,8.27,0,0,0-2.58,1.07,7.46,7.46,0,0,0-1.11.85l-0.29.28-0.15.14-0.07.07,0,0,0,0,0,0a6.84,6.84,0,0,0-.45.55,10,10,0,0,0-1.76,5.54,6.65,6.65,0,0,0,2.08,5,8.75,8.75,0,0,0,5.06,2.08,15.35,15.35,0,0,0,5.49-.67A39.75,39.75,0,0,0,43,60.9c2.27-1,4.21-2,5.73-2.84Z" transform="translate(-19.08 -15.92)"/><path class="cls-1" d="M545.89,47.39l0.3,0.37a10.08,10.08,0,0,0,.84.92,11.38,11.38,0,0,0,1.52,1.21,11.77,11.77,0,0,0,8.52,1.77,12.39,12.39,0,0,0,3.4-1.14,8.3,8.3,0,0,0,2.81-2.29,6.3,6.3,0,0,0,1.27-3.31,6.43,6.43,0,0,0-.66-3.39,5.46,5.46,0,0,0-2.17-2.33,4,4,0,0,0-2.75-.29A5.2,5.2,0,0,0,556.78,40a3.33,3.33,0,0,0-1.05,1.45,2.26,2.26,0,0,0-.09,1.1,2.07,2.07,0,0,0,.09.39,0.44,0.44,0,0,1-.81.33l0,0a2.8,2.8,0,0,1-.13-0.52,3.15,3.15,0,0,1,.11-1.53A5.24,5.24,0,0,1,558.76,38a5,5,0,0,1,3.43.34,6.46,6.46,0,0,1,2.63,2.73,7.49,7.49,0,0,1,.82,3.94,7.41,7.41,0,0,1-1.44,3.91A9.46,9.46,0,0,1,561,51.58,13.06,13.06,0,0,1,547.82,51a12.71,12.71,0,0,1-1.72-1.35,11.73,11.73,0,0,1-1-1l-0.3-.36a0.69,0.69,0,1,1,1.05-.88h0Z" transform="translate(-19.08 -15.92)"/><circle class="cls-1" cx="556.21" cy="42.87" r="1.31" transform="translate(486.04 582.47) rotate(-89.15)"/><path class="cls-1" d="M493.39,45.34c-2.08,0-4.56-1-5.5-3.14a3.39,3.39,0,0,1-.16-0.45,9.74,9.74,0,0,1-3.76.05,9.13,9.13,0,0,1-6.16-3.94,9.54,9.54,0,0,1,3.48-13.06,0.42,0.42,0,0,1,.39.74,8.3,8.3,0,0,0-4,5.29,8.3,8.3,0,0,0,.87,6.59A8.3,8.3,0,0,0,484.13,41a9,9,0,0,0,3.49-.05,4.23,4.23,0,0,1,.68-2.47A3.11,3.11,0,0,1,490.88,37h0L491,37a1.69,1.69,0,0,1,1.2,1.08c0.13,0.58-.21,1.26-1.06,2.12a8.49,8.49,0,0,1-2.63,1.36,2.51,2.51,0,0,0,.12.33c0.8,1.86,3,2.66,4.83,2.64a16.19,16.19,0,0,0,5.85-1.65,16.25,16.25,0,0,1,6.15-1.65h0.13a0.42,0.42,0,0,1,0,.83h-0.12a15.49,15.49,0,0,0-5.79,1.57,16.92,16.92,0,0,1-6.2,1.73h-0.11Zm-2.58-7.55A2.32,2.32,0,0,0,489,38.93a3.39,3.39,0,0,0-.55,1.78,7.44,7.44,0,0,0,2.18-1.14c0.8-.81.83-1.19,0.8-1.32A0.92,0.92,0,0,0,490.81,37.8Z" transform="translate(-19.08 -15.92)"/><path class="cls-1" d="M121.91,63.56a29.92,29.92,0,0,1-3.06-.2,35.87,35.87,0,0,1-4.31-1.08c-2.35-.67-5.29-1.52-6.28-1.43a0.42,0.42,0,1,1-.06-0.83c1.14-.08,3.9.7,6.56,1.46a37,37,0,0,0,4.17,1.05c2.91,0.3,4.88.4,7.73-.75A9.13,9.13,0,0,0,130,59.56a6,6,0,0,1-4.77-1.71,4.73,4.73,0,0,1-1.2-3.57,3.71,3.71,0,0,1,4.34-3.53,4.61,4.61,0,0,1,3,1.7,5.76,5.76,0,0,1,.45,5.85,11,11,0,0,0,4.49-3.58c0.79-1,1.5-2.08,2.19-3.13,0.48-.74,1-1.48,1.48-2.2a13.56,13.56,0,0,1,4.86-4.51,9.19,9.19,0,0,1,9.41.87,0.42,0.42,0,1,1-.5.66,8.34,8.34,0,0,0-8.54-.79,12.78,12.78,0,0,0-4.55,4.25c-0.51.71-1,1.44-1.46,2.17-0.7,1.07-1.42,2.17-2.23,3.19a11.42,11.42,0,0,1-5.3,4l-0.46.13A9.49,9.49,0,0,1,127,62.56,12.89,12.89,0,0,1,121.91,63.56Zm5.88-12a2.94,2.94,0,0,0-1.81.59,3,3,0,0,0-1.12,2.22,3.88,3.88,0,0,0,1,2.93,5.32,5.32,0,0,0,4.88,1.35q0.14-.21.25-0.44a5,5,0,0,0-.23-5.24,3.76,3.76,0,0,0-2.46-1.38A3.61,3.61,0,0,0,127.79,51.55Z" transform="translate(-19.08 -15.92)"/></svg>