<svg id="WW_Vines_CMYK" xmlns="http://www.w3.org/2000/svg" viewBox="0 0 547.79 77.62"><defs><style>.cls-1{fill:#69b94c;}.cls-2{fill:#644130;}.cls-3{fill:#ed6098;}.cls-4{fill:#e8247f;}.cls-5{fill:#addbe1;}.cls-6{fill:#faefcf;}.cls-7{fill:#c5b5d8;}</style></defs><title>Vines_3</title><path class="cls-1" d="M407.25,198.36c-1.39-1.53-2.42-4.19-4-5.45a5.54,5.54,0,0,0-2.85-1.2c4.18-1.38,7.83-4.25,11.4-7.07,7.08-5.58,13.76-10.85,23.9-4.32a0.63,0.63,0,0,0,.68-1.06c-4.7-3-8.75-3.66-12.4-3a5.34,5.34,0,0,0,1.64-2.37c0.45-1.36.7-5.09-.19-6.3-1.19,1.68-3.57,3.27-4.46,5.08a6.48,6.48,0,0,0-.31,4.62c-3.43,1.45-6.56,3.9-9.63,6.33-5.24,4.13-10.65,8.4-17.52,7.54a89.08,89.08,0,0,1-15.77-3.7c3.95-1.1,6.29-5.26,8.71-9.6,0.82-1.48,1.67-3,2.61-4.46l0.48-.74a10.14,10.14,0,0,1,4.66,2.39c1.29,1.17,3.08,4.39,5.17,4,2.37-.48,1.79-3.67.58-5-1.51-1.61-3.91-2-6-2.2a14.83,14.83,0,0,0-4,.16,27.58,27.58,0,0,1,13.8-11,0.63,0.63,0,1,0-.46-1.17,36.92,36.92,0,0,0-3.79,1.75,7.12,7.12,0,0,0,1.66-4.11c0.1-1.82-.88-6.5-2.38-7.69-0.89,2.48-3.27,5.24-3.76,7.77s0.3,4.11,1.28,6a28.56,28.56,0,0,0-7.35,7.67c-0.3-2.33-.55-4.93-3.06-6-1.47-.6-2,0.65-1.57,1.9a6.1,6.1,0,0,0,2.29,2.55,11.91,11.91,0,0,1,2,2l-0.67,1c-1,1.5-1.82,3-2.65,4.53-3,5.41-5.54,9.9-10.89,9.14-2.32-.78-4.62-1.59-6.9-2.4l-3.2-1.12a6.41,6.41,0,0,0,4.59-1.73c1-1,2.83-4.28,2.56-5.77-1.8,1-4.63,1.41-6.22,2.65a6.81,6.81,0,0,0-2.36,4.35,116.32,116.32,0,0,0-19-5.21c2-1.16,4.1-2.42,4.06-5,0-1.59-1.39-1.59-2.37-.69a6.1,6.1,0,0,0-1.44,3.11,12.36,12.36,0,0,1-.92,2.52,51.87,51.87,0,0,0-13.88-.39c-11.59,1.33-22,6.71-31.49,12.32a0.63,0.63,0,0,0,.64,1.08c9.39-5.54,19.64-10.85,31-12.16a45.36,45.36,0,0,1,5.15-.29,10.2,10.2,0,0,1,3.85,4c0.82,1.54,1.39,5.18,3.5,5.49,2.39,0.36,2.94-2.84,2.24-4.46-0.87-2-3-3.2-4.88-4.11a14.34,14.34,0,0,0-2.31-.86c10.26,0.49,20.3,4,30.08,7.49l2.42,0.85a15.63,15.63,0,0,0,4.66,1.6,99.25,99.25,0,0,0,19.14,4.77,15.51,15.51,0,0,0,4.76-.14c0.45,2,1.19,3.84,2.94,4.89C402.28,197.92,405.86,199,407.25,198.36Z" transform="translate(-19.08 -149.88)"/><path class="cls-1" d="M301.37,188.22l-0.78.33c-0.5.22-1.26,0.53-2.23,0.91a69,69,0,0,1-8.19,2.57,67.8,67.8,0,0,1-12,1.85,49.13,49.13,0,0,1-6.87,0,23.12,23.12,0,0,1-7-1.55,15.34,15.34,0,0,1-5.85-4.15,10.74,10.74,0,0,1-2.68-6.45,6.62,6.62,0,0,1,.75-3.36,8,8,0,0,1,2.18-2.45,7.1,7.1,0,0,1,5.69-1.61,4.55,4.55,0,0,1,3.66,3.46,3.75,3.75,0,0,1-1.57,3.69,2.62,2.62,0,0,1-2.73.14,1.78,1.78,0,0,1-.74-0.81l0.8-.36a0.9,0.9,0,0,0,.39.41,1.75,1.75,0,0,0,1.81-.13A2.88,2.88,0,0,0,267.2,178a3.65,3.65,0,0,0-3-2.74,6.2,6.2,0,0,0-4.93,1.44,7.15,7.15,0,0,0-1.93,2.16,5.67,5.67,0,0,0-.64,2.91,9.81,9.81,0,0,0,2.47,5.86,14.38,14.38,0,0,0,5.51,3.88,22.18,22.18,0,0,0,6.68,1.46,48.18,48.18,0,0,0,6.72,0A66.78,66.78,0,0,0,289.92,191a67.89,67.89,0,0,0,8.06-2.56c0.94-.38,1.68-0.68,2.19-0.9l0.78-.33Z" transform="translate(-19.08 -149.88)"/><circle class="cls-1" cx="245.05" cy="30.44" r="1.21"/><path class="cls-1" d="M52.23,189.89A96.78,96.78,0,0,0,63,183.18l0.09-.06a7.09,7.09,0,0,1-5.57,0c-1.37-.69-4.36-3.32-4.61-4.91,2.17,0.37,5.16-.21,7.2.48A5.8,5.8,0,0,1,62.26,180a4.27,4.27,0,0,1-.32-1.51c0-1.2.68-4.25,1.69-5,0.55,1.64,2.07,3.49,2.34,5.17a4.72,4.72,0,0,1-.4,2.84l1.61-1.06A48.24,48.24,0,0,1,79,174.87a16.87,16.87,0,0,1-1.95-.13c-2.51-.33-5.39-0.85-7.16-2.85-1.41-1.59-2-5.45.86-6,2.54-.45,4.58,3.5,6.11,5a12.21,12.21,0,0,0,5.54,3,130.66,130.66,0,0,1,16.93-2.64l0.87-.1A161.19,161.19,0,0,1,117.77,170a7.06,7.06,0,0,1-4.73-2.83c-0.83-1.28-2.08-5.07-1.49-6.57,1.69,1.42,4.56,2.43,6,4.06s1.51,3.38,1.58,5.34a73.11,73.11,0,0,1,21.37,3,118.06,118.06,0,0,1,15.62,6.69l2.9,1.4c-1.74-2.15-3.64-4.5-2.47-7.46,0.7-1.78,2.25-1.2,3,.23a7.36,7.36,0,0,1,.3,4.12,14.09,14.09,0,0,0,0,3.49,104.45,104.45,0,0,0,9.83,4.19c10.18,3.61,19.52,2.6,29.45,2.6,1.86,0,2.34,1.52.08,1.52-10.08,0-19.57,1-30-2.68-0.77-.28-1.54-0.58-2.3-0.88a5.35,5.35,0,0,1,1.67,3.59c0,1.23-.74,4.37-1.79,5.14-0.54-1.65-2-3.52-2.33-5.21a5.47,5.47,0,0,1-1.42,1.53c-1.24.89-5,2.33-6.49,1.8,1.34-1.75,2.2-4.68,3.77-6.16a6.47,6.47,0,0,1,4.08-1.73c-3-1.3-6-2.72-8.88-4.13-3.45-1.68-7-3.38-10.6-4.84a12.08,12.08,0,0,0-5.31,1.68c-1.8,1.07-4.68,4.47-7.05,3.47-2.69-1.13-1.25-4.77.48-6a9.14,9.14,0,0,1,5.72-1.31,77,77,0,0,0-22.32-2.56,5.52,5.52,0,0,1-2.28,3.26c-1.43.9-3.82,1-5.42,1.68-0.11-1.26,1.7-3.82,2.62-4.6,0.09-.07.18-0.13,0.27-0.19-3.92.2-7.69,0.56-11.16,1l-0.87.1c-2.67.3-5.21,0.59-7.67,0.92a14,14,0,0,0-.79,3.42,7.36,7.36,0,0,1-1.21,4c-1,1.24-2.66,1.45-2.94-.44-0.49-3.22,2-5.1,4.22-6.84a79.06,79.06,0,0,0-9.48,1.86,18.2,18.2,0,0,0-.84,3.87c-0.22,1.69-.34,3.43-1.47,4.82s-3.24,1.77-3.59-.53c-0.54-3.55,1.9-5.76,4.37-7.73A46.79,46.79,0,0,0,68,181.66c-1.3.83-2.69,1.78-4.16,2.78-3.07,2.09-6.14,4.2-9.22,5.91C52.36,191.59,50.62,190.69,52.23,189.89Z" transform="translate(-19.08 -149.88)"/><path class="cls-2" d="M20.16,189.66l1.58,0.13c1,0.07,2.6.23,4.6,0.34,4,0.26,9.93.52,17.45,0.31,3.76-.14,7.92-0.32,12.44-0.74s9.38-1,14.56-1.85,10.67-1.84,16.43-3.08,11.8-2.65,18.11-4.14,12.94-2.93,19.9-4.06A124.41,124.41,0,0,1,147,174.94a110.13,110.13,0,0,1,23,2.85c3.86,0.88,7.71,1.93,11.54,3.1s7.65,2.47,11.49,3.77a230.73,230.73,0,0,0,23.44,7,119.8,119.8,0,0,0,12.2,2.11,116.33,116.33,0,0,0,12.48.74,122.21,122.21,0,0,0,12.61-.59c4.13-.47,8.34-1.3,12.52-2.17,8.38-1.76,16.79-3.81,25.34-5.39a125.8,125.8,0,0,1,13-1.81,51.86,51.86,0,0,1,6.63-.13c1.13,0.06,2.22.18,3.28,0.29l3.23,0.36c8.58,1,17,2.47,25.43,3.86,4.19,0.72,8.38,1.4,12.52,2a83.63,83.63,0,0,0,12.41.86A121.59,121.59,0,0,0,392.4,189c7.88-1.64,15.57-3.68,23.17-5.48,3.81-.9,7.56-1.77,11.36-2.5,1.87-.36,3.71-0.74,5.62-1s3.76-.62,5.62-0.83a214.44,214.44,0,0,1,42.13-1c13,0.9,24.82,2.68,35.23,4.39S535,186,542.42,187.11s13.31,1.94,17.31,2.26c2,0.15,3.53.24,4.56,0.25l1.56,0h0a1,1,0,0,1,0,2l-1.61,0c-1.06,0-2.63-.08-4.67-0.21-4.07-.27-10-0.9-17.51-2s-16.58-2.38-27-3.73-22.2-2.51-35-3.22a262.34,262.34,0,0,0-41.4.69c-1.83.17-3.65,0.4-5.49,0.64s-3.71.53-5.58,0.83c-3.7.59-7.49,1.34-11.29,2.11-7.62,1.54-15.4,3.31-23.42,4.69a129,129,0,0,1-24.73,2.23,108.53,108.53,0,0,1-12.64-1c-4.19-.62-8.35-1.33-12.56-1.91-8.4-1.24-16.9-2.31-25.42-3.19l-3.19-.29c-1.08-.09-2.15-0.18-3.16-0.23a49.26,49.26,0,0,0-6.29.18,123.24,123.24,0,0,0-12.66,1.88c-8.43,1.63-16.79,3.74-25.23,5.59-4.23.91-8.44,1.79-12.82,2.32a127.12,127.12,0,0,1-12.94.75,119.62,119.62,0,0,1-12.86-.61,123.3,123.3,0,0,1-12.58-2,234.16,234.16,0,0,1-23.88-6.81c-7.7-2.51-15.22-4.91-22.71-6.6a119.62,119.62,0,0,0-22.2-2.93c-14.65-.54-28.44,1.9-41.12,4.37s-24.34,5.06-34.79,6.59a237.27,237.27,0,0,1-27.24,2.49c-7.59.18-13.55,0-17.62-.18-2-.08-3.57-0.22-4.62-0.28L20,191.64a1,1,0,0,1,.13-2h0Z" transform="translate(-19.08 -149.88)"/><path class="cls-1" d="M289.27,193.86c1.48,0.38,1.48,1.82,2.46,2.84,2.42,2.46,5.12,0,7.87.64-1.17-2.08-2.77-5-5.52-4.61a10.94,10.94,0,0,0-2.56.93,3.57,3.57,0,0,1-2.39,0" transform="translate(-19.08 -149.88)"/><path class="cls-1" d="M289.32,195.43c0.35,1.66-1.08,2.36-1.61,3.84-1.26,3.6,2.46,5.1,3.22,8.12,1.49-2.18,3.57-5.19,1.87-7.74a12.1,12.1,0,0,0-2.18-2.08,4,4,0,0,1-1.17-2.37" transform="translate(-19.08 -149.88)"/><path class="cls-1" d="M316.62,172.92a6.5,6.5,0,0,0-1,3.69c0,0.32.72,4.08,1.2,3.76,2-1.31,3.8-2.31,4.92-4.51s1.28-4.8,1.64-7.25c-0.47.14-.94,0.27-1.39,0.44A10.59,10.59,0,0,0,316.62,172.92Z" transform="translate(-19.08 -149.88)"/><path class="cls-1" d="M515.74,189.44l0.6,0.05c-0.21-1.79-.24-4-1-5.63a8.73,8.73,0,0,0-2.54-3.52c-2.67-2.08-7.08-2.29-9.89-1.34,0.12,0.35.05,1.13,0.21,1.48a17.06,17.06,0,0,0,5.12,6.07A15.18,15.18,0,0,0,515.74,189.44Z" transform="translate(-19.08 -149.88)"/><path class="cls-2" d="M512.34,180.89a13.39,13.39,0,0,0-3.22-1.19c-0.29-.08-4-1.12-4.86-0.91a0.13,0.13,0,0,0-.1,0c-0.33.11-.13,1.26-0.1,1.49a15.5,15.5,0,0,0,.44,2.66,12.81,12.81,0,0,0,3,5.12,25.74,25.74,0,0,0,4.49,3.26c1.3,0.79,2.7,1.43,4,2.17-0.1-2,0-4-.08-5.92,0-.1,0-0.2,0-0.3A9.13,9.13,0,0,0,512.34,180.89Zm0.32,1.79a9.67,9.67,0,0,1,1.91,3.44,20.52,20.52,0,0,1,.16,5.57c-1-.68-2.21-1.07-3.24-1.74a16.29,16.29,0,0,1-3.29-2.72,9.39,9.39,0,0,1-2.07-3.14,15.27,15.27,0,0,0-.7-2,9.39,9.39,0,0,1-.58-2.29c1.56,0.44,3.17.69,4.74,1a5.81,5.81,0,0,1,2.56,1.27A3.77,3.77,0,0,1,512.66,182.68Z" transform="translate(-19.08 -149.88)"/><path class="cls-1" d="M393.5,198.92a7.27,7.27,0,0,0-2.8-3.23c-0.3-.19-4.22-1.92-4.23-1.28,0,2.65-.28,5,1,7.39s3.62,4.22,5.64,6.1c0.17-.52.34-1,0.47-1.56C394.26,203.73,394.45,201.12,393.5,198.92Z" transform="translate(-19.08 -149.88)"/><path class="cls-1" d="M383.74,201.66a6.26,6.26,0,0,0,1-3.54c0-.31-0.6-3.94-1.07-3.65-1.93,1.21-3.71,2.14-4.83,4.24s-1.34,4.6-1.74,6.94c0.45-.12.91-0.24,1.35-0.4A10.19,10.19,0,0,0,383.74,201.66Z" transform="translate(-19.08 -149.88)"/><path class="cls-3" d="M520.55,165.17a3.65,3.65,0,0,0,.14-0.36,2.06,2.06,0,0,0-1.27.17c-0.27.08-.53,0.17-0.79,0.27l-0.34.12a6.54,6.54,0,0,0,0-1,2,2,0,0,0-.13-1,0.13,0.13,0,0,0-.11-0.13,1,1,0,0,0-.51.21l-0.76.37c-0.06,0-.32.12-0.53,0.23a3.28,3.28,0,0,0-.31-0.89c-0.14-.33-0.21-0.73-0.37-1a0.11,0.11,0,0,0-.14-0.15c-1,.54-1.73,2.13-2,3.18a2.85,2.85,0,0,0,.93,3.07,3.76,3.76,0,0,0,1.4.46,3.12,3.12,0,0,0,1.44-.06,4.76,4.76,0,0,0,2.51-2.07A10.38,10.38,0,0,0,520.55,165.17Z" transform="translate(-19.08 -149.88)"/><path class="cls-3" d="M362.74,172.92a5,5,0,0,0,.14-0.51,2.83,2.83,0,0,0-1.71.42c-0.35.15-.7,0.31-1,0.49l-0.44.21a9,9,0,0,0-.12-1.41,2.68,2.68,0,0,0-.33-1.31,0.18,0.18,0,0,0-.17-0.16,1.39,1.39,0,0,0-.66.37c-0.32.22-.65,0.42-1,0.62-0.08,0-.42.21-0.69,0.4a4.51,4.51,0,0,0-.55-1.17c-0.24-.43-0.39-1-0.67-1.36a0.15,0.15,0,0,0-.22-0.18c-1.35.89-2.05,3.17-2.26,4.64a3.93,3.93,0,0,0,1.73,4.06,5.17,5.17,0,0,0,2,.42,4.3,4.3,0,0,0,2-.29,6.55,6.55,0,0,0,3.12-3.2A14.29,14.29,0,0,0,362.74,172.92Z" transform="translate(-19.08 -149.88)"/><path class="cls-1" d="M434.65,178.33c2.09,1.2,4.27,2.25,6.47,3.24s4.44,1.91,6.7,2.77a83.13,83.13,0,0,0,13.86,4.08,32.84,32.84,0,0,0,7.1.64,56,56,0,0,0,20.85-5.18c4.41-2,8.61-4.41,12.84-6.82,2.12-1.2,4.27-2.35,6.5-3.37a28.53,28.53,0,0,1,7-2.26,19.14,19.14,0,0,1,7.4.11,23.87,23.87,0,0,1,6.92,2.68c0.54,0.31,1.07.64,1.58,1a10.3,10.3,0,0,1,1.49,1.22,15.06,15.06,0,0,1,2.39,3,5.68,5.68,0,0,1,.77,1.91,4.28,4.28,0,0,1-.24,2.12A3.72,3.72,0,0,1,535,185.2a1.84,1.84,0,0,1-1.38.33,2.14,2.14,0,0,1-1.15-.67l0,0,0-.06a2.27,2.27,0,0,1-.34-1.59,3.32,3.32,0,0,1,.56-1.34,6.25,6.25,0,0,1,1.9-1.73A9.36,9.36,0,0,1,544,180a12,12,0,0,1,3.6,3.26c0.25,0.33.45,0.63,0.7,1a11.67,11.67,0,0,1,.58,1,10.93,10.93,0,0,1,.85,2.32,12.7,12.7,0,0,1,.16,4.85,15.25,15.25,0,0,1-4.33,8.45,11.06,11.06,0,0,1-4.12,2.59A8.52,8.52,0,0,1,539,204a8.67,8.67,0,0,1-2.45-.35,8.22,8.22,0,0,1-4.16-2.59,6.6,6.6,0,0,1-1.54-4.68,6.07,6.07,0,0,1,.69-2.42,6.5,6.5,0,0,1,1.61-1.91,5,5,0,0,1,2.3-1.1,4.2,4.2,0,0,1,2.55.4,3.66,3.66,0,0,1,1.77,1.88,3.52,3.52,0,0,1,0,2.57,2.94,2.94,0,0,1-.73,1.09,3,3,0,0,1-1.15.66,2.85,2.85,0,0,1-2.52-.38l0.41-.57a2.11,2.11,0,0,0,1.86.2,2.23,2.23,0,0,0,.8-0.49,2.09,2.09,0,0,0,.51-0.81,2.62,2.62,0,0,0-.08-1.9,2.67,2.67,0,0,0-1.35-1.33,3.18,3.18,0,0,0-1.91-.26,3.86,3.86,0,0,0-1.77.9,4.89,4.89,0,0,0-1.82,3.55,5.36,5.36,0,0,0,1.32,3.79,6.92,6.92,0,0,0,3.54,2.11,6.41,6.41,0,0,0,4.09-.14,9.85,9.85,0,0,0,3.52-2.32,13.7,13.7,0,0,0,3.86-7.59,11.13,11.13,0,0,0-.15-4.25,10.35,10.35,0,0,0-1.23-2.95c-0.16-.26-0.39-0.59-0.6-0.87a10.44,10.44,0,0,0-3.12-2.88,7.89,7.89,0,0,0-8,0,4.86,4.86,0,0,0-1.48,1.31,1.21,1.21,0,0,0-.22,1.36l-0.08-.1a0.79,0.79,0,0,0,.38.26,0.45,0.45,0,0,0,.35-0.1,2.51,2.51,0,0,0,.79-1.13,3,3,0,0,0,.21-1.46,4.5,4.5,0,0,0-.57-1.46,13.88,13.88,0,0,0-2.12-2.75,9,9,0,0,0-1.3-1.12c-0.49-.34-1-0.67-1.49-1a22.94,22.94,0,0,0-6.56-2.72,18.19,18.19,0,0,0-7.08-.27c-4.74.78-9.1,3.1-13.28,5.51s-8.34,5-12.76,7.13a64.24,64.24,0,0,1-6.78,2.84,52.48,52.48,0,0,1-7.12,1.91,50,50,0,0,1-7.33.86,34.12,34.12,0,0,1-7.39-.69,84.36,84.36,0,0,1-14.07-4.19q-3.42-1.31-6.74-2.88c-2.21-1-4.39-2.16-6.5-3.42Z" transform="translate(-19.08 -149.88)"/><circle class="cls-1" cx="536.02" cy="196.3" r="1.11" transform="translate(101.32 437.72) rotate(-63.39)"/><path class="cls-4" d="M509.62,159.69a5.23,5.23,0,0,0-.33-0.46,3,3,0,0,0-.8,1.7c-0.11.39-.21,0.79-0.3,1.19,0,0.16-.09.33-0.12,0.51a9.53,9.53,0,0,0-1.25-.85,2.86,2.86,0,0,0-1.3-.61,0.19,0.19,0,0,0-.25,0,1.49,1.49,0,0,0-.14.79c0,0.41-.09.82-0.15,1.23a8.38,8.38,0,0,0-.14.84,4.82,4.82,0,0,0-1.34-.34c-0.51-.09-1.07-0.33-1.58-0.37a0.16,0.16,0,0,0-.3.06c-0.18,1.72,1.24,3.84,2.31,5a4.19,4.19,0,0,0,4.53,1.32,5.52,5.52,0,0,0,1.69-1.35,4.59,4.59,0,0,0,1.08-1.82,7,7,0,0,0-.54-4.75A15.3,15.3,0,0,0,509.62,159.69Z" transform="translate(-19.08 -149.88)"/><path class="cls-2" d="M508.59,168.83l-0.59.24a2.93,2.93,0,0,1-1.56.14,5.6,5.6,0,0,1-2.77-1.65c-1.4-1.52-2.74-3.67-2.36-5.86a9.06,9.06,0,0,1,2.38.46,9.09,9.09,0,0,0,.89.29,11.85,11.85,0,0,1,.49-2.6l0.11-.38,0.36,0.18,0.46,0.22a16.18,16.18,0,0,1,1.86,1,17.4,17.4,0,0,1,.91-3l0.2-.5,0.36,0.4a6.45,6.45,0,0,1,.51.65A12.33,12.33,0,0,1,511,160.6a7.2,7.2,0,0,1,.55,5,4.92,4.92,0,0,1-1.16,2A5.87,5.87,0,0,1,508.59,168.83Zm-6.6-6.4a6.82,6.82,0,0,0,2.18,4.68,3.84,3.84,0,0,0,4.37,1.13,5.62,5.62,0,0,0,1.42-1.07c1.76-1.64,1.28-4.28.41-6.29a11.69,11.69,0,0,0-1.08-2.05l-0.1-.14a17,17,0,0,0-.76,2.82l-0.1.56-0.45-.36a11.34,11.34,0,0,0-2.17-1.21l-0.1,0a9.06,9.06,0,0,0-.35,2.41l0,0.39-0.39,0a6.22,6.22,0,0,1-1.42-.39A4.86,4.86,0,0,0,502,162.43Z" transform="translate(-19.08 -149.88)"/><path class="cls-1" d="M201.1,173.51a5.69,5.69,0,0,0,3,1.44c0.27,0,3.63.06,3.43-.41-0.8-1.92-1.36-3.65-3.07-5s-3.92-1.9-6-2.62c0,0.42.08,0.85,0.15,1.27A9.28,9.28,0,0,0,201.1,173.51Z" transform="translate(-19.08 -149.88)"/><path class="cls-4" d="M201.08,214.8a5,5,0,0,0,.48.21,2.79,2.79,0,0,0-.17-1.73c-0.09-.37-0.2-0.73-0.32-1.09,0-.14-0.09-0.31-0.14-0.46a8.87,8.87,0,0,0,1.39.08,2.64,2.64,0,0,0,1.32-.13,0.18,0.18,0,0,0,.18-0.15,1.37,1.37,0,0,0-.26-0.7c-0.17-.35-0.32-0.69-0.46-1,0-.08-0.15-0.44-0.29-0.73a4.45,4.45,0,0,0,1.22-.37c0.45-.17,1-0.24,1.43-0.45a0.15,0.15,0,0,0,.21-0.18c-0.67-1.45-2.8-2.46-4.2-2.87a3.87,3.87,0,0,0-4.21,1.1,5.1,5.1,0,0,0-.7,1.87,4.24,4.24,0,0,0,0,2,6.46,6.46,0,0,0,2.67,3.51A14.07,14.07,0,0,0,201.08,214.8Z" transform="translate(-19.08 -149.88)"/><path class="cls-3" d="M250.68,175.76a5.08,5.08,0,0,0,.22-0.49,2.86,2.86,0,0,0-1.77.17c-0.37.1-.75,0.21-1.12,0.33l-0.47.15a9.08,9.08,0,0,0,.08-1.43,2.71,2.71,0,0,0-.13-1.35,0.18,0.18,0,0,0-.15-0.18,1.41,1.41,0,0,0-.71.27c-0.35.17-.71,0.32-1.07,0.47-0.09,0-.45.15-0.75,0.29a4.55,4.55,0,0,0-.38-1.25c-0.17-.46-0.25-1-0.46-1.46a0.15,0.15,0,0,0-.19-0.21c-1.48.69-2.52,2.87-3,4.3a4,4,0,0,0,1.12,4.32,5.22,5.22,0,0,0,1.91.72,4.34,4.34,0,0,0,2,0,6.61,6.61,0,0,0,3.59-2.73A14.43,14.43,0,0,0,250.68,175.76Z" transform="translate(-19.08 -149.88)"/><path class="cls-3" d="M213,180.53a4,4,0,0,0-.16.39,2.23,2.23,0,0,0,1.38-.17c0.29-.08.58-0.18,0.86-0.28l0.37-.12a7.08,7.08,0,0,0,0,1.11,2.11,2.11,0,0,0,.13,1.05,0.14,0.14,0,0,0,.12.14,1.1,1.1,0,0,0,.55-0.22c0.27-.14.55-0.27,0.83-0.39,0.07,0,.35-0.13.58-0.24a3.56,3.56,0,0,0,.32,1c0.14,0.36.21,0.8,0.39,1.13a0.12,0.12,0,0,0,.15.16c1.14-.56,1.91-2.29,2.22-3.41a3.09,3.09,0,0,0-1-3.35,4.08,4.08,0,0,0-1.5-.52,3.39,3.39,0,0,0-1.56,0,5.16,5.16,0,0,0-2.75,2.2A11.24,11.24,0,0,0,213,180.53Z" transform="translate(-19.08 -149.88)"/><path class="cls-1" d="M300.4,187.65c-15,10.37-40.37,13-55.49,2.69-11-7.52-22.35-23.76-37.56-15.62C196.78,180.38,194.2,196,203.77,204c2.69,2.25,8.22,2.91,8.42-2,0.17-4.18-5.39-5.46-8.57-5.21-15.18,1.2-16.72,20.6-2.88,25.34,1.09,0.37,1.57-.11.5-0.52-10.9-4.15-11.13-20.28,1.2-22.7a13.49,13.49,0,0,1,2.93-.2c9,1.25,4.25,8-.22,3.71a13.62,13.62,0,0,1-3.53-4.53,16.64,16.64,0,0,1-1.32-11.22c2.36-9.27,12.29-13.88,21.11-11.06,6.3,2,11.29,7.25,16.18,11.44,17,14.57,46.06,14.58,64.29.78Z" transform="translate(-19.08 -149.88)"/><path class="cls-4" d="M237.91,162.92a6.62,6.62,0,0,0-.29-0.65,3.83,3.83,0,0,0-1.42,1.9c-0.24.46-.46,0.93-0.68,1.4-0.08.19-.19,0.39-0.28,0.6a12.05,12.05,0,0,0-1.34-1.37,3.61,3.61,0,0,0-1.46-1.09,0.24,0.24,0,0,0-.32,0,1.88,1.88,0,0,0-.38.95c-0.15.5-.32,1-0.5,1.49a10.57,10.57,0,0,0-.38,1,6.09,6.09,0,0,0-1.58-.75c-0.61-.24-1.24-0.68-1.86-0.86a0.2,0.2,0,0,0-.38,0c-0.65,2.08.57,5.07,1.6,6.79a5.3,5.3,0,0,0,5.28,2.77,7,7,0,0,0,2.43-1.25,5.81,5.81,0,0,0,1.8-2,8.84,8.84,0,0,0,.53-6A19.33,19.33,0,0,0,237.91,162.92Z" transform="translate(-19.08 -149.88)"/><path class="cls-2" d="M235.22,174c-0.26.06-.52,0.11-0.79,0.15a3.71,3.71,0,0,1-2-.21,7.08,7.08,0,0,1-3-2.74c-1.35-2.24-2.47-5.24-1.45-7.85,0.09-.22,2.64,1,2.83,1.16a11.5,11.5,0,0,0,1,.58,15,15,0,0,1,1.26-3.1l0.24-.45,0.4,0.31,0.52,0.39a20.44,20.44,0,0,1,2.06,1.68,22,22,0,0,1,1.87-3.45l0.38-.57,0.35,0.59a8.14,8.14,0,0,1,.47.93,15.58,15.58,0,0,1,.87,3,9.1,9.1,0,0,1-.57,6.31,6.21,6.21,0,0,1-1.93,2.13A7.42,7.42,0,0,1,235.22,174Zm-6.57-9.59c-0.43,1.82.08,3.95,1.53,6.34a4.85,4.85,0,0,0,5.13,2.5,7.1,7.1,0,0,0,2-1c2.6-1.59,2.66-5,2.09-7.69a14.78,14.78,0,0,0-.82-2.81l-0.09-.2a21.47,21.47,0,0,0-1.65,3.3l-0.27.67-0.46-.56a14.33,14.33,0,0,0-2.38-2l-0.11-.09a11.45,11.45,0,0,0-1,2.9l-0.08.49-0.47-.15a7.86,7.86,0,0,1-1.66-.84A6.14,6.14,0,0,0,228.65,164.39Z" transform="translate(-19.08 -149.88)"/><path class="cls-1" d="M408.49,170.81a3.89,3.89,0,0,1-1.46-.25,2.88,2.88,0,0,1-1.57-1.62,2.28,2.28,0,0,1,.05-1.83l1.12,0.55a1.08,1.08,0,0,0,0,.84,1.65,1.65,0,0,0,.88.91,3.74,3.74,0,0,0,3-.37,4.09,4.09,0,0,0,1.52-3.94,4.82,4.82,0,0,0-2.45-3.67,7.2,7.2,0,0,0-5.74-.22l-0.4-1.18a8.44,8.44,0,0,1,6.73.31,6.07,6.07,0,0,1,3.09,4.61,5.27,5.27,0,0,1-2.07,5.13A5,5,0,0,1,408.49,170.81Z" transform="translate(-19.08 -149.88)"/><ellipse class="cls-1" cx="406.74" cy="167.67" rx="1.31" ry="1.36" transform="translate(192.23 411.95) rotate(-86.03)"/><path class="cls-1" d="M197.81,219.74l0.39,0.2c0.25,0.12.64,0.35,1.11,0.54a15.45,15.45,0,0,0,1.73.67,16.08,16.08,0,0,0,2.33.56c0.43,0.09.89,0.1,1.35,0.16a13.93,13.93,0,0,0,1.45,0,10.35,10.35,0,0,0,3-.6,8.69,8.69,0,0,0,2.81-1.54,6.69,6.69,0,0,0,1.1-1.15l0.26-.37c0.08-.12.11-0.22,0.17-0.33a4.46,4.46,0,0,0,.31-0.71,8.84,8.84,0,0,0,.51-3.22,6,6,0,0,0-.83-2.91,3,3,0,0,0-.92-0.94,5.73,5.73,0,0,0-.58-0.24c-0.22,0-.4-0.1-0.64-0.12a3.55,3.55,0,0,0-2.35.64,2.44,2.44,0,0,0-1,1.76,1.77,1.77,0,0,0,.56,1.39,1.42,1.42,0,0,0,.89.42,1.26,1.26,0,0,0,.33,0l0.12,0.87a2.34,2.34,0,0,1-.55,0,2.77,2.77,0,0,1-1.34-.61,2.67,2.67,0,0,1-1-2,3.53,3.53,0,0,1,1.17-2.61,4.79,4.79,0,0,1,3.16-1.2,6.88,6.88,0,0,1,.94.09,6.18,6.18,0,0,1,1,.32,4.57,4.57,0,0,1,1.55,1.34,7.08,7.08,0,0,1,1.26,3.77,9.17,9.17,0,0,1-.61,4,6.15,6.15,0,0,1-.45,1c-0.09.16-.18,0.34-0.27,0.47l-0.27.37a8.34,8.34,0,0,1-1.43,1.46,10.41,10.41,0,0,1-3.39,1.8,11.73,11.73,0,0,1-3.49.52,15.41,15.41,0,0,1-1.62-.07c-0.51-.09-1-0.13-1.49-0.25a14.21,14.21,0,0,1-2.49-.79,16.45,16.45,0,0,1-1.81-.88c-0.5-.26-0.82-0.52-1.07-0.67l-0.37-.24Z" transform="translate(-19.08 -149.88)"/><path class="cls-1" d="M52.07,191.85c-0.33.24-.71,0.52-1.16,0.82a49.52,49.52,0,0,1-7,4.09,41.85,41.85,0,0,1-5.09,2.09,17,17,0,0,1-6.29.86A10.89,10.89,0,0,1,26,197a8.18,8.18,0,0,1-2.13-3.13,9.68,9.68,0,0,1-.61-3.69,12.58,12.58,0,0,1,.66-3.57,10.91,10.91,0,0,1,1.68-3.22,8.87,8.87,0,0,1,.6-0.7l0.11-.12,0.07-.07,0.15-.14,0.3-.28a10,10,0,0,1,4.72-2.33,9.52,9.52,0,0,1,6.43,1,7.84,7.84,0,0,1,3.36,4.77,6.64,6.64,0,0,1,.1,2.62,5.07,5.07,0,0,1-.13.61l0,0.15c0,0.11,0,.1-0.05.16l-0.09.26a6.23,6.23,0,0,1-.51,1.05,6.47,6.47,0,0,1-2.82,2.47,5.44,5.44,0,0,1-2.36.48,3.84,3.84,0,0,1-.63-0.06l-0.22,0,0.11-.65h0.19a3.18,3.18,0,0,0,.55,0,4.8,4.8,0,0,0,2-.57,5.44,5.44,0,0,0,2.22-2.22,4.93,4.93,0,0,0,.35-0.84l0.07-.26a0.7,0.7,0,0,0,0-.1l0-.12a3.84,3.84,0,0,0,.07-0.49,5.72,5.72,0,0,0-.21-2.09,6.3,6.3,0,0,0-2.8-3.67,7.76,7.76,0,0,0-5.18-.5,8.28,8.28,0,0,0-2.58,1.07,7.45,7.45,0,0,0-1.11.85l-0.29.28L27.8,184l-0.07.07,0,0,0,0,0,0a6.86,6.86,0,0,0-.45.54,10,10,0,0,0-1.76,5.54,6.65,6.65,0,0,0,2.08,5,8.75,8.75,0,0,0,5.06,2.08,15.36,15.36,0,0,0,5.49-.67,39.77,39.77,0,0,0,4.88-1.8c2.27-1,4.21-2,5.73-2.84Z" transform="translate(-19.08 -149.88)"/><path class="cls-1" d="M545.89,181.35l0.3,0.37a10.08,10.08,0,0,0,.84.92,11.38,11.38,0,0,0,1.52,1.21,11.77,11.77,0,0,0,8.52,1.77,12.39,12.39,0,0,0,3.4-1.14,8.31,8.31,0,0,0,2.81-2.29,6.3,6.3,0,0,0,1.27-3.31,6.43,6.43,0,0,0-.66-3.39,5.46,5.46,0,0,0-2.17-2.33,4,4,0,0,0-2.75-.29,5.2,5.2,0,0,0-2.19,1.06,3.33,3.33,0,0,0-1.05,1.45,2.26,2.26,0,0,0-.09,1.1,2.07,2.07,0,0,0,.09.39,0.44,0.44,0,0,1-.81.33l0,0a2.8,2.8,0,0,1-.13-0.52,3.15,3.15,0,0,1,.11-1.53,5.24,5.24,0,0,1,3.89-3.16,5,5,0,0,1,3.43.34,6.46,6.46,0,0,1,2.63,2.73,7.43,7.43,0,0,1-.62,7.85,9.46,9.46,0,0,1-3.17,2.66,13.06,13.06,0,0,1-13.21-.58,12.72,12.72,0,0,1-1.72-1.35,11.75,11.75,0,0,1-1-1l-0.3-.36a0.69,0.69,0,1,1,1.05-.88h0Z" transform="translate(-19.08 -149.88)"/><circle class="cls-1" cx="556.21" cy="176.83" r="1.31" transform="translate(352.08 580.48) rotate(-89.15)"/><path class="cls-1" d="M493.39,179.3c-2.08,0-4.56-1-5.5-3.14a3.37,3.37,0,0,1-.16-0.45,9.74,9.74,0,0,1-3.76.05,9.16,9.16,0,0,1-2.68-17,0.42,0.42,0,0,1,.39.74,8.2,8.2,0,0,0,2.44,15.45,9,9,0,0,0,3.49-.05,4.22,4.22,0,0,1,.68-2.47,3.11,3.11,0,0,1,2.58-1.51h0l0.15,0a1.69,1.69,0,0,1,1.2,1.08c0.13,0.58-.21,1.26-1.06,2.12a8.49,8.49,0,0,1-2.63,1.35,2.52,2.52,0,0,0,.12.33,5,5,0,0,0,4.83,2.63,16.18,16.18,0,0,0,5.85-1.65,15.64,15.64,0,0,1,6.28-1.65,0.42,0.42,0,0,1,0,.83h-0.12a15.47,15.47,0,0,0-5.78,1.57,16.92,16.92,0,0,1-6.2,1.73h-0.11Zm-2.58-7.55a2.32,2.32,0,0,0-1.81,1.13,3.39,3.39,0,0,0-.55,1.79,7.43,7.43,0,0,0,2.18-1.14c0.8-.81.83-1.19,0.8-1.32A0.92,0.92,0,0,0,490.81,171.75Z" transform="translate(-19.08 -149.88)"/><path class="cls-1" d="M121.91,197.52a30,30,0,0,1-3.06-.2,35.71,35.71,0,0,1-4.31-1.08c-2.35-.67-5.28-1.51-6.27-1.43a0.42,0.42,0,1,1-.06-0.83c1.16-.08,3.9.7,6.56,1.46a36.8,36.8,0,0,0,4.17,1.05c2.91,0.3,4.88.4,7.73-.75a9.11,9.11,0,0,0,3.33-2.23,6,6,0,0,1-4.77-1.71,4.73,4.73,0,0,1-1.2-3.57,3.71,3.71,0,0,1,4.34-3.53,4.61,4.61,0,0,1,3,1.7,5.76,5.76,0,0,1,.45,5.85,11,11,0,0,0,4.49-3.58c0.79-1,1.5-2.08,2.19-3.13,0.48-.74,1-1.48,1.48-2.2a13.55,13.55,0,0,1,4.86-4.51,9.19,9.19,0,0,1,9.41.86,0.42,0.42,0,0,1-.5.67,8.34,8.34,0,0,0-8.54-.79,12.78,12.78,0,0,0-4.55,4.25c-0.51.71-1,1.44-1.46,2.17-0.7,1.07-1.42,2.17-2.23,3.2a11.43,11.43,0,0,1-5.3,4l-0.46.13a9.48,9.48,0,0,1-4.24,3.19A12.9,12.9,0,0,1,121.91,197.52Zm5.88-12a2.94,2.94,0,0,0-1.81.58,3,3,0,0,0-1.12,2.22,3.88,3.88,0,0,0,1,2.93,5.32,5.32,0,0,0,4.88,1.35q0.14-.21.25-0.43a5,5,0,0,0-.23-5.24,3.77,3.77,0,0,0-2.46-1.38A3.69,3.69,0,0,0,127.79,185.51Z" transform="translate(-19.08 -149.88)"/><path class="cls-1" d="M447.79,167.66c-0.94,4.82-5.69,10.58-12.14,11.06-0.69-8.72,7.15-8.37,12.14-11.06" transform="translate(-19.08 -149.88)"/><path class="cls-2" d="M440.71,176.38a17,17,0,0,0,4.38-5.84c0.58-1.4,1.39-3.29,1.06-4.85a15.84,15.84,0,0,1-5.55,3,10.21,10.21,0,0,0-4.43,2.91c-1.34,1.73-1.22,4-1.19,6,0,0.61-.23,1.19-0.21,1.8a3.94,3.94,0,0,0,.76,0C437.48,179.2,439.38,177.62,440.71,176.38ZM436,178.13c0.2-2.08-.38-4.22,1.16-6,1.13-1.27,2.86-1.76,4.33-2.5a18.93,18.93,0,0,1,3.65-1.76c-0.83,1.93-1.59,4.16-3.23,5.58-1.3,1.13-2.61,2.25-3.89,3.4C437.94,177,436,178.54,436,178.13Z" transform="translate(-19.08 -149.88)"/><path class="cls-1" d="M164.92,165.81c1.87,1.48,3.34.94,4.21-1.08,1-2.25-.2-4.51-2.11-5.87-2.25-1.62-4.57-1-7.09-1.4a41.23,41.23,0,0,0-4.3-.69,4.7,4.7,0,0,0,.76,1.64,7.8,7.8,0,0,1,.27,3c0,1.92.28,4.58,1.32,6.23s3.3,3.41,5.27,2.78C165.47,169.72,165.17,166.63,164.92,165.81Z" transform="translate(-19.08 -149.88)"/><path class="cls-1" d="M193,183.77H193c-2.55-.47-4-4-4.86-6.67a0.41,0.41,0,0,1,.78-0.26c0.46,1.41,1.87,5.68,4.23,6.12A0.41,0.41,0,0,1,193,183.77Z" transform="translate(-19.08 -149.88)"/><path class="cls-1" d="M164.31,176.17a0.41,0.41,0,0,1-.28-0.72c1-.89,2.47-5.12,1.76-7.55a1.88,1.88,0,0,0-1.53-1.5,0.41,0.41,0,0,1,.14-0.81,2.7,2.7,0,0,1,2.18,2.08c0.76,2.63-.71,7.22-2,8.39A0.41,0.41,0,0,1,164.31,176.17Z" transform="translate(-19.08 -149.88)"/><path class="cls-1" d="M199.4,188.42a0.41,0.41,0,0,1-.32-0.15c-3.51-4.34-12.35-7-17.32-6.25a91.22,91.22,0,0,1-12.85,1h0a0.41,0.41,0,1,1,0-.82,90.6,90.6,0,0,0,12.73-1c5.18-.75,14.4,2,18.08,6.54A0.41,0.41,0,0,1,199.4,188.42Z" transform="translate(-19.08 -149.88)"/><path class="cls-1" d="M174.46,191.83c-0.17-4.16,3.69-4.88,6.54-2.26s2.3,6.6,4.84,9.69a35,35,0,0,0-5.66-1.18c-2-.26-4.2-0.28-6.07-1-1.54-.6-3.48-1.93-3.08-3.93C171.31,191.78,173.72,191.25,174.46,191.83Z" transform="translate(-19.08 -149.88)"/><path class="cls-1" d="M175.09,191.81a0.41,0.41,0,0,1-.34-0.18c-1.74-2.6-2.38-5.33-1.7-7.3A3.62,3.62,0,0,1,175.4,182a0.41,0.41,0,1,1,.26.78,2.79,2.79,0,0,0-1.83,1.83c-0.59,1.71,0,4.23,1.6,6.58A0.41,0.41,0,0,1,175.09,191.81Z" transform="translate(-19.08 -149.88)"/><path class="cls-1" d="M186.72,202.09a0.43,0.43,0,0,1-.44-0.41,0.41,0.41,0,0,1,.41-0.41h0a3.76,3.76,0,0,0,3.4-1.69,3.92,3.92,0,0,0-.23-4,9.32,9.32,0,0,0-1.89-2.15c-1.13-1-2.28-2.1-1.84-3.79a14.47,14.47,0,0,1-1.31-2.2c-0.81-1.65-1-2.93-.56-3.92a4.13,4.13,0,0,1,2.87-2,0.41,0.41,0,1,1,.23.79,3.4,3.4,0,0,0-2.35,1.59c-0.33.75-.15,1.81,0.55,3.22a14.88,14.88,0,0,0,.94,1.65,7.5,7.5,0,0,1,.79-1.16,0.42,0.42,0,0,1,.39-0.15,3.43,3.43,0,0,1,2.4,2.38,1.32,1.32,0,0,1-1,1.38,2.08,2.08,0,0,1-2.18-.69c0.07,0.87.78,1.53,1.66,2.34a10.11,10.11,0,0,1,2.05,2.35,4.72,4.72,0,0,1,.23,4.79A4.56,4.56,0,0,1,186.72,202.09Zm0.36-12.59c0.64,0.76,1.24,1.11,1.7.93s0.51-.44.5-0.53a2.71,2.71,0,0,0-1.5-1.57A5.36,5.36,0,0,0,187.07,189.5Z" transform="translate(-19.08 -149.88)"/><path class="cls-5" d="M189.83,170.37a3,3,0,0,0-.25,1.36,10.13,10.13,0,0,0-.06,2.14,8.74,8.74,0,0,0,.9,2.8c0.38,0.91.83,2.68,0.06,3.53s-1.72-.2-2.15-0.73c-0.78-1-1.36-2-2.16-2.94s-2.56-1.37-2.85-2.64" transform="translate(-19.08 -149.88)"/><path class="cls-5" d="M172.2,164.31a9.27,9.27,0,0,0-.73,1.19,7.65,7.65,0,0,0-.54,1.39c-0.46,1.39.15,2.76,0.73,4.05,0.28,0.63.81,1.06,1.05,1.71,0.18,0.48.06,1,.24,1.46,0.49,1.31,1.85,1.07,2.85,1.36a4.62,4.62,0,0,1,1.1.87,8,8,0,0,0,1.91.64c1.5,0.38,2.33-.5,3.41-1.45,0.78-.69,1.09-1.67,2.17-2s2-.33,3-0.72c2-.77,2.72-2.78,3.87-4.34,0.41-.56.4-1.64,0.79-2.11s1.23-.23,1.63-1a6.17,6.17,0,0,0,.19-3.55c-0.54-1.83-1.28-4.23-2.6-5.65-0.89-1-2.31-1.22-3.38-1.91-1.3-.83-3.46-0.32-4.93-0.34a2.31,2.31,0,0,0-1.93,1c-0.63.79-.48,0.67-1.51,0.75a5.15,5.15,0,0,0-3.72,2.31c-1,1.27-2.36,1.49-3.21,2.81A4.18,4.18,0,0,0,172.2,164.31Z" transform="translate(-19.08 -149.88)"/><path class="cls-6" d="M177.28,161.56c1.5,0.39,2.77,2.75,3.78,4.17,0.45,0.63-.32,1.27-0.67,1.9A6.37,6.37,0,0,1,179,169.9c0.63-.63,2.45-3.57,3.61-3.32,0.93,0.2,1.15,2.23,2,2.63,0.06-.54-0.87-2.58-0.25-3.7,0.31-.56,1.57-0.84,2.24-1.07-0.64,0-2.17.65-2.67-.05a2.7,2.7,0,0,1-.27-1.46c0.06-.67,0-1.32.06-2-0.21.8-.54,3-1.43,3.34-1.1.42-2.22-1-3.55-2.14A3.58,3.58,0,0,0,177.28,161.56Z" transform="translate(-19.08 -149.88)"/><path class="cls-7" d="M145.64,175.49c-1.52,1.54-1.94,5.5-1.36,7.53,0.44,1.56,1.4,2.91,1.92,4.44a11.76,11.76,0,0,0,.61,2.22c0.3,0.51,1,.78,1.31,1.32,0.75,1.22.21,2.22,1.63,3.11s3.7,1,5.36,1.46a12.2,12.2,0,0,0,2.11.71c0.8,0,1.23-.56,2-0.61,1.52-.11,1.38.8,3,0.11,2.89-1.19,6.46-.83,6.69-4.64,0.11-1.84.19-.94,1.46-2.14,0.95-.89,1.38-2.79,1.84-4a10.33,10.33,0,0,0-.89-9.26c-0.16-.26-0.59-0.58-0.82-0.93-0.55-.85-0.36-1.56-1.28-2.42-1.48-1.38-2.94-2.94-4.83-3.67-3.41-1.31-8.06-1.63-11.09.63-1.41,1.05-3,1.16-4.4,2.19A9.92,9.92,0,0,0,145.64,175.49Z" transform="translate(-19.08 -149.88)"/><path class="cls-6" d="M156.21,181.53a5.37,5.37,0,0,0-1.44,1.36,18.6,18.6,0,0,1-1.81,1.37,15.07,15.07,0,0,0-2.74,2.27c1.29,0.33,2.87-1.16,4.07-1.59a5.29,5.29,0,0,1,3.13-.4c1.13,0.3,1.35,1.07,1.93,2,0.46,0.74,1.19,3.49,2,3.76,1-2.18-2.09-5-1-7.18,0.87,0.3,2.25-.4,3.15-0.19a17.85,17.85,0,0,0,2.89.3c-0.14-.93-2.68-1.35-3.49-1.66-0.65-.25-2.58-0.91-3-1.58-0.69-1.15.31-3.61,0.17-5-0.29,2-1,3.9-3.08,4.56-1.84.59-4.09-1.08-5.93-1.32C151.83,179.35,156.07,180.89,156.21,181.53Z" transform="translate(-19.08 -149.88)"/><path class="cls-2" d="M157.32,178.23c-1.7-.83-2-3-3-4.44a6.68,6.68,0,0,0-4.12-2.63c-3-.77-5,1.66-6.54,4-1.76,2.73.68,5.39,3.12,6.66a9.75,9.75,0,0,0,8.4-.21,0.29,0.29,0,0,0-.25-0.51,9.66,9.66,0,0,1-7.06.59,7.24,7.24,0,0,1-2.76-1.8,6.31,6.31,0,0,1-1-4.42,15.62,15.62,0,0,1,2.52-2.87c3.24-2.73,6.71.47,8.15,3.35a5.32,5.32,0,0,0,2.29,2.77c0.33,0.16.51-.38,0.18-0.54h0Z" transform="translate(-19.08 -149.88)"/><path class="cls-2" d="M143.45,177.47c-1.86-.15-1.89,2.73-1.92,4a16,16,0,0,0,2.48,8.07c1.33,2.36,3.88,2,6.09,1.11,2.38-1,6.31-3,6.35-6a0.29,0.29,0,0,0-.57,0c0,2.38-3.43,4.26-5.31,5.15a7.72,7.72,0,0,1-3.61,1c-2.48-.24-2.42-1.7-3.08-3.23-0.74-1.72-1.66-3-1.77-4.91-0.06-1-.27-4.73,1.3-4.6a0.29,0.29,0,0,0,0-.57h0Z" transform="translate(-19.08 -149.88)"/><path class="cls-2" d="M146.71,191.23c-1.31,1.75,0,3.21,1.7,4,1.35,0.63,2.88.7,4.26,1.28,1,0.43,2.21,1.35,3.38,1,2-.66,2.45-4.13,2.43-5.88,0-2.16-.5-5.54-2.1-7.14-0.26-.26-0.69.12-0.43,0.37,2.2,2.2,2.47,7.61,1.29,10.36-1.28,3-3.68.84-5.88,0.26-1.51-.4-6.18-1.23-4.18-3.91a0.29,0.29,0,0,0-.47-0.32h0Z" transform="translate(-19.08 -149.88)"/><path class="cls-2" d="M156.89,196.34c0.52,2.6,2.45,1.15,4,.37,2.25-1.11,5.66-.39,6.67-3.39,1.33-3.95-4.69-7.54-7-9.75-0.26-.25-0.7.12-0.43,0.37,2.1,2,4.7,3.65,6.24,6.17s0.4,4.75-2.54,5.32a13.7,13.7,0,0,0-2.51.42c-0.74.29-3.44,2.62-3.89,0.37a0.29,0.29,0,0,0-.56.12h0Z" transform="translate(-19.08 -149.88)"/><path class="cls-2" d="M166.49,189.87c3.1,2.52,4.42-.47,5-3.36,0.37-1.83,1.06-4,.8-5.87-0.23-1.67-1.5-4.3-3.49-3.86a0.29,0.29,0,0,0,.12.56c1.65-.37,2.62,2.36,2.77,3.39a7.77,7.77,0,0,1-.21,2.76c-0.13.7-.26,1.41-0.39,2.11-0.42,2.35-1.17,6.33-4.28,3.8-0.28-.23-0.6.24-0.32,0.47h0Z" transform="translate(-19.08 -149.88)"/><path class="cls-2" d="M161.06,180.66a9.86,9.86,0,0,0,3.88-1.4c1.15-.58,3.31-1.13,4.15-2,1.7-1.83,0-4.18-1.63-5.39-2.61-1.91-8.1-4.72-11.49-3.93-2,.46-5.79,1.33-6.13,3.7-0.05.36,0.52,0.39,0.57,0,0.16-1.15,3.47-2.41,4.69-2.72,3.68-.93,7,0.74,10.17,2.4,2.49,1.31,5.43,4,1.65,6.36-1.49.92-4.15,2.34-5.83,2.43-0.36,0-.4.59,0,0.57h0Z" transform="translate(-19.08 -149.88)"/><path class="cls-2" d="M155.68,181.16c-0.54-.4-4.5-2.55-4.53-3a20.58,20.58,0,0,0,3.34,1.19c0.81,0.28,1.95,1,2.83.59,1.09-.46,1.65-2.16,2.11-3.14,0.21-.45.75-2.42,1.07-2.51-0.66.19-.82,2-0.91,2.45-0.82,4.33,1.46,4.42,5.07,5.78q1.16,0.47,2.34.88l0.66-.26c-0.69-.45-2.6-0.42-3.42-0.53s-3.28-.6-4.15.08c-1.5,1.16.15,4.23,0.58,5.56,0.14,0.41.54,2.23,0.76,1.93s-1.49-3.12-1.63-3.37c-0.57-1-1.31-2.58-2.54-2.87a4.27,4.27,0,0,0-2.57.77c-1,.51-2,1.16-3,1.63s-2.11,1.06-1.57.1c1-1.72,5.67-2.72,5.69-5a0.29,0.29,0,0,0-.57,0c0,1.87-5.4,4.18-6.55,5.72a0.29,0.29,0,0,0,.22.44c1.85,0.09,3.35-.83,4.93-1.69,1.81-1,3.31-1.42,4.84.33,1.26,1.45,1.92,3.68,2.8,5.37,0.12,0.23.56,0.19,0.54-.11-0.14-2.19-1.58-4.13-1.74-6.28-0.28-3.67,5.63-1.58,8-1.37a0.29,0.29,0,0,0,.11-0.55c-2.39-.7-6.17-1.52-7.61-3.52s-0.15-3.91.07-6.17a0.29,0.29,0,0,0-.55-0.11c-0.77,1.82-1.44,5-3.36,5.63-1.76.6-4.61-1.12-6.36-1.65-0.25-.07-0.53.26-0.31,0.46a61.11,61.11,0,0,0,5.14,3.76A0.29,0.29,0,0,0,155.68,181.16Z" transform="translate(-19.08 -149.88)"/><path class="cls-2" d="M180,166.48c-1.58,0-2.89-1.38-4.58-1.4-1.37,0-3.58-.83-4.89,0-1.14.7-1.53,2.62-1.57,3.85a4.72,4.72,0,0,0,.37,2c0.48,1.18.87,2.28,1.25,3.48a2.62,2.62,0,0,0,4.57.95,10.71,10.71,0,0,0,1.43-3.85,4.87,4.87,0,0,1,1.93-3.07,8,8,0,0,0,1.71-1.5c0.23-.29-0.25-0.61-0.47-0.32-0.76,1-1.88,1.27-2.66,2.16a6.12,6.12,0,0,0-1,2.54,15.28,15.28,0,0,1-.89,2.9c-1.2,2.44-3.42,1.67-4.18-.92-0.42-1.45-1.48-2.8-1.44-4.36a5.54,5.54,0,0,1,.53-2.29c1-1.82,2.13-1.3,3.55-1.09s2.74,0,4.19.71a4.82,4.82,0,0,0,2.18.79C180.3,167,180.34,166.47,180,166.48Z" transform="translate(-19.08 -149.88)"/><path class="cls-2" d="M173.94,176.21c2.35,1.86,4.23,2.69,6.77.71a3.49,3.49,0,0,0,1.66-2.7,10.18,10.18,0,0,0-.46-2.36,11.55,11.55,0,0,1-.14-3.44,0.29,0.29,0,0,0-.57,0,12.37,12.37,0,0,0,0,2.75c0.2,1.38,1.08,3,.22,4.32a5.35,5.35,0,0,1-3.63,2.19c-1.31,0-2.55-1.14-3.52-1.91-0.29-.23-0.6.25-0.32,0.47h0Z" transform="translate(-19.08 -149.88)"/><path class="cls-2" d="M182.13,174.73c0.89-.48,1.63-0.19,2.53-0.33a9.43,9.43,0,0,0,1.94-.68,4.62,4.62,0,0,0,2.27-2.39c0.87-1.65,3.8-3.87.75-5.18-0.34-.14-0.52.4-0.18,0.54,2.42,1-.16,2.77-0.71,3.66-0.89,1.42-1,2.25-2.76,2.94-1.37.55-2.78,0.22-4.08,0.93a0.29,0.29,0,0,0,.25.51h0Z" transform="translate(-19.08 -149.88)"/><path class="cls-2" d="M183.53,167.32v0.19a0.29,0.29,0,0,0,.41.27c1.39-.56,2.56-1.44,4.11-1.35,1.14,0.07,2.12,1,3.3.85a2.39,2.39,0,0,0,1.91-2.2,4,4,0,0,0-.34-1.86c-0.54-1.42-.93-2.95-1.51-4.34-0.71-1.71-2.21-2.37-3.78-3.12-0.33-.16-0.51.38-0.18,0.54,1.36,0.65,2.45,1.12,3.17,2.5a15.36,15.36,0,0,1,.9,2.59c0.61,1.88,2.84,5.94-1.82,4.85-1-.23-1.55-0.65-2.62-0.43-0.66.14-3,.91-3,1.54,0-.36-0.57-0.4-0.57,0h0Z" transform="translate(-19.08 -149.88)"/><path class="cls-2" d="M183.74,165a13,13,0,0,1,1.92-3.78,11.13,11.13,0,0,0,1.84-2.71,2.85,2.85,0,0,0-1-3.68,4.65,4.65,0,0,0-2.2-.32,16.67,16.67,0,0,0-3.3-.27,2.55,2.55,0,0,0-2.39,2.11,0.29,0.29,0,0,0,.54.18c0.61-1.73,2-1.87,3.66-1.65,2,0.26,4.83,0,4.29,3-0.28,1.51-1.64,2.58-2.45,3.81a13.85,13.85,0,0,0-1.43,3.16,0.29,0.29,0,0,0,.54.18h0Z" transform="translate(-19.08 -149.88)"/><path class="cls-2" d="M182.12,164.39c-0.39-2.59-.07-4.91-1.81-7.13a3.33,3.33,0,0,0-4.62-.75c-1.19.77-1.53,2.19-2.71,3-0.8.56-1.76,0.73-2.41,1.53a3.53,3.53,0,0,0-.08,4.32c0.22,0.29.65-.08,0.43-0.37-1.91-2.51.66-3.89,2.31-5,1-.68,1.44-1.76,2.35-2.58,2.71-2.43,5.13.63,5.66,3.28,0.25,1.23.12,2.52,0.31,3.77,0.05,0.36.61,0.25,0.56-.12h0Z" transform="translate(-19.08 -149.88)"/><path class="cls-2" d="M180.21,166.15a11.51,11.51,0,0,0-3.75-4.66,0.29,0.29,0,0,0-.37.42c1.16,1.11,3.26,3.3,5,3.32,2.21,0,2.47-4.29,2.86-5.77a0.29,0.29,0,0,0-.54-0.18c-0.51,1.47-1.47,4.7-.08,6,1.23,1.16,3.33-.28,4.67-0.41l-0.18-.53c-1.39.57-3.74,1.26-4.36,2.83-0.53,1.37.41,3,1,4.15l0.51-.25c-0.67-1.15-1.38-3.13-3-3.13s-3.27,1.77-4.24,2.9l0.51,0.25c0.42-1.07,2.88-3.72,1.95-5-0.22-.3-0.64.08-0.43,0.37,0.5,0.69-1.72,3.59-2.06,4.44-0.13.32,0.31,0.48,0.51,0.25,0.67-.77,1.93-2.27,3-2.42,2-.28,2.54,1.37,3.24,2.58a0.29,0.29,0,0,0,.51-0.25c-0.85-1.71-1.65-3.34.24-4.84a11.79,11.79,0,0,1,2.87-1.38c0.32-.13.11-0.56-0.18-0.53-1.43.14-2.16,0.9-3.55,0.2s-1.12-1.17-1-2.5a11,11,0,0,1,.61-2.56l-0.54-.18c-0.48,1.83-.81,5.95-3.42,4.89a12.59,12.59,0,0,1-3.45-2.63l-0.37.42a10.9,10.9,0,0,1,3.56,4.44C179.83,166.75,180.34,166.49,180.21,166.15Z" transform="translate(-19.08 -149.88)"/><path class="cls-2" d="M181.87,175.67c2.81,0.26,2.9,2.89,4.44,4.63,0.72,0.81,2,1.86,3.13,1.11s0.83-2.23.61-3.24a17.22,17.22,0,0,0-.8-2.33,20.24,20.24,0,0,1-.7-3.92,0.29,0.29,0,0,0-.56.12,22.57,22.57,0,0,0,1,4.63,9.64,9.64,0,0,1,.6,2,2.93,2.93,0,0,1,0,1.59c-0.47.93-.61,1.34-1.88,0.49a4.06,4.06,0,0,1-.78-0.67c-1.84-1.92-1.85-4.69-5-5a0.29,0.29,0,0,0,0,.57h0Z" transform="translate(-19.08 -149.88)"/><path class="cls-1" d="M468.75,197.87c-2.18-1-2.4-2.5-1-4.22,1.53-1.91,4.07-1.94,6.17-.91,2.49,1.23,3.06,3.55,4.57,5.59a41.23,41.23,0,0,1,2.64,3.46,4.7,4.7,0,0,1-1.8.1,7.81,7.81,0,0,0-2.78,1.18c-1.7.9-4.18,1.91-6.12,1.77s-4.56-1.3-4.94-3.34C465,199.23,467.91,198,468.75,197.87Z" transform="translate(-19.08 -149.88)"/><path class="cls-1" d="M439.67,181.53l0,0.06c1.62,2,5.44,1.63,8.17,1.15a0.41,0.41,0,0,0-.14-0.81c-1.46.25-5.89,1-7.39-.85A0.41,0.41,0,0,0,439.67,181.53Z" transform="translate(-19.08 -149.88)"/><path class="cls-1" d="M459.91,203.29a0.41,0.41,0,0,0,.76-0.09c0.32-1.28,3.35-4.59,5.83-5.11a1.88,1.88,0,0,1,2,.64,0.41,0.41,0,0,0,.65-0.51,2.7,2.7,0,0,0-2.86-.94c-2.68.57-6,4-6.45,5.72A0.41,0.41,0,0,0,459.91,203.29Z" transform="translate(-19.08 -149.88)"/><path class="cls-1" d="M432.57,178.11a0.41,0.41,0,0,0,.29.21c5.49,1.05,12,7.61,13.67,12.34a91.22,91.22,0,0,0,5.19,11.79h0a0.41,0.41,0,1,0,.73-0.39,90.61,90.61,0,0,1-5.14-11.69c-1.78-4.93-8.55-11.76-14.29-12.86A0.41,0.41,0,0,0,432.57,178.11Z" transform="translate(-19.08 -149.88)"/><path class="cls-1" d="M441.31,201.71c3.75-1.81,2.57-5.55-1.09-6.83s-6.91,1.09-10.83.3a35,35,0,0,1,3.7,4.43c1.16,1.63,2.23,3.57,3.75,4.88,1.26,1.08,3.34,2.16,4.92.86C442.83,204.47,442.17,202.09,441.31,201.71Z" transform="translate(-19.08 -149.88)"/><path class="cls-1" d="M441,201.15a0.41,0.41,0,0,0,.32.22c3.11,0.31,5.82-.41,7.24-1.94a3.62,3.62,0,0,0,1-3.18,0.41,0.41,0,1,0-.81.14,2.79,2.79,0,0,1-.75,2.48c-1.23,1.32-3.75,2-6.56,1.69A0.41,0.41,0,0,0,441,201.15Z" transform="translate(-19.08 -149.88)"/><path class="cls-1" d="M426.4,191.12a4.72,4.72,0,0,1,4.33-2.06,10.11,10.11,0,0,1,3,.7c1.14,0.4,2.05.72,2.85,0.36a2.08,2.08,0,0,1-1.64-1.6,1.32,1.32,0,0,1,.73-1.56,3.43,3.43,0,0,1,3.23,1,0.42,0.42,0,0,1,.06.42,7.51,7.51,0,0,1-.66,1.24,14.89,14.89,0,0,0,1.9,0c1.58-.05,2.59-0.39,3.1-1a3.4,3.4,0,0,0,.29-2.82,0.41,0.41,0,0,1,.81-0.16,4.13,4.13,0,0,1-.45,3.5c-0.67.85-1.89,1.29-3.72,1.35a14.46,14.46,0,0,1-2.56-.12c-1.28,1.18-2.77.67-4.21,0.16a9.32,9.32,0,0,0-2.79-.66,3.92,3.92,0,0,0-3.61,1.66,3.76,3.76,0,0,0,.12,3.8v0a0.41,0.41,0,0,1-.17.56,0.43,0.43,0,0,1-.57-0.19A4.56,4.56,0,0,1,426.4,191.12Zm11.73-2.8a2.71,2.71,0,0,0-2.09-.58c-0.08,0-.31.13-0.23,0.7s0.65,0.85,1.63,1.06A5.36,5.36,0,0,0,438.12,188.32Z" transform="translate(-19.08 -149.88)"/><path class="cls-5" d="M453,178.05a3,3,0,0,1-1.08.86,10.14,10.14,0,0,1-1.86,1.06,8.74,8.74,0,0,1-2.89.53c-1,.1-2.75.53-3.14,1.61s1,1.42,1.66,1.55c1.21,0.24,2.41.25,3.61,0.51s2.42,1.61,3.68,1.27" transform="translate(-19.08 -149.88)"/><path class="cls-5" d="M466.65,190.75a9.27,9.27,0,0,1-.71,1.21,7.65,7.65,0,0,1-1,1.14c-1,1.06-2.51,1.17-3.92,1.26-0.69,0-1.32-.22-2-0.12-0.51.07-.9,0.42-1.4,0.48-1.39.18-1.81-1.13-2.54-1.87a4.63,4.63,0,0,0-1.28-.57,8,8,0,0,1-1.47-1.38c-1-1.15-.65-2.29-0.33-3.69,0.24-1,1-1.75.73-2.85s-0.67-2-.8-3c-0.25-2.1,1.17-3.71,2-5.46,0.3-.63,1.26-1.12,1.49-1.69s-0.37-1.19.09-1.89a6.17,6.17,0,0,1,3-1.84c1.87-.38,4.34-0.86,6.21-0.37,1.26,0.33,2.17,1.46,3.28,2.08,1.35,0.76,1.91,2.9,2.62,4.19a2.31,2.31,0,0,1,0,2.2c-0.4.93-.36,0.73,0.06,1.69a5.15,5.15,0,0,1-.28,4.37c-0.65,1.47-.2,2.79-1,4.16A4.18,4.18,0,0,1,466.65,190.75Z" transform="translate(-19.08 -149.88)"/><path class="cls-6" d="M466.68,185c-1.05-1.14-3.73-1.15-5.45-1.37-0.77-.1-1,0.88-1.36,1.48a6.37,6.37,0,0,0-1.36,2.28c0.26-.85,2-3.84,1.23-4.75-0.61-.73-2.51,0-3.27-0.54,0.45-.31,2.69-0.45,3.39-1.52,0.35-.54,0-1.79-0.11-2.48,0.34,0.54.45,2.22,1.3,2.33a2.7,2.7,0,0,0,1.42-.45c0.56-.36,1.19-0.59,1.72-1-0.61.56-2.4,1.89-2.28,2.83,0.15,1.17,1.89,1.5,3.56,2.13A3.58,3.58,0,0,1,466.68,185Z" transform="translate(-19.08 -149.88)"/><path class="cls-7" d="M469.3,219.44c-0.64,2.07-3.94,4.3-6,4.75-1.58.34-3.23,0.13-4.82,0.4a11.76,11.76,0,0,1-2.24.51c-0.59,0-1.15-.49-1.78-0.53-1.43-.09-2.05.86-3.51,0s-2.66-2.77-3.82-4a12.19,12.19,0,0,1-1.62-1.52c-0.4-.69-0.09-1.35-0.38-2-0.62-1.39-1.36-.84-1.54-2.63-0.31-3.11-2.31-6.09.94-8.08,1.57-1,.74-0.62,1.2-2.29,0.34-1.26,1.81-2.53,2.64-3.5a10.33,10.33,0,0,1,8.59-3.58c0.3,0,.79.25,1.2,0.28,1,0.08,1.55-.41,2.74,0,1.92,0.65,4,1.21,5.51,2.53,2.76,2.39,5.23,6.34,4.67,10.08-0.26,1.74.4,3.21,0.14,4.91A9.92,9.92,0,0,1,469.3,219.44Z" transform="translate(-19.08 -149.88)"/><path class="cls-6" d="M459,213a5.37,5.37,0,0,1-.52,1.91,18.61,18.61,0,0,0-.36,2.24,15.07,15.07,0,0,1-.71,3.49c-0.9-1-.33-3.08-0.51-4.34a5.29,5.29,0,0,0-1.12-2.95c-0.8-.85-1.58-0.69-2.68-0.75-0.87-.05-3.64.59-4.27,0,1.45-1.91,5.39-.51,6.78-2.53-0.68-.63-0.71-2.17-1.32-2.87a17.84,17.84,0,0,1-1.63-2.41c0.89-.31,2.45,1.73,3.11,2.3s2,1.85,2.8,1.89c1.34,0.07,3-2,4.3-2.49-1.61,1.19-3,2.74-2.57,4.87,0.35,1.9,2.88,3.1,4,4.6C463,215.8,459.63,212.79,459,213Z" transform="translate(-19.08 -149.88)"/><path class="cls-2" d="M461.39,210.43c1.54,1.11,3.58.33,5.31,0.52a6.68,6.68,0,0,1,4.26,2.4c2.09,2.27.89,5.2-.49,7.67-1.57,2.84-5.08,1.94-7.35.39a9.75,9.75,0,0,1-3.77-7.51,0.29,0.29,0,0,1,.57,0,9.66,9.66,0,0,0,2.8,6.51,7.24,7.24,0,0,0,2.89,1.58,6.31,6.31,0,0,0,4.36-1.22,15.63,15.63,0,0,0,1.35-3.58c0.88-4.14-3.57-5.7-6.8-5.61a5.32,5.32,0,0,1-3.52-.72c-0.3-.21.1-0.63,0.39-0.42h0Z" transform="translate(-19.08 -149.88)"/><path class="cls-2" d="M468.58,222.31c1,1.57-1.52,3-2.61,3.57a16,16,0,0,1-8.28,1.62c-2.71-.06-3.62-2.47-3.85-4.85-0.25-2.56-.3-7,2.27-8.41a0.29,0.29,0,0,1,.3.49c-2.09,1.15-2.14,5-2,7.11a7.72,7.72,0,0,0,.82,3.65c1.38,2.07,2.64,1.34,4.3,1.19,1.87-.16,3.44,0,5.17-0.75,0.87-.4,4.3-2,3.45-3.31a0.29,0.29,0,0,1,.49-0.3h0Z" transform="translate(-19.08 -149.88)"/><path class="cls-2" d="M454.91,225.91c-0.93,2-2.83,1.52-4.34.39-1.2-.9-2-2.21-3.14-3.15-0.87-.7-2.24-1.32-2.44-2.53-0.35-2.06,2.49-4.1,4-4.92,1.91-1,5.12-2.17,7.29-1.51,0.35,0.11.22,0.66-.13,0.56-3-.91-7.88,1.4-9.75,3.74-2,2.55,1,3.65,2.54,5.31,1.07,1.14,4,4.88,5.42,1.85a0.29,0.29,0,0,1,.5.27h0Z" transform="translate(-19.08 -149.88)"/><path class="cls-2" d="M445.61,219.34c-2.54.77-2.17-1.62-2.23-3.39-0.08-2.51-2.33-5.17-.15-7.48,2.86-3,8.86.59,11.91,1.59,0.35,0.11.22,0.67-.13,0.56-2.75-.9-5.44-2.43-8.38-2.59s-4.38,1.88-3.5,4.75a13.71,13.71,0,0,1,.81,2.41c0.09,0.79-.69,4.27,1.51,3.6a0.29,0.29,0,0,1,.16.55h0Z" transform="translate(-19.08 -149.88)"/><path class="cls-2" d="M446.8,207.82c-3.69-1.54-1.67-4.12.61-6,1.44-1.19,3-2.82,4.8-3.47,1.58-.58,4.5-0.7,5,1.26a0.29,0.29,0,0,1-.55.16c-0.45-1.63-3.32-1.2-4.29-.85a7.77,7.77,0,0,0-2.33,1.49l-1.68,1.34c-1.87,1.48-5,4-1.34,5.56,0.34,0.14.07,0.64-.27,0.5h0Z" transform="translate(-19.08 -149.88)"/><path class="cls-2" d="M457.47,208.27a9.86,9.86,0,0,1-.59-4.08c0-1.29-.56-3.45-0.16-4.62,0.81-2.36,3.67-2,5.52-1.1,2.92,1.4,8,4.93,8.88,8.28,0.52,2,1.55,5.74-.38,7.15-0.3.22-.59-0.27-0.3-0.49,0.93-.68.49-4.2,0.19-5.42-0.91-3.68-4-5.83-6.9-7.84-2.33-1.58-6.1-2.9-6.38,1.54-0.11,1.75-.11,4.77.61,6.29,0.15,0.33-.33.63-0.49,0.3h0Z" transform="translate(-19.08 -149.88)"/><path class="cls-2" d="M459.57,213.25c0.6,0.29,4.37,2.77,4.75,2.6a20.58,20.58,0,0,1-2.63-2.39c-0.62-.58-1.76-1.27-1.85-2.22-0.11-1.18,1.13-2.47,1.78-3.34,0.3-.39,1.78-1.8,1.71-2.13,0.14,0.67-1.34,1.64-1.73,2-3.43,2.76-4.59.79-7.49-1.75q-1-.8-1.88-1.65l-0.08-.71c0.72,0.4,1.6,2.1,2.08,2.77s2.07,2.61,1.89,3.7c-0.31,1.87-3.81,1.86-5.17,2.1-0.43.07-2.23,0.57-2.06,0.24s3.46-.16,3.74-0.15c1.14,0,2.89-.06,3.73.89a4.27,4.27,0,0,1,.53,2.63c0,1.14-.1,2.28,0,3.41s0.06,2.36.65,1.43c1.06-1.66-.27-6.29,1.77-7.4a0.29,0.29,0,0,1,.3.49c-1.64.9-1.15,6.73-2,8.47a0.29,0.29,0,0,1-.5,0c-1-1.59-.85-3.34-0.84-5.15,0-2.05-.31-3.59-2.57-4.11-1.87-.43-4.15,0-6.06.06-0.26,0-.43-0.4-0.16-0.53,2-.91,4.39-0.55,6.36-1.42,3.37-1.48-1.26-5.71-2.54-7.68a0.29,0.29,0,0,1,.44-0.36c1.75,1.78,4.24,4.73,6.69,5.05s3.52-1.71,5.41-3a0.29,0.29,0,0,1,.36.44c-1.25,1.54-3.71,3.61-3.38,5.61,0.3,1.84,3.16,3.54,4.45,4.84,0.18,0.18,0,.59-0.26.49a61.08,61.08,0,0,1-5.74-2.76A0.29,0.29,0,0,1,459.57,213.25Z" transform="translate(-19.08 -149.88)"/><path class="cls-2" d="M461.08,184.91c0.71,1.41,2.58,1.9,3.39,3.38,0.66,1.2,2.42,2.77,2.33,4.3-0.08,1.34-1.59,2.58-2.65,3.2a4.72,4.72,0,0,1-1.95.62c-1.27.13-2.42,0.3-3.66,0.53a2.62,2.62,0,0,1-3-3.59,10.71,10.71,0,0,1,2.72-3.07,4.87,4.87,0,0,0,1.8-3.14,8,8,0,0,1,.51-2.22c0.15-.34.65-0.07,0.5,0.27-0.5,1.13-.24,2.26-0.65,3.36a6.12,6.12,0,0,1-1.75,2.12,15.28,15.28,0,0,0-2.14,2.15c-1.59,2.21.14,3.8,2.78,3.25,1.47-.31,3.17,0,4.53-0.78a5.54,5.54,0,0,0,1.77-1.54c1.11-1.77.14-2.49-.71-3.64s-1.29-2.42-2.6-3.36a4.82,4.82,0,0,1-1.72-1.56C460.43,184.88,460.91,184.58,461.08,184.91Z" transform="translate(-19.08 -149.88)"/><path class="cls-2" d="M455.34,194.82c-2.74-1.19-4.37-2.46-3.82-5.64a3.49,3.49,0,0,1,1.6-2.73,10.19,10.19,0,0,1,2.29-.71,11.55,11.55,0,0,0,3.1-1.49,0.29,0.29,0,0,1,.3.49,12.36,12.36,0,0,1-2.42,1.3c-1.31.47-3.11,0.44-3.92,1.84a5.35,5.35,0,0,0-.22,4.23c0.63,1.15,2.21,1.71,3.35,2.21,0.34,0.15.07,0.65-.27,0.5h0Z" transform="translate(-19.08 -149.88)"/><path class="cls-2" d="M452.78,186.89c0-1-.6-1.53-0.9-2.39a9.43,9.43,0,0,1-.32-2,4.62,4.62,0,0,1,1-3.13c1-1.54,1.63-5.18,4.22-3.1,0.29,0.23-.11.64-0.39,0.42-2-1.65-2.37,1.45-2.89,2.35-0.83,1.45-1.49,2-1.29,3.82,0.16,1.47,1.11,2.55,1.1,4a0.29,0.29,0,0,1-.57,0h0Z" transform="translate(-19.08 -149.88)"/><path class="cls-2" d="M458.66,182.17l-0.17.09a0.29,0.29,0,0,1-.43-0.24c-0.16-1.49.07-2.93-.75-4.26-0.6-1-1.91-1.39-2.31-2.51a2.39,2.39,0,0,1,1-2.72,4,4,0,0,1,1.8-.57c1.51-.2,3-0.57,4.54-0.72,1.84-.18,3.13.83,4.54,1.86,0.3,0.22-.1.63-0.39,0.42-1.22-.89-2.15-1.63-3.7-1.62a15.37,15.37,0,0,0-2.71.42c-1.95.35-6.58,0.29-3.42,3.89,0.67,0.76,1.31,1.06,1.61,2.11,0.19,0.64.6,3.07,0,3.36,0.32-.17.62,0.32,0.3,0.49h0Z" transform="translate(-19.08 -149.88)"/><path class="cls-2" d="M460.64,180.87a13,13,0,0,0,2.43-3.47,11.13,11.13,0,0,1,1.52-2.9,2.85,2.85,0,0,1,3.72-.85,4.65,4.65,0,0,1,1.32,1.79,16.66,16.66,0,0,1,1.79,2.79,2.55,2.55,0,0,1-.73,3.1,0.29,0.29,0,0,1-.41-0.39c1.24-1.35.73-2.61-.27-4-1.16-1.63-2.31-4.24-4.65-2.38-1.2,1-1.5,2.66-2.2,4a13.86,13.86,0,0,1-2.11,2.75,0.29,0.29,0,0,1-.42-0.39h0Z" transform="translate(-19.08 -149.88)"/><path class="cls-2" d="M461.9,182c2.46-.88,4.37-2.25,7.14-1.76a3.33,3.33,0,0,1,2.84,3.72c-0.12,1.41-1.22,2.38-1.39,3.81-0.12,1,.19,1.9-0.21,2.85a3.53,3.53,0,0,1-3.77,2.1c-0.36-.06-0.23-0.61.13-0.56,3.12,0.5,3.12-2.42,3.29-4.38,0.1-1.24.87-2.1,1.16-3.29,0.87-3.54-3-4.23-5.55-3.45-1.2.36-2.28,1.08-3.47,1.51-0.35.12-.51-0.42-0.16-0.55h0Z" transform="translate(-19.08 -149.88)"/><path class="cls-2" d="M461.25,184.55a11.51,11.51,0,0,1,5.88,1.11,0.29,0.29,0,0,1-.2.53c-1.52-.5-4.45-1.33-5.28-2.83-1.07-1.94,2.63-4.2,3.74-5.24a0.29,0.29,0,0,1,.42.39c-1.06,1.14-3.45,3.51-5.25,2.9-1.6-.54-1.32-3.07-1.84-4.31l0.56-.09c0.15,1.49.65,3.9-.44,5.17-1,1.12-2.82,1-4.13,1.08l0-.57c1.33,0,3.41-.25,4.16,1.15s0,3.72-.56,5.11l-0.46-.33c0.75-.88,1.93-4.29,3.49-4.07,0.36,0.05.23,0.61-.13,0.56-0.84-.12-2.36,3.21-2.95,3.91-0.23.27-.57-0.05-0.46-0.33,0.37-1,1.09-2.78.72-3.79-0.7-1.9-2.41-1.59-3.8-1.64a0.29,0.29,0,0,1,0-.57c1.91-.06,3.72-0.11,4.15-2.49a11.79,11.79,0,0,0-.13-3.18c0-.35.44-0.36,0.56-0.09,0.56,1.33.22,2.33,1.49,3.22s1.56,0.44,2.68-.29a11,11,0,0,0,2-1.75l0.42,0.39c-1.38,1.29-4.86,3.52-2.7,5.32a12.6,12.6,0,0,0,3.95,1.8l-0.2.53a10.9,10.9,0,0,0-5.59-1C460.9,185.16,460.89,184.59,461.25,184.55Z" transform="translate(-19.08 -149.88)"/><path class="cls-2" d="M452.07,187.57c-1.56-2.35-3.91-1.19-6.18-1.74-1.05-.25-2.59-0.9-2.45-2.23s1.58-1.78,2.57-2.07a17.22,17.22,0,0,1,2.43-.39,20.24,20.24,0,0,0,3.79-1.23,0.29,0.29,0,0,1,.16.55,22.58,22.58,0,0,1-4.55,1.32,9.64,9.64,0,0,0-2,.41,2.93,2.93,0,0,0-1.4.75c-0.6.85-.9,1.16,0.45,1.89a4.06,4.06,0,0,0,1,.37c2.56,0.72,5-.58,6.75,2.05a0.29,0.29,0,0,1-.49.3h0Z" transform="translate(-19.08 -149.88)"/></svg>