<svg id="Layer_1" data-name="Layer 1" xmlns="http://www.w3.org/2000/svg" viewBox="0 0 548.04 73.74"><defs><style>.cls-1{fill:#ed328b;}</style></defs><title>Vines_1</title><path class="cls-1" d="M271.66,47.9a3.94,3.94,0,0,1-1.17-2.37l-0.12.24c0.35,1.66-1.08,2.36-1.61,3.84-1.26,3.6,2.46,5.1,3.22,8.12,1.49-2.18,3.57-5.19,1.87-7.74A12.09,12.09,0,0,0,271.66,47.9Z" transform="translate(0)"/><path class="cls-1" d="M546.94,39.86l-1.6,0c-1,0-2.4-.09-4.55-0.25-2.62-.21-5.94-0.59-9.8-1.12,0-.16-0.05-0.33-0.09-0.49a12.19,12.19,0,0,0-.65-1.9c0.36,0.17.73,0.35,1.14,0.5a13.07,13.07,0,0,0,10.68-.69,9.47,9.47,0,0,0,3.17-2.66,7.43,7.43,0,0,0,.62-7.85,6.45,6.45,0,0,0-2.63-2.73,5,5,0,0,0-3.43-.34,5.24,5.24,0,0,0-3.89,3.16,3.16,3.16,0,0,0-.1,1.53,2.79,2.79,0,0,0,.13.52l0,0a0.42,0.42,0,0,0,.07.11,1.31,1.31,0,1,0,1.24-1.79,1.28,1.28,0,0,0-.57.13,2.25,2.25,0,0,1,.07-0.26,3.33,3.33,0,0,1,1.05-1.45A5.22,5.22,0,0,1,540,23.21a4,4,0,0,1,2.75.29,5.45,5.45,0,0,1,2.17,2.33,6.42,6.42,0,0,1,.66,3.39,6.29,6.29,0,0,1-1.27,3.31,8.31,8.31,0,0,1-2.81,2.29,12.39,12.39,0,0,1-3.4,1.14,11.77,11.77,0,0,1-8.52-1.77c-0.3-.2-0.58-0.41-0.82-0.61l0,0a12,12,0,0,0-3.63-3.29A9.45,9.45,0,0,0,520.42,29H520.3a9.48,9.48,0,0,0-3.39.65h0a15.17,15.17,0,0,0-2.41-3,10.2,10.2,0,0,0-1.5-1.23c-0.56-.37-1.08-0.69-1.59-1a24,24,0,0,0-7-2.69,19.33,19.33,0,0,0-7.45-.11,28.45,28.45,0,0,0-7,2.27c-1,.45-2,0.95-3.09,1.51a0.54,0.54,0,0,0-.21-0.05h-0.13a16.42,16.42,0,0,0-6.2,1.66,16.09,16.09,0,0,1-5.81,1.64h-0.11c-1.61,0-3.78-.67-4.6-2.56l-0.07-.2a8.58,8.58,0,0,0,2.56-1.35c0.89-.89,1.23-1.6,1.1-2.23a1.8,1.8,0,0,0-1.28-1.17,0.54,0.54,0,0,0-.19,0,3.23,3.23,0,0,0-2.69,1.56,4.35,4.35,0,0,0-.71,2.44,9,9,0,0,1-3.34,0,8.18,8.18,0,0,1-5.53-3.52,8.18,8.18,0,0,1-.85-6.49,8.18,8.18,0,0,1,4-5.21A0.54,0.54,0,0,0,463,9.21,0.55,0.55,0,0,0,462.29,9a9.26,9.26,0,0,0-4.52,5.89,9.26,9.26,0,0,0,1,7.35,9.25,9.25,0,0,0,6.25,4,10,10,0,0,0,3.69,0,3.64,3.64,0,0,0,.13.35,5.31,5.31,0,0,0,3.25,2.81c-3.48-.37-7-0.7-10.72-1-5.81-.4-11.26-0.59-16.68-0.59-5.83,0-11.56.26-17.14,0.72,6.18-.74,10.71-6.31,11.63-11-5,2.69-12.81,2.35-12.14,11-2.64.23-5.26,0.49-7.82,0.82l-1.51.21-0.17-.09,0,0c-4.2-2.7-8.09-3.7-12.07-3.05a5.3,5.3,0,0,0,1.36-2.14c0.47-1.41.71-5.17-.21-6.42l-0.1-.14-0.1.14a16.12,16.12,0,0,1-2,2.12,12.07,12.07,0,0,0-2.51,3,6.56,6.56,0,0,0-.34,4.6C398.14,29,395,31.5,392,33.89l-1.82,1.42-1.06.26c-5.11,1.26-10.38,2.56-15.69,3.66-1.83.38-3.61,0.71-5.37,1-2.71-.61-5.62-1.4-8.85-2.41,3.79-1.28,6.13-5.48,8.4-9.54l0,0c0.82-1.46,1.66-3,2.59-4.41l0.43-.66a10,10,0,0,1,4.52,2.34,12.88,12.88,0,0,1,1.13,1.26c1,1.24,2.31,2.78,3.74,2.78a2,2,0,0,0,.41,0,2,2,0,0,0,1.6-1.41,4.24,4.24,0,0,0-1-3.76c-1.54-1.64-3.94-2-6.07-2.24a15,15,0,0,0-3.74.12,27.3,27.3,0,0,1,13.57-10.68l0,0a8.57,8.57,0,0,1,2.72-.47,6.07,6.07,0,0,1,2.91.69,4.7,4.7,0,0,1,2.38,3.57,4,4,0,0,1-1.47,3.82,3.71,3.71,0,0,1-1.93.51,2.49,2.49,0,0,1-.92-0.15,1.36,1.36,0,0,1-.29-0.17,1.43,1.43,0,0,0,.9-1.21,1.46,1.46,0,0,0-1.38-1.53h-0.11a1.46,1.46,0,0,0-1.16.6l-0.05,0-0.05.11s0,0.07,0,.11,0,0.08,0,.12a2.2,2.2,0,0,0-.1.38v0s0,0,0,0a2.52,2.52,0,0,0,.14,1.24,3,3,0,0,0,1.64,1.7,4,4,0,0,0,1.5.26,5.14,5.14,0,0,0,2.76-.77,5.39,5.39,0,0,0,2.12-5.25,6.2,6.2,0,0,0-3.16-4.71,7.56,7.56,0,0,0-3.61-.87,10,10,0,0,0-3.22.55l-0.12,0h0c-1.15.45-2.24,0.95-3.31,1.5a7,7,0,0,0,1.36-3.74c0.1-1.88-.88-6.57-2.43-7.8L379.78,0l-0.06.16A20.79,20.79,0,0,1,378,3.44,15.45,15.45,0,0,0,376,8c-0.46,2.4.25,4.06,1.24,6a28.69,28.69,0,0,0-7.1,7.36c-0.28-2.23-.63-4.73-3.1-5.74a1.27,1.27,0,0,0-1.64.28,2,2,0,0,0-.1,1.78,5.57,5.57,0,0,0,2.07,2.4l0.26,0.21a12.05,12.05,0,0,1,2,1.86l-0.62,1c-1,1.52-1.87,3.13-2.66,4.54-2.74,4.91-5.11,9.16-9.63,9.16h0a8.32,8.32,0,0,1-1.11-.08c-2.28-.77-4.56-1.57-6.9-2.4L346,33.32a6.13,6.13,0,0,0,4.06-1.73c1-1.06,2.87-4.35,2.59-5.88l0-.17-0.15.08a16.18,16.18,0,0,1-2.68,1.06,12.08,12.08,0,0,0-3.55,1.6,6.74,6.74,0,0,0-2.37,4.28,117.36,117.36,0,0,0-18.58-5.11c1.87-1.11,3.87-2.41,3.83-5A1.21,1.21,0,0,0,328,21.06a2.18,2.18,0,0,0-1.42.64,5.54,5.54,0,0,0-1.38,2.84l-0.09.33a12.6,12.6,0,0,1-.87,2.42,56.24,56.24,0,0,0-8.52-.68,46.38,46.38,0,0,0-5.31.3,54.78,54.78,0,0,0-10.13,2.2,8.24,8.24,0,0,0,2.56-2.91c1.15-2.26,1.28-4.8,1.64-7.25-0.46.14-.94,0.27-1.39,0.44a10.58,10.58,0,0,0-5.41,3.86,6.49,6.49,0,0,0-1,3.69,18.62,18.62,0,0,0,.72,3.13,88.37,88.37,0,0,0-10.26,4.56l-1.47.09a123.5,123.5,0,0,0-13,1.81c-5.46,1-10.94,2.23-16.24,3.41-3,.66-6.07,1.35-9.1,2l-0.55.11c-0.34-.12-0.69-0.23-1-0.36a14.26,14.26,0,0,1-5.46-3.84,9.61,9.61,0,0,1-2.44-5.79,5.58,5.58,0,0,1,.62-2.84,7,7,0,0,1,1.9-2.12,6.1,6.1,0,0,1,4.83-1.42,3.53,3.53,0,0,1,2.87,2.64A2.77,2.77,0,0,1,247,31a1.84,1.84,0,0,1-.64.25,1.31,1.31,0,0,0,.15-0.58,1.34,1.34,0,0,0-2.67,0,1.31,1.31,0,0,0,.14.58h0a1.91,1.91,0,0,0,.77.84,2.45,2.45,0,0,0,1.27.33,3,3,0,0,0,1.59-.48,3.85,3.85,0,0,0,1.62-3.82,4.64,4.64,0,0,0-3.75-3.57,7.23,7.23,0,0,0-5.79,1.63,8.11,8.11,0,0,0-2.22,2.49,6.78,6.78,0,0,0-.76,3.43,10.84,10.84,0,0,0,2.71,6.53,15.25,15.25,0,0,0,5.22,3.86c-3.21.64-6.53,1.24-9.79,1.61l-2,.17a33.87,33.87,0,0,1-6.95-3.6C215,33.18,203.7,17.07,188.6,25a0.09,0.09,0,0,0,0-.08c-0.8-1.92-1.36-3.65-3.07-5s-3.92-1.9-6-2.62c0,0.42.08,0.85,0.15,1.27a9.28,9.28,0,0,0,2.42,5.29,5.69,5.69,0,0,0,3,1.44,14.38,14.38,0,0,0,3.12-.17,18.22,18.22,0,0,0-8.8,11.52l-5.3-1.78-0.28-.09c-3.67-1.24-7.47-2.52-11.22-3.68-4.07-1.24-7.84-2.26-11.55-3.1-3.29-.77-6.65-1.38-10.06-1.84a4.59,4.59,0,0,0-.45-1.93,2.26,2.26,0,0,0-1.81-1.41A1.57,1.57,0,0,0,137.44,24a5.06,5.06,0,0,0-.36,1.68q-4.46-.44-9-0.53l-1.52,0c-1.65-.67-3.31-1.29-5-1.83a72.13,72.13,0,0,0-21.28-3c-0.07-1.93-.15-3.61-1.61-5.3a12.94,12.94,0,0,0-3.4-2.42,17.5,17.5,0,0,1-2.58-1.66l-0.13-.11-0.06.16c-0.61,1.54.64,5.36,1.5,6.68a6.47,6.47,0,0,0,3.88,2.64,166.45,166.45,0,0,0-16.63,1.13l-0.87.1a131,131,0,0,0-16.91,2.63,12.09,12.09,0,0,1-5.46-3,15.73,15.73,0,0,1-1.32-1.55c-1.21-1.55-2.72-3.47-4.48-3.47a2.43,2.43,0,0,0-.42,0,2.39,2.39,0,0,0-2,1.62,5.1,5.1,0,0,0,1,4.54c1.8,2,4.68,2.55,7.24,2.89,0.38,0,.79.09,1.23,0.11a48.29,48.29,0,0,0-11.16,5.31l-1.27.83a4.72,4.72,0,0,0,.25-2.53,10.16,10.16,0,0,0-1.29-3,13.77,13.77,0,0,1-1-2.16l-0.05-.16-0.14.1c-1,.78-1.77,3.87-1.74,5.11a4.2,4.2,0,0,0,.17,1.1,6,6,0,0,0-1.84-1A10.18,10.18,0,0,0,38,28.51h-2A12.93,12.93,0,0,1,34,28.39l-0.17,0,0,0.17c0.25,1.64,3.26,4.3,4.67,5a5.65,5.65,0,0,0,2.59.6,8.78,8.78,0,0,0,2.29-.33l0,0A91,91,0,0,1,33.22,40.1L33,40.23c-2.88.19-5.61,0.31-8.17,0.41-1.07,0-2.14,0-3.21,0v0a6.2,6.2,0,0,0,.52-1.05l0.09-.26a1.66,1.66,0,0,0,.05-0.16l0-.15a5.06,5.06,0,0,0,.13-0.61,6.64,6.64,0,0,0-.1-2.62A7.84,7.84,0,0,0,19,31a9.52,9.52,0,0,0-6.43-1,10,10,0,0,0-4.72,2.33l-0.3.28-0.15.14-0.07.07L7.2,33a8.92,8.92,0,0,0-.6.7,10.92,10.92,0,0,0-1.68,3.22,13,13,0,0,0-.63,3.16L4,40.09,2.79,40l-1.56-.12h0A1.12,1.12,0,1,0,1,42.1L2.63,42.2l1.23,0.08,0.52,0a9.26,9.26,0,0,0,.49,1.88A8.18,8.18,0,0,0,7,47.33,10.88,10.88,0,0,0,13.54,50a16.94,16.94,0,0,0,6.29-.86,41.87,41.87,0,0,0,5.09-2.09A49.51,49.51,0,0,0,32,43c0.41-.28.77-0.54,1.08-0.77,6.28-.43,12.67-1.11,19.09-2.07,8.24-1.21,17.29-3,26.87-5l7.92-1.6a249.69,249.69,0,0,1,25-3.85s0,0.1,0,.14a2.39,2.39,0,0,0,1.55,2,2.48,2.48,0,0,0,1,.19c1.55,0,3.15-1.3,4.57-2.45l0.5-.41c1.45-.05,2.91-0.09,4.38-0.09,0.59,0,1.18,0,1.77,0a13.92,13.92,0,0,0-4.7,4.44c-0.51.72-1,1.46-1.49,2.2-0.68,1-1.39,2.13-2.18,3.12a11.23,11.23,0,0,1-4.15,3.42,5.82,5.82,0,0,0-.59-5.69,4.74,4.74,0,0,0-3.1-1.75A3.84,3.84,0,0,0,105,38.56a4.86,4.86,0,0,0,1.23,3.66A6,6,0,0,0,110.73,44a9.19,9.19,0,0,1-3.07,2,11.87,11.87,0,0,1-4.69.94,28.88,28.88,0,0,1-3-.2,37.14,37.14,0,0,1-4.15-1,34.23,34.23,0,0,0-6.44-1.47H89.24a0.54,0.54,0,0,0-.5.58,0.53,0.53,0,0,0,.54.5h0c1-.09,3.79.73,6,1.38l0.19,0.05a35.68,35.68,0,0,0,4.33,1.08A30,30,0,0,0,103,48a13.11,13.11,0,0,0,5.11-1,9.59,9.59,0,0,0,4.27-3.19l0.42-.12a11.55,11.55,0,0,0,5.36-4c0.82-1,1.54-2.13,2.24-3.2,0.44-.68.94-1.44,1.46-2.16A12.66,12.66,0,0,1,126.32,30a7.91,7.91,0,0,1,2.76-.77l2.39,0.13c0.25,0,.5.11,0.75,0.18l2.26,1.07,0.25,0.16a0.51,0.51,0,0,0,.27.09l1.41,0.68c2.68,1.31,5.54,2.68,8.47,4a6.29,6.29,0,0,0-3.7,1.7,12.92,12.92,0,0,0-2.25,3.51,17.42,17.42,0,0,1-1.53,2.66l-0.1.14,0.16,0.06a2.63,2.63,0,0,0,.84.12,13,13,0,0,0,5.76-1.94,5.45,5.45,0,0,0,1.29-1.32,12.77,12.77,0,0,0,1.21,2.7,14.16,14.16,0,0,1,1.05,2.23l0.05,0.16,0.14-.1c1.08-.79,1.86-4,1.84-5.24a5.14,5.14,0,0,0-1.36-3.28c0.59,0.24,1.21.48,1.82,0.69,7,2.48,13.47,2.82,19.44,2.82,1.75,0,3.54,0,5.26-.06l3,0,1.06,0.34a17.51,17.51,0,0,0,1.32,7.44c-9.76,3.82-10.66,17-1.8,22.71h0l0.37,0.24c0.25,0.15.57,0.41,1.07,0.67a16.57,16.57,0,0,0,1.81.88,14.28,14.28,0,0,0,2.49.79c0.47,0.12,1,.16,1.49.25a15.34,15.34,0,0,0,1.62.07,11.7,11.7,0,0,0,3.49-.52,10.42,10.42,0,0,0,3.39-1.8A8.33,8.33,0,0,0,195.57,70l0.27-.37c0.09-.14.18-0.31,0.27-0.47a6.16,6.16,0,0,0,.45-1,9.17,9.17,0,0,0,.61-4,7.08,7.08,0,0,0-1.26-3.77,4.56,4.56,0,0,0-1.55-1.34,6.24,6.24,0,0,0-1-.32,7.06,7.06,0,0,0-.94-0.09,4.8,4.8,0,0,0-3.16,1.2,3.54,3.54,0,0,0-1.17,2.61,2.67,2.67,0,0,0,1,2,2.77,2.77,0,0,0,1.34.61,2.33,2.33,0,0,0,.55,0l-0.12-.87a1.28,1.28,0,0,1-.33,0,1.42,1.42,0,0,1-.89-0.42,1.76,1.76,0,0,1-.56-1.39,2.44,2.44,0,0,1,1-1.76,3.55,3.55,0,0,1,2.35-.64c0.24,0,.42.09,0.64,0.12a5.91,5.91,0,0,1,.58.24,3,3,0,0,1,.92.94,6,6,0,0,1,.83,2.91,8.85,8.85,0,0,1-.51,3.22,4.46,4.46,0,0,1-.31.71c-0.06.11-.1,0.21-0.17,0.33l-0.26.37a6.71,6.71,0,0,1-1.1,1.15,8.69,8.69,0,0,1-2.81,1.54,10.32,10.32,0,0,1-3,.59,14,14,0,0,1-1.45,0c-0.46-.06-0.92-0.07-1.35-0.16a16,16,0,0,1-2.33-.56,15.2,15.2,0,0,1-1.73-.67c-0.47-.19-0.85-0.42-1.1-0.54-7.17-5.26-6.9-16.87,1.86-20.35a16.3,16.3,0,0,0,3.7,4.4c2.69,2.25,8.22,2.91,8.42-2,0.17-4.18-5.39-5.46-8.57-5.21a16.65,16.65,0,0,0-2.33.36,17.11,17.11,0,0,1-1.42-6.16c5,1.54,10.41,3.09,15.87,4.25a124.12,124.12,0,0,0,12.6,2,119.74,119.74,0,0,0,12.23.61h0.72a125.2,125.2,0,0,0,12.87-.76c1-.13,2.09-0.28,3.13-0.44a57,57,0,0,0,32.83-2.36c0.68,0.61.86,1.62,1.6,2.39,2.42,2.46,5.12,0,7.87.64-1.17-2.08-2.78-5-5.52-4.61a4.8,4.8,0,0,0-.6.14,49,49,0,0,0,4.77-2.57,0.71,0.71,0,0,0,.33-0.09c1.58-.93,3.19-1.86,4.82-2.76l1.48-.14a48.52,48.52,0,0,1,6.27-.18c0.89,0,1.79.12,2.75,0.2L298.54,38c8.31,0.85,16.86,1.92,25.41,3.19,2.5,0.34,5,.74,7.45,1.12,1.67,0.26,3.4.53,5.11,0.79a108.94,108.94,0,0,0,12.66,1l1.91,0A125.82,125.82,0,0,0,371,42.38c1.12,0.2,2.24.38,3.37,0.52a15.65,15.65,0,0,0,4.67-.12c0.41,1.78,1.09,3.73,3,4.85A12.65,12.65,0,0,0,387.17,49a3,3,0,0,0,1.17-.19l0.16-.07-0.12-.13a16.17,16.17,0,0,1-1.65-2.37,12.12,12.12,0,0,0-2.37-3.09A5.52,5.52,0,0,0,381.95,42a25.64,25.64,0,0,0,5.23-2.68l3-.63c2.35-.5,4.79-1,7.16-1.49,3.62-.73,7.48-1.5,11.28-2.11l1.23-.2c1.44-.23,2.92-0.47,4.35-0.63,1.75-.23,3.63-0.47,5.48-0.64l2.56-.25c2,0.91,4,1.79,6.11,2.59a83.6,83.6,0,0,0,14.09,4.2,34.81,34.81,0,0,0,7.42.69,50.34,50.34,0,0,0,7.35-.86,52.85,52.85,0,0,0,7.14-1.91,64.73,64.73,0,0,0,6.79-2.85c0.93-.45,1.85-0.92,2.77-1.41,4.33,0.36,8.77.79,13.4,1.3a16.68,16.68,0,0,0,2,1.73,15.17,15.17,0,0,0,7.47,2.9l0.6,0.05c-0.13-1.1-.19-2.35-0.39-3.54,8.39,1.09,15.83,2.15,22.41,3.09l3.69,0.53c2.17,0.31,4.28.59,6.3,0.84a10.91,10.91,0,0,1-.12,1.85,13.68,13.68,0,0,1-3.82,7.52A9.65,9.65,0,0,1,522,52.4a7,7,0,0,1-2,.4,7.5,7.5,0,0,1-5.51-2.33,5.23,5.23,0,0,1-1.29-3.7A4.76,4.76,0,0,1,515,43.32a3.74,3.74,0,0,1,1.71-.87,3.08,3.08,0,0,1,1.84.25A2.55,2.55,0,0,1,519.81,44a2.49,2.49,0,0,1,.08,1.81,2,2,0,0,1-.48.77,2.13,2.13,0,0,1-.76.46,2.1,2.1,0,0,1-.46.1,1.21,1.21,0,0,0,0-.86,1.23,1.23,0,1,0-1.72,1.49l0.17,0.06a2.87,2.87,0,0,0,1.35.33A3.18,3.18,0,0,0,519,48a3,3,0,0,0,2-1.82,3.67,3.67,0,0,0,0-2.66,3.79,3.79,0,0,0-1.83-2,4.38,4.38,0,0,0-2.62-.41,5,5,0,0,0-2.36,1.12,6.62,6.62,0,0,0-1.64,1.95,6.24,6.24,0,0,0-.71,2.47,6.7,6.7,0,0,0,1.57,4.77,8.29,8.29,0,0,0,4.23,2.63,8.92,8.92,0,0,0,2.37.36H520a8.61,8.61,0,0,0,2.5-.44,11.1,11.1,0,0,0,4.17-2.62,15.37,15.37,0,0,0,4.36-8.52,12.59,12.59,0,0,0,.15-1.9c3.54,0.42,6.76.73,9.41,0.91,2.19,0.14,3.68.21,4.67,0.21l1.63,0A1.12,1.12,0,0,0,546.94,39.86Zm-76.8-16.58a2.21,2.21,0,0,1,1.69-1.07,0.77,0.77,0,0,1,.51.35s0.05,0.37-.75,1.19a7.27,7.27,0,0,1-2,1.06A3.28,3.28,0,0,1,470.14,23.28ZM8.3,35a6.81,6.81,0,0,1,.45-0.55l0,0h0l0.06-.06L9,34.22l0.29-.28a7.49,7.49,0,0,1,1.11-.85A8.29,8.29,0,0,1,13,32a7.76,7.76,0,0,1,5.18.5,6.31,6.31,0,0,1,2.8,3.67,5.73,5.73,0,0,1,.21,2.09,3.85,3.85,0,0,1-.07.49l0,0.12a0.65,0.65,0,0,1,0,.1L21,39.25a4.89,4.89,0,0,1-.35.84,5.12,5.12,0,0,1-.39.61h-0.8c-4,0-8-.13-12-0.39l-0.82,0A10,10,0,0,1,8.3,35ZM24.05,45.19A39.77,39.77,0,0,1,19.17,47a15.35,15.35,0,0,1-5.49.67,8.75,8.75,0,0,1-5.06-2.08,6.31,6.31,0,0,1-1.84-3.11l0.47,0c3,0.16,6.44.25,10.05,0.26a4.45,4.45,0,0,1-.86.14,3.14,3.14,0,0,1-.55,0H15.71l-0.11.65,0.22,0a3.77,3.77,0,0,0,.63.06,5.45,5.45,0,0,0,2.36-.48,6.51,6.51,0,0,0,.73-0.39q2.62,0,5.34-.07c1.56,0,3.14-.14,4.72-0.22C28.11,43.27,26.24,44.22,24.05,45.19Zm89.86-19.51-0.14.12c-2.41.25-4.9,0.57-7.52,1-7,1.13-13.68,2.62-19.91,4.06-7.49,1.77-13.08,3-18.11,4.14C62.81,36.14,57.29,37.18,51.81,38c-5,.79-9.89,1.41-14.56,1.85h0c2.37-1.41,4.76-3,7.07-4.6l0.81-.55c1.4-1,2.73-1.85,4-2.65a46.82,46.82,0,0,1,11.45-5.35c-2.34,1.92-4.41,4.12-3.91,7.44A1.77,1.77,0,0,0,58.3,36a3,3,0,0,0,2.15-1.21,8.15,8.15,0,0,0,1.44-4.4L62,29.89a18.25,18.25,0,0,1,.81-3.78,77.11,77.11,0,0,1,8.94-1.77c-2.1,1.66-4.37,3.56-3.9,6.67a1.48,1.48,0,0,0,1.38,1.5,2.46,2.46,0,0,0,1.78-1,6.7,6.7,0,0,0,1.18-3.62l0.05-.4A14.21,14.21,0,0,1,73,24.16c2.52-.34,5.22-0.64,7.59-0.91l0.87-.1c4-.45,7.46-0.75,10.74-0.93-1,.86-2.71,3.37-2.6,4.65V27L89.73,27a13.69,13.69,0,0,1,2.32-.66,10.17,10.17,0,0,0,3.11-1A5.56,5.56,0,0,0,97.47,22H99a75.14,75.14,0,0,1,19.72,2.31A8.27,8.27,0,0,0,113.91,25.68Zm-2,16.75c-0.07.12-.14,0.25-0.22,0.38a6.11,6.11,0,0,1-1.1.1A4.91,4.91,0,0,1,107,41.48a3.75,3.75,0,0,1-.94-2.84,2.92,2.92,0,0,1,1.07-2.13,2.81,2.81,0,0,1,1.74-.56l0.45,0a3.63,3.63,0,0,1,2.38,1.33A4.83,4.83,0,0,1,111.9,42.43ZM137.18,30l-0.2-.1,1.8,0.22c0.26,0.36.53,0.7,0.8,1Zm32.37,8.69c-5.81,0-12.12-.33-18.85-2.72a104.34,104.34,0,0,1-9.76-4.16,10,10,0,0,1-.09-1.4q4.63,0.69,9.35,1.74c7.25,1.63,14.46,3.91,22.43,6.51Zm13.94,10.55a13.53,13.53,0,0,1,2.93-.2c9,1.25,4.25,8-.22,3.71a15.59,15.59,0,0,1-3-3.45Zm39.84-4.53h-1.07A116.78,116.78,0,0,1,209.79,44a120.38,120.38,0,0,1-12.19-2.11c-5.44-1.22-10.75-2.8-16.3-4.61,0-.08,0-0.16,0-0.24,2.36-9.27,12.29-13.88,21.11-11.06,6.3,2,11.29,7.25,16.18,11.44a43.39,43.39,0,0,0,11.69,7.08C227.79,44.62,225.5,44.7,223.33,44.7Zm17.89,1.81c2.27-.42,4.54-0.89,6.83-1.39l3.67-.82,0.63,0.07c1,0.08,1.94.11,3,.11s2.38,0,3.87-.13a68.2,68.2,0,0,0,12-1.85c1.69-.42,3.35-0.9,5-1.44A59,59,0,0,1,241.22,46.5ZM279,38.69a67.8,67.8,0,0,1-8,2.55,67,67,0,0,1-11.78,1.85c-1,.06-1.89.1-2.72,0.12l0.76-.17c5.26-1.22,10.71-2.47,16.08-3.52,2.33-.45,4.45-0.82,6.43-1.12ZM349.19,42a83,83,0,0,1-12.39-.86c-3.83-.57-7.93-1.23-12.52-2l-3.21-.53c-7.24-1.2-14.73-2.45-22.23-3.32l-3.23-.36c-1.09-.12-2.17-0.23-3.28-0.29-0.53,0-1.06,0-1.61,0a62.79,62.79,0,0,1,19.85-6.13,44.8,44.8,0,0,1,5.1-.28,10.09,10.09,0,0,1,3.78,3.93,12.84,12.84,0,0,1,.63,1.57c0.6,1.67,1.34,3.75,3,4a2,2,0,0,0,2.09-.92,4.33,4.33,0,0,0,.28-3.71c-0.89-2.07-3-3.24-4.94-4.18a12.77,12.77,0,0,0-1.38-.57c9.92,0.66,19.64,4.1,29.05,7.43l2.4,0.84a15.81,15.81,0,0,0,4.68,1.61C358,39,361,40,364.17,40.85A109.18,109.18,0,0,1,349.19,42Zm27.14-.47h-0.21q2.91-.53,5.79-1.1A15.17,15.17,0,0,1,376.33,41.51Zm37.38-11.3-0.13,0c-1.48.22-3,.51-4.38,0.78l-1.24.24c-3.87.75-7.74,1.65-11.37,2.5l-2.87.69c4.48-3.52,8.79-6.7,14-6.7a15.5,15.5,0,0,1,7.62,2.2Zm56.92,3.89a59,59,0,0,1-13.69,4.35,58.61,58.61,0,0,1-7.12.82l-0.85,0a34.72,34.72,0,0,1-6.22-.66,81.77,81.77,0,0,1-13.84-4.07c-1.19-.45-2.38-0.93-3.57-1.43,5.9-.45,12-0.68,18.37-0.68,5.48,0,11.16.16,17.36,0.5,3.47,0.19,6.95.43,10.48,0.71Zm4.69-4.39a19.36,19.36,0,0,0,5.48-1.7,23.25,23.25,0,0,1,3.68-1.3l-1,.56-0.91.52c-1.35.77-2.71,1.54-4.09,2.3Zm38,5.46,0.09,0.11a2.77,2.77,0,0,0,.63.48l-3.56-.62c-4.4-.76-9-1.56-13.91-2.36l-1-.16a7.44,7.44,0,0,0-1.71-1.95c-2.67-2.08-7.08-2.29-9.89-1.34,0.12,0.35.05,1.13,0.21,1.48l0,0.06-4.06-.56,0.44-.26c1.11-.65,2.21-1.3,3.33-1.94,4.07-2.35,8.45-4.71,13.23-5.5a18.16,18.16,0,0,1,7,.27,22.77,22.77,0,0,1,6.53,2.71c0.47,0.28,1,.6,1.49,1a8.88,8.88,0,0,1,1.28,1.11,13.83,13.83,0,0,1,2,2.63l0,0a6.29,6.29,0,0,0-1.94,1.77,3.41,3.41,0,0,0-.58,1.39A2.4,2.4,0,0,0,513.35,35.16Zm1.65-.8h0a0.59,0.59,0,0,1-.25-0.16,1.17,1.17,0,0,1,.25-1.16,4.48,4.48,0,0,1,1.22-1.13,3,3,0,0,1-.21,1.3,2.38,2.38,0,0,1-.74,1.07A0.44,0.44,0,0,1,515,34.37Zm8.49,3c-2.53-.39-5.29-0.85-8.19-1.35a2,2,0,0,0,.83-0.34,3.83,3.83,0,0,0,1.32-1.87,4.38,4.38,0,0,0,.25-2.18c0-.13-0.05-0.27-0.09-0.4a7.88,7.88,0,0,1,2.71-.48h0a7.74,7.74,0,0,1,3.89,1.07,10.24,10.24,0,0,1,3.08,2.84c0.2,0.27.43,0.6,0.59,0.86l0.19,0.33a5.23,5.23,0,0,1,.34.64,9.48,9.48,0,0,1,.63,1.74Q526.41,37.79,523.48,37.32Z" transform="translate(0)"/><path class="cls-1" d="M476.87,43a7.27,7.27,0,0,0-4-1.4c-0.35,0-4.61.44-4.3,1,1.28,2.32,2.24,4.44,4.6,5.89s5.24,1.86,7.94,2.48c-0.11-.53-0.22-1.07-0.37-1.59C479.93,46.84,478.8,44.47,476.87,43Z" transform="translate(0)"/><path class="cls-1" d="M466.14,44.09c-1.07,2-2.15,3.7-2.07,6.08s1.13,4.65,2,6.88c0.33-.33.67-0.66,1-1a10.19,10.19,0,0,0,2.79-5.75,6.27,6.27,0,0,0-.89-3.57C468.74,46.46,466.4,43.61,466.14,44.09Z" transform="translate(0)"/><path class="cls-1" d="M495.43,18.57a3.76,3.76,0,0,0,1.4.46,3.12,3.12,0,0,0,1.44-.06,4.76,4.76,0,0,0,2.51-2.07,10.44,10.44,0,0,0,.83-1.4c0.05-.12.1-0.24,0.14-0.36a2.06,2.06,0,0,0-1.27.17c-0.27.08-.53,0.17-0.79,0.27l-0.34.12a6.52,6.52,0,0,0,0-1,2,2,0,0,0-.13-1,0.13,0.13,0,0,0-.11-0.13,1,1,0,0,0-.51.21l-0.76.37c-0.06,0-.32.12-0.53,0.23A3.31,3.31,0,0,0,497,13.5c-0.14-.33-0.21-0.73-0.37-1a0.11,0.11,0,0,0-.14-0.15c-1,.54-1.73,2.13-2,3.18A2.85,2.85,0,0,0,495.43,18.57Z" transform="translate(0)"/><path class="cls-1" d="M443.62,43.82a4.3,4.3,0,0,0-1.67-1.06,6.55,6.55,0,0,0-4.46.36,14.29,14.29,0,0,0-2,.93,5,5,0,0,0-.44.29,2.83,2.83,0,0,0,1.57.8c0.36,0.12.73,0.22,1.11,0.32l0.47,0.13a8.93,8.93,0,0,0-.83,1.15,2.68,2.68,0,0,0-.61,1.2,0.18,0.18,0,0,0,0,.23,1.4,1.4,0,0,0,.74.16c0.39,0,.77.11,1.15,0.18a7.89,7.89,0,0,0,.78.15,4.48,4.48,0,0,0-.35,1.25c-0.1.48-.34,1-0.39,1.47a0.15,0.15,0,0,0,0,.28c1.6,0.22,3.63-1,4.75-2a3.92,3.92,0,0,0,1.36-4.2A5.16,5.16,0,0,0,443.62,43.82Z" transform="translate(0)"/><path class="cls-1" d="M489.49,20.08a5.54,5.54,0,0,0,1.69-1.35,4.6,4.6,0,0,0,1.08-1.82,7,7,0,0,0-.54-4.75A15.17,15.17,0,0,0,490.66,10a5.14,5.14,0,0,0-.33-0.46,3,3,0,0,0-.8,1.7c-0.12.39-.21,0.79-0.3,1.19,0,0.16-.09.33-0.12,0.51a9.53,9.53,0,0,0-1.25-.85,2.86,2.86,0,0,0-1.3-.61,0.19,0.19,0,0,0-.25,0,1.5,1.5,0,0,0-.14.79c0,0.41-.09.82-0.15,1.23,0,0.1-.11.49-0.14,0.84a4.8,4.8,0,0,0-1.34-.34c-0.51-.09-1.07-0.33-1.58-0.37a0.16,0.16,0,0,0-.3.06c-0.18,1.72,1.24,3.84,2.31,5A4.19,4.19,0,0,0,489.49,20.08Z" transform="translate(0)"/><path class="cls-1" d="M186.5,58.57a0.15,0.15,0,0,0,.21-0.18c-0.67-1.45-2.8-2.46-4.2-2.87a3.87,3.87,0,0,0-4.21,1.1,5.1,5.1,0,0,0-.7,1.87,4.24,4.24,0,0,0,0,2,6.46,6.46,0,0,0,2.67,3.51,14.07,14.07,0,0,0,1.86,1.19,4.93,4.93,0,0,0,.48.21,2.8,2.8,0,0,0-.17-1.73c-0.09-.37-0.21-0.73-0.32-1.09,0-.14-0.09-0.31-0.14-0.46a8.77,8.77,0,0,0,1.39.08,2.64,2.64,0,0,0,1.32-.13,0.18,0.18,0,0,0,.18-0.15,1.37,1.37,0,0,0-.26-0.7c-0.17-.35-0.32-0.7-0.46-1,0-.09-0.15-0.44-0.29-0.73a4.43,4.43,0,0,0,1.22-.37C185.52,58.86,186.07,58.79,186.5,58.57Z" transform="translate(0)"/><path class="cls-1" d="M223,30a5.21,5.21,0,0,0,1.91.72,4.33,4.33,0,0,0,2,0A6.61,6.61,0,0,0,230.5,28a14.45,14.45,0,0,0,1.22-1.9,5,5,0,0,0,.22-0.49,2.86,2.86,0,0,0-1.77.17c-0.37.1-.75,0.21-1.12,0.33l-0.47.15a9,9,0,0,0,.08-1.43,2.7,2.7,0,0,0-.13-1.35,0.18,0.18,0,0,0-.15-0.18,1.41,1.41,0,0,0-.71.27c-0.35.17-.71,0.32-1.07,0.47a8,8,0,0,0-.75.29,4.55,4.55,0,0,0-.38-1.25c-0.17-.46-0.25-1-0.46-1.46a0.15,0.15,0,0,0-.19-0.21c-1.48.69-2.52,2.87-3,4.3A4,4,0,0,0,223,30Z" transform="translate(0)"/><path class="cls-1" d="M200.8,27.63a4.07,4.07,0,0,0-1.5-.52,3.38,3.38,0,0,0-1.56,0,5.16,5.16,0,0,0-2.75,2.2,11.21,11.21,0,0,0-.92,1.51,3.81,3.81,0,0,0-.16.39,2.23,2.23,0,0,0,1.38-.17c0.29-.08.58-0.18,0.86-0.28l0.37-.12a7.09,7.09,0,0,0,0,1.11,2.11,2.11,0,0,0,.13,1.05,0.14,0.14,0,0,0,.12.14,1.1,1.1,0,0,0,.55-0.22c0.27-.14.55-0.27,0.83-0.39,0.07,0,.35-0.12.58-0.24a3.58,3.58,0,0,0,.32,1c0.14,0.36.21,0.8,0.39,1.13a0.12,0.12,0,0,0,.15.16c1.14-.56,1.91-2.29,2.22-3.41A3.09,3.09,0,0,0,200.8,27.63Z" transform="translate(0)"/><path class="cls-1" d="M215,25.41a7,7,0,0,0,2.43-1.25,5.81,5.81,0,0,0,1.8-2,8.84,8.84,0,0,0,.53-6,19.31,19.31,0,0,0-.78-2.92,6.71,6.71,0,0,0-.29-0.65,3.83,3.83,0,0,0-1.42,1.9c-0.24.46-.46,0.93-0.68,1.4-0.08.19-.19,0.39-0.28,0.6A12.1,12.1,0,0,0,215,15.13,3.61,3.61,0,0,0,213.49,14a0.24,0.24,0,0,0-.32,0,1.89,1.89,0,0,0-.38.95c-0.15.5-.32,1-0.5,1.49a10.69,10.69,0,0,0-.38,1,6.1,6.1,0,0,0-1.58-.75c-0.61-.24-1.24-0.68-1.86-0.86a0.2,0.2,0,0,0-.38,0c-0.65,2.08.57,5.07,1.6,6.79A5.3,5.3,0,0,0,215,25.41Z" transform="translate(0)"/></svg>