<svg id="WW_Vines_1C_CMYK" xmlns="http://www.w3.org/2000/svg" viewBox="0 0 547.79 75.22"><defs><style>.cls-1{fill:#e8247f;}</style></defs><title>Vines_6</title><path class="cls-1" d="M288.62,198.24a4,4,0,0,1-1.17-2.37l-0.12.24c0.35,1.66-1.08,2.36-1.61,3.84-1.26,3.6,2.46,5.1,3.22,8.12,1.49-2.18,3.57-5.19,1.87-7.74A12.1,12.1,0,0,0,288.62,198.24Z" transform="translate(-17.08 -150.54)"/><path class="cls-1" d="M388.7,196.36c-0.3-.19-4.22-1.92-4.23-1.28,0,2.65-.28,5,1,7.39s3.62,4.22,5.64,6.1c0.17-.52.34-1,0.47-1.56,0.63-2.62.82-5.23-.13-7.43A7.27,7.27,0,0,0,388.7,196.36Z" transform="translate(-17.08 -150.54)"/><path class="cls-1" d="M381.67,195.14c-1.93,1.21-3.71,2.14-4.83,4.24s-1.34,4.6-1.74,6.94c0.45-.12.91-0.24,1.35-0.4a10.19,10.19,0,0,0,5.29-3.6,6.26,6.26,0,0,0,1-3.54C382.74,198.48,382.14,194.85,381.67,195.14Z" transform="translate(-17.08 -150.54)"/><path class="cls-1" d="M512.38,168.91a3.76,3.76,0,0,0,1.4.46,3.12,3.12,0,0,0,1.44-.06,4.76,4.76,0,0,0,2.51-2.07,10.38,10.38,0,0,0,.83-1.4,3.62,3.62,0,0,0,.14-0.36,2.06,2.06,0,0,0-1.27.17c-0.27.08-.53,0.17-0.79,0.27l-0.34.12a6.54,6.54,0,0,0,0-1,2,2,0,0,0-.13-1,0.13,0.13,0,0,0-.11-0.13,1,1,0,0,0-.51.21l-0.76.37c-0.06,0-.32.12-0.53,0.23a3.28,3.28,0,0,0-.31-0.89c-0.14-.33-0.21-0.73-0.37-1a0.11,0.11,0,0,0-.14-0.15c-1,.54-1.73,2.13-2,3.18A2.85,2.85,0,0,0,512.38,168.91Z" transform="translate(-17.08 -150.54)"/><path class="cls-1" d="M352.76,178.7a5.17,5.17,0,0,0,2,.42,4.3,4.3,0,0,0,2-.29,6.55,6.55,0,0,0,3.12-3.2,14.29,14.29,0,0,0,.92-2,5,5,0,0,0,.14-0.51,2.83,2.83,0,0,0-1.71.42c-0.35.15-.7,0.31-1,0.49l-0.44.21a9,9,0,0,0-.12-1.41,2.68,2.68,0,0,0-.33-1.31,0.18,0.18,0,0,0-.17-0.16,1.39,1.39,0,0,0-.66.37c-0.32.22-.65,0.42-1,0.62-0.08,0-.42.21-0.69,0.4a4.51,4.51,0,0,0-.55-1.17c-0.24-.43-0.39-1-0.67-1.36a0.15,0.15,0,0,0-.22-0.18c-1.35.89-2.05,3.17-2.26,4.64A3.93,3.93,0,0,0,352.76,178.7Z" transform="translate(-17.08 -150.54)"/><path class="cls-1" d="M506.45,170.41a5.52,5.52,0,0,0,1.69-1.35,4.6,4.6,0,0,0,1.08-1.82,7,7,0,0,0-.54-4.75,15.3,15.3,0,0,0-1.07-2.14,5.25,5.25,0,0,0-.33-0.46,3,3,0,0,0-.8,1.7c-0.11.39-.21,0.79-0.3,1.19,0,0.16-.09.33-0.12,0.51a9.54,9.54,0,0,0-1.25-.85,2.86,2.86,0,0,0-1.3-.61,0.19,0.19,0,0,0-.25,0,1.49,1.49,0,0,0-.14.79c0,0.41-.09.82-0.15,1.23a8.37,8.37,0,0,0-.14.84,4.82,4.82,0,0,0-1.34-.34c-0.51-.09-1.07-0.33-1.58-0.37a0.16,0.16,0,0,0-.3.06c-0.18,1.72,1.24,3.84,2.31,5A4.19,4.19,0,0,0,506.45,170.41Z" transform="translate(-17.08 -150.54)"/><path class="cls-1" d="M203.45,208.91a0.15,0.15,0,0,0,.21-0.18c-0.67-1.45-2.8-2.46-4.2-2.87a3.87,3.87,0,0,0-4.21,1.1,5.1,5.1,0,0,0-.7,1.87,4.24,4.24,0,0,0,0,2,6.46,6.46,0,0,0,2.67,3.51,14.07,14.07,0,0,0,1.86,1.19,5,5,0,0,0,.48.21,2.79,2.79,0,0,0-.17-1.73c-0.09-.37-0.2-0.73-0.32-1.09,0-.14-0.09-0.31-0.14-0.46a8.88,8.88,0,0,0,1.39.08,2.64,2.64,0,0,0,1.32-.13,0.18,0.18,0,0,0,.18-0.15,1.37,1.37,0,0,0-.26-0.7c-0.17-.35-0.32-0.69-0.46-1,0-.08-0.15-0.44-0.29-0.73a4.45,4.45,0,0,0,1.22-.37C202.48,209.19,203,209.12,203.45,208.91Z" transform="translate(-17.08 -150.54)"/><path class="cls-1" d="M239.95,180.34a5.22,5.22,0,0,0,1.91.72,4.34,4.34,0,0,0,2,0,6.61,6.61,0,0,0,3.59-2.73,14.43,14.43,0,0,0,1.22-1.9,5.07,5.07,0,0,0,.22-0.49,2.86,2.86,0,0,0-1.77.17c-0.37.1-.75,0.21-1.12,0.33l-0.47.15a9.09,9.09,0,0,0,.08-1.43,2.71,2.71,0,0,0-.13-1.35,0.18,0.18,0,0,0-.15-0.18,1.41,1.41,0,0,0-.71.27c-0.35.17-.71,0.32-1.07,0.47-0.09,0-.45.15-0.75,0.29a4.55,4.55,0,0,0-.38-1.25c-0.17-.46-0.25-1-0.46-1.46a0.15,0.15,0,0,0-.19-0.21c-1.48.69-2.52,2.87-3,4.3A4,4,0,0,0,239.95,180.34Z" transform="translate(-17.08 -150.54)"/><path class="cls-1" d="M217.75,178a4.08,4.08,0,0,0-1.5-.52,3.39,3.39,0,0,0-1.56,0,5.16,5.16,0,0,0-2.75,2.2,11.24,11.24,0,0,0-.92,1.51,4,4,0,0,0-.16.39,2.23,2.23,0,0,0,1.38-.17c0.29-.08.58-0.18,0.86-0.28l0.37-.12a7.1,7.1,0,0,0,0,1.11,2.11,2.11,0,0,0,.13,1.05,0.14,0.14,0,0,0,.12.14,1.1,1.1,0,0,0,.55-0.22c0.27-.14.55-0.27,0.83-0.39,0.07,0,.35-0.13.58-0.24a3.56,3.56,0,0,0,.32,1c0.14,0.36.21,0.8,0.39,1.13a0.12,0.12,0,0,0,.15.16c1.14-.56,1.91-2.29,2.22-3.41A3.09,3.09,0,0,0,217.75,178Z" transform="translate(-17.08 -150.54)"/><path class="cls-1" d="M231.95,175.75a7,7,0,0,0,2.43-1.25,5.81,5.81,0,0,0,1.8-2,8.84,8.84,0,0,0,.53-6,19.33,19.33,0,0,0-.78-2.92,6.66,6.66,0,0,0-.29-0.65,3.83,3.83,0,0,0-1.42,1.9c-0.24.46-.46,0.93-0.68,1.4-0.08.19-.19,0.39-0.28,0.6a12,12,0,0,0-1.34-1.37,3.61,3.61,0,0,0-1.46-1.09,0.24,0.24,0,0,0-.32,0,1.88,1.88,0,0,0-.38.95c-0.15.5-.32,1-0.5,1.49a10.61,10.61,0,0,0-.38,1,6.1,6.1,0,0,0-1.58-.75c-0.61-.24-1.24-0.68-1.86-0.86a0.2,0.2,0,0,0-.38,0c-0.65,2.08.57,5.07,1.6,6.79A5.3,5.3,0,0,0,231.95,175.75Z" transform="translate(-17.08 -150.54)"/><path class="cls-1" d="M138,184c-0.52.72-1,1.46-1.48,2.2-0.69,1.05-1.4,2.14-2.18,3.13a11,11,0,0,1-4.49,3.58,5.76,5.76,0,0,0-.45-5.85,4.61,4.61,0,0,0-3-1.7,3.71,3.71,0,0,0-4.34,3.53,4.73,4.73,0,0,0,1.2,3.57,6,6,0,0,0,4.77,1.71,9.13,9.13,0,0,1-3.33,2.23c-2.85,1.14-4.82,1-7.73.75a36.79,36.79,0,0,1-4.17-1.05c-2.66-.76-5.4-1.54-6.56-1.46a0.42,0.42,0,0,0-.39.44,0.41,0.41,0,0,0,.44.39c1-.08,3.93.76,6.27,1.43a35.69,35.69,0,0,0,4.31,1.08,30,30,0,0,0,3.06.2,12.9,12.9,0,0,0,5.06-1,9.49,9.49,0,0,0,4.24-3.19l0.46-.13a11.43,11.43,0,0,0,5.3-4c0.81-1,1.53-2.12,2.23-3.19,0.48-.73,1-1.46,1.46-2.17a15.07,15.07,0,0,1,3.23-3.43c0-.38.1-0.75,0.17-1.12A14.66,14.66,0,0,0,138,184Zm-9,8.8c-0.08.15-.16,0.29-0.25,0.43a5.31,5.31,0,0,1-4.88-1.35,3.88,3.88,0,0,1-1-2.93,3.05,3.05,0,0,1,1.12-2.22,2.94,2.94,0,0,1,1.81-.58,3.69,3.69,0,0,1,.47,0,3.76,3.76,0,0,1,2.47,1.38A5,5,0,0,1,129,192.82Z" transform="translate(-17.08 -150.54)"/><path class="cls-1" d="M563.89,190.32h0l-1.56,0c-1,0-2.56-.1-4.56-0.25-2.56-.2-5.89-0.58-9.9-1.14,0-.19-0.06-0.38-0.1-0.57a11.7,11.7,0,0,0-.7-2c0.41,0.2.84,0.4,1.31,0.58A13.07,13.07,0,0,0,559,186.2a9.46,9.46,0,0,0,3.17-2.66,7.43,7.43,0,0,0,.62-7.85,6.46,6.46,0,0,0-2.63-2.73,5,5,0,0,0-3.43-.34,5.24,5.24,0,0,0-3.89,3.16,3.15,3.15,0,0,0-.11,1.53,2.8,2.8,0,0,0,.13.53l0,0a0.43,0.43,0,0,0,.07.11,1.31,1.31,0,1,0,1.24-1.79,1.29,1.29,0,0,0-.57.13,2.3,2.3,0,0,1,.07-0.26,3.33,3.33,0,0,1,1.05-1.45,5.2,5.2,0,0,1,2.19-1.06,4,4,0,0,1,2.75.29,5.46,5.46,0,0,1,2.17,2.33,6.43,6.43,0,0,1,.66,3.39,6.3,6.3,0,0,1-1.27,3.31,8.31,8.31,0,0,1-2.81,2.29,12.39,12.39,0,0,1-3.4,1.14,11.77,11.77,0,0,1-8.52-1.77,11,11,0,0,1-1.38-1.09,13,13,0,0,0-1.07-1.15l-0.21-.26h0a0.67,0.67,0,0,0-.32-0.2,10.5,10.5,0,0,0-1.56-1.11,9.32,9.32,0,0,0-8.19-.56l-0.06-.1a15.06,15.06,0,0,0-2.39-3,10.3,10.3,0,0,0-1.49-1.22c-0.52-.34-1-0.67-1.58-1a23.87,23.87,0,0,0-6.92-2.68,19.14,19.14,0,0,0-7.4-.11,28.53,28.53,0,0,0-7,2.26c-1.07.49-2.11,1-3.15,1.55a0.41,0.41,0,0,0-.21-0.07,16,16,0,0,0-6.28,1.65,16.2,16.2,0,0,1-5.85,1.65h-0.1c-1.8,0-3.94-.81-4.73-2.64a2.51,2.51,0,0,1-.12-0.33,8.49,8.49,0,0,0,2.63-1.36c0.85-.86,1.19-1.54,1.06-2.12a1.69,1.69,0,0,0-1.2-1.08l-0.15,0h0a3.12,3.12,0,0,0-2.58,1.51,4.23,4.23,0,0,0-.68,2.47,9,9,0,0,1-3.49.05,8.33,8.33,0,0,1-2.44-15.45,0.42,0.42,0,0,0-.39-0.74,9,9,0,0,0,2.68,17,9.76,9.76,0,0,0,3.76-.05,3.22,3.22,0,0,0,.16.45c0.94,2.18,3.42,3.14,5.5,3.14h0.11a17,17,0,0,0,6.2-1.73,19.6,19.6,0,0,1,4.52-1.46c-0.58.32-1.17,0.63-1.75,1-1.68,1-3.35,1.91-5,2.84-5.45-.69-11.16-1.29-17.13-1.71q-4.79-.33-9.8-0.48a8.24,8.24,0,0,0-.49-0.78c-1.16-1.63-2.31-4.24-4.65-2.38-1.2,1-1.5,2.66-2.2,4a11.46,11.46,0,0,1-1.5,2.08,1.71,1.71,0,0,0,1.25-.38c0.9-.86,2-1.6,2.49-2.09a0.29,0.29,0,0,1,.42.39,14.87,14.87,0,0,1-2.39,2.13,4.57,4.57,0,0,0-.8,1.11c2.13-.86,3.92-1.92,6.42-1.48a3.67,3.67,0,0,1,1.35.52,2.93,2.93,0,0,0,.19-0.28c0.09,0.18.2,0.39,0.31,0.59l0,0L469,182a2,2,0,0,1,.31.84q4.45,0.13,8.75.37,5.62,0.31,10.94.75c-0.45.21-.89,0.44-1.34,0.64a58.94,58.94,0,0,1-13.72,4.36,59.82,59.82,0,0,1-6.49.78,3.22,3.22,0,0,1-.57,1.4,50,50,0,0,0,7.3-.86,52.5,52.5,0,0,0,7.12-1.91,64.26,64.26,0,0,0,6.78-2.84c0.94-.45,1.86-0.93,2.77-1.42q6.91,0.58,13.3,1.29a16.93,16.93,0,0,0,2.12,1.87,15.17,15.17,0,0,0,7.47,2.9l0.6,0.05c-0.13-1.14-.2-2.44-0.41-3.67,10.06,1.31,18.86,2.58,26.15,3.62,2.29,0.33,4.42.61,6.41,0.85a11.09,11.09,0,0,1-.13,2,13.7,13.7,0,0,1-3.86,7.59,9.85,9.85,0,0,1-3.52,2.32,6.41,6.41,0,0,1-4.09.14,6.92,6.92,0,0,1-3.54-2.11,5.36,5.36,0,0,1-1.32-3.79,4.89,4.89,0,0,1,1.82-3.55,3.86,3.86,0,0,1,1.77-.9,3.18,3.18,0,0,1,1.91.26,2.67,2.67,0,0,1,1.35,1.33,2.62,2.62,0,0,1,.08,1.9,2.09,2.09,0,0,1-.51.81,2.23,2.23,0,0,1-.8.49,2.27,2.27,0,0,1-.72.11,1,1,0,0,0,.08-0.1,1.11,1.11,0,1,0-1.49.49,1.06,1.06,0,0,0,.19.05,2.9,2.9,0,0,0,2.18.19,3,3,0,0,0,1.15-.66,2.94,2.94,0,0,0,.73-1.09,3.52,3.52,0,0,0,0-2.57A3.66,3.66,0,0,0,536,192a4.2,4.2,0,0,0-2.55-.4,5,5,0,0,0-2.3,1.1,6.5,6.5,0,0,0-1.61,1.91,6.07,6.07,0,0,0-.69,2.42,6.6,6.6,0,0,0,1.54,4.68,8.22,8.22,0,0,0,4.16,2.59,8.67,8.67,0,0,0,2.45.35,8.52,8.52,0,0,0,2.46-.43,11.06,11.06,0,0,0,4.12-2.59,15.25,15.25,0,0,0,4.33-8.45,12.62,12.62,0,0,0,.15-2c3.83,0.45,7,.75,9.54.92,2,0.13,3.61.21,4.67,0.21l1.61,0A1,1,0,0,0,563.89,190.32ZM487,173.55a2.32,2.32,0,0,1,1.82-1.13,0.91,0.91,0,0,1,.61.45c0,0.13,0,.51-0.8,1.32a7.42,7.42,0,0,1-2.18,1.14A3.4,3.4,0,0,1,487,173.55Zm-18.31,5.69,0-.1c0,0.33-.2.6-0.29,1.08A1.36,1.36,0,0,1,468.69,179.23Zm64.55,2.9a3,3,0,0,1-.21,1.46,2.51,2.51,0,0,1-.79,1.13,0.45,0.45,0,0,1-.35.1,0.73,0.73,0,0,1-.33-0.21,1.24,1.24,0,0,1,.24-1.31,4.79,4.79,0,0,1,1.41-1.27S533.23,182.1,533.23,182.13Zm7.19,5.65c-7.45-1.15-16.48-2.85-26.89-4.54l-0.91-.15a7.53,7.53,0,0,0-1.79-2.09c-2.67-2.08-7.08-2.29-9.89-1.34,0.12,0.35.05,1.13,0.21,1.48l0.1,0.2-4.51-.62c1.36-.8,2.72-1.6,4.09-2.38,4.18-2.41,8.54-4.73,13.28-5.51a18.19,18.19,0,0,1,7.08.27,22.94,22.94,0,0,1,6.56,2.72c0.51,0.31,1,.63,1.49,1a9,9,0,0,1,1.3,1.12,13.88,13.88,0,0,1,2.12,2.75v0l-0.15.08a6.24,6.24,0,0,0-1.9,1.73,3.32,3.32,0,0,0-.56,1.34,2.27,2.27,0,0,0,.34,1.59l0,0.06,0,0a2.14,2.14,0,0,0,1.15.67,1.84,1.84,0,0,0,1.38-.33,3.72,3.72,0,0,0,1.27-1.81,4.28,4.28,0,0,0,.24-2.12,4.37,4.37,0,0,0-.12-0.48,8,8,0,0,1,2.86-.55,7.87,7.87,0,0,1,4,1.08,10.44,10.44,0,0,1,3.12,2.88c0.21,0.28.43,0.62,0.6,0.87a10.41,10.41,0,0,1,.53,1,10.29,10.29,0,0,1,.69,1.95C544.39,188.4,542.47,188.11,540.42,187.78Z" transform="translate(-17.08 -150.54)"/><path class="cls-1" d="M130.46,182.12c1.94,0.81,4.2-1.29,6-2.68,1.92-.07,3.85-0.08,5.8-0.06,0.08-.35.18-0.69,0.29-1,0,0.17-.1.33-0.14,0.51a5.17,5.17,0,0,0,.79,1.74,7.25,7.25,0,0,0,2.76,1.8,9.65,9.65,0,0,0,6.88-.51,45.14,45.14,0,0,1-4.56-3.35c-0.22-.2.06-0.53,0.31-0.46,1.75,0.53,4.6,2.24,6.36,1.65,1.92-.65,2.59-3.8,3.36-5.63a0.29,0.29,0,0,1,.55.11c-0.21,2.26-1.49,4.18-.07,6.17a4,4,0,0,0,.35.38h0c1.68-.09,4.34-1.5,5.83-2.43,3.78-2.34.85-5.05-1.65-6.36-3.17-1.66-6.49-3.32-10.17-2.4-1.09.27-3.82,1.31-4.53,2.34a6.46,6.46,0,0,1,3.77,2.53c1,1.45,1.26,3.61,3,4.44,0.33,0.16.15,0.7-.18,0.54a5.32,5.32,0,0,1-2.29-2.77,8.21,8.21,0,0,0-4.48-4.24,0.28,0.28,0,0,1-.52-0.11,3.67,3.67,0,0,0-1.07,0,9.84,9.84,0,0,0-3.14,3.84,4,4,0,0,0-.72,1.08,13.69,13.69,0,0,1,.82-1.64h-0.25c-1.65-.67-3.33-1.3-5-1.84a73.11,73.11,0,0,0-21.37-3c-0.07-2-.12-3.65-1.58-5.34s-4.28-2.64-6-4.06c-0.6,1.49.65,5.29,1.49,6.57a7.06,7.06,0,0,0,4.73,2.83,161.2,161.2,0,0,0-17.58,1.14l-0.87.1a130.65,130.65,0,0,0-16.93,2.64,12.21,12.21,0,0,1-5.54-3c-1.52-1.45-3.57-5.4-6.11-5-2.88.51-2.28,4.37-.86,6,1.77,2,4.65,2.51,7.16,2.85a16.87,16.87,0,0,0,1.95.13,48.24,48.24,0,0,0-11.82,5.52l-1.61,1.06a4.72,4.72,0,0,0,.4-2.84c-0.27-1.67-1.79-3.52-2.34-5.17-1,.76-1.72,3.81-1.69,5a4.27,4.27,0,0,0,.32,1.51,5.8,5.8,0,0,0-2.15-1.29c-2-.7-5-0.11-7.2-0.48,0.24,1.59,3.24,4.23,4.61,4.91a7.09,7.09,0,0,0,5.57,0l-0.09.06a96.78,96.78,0,0,1-10.75,6.7l-0.24.14c-2.91.19-5.66,0.32-8.21,0.41-1.15,0-2.25,0-3.32.06l0.12-.16a6.22,6.22,0,0,0,.52-1.05l0.09-.26c0-.06,0-0.05.05-0.16l0-.15a5.08,5.08,0,0,0,.13-0.61,6.64,6.64,0,0,0-.1-2.62,7.84,7.84,0,0,0-3.36-4.77,9.52,9.52,0,0,0-6.43-1,10,10,0,0,0-4.72,2.33l-0.3.28-0.15.14-0.07.07-0.11.12a8.87,8.87,0,0,0-.6.7,10.9,10.9,0,0,0-1.68,3.22,12.82,12.82,0,0,0-.64,3.29l-1.5-.12-1.58-.13h0a1,1,0,0,0-.13,2l1.58,0.11,1.73,0.12a9.27,9.27,0,0,0,.51,2A8.18,8.18,0,0,0,24,197.67a10.89,10.89,0,0,0,6.54,2.71,17,17,0,0,0,6.29-.86,41.83,41.83,0,0,0,5.09-2.09,49.53,49.53,0,0,0,7-4.09c0.44-.3.83-0.58,1.16-0.82l-3.34.17c-1.52.85-3.45,1.84-5.73,2.84a39.77,39.77,0,0,1-4.88,1.8,15.36,15.36,0,0,1-5.49.67,8.75,8.75,0,0,1-5.06-2.08,6.34,6.34,0,0,1-1.87-3.24l0.51,0c2.68,0.14,6.19.25,10.43,0.26a4.67,4.67,0,0,1-1.24.26,3.19,3.19,0,0,1-.55,0H32.66l-0.11.65,0.22,0a3.84,3.84,0,0,0,.63.06,5.44,5.44,0,0,0,2.36-.48,6.64,6.64,0,0,0,.9-0.51q2.44,0,5.17-.08a237.27,237.27,0,0,0,27.24-2.49c10.45-1.53,22.1-4.05,34.79-6.59A248.39,248.39,0,0,1,129,179.92,2.28,2.28,0,0,0,130.46,182.12ZM38,189.1l0,0.12a0.7,0.7,0,0,1,0,.1l-0.07.26a4.92,4.92,0,0,1-.34.84,5.23,5.23,0,0,1-.48.74c-5.32,0-9.63-.18-12.76-0.38l-0.83-.05a10,10,0,0,1,1.74-5.4,6.84,6.84,0,0,1,.45-0.55l0,0h0l0.06-.06,0.15-.14,0.29-.28a7.47,7.47,0,0,1,1.11-.85,8.28,8.28,0,0,1,2.58-1.07,7.76,7.76,0,0,1,5.18.5,6.3,6.3,0,0,1,2.8,3.67,5.72,5.72,0,0,1,.21,2.09A3.85,3.85,0,0,1,38,189.1Zm65.28-7.82C97,182.77,91,184.17,85.21,185.42S74,187.68,68.78,188.51s-10,1.43-14.56,1.85l-0.56,0c2.73-1.59,5.46-3.45,8.18-5.3,1.46-1,2.86-1.94,4.16-2.78a46.79,46.79,0,0,1,12.1-5.56c-2.46,2-4.91,4.17-4.37,7.73,0.35,2.3,2.35,2,3.59.53s1.25-3.13,1.47-4.82a18.2,18.2,0,0,1,.84-3.87,79.07,79.07,0,0,1,9.48-1.86c-2.21,1.74-4.71,3.62-4.22,6.84,0.29,1.89,1.92,1.68,2.94.44a7.36,7.36,0,0,0,1.21-4,14,14,0,0,1,.79-3.42c2.46-.33,5-0.62,7.67-0.92l0.87-.1c3.47-.39,7.24-0.75,11.16-1-0.09.06-.18,0.12-0.27,0.19-0.92.77-2.73,3.34-2.62,4.6,1.59-.68,4-0.78,5.42-1.68a5.51,5.51,0,0,0,2.28-3.26,77,77,0,0,1,22.32,2.56,9.14,9.14,0,0,0-5.72,1.31l-0.16.13c-2.56.27-5.08,0.6-7.55,1C116.26,178.35,109.64,179.82,103.32,181.28Z" transform="translate(-17.08 -150.54)"/><path class="cls-1" d="M179.92,176.34a3.76,3.76,0,0,1-.34.42l0.46-.4Z" transform="translate(-17.08 -150.54)"/><path class="cls-1" d="M176.77,156.55l-0.41.12a3.15,3.15,0,0,1,.33.07Z" transform="translate(-17.08 -150.54)"/><path class="cls-1" d="M182.66,175.06a6.44,6.44,0,0,1-1.07,0c0.59,0.85,1.89,1.28,2.57,2.08s1.38,2,2.16,2.94a3.3,3.3,0,0,0,1.11.91l0,0.07,0.09-.18a2.93,2.93,0,0,0,0-1.59,9.63,9.63,0,0,0-.6-2,18.66,18.66,0,0,1-.89-4.1,3.68,3.68,0,0,1-1.47,1.15A9.43,9.43,0,0,1,182.66,175.06Z" transform="translate(-17.08 -150.54)"/><path class="cls-1" d="M180.19,175.81l0.35,0.07c0.22-.25.41-0.51,0.61-0.76a2.44,2.44,0,0,0-.82.18A2.68,2.68,0,0,1,180.19,175.81Z" transform="translate(-17.08 -150.54)"/><path class="cls-1" d="M173.39,165.75c1.6,0,2.87,1.28,4.34,1.38l0-.05a8.56,8.56,0,0,0-1.81-2.82c-0.7-.59-1.33-1.22-1.8-1.67a0.29,0.29,0,0,1,.37-0.42,20.57,20.57,0,0,1,1.63,1.49,7.59,7.59,0,0,0,1.87,1.19,1.61,1.61,0,0,0,1.55-.05c-0.11-1.12,0-2.27-.27-3.37-0.42-2.09-2-4.43-4-4.12a7.43,7.43,0,0,0-1.44,1.45c-1,1.27-2.36,1.49-3.21,2.81a4.18,4.18,0,0,0-.39,3.43,3.2,3.2,0,0,0-.28.41C171.09,165.35,172.44,165.74,173.39,165.75Z" transform="translate(-17.08 -150.54)"/><path class="cls-1" d="M178.31,157.93c1.56,2,1.47,4.08,1.71,6.36a4.58,4.58,0,0,0,.61-1.24,14.88,14.88,0,0,1,.76-3.11,0.29,0.29,0,0,1,.54.18c-0.18.69-.34,2-0.67,3.18a1.7,1.7,0,0,0,.26,1.28,11.46,11.46,0,0,1,1.12-2.3c0.81-1.22,2.17-2.3,2.45-3.81,0.54-2.94-2.3-2.72-4.29-3a6.53,6.53,0,0,0-1.56,0c-0.07.07-.14,0.14-0.2,0.22-0.63.79-.48,0.67-1.51,0.75h0a3,3,0,0,0-.31.57A3.67,3.67,0,0,1,178.31,157.93Z" transform="translate(-17.08 -150.54)"/><path class="cls-1" d="M170.7,173.33c0.18,0.48.06,1,.24,1.46a1.72,1.72,0,0,0,1.44,1.1,3.28,3.28,0,0,0,.74-1A15.28,15.28,0,0,0,174,172a6.12,6.12,0,0,1,1-2.54c0.66-.76,1.58-1.09,2.3-1.78a8.09,8.09,0,0,1-1.61-.72c-1.44-.71-2.67-0.48-4.19-0.71a6.62,6.62,0,0,0-2-.19l-0.08.14a7.65,7.65,0,0,0-.54,1.39c-0.46,1.39.15,2.76,0.73,4.05C169.94,172.25,170.47,172.68,170.7,173.33Z" transform="translate(-17.08 -150.54)"/><path class="cls-1" d="M188.13,167.79a7.93,7.93,0,0,0-2.08-.69c-1.5-.09-2.63.72-4,1.28-0.29,1.07.26,2.19,0.84,3.35a0.29,0.29,0,0,1-.51.25c-0.63-1.09-1.13-2.52-2.68-2.6a11,11,0,0,0,.16,3.15,13.12,13.12,0,0,1,.44,2.14c1.16-.43,2.39-0.23,3.6-0.72,1.72-.69,1.88-1.52,2.76-2.94C187.2,170.24,189.21,168.82,188.13,167.79Z" transform="translate(-17.08 -150.54)"/><path class="cls-1" d="M180,168.61a2,2,0,0,1,1.37.6,2.62,2.62,0,0,1,.11-1.37,3.2,3.2,0,0,1,1.31-1.45,1.79,1.79,0,0,1-1.44-.44,2.25,2.25,0,0,1-.61-1.18,1.85,1.85,0,0,1-1.62,1.14,3.48,3.48,0,0,1-1.57-.51,7.79,7.79,0,0,1,.71,1.42v0c0.44,0.74-.11,1.87-0.76,2.92A4.18,4.18,0,0,1,180,168.61Z" transform="translate(-17.08 -150.54)"/><path class="cls-1" d="M184.5,155.46a2.34,2.34,0,0,1,.95,1,0.23,0.23,0,0,1,.18,0c1.57,0.76,3.07,1.42,3.78,3.12,0.58,1.4,1,2.92,1.51,4.34a4,4,0,0,1,.34,1.86,2.79,2.79,0,0,1-.24.86,1.1,1.1,0,0,0,.68-0.53,6.17,6.17,0,0,0,.19-3.55c-0.54-1.83-1.28-4.23-2.6-5.65-0.89-1-2.31-1.22-3.38-1.91-1.3-.83-3.46-0.32-4.93-0.34a2.05,2.05,0,0,0-1,.22c0.76,0.06,1.51.23,2.29,0.28A4.65,4.65,0,0,1,184.5,155.46Z" transform="translate(-17.08 -150.54)"/><path class="cls-1" d="M174.55,172.16a10.71,10.71,0,0,1-1.43,3.85h0a5,5,0,0,1,.67.13,4.63,4.63,0,0,1,1.1.87,8,8,0,0,0,1.91.64,2.65,2.65,0,0,0,.78.08,5.4,5.4,0,0,0,1.83-1.6,2.34,2.34,0,0,0,.33-0.93,0.28,0.28,0,0,1,0-.21,15.63,15.63,0,0,0-.58-3.18,11,11,0,0,1,0-2.4c-1.06.16-2.32,1.65-3,2.42-0.19.22-.63,0.07-0.51-0.25,0.23-.59,1.4-2.2,1.9-3.35-0.34.3-.7,0.56-1.11,0.86A4.87,4.87,0,0,0,174.55,172.16Z" transform="translate(-17.08 -150.54)"/><path class="cls-1" d="M189.52,162.06a15.38,15.38,0,0,0-.9-2.59,5.43,5.43,0,0,0-2.92-2.38,3.7,3.7,0,0,1-.2,2.05,11.13,11.13,0,0,1-1.84,2.71A12.07,12.07,0,0,0,182,165l0.33,0.19c1.39,0.7,2.11-.07,3.55-0.2,0.3,0,.51.4,0.18,0.53a11.79,11.79,0,0,0-2.87,1.38,3.88,3.88,0,0,0-.57.55,9.67,9.67,0,0,1,2.48-1,4.13,4.13,0,0,1,2.3.35,0.24,0.24,0,0,1,.23,0l0.25,0.12C192.3,167.89,190.13,163.92,189.52,162.06Z" transform="translate(-17.08 -150.54)"/><path class="cls-1" d="M165.4,191.14a3.84,3.84,0,0,1,.2,2.85,3.64,3.64,0,0,1-.37.77,3.36,3.36,0,0,0,1.66-3c0-.14,0-0.26,0-0.37A2.31,2.31,0,0,1,165.4,191.14Z" transform="translate(-17.08 -150.54)"/><path class="cls-1" d="M154.37,186c-0.56,2.58-4.07,4.4-6.27,5.3a9.61,9.61,0,0,1-1.88.57c0.57,1.12.19,2.06,1.52,2.9,1.51,0.95,3.7,1,5.36,1.46,0.48,0.12,1,.43,1.55.6a3.31,3.31,0,0,0,.6-1C156.34,193.3,156.18,188.42,154.37,186Z" transform="translate(-17.08 -150.54)"/><path class="cls-1" d="M148.09,171.55l-0.37.18,0.27,0A2.39,2.39,0,0,1,148.09,171.55Z" transform="translate(-17.08 -150.54)"/><path class="cls-1" d="M153.84,185.73a7.1,7.1,0,0,0-2,.8c-1.59.86-3.08,1.78-4.93,1.69a0.29,0.29,0,0,1-.22-0.44c1.1-1.46,6-3.61,6.5-5.43a9.74,9.74,0,0,1-8.37.2,8.49,8.49,0,0,1-2.71-2.18,9.49,9.49,0,0,0,.17,3.34c0.44,1.56,1.4,2.91,1.92,4.44a11.77,11.77,0,0,0,.61,2.22,7.57,7.57,0,0,0,1.1,1.07,10.75,10.75,0,0,0,2.67-1C150.34,189.62,153.44,187.91,153.84,185.73Z" transform="translate(-17.08 -150.54)"/><path class="cls-1" d="M158.4,184.83a2.24,2.24,0,0,0-.13,1c0.16,2.14,1.6,4.09,1.74,6.28,0,0.3-.42.34-0.54,0.11-0.88-1.69-1.53-3.93-2.8-5.37a3.13,3.13,0,0,0-1.83-1.14c1.23,1.74,1.62,4.64,1.63,6.57a9.87,9.87,0,0,1-1,4.64v0c0.64-.08,1.06-0.55,1.7-0.59a5.45,5.45,0,0,1,1.85.36,2.55,2.55,0,0,1,.33-0.17,5.25,5.25,0,0,1,1.43-.29c0.95-.32,1.93-0.53,2.83-0.8,1.56-1,1.94-2.77.79-4.66C162.92,188.36,160.45,186.73,158.4,184.83Z" transform="translate(-17.08 -150.54)"/><path class="cls-1" d="M158.08,183.38c0.88-.68,3.25-0.2,4.16-0.08,0.22,0,.51,0,0.83.07l-0.41-.16c-3.61-1.36-5.89-1.45-5.07-5.78,0-.14.06-0.39,0.11-0.67-0.11.32-.2,0.6-0.27,0.73-0.46,1-1,2.68-2.11,3.14-0.88.37-2-.31-2.83-0.59a20.58,20.58,0,0,1-3.34-1.19c0,0.42,4,2.57,4.53,3l0,0h0a0.26,0.26,0,0,1,.08.18,0.21,0.21,0,0,1,0,0c0,2.33-4.73,3.33-5.69,5.05-0.54,1,.49.37,1.57-0.1s2-1.11,3-1.63a4.27,4.27,0,0,1,2.57-.77c1.24,0.29,2,1.88,2.54,2.87,0.07,0.12.52,0.89,0.94,1.67l-0.07-.23C158.23,187.62,156.58,184.54,158.08,183.38Z" transform="translate(-17.08 -150.54)"/><path class="cls-1" d="M450.41,199.6a7.77,7.77,0,0,0-2.33,1.49l-1.68,1.34a10.88,10.88,0,0,0-2.78,2.81c-0.11.71,0,.88-0.24,1.16a2.36,2.36,0,0,0,1.68,1.6l0,0c2.75,0.3,5.91,2,7.9,2.67,0.64-1.9-2.62-5-3.66-6.6a0.29,0.29,0,0,1,.44-0.36c1.46,1.49,3.45,3.79,5.5,4.7a11.9,11.9,0,0,1-.39-3.56c0-1.23-.5-3.24-0.2-4.45C454.19,198.83,451.38,199.25,450.41,199.6Z" transform="translate(-17.08 -150.54)"/><path class="cls-1" d="M464.65,191.41a4.18,4.18,0,0,0,2.84-2c0.77-1.37.32-2.69,1-4.16a7.43,7.43,0,0,0,.6-2c-0.67-1.9-3.48-2.21-5.53-1.59-1.08.33-2.06,0.93-3.1,1.35a1.61,1.61,0,0,0,.68,1.4,7.59,7.59,0,0,0,1.94,1.09,20.56,20.56,0,0,1,2.08.74,0.29,0.29,0,0,1-.2.53c-0.62-.2-1.47-0.46-2.32-0.8a8.56,8.56,0,0,0-3.34-.27H459.2c0.78,1.26,2.49,1.78,3.26,3.18,0.46,0.83,1.43,1.84,2,2.89A3.17,3.17,0,0,0,464.65,191.41Z" transform="translate(-17.08 -150.54)"/><path class="cls-1" d="M449.86,188.57a3.47,3.47,0,0,1,.18-0.37l-0.07-.1Z" transform="translate(-17.08 -150.54)"/><path class="cls-1" d="M462.59,175.16A3.7,3.7,0,0,1,464.3,174a5.43,5.43,0,0,0-3.47-1.45,15.38,15.38,0,0,0-2.71.42c-1.93.34-6.45,0.3-3.52,3.77l0.22,0.16a0.24,0.24,0,0,1,.1.21,4.12,4.12,0,0,1,1.39,1.87,9.68,9.68,0,0,1,.31,2.64,3.86,3.86,0,0,0,.22-0.76,11.79,11.79,0,0,0-.13-3.18c0-.35.44-0.36,0.56-0.09,0.56,1.33.22,2.33,1.49,3.22l0.33,0.2a12.07,12.07,0,0,0,2-3A11.13,11.13,0,0,1,462.59,175.16Z" transform="translate(-17.08 -150.54)"/><path class="cls-1" d="M460.31,187.43a8.09,8.09,0,0,1-1.4-1.08c-0.26,1-.13,1.93-0.49,2.87a6.12,6.12,0,0,1-1.75,2.12,15.28,15.28,0,0,0-2.14,2.15,3.28,3.28,0,0,0-.55,1.13,1.72,1.72,0,0,0,1.65.75c0.5-.07.89-0.41,1.4-0.48,0.68-.1,1.31.17,2,0.12,1.41-.1,2.91-0.21,3.92-1.26a7.65,7.65,0,0,0,1-1.14l0.08-.13a6.62,6.62,0,0,0-1.12-1.7C462,189.56,461.61,188.37,460.31,187.43Z" transform="translate(-17.08 -150.54)"/><path class="cls-1" d="M458.56,182.07A1.8,1.8,0,0,1,457.5,181a3.22,3.22,0,0,1-.66,1.86,2.62,2.62,0,0,1-1.16.74,2,2,0,0,1,1.17.92,4.18,4.18,0,0,1,.17,2.76c0.61-1.06,1.35-2.09,2.21-2h0a7.79,7.79,0,0,1,1.59,0,3.48,3.48,0,0,1-1.19-1.15,1.84,1.84,0,0,1,.23-2A2.24,2.24,0,0,1,458.56,182.07Z" transform="translate(-17.08 -150.54)"/><path class="cls-1" d="M454,173.2a4,4,0,0,1,1.8-.57c1.51-.2,3-0.57,4.54-0.72,1.84-.18,3.13.83,4.54,1.86a0.23,0.23,0,0,1,.1.16,2.34,2.34,0,0,1,1.29.38,4.65,4.65,0,0,1,1.32,1.79c0.41,0.66.92,1.24,1.33,1.89a2.05,2.05,0,0,0-.26-1c-0.71-1.29-1.27-3.44-2.62-4.19-1.11-.62-2-1.75-3.28-2.08-1.87-.49-4.34,0-6.21.37a6.17,6.17,0,0,0-3,1.84,1.1,1.1,0,0,0-.15.85A2.79,2.79,0,0,1,454,173.2Z" transform="translate(-17.08 -150.54)"/><path class="cls-1" d="M453.57,215.28c-3-.46-7.38,1.7-9.12,3.88a3.31,3.31,0,0,0-.57,1c0.39,0.38.92,0.71,1.26,1.08,1.15,1.27,2.27,3.16,3.82,4,1.37,0.78,2,0,3.27,0a9.67,9.67,0,0,1-.38-1.93C451.61,220.94,451.56,217,453.57,215.28Z" transform="translate(-17.08 -150.54)"/><path class="cls-1" d="M460.14,208l-0.54.41c-3.43,2.76-4.59.79-7.49-1.75l-0.33-.29c0.17,0.28.33,0.53,0.45,0.7,0.53,0.74,2.07,2.61,1.89,3.7-0.31,1.87-3.81,1.86-5.17,2.1l-0.23,0c0.88,0,1.77,0,1.91,0,1.14,0,2.89-.06,3.73.89a4.27,4.27,0,0,1,.53,2.63c0,1.14-.1,2.28,0,3.41s0.06,2.36.65,1.43c1.06-1.66-.27-6.29,1.77-7.4h0.28c0.6,0.29,4.37,2.77,4.75,2.6a20.58,20.58,0,0,1-2.63-2.39c-0.62-.58-1.76-1.27-1.85-2.22-0.11-1.18,1.13-2.47,1.78-3.34C459.71,208.46,459.91,208.25,460.14,208Z" transform="translate(-17.08 -150.54)"/><path class="cls-1" d="M469.27,214l-0.14.19,0.16,0.19C469.28,214.28,469.27,214.15,469.27,214Z" transform="translate(-17.08 -150.54)"/><path class="cls-1" d="M447,216.37c1.71-.9,4.45-1.92,6.56-1.65a3.13,3.13,0,0,0-1.87-1.08c-1.87-.43-4.15,0-6.06.06-0.26,0-.43-0.4-0.16-0.53,2-.91,4.39-0.55,6.36-1.42a2.24,2.24,0,0,0,.82-0.59c-2.65-.91-5.24-2.32-8.07-2.48-2.21-.13-3.6,1.07-3.73,2.93,0.19,0.91.47,1.87,0.62,2.84a5.24,5.24,0,0,1,.42,1.4,2.52,2.52,0,0,1,0,.37,5.45,5.45,0,0,1,1.19,1.47c0.26,0.58,0,1.17.28,1.78h0A9.87,9.87,0,0,1,447,216.37Z" transform="translate(-17.08 -150.54)"/><path class="cls-1" d="M471.9,193.41c-2.1-1-4.65-1-6.17.91-1.13,1.41-1.16,2.7.07,3.65a3.15,3.15,0,0,0-1.47,0,7.06,7.06,0,0,0-2.3,1c-1-.43-2.08-0.76-3.11-1.11-1.19-.41-1.73.09-2.74,0-0.41,0-.9-0.27-1.2-0.28a10.49,10.49,0,0,0-6.28,1.6c-1.22-2.6-2.36-5.32-3.39-8.15a20.87,20.87,0,0,0-4.59-6.8c1.54,0.69,3.09,1.35,4.66,1.95,1.79,0.69,3.61,1.32,5.43,1.91a2.22,2.22,0,0,0-.33.44,5.4,5.4,0,0,0-.55,2.37,2.65,2.65,0,0,0,.43.65,8,8,0,0,0,1.47,1.38,4.62,4.62,0,0,1,1.28.57,5,5,0,0,1,.43.53h0a10.71,10.71,0,0,1,2.72-3.07,4.87,4.87,0,0,0,1.8-3.14c0.08-.5.13-0.94,0.24-1.38-0.77,1-1.64,2.76-2.06,3.25-0.23.27-.57-0.05-0.46-0.33,0.36-.95,1.08-2.76.73-3.77a11,11,0,0,1-2.13,1.12c-0.69.25-1.52,0.37-2.27,0.62l0.11-.15-0.71-.23a17.54,17.54,0,0,1,1.9-.54,11,11,0,0,0,2.85-1.34c-0.8-1.32-2.3-1.1-3.55-1.14a0.29,0.29,0,0,1,0-.57c1.3,0,2.55-.1,3.35-0.87-0.12-1.42,0-2.79-.73-4.06a7.93,7.93,0,0,0-1.59-1.51c-1.42-.46-1.73,2-2.18,2.77a9.31,9.31,0,0,0-1.23,2.36c0-.12,0-0.25,0-0.37a6.43,6.43,0,0,1,.17-1.42l0.15-.23c0.78-1.15,1.3-3.46,2.59-3.7a2,2,0,0,1-.19-0.4,2.06,2.06,0,0,1-.1-0.4,4,4,0,0,0-.94,1c-0.32.68-.72,1.34-1.09,2-4.82.24-9.72,0.65-14.7,1.3l-0.78.11c-0.39-.23-0.78-0.44-1.18-0.64,6.15-.77,10.65-6.31,11.57-11C440.86,171,433.2,170.7,433.64,179a12.25,12.25,0,0,0-2.35-.79A15.08,15.08,0,0,0,422,177a5.34,5.34,0,0,0,1.64-2.37c0.45-1.36.7-5.09-.19-6.3-1.19,1.68-3.57,3.27-4.46,5.08a6.48,6.48,0,0,0-.31,4.62c-3.43,1.45-6.56,3.9-9.63,6.33l-1.85,1.45c-5.52,1.36-11.1,2.75-16.78,3.93q-2.68.55-5.39,1c-3.11-.7-6.2-1.57-9.27-2.55,3.95-1.1,6.29-5.26,8.71-9.6,0.82-1.48,1.67-3,2.61-4.46l0.48-.74a10.14,10.14,0,0,1,4.66,2.39c1.29,1.17,3.08,4.39,5.17,4,2.37-.48,1.79-3.67.58-5-1.51-1.61-3.91-2-6-2.2a14.83,14.83,0,0,0-4,.16,27.59,27.59,0,0,1,13.8-11h0l0,0.1a7.21,7.21,0,0,1,5.74.22,4.82,4.82,0,0,1,2.45,3.67,4.08,4.08,0,0,1-1.52,3.94,3.74,3.74,0,0,1-3,.37,1.6,1.6,0,0,1-.6-0.46,1.3,1.3,0,0,0,1.19-1.18,1.33,1.33,0,0,0-1.26-1.4,1.35,1.35,0,0,0-1.31.74h0a2.29,2.29,0,0,0-.05,1.83,2.88,2.88,0,0,0,1.57,1.62,3.87,3.87,0,0,0,1.46.25,5,5,0,0,0,2.69-.74,5.26,5.26,0,0,0,2.06-5.13,6.06,6.06,0,0,0-3.09-4.61,8.33,8.33,0,0,0-6.42-.4,0.62,0.62,0,0,0-.42,0,36.9,36.9,0,0,0-3.79,1.75,7.12,7.12,0,0,0,1.66-4.11c0.1-1.82-.88-6.5-2.38-7.69-0.89,2.48-3.27,5.24-3.76,7.77s0.3,4.11,1.28,6A28.56,28.56,0,0,0,387,172c-0.3-2.33-.55-4.93-3.06-6-1.47-.6-2,0.65-1.57,1.9a6.1,6.1,0,0,0,2.29,2.55,11.91,11.91,0,0,1,2,2l-0.67,1c-1,1.5-1.82,3-2.65,4.53-3,5.41-5.54,9.9-10.89,9.14-2.32-.78-4.62-1.59-6.9-2.4l-3.2-1.12a6.41,6.41,0,0,0,4.59-1.73c1-1,2.83-4.28,2.56-5.77-1.8,1-4.63,1.41-6.22,2.65a6.81,6.81,0,0,0-2.36,4.35,116.32,116.32,0,0,0-19-5.21c2-1.16,4.1-2.42,4.06-5,0-1.59-1.39-1.59-2.37-.69a6.1,6.1,0,0,0-1.44,3.11,12.36,12.36,0,0,1-.92,2.52,51.87,51.87,0,0,0-13.88-.39,54.86,54.86,0,0,0-10.44,2.29,8.54,8.54,0,0,0,2.85-3.13c1.15-2.26,1.28-4.8,1.64-7.25-0.47.14-.94,0.27-1.39,0.44a10.59,10.59,0,0,0-5.41,3.85,6.5,6.5,0,0,0-1,3.69,18,18,0,0,0,.77,3.24,88.2,88.2,0,0,0-10.27,4.56l-1.5.1a125.8,125.8,0,0,0-13,1.81c-8.54,1.58-17,3.63-25.34,5.39l-0.58.12c-0.36-.12-0.71-0.23-1.06-0.37a14.38,14.38,0,0,1-5.51-3.88,9.81,9.81,0,0,1-2.47-5.86,5.67,5.67,0,0,1,.64-2.91,7.15,7.15,0,0,1,1.93-2.16,6.2,6.2,0,0,1,4.93-1.44,3.65,3.65,0,0,1,3,2.74,2.88,2.88,0,0,1-1.17,2.79,1.92,1.92,0,0,1-1,.32,1.19,1.19,0,0,0,.28-0.75,1.21,1.21,0,1,0-2.42,0,1.19,1.19,0,0,0,.12.51h0a1.78,1.78,0,0,0,.74.81,2.62,2.62,0,0,0,2.73-.14,3.75,3.75,0,0,0,1.57-3.69,4.55,4.55,0,0,0-3.66-3.46,7.1,7.1,0,0,0-5.69,1.61,8,8,0,0,0-2.18,2.45,6.62,6.62,0,0,0-.75,3.36,10.74,10.74,0,0,0,2.68,6.45,15.24,15.24,0,0,0,5.51,4c-3.4.68-6.81,1.31-10.17,1.69l-1.72.14a34,34,0,0,1-7.21-3.7c-11-7.49-22.25-23.6-37.35-15.72a0.09,0.09,0,0,0,0-.08c-0.8-1.92-1.36-3.65-3.07-5s-3.92-1.9-6-2.62c0,0.42.08,0.85,0.15,1.27a9.28,9.28,0,0,0,2.42,5.29,5.69,5.69,0,0,0,3,1.44,14.4,14.4,0,0,0,3.12-.17,18.23,18.23,0,0,0-8.82,11.62,19.47,19.47,0,0,0-5-3.05,0.41,0.41,0,0,0-.33-0.4c-1.17-.22-2.1-1.37-2.8-2.64a0.88,0.88,0,0,0,.15-0.11c0.77-.85.32-2.62-0.06-3.53a8.74,8.74,0,0,1-.9-2.8,10.13,10.13,0,0,1,.06-2.14c0-.2,0-0.46.05-0.71,0.59-.81,1.08-1.72,1.67-2.52a4,4,0,0,0,.46-1.31,2.07,2.07,0,0,1-.4.1,2,2,0,0,1-.44,0c0.39,1.25-1.4,2.8-2,4-0.11.2-.22,0.39-0.33,0.58v0a20.24,20.24,0,0,0,.7,3.92,17.23,17.23,0,0,1,.8,2.33,3.79,3.79,0,0,1-.24,2.87,8.76,8.76,0,0,0,.88,1.27,23,23,0,0,0-8.31-1.19l-0.77-.25c-3-.93-6.1-1.76-9.16-2.51a11,11,0,0,0-1.15-2.61c-0.16-.26-0.59-0.58-0.82-0.93-0.55-.85-0.36-1.56-1.28-2.42s-1.59-1.54-2.45-2.22a7.07,7.07,0,0,0-.17-2.52,3.15,3.15,0,0,0-.71-1.29c1.42,0.64,2.54,0,3.25-1.66,1-2.25-.2-4.51-2.11-5.87-2.25-1.62-4.57-1-7.09-1.4a41.26,41.26,0,0,0-4.3-.69,4.7,4.7,0,0,0,.76,1.64,7.8,7.8,0,0,1,.27,3c0,1.92.28,4.58,1.32,6.23l0.09,0.13-0.25,0c3.29,0.24,7.47,2.44,9.64,4,1.52,1.11,3,3.17,2,4.92a2.73,2.73,0,0,1,1.86,1.34l-0.53-.13c0.08,0.25.14,0.5,0.2,0.76a2.07,2.07,0,0,0-2-1.38c-0.91.84-2.92,1.38-4,1.93a12,12,0,0,1-3.31,1.33c1.76,1.38,4.71,2.05,6.72,2.64a0.29,0.29,0,0,1-.11.55c-1.9-.17-6.17-1.58-7.55-0.12,1.55,1.44,4.52,3.43,6.08,5.71l0,0a2.36,2.36,0,0,0,2.2.73c0.11-.4.34-0.33,0.91-0.76a6.07,6.07,0,0,0,.71-1.69q1.28,0.4,2.55.72a12.29,12.29,0,0,0,1.3,2.79,5.93,5.93,0,0,0,0,.64c-0.74-.58-3.16,0-3.43,1.32-0.4,2,1.54,3.33,3.08,3.93,1.87,0.73,4.08.75,6.07,1a35,35,0,0,1,5.66,1.18c-2.5-3-1.9-6.84-4.71-9.56,1.67,0.15,3.32.23,5,.26-0.24,1.52.83,2.52,1.89,3.5a9.32,9.32,0,0,1,1.89,2.15,3.92,3.92,0,0,1,.23,4,3.76,3.76,0,0,1-3.4,1.69h0a0.41,0.41,0,0,0-.41.41,0.43,0.43,0,0,0,.44.41,4.56,4.56,0,0,0,4.12-2.1,4.72,4.72,0,0,0-.23-4.79,10.11,10.11,0,0,0-2.05-2.35c-0.89-.82-1.6-1.47-1.66-2.34a2.08,2.08,0,0,0,2.18.69,1.35,1.35,0,0,0,1-1.22c2.22,0,4.45-.08,6.71-0.1l1,0.33a17.54,17.54,0,0,0,1.31,7.57c-9.76,3.82-10.66,17-1.8,22.71h0l0.37,0.24c0.25,0.15.57,0.41,1.07,0.67a16.45,16.45,0,0,0,1.81.88,14.21,14.21,0,0,0,2.49.79c0.47,0.12,1,.16,1.49.25a15.41,15.41,0,0,0,1.62.07,11.73,11.73,0,0,0,3.49-.52,10.41,10.41,0,0,0,3.39-1.8,8.34,8.34,0,0,0,1.43-1.46l0.27-.37c0.09-.14.18-0.31,0.27-0.47a6.15,6.15,0,0,0,.45-1,9.17,9.17,0,0,0,.61-4,7.08,7.08,0,0,0-1.26-3.77,4.57,4.57,0,0,0-1.55-1.34,6.18,6.18,0,0,0-1-.32,6.88,6.88,0,0,0-.94-0.09,4.79,4.79,0,0,0-3.16,1.2,3.53,3.53,0,0,0-1.17,2.61,2.67,2.67,0,0,0,1,2,2.77,2.77,0,0,0,1.34.61,2.34,2.34,0,0,0,.55,0l-0.12-.87a1.26,1.26,0,0,1-.33,0,1.42,1.42,0,0,1-.89-0.42,1.76,1.76,0,0,1-.56-1.39,2.44,2.44,0,0,1,1-1.76,3.55,3.55,0,0,1,2.35-.64c0.24,0,.42.09,0.64,0.12a5.72,5.72,0,0,1,.58.24,3,3,0,0,1,.92.94,6,6,0,0,1,.83,2.91,8.84,8.84,0,0,1-.51,3.22,4.46,4.46,0,0,1-.31.71c-0.06.11-.1,0.21-0.17,0.33l-0.26.37a6.69,6.69,0,0,1-1.1,1.15,8.69,8.69,0,0,1-2.81,1.54,10.35,10.35,0,0,1-3,.6,13.93,13.93,0,0,1-1.45,0c-0.47-.06-0.92-0.07-1.35-0.16a16.08,16.08,0,0,1-2.33-.56,15.45,15.45,0,0,1-1.73-.67c-0.47-.19-0.85-0.42-1.1-0.54-7.17-5.26-6.9-16.87,1.86-20.35a16.3,16.3,0,0,0,3.7,4.4c2.69,2.25,8.22,2.91,8.42-2,0.17-4.18-5.39-5.46-8.57-5.21a16.6,16.6,0,0,0-2.33.36,17.11,17.11,0,0,1-1.42-6.29c5.17,1.6,10.46,3.1,15.9,4.26a123.3,123.3,0,0,0,12.58,2,119.62,119.62,0,0,0,12.86.61,127.12,127.12,0,0,0,12.94-.75c0.94-.12,1.87-0.25,2.8-0.4A56.93,56.93,0,0,0,288.13,195c0.68,0.61.86,1.62,1.6,2.39,2.42,2.46,5.12,0,7.87.64-1.17-2.08-2.77-5-5.52-4.61a4.81,4.81,0,0,0-.6.14,48.59,48.59,0,0,0,5.47-3q2.16-1.27,4.38-2.5l1.53-.16a49.27,49.27,0,0,1,6.29-.18c1,0.05,2.08.14,3.16,0.23l3.19,0.29c8.52,0.87,17,1.94,25.42,3.19,4.21,0.58,8.37,1.29,12.56,1.91a108.53,108.53,0,0,0,12.64,1A122.59,122.59,0,0,0,388,192.59c1.12,0.2,2.25.38,3.37,0.52a15.51,15.51,0,0,0,4.75-.14c0.45,2,1.19,3.84,2.94,4.89,1.23,0.74,4.82,1.78,6.2,1.18-1.39-1.53-2.42-4.19-4-5.45a5.54,5.54,0,0,0-2.85-1.2,24.89,24.89,0,0,0,5.68-2.84c3.43-.72,6.83-1.44,10.19-2.12,3.8-.77,7.59-1.52,11.29-2.11,1.88-.29,3.76-0.62,5.58-0.83s3.65-.47,5.49-0.64c0.77-.08,1.54-0.14,2.3-0.21a27.12,27.12,0,0,1,2.69,2.87,3.39,3.39,0,0,1-.3,2.81c-0.51.65-1.52,1-3.1,1a14.88,14.88,0,0,1-1.9,0,7.51,7.51,0,0,0,.66-1.24,0.42,0.42,0,0,0-.06-0.42,3.43,3.43,0,0,0-3.23-1,1.32,1.32,0,0,0-.73,1.56,2.08,2.08,0,0,0,1.64,1.6c-0.8.35-1.72,0-2.85-.36a10.1,10.1,0,0,0-3-.7,4.72,4.72,0,0,0-4.33,2.06,4.56,4.56,0,0,0,.09,4.62,0.43,0.43,0,0,0,.57.19,0.41,0.41,0,0,0,.17-0.56v0a3.76,3.76,0,0,1-.12-3.8,3.92,3.92,0,0,1,3.61-1.66,9.32,9.32,0,0,1,2.79.66c1.45,0.5,2.93,1,4.21-.16a14.47,14.47,0,0,0,2.56.12c1.83-.06,3.05-0.5,3.72-1.35a3.24,3.24,0,0,0,.6-2.06,15.65,15.65,0,0,1,1.94,3.57c0.69,1.91,1.44,3.77,2.22,5.58a0.4,0.4,0,0,0,0,.14,2.79,2.79,0,0,1-.75,2.48,7.23,7.23,0,0,1-5.16,1.74c1.73-1.94.4-4.67-2.61-5.72-3.8-1.33-6.91,1.09-10.83.3a35,35,0,0,1,3.7,4.43c1.16,1.63,2.23,3.57,3.75,4.88,1.26,1.08,3.34,2.16,4.92.86,1.07-.89.41-3.27-0.45-3.65a5.92,5.92,0,0,0,.56-0.31c2.89,0.18,5.38-.53,6.72-2a3.73,3.73,0,0,0,.88-1.56l0.53,1.14a10.56,10.56,0,0,0-1.62,1.51c-0.54.62-1.33,1.37-1.92,2.16,0.3-.29.62-0.58,0.94-0.85,1.44-1.19,3-2.82,4.8-3.47,1.41-.51,3.85-0.66,4.77.68,1-1.76,3.58-1.39,5.28-.57,2.44,1.17,6.38,3.84,8.13,6.64l-0.12-.28,0.15,0c1.94,0.14,4.41-.87,6.12-1.77a7.81,7.81,0,0,1,2.78-1.18,4.7,4.7,0,0,0,1.8-.1,41.22,41.22,0,0,0-2.64-3.46C475,197,474.39,194.63,471.9,193.41Zm-309.11-23.8a5.09,5.09,0,0,0,.29-2.18,2.14,2.14,0,0,1,.72,1.14,5.61,5.61,0,0,1,.17,1.72A8.35,8.35,0,0,0,162.79,169.61Zm37.66,30a13.49,13.49,0,0,1,2.93-.2c9,1.25,4.25,8-.22,3.71a15.6,15.6,0,0,1-3-3.45Zm-16.63-16.85-0.19.12-0.61-.19Zm-1,5.41c0.16,0.32.33,0.64,0.51,1a54.81,54.81,0,0,1-11.66-1.46,5,5,0,0,1,.13-2.37,2.81,2.81,0,0,1,1.09-1.45c3.08,0.83,6.18,1.74,9.3,2.71A8.67,8.67,0,0,0,182.84,188.13Zm-13.76-1.87c0.13-.71.25-1.41,0.39-2.11,0.08-.42.15-0.81,0.2-1.19l0.61,0.16a38.77,38.77,0,0,1-.76,3.9l-0.55-.16Zm0.63,0.81c0.17-.5.33-1,0.48-1.38a10.55,10.55,0,0,0,.57-2.14l1-.06,0.22,0.06a3.73,3.73,0,0,0-.9,1.44,5.61,5.61,0,0,0-.22,2.4Zm3,3.55a11.29,11.29,0,0,1-.59-1.34l1.28,0.28A3,3,0,0,0,172.72,190.63Zm14.05,0.47a1.27,1.27,0,0,1-1.23-.45h1.74A0.62,0.62,0,0,1,186.78,191.1Zm-1.1-2,0.1-.14,0.27,0.14h-0.37Zm1.68,0a3.55,3.55,0,0,0-1.66-1,0.42,0.42,0,0,0-.39.15,7.93,7.93,0,0,0-.61.87h-0.37c-0.25-.4-0.5-0.84-0.75-1.35a9.28,9.28,0,0,1-.41-1q3.34,1.05,6.72,2.15l0.45,0.15Zm-2.63-5.95c0.2-.08.4-0.16,0.64-0.23A25.37,25.37,0,0,1,194,186.3l-2.93-1Q187.91,184.24,184.73,183.19Zm54.48,12a116.33,116.33,0,0,1-12.48-.74,119.8,119.8,0,0,1-12.2-2.11c-5.54-1.24-11-2.87-16.3-4.6,0-.12,0-0.25.07-0.37,2.36-9.27,12.29-13.88,21.11-11.06,6.3,2,11.29,7.25,16.18,11.44a43.47,43.47,0,0,0,11.93,7.18C244.75,195.08,242,195.19,239.22,195.15Zm18.58,1.63c2.41-.44,4.8-0.93,7.18-1.45l3.67-.83,0.67,0.07a49.13,49.13,0,0,0,6.87,0,67.8,67.8,0,0,0,12-1.85c2.2-.54,4.13-1.14,5.75-1.69A58.84,58.84,0,0,1,257.79,196.78ZM296,189.15a67.89,67.89,0,0,1-8.06,2.56,66.78,66.78,0,0,1-11.81,1.85c-1.26.08-2.56,0.13-3.86,0.13,6-1.38,12-2.78,18-3.95,2.47-.48,4.94-0.91,7.42-1.26Zm70.16,3.29a83.63,83.63,0,0,1-12.41-.86c-4.14-.62-8.34-1.3-12.52-2-8.39-1.38-16.85-2.85-25.43-3.86l-3.23-.36c-1.06-.11-2.14-0.23-3.28-0.29-0.72,0-1.44,0-2.15,0a63.51,63.51,0,0,1,20.38-6.38,45.36,45.36,0,0,1,5.15-.29,10.2,10.2,0,0,1,3.85,4c0.82,1.54,1.39,5.18,3.5,5.49,2.39,0.36,2.94-2.84,2.24-4.46-0.87-2-3-3.2-4.88-4.11a14.35,14.35,0,0,0-2.31-.86c10.26,0.49,20.3,4,30.08,7.49l2.42,0.85a15.63,15.63,0,0,0,4.66,1.6c3.15,1.06,6.34,2.05,9.54,2.89A110.29,110.29,0,0,1,366.15,192.44ZM392,191.9c2.72-.48,5.4-1,8.07-1.54A15.47,15.47,0,0,1,392,191.9Zm50.73-8.58a0.7,0.7,0,0,0-.32.3h0l-0.56-.23,0,0Zm7.88,3.34s0-.09,0-0.13l0,0.1c-1.57-.5-3.14-1-4.68-1.62l-1.36-.55c0.95,0.13,1.9.18,2.84,0.39s2,1.17,3.05,1.29a6.26,6.26,0,0,1-.47-1,9.43,9.43,0,0,1-.32-2c0-.08,0-0.15,0-0.23l0.66,0a5.78,5.78,0,0,0,0,.63c0.13,1.24.83,2.21,1,3.37Zm-20-6c-1.9.28-3.74,0.66-5.62,1-3.8.74-7.55,1.6-11.36,2.5l-3.43.83c6.71-5.29,13.12-10.13,22.52-4.7Zm4.87,9.47c-1-.21-1.56-0.57-1.63-1.06s0.15-.66.23-0.7a2.71,2.71,0,0,1,2.09.58A5.35,5.35,0,0,1,435.42,190.16Zm28.63,10a8.36,8.36,0,0,0-1.15-.73,5.61,5.61,0,0,1,1.6-.65,2.14,2.14,0,0,1,1.34.1A5.09,5.09,0,0,0,464.05,200.13Z" transform="translate(-17.08 -150.54)"/><path class="cls-1" d="M442.54,207a3.36,3.36,0,0,0-1.82,2.86,3.64,3.64,0,0,1,.51-0.69,3.84,3.84,0,0,1,2.6-1.17,2.34,2.34,0,0,1-1-1.19Z" transform="translate(-17.08 -150.54)"/><path class="cls-1" d="M468.36,214.18a8.21,8.21,0,0,0-5.84-2,5.32,5.32,0,0,1-3.52-.72c-0.3-.21.1-0.63,0.39-0.41,1.54,1.11,3.58.33,5.31,0.52a6.46,6.46,0,0,1,4,2.14c0.58-1.11.2-4-.07-5.1-0.91-3.68-4-5.83-6.9-7.84-2.33-1.58-6.1-2.9-6.38,1.54-0.11,1.75-.11,4.77.61,6.29a0.26,0.26,0,0,1,0,0,3.86,3.86,0,0,0,.49.1c2.43,0.32,3.52-1.71,5.41-3a0.29,0.29,0,0,1,.36.44c-1.25,1.54-3.71,3.61-3.38,5.61,0.3,1.84,3.16,3.54,4.45,4.84,0.18,0.18,0,.59-0.26.49a45.15,45.15,0,0,1-5.1-2.44,9.65,9.65,0,0,0,2.79,6.31,7.24,7.24,0,0,0,2.89,1.58,5.19,5.19,0,0,0,1.92-.12,5.86,5.86,0,0,0,1.77-2.41,9.83,9.83,0,0,0,1.9-4.57,3.62,3.62,0,0,0-.5-1A0.28,0.28,0,0,1,468.36,214.18Z" transform="translate(-17.08 -150.54)"/><path class="cls-1" d="M455.13,222.9c-1-1.59-.85-3.34-0.84-5.15a7.09,7.09,0,0,0-.24-2.13c-1.74,1.38-1.78,4.92-1.69,6.87a10.75,10.75,0,0,0,.42,2.81,7.54,7.54,0,0,0,1.46.46,11.76,11.76,0,0,0,2.24-.51c1.59-.27,3.24-0.06,4.82-0.4a9.47,9.47,0,0,0,3-1.42,8.52,8.52,0,0,1-3.22-1.37,9.74,9.74,0,0,1-3.77-7.48c-1.37,1.3-1,6.64-1.73,8.3A0.29,0.29,0,0,1,455.13,222.9Z" transform="translate(-17.08 -150.54)"/><path class="cls-1" d="M457.35,214.56v0l0.11-.09-0.07,0A0.23,0.23,0,0,0,457.35,214.56Z" transform="translate(-17.08 -150.54)"/><path class="cls-1" d="M457.69,214.29a0.25,0.25,0,0,1-.11.12,1.09,1.09,0,0,0-.12.09l0.47,0.24c0-.07,0-0.14,0-0.2A0.25,0.25,0,0,0,457.69,214.29Z" transform="translate(-17.08 -150.54)"/><path class="cls-1" d="M469.12,214.21L469,214l-0.25-.26a0.93,0.93,0,0,1-.26.33,0.29,0.29,0,0,0-.09.1,4.07,4.07,0,0,1,.34.4l0,0A2.31,2.31,0,0,0,469.12,214.21Z" transform="translate(-17.08 -150.54)"/></svg>