<svg id="Layer_1" data-name="Layer 1" xmlns="http://www.w3.org/2000/svg" viewBox="0 0 547.79 73.54"><defs><style>.cls-1{fill:#69be5a;}.cls-2{fill:#614130;}.cls-3{fill:#f0689f;}.cls-4{fill:#ed328b;}.cls-5,.cls-6{fill:none;stroke:#69be5a;}.cls-5{stroke-miterlimit:10;stroke-width:1.25px;}.cls-6{stroke-linecap:round;stroke-linejoin:round;stroke-width:0.83px;}</style></defs><title>Vines_2</title><path class="cls-1" d="M388.16,48.49c-1.39-1.53-2.42-4.19-4-5.45a5.54,5.54,0,0,0-2.85-1.2c4.18-1.38,7.83-4.25,11.4-7.07,7.08-5.58,13.76-10.85,23.9-4.32a0.63,0.63,0,0,0,.68-1.06c-4.7-3-8.75-3.66-12.4-3A5.35,5.35,0,0,0,406.54,24c0.45-1.36.7-5.09-.19-6.3-1.19,1.68-3.57,3.27-4.46,5.08a6.47,6.47,0,0,0-.31,4.62c-3.43,1.45-6.56,3.9-9.63,6.33-5.24,4.13-10.65,8.4-17.52,7.54a89,89,0,0,1-15.77-3.7c3.95-1.1,6.29-5.26,8.71-9.6,0.82-1.48,1.67-3,2.61-4.46l0.48-.73a10.14,10.14,0,0,1,4.66,2.39c1.29,1.17,3.08,4.39,5.17,4,2.37-.48,1.79-3.67.58-5-1.51-1.61-3.91-2-6-2.2a14.83,14.83,0,0,0-4,.16,27.59,27.59,0,0,1,13.8-11,0.63,0.63,0,1,0-.46-1.17,36.71,36.71,0,0,0-3.79,1.75,7.11,7.11,0,0,0,1.66-4.11c0.1-1.82-.87-6.5-2.38-7.69-0.89,2.48-3.27,5.24-3.75,7.77s0.3,4.11,1.28,6a28.54,28.54,0,0,0-7.35,7.67c-0.3-2.33-.55-4.93-3.06-6-1.46-.61-2,0.65-1.57,1.9a6.1,6.1,0,0,0,2.29,2.55,11.88,11.88,0,0,1,2,2l-0.67,1c-1,1.5-1.82,3-2.65,4.53-3,5.41-5.54,9.9-10.89,9.14-2.32-.78-4.62-1.59-6.9-2.4L345.28,33a6.41,6.41,0,0,0,4.59-1.73c1-1,2.83-4.28,2.56-5.77-1.8,1-4.63,1.41-6.22,2.65a6.81,6.81,0,0,0-2.36,4.35,116.36,116.36,0,0,0-19-5.21c2-1.16,4.1-2.42,4.06-5,0-1.59-1.39-1.59-2.37-.69a6.11,6.11,0,0,0-1.44,3.11,12.4,12.4,0,0,1-.92,2.52,51.88,51.88,0,0,0-13.88-.39c-11.59,1.33-22,6.71-31.49,12.32a0.63,0.63,0,0,0-.31.54,0.63,0.63,0,0,0,.95.54c9.39-5.54,19.64-10.85,31-12.16a45.4,45.4,0,0,1,5.15-.29,10.19,10.19,0,0,1,3.85,4c0.82,1.54,1.39,5.18,3.5,5.49,2.39,0.36,2.94-2.84,2.24-4.46-0.87-2-3-3.2-4.88-4.11a14.31,14.31,0,0,0-2.31-.86c10.26,0.49,20.3,4,30.08,7.49l2.42,0.85a15.62,15.62,0,0,0,4.66,1.6,99.24,99.24,0,0,0,19.14,4.77,15.51,15.51,0,0,0,4.75-.14c0.46,2,1.19,3.84,2.94,4.89C383.19,48,386.78,49.1,388.16,48.49Z" transform="translate(0)"/><path class="cls-1" d="M282.29,38.35l-0.78.33c-0.5.22-1.26,0.53-2.23,0.91a69,69,0,0,1-8.19,2.57,67.86,67.86,0,0,1-12,1.85,49.1,49.1,0,0,1-6.87,0,23.12,23.12,0,0,1-7-1.55,15.34,15.34,0,0,1-5.85-4.15,10.74,10.74,0,0,1-2.68-6.45,6.62,6.62,0,0,1,.75-3.36,8,8,0,0,1,2.18-2.45,7.09,7.09,0,0,1,5.69-1.61A4.55,4.55,0,0,1,249,27.93a3.75,3.75,0,0,1-1.57,3.69,2.62,2.62,0,0,1-2.73.14A1.77,1.77,0,0,1,244,31l0.8-.36a0.89,0.89,0,0,0,.39.41,1.75,1.75,0,0,0,1.81-.13,2.88,2.88,0,0,0,1.17-2.79,3.65,3.65,0,0,0-3-2.74,6.2,6.2,0,0,0-4.93,1.44,7.14,7.14,0,0,0-1.93,2.16,5.68,5.68,0,0,0-.64,2.91,9.81,9.81,0,0,0,2.47,5.86,14.38,14.38,0,0,0,5.51,3.88,22.2,22.2,0,0,0,6.68,1.46A48.13,48.13,0,0,0,259,43a66.8,66.8,0,0,0,11.81-1.85,68.05,68.05,0,0,0,8.06-2.56c0.94-.38,1.68-0.68,2.19-0.9l0.78-.33Z" transform="translate(0)"/><circle class="cls-1" cx="245.05" cy="30.44" r="1.21"/><path class="cls-1" d="M33.15,40a96.81,96.81,0,0,0,10.75-6.7L44,33.25a7.09,7.09,0,0,1-5.57,0c-1.37-.69-4.36-3.32-4.61-4.91C36,28.68,39,28.1,41,28.79a5.8,5.8,0,0,1,2.15,1.29,4.27,4.27,0,0,1-.32-1.51c0-1.2.68-4.25,1.69-5,0.55,1.64,2.07,3.49,2.34,5.17a4.72,4.72,0,0,1-.4,2.84l1.61-1.06A48.24,48.24,0,0,1,59.92,25,16.8,16.8,0,0,1,58,24.87C55.46,24.54,52.58,24,50.81,22c-1.41-1.59-2-5.45.86-6,2.54-.45,4.58,3.5,6.11,5a12.21,12.21,0,0,0,5.54,3,130.68,130.68,0,0,1,16.93-2.64l0.87-.1a161.32,161.32,0,0,1,17.58-1.14A7.06,7.06,0,0,1,94,17.34c-0.83-1.28-2.08-5.07-1.48-6.57,1.68,1.42,4.56,2.43,6,4.06S100,18.22,100,20.18a73.11,73.11,0,0,1,21.37,3A118.08,118.08,0,0,1,137,29.9l2.9,1.4c-1.74-2.15-3.64-4.5-2.47-7.46,0.7-1.78,2.25-1.2,3,.23a7.35,7.35,0,0,1,.3,4.12,14.11,14.11,0,0,0,0,3.49,104.49,104.49,0,0,0,9.83,4.19c10.18,3.61,19.52,2.6,29.45,2.6,1.86,0,2.34,1.52.08,1.52-10.08,0-19.57,1-30-2.68-0.77-.27-1.54-0.58-2.3-0.88A5.35,5.35,0,0,1,149.4,40c0,1.23-.74,4.37-1.79,5.14-0.54-1.65-2-3.52-2.33-5.21a5.47,5.47,0,0,1-1.42,1.53c-1.24.89-5,2.33-6.49,1.8,1.34-1.75,2.2-4.68,3.77-6.16a6.48,6.48,0,0,1,4.08-1.73c-3-1.3-6-2.72-8.88-4.13-3.45-1.68-7-3.38-10.6-4.84a12.08,12.08,0,0,0-5.31,1.68c-1.81,1.07-4.68,4.47-7.05,3.47-2.69-1.13-1.25-4.77.48-6a9.14,9.14,0,0,1,5.72-1.31A77,77,0,0,0,97.25,21.7,5.51,5.51,0,0,1,95,25c-1.43.9-3.82,1-5.42,1.68-0.11-1.26,1.7-3.82,2.62-4.6,0.09-.07.18-0.13,0.27-0.19-3.92.2-7.69,0.56-11.16,1l-0.87.1c-2.67.3-5.21,0.59-7.67,0.92A14,14,0,0,0,72,27.26a7.37,7.37,0,0,1-1.21,4c-1,1.24-2.66,1.45-2.94-.44-0.49-3.22,2-5.1,4.22-6.84a79.15,79.15,0,0,0-9.48,1.86,18.22,18.22,0,0,0-.84,3.87c-0.22,1.7-.34,3.43-1.47,4.82S57,36.26,56.64,34C56.1,30.4,58.55,28.2,61,26.23a46.8,46.8,0,0,0-12.1,5.56c-1.3.83-2.69,1.78-4.15,2.78-3.07,2.09-6.14,4.2-9.22,5.91C33.28,41.72,31.54,40.81,33.15,40Z" transform="translate(0)"/><path class="cls-2" d="M1.08,39.78l1.58,0.13c1,0.07,2.6.23,4.6,0.34,4,0.26,9.93.52,17.45,0.31,3.76-.14,7.92-0.32,12.44-0.74s9.39-1,14.56-1.85,10.67-1.84,16.43-3.08,11.8-2.65,18.11-4.14,12.94-2.93,19.9-4.06A124.41,124.41,0,0,1,128,25.06a110.13,110.13,0,0,1,23,2.85c3.86,0.88,7.71,1.93,11.54,3.1s7.65,2.47,11.49,3.77a230.67,230.67,0,0,0,23.44,7,119.71,119.71,0,0,0,12.2,2.11,116.25,116.25,0,0,0,12.48.74A122.16,122.16,0,0,0,234.74,44c4.13-.47,8.34-1.3,12.52-2.17,8.38-1.76,16.79-3.81,25.34-5.39a125.8,125.8,0,0,1,13-1.81,51.85,51.85,0,0,1,6.63-.13c1.13,0.06,2.22.18,3.28,0.29l3.23,0.36c8.58,1,17,2.47,25.43,3.86,4.19,0.72,8.38,1.4,12.52,2a83.65,83.65,0,0,0,12.41.86,121.58,121.58,0,0,0,24.26-2.74c7.88-1.64,15.57-3.68,23.17-5.48,3.81-.9,7.56-1.77,11.36-2.5,1.87-.36,3.71-0.74,5.62-1s3.76-.62,5.62-0.83a214.44,214.44,0,0,1,42.13-1c13,0.9,24.83,2.68,35.23,4.39s19.43,3.39,26.89,4.54,13.31,1.94,17.31,2.26c2,0.15,3.53.24,4.56,0.25l1.56,0h0a1,1,0,0,1,0,2l-1.61,0c-1.06,0-2.63-.08-4.67-0.21-4.07-.27-10-0.9-17.51-2s-16.58-2.38-27-3.73-22.2-2.51-35-3.22a262.31,262.31,0,0,0-41.4.69c-1.83.17-3.65,0.4-5.49,0.64s-3.7.53-5.58,0.83c-3.7.59-7.49,1.34-11.29,2.11-7.62,1.54-15.4,3.31-23.42,4.69A129,129,0,0,1,349,43.79a108.45,108.45,0,0,1-12.64-1c-4.19-.62-8.35-1.33-12.56-1.91-8.4-1.24-16.9-2.31-25.42-3.19l-3.19-.29c-1.08-.09-2.15-0.18-3.16-0.23a49.23,49.23,0,0,0-6.29.18,123.06,123.06,0,0,0-12.66,1.88c-8.43,1.63-16.79,3.74-25.23,5.59-4.23.91-8.44,1.79-12.82,2.32a127.17,127.17,0,0,1-12.94.75,119.69,119.69,0,0,1-12.86-.61,123.31,123.31,0,0,1-12.58-2,234.14,234.14,0,0,1-23.88-6.81c-7.7-2.51-15.22-4.91-22.71-6.6a119.63,119.63,0,0,0-22.2-2.93c-14.65-.54-28.44,1.9-41.12,4.37S62.45,38.31,52,39.84a237.26,237.26,0,0,1-27.24,2.49c-7.59.18-13.55,0-17.62-.18-2-.08-3.57-0.22-4.62-0.28l-1.58-.11a1,1,0,0,1,.13-2h0Z" transform="translate(0)"/><path class="cls-1" d="M270.19,44c1.48,0.38,1.48,1.82,2.46,2.84,2.42,2.46,5.12,0,7.87.64-1.17-2.08-2.77-5-5.52-4.61a10.93,10.93,0,0,0-2.56.93,3.57,3.57,0,0,1-2.39,0" transform="translate(0)"/><path class="cls-1" d="M270.24,45.56c0.35,1.66-1.08,2.36-1.61,3.84-1.26,3.6,2.46,5.1,3.22,8.12,1.49-2.18,3.57-5.19,1.87-7.74a12.09,12.09,0,0,0-2.18-2.08,4,4,0,0,1-1.17-2.37" transform="translate(0)"/><path class="cls-1" d="M297.54,23a6.5,6.5,0,0,0-1,3.69c0,0.32.72,4.08,1.2,3.76,2-1.31,3.8-2.31,4.92-4.51s1.28-4.8,1.65-7.25c-0.47.14-.94,0.27-1.39,0.44A10.59,10.59,0,0,0,297.54,23Z" transform="translate(0)"/><path class="cls-1" d="M496.65,39.57l0.6,0.05c-0.21-1.79-.24-4-1-5.63a8.73,8.73,0,0,0-2.54-3.52c-2.67-2.08-7.08-2.29-9.89-1.34,0.12,0.35.05,1.13,0.21,1.48a17.07,17.07,0,0,0,5.12,6.07A15.17,15.17,0,0,0,496.65,39.57Z" transform="translate(0)"/><path class="cls-2" d="M493.26,31A13.38,13.38,0,0,0,490,29.82c-0.29-.08-4-1.12-4.86-0.91a0.13,0.13,0,0,0-.1,0c-0.33.11-.13,1.26-0.1,1.49a15.6,15.6,0,0,0,.44,2.66,12.81,12.81,0,0,0,3,5.12A25.71,25.71,0,0,0,493,41.44c1.3,0.79,2.7,1.43,4,2.17-0.1-2,0-4-.08-5.92,0-.1,0-0.2,0-0.3A9.13,9.13,0,0,0,493.26,31Zm0.32,1.79a9.68,9.68,0,0,1,1.91,3.44,20.5,20.5,0,0,1,.16,5.57c-1-.68-2.21-1.07-3.24-1.74a16.28,16.28,0,0,1-3.29-2.72A9.4,9.4,0,0,1,487,34.23a15.22,15.22,0,0,0-.7-2,9.4,9.4,0,0,1-.58-2.29c1.56,0.44,3.17.69,4.74,1a5.8,5.8,0,0,1,2.56,1.27A3.81,3.81,0,0,1,493.58,32.81Z" transform="translate(0)"/><path class="cls-1" d="M476.75,42.84a7.27,7.27,0,0,0-4-1.4c-0.35,0-4.61.44-4.3,1,1.28,2.32,2.24,4.44,4.6,5.89s5.24,1.86,7.94,2.48c-0.11-.53-0.22-1.07-0.37-1.59C479.81,46.63,478.68,44.27,476.75,42.84Z" transform="translate(0)"/><path class="cls-1" d="M469.66,50.08a6.25,6.25,0,0,0-.89-3.57c-0.15-.27-2.49-3.12-2.75-2.63-1.07,2-2.14,3.7-2.07,6.08s1.13,4.65,2,6.88c0.33-.33.67-0.66,1-1A10.19,10.19,0,0,0,469.66,50.08Z" transform="translate(0)"/><path class="cls-3" d="M501.47,15.29a3.46,3.46,0,0,0,.14-0.36,2.06,2.06,0,0,0-1.27.17c-0.27.08-.53,0.17-0.79,0.27l-0.34.12a6.65,6.65,0,0,0,0-1,2,2,0,0,0-.13-1,0.13,0.13,0,0,0-.11-0.13,1,1,0,0,0-.51.21l-0.76.37a5.72,5.72,0,0,0-.53.23,3.32,3.32,0,0,0-.31-0.89c-0.14-.33-0.21-0.73-0.37-1a0.11,0.11,0,0,0-.14-0.15c-1,.54-1.73,2.13-2,3.18a2.85,2.85,0,0,0,.93,3.07,3.76,3.76,0,0,0,1.4.46,3.12,3.12,0,0,0,1.44-.06,4.76,4.76,0,0,0,2.51-2.07A10.46,10.46,0,0,0,501.47,15.29Z" transform="translate(0)"/><path class="cls-3" d="M435.33,43.84a4.89,4.89,0,0,0-.44.29,2.84,2.84,0,0,0,1.57.8c0.36,0.12.73,0.22,1.11,0.32L438,45.39a9,9,0,0,0-.83,1.15,2.69,2.69,0,0,0-.61,1.2,0.18,0.18,0,0,0,0,.23,1.39,1.39,0,0,0,.74.16c0.39,0,.77.11,1.15,0.18,0.09,0,.46.12,0.78,0.15a4.52,4.52,0,0,0-.35,1.25c-0.1.48-.34,1-0.39,1.47a0.15,0.15,0,0,0,0,.28c1.6,0.22,3.63-1,4.75-2a3.93,3.93,0,0,0,1.36-4.2,5.15,5.15,0,0,0-1.21-1.62,4.29,4.29,0,0,0-1.67-1.06,6.55,6.55,0,0,0-4.46.36A14.29,14.29,0,0,0,435.33,43.84Z" transform="translate(0)"/><path class="cls-1" d="M439.86,17c-0.94,4.82-5.69,10.58-12.14,11.06C427,19.31,434.87,19.65,439.86,17" transform="translate(0)"/><path class="cls-2" d="M432.78,25.68a17,17,0,0,0,4.38-5.84c0.58-1.4,1.39-3.29,1.06-4.85a15.85,15.85,0,0,1-5.55,3,10.21,10.21,0,0,0-4.43,2.91c-1.34,1.73-1.22,4-1.19,6,0,0.61-.23,1.19-0.21,1.8a4,4,0,0,0,.76,0C429.56,28.5,431.46,26.92,432.78,25.68Zm-4.66,1.75c0.2-2.08-.38-4.22,1.16-6,1.13-1.27,2.86-1.76,4.33-2.5a18.9,18.9,0,0,1,3.65-1.76c-0.83,1.93-1.59,4.16-3.23,5.58-1.3,1.13-2.61,2.25-3.89,3.4C430,26.3,428.08,27.83,428.12,27.43Z" transform="translate(0)"/><path class="cls-1" d="M415.57,28.45c2.09,1.2,4.27,2.25,6.47,3.24s4.44,1.91,6.7,2.77a83.13,83.13,0,0,0,13.86,4.08,32.82,32.82,0,0,0,7.1.64,59.17,59.17,0,0,0,7.14-.82A58.94,58.94,0,0,0,470.55,34c4.41-2,8.61-4.41,12.84-6.82,2.12-1.2,4.27-2.35,6.5-3.37a28.54,28.54,0,0,1,7-2.26,19.15,19.15,0,0,1,7.4.11,23.88,23.88,0,0,1,6.92,2.68c0.54,0.31,1.06.64,1.58,1a10.27,10.27,0,0,1,1.49,1.22,15,15,0,0,1,2.39,3,5.68,5.68,0,0,1,.77,1.9,4.28,4.28,0,0,1-.24,2.12,3.72,3.72,0,0,1-1.27,1.81,1.84,1.84,0,0,1-1.38.33A2.14,2.14,0,0,1,513.4,35l0,0,0-.06A2.27,2.27,0,0,1,513,33.3a3.32,3.32,0,0,1,.56-1.34,6.24,6.24,0,0,1,1.9-1.73,9.36,9.36,0,0,1,9.48-.07,11.94,11.94,0,0,1,3.6,3.26c0.25,0.33.45,0.63,0.7,1s0.39,0.62.58,1a11,11,0,0,1,.85,2.32,12.7,12.7,0,0,1,.16,4.85,15.25,15.25,0,0,1-4.33,8.45,11.07,11.07,0,0,1-4.12,2.59,8.51,8.51,0,0,1-2.46.43,8.64,8.64,0,0,1-2.45-.35,8.22,8.22,0,0,1-4.16-2.59,6.6,6.6,0,0,1-1.54-4.68,6.07,6.07,0,0,1,.69-2.42,6.52,6.52,0,0,1,1.61-1.91,5,5,0,0,1,2.3-1.1,4.19,4.19,0,0,1,2.55.4,3.66,3.66,0,0,1,1.77,1.88,3.53,3.53,0,0,1,0,2.57A3,3,0,0,1,520,47a3,3,0,0,1-1.16.66,2.85,2.85,0,0,1-2.52-.38l0.41-.57a2.11,2.11,0,0,0,1.86.2,2.23,2.23,0,0,0,.81-0.49,2.09,2.09,0,0,0,.51-0.81,2.62,2.62,0,0,0-.08-1.9,2.67,2.67,0,0,0-1.35-1.33,3.17,3.17,0,0,0-1.91-.26,3.86,3.86,0,0,0-1.77.9,4.89,4.89,0,0,0-1.82,3.55,5.36,5.36,0,0,0,1.32,3.79,6.92,6.92,0,0,0,3.54,2.11,6.42,6.42,0,0,0,4.09-.14A9.85,9.85,0,0,0,525.41,50a13.71,13.71,0,0,0,3.86-7.59,11.11,11.11,0,0,0-.15-4.25,10.37,10.37,0,0,0-.7-2,10.22,10.22,0,0,0-.53-1c-0.16-.26-0.39-0.59-0.59-0.87a10.43,10.43,0,0,0-3.12-2.88,7.89,7.89,0,0,0-8,0,4.86,4.86,0,0,0-1.47,1.31,1.21,1.21,0,0,0-.22,1.36l-0.08-.1a0.78,0.78,0,0,0,.38.26,0.45,0.45,0,0,0,.35-0.1,2.51,2.51,0,0,0,.79-1.13,3,3,0,0,0,.21-1.46,4.49,4.49,0,0,0-.57-1.46,13.84,13.84,0,0,0-2.12-2.75,9,9,0,0,0-1.3-1.12c-0.49-.34-1-0.67-1.5-1a22.94,22.94,0,0,0-6.56-2.72,18.19,18.19,0,0,0-7.08-.27c-4.74.78-9.1,3.1-13.28,5.51s-8.34,5-12.76,7.13a64.25,64.25,0,0,1-6.78,2.84,52.6,52.6,0,0,1-7.12,1.91,50,50,0,0,1-7.33.86,34.11,34.11,0,0,1-7.39-.69,84.31,84.31,0,0,1-14.07-4.19q-3.42-1.31-6.74-2.88c-2.21-1-4.39-2.16-6.5-3.42Z" transform="translate(0)"/><circle class="cls-1" cx="516.94" cy="46.43" r="1.11" transform="translate(243.88 487.81) rotate(-63.39)"/><path class="cls-4" d="M490.53,9.82a5.49,5.49,0,0,0-.33-0.46,3,3,0,0,0-.8,1.7c-0.11.39-.21,0.79-0.3,1.19,0,0.16-.09.33-0.12,0.51a9.47,9.47,0,0,0-1.25-.85,2.85,2.85,0,0,0-1.3-.61,0.19,0.19,0,0,0-.25,0,1.49,1.49,0,0,0-.15.79c0,0.41-.09.82-0.15,1.23a8.42,8.42,0,0,0-.14.84,4.84,4.84,0,0,0-1.34-.34c-0.51-.09-1.07-0.33-1.58-0.37a0.16,0.16,0,0,0-.3.06c-0.18,1.72,1.24,3.84,2.31,5a4.19,4.19,0,0,0,4.53,1.32,5.52,5.52,0,0,0,1.69-1.35,4.6,4.6,0,0,0,1.08-1.82A7,7,0,0,0,491.6,12,15.3,15.3,0,0,0,490.53,9.82Z" transform="translate(0)"/><path class="cls-2" d="M489.51,19l-0.59.24a2.93,2.93,0,0,1-1.56.14,5.6,5.6,0,0,1-2.77-1.65c-1.4-1.52-2.74-3.67-2.36-5.86a9,9,0,0,1,2.38.46,9.18,9.18,0,0,0,.89.29A11.81,11.81,0,0,1,486,10l0.11-.38,0.36,0.17L486.93,10a16.16,16.16,0,0,1,1.86,1,17.34,17.34,0,0,1,.91-3l0.2-.5,0.36,0.4a6.69,6.69,0,0,1,.51.65,12.36,12.36,0,0,1,1.14,2.17,7.19,7.19,0,0,1,.55,5,4.92,4.92,0,0,1-1.16,2A5.87,5.87,0,0,1,489.51,19Zm-6.6-6.4a6.81,6.81,0,0,0,2.18,4.68,3.84,3.84,0,0,0,4.37,1.13,5.64,5.64,0,0,0,1.42-1.07c1.76-1.64,1.28-4.28.41-6.29a11.68,11.68,0,0,0-1.08-2.05l-0.1-.14a17,17,0,0,0-.76,2.82l-0.1.56-0.45-.36a11.3,11.3,0,0,0-2.17-1.21l-0.1,0a9.06,9.06,0,0,0-.36,2.41l0,0.39-0.39,0a6.24,6.24,0,0,1-1.42-.39A4.86,4.86,0,0,0,482.91,12.55Z" transform="translate(0)"/><path class="cls-1" d="M182,23.64a5.69,5.69,0,0,0,3,1.44c0.27,0,3.63.06,3.43-.41-0.8-1.92-1.36-3.65-3.07-5s-3.92-1.9-6-2.62c0,0.42.08,0.85,0.15,1.27A9.27,9.27,0,0,0,182,23.64Z" transform="translate(0)"/><path class="cls-4" d="M182,64.93a5,5,0,0,0,.48.21,2.79,2.79,0,0,0-.17-1.73c-0.09-.37-0.21-0.73-0.32-1.09,0-.14-0.09-0.3-0.14-0.46a8.76,8.76,0,0,0,1.39.08,2.64,2.64,0,0,0,1.32-.13,0.18,0.18,0,0,0,.18-0.15,1.38,1.38,0,0,0-.26-0.7c-0.17-.34-0.32-0.69-0.46-1,0-.08-0.15-0.44-0.29-0.73a4.43,4.43,0,0,0,1.22-.37c0.45-.17,1-0.24,1.43-0.45a0.15,0.15,0,0,0,.21-0.18c-0.67-1.45-2.8-2.46-4.2-2.87a3.87,3.87,0,0,0-4.21,1.1,5.09,5.09,0,0,0-.7,1.87,4.23,4.23,0,0,0,0,2,6.46,6.46,0,0,0,2.67,3.5A14.09,14.09,0,0,0,182,64.93Z" transform="translate(0)"/><path class="cls-3" d="M231.6,25.88a5.15,5.15,0,0,0,.22-0.49,2.86,2.86,0,0,0-1.77.17c-0.37.1-.75,0.21-1.12,0.33l-0.47.15a9.15,9.15,0,0,0,.08-1.43,2.71,2.71,0,0,0-.13-1.35,0.18,0.18,0,0,0-.15-0.18,1.41,1.41,0,0,0-.71.27c-0.35.17-.71,0.32-1.07,0.47-0.09,0-.45.15-0.75,0.29a4.55,4.55,0,0,0-.38-1.25c-0.17-.46-0.25-1-0.46-1.46a0.15,0.15,0,0,0-.19-0.21c-1.48.69-2.52,2.87-3,4.3a4,4,0,0,0,1.12,4.32,5.23,5.23,0,0,0,1.91.72,4.34,4.34,0,0,0,2,0,6.62,6.62,0,0,0,3.6-2.73A14.4,14.4,0,0,0,231.6,25.88Z" transform="translate(0)"/><path class="cls-3" d="M193.94,30.66a4.17,4.17,0,0,0-.16.39,2.23,2.23,0,0,0,1.38-.17c0.29-.08.58-0.18,0.87-0.28l0.37-.12a7.08,7.08,0,0,0,0,1.11,2.11,2.11,0,0,0,.13,1.05,0.14,0.14,0,0,0,.12.14,1.1,1.1,0,0,0,.55-0.22c0.27-.14.55-0.27,0.83-0.39a6.2,6.2,0,0,0,.58-0.24,3.56,3.56,0,0,0,.32,1c0.14,0.36.21,0.8,0.39,1.13a0.12,0.12,0,0,0,.15.16c1.14-.56,1.91-2.29,2.22-3.41a3.09,3.09,0,0,0-1-3.35,4.08,4.08,0,0,0-1.5-.52,3.39,3.39,0,0,0-1.56,0,5.16,5.16,0,0,0-2.75,2.2A11.27,11.27,0,0,0,193.94,30.66Z" transform="translate(0)"/><path class="cls-1" d="M281.32,37.77c-15,10.37-40.37,13-55.49,2.69-11-7.52-22.35-23.76-37.56-15.62-10.56,5.66-13.14,21.28-3.57,29.28,2.69,2.25,8.22,2.91,8.42-2,0.17-4.18-5.39-5.46-8.57-5.21-15.18,1.2-16.72,20.6-2.88,25.34,1.09,0.37,1.57-.11.5-0.52-10.9-4.15-11.13-20.28,1.2-22.7a13.5,13.5,0,0,1,2.93-.2c9,1.25,4.25,8-.22,3.71A13.61,13.61,0,0,1,182.55,48a16.64,16.64,0,0,1-1.32-11.22c2.36-9.27,12.29-13.88,21.11-11.06,6.3,2,11.29,7.25,16.18,11.44,17,14.57,46.06,14.58,64.29.78Z" transform="translate(0)"/><path class="cls-4" d="M218.83,13a6.5,6.5,0,0,0-.29-0.65,3.83,3.83,0,0,0-1.42,1.9c-0.24.46-.46,0.93-0.68,1.4-0.08.19-.19,0.39-0.28,0.6a12.07,12.07,0,0,0-1.34-1.37,3.62,3.62,0,0,0-1.46-1.09,0.24,0.24,0,0,0-.32,0,1.88,1.88,0,0,0-.38.95c-0.15.5-.32,1-0.5,1.49a10.49,10.49,0,0,0-.38,1,6.1,6.1,0,0,0-1.58-.75c-0.61-.24-1.24-0.68-1.86-0.86a0.2,0.2,0,0,0-.38,0c-0.65,2.08.57,5.07,1.6,6.79a5.3,5.3,0,0,0,5.28,2.77A7,7,0,0,0,217.29,24a5.8,5.8,0,0,0,1.8-2,8.85,8.85,0,0,0,.53-6A19.31,19.31,0,0,0,218.83,13Z" transform="translate(0)"/><path class="cls-2" d="M216.14,24.1c-0.26.06-.52,0.11-0.79,0.15a3.71,3.71,0,0,1-2-.21,7.07,7.07,0,0,1-3-2.74c-1.35-2.24-2.47-5.24-1.45-7.85,0.09-.22,2.64,1,2.84,1.16a11.37,11.37,0,0,0,1,.58A15,15,0,0,1,214,12.1l0.24-.45,0.4,0.31,0.52,0.39A20.45,20.45,0,0,1,217.26,14a22,22,0,0,1,1.87-3.45L219.5,10l0.35,0.59a8.08,8.08,0,0,1,.47.93,15.57,15.57,0,0,1,.87,3,9.1,9.1,0,0,1-.57,6.31A6.21,6.21,0,0,1,218.7,23,7.41,7.41,0,0,1,216.14,24.1Zm-6.57-9.59c-0.43,1.82.08,3.95,1.53,6.34a4.85,4.85,0,0,0,5.13,2.5,7.12,7.12,0,0,0,2-1c2.6-1.59,2.66-5,2.09-7.69a14.8,14.8,0,0,0-.82-2.81l-0.09-.2a21.46,21.46,0,0,0-1.65,3.3l-0.27.67-0.46-.56a14.3,14.3,0,0,0-2.38-2L214.57,13a11.44,11.44,0,0,0-1,2.9l-0.08.49L213,16.2a7.86,7.86,0,0,1-1.66-.84A6.13,6.13,0,0,0,209.57,14.51Z" transform="translate(0)"/><path class="cls-5" d="M384.53,10.73a7.75,7.75,0,0,1,6.24.27,5.47,5.47,0,0,1,2.77,4.14,4.69,4.69,0,0,1-1.79,4.54,4.37,4.37,0,0,1-3.56.43,2,2,0,0,1-1.2-2.6" transform="translate(0)"/><ellipse class="cls-1" cx="387.66" cy="17.79" rx="1.31" ry="1.36" transform="matrix(0.07, -1, 1, 0.07, 343.05, 403.29)"/><path class="cls-1" d="M178.73,69.87l0.39,0.2c0.25,0.12.64,0.35,1.11,0.54a15.49,15.49,0,0,0,1.73.67,16,16,0,0,0,2.33.56c0.43,0.09.89,0.1,1.35,0.16a14,14,0,0,0,1.45,0,10.35,10.35,0,0,0,3-.6,8.7,8.7,0,0,0,2.81-1.54,6.65,6.65,0,0,0,1.1-1.15l0.26-.37c0.08-.12.11-0.22,0.17-0.33a4.49,4.49,0,0,0,.31-0.71,8.84,8.84,0,0,0,.51-3.22,6,6,0,0,0-.83-2.91,3,3,0,0,0-.92-0.93,5.68,5.68,0,0,0-.58-0.24c-0.22,0-.4-0.1-0.64-0.12a3.55,3.55,0,0,0-2.35.64,2.44,2.44,0,0,0-1,1.76,1.76,1.76,0,0,0,.56,1.39,1.42,1.42,0,0,0,.89.42,1.29,1.29,0,0,0,.33,0l0.12,0.87a2.4,2.4,0,0,1-.55,0A2.77,2.77,0,0,1,189,64.3a2.67,2.67,0,0,1-1-2,3.53,3.53,0,0,1,1.17-2.61,4.78,4.78,0,0,1,3.16-1.2,6.74,6.74,0,0,1,.94.09,6.12,6.12,0,0,1,1,.32,4.57,4.57,0,0,1,1.55,1.34A7.08,7.08,0,0,1,197,64a9.17,9.17,0,0,1-.61,4,6.13,6.13,0,0,1-.45,1c-0.09.16-.18,0.33-0.27,0.47l-0.27.37A8.32,8.32,0,0,1,194,71.21a10.39,10.39,0,0,1-3.39,1.8,11.74,11.74,0,0,1-3.49.52,15.57,15.57,0,0,1-1.62-.07c-0.52-.08-1-0.13-1.49-0.25a14.12,14.12,0,0,1-2.49-.79,16.18,16.18,0,0,1-1.81-.88c-0.5-.26-0.82-0.52-1.07-0.67l-0.37-.24Z" transform="translate(0)"/><path class="cls-1" d="M33,42c-0.33.24-.71,0.52-1.16,0.82a49.46,49.46,0,0,1-7,4.09A41.73,41.73,0,0,1,19.71,49a17,17,0,0,1-6.29.86,10.89,10.89,0,0,1-6.54-2.71A8.17,8.17,0,0,1,4.75,44a9.68,9.68,0,0,1-.61-3.69,12.59,12.59,0,0,1,.66-3.57,10.91,10.91,0,0,1,1.68-3.22,8.9,8.9,0,0,1,.6-0.7l0.12-.12,0.07-.07,0.15-.14,0.3-.28a10,10,0,0,1,4.72-2.33,9.52,9.52,0,0,1,6.43,1,7.84,7.84,0,0,1,3.36,4.77,6.65,6.65,0,0,1,.1,2.62,5,5,0,0,1-.13.61l0,0.15c0,0.11,0,.1-0.05.16L22,39.41a6.23,6.23,0,0,1-.52,1.05,6.47,6.47,0,0,1-2.82,2.47,5.43,5.43,0,0,1-2.36.48,3.86,3.86,0,0,1-.63-0.06l-0.22,0,0.11-.65h0.19a3.25,3.25,0,0,0,.55,0,4.81,4.81,0,0,0,2-.57,5.44,5.44,0,0,0,2.22-2.22A5,5,0,0,0,20.85,39l0.07-.26a0.79,0.79,0,0,0,0-.1l0-.12A3.86,3.86,0,0,0,21,38.07,5.72,5.72,0,0,0,20.82,36,6.3,6.3,0,0,0,18,32.31a7.76,7.76,0,0,0-5.18-.5,8.27,8.27,0,0,0-2.58,1.07,7.44,7.44,0,0,0-1.11.85L8.86,34l-0.15.14-0.07.07,0,0,0,0,0,0a6.79,6.79,0,0,0-.44.54,10,10,0,0,0-1.76,5.54,6.65,6.65,0,0,0,2.08,5,8.74,8.74,0,0,0,5.06,2.08A15.36,15.36,0,0,0,19,46.79,39.73,39.73,0,0,0,23.93,45c2.27-1,4.21-2,5.73-2.84Z" transform="translate(0)"/><path class="cls-1" d="M526.81,31.47l0.3,0.37a10.18,10.18,0,0,0,.84.92A11.34,11.34,0,0,0,529.47,34,11.76,11.76,0,0,0,538,35.74a12.38,12.38,0,0,0,3.4-1.14,8.29,8.29,0,0,0,2.81-2.29A6.3,6.3,0,0,0,545.47,29a6.43,6.43,0,0,0-.66-3.39,5.46,5.46,0,0,0-2.17-2.33,4,4,0,0,0-2.75-.29,5.2,5.2,0,0,0-2.19,1.06,3.32,3.32,0,0,0-1.05,1.45,2.26,2.26,0,0,0-.09,1.1,2,2,0,0,0,.09.39,0.44,0.44,0,0,1-.81.33l0,0a2.79,2.79,0,0,1-.13-0.52,3.15,3.15,0,0,1,.11-1.53,5.24,5.24,0,0,1,3.89-3.16,5,5,0,0,1,3.43.34,6.46,6.46,0,0,1,2.63,2.73,7.43,7.43,0,0,1-.62,7.85,9.46,9.46,0,0,1-3.17,2.66,13.06,13.06,0,0,1-13.21-.58A12.74,12.74,0,0,1,527,33.74a11.73,11.73,0,0,1-1-1l-0.3-.36a0.69,0.69,0,1,1,1.05-.88h0Z" transform="translate(0)"/><circle class="cls-1" cx="537.13" cy="26.95" r="1.31" transform="translate(502.18 563.62) rotate(-89.15)"/><path class="cls-6" d="M462.41,9.26a9.13,9.13,0,0,0-3.32,12.47A9.13,9.13,0,0,0,471.8,24c1.61-1.62.94-2.17,0-2.52-2.11,0-3.44,2.73-2.61,4.66S472.31,29,474.41,29a16.6,16.6,0,0,0,6-1.7,15.32,15.32,0,0,1,6.07-1.6" transform="translate(0)"/><path class="cls-6" d="M134.93,30.17a8.78,8.78,0,0,0-9-.83,13.39,13.39,0,0,0-4.7,4.38c-1.26,1.76-2.33,3.65-3.68,5.35a11.11,11.11,0,0,1-5.1,3.86,5.89,5.89,0,0,1-6-1.28c-1.48-1.58-1.52-4.44.2-5.76a4,4,0,0,1,5.33.9,5.41,5.41,0,0,1,.27,5.68,8.63,8.63,0,0,1-4.51,3.78c-2.86,1.15-4.86,1.09-7.93.77C98,46.84,91,44.39,89.15,44.52" transform="translate(0)"/></svg>