<svg id="WW_Vines_1C_CMYK" xmlns="http://www.w3.org/2000/svg" viewBox="0 0 547.79 73.54"><defs><style>.cls-1{fill:#e8247f;}</style></defs><title>Vines_5</title><path class="cls-1" d="M563.89,56.36h0l-1.56,0c-1,0-2.56-.1-4.56-0.25-2.56-.2-5.89-0.58-9.9-1.14,0-.19-0.06-0.38-0.1-0.57a11.7,11.7,0,0,0-.7-2c0.41,0.2.84,0.4,1.31,0.58A13.07,13.07,0,0,0,559,52.25a9.46,9.46,0,0,0,3.17-2.66,7.41,7.41,0,0,0,1.44-3.91,7.49,7.49,0,0,0-.82-3.94A6.46,6.46,0,0,0,560.19,39a5,5,0,0,0-3.43-.34,5.24,5.24,0,0,0-3.89,3.16,3.15,3.15,0,0,0-.11,1.53,2.8,2.8,0,0,0,.13.52l0,0A0.43,0.43,0,0,0,553,44a1.31,1.31,0,1,0,1.24-1.79,1.29,1.29,0,0,0-.57.13,2.3,2.3,0,0,1,.07-0.26,3.33,3.33,0,0,1,1.05-1.45A5.2,5.2,0,0,1,557,39.59a4,4,0,0,1,2.75.29,5.46,5.46,0,0,1,2.17,2.33,6.43,6.43,0,0,1,.66,3.39,6.3,6.3,0,0,1-1.27,3.31,8.3,8.3,0,0,1-2.81,2.29,12.39,12.39,0,0,1-3.4,1.14,11.77,11.77,0,0,1-8.52-1.77,11,11,0,0,1-1.38-1.09,13,13,0,0,0-1.07-1.15l-0.21-.26h0a0.67,0.67,0,0,0-.32-0.2A10.51,10.51,0,0,0,542,46.74a9.32,9.32,0,0,0-8.19-.56l-0.06-.1a15.06,15.06,0,0,0-2.39-3,10.3,10.3,0,0,0-1.49-1.22c-0.52-.34-1-0.67-1.58-1a23.87,23.87,0,0,0-6.92-2.68,19.14,19.14,0,0,0-7.4-.11,28.53,28.53,0,0,0-7,2.26c-1.07.49-2.11,1-3.15,1.55a0.4,0.4,0,0,0-.21-0.07h-0.13a16.25,16.25,0,0,0-6.15,1.65,16.19,16.19,0,0,1-5.85,1.65c-1.81,0-4-.77-4.83-2.64a2.52,2.52,0,0,1-.12-0.33,8.47,8.47,0,0,0,2.63-1.36c0.85-.86,1.19-1.54,1.06-2.12a1.69,1.69,0,0,0-1.2-1.08l-0.15,0h0a3.11,3.11,0,0,0-2.58,1.51,4.22,4.22,0,0,0-.68,2.47,9,9,0,0,1-3.49.05,8.3,8.3,0,0,1-5.61-3.57,8.71,8.71,0,0,1,3.17-11.88,0.42,0.42,0,0,0-.39-0.74,9,9,0,0,0,2.68,17,9.77,9.77,0,0,0,3.76-.05,3.22,3.22,0,0,0,.16.45c0.94,2.18,3.42,3.14,5.5,3.14h0.11a16.92,16.92,0,0,0,6.2-1.73,19.57,19.57,0,0,1,4.52-1.46c-0.58.32-1.17,0.63-1.75,1-1.68,1-3.35,1.91-5,2.84-5.45-.69-11.16-1.29-17.13-1.71a214.43,214.43,0,0,0-42.13,1c-0.5.06-1,.14-1.51,0.21l-0.46-.25c-4.62-2.92-8.61-3.54-12.21-2.85a5.34,5.34,0,0,0,1.64-2.37c0.45-1.36.7-5.09-.19-6.3-1.19,1.68-3.57,3.27-4.46,5.08a6.48,6.48,0,0,0-.31,4.62c-3.43,1.45-6.56,3.9-9.63,6.33l-1.85,1.45c-5.52,1.36-11.1,2.75-16.78,3.93q-2.68.55-5.39,1c-3.11-.7-6.2-1.57-9.27-2.55,3.95-1.1,6.29-5.26,8.71-9.6,0.82-1.48,1.67-3,2.61-4.46l0.48-.74a10.14,10.14,0,0,1,4.66,2.39c1.29,1.17,3.08,4.39,5.17,4,2.37-.48,1.79-3.67.58-5-1.51-1.61-3.91-2-6-2.2a14.83,14.83,0,0,0-4,.16,27.58,27.58,0,0,1,13.8-11h0l0,0.1a7.2,7.2,0,0,1,5.74.23A4.82,4.82,0,0,1,410,31.8a4.08,4.08,0,0,1-1.52,3.94,3.74,3.74,0,0,1-3,.37,1.6,1.6,0,0,1-.6-0.46,1.31,1.31,0,0,0,1.19-1.18,1.33,1.33,0,0,0-1.26-1.4,1.35,1.35,0,0,0-1.31.74h0a2.28,2.28,0,0,0-.05,1.83A2.89,2.89,0,0,0,405,37.26a3.88,3.88,0,0,0,1.46.25,5,5,0,0,0,2.69-.74,5.26,5.26,0,0,0,2.06-5.13A6.07,6.07,0,0,0,408.14,27a8.32,8.32,0,0,0-6.42-.4,0.62,0.62,0,0,0-.42,0,36.88,36.88,0,0,0-3.79,1.75,7.12,7.12,0,0,0,1.66-4.11c0.1-1.82-.88-6.5-2.38-7.69-0.89,2.48-3.27,5.24-3.76,7.77s0.3,4.11,1.28,6A28.56,28.56,0,0,0,387,38c-0.3-2.33-.55-4.93-3.06-6-1.47-.6-2,0.65-1.57,1.9a6.1,6.1,0,0,0,2.29,2.55,11.9,11.9,0,0,1,2,2l-0.67,1c-1,1.5-1.82,3-2.65,4.53-3,5.41-5.54,9.9-10.89,9.14-2.32-.78-4.62-1.59-6.9-2.4l-3.2-1.12A6.41,6.41,0,0,0,367,47.88c1-1,2.83-4.28,2.56-5.77-1.8,1-4.63,1.41-6.22,2.65a6.81,6.81,0,0,0-2.36,4.35,116.33,116.33,0,0,0-19-5.21c2-1.16,4.1-2.42,4.06-5,0-1.59-1.39-1.59-2.37-.69a6.1,6.1,0,0,0-1.44,3.11,12.36,12.36,0,0,1-.92,2.52,51.87,51.87,0,0,0-13.88-.39,54.87,54.87,0,0,0-10.44,2.29,8.54,8.54,0,0,0,2.85-3.13c1.15-2.26,1.28-4.8,1.64-7.25-0.47.14-.94,0.27-1.39,0.44a10.59,10.59,0,0,0-5.41,3.85,6.5,6.5,0,0,0-1,3.69,18.06,18.06,0,0,0,.77,3.24,88.2,88.2,0,0,0-10.27,4.56l-1.5.1a125.82,125.82,0,0,0-13,1.81c-8.54,1.58-17,3.63-25.34,5.39l-0.58.12c-0.36-.12-0.71-0.23-1.06-0.37a14.38,14.38,0,0,1-5.51-3.88,9.81,9.81,0,0,1-2.47-5.86,5.67,5.67,0,0,1,.64-2.91,7.15,7.15,0,0,1,1.93-2.16,6.2,6.2,0,0,1,4.93-1.44,3.65,3.65,0,0,1,3,2.74A2.88,2.88,0,0,1,264,47.46a1.91,1.91,0,0,1-1,.32,1.19,1.19,0,0,0,.28-0.75,1.21,1.21,0,0,0-2.42,0,1.19,1.19,0,0,0,.12.51h0a1.78,1.78,0,0,0,.74.81,2.62,2.62,0,0,0,2.73-.14,3.75,3.75,0,0,0,1.57-3.69A4.55,4.55,0,0,0,262.42,41a7.1,7.1,0,0,0-5.69,1.61,8,8,0,0,0-2.18,2.45,6.62,6.62,0,0,0-.75,3.36,10.74,10.74,0,0,0,2.68,6.45,15.24,15.24,0,0,0,5.51,4c-3.4.68-6.81,1.31-10.17,1.69l-1.72.14A34,34,0,0,1,242.9,57c-11-7.49-22.25-23.6-37.35-15.72a0.09,0.09,0,0,0,0-.08c-0.8-1.92-1.36-3.65-3.07-5s-3.92-1.9-6-2.62c0,0.42.08,0.85,0.15,1.27a9.28,9.28,0,0,0,2.42,5.29,5.69,5.69,0,0,0,3,1.44,14.4,14.4,0,0,0,3.12-.17,18.23,18.23,0,0,0-8.83,11.65l-5.31-1.78c-3.83-1.3-7.65-2.59-11.49-3.77s-7.69-2.22-11.54-3.1c-3.39-.79-6.77-1.4-10.15-1.86a4.53,4.53,0,0,0-.44-2c-0.72-1.44-2.27-2-3-.23a4.93,4.93,0,0,0-.35,1.77q-4.58-.46-9.12-0.55l-1.54,0c-1.65-.67-3.33-1.3-5-1.84a73.11,73.11,0,0,0-21.37-3c-0.07-2-.12-3.65-1.58-5.34s-4.28-2.64-6-4.06c-0.6,1.49.65,5.29,1.49,6.57a7.06,7.06,0,0,0,4.73,2.83A161.17,161.17,0,0,0,98.19,37.9l-0.87.1A130.67,130.67,0,0,0,80.4,40.63a12.21,12.21,0,0,1-5.54-3c-1.52-1.45-3.57-5.4-6.11-5-2.88.51-2.28,4.37-.86,6,1.77,2,4.65,2.51,7.16,2.85a16.87,16.87,0,0,0,1.95.13A48.24,48.24,0,0,0,65.17,47.1l-1.61,1.06a4.72,4.72,0,0,0,.4-2.84c-0.27-1.67-1.79-3.52-2.34-5.17-1,.76-1.72,3.81-1.69,5a4.27,4.27,0,0,0,.32,1.51,5.8,5.8,0,0,0-2.15-1.29c-2-.7-5-0.11-7.2-0.48,0.24,1.59,3.24,4.23,4.61,4.91a7.09,7.09,0,0,0,5.57,0L61,49.89a96.78,96.78,0,0,1-10.75,6.7L50,56.73c-2.91.2-5.66,0.32-8.21,0.41-1.15,0-2.25,0-3.32.06L38.58,57A6.21,6.21,0,0,0,39.1,56l0.09-.26c0-.06,0-0.05.05-0.16l0-.15a5.07,5.07,0,0,0,.13-0.61,6.64,6.64,0,0,0-.1-2.62,7.84,7.84,0,0,0-3.36-4.77,9.52,9.52,0,0,0-6.43-1,10,10,0,0,0-4.72,2.33l-0.3.28-0.15.14-0.07.07-0.11.12a8.87,8.87,0,0,0-.6.7,10.9,10.9,0,0,0-1.68,3.22,12.82,12.82,0,0,0-.64,3.29l-1.5-.12-1.58-.13h0a1,1,0,0,0-.13,2l1.58,0.11,1.73,0.12a9.27,9.27,0,0,0,.51,2A8.18,8.18,0,0,0,24,63.71a10.89,10.89,0,0,0,6.54,2.71,17,17,0,0,0,6.29-.86,41.84,41.84,0,0,0,5.09-2.09,49.52,49.52,0,0,0,7-4.09c0.44-.3.83-0.58,1.16-0.82l-3.34.17c-1.52.85-3.45,1.84-5.73,2.84a39.77,39.77,0,0,1-4.88,1.8,15.36,15.36,0,0,1-5.49.67A8.75,8.75,0,0,1,25.58,62a6.33,6.33,0,0,1-1.87-3.24l0.51,0C26.89,58.89,30.4,59,34.64,59a4.66,4.66,0,0,1-1.24.26,3.18,3.18,0,0,1-.55,0H32.66l-0.11.65,0.22,0a3.84,3.84,0,0,0,.63.06,5.44,5.44,0,0,0,2.36-.48,6.64,6.64,0,0,0,.9-0.51q2.44,0,5.17-.08a237.27,237.27,0,0,0,27.24-2.49c10.45-1.53,22.1-4.05,34.79-6.59A248.39,248.39,0,0,1,129,46a2.28,2.28,0,0,0,1.49,2.2c1.94,0.81,4.2-1.29,6-2.68q3.35-.12,6.76-0.05l-0.32.13A13.54,13.54,0,0,0,138,50.07c-0.52.72-1,1.46-1.48,2.2-0.69,1.05-1.4,2.14-2.19,3.13A11,11,0,0,1,129.84,59a5.76,5.76,0,0,0-.45-5.85,4.61,4.61,0,0,0-3-1.7A3.71,3.71,0,0,0,122,55a4.73,4.73,0,0,0,1.2,3.57A6,6,0,0,0,128,60.23a9.12,9.12,0,0,1-3.33,2.23c-2.85,1.15-4.82,1-7.73.75a37,37,0,0,1-4.17-1.05c-2.66-.76-5.42-1.54-6.56-1.46a0.42,0.42,0,1,0,.06.83c1-.09,3.93.76,6.28,1.43A35.85,35.85,0,0,0,116.85,64a29.89,29.89,0,0,0,3.06.2,12.89,12.89,0,0,0,5.06-1A9.48,9.48,0,0,0,129.21,60l0.46-.13a11.42,11.42,0,0,0,5.3-4c0.81-1,1.54-2.13,2.23-3.19,0.48-.73,1-1.46,1.46-2.17a12.77,12.77,0,0,1,4.55-4.25,8,8,0,0,1,2.88-.78l2.39,0.13c0.25,0.05.5,0.12,0.75,0.19l2.27,1.08,0.25,0.16a0.41,0.41,0,0,0,.24.08l1.42,0.69c2.89,1.41,5.86,2.84,8.88,4.13a6.47,6.47,0,0,0-4.08,1.73c-1.56,1.48-2.43,4.41-3.77,6.16,1.52,0.52,5.25-.91,6.49-1.8a5.47,5.47,0,0,0,1.42-1.53c0.32,1.69,1.79,3.55,2.33,5.21,1-.77,1.81-3.9,1.79-5.14A5.35,5.35,0,0,0,164.8,53c0.76,0.3,1.53.61,2.3,0.88,9.65,3.43,18.48,2.82,27.71,2.7l1,0.33a17.54,17.54,0,0,0,1.31,7.57c-9.76,3.82-10.66,17-1.8,22.71h0l0.37,0.24c0.25,0.15.57,0.41,1.07,0.67a16.45,16.45,0,0,0,1.81.88,14.21,14.21,0,0,0,2.49.79c0.47,0.12,1,.16,1.49.25a15.46,15.46,0,0,0,1.62.07,11.74,11.74,0,0,0,3.49-.52,10.41,10.41,0,0,0,3.39-1.8,8.34,8.34,0,0,0,1.43-1.46L212.8,86c0.09-.14.18-0.31,0.27-0.47a6.14,6.14,0,0,0,.45-1,9.17,9.17,0,0,0,.61-4,7.08,7.08,0,0,0-1.26-3.77,4.57,4.57,0,0,0-1.55-1.34,6.18,6.18,0,0,0-1-.32,6.88,6.88,0,0,0-.94-0.09,4.79,4.79,0,0,0-3.16,1.2,3.53,3.53,0,0,0-1.17,2.61,2.67,2.67,0,0,0,1,2,2.77,2.77,0,0,0,1.34.61,2.33,2.33,0,0,0,.55,0l-0.12-.87a1.25,1.25,0,0,1-.33,0,1.42,1.42,0,0,1-.89-0.42,1.76,1.76,0,0,1-.56-1.39,2.44,2.44,0,0,1,1-1.76,3.55,3.55,0,0,1,2.35-.64c0.24,0,.42.09,0.64,0.12a5.74,5.74,0,0,1,.58.24,3,3,0,0,1,.92.94,6,6,0,0,1,.83,2.91,8.84,8.84,0,0,1-.51,3.22,4.47,4.47,0,0,1-.31.71c-0.06.11-.1,0.21-0.17,0.33l-0.26.37a6.69,6.69,0,0,1-1.1,1.15A8.69,8.69,0,0,1,207.18,88a10.35,10.35,0,0,1-3,.6,13.93,13.93,0,0,1-1.45,0c-0.47-.06-0.92-0.07-1.35-0.16a16.07,16.07,0,0,1-2.33-.56,15.47,15.47,0,0,1-1.73-.67c-0.47-.19-0.85-0.42-1.1-0.54-7.17-5.26-6.9-16.87,1.86-20.35a16.3,16.3,0,0,0,3.7,4.4c2.69,2.25,8.22,2.91,8.42-2,0.17-4.18-5.39-5.46-8.57-5.21a16.6,16.6,0,0,0-2.33.36,17.1,17.1,0,0,1-1.42-6.29c5.17,1.6,10.46,3.1,15.9,4.26a123.3,123.3,0,0,0,12.58,2,119.67,119.67,0,0,0,12.86.61,127.15,127.15,0,0,0,12.94-.75c0.94-.12,1.87-0.25,2.8-0.4A56.93,56.93,0,0,0,288.13,61c0.68,0.61.86,1.62,1.6,2.39,2.42,2.46,5.12,0,7.87.64-1.17-2.08-2.77-5-5.52-4.61a4.81,4.81,0,0,0-.6.14,48.59,48.59,0,0,0,5.47-3q2.16-1.27,4.38-2.5l1.53-.16a49.27,49.27,0,0,1,6.29-.18c1,0.05,2.08.14,3.16,0.23l3.19,0.29c8.52,0.87,17,1.94,25.42,3.19,4.21,0.58,8.37,1.29,12.56,1.91a108.51,108.51,0,0,0,12.64,1A122.58,122.58,0,0,0,388,58.63c1.12,0.2,2.25.38,3.37,0.52a15.51,15.51,0,0,0,4.75-.14c0.45,2,1.19,3.84,2.94,4.89,1.23,0.74,4.82,1.78,6.2,1.18-1.39-1.53-2.42-4.19-4-5.45a5.54,5.54,0,0,0-2.85-1.2,24.9,24.9,0,0,0,5.68-2.84c3.43-.72,6.83-1.44,10.19-2.12,3.8-.77,7.59-1.52,11.29-2.11,1.88-.29,3.76-0.62,5.58-0.83s3.65-.47,5.49-0.64c0.88-.09,1.75-0.16,2.63-0.24q3,1.4,6.1,2.59a84.36,84.36,0,0,0,14.07,4.19,34.12,34.12,0,0,0,7.39.69,50,50,0,0,0,7.33-.86,52.51,52.51,0,0,0,7.12-1.91,64.26,64.26,0,0,0,6.78-2.84c0.94-.45,1.86-0.93,2.77-1.42q6.91,0.58,13.3,1.29a16.92,16.92,0,0,0,2.12,1.87,15.17,15.17,0,0,0,7.47,2.9l0.6,0.05c-0.13-1.14-.2-2.44-0.41-3.67,10.06,1.31,18.86,2.58,26.15,3.62,2.29,0.33,4.42.61,6.41,0.85a11.08,11.08,0,0,1-.13,2,13.7,13.7,0,0,1-3.86,7.59A9.85,9.85,0,0,1,539,68.9a6.41,6.41,0,0,1-4.09.14,6.92,6.92,0,0,1-3.54-2.11A5.36,5.36,0,0,1,530,63.15a4.88,4.88,0,0,1,1.82-3.55,3.86,3.86,0,0,1,1.77-.9,3.18,3.18,0,0,1,1.91.26,2.67,2.67,0,0,1,1.35,1.33,2.62,2.62,0,0,1,.08,1.9,2.09,2.09,0,0,1-.51.81,2.23,2.23,0,0,1-.8.49,2.27,2.27,0,0,1-.72.11,1,1,0,0,0,.08-0.1,1.11,1.11,0,1,0-1.49.49,1.06,1.06,0,0,0,.19.05,2.9,2.9,0,0,0,2.18.19,3,3,0,0,0,1.15-.66,2.94,2.94,0,0,0,.73-1.09,3.52,3.52,0,0,0,0-2.57A3.66,3.66,0,0,0,536,58a4.2,4.2,0,0,0-2.55-.4,5,5,0,0,0-2.3,1.1,6.5,6.5,0,0,0-1.61,1.91,6.07,6.07,0,0,0-.69,2.42,6.6,6.6,0,0,0,1.54,4.68,8.22,8.22,0,0,0,4.16,2.59,8.66,8.66,0,0,0,2.45.35,8.52,8.52,0,0,0,2.46-.43,11.07,11.07,0,0,0,4.12-2.59,15.25,15.25,0,0,0,4.33-8.45,12.63,12.63,0,0,0,.15-2c3.83,0.45,7,.75,9.54.92,2,0.13,3.61.21,4.67,0.21l1.61,0A1,1,0,0,0,563.89,56.36ZM487,39.59a2.32,2.32,0,0,1,1.81-1.13,0.91,0.91,0,0,1,.61.45c0,0.12,0,.51-0.8,1.32a7.44,7.44,0,0,1-2.18,1.14A3.39,3.39,0,0,1,487,39.59ZM24.34,56.83l-0.83-.05a10,10,0,0,1,1.74-5.4,6.86,6.86,0,0,1,.45-0.54l0,0h0l0.06-.06,0.15-.14,0.29-.28a7.48,7.48,0,0,1,1.11-.85,8.28,8.28,0,0,1,2.58-1.07,7.76,7.76,0,0,1,5.18.5,6.3,6.3,0,0,1,2.8,3.67,5.72,5.72,0,0,1,.21,2.09,3.86,3.86,0,0,1-.07.49l0,0.12a0.7,0.7,0,0,1,0,.1l-0.07.26a4.92,4.92,0,0,1-.34.84,5.23,5.23,0,0,1-.48.74C31.78,57.23,27.47,57,24.34,56.83Zm104.63,2q-0.12.22-.25,0.44A5.32,5.32,0,0,1,123.83,58a3.88,3.88,0,0,1-1-2.93A3,3,0,0,1,124,52.8a2.94,2.94,0,0,1,1.81-.58,3.69,3.69,0,0,1,.47,0,3.77,3.77,0,0,1,2.46,1.38A5,5,0,0,1,129,58.87Zm74.41,6.55c9,1.25,4.25,8-.22,3.71a15.6,15.6,0,0,1-3-3.45l0.25-.06A13.49,13.49,0,0,1,203.38,65.41ZM533.23,48.17a3,3,0,0,1-.21,1.46,2.51,2.51,0,0,1-.79,1.13,0.45,0.45,0,0,1-.35.1,0.73,0.73,0,0,1-.33-0.21,1.24,1.24,0,0,1,.24-1.31,4.79,4.79,0,0,1,1.41-1.27S533.23,48.14,533.23,48.17Zm-243,7.61c2.47-.48,4.94-0.91,7.42-1.26l-1.64.67a67.92,67.92,0,0,1-8.06,2.56,66.79,66.79,0,0,1-11.81,1.85c-1.26.08-2.56,0.13-3.86,0.13C278.24,58.35,284.2,56.95,290.2,55.78ZM103.32,47.33C97,48.82,91,50.22,85.21,51.47S74,53.73,68.78,54.55,58.74,56,54.22,56.4l-0.56,0c2.73-1.59,5.46-3.45,8.18-5.3,1.46-1,2.86-1.94,4.16-2.78a46.79,46.79,0,0,1,12.1-5.56c-2.46,2-4.91,4.17-4.37,7.73,0.35,2.3,2.35,2,3.59.53s1.25-3.13,1.47-4.82a18.2,18.2,0,0,1,.84-3.87,79.06,79.06,0,0,1,9.48-1.86c-2.21,1.74-4.71,3.62-4.22,6.84,0.29,1.89,1.92,1.68,2.94.44a7.36,7.36,0,0,0,1.21-4,14,14,0,0,1,.79-3.42c2.46-.33,5-0.62,7.67-0.92l0.87-.1c3.47-.39,7.24-0.75,11.16-1-0.09.06-.18,0.12-0.27,0.19-0.92.77-2.73,3.34-2.62,4.6,1.59-.68,4-0.78,5.42-1.68a5.51,5.51,0,0,0,2.28-3.26,77,77,0,0,1,22.32,2.56,9.14,9.14,0,0,0-5.72,1.31l-0.16.13c-2.56.27-5.08,0.6-7.55,1C116.26,44.4,109.64,45.86,103.32,47.33Zm50.76-.84-0.87-.42q1.29,0.14,2.6.31c0.38,0.52.78,1,1.18,1.51Zm13.53,6a104.47,104.47,0,0,1-9.83-4.19,10.21,10.21,0,0,1-.11-1.63q4.74,0.7,9.51,1.77c7.49,1.69,15,4.09,22.71,6.6l0.45,0.15C182.82,55.28,175.46,55.25,167.61,52.46Zm71.6,8.73a116.31,116.31,0,0,1-12.48-.74,119.8,119.8,0,0,1-12.2-2.11c-5.54-1.24-11-2.87-16.3-4.6,0-.12,0-0.25.07-0.37,2.36-9.27,12.29-13.88,21.11-11.06,6.3,2,11.29,7.25,16.18,11.44a43.47,43.47,0,0,0,11.93,7.18C244.75,61.12,242,61.23,239.22,61.2Zm18.58,1.63c2.41-.44,4.8-0.93,7.18-1.45l3.67-.83,0.67,0.07a49.11,49.11,0,0,0,6.87,0,67.79,67.79,0,0,0,12-1.85c2.2-.54,4.13-1.14,5.75-1.69A58.84,58.84,0,0,1,257.79,62.82Zm108.35-4.34a83.63,83.63,0,0,1-12.41-.86c-4.14-.62-8.34-1.3-12.52-2-8.39-1.38-16.85-2.85-25.43-3.86l-3.23-.36c-1.06-.11-2.14-0.23-3.28-0.29-0.72,0-1.44,0-2.15,0a63.51,63.51,0,0,1,20.38-6.38,45.39,45.39,0,0,1,5.15-.29,10.2,10.2,0,0,1,3.85,4c0.82,1.54,1.39,5.18,3.5,5.49,2.39,0.36,2.94-2.84,2.24-4.46-0.87-2-3-3.2-4.88-4.11a14.35,14.35,0,0,0-2.31-.86c10.26,0.49,20.3,4,30.08,7.49l2.42,0.85a15.63,15.63,0,0,0,4.66,1.6c3.15,1.06,6.34,2.05,9.54,2.89A110.28,110.28,0,0,1,366.15,58.48ZM392,57.94c2.72-.48,5.4-1,8.07-1.54A15.47,15.47,0,0,1,392,57.94Zm38.56-11.21c-1.9.28-3.74,0.66-5.62,1-3.8.74-7.55,1.6-11.36,2.5l-3.43.83c6.71-5.29,13.12-10.13,22.52-4.7Zm57.08,3.86a58.94,58.94,0,0,1-13.72,4.36,59.09,59.09,0,0,1-7.14.82,32.83,32.83,0,0,1-7.1-.64A83.12,83.12,0,0,1,445.82,51c-1.35-.52-2.7-1.07-4-1.63A272.33,272.33,0,0,1,478,49.2q5.62,0.31,10.94.75C488.53,50.16,488.09,50.38,487.63,50.59Zm25.9-1.3-0.91-.15a7.53,7.53,0,0,0-1.79-2.09c-2.67-2.08-7.08-2.29-9.89-1.34,0.12,0.35.05,1.13,0.21,1.48l0.1,0.2-4.51-.62c1.36-.8,2.72-1.6,4.09-2.38,4.18-2.41,8.54-4.73,13.28-5.51a18.19,18.19,0,0,1,7.08.27,22.94,22.94,0,0,1,6.56,2.72c0.51,0.31,1,.63,1.49,1a9,9,0,0,1,1.3,1.12,13.88,13.88,0,0,1,2.12,2.75v0l-0.15.08a6.24,6.24,0,0,0-1.9,1.73,3.32,3.32,0,0,0-.56,1.34,2.27,2.27,0,0,0,.34,1.59l0,0.06,0,0a2.14,2.14,0,0,0,1.15.67,1.84,1.84,0,0,0,1.38-.33,3.72,3.72,0,0,0,1.27-1.81,4.28,4.28,0,0,0,.24-2.12,4.36,4.36,0,0,0-.12-0.48,8,8,0,0,1,2.86-.55,7.87,7.87,0,0,1,4,1.08,10.43,10.43,0,0,1,3.12,2.88c0.21,0.28.43,0.62,0.6,0.87a10.41,10.41,0,0,1,.53,1,10.29,10.29,0,0,1,.69,1.95c-1.81-.26-3.72-0.55-5.78-0.88C533,52.67,523.94,51,513.53,49.29Z" transform="translate(-17.08 -16.59)"/><path class="cls-1" d="M288.62,64.28a4,4,0,0,1-1.17-2.37l-0.12.24c0.35,1.66-1.08,2.36-1.61,3.84-1.26,3.6,2.46,5.1,3.22,8.12,1.49-2.18,3.57-5.19,1.87-7.74A12.09,12.09,0,0,0,288.62,64.28Z" transform="translate(-17.08 -16.59)"/><path class="cls-1" d="M493.83,59.42a7.27,7.27,0,0,0-4-1.4c-0.35,0-4.61.44-4.3,1,1.28,2.32,2.24,4.44,4.6,5.89s5.24,1.86,7.94,2.48c-0.11-.53-0.22-1.07-0.37-1.59C496.89,63.22,495.76,60.85,493.83,59.42Z" transform="translate(-17.08 -16.59)"/><path class="cls-1" d="M483.1,60.48c-1.07,2-2.15,3.7-2.07,6.08s1.13,4.65,2,6.88c0.33-.33.67-0.66,1-1a10.19,10.19,0,0,0,2.79-5.76,6.26,6.26,0,0,0-.89-3.57C485.69,62.84,483.36,60,483.1,60.48Z" transform="translate(-17.08 -16.59)"/><path class="cls-1" d="M512.38,35a3.76,3.76,0,0,0,1.4.46,3.12,3.12,0,0,0,1.44-.06,4.76,4.76,0,0,0,2.51-2.07,10.38,10.38,0,0,0,.83-1.4,3.63,3.63,0,0,0,.14-0.36,2.06,2.06,0,0,0-1.27.17c-0.27.08-.53,0.17-0.79,0.27l-0.34.12a6.54,6.54,0,0,0,0-1,2,2,0,0,0-.13-1,0.13,0.13,0,0,0-.11-0.13,1,1,0,0,0-.51.21l-0.76.37c-0.06,0-.32.12-0.53,0.23a3.28,3.28,0,0,0-.31-0.89c-0.14-.33-0.21-0.73-0.37-1a0.11,0.11,0,0,0-.14-0.15c-1,.54-1.73,2.13-2,3.18A2.85,2.85,0,0,0,512.38,35Z" transform="translate(-17.08 -16.59)"/><path class="cls-1" d="M460.57,60.2a4.3,4.3,0,0,0-1.67-1.06,6.55,6.55,0,0,0-4.46.36,14.29,14.29,0,0,0-2,.93,5,5,0,0,0-.44.29,2.83,2.83,0,0,0,1.57.8c0.36,0.12.73,0.22,1.11,0.32L455.12,62a9,9,0,0,0-.83,1.15,2.68,2.68,0,0,0-.61,1.2,0.18,0.18,0,0,0,0,.23,1.39,1.39,0,0,0,.74.16c0.39,0,.77.11,1.15,0.18,0.09,0,.46.12,0.78,0.15a4.51,4.51,0,0,0-.35,1.25c-0.1.48-.34,1-0.39,1.47a0.15,0.15,0,0,0,0,.28c1.6,0.22,3.63-1,4.75-2a3.93,3.93,0,0,0,1.36-4.2A5.17,5.17,0,0,0,460.57,60.2Z" transform="translate(-17.08 -16.59)"/><path class="cls-1" d="M456.94,33.55c-5,2.69-12.83,2.35-12.14,11.06C451.25,44.12,456,38.37,456.94,33.55Z" transform="translate(-17.08 -16.59)"/><path class="cls-1" d="M506.45,36.46a5.52,5.52,0,0,0,1.69-1.35,4.6,4.6,0,0,0,1.08-1.82,7,7,0,0,0-.54-4.75,15.3,15.3,0,0,0-1.07-2.14,5.25,5.25,0,0,0-.33-0.46,3,3,0,0,0-.8,1.7c-0.11.39-.21,0.79-0.3,1.19,0,0.16-.09.33-0.12,0.51a9.54,9.54,0,0,0-1.25-.85,2.86,2.86,0,0,0-1.3-.61,0.19,0.19,0,0,0-.25,0,1.49,1.49,0,0,0-.14.79c0,0.41-.09.82-0.15,1.23a8.37,8.37,0,0,0-.14.84,4.81,4.81,0,0,0-1.34-.34c-0.51-.09-1.07-0.33-1.58-0.37a0.16,0.16,0,0,0-.3.06c-0.18,1.72,1.24,3.84,2.31,5A4.19,4.19,0,0,0,506.45,36.46Z" transform="translate(-17.08 -16.59)"/><path class="cls-1" d="M203.45,75a0.15,0.15,0,0,0,.21-0.18c-0.67-1.45-2.8-2.46-4.2-2.87a3.87,3.87,0,0,0-4.21,1.1,5.1,5.1,0,0,0-.7,1.87,4.24,4.24,0,0,0,0,2,6.46,6.46,0,0,0,2.67,3.51,14.07,14.07,0,0,0,1.86,1.19,5,5,0,0,0,.48.21,2.79,2.79,0,0,0-.17-1.73c-0.09-.37-0.2-0.73-0.32-1.09,0-.14-0.09-0.31-0.14-0.46a8.86,8.86,0,0,0,1.39.08,2.64,2.64,0,0,0,1.32-.13,0.18,0.18,0,0,0,.18-0.15,1.37,1.37,0,0,0-.26-0.7c-0.17-.35-0.32-0.69-0.46-1,0-.08-0.15-0.44-0.29-0.73a4.45,4.45,0,0,0,1.22-.37C202.48,75.24,203,75.17,203.45,75Z" transform="translate(-17.08 -16.59)"/><path class="cls-1" d="M239.95,46.39a5.22,5.22,0,0,0,1.91.72,4.34,4.34,0,0,0,2,0,6.61,6.61,0,0,0,3.59-2.73,14.43,14.43,0,0,0,1.22-1.9A5.07,5.07,0,0,0,248.9,42a2.86,2.86,0,0,0-1.77.17c-0.37.1-.75,0.21-1.12,0.33l-0.47.15a9.09,9.09,0,0,0,.08-1.43,2.71,2.71,0,0,0-.13-1.35,0.18,0.18,0,0,0-.15-0.18,1.41,1.41,0,0,0-.71.27c-0.35.17-.71,0.32-1.07,0.47-0.09,0-.45.15-0.75,0.29a4.56,4.56,0,0,0-.38-1.25c-0.17-.46-0.25-1-0.46-1.46a0.15,0.15,0,0,0-.19-0.21c-1.48.69-2.52,2.87-3,4.3A4,4,0,0,0,239.95,46.39Z" transform="translate(-17.08 -16.59)"/><path class="cls-1" d="M217.75,44a4.08,4.08,0,0,0-1.5-.52,3.39,3.39,0,0,0-1.56,0,5.16,5.16,0,0,0-2.75,2.2,11.25,11.25,0,0,0-.92,1.51,4,4,0,0,0-.16.39,2.23,2.23,0,0,0,1.38-.17c0.29-.08.58-0.18,0.86-0.28l0.37-.12a7.1,7.1,0,0,0,0,1.11,2.11,2.11,0,0,0,.13,1.05,0.14,0.14,0,0,0,.12.14,1.1,1.1,0,0,0,.55-0.22c0.27-.14.55-0.27,0.83-0.39,0.07,0,.35-0.13.58-0.24a3.55,3.55,0,0,0,.32,1c0.14,0.36.21,0.8,0.39,1.13a0.12,0.12,0,0,0,.15.16c1.14-.56,1.91-2.29,2.22-3.41A3.09,3.09,0,0,0,217.75,44Z" transform="translate(-17.08 -16.59)"/><path class="cls-1" d="M231.95,41.79a7,7,0,0,0,2.43-1.25,5.81,5.81,0,0,0,1.8-2,8.84,8.84,0,0,0,.53-6,19.33,19.33,0,0,0-.78-2.92,6.66,6.66,0,0,0-.29-0.65,3.83,3.83,0,0,0-1.42,1.9c-0.24.46-.46,0.93-0.68,1.4-0.08.19-.19,0.39-0.28,0.6a12.05,12.05,0,0,0-1.34-1.37,3.61,3.61,0,0,0-1.46-1.09,0.24,0.24,0,0,0-.32,0,1.88,1.88,0,0,0-.38.95c-0.15.5-.32,1-0.5,1.49a10.61,10.61,0,0,0-.38,1,6.09,6.09,0,0,0-1.58-.75c-0.61-.24-1.24-0.68-1.86-0.86a0.2,0.2,0,0,0-.38,0c-0.65,2.08.57,5.07,1.6,6.79A5.3,5.3,0,0,0,231.95,41.79Z" transform="translate(-17.08 -16.59)"/></svg>