<svg id="WW_New_Violators_CMYK" xmlns="http://www.w3.org/2000/svg" viewBox="0 0 98.32 79.84"><defs><style>.cls-1{fill:#e8247f;}.cls-2{fill:#fff;}</style></defs><title>Violator_1</title><path class="cls-1" d="M111.85,79.6a4.21,4.21,0,0,0,1-4.76c-0.4-.93-0.84-1.84-1.29-2.75s-0.75-1.53-1.09-2.32-1.81-1.35-2.53-1.78c0.15-.77,1-1.68.82-2.55A5.36,5.36,0,0,0,106,62.09a35.82,35.82,0,0,0,.37-5.22,21.87,21.87,0,0,0-.16-2.31c0.07-.88.11-1.75,0.13-2.61s0-1.7,0-2.51a26.63,26.63,0,0,0-.91-6.22c-1.57-5.69-5-9.88-9.29-13.28-0.45-.58-0.93-1.13-1.42-1.66s-1-1-1.52-1.53A24.38,24.38,0,0,0,89,23c-0.33-.25-0.67-0.49-1-0.73a21.78,21.78,0,0,0-2.79-1.81q-1.28-.76-2.59-1.41a43.42,43.42,0,0,0-19.57-4.42c-2.84,0-5.78.06-8.73,0.3-6.49.53-13,1.93-18.68,5.42a47.3,47.3,0,0,0-5.91,4.22q-0.68.58-1.34,1.21a30.09,30.09,0,0,0-3.71,4.29q-0.55.77-1.09,1.56a45,45,0,0,0-6,12.05,38.56,38.56,0,0,0-1.42,6.75,24.15,24.15,0,0,0-1.26,7.28,26.44,26.44,0,0,0,.87,7.2,27.8,27.8,0,0,0,1.13,3.42q0.34,0.83.73,1.64a27,27,0,0,0,5,7.19,32.75,32.75,0,0,0,9.07,7,49.76,49.76,0,0,0,11.16,6.53q0.86,0.36,1.73.7c9.25,3.53,18.51,3.69,28.06,2.15A41.61,41.61,0,0,0,78,92.35q0.89-.27,1.77-0.58A45.12,45.12,0,0,0,86,89c-0.21-.18.58-0.08,1.32,0a5,5,0,0,0,.57,1.39C89.41,93,92.33,93,93.58,93.05h0.24c0.44,0,.89.08,1.33,0.13a22.46,22.46,0,0,0,2.63.19,10.8,10.8,0,0,0,2.54-.28,4.18,4.18,0,0,0,2.93-2.58h0.22c3.19,0,5-2.67,6-4.11l0.25-.36,0.16-.22c0.88-1.17,2.5-3.35,2.05-6C111.89,79.78,111.87,79.69,111.85,79.6Z" transform="translate(-14.86 -14.68)"/><path class="cls-2" d="M85.35,81.32A46.86,46.86,0,0,1,53.1,86.81a57.38,57.38,0,0,1-13-4.85c-4.34-2.1-7.88-5.41-11.48-8.78-7-6.51-9.84-18.3-6.35-27.8C25.72,39,31.36,33.82,36.87,30.3,45.4,24.86,54.19,21.85,64,22.43a19.78,19.78,0,0,1,5.29.43c4.51,1.16,9.15,1.45,13.52,3.42a61.38,61.38,0,0,1,9.31,4.78q1.5,1.78,2.84,3.71c4.09,7.68,5,16.3,3.48,25.24L96.54,71.19c0.25-.13,1.61-4.91,1.88-5,0-.21.78-6.55,0.81-6.77a63,63,0,0,0,.7-9.91,29.62,29.62,0,0,0-1.31-8.43c0.23,0.48.46,1,.68,1.45a42.85,42.85,0,0,1,3.07,11.26c-0.12,2-.54,8.93-0.87,10.9a3.09,3.09,0,0,0,1.33.38c0.2-1.59,1.32-9.62.63-11.69,0.06-1.23.07-2.45,0-3.6-0.28-8.46-4.19-14-9.55-18.25a27.48,27.48,0,0,0-2.75-3,22.82,22.82,0,0,0-3.94-3.47c-0.31-.23-0.63-0.46-0.95-0.68a20.39,20.39,0,0,0-2.61-1.69A40.11,40.11,0,0,0,63,17.24c-8.5,0-18,.6-25.65,5.36a33.16,33.16,0,0,0-10.26,9.1,44.5,44.5,0,0,0-6.68,12.74,36.11,36.11,0,0,0-1.33,6.32c-3,8.94,0,18.87,6.07,25a30.65,30.65,0,0,0,8.49,6.53,46.77,46.77,0,0,0,12.07,6.77c8.65,3.31,18.39,3.19,27.31,1.61a43.81,43.81,0,0,0,17.8-7.42l0-.25c-3.9,1.64-9.84,5.33-15.47,6.42-4.74.92-10.49,1.81-14.6,1.68A43,43,0,0,1,47,88.57a59.51,59.51,0,0,1-7.19-3.29c2.56,0.95,5.2,1.64,7.74,2.54,7.89,2.78,16.82,2.67,24.88,1.1a64.5,64.5,0,0,0,14.72-5.28s-0.87-.09-0.92-0.08c-17.12,6.81-23.85,5.79-29.22,5-7.12-1-16.74-3.5-24.56-8.26a37.52,37.52,0,0,1-8.32-9.51,32.63,32.63,0,0,1-4.5-14.67,25.34,25.34,0,0,1,.15-4.77q0.2-.69.42-1.37a29.18,29.18,0,0,0-.34,3c-0.3,5.05,1.24,9.13,3,13.61,1.54,4,5.39,8.08,8.44,10.51,3.37,3.06,7.29,4.81,11.06,7s8.38,3.21,12.44,4a34.64,34.64,0,0,0,12.39.34A46.56,46.56,0,0,0,76.6,86.4L77,86.26l0.55-.17c2-.7,8.27-3.5,8.32-3.48Zm17.21-34.16c0,0.77,0,1.53,0,2.29l-0.06-.36c-0.75-4.6-3.35-9.71-5.81-13.37l-0.42-.63c-0.22-.44-0.46-0.87-0.7-1.28C98.88,37,102.61,42,102.56,47.16ZM72,19.79c5,1.48,10.32,3,14.88,6,1.15,1,2.23,2,3.21,3q-1-.64-2.07-1.24A37.88,37.88,0,0,0,74.91,23c-4.46-.59-8.79-1.69-13.33-1.69-4.15,0-9.3.13-13.16,2.12-4.35,1.75-9.24,3.7-13,6.91-1.7,1.46-3.58,2.64-5.29,4.07a38.45,38.45,0,0,0-4.52,4.7c-0.28.33-.54,0.66-0.81,1A58.83,58.83,0,0,1,31.31,31c3.24-3.81,8.15-6,12.32-8.09C52.21,18.66,62.86,18.27,72,19.79ZM22.89,40.38A34.2,34.2,0,0,1,43.75,20.81a46.48,46.48,0,0,1,12.45-2.38A61.57,61.57,0,0,0,45.1,21.32a43.21,43.21,0,0,0-12.25,7c-3.66,2.43-6.3,7-8.69,10.87a29.08,29.08,0,0,0-2.87,6.27Q21,46,20.76,46.57A62.16,62.16,0,0,1,22.89,40.38ZM19.1,59.54c0.62,4.53,2.65,10.23,5.47,13.58a52.14,52.14,0,0,0,3.52,4.16C22,72.32,18,65.52,18.83,56.4,18.88,57.45,19,58.5,19.1,59.54Z" transform="translate(-14.86 -14.68)"/><path class="cls-2" d="M90.18,72.74c0.91,0.94,1.77,1.94,2.76,2.8h0a0.22,0.22,0,0,0,.33-0.06,0.16,0.16,0,0,0,0-.17c-0.23-1.08,1.39-.76,1.93-0.06,0.12,0.16,0-.17.06-0.33,0.09-.68-0.11-1.82.87-2.09,0.11,0,.25.06,0.23-0.05a22.47,22.47,0,0,0-1.13-3.67A7.8,7.8,0,0,0,94,66.41c-1-1-2.6.19-3.53,0.81-1.14.76-2.69,1.75-2.12,3.31A7.4,7.4,0,0,0,90.18,72.74ZM91,67.36c1-.63,2.05-1.36,3-0.16a11,11,0,0,1,1.11,2.69c0.32,0.87,1,2,.51,2.89a5.52,5.52,0,0,0-.58.6,2.73,2.73,0,0,0-.14,1.06c-0.85-.73-2-0.64-2.07.44-0.54-.52-1-1.08-1.57-1.63a14.39,14.39,0,0,1-1.92-2C88,69.12,89.68,68.19,91,67.36Z" transform="translate(-14.86 -14.68)"/><path class="cls-2" d="M96.52,73a18.81,18.81,0,0,1,.65,3.12,0.21,0.21,0,0,0,.35.1c0.79-.63,2.07-0.83,2.75-1.5a24.64,24.64,0,0,0,2.94-4.54c0.8-1.31,2.86-3.57.84-4.58-1.47-.73-4-1.72-5.46-0.42-1.78,1.62-2.17,5.48-2.08,7.71A0.18,0.18,0,0,0,96.52,73Zm1.31-5.55c0.47-1.35.61-1.94,2.11-2.36a5,5,0,0,1,3.77.91c1.51,1.52-.44,3.31-1.3,4.66a29.33,29.33,0,0,1-2,3.12A5.78,5.78,0,0,1,98.48,75c-1.14.66-.76,1-1.05-0.43a10.11,10.11,0,0,0-.5-1.67,14.45,14.45,0,0,1,.56-4.29C97.59,68.19,97.69,67.79,97.83,67.41Z" transform="translate(-14.86 -14.68)"/><path class="cls-2" d="M94.61,78.39c-0.47,0-2.29.45-1.89-.85,0,0,.84-0.51.92-0.57a0.21,0.21,0,0,0,.08-0.11c0-.09.89-0.07,0.79-0.12a0.16,0.16,0,0,0-.15,0,14.26,14.26,0,0,0-8.85,1.15c-1.74,1-.55,2.36,0,3.73s1,4.33,3.12,3.18a12.16,12.16,0,0,0,2.72-2.4,51.81,51.81,0,0,0,3.52-4C95,78.27,94.76,78.39,94.61,78.39Zm-1,1.14q-0.47.53-1,1c-0.49.51-1,1-1.5,1.5-0.84.86-2.1,2.68-3.41,2.34-0.83-.21-0.83-0.79-1.17-1.57s-0.57-1.35-.86-2c-0.45-1-1-1.5.35-2.7a5.34,5.34,0,0,1,1.78-.68,11.88,11.88,0,0,1,5.13-.53,0.92,0.92,0,0,0-.22,1.64C93.3,78.91,94.39,78.6,93.58,79.53Z" transform="translate(-14.86 -14.68)"/><path class="cls-2" d="M98.54,82.9c-0.33-1.81-1.09-2.16-1.72-3.83a2,2,0,0,0-1.06.55l-0.4.15h0c-1.24,1.58-2,3.63-3.05,5.36-0.43.72-1.53,2.29-1,3.22,0.46,0.77,2,.66,2.71.7,1.78,0.1,3.57.56,5.34,0.14A0.21,0.21,0,0,0,99.53,89C99.26,86.95,98.9,84.89,98.54,82.9ZM97.77,89c-1,0-2-.22-2.94-0.3a9.67,9.67,0,0,1-1.36-.06c-1.45-.33-2.26-0.74-1.6-2A51.84,51.84,0,0,1,95.68,80c0.58-.31.83-0.91,1.19-0.19a18.74,18.74,0,0,1,1.21,2.9,16.61,16.61,0,0,1,.62,2.89c0.08,0.67.22,1.39,0.24,2.06C99,88.78,99.08,89,97.77,89Z" transform="translate(-14.86 -14.68)"/><path class="cls-2" d="M107.34,79.65a13.36,13.36,0,0,0-3.46-1.18c0.42-.14.83-0.29,1.26-0.43a15.36,15.36,0,0,0,3.93-1.32,0.22,0.22,0,0,0,.09-0.28c-0.74-1.7-1.62-3.35-2.37-5a0.21,0.21,0,0,0-.23-0.1c-0.84.1-1.74,1.15-2.42,1.61-1.24.85-2.6,1.45-3.86,2.26a0.22,0.22,0,0,0-.09.28,1.54,1.54,0,0,1-.57,2.11h0a0.19,0.19,0,0,0-.1.22c0.24,0.94-.79,1.34-1.33,2a0.18,0.18,0,0,0-.05.09,0.16,0.16,0,0,0,0,0,0.13,0.13,0,0,0,0,0,0.17,0.17,0,0,0,0,.09c1,1.56,2.25,3,3.28,4.5,0.42,0.62.9,1.73,1.71,1.94,1.4,0.36,2.64-1.88,3.31-2.79S108.89,80.69,107.34,79.65Zm-6.45-4.39a6.23,6.23,0,0,1,1.82-1,27.94,27.94,0,0,0,2.94-1.91c0.13-.1.77-0.69,0.8-0.68a6.27,6.27,0,0,1,.58,1.15c0.27,0.58,1.85,3.14,1.44,3.76s-3,.89-3.7,1.12l-1.56.54a10.48,10.48,0,0,0-3-.73h0a4.81,4.81,0,0,0,.59-1.3A1.76,1.76,0,0,1,100.89,75.26Zm-0.21,3.47a2.87,2.87,0,0,1-.41-0.64c0-.1-0.06-0.17-0.09-0.22,0.44-.2,1.6.24,2.42,0.57A6.88,6.88,0,0,1,100.68,78.74Zm3.86,6.71c-1.56,1.25-2.21-.35-2.93-1.4-1-1.39-2.07-2.67-3-4.08a7.57,7.57,0,0,0,1.26-.71,1.48,1.48,0,0,0,.14-0.79L100.39,79l0,0a0.19,0.19,0,0,0,.16.09,7.91,7.91,0,0,0,2.64-.46l0.11,0c1,0.31,3,.55,3.8,1.27C108.37,81.14,105.52,84.66,104.54,85.44Z" transform="translate(-14.86 -14.68)"/><path class="cls-2" d="M99,77.54a2.36,2.36,0,0,0,.73-0.17A1.94,1.94,0,0,0,101,75.85c-0.1-.74-1.14-0.88-1.7-0.85a4.17,4.17,0,0,0-2,.69A4,4,0,0,0,97.4,74a1.74,1.74,0,0,0-.94-1.62A1.15,1.15,0,0,0,95,73.54c-0.21,1.23.44,2,.79,3.05a0.32,0.32,0,0,0,0,.08c-0.74-.25-2.2-0.9-2.45-1.62-0.12-.35-0.69-0.22-0.56.14a3.51,3.51,0,0,0,1.68,1.53c-1.1.08-2.35,0.36-1.83,1.36s1.92,0.6,2.89.05c-0.17.73-.15,1.56,0.58,1.77,0.89,0.26,1-.47,1-1.22,0.91,1,2.47,1.66,2.84,0C100,78.1,99.65,77.84,99,77.54Zm-0.11-2c0.63-.17,1.75-0.14,1.36.79s-1.59.69-2.59,0.45L97,76.58A5.78,5.78,0,0,1,98.94,75.59Zm-2.13-1.54a3.44,3.44,0,0,1-.54,2.33c-0.16.37-.19,0-0.22,0-0.3-.88-0.77-1.56-0.49-2.55C96,72.41,96.67,73,96.81,74.05Zm-2.31,3.89c-0.2,0-2.21.39-1.4-.54,0.25-.28,2.19-0.13,2.64-0.12A2.27,2.27,0,0,1,94.51,77.94Zm1.28,0.73a1.24,1.24,0,0,1,.45-1.07A6.24,6.24,0,0,1,96.52,79C96.29,79.4,95.81,79.41,95.79,78.67Zm2,0.25a5.88,5.88,0,0,1-1-1.58c-0.1-.2-0.1-0.16-0.08-0.19a11.53,11.53,0,0,1,2.05.86C99.58,78.65,98.75,79.75,97.83,78.92Z" transform="translate(-14.86 -14.68)"/><path class="cls-2" d="M90.18,72.74c0.91,0.94,1.77,1.94,2.76,2.8h0a0.22,0.22,0,0,0,.33-0.06,0.16,0.16,0,0,0,0-.17c-0.23-1.08,1.39-.76,1.93-0.06,0.12,0.16,0-.17.06-0.33,0.09-.68-0.11-1.82.87-2.09,0.11,0,.25.06,0.23-0.05a22.47,22.47,0,0,0-1.13-3.67A7.8,7.8,0,0,0,94,66.41c-1-1-2.6.19-3.53,0.81-1.14.76-2.69,1.75-2.12,3.31A7.4,7.4,0,0,0,90.18,72.74ZM91,67.36c1-.63,2.05-1.36,3-0.16a11,11,0,0,1,1.11,2.69c0.32,0.87,1,2,.51,2.89a5.52,5.52,0,0,0-.58.6,2.73,2.73,0,0,0-.14,1.06c-0.85-.73-2-0.64-2.07.44-0.54-.52-1-1.08-1.57-1.63a14.39,14.39,0,0,1-1.92-2C88,69.12,89.68,68.19,91,67.36Z" transform="translate(-14.86 -14.68)"/><path class="cls-2" d="M96.52,73a18.81,18.81,0,0,1,.65,3.12,0.21,0.21,0,0,0,.35.1c0.79-.63,2.07-0.83,2.75-1.5a24.64,24.64,0,0,0,2.94-4.54c0.8-1.31,2.86-3.57.84-4.58-1.47-.73-4-1.72-5.46-0.42-1.78,1.62-2.17,5.48-2.08,7.71A0.18,0.18,0,0,0,96.52,73Zm1.31-5.55c0.47-1.35.61-1.94,2.11-2.36a5,5,0,0,1,3.77.91c1.51,1.52-.44,3.31-1.3,4.66a29.33,29.33,0,0,1-2,3.12A5.78,5.78,0,0,1,98.48,75c-1.14.66-.76,1-1.05-0.43a10.11,10.11,0,0,0-.5-1.67,14.45,14.45,0,0,1,.56-4.29C97.59,68.19,97.69,67.79,97.83,67.41Z" transform="translate(-14.86 -14.68)"/><path class="cls-2" d="M94.61,78.39c-0.47,0-2.29.45-1.89-.85,0,0,.84-0.51.92-0.57a0.21,0.21,0,0,0,.08-0.11c0-.09.89-0.07,0.79-0.12a0.16,0.16,0,0,0-.15,0,14.26,14.26,0,0,0-8.85,1.15c-1.74,1-.55,2.36,0,3.73s1,4.33,3.12,3.18a12.16,12.16,0,0,0,2.72-2.4,51.81,51.81,0,0,0,3.52-4C95,78.27,94.76,78.39,94.61,78.39Zm-1,1.14q-0.47.53-1,1c-0.49.51-1,1-1.5,1.5-0.84.86-2.1,2.68-3.41,2.34-0.83-.21-0.83-0.79-1.17-1.57s-0.57-1.35-.86-2c-0.45-1-1-1.5.35-2.7a5.34,5.34,0,0,1,1.78-.68,11.88,11.88,0,0,1,5.13-.53,0.92,0.92,0,0,0-.22,1.64C93.3,78.91,94.39,78.6,93.58,79.53Z" transform="translate(-14.86 -14.68)"/><path class="cls-2" d="M98.54,82.9c-0.33-1.81-1.09-2.16-1.72-3.83a2,2,0,0,0-1.06.55l-0.4.15h0c-1.24,1.58-2,3.63-3.05,5.36-0.43.72-1.53,2.29-1,3.22,0.46,0.77,2,.66,2.71.7,1.78,0.1,3.57.56,5.34,0.14A0.21,0.21,0,0,0,99.53,89C99.26,86.95,98.9,84.89,98.54,82.9ZM97.77,89c-1,0-2-.22-2.94-0.3a9.67,9.67,0,0,1-1.36-.06c-1.45-.33-2.26-0.74-1.6-2A51.84,51.84,0,0,1,95.68,80c0.58-.31.83-0.91,1.19-0.19a18.74,18.74,0,0,1,1.21,2.9,16.61,16.61,0,0,1,.62,2.89c0.08,0.67.22,1.39,0.24,2.06C99,88.78,99.08,89,97.77,89Z" transform="translate(-14.86 -14.68)"/><path class="cls-2" d="M107.34,79.65a13.36,13.36,0,0,0-3.46-1.18c0.42-.14.83-0.29,1.26-0.43a15.36,15.36,0,0,0,3.93-1.32,0.22,0.22,0,0,0,.09-0.28c-0.74-1.7-1.62-3.35-2.37-5a0.21,0.21,0,0,0-.23-0.1c-0.84.1-1.74,1.15-2.42,1.61-1.24.85-2.6,1.45-3.86,2.26a0.22,0.22,0,0,0-.09.28,1.54,1.54,0,0,1-.57,2.11h0a0.19,0.19,0,0,0-.1.22c0.24,0.94-.79,1.34-1.33,2a0.18,0.18,0,0,0-.05.09,0.16,0.16,0,0,0,0,0,0.13,0.13,0,0,0,0,0,0.17,0.17,0,0,0,0,.09c1,1.56,2.25,3,3.28,4.5,0.42,0.62.9,1.73,1.71,1.94,1.4,0.36,2.64-1.88,3.31-2.79S108.89,80.69,107.34,79.65Zm-6.45-4.39a6.23,6.23,0,0,1,1.82-1,27.94,27.94,0,0,0,2.94-1.91c0.13-.1.77-0.69,0.8-0.68a6.27,6.27,0,0,1,.58,1.15c0.27,0.58,1.85,3.14,1.44,3.76s-3,.89-3.7,1.12l-1.56.54a10.48,10.48,0,0,0-3-.73h0a4.81,4.81,0,0,0,.59-1.3A1.76,1.76,0,0,1,100.89,75.26Zm-0.21,3.47a2.87,2.87,0,0,1-.41-0.64c0-.1-0.06-0.17-0.09-0.22,0.44-.2,1.6.24,2.42,0.57A6.88,6.88,0,0,1,100.68,78.74Zm3.86,6.71c-1.56,1.25-2.21-.35-2.93-1.4-1-1.39-2.07-2.67-3-4.08a7.57,7.57,0,0,0,1.26-.71,1.48,1.48,0,0,0,.14-0.79L100.39,79l0,0a0.19,0.19,0,0,0,.16.09,7.91,7.91,0,0,0,2.64-.46l0.11,0c1,0.31,3,.55,3.8,1.27C108.37,81.14,105.52,84.66,104.54,85.44Z" transform="translate(-14.86 -14.68)"/></svg>