<svg id="WW_New_Violators_CMYK" xmlns="http://www.w3.org/2000/svg" viewBox="0 0 96.51 79.84"><defs><style>.cls-1{fill:#69b94c;}.cls-2{fill:#fff;}</style></defs><title>Violator_2</title><path class="cls-1" d="M226.84,33a32.75,32.75,0,0,0-9.07-7,50,50,0,0,0-12.89-7.23c-9.25-3.53-18.51-3.69-28.06-2.15a44.1,44.1,0,0,0-14.7,5.28,11.78,11.78,0,0,0-3.26-3.19,5.12,5.12,0,0,0-5.34-.19,10.15,10.15,0,0,0-3.22,4.08A35.06,35.06,0,0,0,148.25,33a21,21,0,0,0-5.3,1c-1.68.64-3.78,1.76-4.53,3.4-1.08,2.36.63,6,2.27,8a13.67,13.67,0,0,0,2.75,2.48,36.45,36.45,0,0,0-.4,5.38,21.93,21.93,0,0,0,.16,2.31,48.29,48.29,0,0,0-.12,5.12c0.3,9,4.48,15,10.2,19.5a29.34,29.34,0,0,0,2.94,3.19,26.35,26.35,0,0,0,3.1,2.89q0.55,0.43,1.11.81c0.33,0.25.67,0.49,1,.73s0.89,0.65,1.35,1,0.94,0.58,1.43.85a42.86,42.86,0,0,0,22.16,5.83h0c9.09,0,19.21-.64,27.41-5.73a35.43,35.43,0,0,0,11-9.72,47.55,47.55,0,0,0,7.13-13.62q0.51-1.65.86-3.34t0.56-3.41C236.57,50.15,233.31,39.54,226.84,33Z" transform="translate(-138.08 -15.68)"/><path class="cls-2" d="M146.88,35.85c1-.09,1.93-0.13,2.84-0.16,2.6-.09,4.65.66,5.94,2.17a4.18,4.18,0,0,1,0,5.17l-0.06.07-0.13.61,0,0.1a3.33,3.33,0,0,1-.75,2.55,4.42,4.42,0,0,1-2.92,1.73h-0.22c-3.3.08-6.79-2.4-8.79-4.89a19.57,19.57,0,0,1-2.42-3.52,1.51,1.51,0,0,1-.15-1c0.2-.79,2-1.67,2.72-1.95a14.18,14.18,0,0,1,3.9-.85h0Zm5.2,6.09a5.32,5.32,0,0,0,0-4.31,2.23,2.23,0,0,0-1.62-1.38,10.49,10.49,0,0,0-1.68-.16H148.6a6.26,6.26,0,0,0-.68,0,1.08,1.08,0,0,0-.67.23l0,0,0,0a4.73,4.73,0,0,1,1.07,4.21v0l0,0a7.94,7.94,0,0,0,2.38.89c0.46,0.12.89,0.23,1.28,0.38l0,0Zm-4.14-1.43a5,5,0,0,0-.94-3.6,1.35,1.35,0,0,0-1.12-.42,2.45,2.45,0,0,0-1.19.53l-0.06,0,0.06,0a2.11,2.11,0,0,1,.71,1.34,3.39,3.39,0,0,0,.36,1,2.6,2.6,0,0,0,1.76,1l0.42,0.12V40.51Zm-2.71-.89c0-.62-0.3-2.22-1-2.52a0.65,0.65,0,0,0-.31,0,5.21,5.21,0,0,0-1.4.51,5.09,5.09,0,0,1-.91.37l-0.7.38,0.13,0,1.34,0.45c0.92,0.31,1.87.64,2.81,0.86l0.07,0V39.62ZM155,42.95l0.2,0a1.1,1.1,0,0,0,.68-0.67,4.65,4.65,0,0,0-.21-3.11,4.81,4.81,0,0,0-1.74-1.79,5.39,5.39,0,0,0-1-.47,6.85,6.85,0,0,1-.78-0.33l-0.17-.09,0.25,0.46,0.24,0.45a4.78,4.78,0,0,1,.55,2.9l0,0.21A3.21,3.21,0,0,1,152.5,42l0,0.06,0.07,0c0.16,0.06.36,0.15,0.57,0.25A4.22,4.22,0,0,0,155,42.95ZM142.1,40.67l0.1,0,0.18-.11a2.52,2.52,0,0,0,.94-0.77l0-.06-0.47-.17a15.55,15.55,0,0,0-2-.6l-0.17,0L140.88,39a1.64,1.64,0,0,1,.17.3l0.08,0.15a2.5,2.5,0,0,1,.31.48A1.09,1.09,0,0,0,142.1,40.67Zm1.66,1.92a1,1,0,0,0,.43-0.17,10.17,10.17,0,0,0,2.13-1.74l0.07-.08-0.11,0a7.65,7.65,0,0,1-2.31-.74l0,0,0,0a2.79,2.79,0,0,1-1.57,1.28l-0.09,0,0.06,0.07a5.57,5.57,0,0,1,.4.53A1.33,1.33,0,0,0,143.76,42.59Zm3.51,2.82c1.31-.85,2.78-1.82,3.36-3.33,0-.14-3.75-1.09-3.79-1.1h0a2.93,2.93,0,0,0-.77.74l-0.37.39-0.07.06a2.72,2.72,0,0,1-1.51.89h-0.19l-0.11.06a10.23,10.23,0,0,0,2.81,2.57l0.09,0.06Zm2,1.81a10.53,10.53,0,0,0,3.46-3.29c0.09-.16.17-0.32,0.25-0.48l0.19-.37,0-.05-0.05,0a9.93,9.93,0,0,0-2-.76h0l0,0a6.39,6.39,0,0,1-1.59,2.11,12.23,12.23,0,0,1-2.39,1.51L147,46a5.27,5.27,0,0,0,2.19,1.26h0Zm2.64,0.34a2.82,2.82,0,0,0,1.1-.35,4.38,4.38,0,0,0,2-3.69V43.47l-0.17,0a5.1,5.1,0,0,1-1.35-.31l0,0.11a12.24,12.24,0,0,1-1.51,2.41,3.8,3.8,0,0,1-1.71,1.47l-0.14,0,0.13,0.06A3.27,3.27,0,0,0,151.85,47.56Z" transform="translate(-138.08 -15.68)"/><path class="cls-2" d="M159.36,21.61a5.41,5.41,0,0,1,.5.58,9.2,9.2,0,0,1,1,2.41c0.16,0.48.31,0.93,0.47,1.31l0.23,0.55a2.07,2.07,0,0,0,.31.63,0.7,0.7,0,0,0,.34.16,5.52,5.52,0,0,1,.9.33,1.59,1.59,0,0,1,.46.32c1,1,.85,3.3-0.34,6.93A9.9,9.9,0,0,1,159,40.7,5,5,0,0,1,155.13,39c-2.4-2.4-3.9-6.5-4.3-7.69a1.77,1.77,0,0,1,.25-1.69,1.5,1.5,0,0,1,.69-0.37,1.17,1.17,0,0,0,.6-0.33,4.18,4.18,0,0,0,.19-2.22,7,7,0,0,1,0-1.17,8.93,8.93,0,0,1,1.5-4.19,2.78,2.78,0,0,1,2.07-1.13,4.45,4.45,0,0,1,3.25,1.44h0Zm-1.87,2.32A17.92,17.92,0,0,0,159,22.66l0,0,0,0a3.76,3.76,0,0,0-.47-0.57,5.5,5.5,0,0,0-1.46-1l-0.13-.07,0,0.14a14.64,14.64,0,0,1,.4,2.81V24Zm0.68,5.88c0.41-.18,3.15-1.94,3-2.7a12.35,12.35,0,0,0-1.72-4l-0.06-.08-0.06.08a2.71,2.71,0,0,1-.7.6,2,2,0,0,0-.75.72,4,4,0,0,0-.11,1.36c0,0.26,0,.5,0,0.67a9.52,9.52,0,0,0,.26,2.74l0.11,0.59Zm-4.82-5a9.75,9.75,0,0,0,3,.6L157,25.52h0.09l0-.09c-0.09-.42-0.15-0.95-0.21-1.51a7.54,7.54,0,0,0-.75-3.12l0,0h0c-1.49.45-2,1.9-2.42,3.19-0.09.28-.18,0.55-0.28,0.8l0,0.06Zm5.85,9.7A11.49,11.49,0,0,0,163.54,30a1.47,1.47,0,0,0-.2-1.67,1.64,1.64,0,0,0-.35-0.26l-0.07.12a30.25,30.25,0,0,1-4.13,4c-0.08,0-.12.05,0.24,1.89,0,0.23.08,0.4,0.08,0.44V34.6Zm-0.53-3.12a14.36,14.36,0,0,0,4-3.46l0,0,0,0a0.86,0.86,0,0,0-.7-0.24c-0.89.6-3.46,2.7-3.49,2.72a3.18,3.18,0,0,0,.12,1l0,0.08Zm1.29,8a2.58,2.58,0,0,1,.31-0.28,2.46,2.46,0,0,0,.22-0.2c1.37-2.18,2.84-4.71,2.94-7.33l-0.13,0a10.89,10.89,0,0,1-3.37,3.23c-0.94.68-.59,2.25-0.3,3.52,0.09,0.39.17,0.76,0.21,1.06l0,0.16Zm-6.55-13.48c0.6,0.6,2.55.76,3.48,0.84l0.32,0,0-.1a0.54,0.54,0,0,0-.14-0.22,4.74,4.74,0,0,0-2.13-.66,7.22,7.22,0,0,1-1.6-.38l-0.09,0v0.1A0.58,0.58,0,0,0,153.41,25.93Zm-1.83,4.37a2.59,2.59,0,0,0,.61.39,15.55,15.55,0,0,0,5.92,2h0.09V32.63c-0.1-.72-0.25-1.44-0.39-2.13-0.18-.88-0.36-1.79-0.46-2.7v0l0-.07A8.29,8.29,0,0,0,155,27a13.78,13.78,0,0,1-1.8-.48L153,26.48l0,0.13c0.11,0.62.23,2.67-.07,3a1.7,1.7,0,0,1-.65.13,1.07,1.07,0,0,0-.86.26A0.24,0.24,0,0,0,151.58,30.3ZM152.74,34a4.71,4.71,0,0,0,1.33.89,9.16,9.16,0,0,0,4.6,1.22h0.08l0-.08a5.81,5.81,0,0,1-.16-1,5.35,5.35,0,0,0-.27-1.32,0.47,0.47,0,0,0-.11-0.17,2.55,2.55,0,0,0-1.52-.33,4.65,4.65,0,0,1-.67-0.05A10.48,10.48,0,0,1,151.54,31l-0.16-.14,0.06,0.21A6,6,0,0,0,152.74,34Zm2.47,3.85a22,22,0,0,0,1.85,1.64c0.88,0.57,1.43.74,1.72,0.56s0.25-.88.14-1.65A7,7,0,0,1,158.8,37l0,0a7.1,7.1,0,0,0-1.87-.6,23.32,23.32,0,0,1-3.59-1.13l-0.09.09A13.86,13.86,0,0,0,155.21,37.82Z" transform="translate(-138.08 -15.68)"/><path class="cls-2" d="M164,29.06c11.08-6.3,23.46-7.61,32.65-5.67a57.37,57.37,0,0,1,13,4.85c4.34,2.1,7.88,5.41,11.48,8.78,7,6.51,9.84,18.3,6.35,27.8-3.48,6.41-9.12,11.55-14.63,15.07-8.53,5.44-17.32,8.45-27.11,7.87a19.78,19.78,0,0,1-5.29-.43c-4.51-1.16-9.15-1.45-13.52-3.42a61.38,61.38,0,0,1-9.31-4.78q-1.5-1.78-2.84-3.71c-4.09-7.68-5.14-15.93-3.31-27.26,0-.13-0.65-0.31-0.69-0.09a101.88,101.88,0,0,0-1,12.61,29.62,29.62,0,0,0,1.31,8.43c-0.23-.48-0.46-1-0.68-1.45a42.85,42.85,0,0,1-3.07-11.26c0.12-2,.36-7.3.69-9.27-0.27-.1-0.33-0.2-1.27-0.7-0.2,1.59-1.21,8.32-.52,10.39-0.06,1.23-.07,2.45,0,3.6,0.28,8.46,4.19,14,9.55,18.25a27.47,27.47,0,0,0,2.75,3,22.82,22.82,0,0,0,3.94,3.47c0.31,0.23.63,0.46,0.95,0.68a20.4,20.4,0,0,0,2.61,1.69A40.11,40.11,0,0,0,186.82,93c8.5,0,18-.6,25.65-5.36a33.16,33.16,0,0,0,10.26-9.1,44.5,44.5,0,0,0,6.68-12.74,36.09,36.09,0,0,0,1.33-6.32c3-8.94,0-18.87-6.07-25a30.65,30.65,0,0,0-8.49-6.53,46.77,46.77,0,0,0-12.07-6.77c-8.65-3.3-18.39-3.19-27.31-1.61a41.48,41.48,0,0,0-15.67,6.17l0.2,0.63a37.52,37.52,0,0,1,13.15-5.55c4.73-.92,10.49-1.81,14.6-1.68a43,43,0,0,1,13.68,2.55A59.5,59.5,0,0,1,210,24.92c-2.56-.95-5.2-1.64-7.74-2.54-7.89-2.78-16.82-2.67-24.88-1.1a66,66,0,0,0-15.46,5.81s0.46,0.3.5,0.29c17.06-7.81,25-6.53,30.37-5.78,7.12,1,16.74,3.5,24.56,8.26a37.52,37.52,0,0,1,8.32,9.51A32.63,32.63,0,0,1,230.17,54,25.34,25.34,0,0,1,230,58.8q-0.2.69-.42,1.37a29.21,29.21,0,0,0,.34-3c0.3-5.05-1.24-9.13-3-13.61-1.54-4-5.39-8.08-8.44-10.51-3.37-3.06-7.29-4.81-11.06-7s-8.38-3.21-12.44-4a34.64,34.64,0,0,0-12.39-.34,46.56,46.56,0,0,0-9.42,2.06l-0.37.14-0.55.17c-2,.7-8.75,3.78-8.8,3.76Zm-16.8,34c0-.77,0-1.53,0-2.29l0.06,0.36c0.75,4.6,3.35,9.71,5.81,13.37l0.42,0.63q0.33,0.66.7,1.28C150.92,73.2,147.19,68.23,147.24,63Zm30.6,27.37c-5-1.48-10.32-3-14.88-6-1.15-1-2.23-2-3.21-3q1,0.64,2.07,1.24a37.88,37.88,0,0,0,13.06,4.59c4.46,0.59,8.79,1.69,13.33,1.69,4.15,0,9.3-.13,13.16-2.12,4.35-1.75,9.24-3.7,13-6.91,1.7-1.46,3.58-2.64,5.29-4.07a38.45,38.45,0,0,0,4.52-4.7c0.28-.33.54-0.66,0.81-1a58.82,58.82,0,0,1-6.5,9.11c-3.24,3.81-8.15,6-12.32,8.09C197.59,91.54,186.94,91.93,177.84,90.41Zm49.07-20.59a34.2,34.2,0,0,1-20.86,19.57,46.48,46.48,0,0,1-12.45,2.38,61.58,61.58,0,0,0,11.09-2.89,43.21,43.21,0,0,0,12.25-7c3.66-2.43,6.3-7,8.69-10.87a29.08,29.08,0,0,0,2.87-6.27q0.28-.53.54-1.08A62.1,62.1,0,0,1,226.91,69.82Zm3.79-19.16c-0.62-4.53-2.65-10.23-5.47-13.58a52.12,52.12,0,0,0-3.52-4.16c6.09,5,10.14,11.77,9.25,20.89C230.92,52.75,230.84,51.7,230.7,50.66Z" transform="translate(-138.08 -15.68)"/></svg>