<svg id="Layer_1" data-name="Layer 1" xmlns="http://www.w3.org/2000/svg" viewBox="0 0 480.79 125.1"><defs><style>.cls-1,.cls-4{fill:#e8247f;}.cls-2{fill:#644130;}.cls-3{fill:#69b94c;}.cls-4{fill-rule:evenodd;}</style></defs><title>WellieWishersLogo</title><g id="flower"><path class="cls-1" d="M35.16,36.2a13.61,13.61,0,0,0-.33-1.39c-1.63.47-2.5,2-3.5,3.22-0.64.81-1.25,1.65-1.85,2.51-0.23.34-.52,0.69-0.77,1.08a24.38,24.38,0,0,0-2.13-3.18c-0.6-.87-1.45-2.27-2.47-2.67a0.49,0.49,0,0,0-.62-0.15,3.77,3.77,0,0,0-1.09,1.73c-0.48.93-1,1.84-1.52,2.74a21.48,21.48,0,0,0-1.12,1.84,12.17,12.17,0,0,0-2.83-2.06c-1.11-.7-2.18-1.79-3.35-2.37a0.4,0.4,0,0,0-.75-0.15c-2.05,3.86-.74,10.19.66,13.94,1.66,4.45,5.22,7.2,9.37,7.39,1.56,0.07,3.83-.93,5.23-1.56a11.63,11.63,0,0,0,4.26-3.24c2.62-3.23,3.34-7.59,3.25-11.64a38.58,38.58,0,0,0-.47-6" transform="translate(0)"/><path class="cls-2" d="M24.08,56.65c-0.53,0-1.06,0-1.61,0a7.43,7.43,0,0,1-3.79-1.14A14.17,14.17,0,0,1,13.75,49c-1.84-4.91-2.94-11.21,0-16,0.25-.4,4.81,3,5.15,3.33a23.15,23.15,0,0,0,1.8,1.52,30,30,0,0,1,3.61-5.63L25,31.48l0.68,0.75,0.87,1A40.94,40.94,0,0,1,30,37.24a44.15,44.15,0,0,1,4.94-6.09l1-1,0.47,1.28a16.2,16.2,0,0,1,.59,2,31.15,31.15,0,0,1,.62,6.18c0.12,5.14-1,9.24-3.44,12.2a12.46,12.46,0,0,1-4.58,3.49,14.84,14.84,0,0,1-5.45,1.32m-9.4-21.28c-1.51,3.41-1.28,7.8.68,13,1.5,4,4.8,6.84,9.18,6.8A14.24,14.24,0,0,0,28.88,54c5.69-2.18,7.07-8.82,6.94-14.36a29.76,29.76,0,0,0-.58-5.83c0-.15-0.07-0.29-0.11-0.43a43.07,43.07,0,0,0-4.46,5.88l-0.77,1.23-0.7-1.27a28.63,28.63,0,0,0-3.94-4.91l-0.19-.21A22.9,22.9,0,0,0,22,39.46l-0.34.93-0.87-.47a15.73,15.73,0,0,1-3-2.27,12.26,12.26,0,0,0-3.11-2.29" transform="translate(0)"/></g><g id="l1"><path class="cls-3" d="M2.35,3.74C5.69,11,15.4,18.26,25.77,16.55,23.52,2.52,11.27,6.08,2.35,3.74" transform="translate(0)"/><path class="cls-2" d="M26.24,17.59a6.5,6.5,0,0,0,1.2-.27c-0.2-1-.8-1.79-1-2.76C25.67,11.27,25,7.72,22.22,5.5,20,3.77,16.83,2.93,14.11,2.61,10.82,2.23,7.06,1.69,4.2,0,4.27,2.6,6.28,5.26,7.73,7.26a27.63,27.63,0,0,0,9.16,7.54c2.56,1.44,6.17,3.22,9.35,2.8m-5-3c-2.47-1.32-5-2.59-7.45-3.87C10.67,9.1,8.61,5.86,6.56,3.13c2,0,4.41.93,6.44,1.38,2.61,0.59,5.52.71,7.8,2.28,3.11,2.14,3,5.75,4.12,9,0.22,0.62-3.42-1.05-3.66-1.18" transform="translate(0)"/></g><g id="l2"><path class="cls-3" d="M49.79,48.63a8.31,8.31,0,0,0-4.5-1.89c-0.4,0-5.29.16-5,.83,1.29,2.74,2.22,5.22,4.81,7S51,57.1,54,58c-0.09-.61-0.17-1.23-0.31-1.84-0.68-3-1.8-5.77-3.89-7.54" transform="translate(0)"/><path class="cls-2" d="M51.2,57.45a33.77,33.77,0,0,0-.11-6.14c-0.67-4.7-7.73-5.81-11.4-4.7-0.12,3.55,1.75,7.05,3.95,9.68A25.85,25.85,0,0,0,47.47,60c0.22,0.17,3.7,2.8,3.77,2.4,0.29-1.56-.11-3.39,0-5m-1.43,2.89c-0.41-.49-0.79-1-1.19-1.49C47.08,57,44.85,56,43.37,54.24s-2-4.83-2.8-7.06c2.28-.12,4.6-0.33,6.59,1.06A7.68,7.68,0,0,1,50,53.58c0.09,2.27-.16,4.5-0.22,6.75" transform="translate(0)"/></g><g id="l3"><path class="cls-3" d="M142.19,29.84a5.22,5.22,0,0,1-3.1,1.95A13.59,13.59,0,0,1,137.46,30c-6.26-8.29,4.74-17.71,3.21-26.41,3.66,3.51,6.28,9.66,5.72,14.62-0.3,2.62-.73,6-2,8.27-0.15.27-1.18,1.83-2.2,3.31" transform="translate(0)"/><path class="cls-2" d="M141.36,10.52a14.89,14.89,0,0,0-1.11-2.2,14.46,14.46,0,0,0-4.44-4.4,29.09,29.09,0,0,1-.94,6.08c-0.57,2.78-1.65,5.42-2.25,8.19a15.34,15.34,0,0,0,5.72,16,8.09,8.09,0,0,1,1.34-1.75c2.36-3.31,2.89-8,3.07-11.88a23.63,23.63,0,0,0-1.39-10.07m-1.1,17.19a10.46,10.46,0,0,1-2.67,3.76,17.75,17.75,0,0,1-3-5.47,12,12,0,0,1-.79-6.06,48.17,48.17,0,0,1,1.44-6.07c0.17-.64,2-6,1.62-6.31,2.36,1.75,3.51,5.09,4,7.84,0.63,4,1.06,8.54-.54,12.32" transform="translate(0)"/></g><g id="l4"><path class="cls-3" d="M161.71,38.42a26.58,26.58,0,0,0-20.08-1.81,10,10,0,0,0-2.86,1.33c2.56,2.51,7.56,5.27,11.16,5.46,4.47,0.23,9.79-1.25,12.71-4-0.3-.17-0.63-0.84-0.93-1" transform="translate(0)"/><path class="cls-2" d="M163.21,33.36c0.07-.16.14-0.32,0.2-0.47a24.1,24.1,0,0,1-6.1-1.17c-1.58-.5-2.72-1-4.46-0.79a22.45,22.45,0,0,0-11,4.08c-1.1.84-2.16,1.75-3.24,2.63l-0.84.71c0.12-.1,5.41,2.4,6,2.56a17.73,17.73,0,0,0,7.31.64,17,17,0,0,0,6.49-2.4,19,19,0,0,0,4.24-3.54,11.42,11.42,0,0,0,1.43-2.24m-3,1.41a10,10,0,0,1-2.4,2,18.26,18.26,0,0,1-3.66,2.34,10,10,0,0,1-4.84,1.16c-2.85-.23-6-0.61-8.33-2.5a15.06,15.06,0,0,1,6.69-4.39,16.22,16.22,0,0,1,6.53-.64c2.13,0.24,4.09,1.3,6.22,1.51a1.5,1.5,0,0,1-.2.52" transform="translate(0)"/></g><g id="l5"><path class="cls-3" d="M233.76,55l1-.15c-0.13,2.9.08,6.42-.88,9.18a14.1,14.1,0,0,1-3.67,6c-4.06,3.67-11.14,4.52-15.77,3.33,0.16-.58,0-1.83.16-2.41a27.54,27.54,0,0,1,7.52-10.37A24.51,24.51,0,0,1,233.76,55" transform="translate(0)"/><path class="cls-2" d="M232.34,57.82c0-.16,0-0.33,0-0.49,0-3.18-.51-6.36-0.57-9.54-2.08,1.35-4.25,2.55-6.26,4a41.56,41.56,0,0,0-6.85,5.78,20.69,20.69,0,0,0-4.3,8.61,25.16,25.16,0,0,0-.39,4.34c0,0.37-.2,2.25.33,2.39a0.21,0.21,0,0,0,.16,0c1.35,0.25,7.26-1.87,7.73-2a21.64,21.64,0,0,0,5-2.3,14.75,14.75,0,0,0,5.11-10.7m-5.57,8.72a9.4,9.4,0,0,1-4,2.34c-2.49.74-5.06,1.35-7.52,2.23a15.17,15.17,0,0,1,.67-3.76,24.86,24.86,0,0,0,.89-3.27,15.17,15.17,0,0,1,3-5.31,26.3,26.3,0,0,1,5-4.76c1.58-1.19,3.49-2,5-3.18a33.11,33.11,0,0,1,.4,9c-0.2,1.88-1.65,4.2-2.67,5.77a6.19,6.19,0,0,1-.76.94" transform="translate(0)"/></g><g id="iDot"><path class="cls-1" d="M329.51,73c-0.09.3-4.7-2-5.12-2.29a11.71,11.71,0,0,1-3.24-2.85,14.48,14.48,0,0,1-2-3.69,9,9,0,0,1-.13-1c0-.06,0-0.12,0-0.19a0.29,0.29,0,0,0,0-.23s0-.07,0-0.1,0-.14,0-0.21a0.07,0.07,0,0,0,0,0,3.26,3.26,0,0,1,0-.48v0c0.28-3.06,2.24-4.87,4.12-4.87,2.4,0,3.56,2.71,4.38,4.44,0.93-1.72,2.1-3.64,4.42-3.64A3.82,3.82,0,0,1,335.72,61c0.45,2-.46,3.51-2,5.19-2.19,2.44-3.44,4.14-4.25,6.81" transform="translate(0)"/><path class="cls-2" d="M313.59,71.83c-0.7-.17-1.73-1.64-0.76-2.09a2.41,2.41,0,0,1,.31-0.8c0.22-.49,3.27-2.6,3.81-2.15l0.35,0.29c0.79,0.66-2.08,3.17-2.42,3.7-0.24.35-.74,1.12-1.25,1.05h0" transform="translate(0)"/><path class="cls-2" d="M343.83,68.06c-0.86.47-3.17-.71-4.05-1-0.56-.17-2.77-1.48-1-1.81l0.08-.13a0.63,0.63,0,0,1,.54-0.22c0.67,0.18,3.48.93,3.93,1.44l0,0c0.88-.3,1.26,1.29.47,1.71" transform="translate(0)"/><path class="cls-2" d="M304.71,60.24a1,1,0,0,1-.69-1l0.37-1.28a0.47,0.47,0,0,1,.5-0.26c0.87,0.14,10.56,1.69,9.79,3.29-0.26.53-1.71-.1-4.21-0.4-2.16-.26-5.4-0.13-5.76-0.3" transform="translate(0)"/><path class="cls-2" d="M348.75,56.17l-0.3.23c-1.54,1.11-3.09,1-4.86,1.67-0.83.31-1.66,0.61-2.51,0.84-0.42.11-2.74,0.57-1.7-.38a26.17,26.17,0,0,1,5-3.24c0.48-.26,4.64-2.75,4.92-2.41a2.09,2.09,0,0,1,.29,2,2.84,2.84,0,0,1-.87,1.25" transform="translate(0)"/><path class="cls-2" d="M317.56,51.9c-0.71.28-5.41-3.23-5.06-3.84l0.38-.68c0.78-1.37,6.69,3.73,4.68,4.52" transform="translate(0)"/><path class="cls-2" d="M325.45,40.62a0.85,0.85,0,0,1,1.13.76l1.07,9.21a1.6,1.6,0,0,1,.08.67l-0.28.36c-1.05,1.31-4.82-11.47-2.88-10.88a3.32,3.32,0,0,1,.88-0.13h0c0.57,0,0,0,0,0" transform="translate(0)"/><path class="cls-2" d="M336.87,52.41a1.54,1.54,0,0,1-.15-2s2.14-3.09,2.09-3.07l1.16-.22c0.89-.31,1.24,1.37-1.06,3.78-0.46.49-1.32,2-2,1.52" transform="translate(0)"/><path class="cls-2" d="M336.33,56.27a6,6,0,0,0-4.61-2.95,5.25,5.25,0,0,0-4.35,2.56c-1.27-1.74-3.1-3.34-5.44-3a6.14,6.14,0,0,0-4.36,3.84c-1.13,3.19.21,7.24,2.32,9.77a13.92,13.92,0,0,0,10.18,5.09,8.76,8.76,0,0,1,2-5.06c1.42-1.69,3.21-3.36,4-5.45a6.82,6.82,0,0,0,.27-4.61l-0.08-.19m-3.47,6.91-0.53.58A12.2,12.2,0,0,0,329,70.09a18.3,18.3,0,0,1-3.85-1.79,8.85,8.85,0,0,0-1.48-1,9,9,0,0,1-1.88-.94,6.3,6.3,0,0,1-1.55-2,10.29,10.29,0,0,1-1.26-5c0.13-2.07,1.62-5,4.11-5,1.63,0,3,1.46,3.58,3.91a0.59,0.59,0,0,0,1.14,0,3.53,3.53,0,0,1,7,0c0.47,2.14-.67,3.57-2,5" transform="translate(0)"/></g><g id="wishers"><path class="cls-4" d="M373.34,92.71a8.13,8.13,0,0,0,1.27-1.29c2.06-3.65,5.18-6.38,8.37-8.85,4.48-3.45,11.1-.63,12.31,5,1.15,5.34,2.66,16.48,3.58,21.86a16.66,16.66,0,0,1-.23,5.34c-0.3,1.83-2.75,2.92-4.59,2.25-2.33-.85-3.37-3-3.2-5.76,0.34-5.44-.18-16.68-2.47-21.77-1.21-2.69-2.61-2.9-4.81-.87a24.21,24.21,0,0,0-8,19.71,32.52,32.52,0,0,1,0,3.41c-0.14,2-1.47,3-3.15,3.76a2.93,2.93,0,0,1-3.62-.48,3.82,3.82,0,0,1-1.08-2.09c-0.22-3.15-.26-6.31-0.37-9.46q-0.23-6.43-.48-12.85c0-.06,0-0.12,0-0.18,0-8.87-.43-17.68-0.36-26.53,0-1.16.14-2.38,1.45-2.47a3.5,3.5,0,0,1,2.72,1.06,8.91,8.91,0,0,1,1.42,3.95c0.27,2.29.25,1.57,0.43,3.87,0.09,1.3.71,2.57,0.72,3.85,0.06,6.69-.12,4.46-0.11,11.14,0,2.32.11,4.63,0.19,7.46" transform="translate(0)"/><path class="cls-4" d="M289.47,90.14a6.36,6.36,0,0,0-.45,1.77c0.15,3.71-1.31,6.9-2.85,10.15-1.66,3.5-3.62,6.95-3.76,11-0.07,2.1-1.7,2.65-3.33,3.2s-2-.63-2.59-1.57c-3.18-5-6.89-17.67-9-23.19-1-2.77-2.08-5.54-3-8.34-0.72-2.11-1.37-4.26-1.92-6.43a1.87,1.87,0,0,1,.47-1.64c0.94-.34,2.44-0.8,2.92-0.36a15.4,15.4,0,0,1,3.76,4.79c2.1,4.73,5.91,16.55,7.79,21.39a10.84,10.84,0,0,0,.63,1.84,2.13,2.13,0,0,0,1.27,1,1.62,1.62,0,0,0,1.22-.81,82.36,82.36,0,0,0,4-8.89c1.17-3.42,1.86-7,2.71-10.55,0.31-1.29,2.14-2.66,3.55-2.15a6.67,6.67,0,0,1,3.38,2.31c1.88,3.07,3.42,6.36,5.05,9.59,1.46,2.91,2.8,5.89,4.31,8.77,0.59,1.13,1.38.63,1.9-.19a22.57,22.57,0,0,0,1.3-2.33c1.72-3.52,3.36-7.07,5.14-10.56a11,11,0,0,0,1.29-7.22c-0.29-1.55.06-3.09,1.83-3.58a3,3,0,0,1,2.29.41,4.12,4.12,0,0,1,.67,5.55,15.43,15.43,0,0,0-1.23,2.54q-1.79,4.25-3.55,8.53c-1.15,2.76-2.26,5.55-3.46,8.3-0.55,1.24-1.3,2.4-1.94,3.61a3.15,3.15,0,0,0-.64,1.42c0.15,1.55-.32,2.52-1.91,2.91-1.79.44-3.63,0.88-4.88-.91a47.93,47.93,0,0,1-3.59-5.91c-1.86-3.7-3.56-7.49-5.3-11.26-0.49-1.08-.9-2.18-1.35-3.28l-0.75.09" transform="translate(0)"/><path class="cls-4" d="M402.13,99.09c0.57-5.77,2.71-10.65,7.16-14.2,1-.84,2.1-1.66,3.19-2.43,3.63-2.57,7.3-2,10.69.77,2.78,2.31,3.62,5.56,4.54,8.77s-0.83,4.84-3.89,4.5-6.4-.62-9.6-0.79-4.16.79-4,4.13a32.88,32.88,0,0,0,1.15,6.95c0.8,3,3.11,4,5.74,4,2.2,0,4.56-.24,6.29-1.74s2.67-3.62,4.81-4.43a2,2,0,0,1,1.79,1c0.68,1.62.6,3.45-.89,4.47-2.37,1.63-4.29,3.69-7.09,4.62a14.84,14.84,0,0,1-12-1.44c-4.86-2.93-8.3-7.51-7.85-14.23M414.7,92.5a41,41,0,0,0,6.61-.34A2.28,2.28,0,0,0,423,91c0.53-1.39-.83-4.25-2.12-4.92a6.45,6.45,0,0,0-7.63,1.69,5.84,5.84,0,0,0-1.07,3.55c0.07,0.75,1.15,1.08,2.55,1.19" transform="translate(0)"/><path class="cls-4" d="M345,119.3c-2.87,0-5.12-1-6.63-3.48a24.34,24.34,0,0,0-1.67-2c-1-1.31-.85-3.38.36-3.92,1.55-.7,2.33.18,3.15,1.51a13.16,13.16,0,0,0,3.41,3.6c2.16,1.55,5.86-.21,6.43-3,1.92-9.64-7.71-18.43-6.95-27.78a10.68,10.68,0,0,1,4.72-7.92c4.28-2.76,11.77-1.14,13.92,3.7,0.52,1.18.78,2.47-.45,3.25s-2-.35-2.63-1.32a5.22,5.22,0,0,0-6.54-1.71,3.39,3.39,0,0,0-1.57,2.3,12.94,12.94,0,0,0,.6,5.29c2.23,5.41,3.16,6.13,5.74,11.38,2.44,5,2.75,9.8-.39,14.39a10.08,10.08,0,0,1-6.69,4.5c-1.63.27-3.21,0.8-4.82,1.21" transform="translate(0)"/><path class="cls-4" d="M463.62,118.73c-2.87,0-5.12-1-6.63-3.48a23.08,23.08,0,0,0-1.67-2c-1-1.31-.85-3.38.36-3.92,1.55-.7,2.33.18,3.15,1.5a13.08,13.08,0,0,0,3.41,3.6c2.16,1.55,5.86-.21,6.43-3,1.92-9.64-7.71-18.43-6.95-27.78a10.68,10.68,0,0,1,4.72-7.92c4.27-2.76,11.77-1.14,13.92,3.7,0.52,1.18.78,2.47-.44,3.25s-2-.35-2.63-1.32a5.22,5.22,0,0,0-6.54-1.71,3.38,3.38,0,0,0-1.57,2.3,12.83,12.83,0,0,0,.6,5.29c2.23,5.41,3.16,6.13,5.74,11.38,2.44,5,2.75,9.8-.39,14.39a10.07,10.07,0,0,1-6.68,4.49c-1.63.27-3.22,0.8-4.82,1.21" transform="translate(0)"/><path class="cls-4" d="M443.72,99.91a22.88,22.88,0,0,0-.22,4.16c0.33,3.75.82,7.49,1.2,11.23,0.14,1.34-1.29,2.79-3.21,3.11-1.5.25-2.9-.14-3.25-1.84-0.7-3.43-1.25-6.9-1.84-10.35s-1.16-6.63-1.69-10c-0.35-2.2-.6-4.42-0.91-6.63-0.34-2.44-.71-4.88-1-7.34-0.23-1.89,1.09-2.6,2.58-2.55a3.56,3.56,0,0,1,2.55,1.39A39.67,39.67,0,0,1,440,85.78c0.41,0.89,1,1.7,1.47,2.54,0.8-.56,1.64-1.06,2.38-1.68,2.24-1.9,4.32-4,6.7-5.71a5,5,0,0,1,5.94-.27c1.28,0.88,2.1,2.12,1.39,3.79A3,3,0,0,1,454,86.29a4,4,0,0,0-4.52,1.23,68.24,68.24,0,0,0-4.73,6.27,10.86,10.86,0,0,0-.88,3.23,13.9,13.9,0,0,1-.12,2.89" transform="translate(0)"/><path class="cls-4" d="M324.55,85.65c0.16-1.88.39-3.74,0.72-5.57,0.25-1.38,1-2.44,2.61-2.3s2.77,0.81,3,2.67a167.23,167.23,0,0,1,.87,25.48c0,1.09.1,2.19,0.14,3.28a4.73,4.73,0,0,1-2.24,4.07,3.11,3.11,0,0,1-5-2.1,45,45,0,0,1-.42-6.55c0.07-6.2-.2-12.69.33-19" transform="translate(0)"/></g><g id="wellie"><path class="cls-2" d="M207.42,116.2c-0.3-1.41-2-2.53-2.81-3.47a56.74,56.74,0,0,1-3.66-4.76,98.36,98.36,0,0,1-6.45-10.72,110.71,110.71,0,0,0,2.9-12.82,127,127,0,0,0,1.86-14.92c0.39-5.95,1.61-17-2.22-22.12-2.28-3-6.45-3-9.08-.17s-4.23,7.46-4.93,11.41c-1.95,11-.53,21.76,2.58,32.36a86.31,86.31,0,0,0,3.94,10.8c-2.23,5.55-4.27,7.77-4.71,8.21a8,8,0,0,1-10.2.37c-4.61-3.51-7.29-10.28-8.79-15.69,1.67-3.21,3.31-6.07,4.74-9.4a119.13,119.13,0,0,0,8.29-27.08c0.8-4.66,4.49-23-4.87-22.73s-14,17.9-15.23,24.79A112.21,112.21,0,0,0,157,78.64a68.85,68.85,0,0,0,2.69,19.72c-2.09,3.15-4,6.37-6.37,9.35-2.56,3.24-6.25,7.15-10.75,5.1-4.09-1.87-5.19-6.67-5.71-10.7,10.15-3.75,12.23-11.48,12.64-14.77,0.69-5.45-3.13-9.23-8.8-7.83C126.82,83,125.3,109,135.65,116.68c10.67,7.88,20.63-6.65,25.56-14.11,1.68,4.11,3.87,8.91,7.18,12l0.16,0.14s4.37,4.22,10.19,3.41a12.42,12.42,0,0,0,7.22-3.64c0.13-.12.25-0.25,0.38-0.37l0,0a27.18,27.18,0,0,0,5.11-8.25,41.61,41.61,0,0,0,5.73,8.59c1.07,1.21,3.36,3.51,5.63,4.2h0.06c1.78,0.55,5.06.13,4.52-2.39m-71.2-17.89a25.21,25.21,0,0,1-.23-5.93,17.31,17.31,0,0,1,1.56-6.4c0.92-1.89,3.33-3.68,5.49-2.91,2.69,1,2.31,4.55,1.75,6.76a11.53,11.53,0,0,1-3.34,5.57c-0.51.49-3.77,2.75-5.19,3a0.08,0.08,0,0,1,0,0m28.54-9.22c-2-8.87-1.5-18.33-.56-27,0.44-4.1,4.4-24.26,11.11-21.79,3.39,1.25.67,16.22,0,18.89a141.76,141.76,0,0,1-8.17,24.92c-0.75,1.68-1.57,3.34-2.41,5m27.61,3.82c-3.6-10.19-5.58-21.43-4.8-31.23,0.16-2,.95-12.32,4.84-11.51,3.66,0.76,3.8,7.77,3.89,10.5,0.33,10-2.8,26.54-3.93,32.24" transform="translate(0)"/><path class="cls-2" d="M258.7,101.16c-2.2-2.18-5.43,2.5-6.44,3.83-2.08,2.76-4.46,6-8,7-5.27,1.54-8.17-3.52-9.49-7.81,5.69-3.56,11.26-9,12.13-15.35,0.78-5.72-2.72-10.86-9.3-9.23-8.52,2.11-10.23,13.55-10.11,20.8a25.66,25.66,0,0,0,.22,3c-4.46,2.65-10.16,5.54-12.75,2.83-2.27-2.37-1.94-7.36-1.31-10.32,0.81-3.76,1.81-7.51,2.77-11.24,0.52-2,1.41-6.37-1.44-7.2-4.2-1.22-5.71,2.51-6.54,5.8-1.85,7.41-5.39,16.13-2,23.62,1.09,2.39,4.12,5,6.7,5.47,3.84,0.69,10.25-2.26,15.41-4.91,1.76,5.65,5.7,10.45,12.35,10.31,4.74-.1,8.66-2.69,12-5.77a27.21,27.21,0,0,0,5-5.82c0.68-1.15,2-3.76.75-5m-25.86-8.67a17.19,17.19,0,0,1,1.56-6.4c0.92-1.89,3.32-3.68,5.49-2.91s2.43,3.63,2.06,5.4c-0.94,4.47-4.91,9.11-8.68,11.53a41.62,41.62,0,0,1-.44-7.62" transform="translate(0)"/><path class="cls-2" d="M169,17.25c-1.5-2.35-4.81-1.94-7.09-1.33-14.85,4-25.8,17.89-33.19,30.52C119.3,62.57,113.32,84,110,102.25h0c-1.27-3-7.06-16.36-11.54-26l-0.55-1.18c1.39-1.79,2.67-3.16,4.38-5,2.09-2.27,4.41-4.24,6.42-6.62s5.34-7.69,2.17-10.7c-3.35-3.18-9.27,1.17-11.38,3.86-1.36-2.84-5-5.44-8.18-4.54s-5,4.65-4.91,7.58c0.17,4,2.36,8,4.3,11.37,0.82,1.44,1.56,2.8,2.24,4.09A142.41,142.41,0,0,0,76.6,96.35c-3.72-21-7.95-42.8-18.41-61.63C53.83,26.86,45.69,17.37,36.25,15.6c-8.92-1.68-19,2.68-25.28,8.82C4.44,30.75-.09,42.44,0,51.57c0.06,6.14,3.29,15.9,8.92,19.38,6.44,4,14.6,3.41,21.38.39,2.36-1.05,14.76-8,9.07-12.07-2.77-2-5.88,1.48-7.45,3.16C26.67,68,17.28,71.84,10.2,67.36c-7.48-4.74-8.64-16.49-6.47-24C6.06,35.26,11.83,27,19.22,22.67c10.1-5.91,20.62-3.32,27.19,6.07,3.86,5.51,6,11.49,8.08,17.81a201.27,201.27,0,0,1,8.89,39.33,186.1,186.1,0,0,1,1.36,20.28,151.7,151.7,0,0,1-.5,16.07c-0.54,5.43,10.22,2.37,11-2.49A122.3,122.3,0,0,1,94.87,79c4.73,9.71,7.31,20.26,9.45,30.8q0.81,4,1.58,8c0.43,2.29.79,4.62,2.91,5.31,1.82,0.6,5.05,0,6.41-1.48,2-2.21,2.75-5.57,3.14-8.46,2-15,3.89-29.65,7.74-44.26,5-19,14.78-43.73,37.26-46.76,2.24-.3,5,0.11,6-2.54a2.58,2.58,0,0,0-.29-2.35M105.72,56.84c1.72,1.16,1.25,2.86.27,4.29-2.29,3.33-5.27,5.63-8.14,8.47a13.56,13.56,0,0,0-1.72,1.8C93.79,66,89.66,57.8,94.62,57.3c2-.21,3.46,2.39,4.26,3.79,0,0,4.35-5.92,6.83-4.25" transform="translate(0)"/></g></svg>